<?xml version="1.0" encoding="UTF-8"?>
<svg width="30px" height="39px" viewBox="0 0 30 39" version="1.1" xmlns="http://www.w3.org/2000/svg" xmlns:xlink="http://www.w3.org/1999/xlink">
    <!-- Generator: Sketch 51.3 (57544) - http://www.bohemiancoding.com/sketch -->
    <title>People active - small</title>
    <desc>Created with Sketch.</desc>
    <defs>
        <filter x="-61.8%" y="-144.1%" width="223.5%" height="388.3%" filterUnits="objectBoundingBox" id="filter-1">
            <feGaussianBlur stdDeviation="3.40680804" in="SourceGraphic"></feGaussianBlur>
        </filter>
    </defs>
    <g id="MOBILE-WEB-ATM" stroke="none" stroke-width="1" fill="none" fill-rule="evenodd">
        <g id="People-active---small" transform="translate(2.000000, 0.000000)">
            <g id="Group-7">
                <g id="Group-Copy">
                    <g id="Group-4-Copy-2">
                        <path d="M20.5336626,2.51661903 L20.2444029,2.80390764 L19.9047607,2.57841021 C17.8738605,1.23004199 15.4918718,0.5 13,0.5 C6.09644063,0.5 0.5,6.09644063 0.5,13 C0.5,19.9035594 6.09644063,25.5 13,25.5 C19.9035594,25.5 25.5,19.9035594 25.5,13 C25.5,11.4596801 25.2215356,9.95854182 24.6849431,8.55029001 L24.5401101,8.17018528 L24.8827884,7.95103289 C25.8827942,7.3115012 26.5,6.20888856 26.5,5 C26.5,3.06700338 24.9329966,1.5 23,1.5 C22.0628627,1.5 21.1854066,1.86931621 20.5336626,2.51661903 Z M20.4578794,1.74530775 C22.803463,3.30260255 24.615791,5.56030814 25.6194053,8.19422766 L25.7642383,8.57433239 L25.42156,8.79348478 C24.7040972,9.25232229 23.8697429,9.5 23,9.5 C20.5147186,9.5 18.5,7.48528137 18.5,5 C18.5,3.78531106 18.9841974,2.64612238 19.8289774,1.80709893 L20.1182372,1.51981032 L20.4578794,1.74530775 Z" id="Combined-Shape" stroke="#FFFFFF" fill="#060E2E"></path>
                        <circle id="Oval-2" stroke="#FFFFFF" fill="#04C695" cx="23" cy="5" r="4"></circle>
                        <g id="icons8-person_male" transform="translate(5.909091, 7.090909)" fill="#FFFFFF" fill-rule="nonzero">
                            <path d="M7.09090909,0 C4.35703107,0 2.12727273,2.22975835 2.12727273,4.96363636 C2.12727273,6.67265607 2.99978711,8.1905538 4.32102273,9.08522727 C1.79211665,10.1710227 0,12.6805401 0,15.6 L1.41818182,15.6 C1.41818182,13.5502841 2.50120756,11.7664773 4.12159091,10.7693182 C4.59801136,11.9382106 5.75859393,12.7636364 7.09090909,12.7636364 C8.42322425,12.7636364 9.58380682,11.9382106 10.0602273,10.7693182 C11.6806106,11.7664773 12.7636364,13.5502841 12.7636364,15.6 L14.1818182,15.6 C14.1818182,12.6805401 12.3897015,10.1710227 9.86079545,9.08522727 C11.1820311,8.1905538 12.0545455,6.67265607 12.0545455,4.96363636 C12.0545455,2.22975835 9.82478711,0 7.09090909,0 Z M7.09090909,1.41818182 C9.05752876,1.41818182 10.6363636,2.9970174 10.6363636,4.96363636 C10.6363636,6.93025604 9.05752876,8.50909091 7.09090909,8.50909091 C5.12429013,8.50909091 3.54545455,6.93025604 3.54545455,4.96363636 C3.54545455,2.9970174 5.12429013,1.41818182 7.09090909,1.41818182 Z M7.09090909,9.92727273 C7.67258558,9.92727273 8.22656285,10.0103697 8.75284091,10.1710227 C8.5063212,10.8551848 7.86370756,11.3454545 7.09090909,11.3454545 C6.31811062,11.3454545 5.67549698,10.8551848 5.42897727,10.1710227 C5.95525604,10.0103697 6.50923331,9.92727273 7.09090909,9.92727273 Z" id="Shape"></path>
                        </g>
                    </g>
                    <ellipse id="Oval" fill="#060E2E" filter="url(#filter-1)" cx="13" cy="27.1818182" rx="8.27272727" ry="3.54545455"></ellipse>
                </g>
            </g>
        </g>
    </g>
</svg>