<?xml version="1.0" encoding="UTF-8"?>
<svg width="47px" height="57px" viewBox="0 0 47 57" version="1.1" xmlns="http://www.w3.org/2000/svg" xmlns:xlink="http://www.w3.org/1999/xlink">
    <!-- Generator: Sketch 51.3 (57544) - http://www.bohemiancoding.com/sketch -->
    <title>People inactive - large</title>
    <desc>Created with Sketch.</desc>
    <defs>
        <filter x="-35.2%" y="-170.3%" width="170.5%" height="440.7%" filterUnits="objectBoundingBox" id="filter-1">
            <feGaussianBlur stdDeviation="3.40680804" in="SourceGraphic"></feGaussianBlur>
        </filter>
    </defs>
    <g id="MOBILE-WEB-ATM" stroke="none" stroke-width="1" fill="none" fill-rule="evenodd">
        <g id="People-inactive---large">
            <ellipse id="Oval-Copy-4" fill="#060E2E" filter="url(#filter-1)" cx="22.5" cy="46" rx="14.5" ry="3"></ellipse>
            <g id="Group-Copy-6">
                <g id="Group-4-Copy-2">
                    <path d="M34.7353323,4.03792719 L34.4460726,4.32521581 L34.1064304,4.09971838 C30.5891333,1.76449208 26.4633352,0.5 22.1481481,0.5 C10.1922061,0.5 0.5,10.1922061 0.5,22.1481481 C0.5,34.1040902 10.1922061,43.7962963 22.1481481,43.7962963 C34.1040902,43.7962963 43.7962963,34.1040902 43.7962963,22.1481481 C43.7962963,19.4809166 43.3140023,16.880979 42.3846212,14.4418796 L42.2397882,14.0617748 L42.5824665,13.8426224 C44.3862569,12.689048 45.5,10.6993921 45.5,8.51851852 C45.5,5.0309426 42.6727611,2.2037037 39.1851852,2.2037037 C37.4947283,2.2037037 35.9109738,2.87029693 34.7353323,4.03792719 Z M34.659549,3.26661592 C38.5948013,5.87933365 41.6354399,9.66720576 43.3190834,14.0858172 L43.4639164,14.4659219 L43.1212381,14.6850743 C41.9550817,15.430864 40.5992793,15.8333333 39.1851852,15.8333333 C35.1453245,15.8333333 31.8703704,12.5583792 31.8703704,8.51851852 C31.8703704,6.54374823 32.6572373,4.69245808 34.0306471,3.3284071 L34.3199068,3.04111849 L34.659549,3.26661592 Z" id="Combined-Shape" stroke="#FFFFFF" fill="#060E2E"></path>
                    <circle id="Oval-2" stroke="#FFFFFF" fill="#868DAD" cx="39.1851852" cy="8.51851852" r="6.81481481"></circle>
                    <g id="icons8-person_male" transform="translate(10.067340, 12.080808)" fill="#FFFFFF" fill-rule="nonzero">
                        <path d="M12.0808081,0 C7.42308998,0 3.62424242,3.79884755 3.62424242,8.45656566 C3.62424242,11.3682289 5.11074841,13.9542768 7.36174242,15.4785354 C3.05323578,17.3284091 0,21.6038832 0,26.5777778 L2.41616162,26.5777778 C2.41616162,23.0856692 4.26131659,20.0465909 7.0219697,18.3477273 C7.83364899,20.3391736 9.8109378,21.7454545 12.0808081,21.7454545 C14.3506784,21.7454545 16.3279672,20.3391736 17.1396465,18.3477273 C19.9002996,20.0465909 21.7454545,23.0856692 21.7454545,26.5777778 L24.1616162,26.5777778 C24.1616162,21.6038832 21.1083804,17.3284091 16.7998737,15.4785354 C19.0508678,13.9542768 20.5373737,11.3682289 20.5373737,8.45656566 C20.5373737,3.79884755 16.7385262,0 12.0808081,0 Z M12.0808081,2.41616162 C15.4313453,2.41616162 18.1212121,5.10602964 18.1212121,8.45656566 C18.1212121,11.8071029 15.4313453,14.4969697 12.0808081,14.4969697 C8.73027207,14.4969697 6.04040404,11.8071029 6.04040404,8.45656566 C6.04040404,5.10602964 8.73027207,2.41616162 12.0808081,2.41616162 Z M12.0808081,16.9131313 C13.0718125,16.9131313 14.0156256,17.0547039 14.9122475,17.3284091 C14.4922509,18.4940186 13.3974277,19.3292929 12.0808081,19.3292929 C10.7641885,19.3292929 9.66936523,18.4940186 9.24936869,17.3284091 C10.1459918,17.0547039 11.0898049,16.9131313 12.0808081,16.9131313 Z" id="Shape"></path>
                    </g>
                </g>
            </g>
        </g>
    </g>
</svg>