<?xml version="1.0" encoding="UTF-8"?>
<svg width="47px" height="62px" viewBox="0 0 47 62" version="1.1" xmlns="http://www.w3.org/2000/svg" xmlns:xlink="http://www.w3.org/1999/xlink">
    <!-- Generator: Sketch 51.3 (57544) - http://www.bohemiancoding.com/sketch -->
    <title>Shop inactive - large</title>
    <desc>Created with Sketch.</desc>
    <defs>
        <filter x="-35.2%" y="-170.3%" width="170.5%" height="440.7%" filterUnits="objectBoundingBox" id="filter-1">
            <feGaussianBlur stdDeviation="3.40680804" in="SourceGraphic"></feGaussianBlur>
        </filter>
    </defs>
    <g id="MOBILE-WEB-ATM" stroke="none" stroke-width="1" fill="none" fill-rule="evenodd">
        <g id="Shop-inactive---large" transform="translate(0.000000, 1.000000)">
            <ellipse id="Oval-Copy-3" fill="#060E2E" filter="url(#filter-1)" cx="22.5" cy="50" rx="14.5" ry="3"></ellipse>
            <g id="Group-2-Copy">
                <g id="Group-2-Copy-2" stroke="#FFFFFF">
                    <path d="M34.2962343,4.97316685 L34.16063,5.25862069 L6,5.25862069 C2.96243388,5.25862069 0.5,7.72105457 0.5,10.7586207 L0.5,41.5862069 C0.5,44.623773 2.96243388,47.0862069 6,47.0862069 L36.8275862,47.0862069 C39.8651523,47.0862069 42.3275862,44.623773 42.3275862,41.5862069 L42.3275862,10.8191883 L42.4704657,10.6733812 C43.3900207,9.73498447 43.9137931,8.47842883 43.9137931,7.13793103 C43.9137931,4.34794083 41.6520592,2.0862069 38.862069,2.0862069 C36.8916402,2.0862069 35.1270077,3.2243477 34.2962343,4.97316685 Z M33.528578,4.25862069 L36.8275862,4.25862069 C40.4174371,4.25862069 43.3275862,7.16876982 43.3275862,10.7586207 L43.3275862,11.2274739 L43.1847067,11.3732811 C42.0540554,12.5270996 40.5100691,13.1896552 38.862069,13.1896552 C35.519794,13.1896552 32.8103448,10.480206 32.8103448,7.13793103 C32.8103448,6.22912639 33.0111519,5.34782834 33.3929737,4.54407453 L33.528578,4.25862069 Z" id="Combined-Shape" fill="#8DC351"></path>
                    <circle id="Oval-2" fill="#868DAD" cx="39.6551724" cy="6.34482759" r="6.34482759"></circle>
                </g>
                <g id="icons8-mobile_shop_coins-copy-2" transform="translate(11.103448, 14.275862)" fill="#FFFFFF" fill-rule="nonzero">
                    <path d="M5.28429828,0 C3.82759339,0 2.64214914,1.2009569 2.64214914,2.67672414 L2.64214914,3.27097082 L0,6.83993669 L0,7.13793103 C0,8.60589562 1.19314638,9.81465517 2.64214914,9.81465517 L2.64214914,18.737069 C2.64214914,20.2155129 3.82495124,21.4137931 5.28429828,21.4137931 L13.8644028,21.4137931 C13.1844898,20.9453664 12.6063127,20.3431034 12.1941374,19.6293103 L5.28429828,19.6293103 C4.79814284,19.6293103 4.4035819,19.2295862 4.4035819,18.737069 L4.4035819,17.8448276 L11.5387603,17.8448276 C11.489441,17.5530647 11.4630741,17.255056 11.4630741,16.9525862 C11.4630741,16.6483319 11.4937618,16.3512155 11.5422012,16.0603448 L4.4035819,16.0603448 L4.4035819,9.11236395 C4.87328996,9.54326925 5.48799301,9.81465517 6.16501466,9.81465517 C6.84203631,9.81465517 7.45673936,9.54326925 7.92644742,9.11236395 C8.39615548,9.54326925 9.01085852,9.81465517 9.68788018,9.81465517 C10.3649018,9.81465517 10.9796049,9.54326925 11.4493129,9.11236395 C11.919021,9.54326925 12.533724,9.81465517 13.2107457,9.81465517 C13.8877674,9.81465517 14.5024704,9.54326925 14.9721785,9.11236395 L14.9721785,11.9163021 C15.5235069,11.71644 16.1153483,11.6009224 16.7336112,11.5991379 L16.7336112,9.81465517 C18.1826142,9.81465517 19.3757604,8.60589562 19.3757604,7.13793103 L19.3757604,6.83993669 L16.7336112,3.27097082 L16.7336112,2.67672414 C16.7336112,1.2009569 15.548167,0 14.0914621,0 L5.28429828,0 Z M5.28429828,1.78448276 L14.0914621,1.78448276 C14.5767368,1.78448276 14.9721785,2.18509914 14.9721785,2.67672414 L14.9721785,3.56896552 L4.4035819,3.56896552 L4.4035819,2.67672414 C4.4035819,2.18509914 4.79902355,1.78448276 5.28429828,1.78448276 Z M3.30268642,5.35344828 L16.0730739,5.35344828 L17.5369206,7.33136629 C17.4420304,7.72099828 17.1506031,8.03017241 16.7336112,8.03017241 C16.2415153,8.03017241 15.8528948,7.63646644 15.8528948,7.13793103 L14.0914621,7.13793103 C14.0914621,7.63646644 13.7028416,8.03017241 13.2107457,8.03017241 C12.7186498,8.03017241 12.3300293,7.63646644 12.3300293,7.13793103 L10.5685966,7.13793103 C10.5685966,7.63646644 10.1799761,8.03017241 9.68788018,8.03017241 C9.1957843,8.03017241 8.8071638,7.63646644 8.8071638,7.13793103 L7.04573104,7.13793103 C7.04573104,7.63646644 6.65711053,8.03017241 6.16501466,8.03017241 C5.67291879,8.03017241 5.28429828,7.63646644 5.28429828,7.13793103 L3.52286552,7.13793103 C3.52286552,7.63646644 3.13424528,8.03017241 2.64214914,8.03017241 C2.22515706,8.03017241 1.93372995,7.72099828 1.83883945,7.33136629 L3.30268642,5.35344828 Z M16.7473724,13.3836207 C14.8045121,13.3836207 13.2245069,14.9843017 13.2245069,16.9525862 C13.2245069,17.1512661 13.2405588,17.3465054 13.2726706,17.5381196 C13.3664537,18.106133 13.5972771,18.626473 13.9246077,19.0699169 C13.9298568,19.077037 13.9347879,19.0872327 13.9400889,19.0943144 C14.027109,19.2102353 14.1255361,19.3159668 14.2256339,19.4201913 C14.2572842,19.4532372 14.2838863,19.4911833 14.3168013,19.5230078 C14.4231954,19.6255888 14.5407639,19.7149753 14.6591111,19.8035758 C14.6913083,19.8277439 14.718939,19.8571647 14.7519994,19.8802532 C14.8348422,19.9379768 14.9257444,19.9830903 15.013462,20.0336072 C14.9960371,20.194001 14.9859397,20.3566495 14.9859397,20.5215517 C14.9859397,20.828307 15.016482,21.1275353 15.0753878,21.4172782 C15.0753878,21.4172782 15.0753878,21.4190207 15.0753878,21.4190207 C15.4279386,23.1598854 16.783547,24.5349757 18.5019241,24.8921408 C18.5030101,24.8923674 18.5042792,24.8919142 18.5053651,24.8921408 C18.6474995,24.9215669 18.7921299,24.9449633 18.9388422,24.9601037 C18.9388422,24.9601037 18.9405623,24.9601037 18.9405623,24.9601037 C19.0881369,24.9754039 19.2381246,24.9827586 19.3895215,24.9827586 C19.6923145,24.9827586 19.9893977,24.9518166 20.275398,24.8921408 C21.7081633,24.5942776 22.8881392,23.589132 23.4456335,22.2537545 C23.5572159,21.9876248 23.6447556,21.7081757 23.7036553,21.4190207 C23.7036553,21.4190207 23.7036553,21.4172782 23.7036553,21.4172782 C23.7625611,21.1275353 23.7931034,20.828307 23.7931034,20.5215517 L23.7931034,19.6293103 L23.7036553,19.6293103 C23.3985962,18.1140364 22.3270224,16.8876212 20.9238942,16.3548541 C20.838883,16.3211175 20.74837,16.3011349 20.6607115,16.272949 C20.497365,16.2225561 20.3377519,16.164547 20.1670294,16.1335363 C19.8530338,14.7904935 18.7945862,13.7352976 17.4543534,13.4568121 C17.2257511,13.4089969 16.9892462,13.3836207 16.7473724,13.3836207 Z M16.7473724,15.1681034 C16.8688012,15.1681034 16.9871527,15.1808928 17.1017234,15.2046996 C17.1028216,15.2049209 17.1040661,15.2044757 17.1051634,15.2046996 C17.6550607,15.3200673 18.1081594,15.6986935 18.3402308,16.2015001 C17.1699428,16.4936003 16.1933225,17.2592817 15.6000332,18.2874632 C15.2223063,17.9577042 14.9859397,17.4760963 14.9859397,16.9525862 C14.9859397,16.8294203 14.9992605,16.7093666 15.0220631,16.5935982 C15.1628342,15.8982763 15.7036971,15.3485923 16.3895814,15.2046996 C16.5048707,15.1811632 16.6246296,15.1681034 16.7473724,15.1681034 Z M19.3895215,17.8448276 C20.8462264,17.8448276 22.0316707,19.0457845 22.0316707,20.5215517 C22.0316707,21.8128481 21.1238274,22.8942062 19.921048,23.1442533 C19.7496888,23.1789231 19.5717928,23.1982759 19.3895215,23.1982759 C19.2072502,23.1982759 19.0293543,23.1789231 18.8579951,23.1442533 C17.6552157,22.8942062 16.7473724,21.8128481 16.7473724,20.5215517 C16.7473724,20.3368952 16.7664751,20.1566714 16.8006971,19.9830698 C17.0122549,18.9386245 17.8270409,18.1131763 18.8579951,17.8988501 C19.0293543,17.8641803 19.2072502,17.8448276 19.3895215,17.8448276 Z" id="Shape"></path>
                </g>
            </g>
        </g>
    </g>
</svg>