<?xml version="1.0" encoding="UTF-8"?>
<svg width="30px" height="45px" viewBox="0 0 30 45" version="1.1" xmlns="http://www.w3.org/2000/svg" xmlns:xlink="http://www.w3.org/1999/xlink">
    <!-- Generator: Sketch 51.3 (57544) - http://www.bohemiancoding.com/sketch -->
    <title>Shop inactive - small</title>
    <desc>Created with Sketch.</desc>
    <defs>
        <filter x="-73.0%" y="-170.3%" width="246.0%" height="440.7%" filterUnits="objectBoundingBox" id="filter-1">
            <feGaussianBlur stdDeviation="3.40680804" in="SourceGraphic"></feGaussianBlur>
        </filter>
    </defs>
    <g id="MOBILE-WEB-ATM" stroke="none" stroke-width="1" fill="none" fill-rule="evenodd">
        <g id="Shop-inactive---small" transform="translate(0.000000, 1.000000)">
            <g id="Group-2-Copy-4">
                <ellipse id="Oval-Copy" fill="#060E2E" filter="url(#filter-1)" cx="15" cy="33" rx="7" ry="3"></ellipse>
                <g id="Group-2-Copy">
                    <g id="Group-2-Copy-2" stroke="#FFFFFF">
                        <path d="M21.7847739,3.22230477 L21.6412583,3.52666828 L21.3052568,3.50831447 C21.2039088,3.50277842 21.1021334,3.5 21,3.5 L6,3.5 C2.96243388,3.5 0.5,5.96243388 0.5,9 L0.5,24 C0.5,27.0375661 2.96243388,29.5 6,29.5 L21,29.5 C24.0375661,29.5 26.5,27.0375661 26.5,24 L26.5,9 C26.5,8.43382573 26.4146039,7.87975055 26.2486595,7.35098921 L26.1478547,7.02978689 L26.4075499,6.8155651 C27.0948083,6.24864751 27.5,5.4079834 27.5,4.5 C27.5,2.84314575 26.1568542,1.5 24.5,1.5 C23.3266963,1.5 22.2765038,2.17945894 21.7847739,3.22230477 Z M21.3597996,2.50980304 C24.0747926,2.65810729 26.397553,4.48580852 27.2027759,7.0515532 L27.3035808,7.37275552 L27.0438856,7.58697731 C26.3328526,8.17350644 25.440838,8.5 24.5,8.5 C22.290861,8.5 20.5,6.709139 20.5,4.5 C20.5,3.90341708 20.631028,3.32442426 20.8802825,2.79581274 L21.0237981,2.49144924 L21.3597996,2.50980304 Z" id="Combined-Shape" fill="#8DC351"></path>
                        <circle id="Oval-2" fill="#868DAD" cx="25" cy="4" r="4"></circle>
                    </g>
                    <g id="icons8-mobile_shop_coins-copy-2" transform="translate(7.000000, 9.000000)" fill="#FFFFFF" fill-rule="nonzero">
                        <path d="M3.33140544,0 C2.413048,0 1.66570272,0.757125 1.66570272,1.6875 L1.66570272,2.06213377 L0,4.312134 L0,4.5 C0,5.42545594 0.752200976,6.1875 1.66570272,6.1875 L1.66570272,11.8125 C1.66570272,12.7445625 2.4113823,13.5 3.33140544,13.5 L8.74060178,13.5 C8.31196095,13.2046875 7.947458,12.825 7.68760837,12.375 L3.33140544,12.375 C3.02491614,12.375 2.7761712,12.123 2.7761712,11.8125 L2.7761712,11.25 L7.27443581,11.25 C7.24334325,11.0660625 7.22672065,10.8781875 7.22672065,10.6875 C7.22672065,10.4956875 7.24606723,10.308375 7.27660511,10.125 L2.7761712,10.125 L2.7761712,5.74475119 C3.0722915,6.01640887 3.45982168,6.1875 3.88663968,6.1875 C4.31345767,6.1875 4.70098785,6.01640887 4.99710816,5.74475119 C5.29322846,6.01640887 5.68075864,6.1875 6.10757663,6.1875 C6.53439463,6.1875 6.92192481,6.01640887 7.21804511,5.74475119 C7.51416541,6.01640887 7.90169559,6.1875 8.32851359,6.1875 C8.75533159,6.1875 9.14286177,6.01640887 9.43898207,5.74475119 L9.43898207,7.51245131 C9.7865587,7.38645131 10.1596761,7.313625 10.5494505,7.3125 L10.5494505,6.1875 C11.4629525,6.1875 12.2151533,5.42545594 12.2151533,4.5 L12.2151533,4.312134 L10.5494505,2.06213377 L10.5494505,1.6875 C10.5494505,0.757125 9.80210526,0 8.88374783,0 L3.33140544,0 Z M3.33140544,1.125 L8.88374783,1.125 C9.1896819,1.125 9.43898207,1.3775625 9.43898207,1.6875 L9.43898207,2.25 L2.7761712,2.25 L2.7761712,1.6875 C2.7761712,1.3775625 3.02547137,1.125 3.33140544,1.125 Z M2.0821284,3.375 L10.1330249,3.375 L11.0558847,4.62194831 C10.9960626,4.86758587 10.8123367,5.0625 10.5494505,5.0625 C10.2392162,5.0625 9.99421631,4.81429406 9.99421631,4.5 L8.88374783,4.5 C8.88374783,4.81429406 8.63874795,5.0625 8.32851359,5.0625 C8.01827924,5.0625 7.77327935,4.81429406 7.77327935,4.5 L6.66281087,4.5 C6.66281087,4.81429406 6.41781099,5.0625 6.10757663,5.0625 C5.79734228,5.0625 5.55234239,4.81429406 5.55234239,4.5 L4.44187392,4.5 C4.44187392,4.81429406 4.19687403,5.0625 3.88663968,5.0625 C3.57640532,5.0625 3.33140544,4.81429406 3.33140544,4.5 L2.22093696,4.5 C2.22093696,4.81429406 1.97593724,5.0625 1.66570272,5.0625 C1.40281641,5.0625 1.21909062,4.86758587 1.15926835,4.62194831 L2.0821284,3.375 Z M10.5581261,8.4375 C9.33327935,8.4375 8.33718913,9.446625 8.33718913,10.6875 C8.33718913,10.8127547 8.34730883,10.9358404 8.36755322,11.0566406 C8.42667734,11.414736 8.57219646,11.7427764 8.77855704,12.0223389 C8.78186623,12.0268277 8.78497499,12.0332554 8.78831695,12.0377199 C8.84317742,12.1108005 8.90522929,12.1774573 8.96833444,12.2431641 C8.98828789,12.2639974 9.00505874,12.2879199 9.02580951,12.3079832 C9.09288403,12.3726538 9.16700335,12.4290062 9.24161351,12.484863 C9.26191176,12.5000994 9.27933113,12.5186473 9.30017351,12.5332031 C9.35240051,12.5695941 9.40970846,12.5980352 9.46500868,12.6298828 C9.45402337,12.7310006 9.44765761,12.8335399 9.44765761,12.9375 C9.44765761,13.1308892 9.46691257,13.3195331 9.50404886,13.5021971 C9.50404886,13.5021971 9.50404886,13.5032957 9.50404886,13.5032957 C9.72630913,14.6007973 10.5809318,15.4677021 11.6642565,15.6928714 C11.6649411,15.6930143 11.6657412,15.6927285 11.6664258,15.6928714 C11.7560323,15.7114226 11.8472123,15.7261725 11.9397049,15.7357176 C11.9397049,15.7357176 11.9407893,15.7357176 11.9407893,15.7357176 C12.0338254,15.7453633 12.1283829,15.75 12.2238288,15.75 C12.41472,15.75 12.6020116,15.7304931 12.7823162,15.6928714 C13.6855812,15.5050881 14.4294791,14.8714093 14.7809429,14.0295409 C14.8512883,13.8617634 14.9064763,13.685589 14.9436087,13.5032957 C14.9436087,13.5032957 14.9436087,13.5021971 14.9436087,13.5021971 C14.980745,13.3195331 15,13.1308892 15,12.9375 L15,12.375 L14.9436087,12.375 C14.7512889,11.4197186 14.0757315,10.6465438 13.1911507,10.3106689 C13.1375567,10.2894002 13.0804942,10.2768024 13.0252311,10.2590331 C12.9222518,10.2272636 12.8216262,10.1906927 12.7139968,10.1711424 C12.516043,9.32444156 11.8487609,8.65920938 11.0038315,8.48364244 C10.8597127,8.45349806 10.7106117,8.4375 10.5581261,8.4375 Z M10.5581261,9.5625 C10.634679,9.5625 10.7092919,9.57056288 10.7815212,9.5855715 C10.7822136,9.585711 10.7829982,9.58543031 10.78369,9.5855715 C11.1303644,9.65830331 11.4160135,9.89700244 11.5623194,10.2139892 C10.8245291,10.3981393 10.2088338,10.8808515 9.83480356,11.5290529 C9.59667137,11.3211613 9.44765761,11.017539 9.44765761,10.6875 C9.44765761,10.6098519 9.45605552,10.5341659 9.47043109,10.4611815 C9.55917807,10.0228264 9.90015685,9.67628644 10.3325622,9.5855715 C10.4052446,9.57073331 10.4807448,9.5625 10.5581261,9.5625 Z M12.2238288,11.25 C13.1421862,11.25 13.8895315,12.007125 13.8895315,12.9375 C13.8895315,13.7515781 13.3171955,14.4333039 12.5589216,14.5909423 C12.4508907,14.6127994 12.338739,14.625 12.2238288,14.625 C12.1089186,14.625 11.9967669,14.6127994 11.8887361,14.5909423 C11.1304621,14.4333039 10.5581261,13.7515781 10.5581261,12.9375 C10.5581261,12.8210861 10.5701691,12.7074668 10.5917439,12.5980223 C10.7251172,11.9395676 11.2387866,11.4191764 11.8887361,11.2840577 C11.9967669,11.2622006 12.1089186,11.25 12.2238288,11.25 Z" id="Shape"></path>
                    </g>
                </g>
            </g>
        </g>
    </g>
</svg>