<?xml version="1.0" encoding="UTF-8"?>
<svg width="47px" height="62px" viewBox="0 0 47 62" version="1.1" xmlns="http://www.w3.org/2000/svg" xmlns:xlink="http://www.w3.org/1999/xlink">
    <!-- Generator: Sketch 51.3 (57544) - http://www.bohemiancoding.com/sketch -->
    <title>Shop active - large</title>
    <desc>Created with Sketch.</desc>
    <defs>
        <filter x="-35.2%" y="-170.3%" width="170.5%" height="440.7%" filterUnits="objectBoundingBox" id="filter-1">
            <feGaussianBlur stdDeviation="3.40680804" in="SourceGraphic"></feGaussianBlur>
        </filter>
    </defs>
    <g id="MOBILE-WEB-ATM" stroke="none" stroke-width="1" fill="none" fill-rule="evenodd">
        <g id="Shop-active---large" transform="translate(0.000000, 1.000000)">
            <ellipse id="Oval-Copy" fill="#060E2E" filter="url(#filter-1)" cx="22.5" cy="50" rx="14.5" ry="3"></ellipse>
            <g id="Active-store-large-Copy">
                <g id="Group-2-Copy-2" stroke="#FFFFFF">
                    <path d="M34.2969498,5.01303357 L34.1618021,5.3 L6,5.3 C2.96243388,5.3 0.5,7.76243388 0.5,10.8 L0.5,42 C0.5,45.0375661 2.96243388,47.5 6,47.5 L36.8275862,47.5 C39.8651523,47.5 42.3275862,45.0375661 42.3275862,42 L42.3275862,10.9163045 L42.4689546,10.770785 C43.3893231,9.82339085 43.9137931,8.55422067 43.9137931,7.2 C43.9137931,4.38238335 41.6510855,2.1 38.862069,2.1 C36.8927045,2.1 35.1282274,3.24793659 34.2969498,5.01303357 Z M33.5274059,4.3 L36.8275862,4.3 C40.4174371,4.3 43.3275862,7.21014913 43.3275862,10.8 L43.3275862,11.3220678 L43.1862178,11.4675874 C42.055575,12.6314303 40.5110048,13.3 38.862069,13.3 C35.5188203,13.3 32.8103448,10.5679726 32.8103448,7.2 C32.8103448,6.28454015 33.0108864,5.39675399 33.3922583,4.58696643 L33.5274059,4.3 Z" id="Combined-Shape" fill="#8DC351"></path>
                    <ellipse id="Oval-2" fill="#04C695" cx="39.6551724" cy="6.4" rx="6.34482759" ry="6.4"></ellipse>
                </g>
                <g id="icons8-mobile_shop_coins-copy-2" transform="translate(11.000000, 14.000000)" fill="#FFFFFF" fill-rule="nonzero">
                    <path d="M5.3302487,0 C3.86087681,0 2.66512435,1.24985714 2.66512435,2.78571429 L2.66512435,3.40415734 L0,7.11844343 L0,7.42857143 C0,8.95630821 1.20352156,10.2142857 2.66512435,10.2142857 L2.66512435,19.5 C2.66512435,21.0386429 3.85821168,22.2857143 5.3302487,22.2857143 L13.9849629,22.2857143 C13.2991375,21.7982143 12.7159328,21.1714286 12.3001734,20.4285714 L5.3302487,20.4285714 C4.83986582,20.4285714 4.44187392,20.0125714 4.44187392,19.5 L4.44187392,18.5714286 L11.6390973,18.5714286 C11.5893492,18.2677857 11.562753,17.9576429 11.562753,17.6428571 C11.562753,17.3262143 11.5937076,17.017 11.6425682,16.7142857 L4.44187392,16.7142857 L4.44187392,9.48339879 C4.9156664,9.93184957 5.53571468,10.2142857 6.21862348,10.2142857 C6.90153228,10.2142857 7.52158057,9.93184957 7.99537305,9.48339879 C8.46916553,9.93184957 9.08921382,10.2142857 9.77212261,10.2142857 C10.4550314,10.2142857 11.0750797,9.93184957 11.5488722,9.48339879 C12.0226647,9.93184957 12.6427129,10.2142857 13.3256217,10.2142857 C14.0085305,10.2142857 14.6285788,9.93184957 15.1023713,9.48339879 L15.1023713,12.4015069 C15.6584939,12.1935069 16.2554818,12.0732857 16.8791209,12.0714286 L16.8791209,10.2142857 C18.3407239,10.2142857 19.5442452,8.95630821 19.5442452,7.42857143 L19.5442452,7.11844343 L16.8791209,3.40415734 L16.8791209,2.78571429 C16.8791209,1.24985714 15.6833684,0 14.2139965,0 L5.3302487,0 Z M5.3302487,1.85714286 L14.2139965,1.85714286 C14.703491,1.85714286 15.1023713,2.27407143 15.1023713,2.78571429 L15.1023713,3.71428571 L4.44187392,3.71428571 L4.44187392,2.78571429 C4.44187392,2.27407143 4.84075419,1.85714286 5.3302487,1.85714286 Z M3.33140544,5.57142857 L16.2128398,5.57142857 L17.6894155,7.62988293 C17.5937002,8.03537986 17.2997388,8.35714286 16.8791209,8.35714286 C16.3827459,8.35714286 15.9907461,7.94740607 15.9907461,7.42857143 L14.2139965,7.42857143 C14.2139965,7.94740607 13.8219967,8.35714286 13.3256217,8.35714286 C12.8292468,8.35714286 12.437247,7.94740607 12.437247,7.42857143 L10.6604974,7.42857143 C10.6604974,7.94740607 10.2684976,8.35714286 9.77212261,8.35714286 C9.27574765,8.35714286 8.88374783,7.94740607 8.88374783,7.42857143 L7.10699826,7.42857143 C7.10699826,7.94740607 6.71499845,8.35714286 6.21862348,8.35714286 C5.72224851,8.35714286 5.3302487,7.94740607 5.3302487,7.42857143 L3.55349913,7.42857143 C3.55349913,7.94740607 3.16149958,8.35714286 2.66512435,8.35714286 C2.24450625,8.35714286 1.95054499,8.03537986 1.85482936,7.62988293 L3.33140544,5.57142857 Z M16.8930017,13.9285714 C14.933247,13.9285714 13.3395026,15.5944286 13.3395026,17.6428571 C13.3395026,17.8496268 13.3556941,18.0528159 13.3880852,18.2522321 C13.4826837,18.8433737 13.7155143,19.3849008 14.0456913,19.8464008 C14.050986,19.8538108 14.05596,19.8644216 14.0613071,19.8717916 C14.1490839,19.9924326 14.2483669,20.1024692 14.3493351,20.2109375 C14.3812606,20.245329 14.408094,20.2848202 14.4412952,20.3179405 C14.5486144,20.4246984 14.6672054,20.5177245 14.7865816,20.6099326 C14.8190588,20.6350848 14.8469298,20.6657035 14.8802776,20.6897321 C14.9638408,20.7498061 15.0555335,20.7967565 15.1440139,20.8493304 C15.1264374,21.016255 15.1162522,21.1855261 15.1162522,21.3571429 C15.1162522,21.6763885 15.1470601,21.9878007 15.2064782,22.2893413 C15.2064782,22.2893413 15.2064782,22.2911548 15.2064782,22.2911548 C15.5620946,24.1029035 16.9294908,25.5339844 18.6628104,25.9056924 C18.6639058,25.9059283 18.6651859,25.9054566 18.6662813,25.9056924 C18.8096517,25.9363167 18.9555397,25.9606657 19.1035278,25.9764226 C19.1035278,25.9764226 19.1052628,25.9764226 19.1052628,25.9764226 C19.2541207,25.9923458 19.4054127,26 19.5581261,26 C19.863552,26 20.1632186,25.9677981 20.4517059,25.9056924 C21.8969299,25.5957009 23.0871665,24.5496281 23.6495086,23.159877 C23.7620613,22.8829111 23.8503622,22.5920834 23.909774,22.2911548 C23.909774,22.2911548 23.909774,22.2893413 23.909774,22.2893413 C23.9691921,21.9878007 24,21.6763885 24,21.3571429 L24,20.4285714 L23.909774,20.4285714 C23.6020623,18.851599 22.5211705,17.5752469 21.1058411,17.0207867 C21.0200907,16.9856765 20.9287907,16.9648802 20.8403698,16.9355466 C20.675603,16.8831019 20.5146019,16.8227308 20.3423949,16.7904574 C20.0256688,15.3927289 18.9580174,14.2945679 17.6061304,14.0047431 C17.3755403,13.9549809 17.1369788,13.9285714 16.8930017,13.9285714 Z M16.8930017,15.7857143 C17.0154864,15.7857143 17.1348671,15.7990244 17.250434,15.8238006 C17.2515418,15.8240309 17.2527971,15.8235675 17.253904,15.8238006 C17.808583,15.9438658 18.2656216,16.3379088 18.499711,16.8611885 C17.3192466,17.1651824 16.334134,17.9620406 15.7356857,19.0320873 C15.3546742,18.6889012 15.1162522,18.1876834 15.1162522,17.6428571 C15.1162522,17.5146762 15.1296888,17.3897341 15.1526897,17.269252 C15.2946849,16.5456181 15.840251,15.9735522 16.5320995,15.8238006 C16.6483913,15.7993058 16.7691916,15.7857143 16.8930017,15.7857143 Z M19.5581261,18.5714286 C21.027498,18.5714286 22.2232504,19.8212857 22.2232504,21.3571429 C22.2232504,22.7010179 21.3075128,23.8264065 20.0942745,24.0866349 C19.9214252,24.1227164 19.7419824,24.1428571 19.5581261,24.1428571 C19.3742698,24.1428571 19.194827,24.1227164 19.0219777,24.0866349 C17.8087393,23.8264065 16.8930017,22.7010179 16.8930017,21.3571429 C16.8930017,21.1649676 16.9122706,20.9774054 16.9467902,20.7967351 C17.1601876,19.7097624 17.9820586,18.8507039 19.0219777,18.6276508 C19.194827,18.5915693 19.3742698,18.5714286 19.5581261,18.5714286 Z" id="Shape"></path>
                </g>
            </g>
        </g>
    </g>
</svg>