<?xml version="1.0" encoding="UTF-8"?>
<svg width="1440px" height="2875px" viewBox="0 0 1440 2875" version="1.1" xmlns="http://www.w3.org/2000/svg" xmlns:xlink="http://www.w3.org/1999/xlink">
    <!-- Generator: Sketch 50.2 (55047) - http://www.bohemiancoding.com/sketch -->
    <title>Background</title>
    <desc>Created with Sketch.</desc>
    <defs>
        <linearGradient x1="0%" y1="0%" x2="100%" y2="100%" id="linearGradient-1">
            <stop stop-color="#261D3A" offset="0%"></stop>
            <stop stop-color="#0E0E35" offset="49.0268244%"></stop>
            <stop stop-color="#00030F" offset="100%"></stop>
            <stop stop-color="#001D55" offset="100%"></stop>
        </linearGradient>
        <rect id="path-2" x="0" y="0" width="1440" height="3864"></rect>
        <polygon id="path-4" points="0 0.197500767 145.81942 0.197500767 145.81942 92.9882847 0 92.9882847"></polygon>
        <polygon id="path-6" points="0 0.0389538059 73.6768335 0.0389538059 73.6768335 138.30634 0 138.30634"></polygon>
    </defs>
    <g id="Page-1" stroke="none" stroke-width="1" fill="none" fill-rule="evenodd">
        <g id="New-landing-page" transform="translate(0.000000, -1.000000)">
            <g id="Background" transform="translate(0.000000, 1.000000)">
                <mask id="mask-3" fill="white">
                    <use xlink:href="#path-2"></use>
                </mask>
                <use id="Mask" fill="url(#linearGradient-1)" xlink:href="#path-2"></use>
                <g id="Group-Copy" opacity="0.629999995" mask="url(#mask-3)" fill="#1E4EFF">
                    <g transform="translate(-185.000000, 136.000000)" opacity="0.239341518">
                        <path d="M349.217058,259 C349.088351,259 348.957632,258.965162 348.837193,258.892075 L264.401513,207.597702 C264.024107,207.368454 263.888919,206.849052 264.098962,206.437818 C264.309005,206.026584 264.784953,205.878705 265.162807,206.107954 L349.598487,257.402083 C349.975893,257.631575 350.111081,258.150977 349.901038,258.562211 C349.75803,258.842133 349.491678,259 349.217058,259" id="Fill-1"></path>
                        <path d="M118.345458,37.5000913 L175.000112,73.1634 L231.654542,37.5000913 L175.000112,1.83678266 L118.345458,37.5000913 Z M175.000112,75 C174.865192,75 174.730272,74.9620064 174.609202,74.8860193 L116.39091,38.2382871 C116.148992,38.0860693 116,37.8045271 116,37.5000913 C116,37.1956556 116.148992,36.9141134 116.39091,36.761652 L174.609202,0.114163406 C174.851119,-0.0380544688 175.149104,-0.0380544688 175.391021,0.114163406 L233.60909,36.761652 C233.851008,36.9141134 234,37.1956556 234,37.5000913 C234,37.8045271 233.851008,38.0860693 233.60909,38.2382871 L175.391021,74.8860193 C175.270174,74.9620064 175.135255,75 175.000112,75 Z" id="Fill-17"></path>
                        <path d="M175.569348,75.1118706 L175.569348,146.663839 L232.430652,110.887977 L232.430652,39.3360088 L175.569348,75.1118706 Z M174.784674,149 C174.649262,149 174.513849,148.961887 174.392337,148.885415 C174.149536,148.732717 174,148.450286 174,148.14489 L174,74.6181054 C174,74.3127089 174.149536,74.0305225 174.392337,73.8778242 L232.822989,37.1144321 C233.065789,36.9617338 233.365086,36.9619781 233.607663,37.1144321 C233.850464,37.2671304 234,37.5495611 234,37.8549577 L234,111.381498 C234,111.687138 233.850464,111.969081 233.607663,112.122023 L175.177011,148.885415 C175.055499,148.961887 174.920087,149 174.784674,149 Z" id="Fill-19"></path>
                        <path d="M176.345458,74.4999696 L232.999888,110.163162 L289.654542,74.4999696 L232.999888,38.8367767 L176.345458,74.4999696 Z M232.999888,112 C232.864745,112 232.729826,111.961763 232.608979,111.885533 L174.39091,75.2384065 C174.148992,75.0859456 174,74.8044043 174,74.4999696 C174,74.1955348 174.148992,73.9142371 174.39091,73.7617761 L232.608979,37.114163 C232.850896,36.9619457 233.148881,36.9619457 233.390798,37.114163 L291.60909,73.7617761 C291.851008,73.9142371 292,74.1955348 292,74.4999696 C292,74.8044043 291.851008,75.0859456 291.60909,75.2384065 L233.390798,111.885533 C233.269728,111.961763 233.134808,112 232.999888,112 Z" id="Fill-23"></path>
                        <path d="M233.569343,112.112014 L233.569343,183.663835 L290.430657,147.888169 L290.430657,76.3361035 L233.569343,112.112014 Z M232.784671,186 C232.649259,186 232.513848,185.962131 232.392336,185.885659 C232.149536,185.732961 232,185.45053 232,185.144889 L232,111.618248 C232,111.312851 232.149536,111.030665 232.392336,110.877722 L290.822993,74.1145239 C291.065793,73.9618254 291.364865,73.9618254 291.607664,74.1145239 C291.850464,74.2674667 292,74.5494091 292,74.8550504 L292,148.381691 C292,148.687332 291.850464,148.969519 291.607664,149.122217 L233.177007,185.885659 C233.055495,185.962131 232.920083,186 232.784671,186 Z" id="Fill-25"></path>
                        <path d="M175.569348,147.888008 L232.430652,183.66384 L232.430652,112.111931 L175.569348,76.3360984 L175.569348,147.888008 Z M233.215326,186 C233.079689,186 232.944277,185.961887 232.822989,185.885415 L174.392337,149.122298 C174.149536,148.969355 174,148.687169 174,148.381773 L174,74.8550486 C174,74.5496523 174.149536,74.2674661 174.392337,74.1145236 C174.635138,73.9618255 174.934211,73.9618255 175.177011,74.1145236 L233.607663,110.877641 C233.850464,111.030584 234,111.31277 234,111.618411 L234,185.14489 C234,185.450287 233.850464,185.732717 233.607663,185.885415 C233.486151,185.961887 233.350738,186 233.215326,186 Z" id="Fill-27"></path>
                        <path d="M176.345458,147.500091 L232.999888,183.1634 L289.654542,147.500091 L232.999888,111.836783 L176.345458,147.500091 Z M232.999888,185 C232.864745,185 232.729826,184.962006 232.608979,184.886019 L174.39091,148.238287 C174.148992,148.086069 174,147.804527 174,147.500091 C174,147.195412 174.148992,146.914113 174.39091,146.761896 L232.608979,110.114163 C232.850896,109.961946 233.148881,109.961946 233.390798,110.114163 L291.60909,146.761896 C291.851008,146.914113 292,147.195412 292,147.500091 C292,147.804527 291.851008,148.086069 291.60909,148.238287 L233.390798,184.886019 C233.269728,184.962006 233.134808,185 232.999888,185 Z" id="Fill-29"></path>
                        <path d="M233.569343,185.112014 L233.569343,256.66408 L290.430657,220.888169 L290.430657,149.336104 L233.569343,185.112014 Z M232.784671,259 C232.649259,259 232.513848,258.961886 232.392336,258.885659 C232.149536,258.732961 232,258.45053 232,258.144889 L232,184.618248 C232,184.312851 232.149536,184.030665 232.392336,183.877966 L290.822993,147.114524 C291.065793,146.961825 291.364865,146.961825 291.607664,147.114524 C291.850464,147.267222 292,147.549409 292,147.85505 L292,221.381935 C292,221.687332 291.850464,221.969519 291.607664,222.122217 L233.177007,258.885659 C233.055495,258.961886 232.920083,259 232.784671,259 Z" id="Fill-31"></path>
                        <path d="M175.569348,220.888169 L232.430652,256.66408 L232.430652,185.112014 L175.569348,149.336104 L175.569348,220.888169 Z M233.215326,259 C233.079689,259 232.944277,258.961886 232.822989,258.885415 L174.392337,222.122217 C174.149536,221.969519 174,221.687332 174,221.381935 L174,147.85505 C174,147.549409 174.149536,147.267222 174.392337,147.114524 C174.635138,146.961825 174.934211,146.961825 175.177011,147.114524 L233.607663,183.877966 C233.850464,184.030665 234,184.312851 234,184.618248 L234,258.144889 C234,258.45053 233.850464,258.732717 233.607663,258.885415 C233.486151,258.961886 233.350738,259 233.215326,259 Z" id="Fill-33"></path>
                        <path d="M234.345454,330.49997 L291,366.163406 L347.654546,330.49997 L291,294.836533 L234.345454,330.49997 Z M291,368 C290.864857,368 290.729938,367.961763 290.609091,367.885776 L232.390909,331.238163 C232.148992,331.085946 232,330.804404 232,330.49997 C232,330.195535 232.148992,329.913994 232.390909,329.761776 L290.609091,293.114163 C290.851008,292.961946 291.148992,292.961946 291.390909,293.114163 L349.609091,329.761776 C349.851008,329.913994 350,330.195535 350,330.49997 C350,330.804404 349.851008,331.085946 349.609091,331.238163 L291.390909,367.885776 C291.269839,367.961763 291.134919,368 291,368 Z" id="Fill-35"></path>
                        <path d="M291.569343,368.111931 L291.569343,439.663596 L348.430657,403.888008 L348.430657,332.336098 L291.569343,368.111931 Z M290.784671,442 C290.649259,442 290.513848,441.961887 290.392336,441.885415 C290.149536,441.732717 290,441.450287 290,441.14489 L290,367.618166 C290,367.31277 290.149536,367.030339 290.392336,366.877641 L348.822993,330.114524 C349.065793,329.961825 349.364865,329.961825 349.607664,330.114524 C349.850464,330.267222 350,330.549652 350,330.855049 L350,404.381528 C350,404.686925 349.850464,404.969355 349.607664,405.122053 L291.177007,441.885415 C291.055495,441.961887 290.920083,442 290.784671,442 Z" id="Fill-37"></path>
                        <path d="M233.569343,403.888008 L290.430657,439.66384 L290.430657,368.111931 L233.569343,332.336343 L233.569343,403.888008 Z M291.215329,442 C291.079693,442 290.944281,441.961887 290.822993,441.885415 L232.392336,405.122298 C232.149536,404.969599 232,404.687169 232,404.381773 L232,330.855049 C232,330.549652 232.149536,330.267222 232.392336,330.114524 C232.635135,329.961825 232.934207,329.961825 233.177007,330.114524 L291.607664,366.877886 C291.850464,367.030584 292,367.313014 292,367.618411 L292,441.14489 C292,441.450287 291.850464,441.732717 291.607664,441.885415 C291.486152,441.961887 291.350741,442 291.215329,442 Z" id="Fill-39"></path>
                        <path d="M465.221849,476 C465.089703,476 464.956224,475.963351 464.833628,475.885683 L323.388615,386.58542 C323.017051,386.350718 322.889568,385.831075 323.104334,385.424778 C323.319099,385.018965 323.794382,384.878921 324.166391,385.114351 L465.611403,474.414857 C465.98319,474.649558 466.11045,475.168959 465.895463,475.575256 C465.751545,475.847578 465.490362,476 465.221849,476" id="Fill-41"></path>
                        <path d="M831.345458,74.4999696 L887.999888,110.163162 L944.654542,74.4999696 L887.999888,38.8367767 L831.345458,74.4999696 Z M887.999888,112 C887.864745,112 887.729826,111.961763 887.608979,111.885533 L829.39091,75.2384065 C829.148992,75.0859456 829,74.8044043 829,74.4999696 C829,74.1955348 829.148992,73.9142371 829.39091,73.7617761 L887.608979,37.114163 C887.850672,36.9619457 888.149104,36.9619457 888.390798,37.114163 L946.60909,73.7617761 C946.851008,73.9142371 947,74.1955348 947,74.4999696 C947,74.8044043 946.851008,75.0859456 946.60909,75.2384065 L888.390798,111.885533 C888.269951,111.961763 888.134808,112 887.999888,112 Z" id="Fill-43"></path>
                        <path d="M888.569343,112.112014 L888.569343,183.663835 L945.430657,147.888169 L945.430657,76.3361035 L888.569343,112.112014 Z M887.784671,186 C887.649259,186 887.513623,185.962131 887.392336,185.885659 C887.149536,185.732961 887,185.45053 887,185.144889 L887,111.618248 C887,111.312851 887.149536,111.030665 887.392336,110.877722 L945.822993,74.1145239 C946.065569,73.9618254 946.365089,73.9618254 946.607664,74.1145239 C946.850464,74.2674667 947,74.5494091 947,74.8550504 L947,148.381691 C947,148.687332 946.850464,148.969519 946.607664,149.122217 L888.177007,185.885659 C888.055719,185.962131 887.920083,186 887.784671,186 Z" id="Fill-45"></path>
                        <path d="M830.569348,147.888008 L887.430652,183.66384 L887.430652,112.111931 L830.569348,76.3360984 L830.569348,147.888008 Z M888.215326,186 C888.079689,186 887.944277,185.961887 887.822989,185.885415 L829.392337,149.122298 C829.149536,148.969355 829,148.687169 829,148.381773 L829,74.8550486 C829,74.5496523 829.149536,74.2674661 829.392337,74.1145236 C829.634914,73.9618255 829.934435,73.9618255 830.177011,74.1145236 L888.607663,110.877641 C888.850464,111.030584 889,111.31277 889,111.618411 L889,185.14489 C889,185.450287 888.850464,185.732717 888.607663,185.885415 C888.486375,185.961887 888.350738,186 888.215326,186 Z" id="Fill-47"></path>
                        <path d="M773.345458,184.499848 L830.000112,220.163156 L886.654542,184.499848 L830.000112,148.836539 L773.345458,184.499848 Z M830.000112,222 C829.864969,222 829.730049,221.961763 829.609202,221.885532 L771.39091,185.238287 C771.148992,185.085826 771,184.804284 771,184.499848 C771,184.195412 771.148992,183.914113 771.39091,183.761652 L829.609202,147.114163 C829.850896,146.961946 830.149328,146.961946 830.391021,147.114163 L888.60909,183.761652 C888.851008,183.914113 889,184.195412 889,184.499848 C889,184.804284 888.851008,185.085826 888.60909,185.238287 L830.391021,221.885532 C830.270174,221.961763 830.135031,222 830.000112,222 Z" id="Fill-49"></path>
                        <path d="M830.569348,222.112014 L830.569348,293.663835 L887.430652,257.887925 L887.430652,186.336104 L830.569348,222.112014 Z M829.784674,296 C829.649262,296 829.513625,295.961886 829.392337,295.885659 C829.149536,295.732961 829,295.450285 829,295.144889 L829,221.618493 C829,221.312851 829.149536,221.030665 829.392337,220.877722 L887.822989,184.114524 C888.065565,183.961825 888.365086,183.961825 888.607663,184.114524 C888.850464,184.267467 889,184.549653 889,184.85505 L889,258.381691 C889,258.687332 888.850464,258.969519 888.607663,259.122217 L830.177011,295.885659 C830.055723,295.961886 829.920087,296 829.784674,296 Z" id="Fill-51"></path>
                        <path d="M772.569343,257.887925 L829.430657,293.663835 L829.430657,222.112014 L772.569343,186.336104 L772.569343,257.887925 Z M830.215329,296 C830.079693,296 829.944281,295.961886 829.822993,295.885415 L771.392336,259.122217 C771.149536,258.969519 771,258.687088 771,258.381691 L771,184.85505 C771,184.549653 771.149536,184.267222 771.392336,184.114524 C771.634911,183.961825 771.934431,183.961825 772.177007,184.114524 L830.607664,220.877722 C830.850464,221.03042 831,221.312851 831,221.618493 L831,295.144889 C831,295.450285 830.850464,295.732717 830.607664,295.885415 C830.486377,295.961886 830.350741,296 830.215329,296 Z" id="Fill-53"></path>
                        <path d="M350.345458,257.49997 L406.999888,293.163406 L463.654542,257.49997 L406.999888,221.836777 L350.345458,257.49997 Z M406.999888,295 C406.864745,295 406.729826,294.961763 406.608979,294.885776 L348.39091,258.238163 C348.148992,258.085946 348,257.804648 348,257.49997 C348,257.195535 348.148992,256.914237 348.39091,256.761776 L406.608979,220.114163 C406.850896,219.961946 407.148881,219.961946 407.390798,220.114163 L465.60909,256.761776 C465.851008,256.914237 466,257.195535 466,257.49997 C466,257.804648 465.851008,258.085946 465.60909,258.238163 L407.390798,294.885776 C407.269728,294.961763 407.134808,295 406.999888,295 Z" id="Fill-55"></path>
                        <path d="M408.569343,295.111931 L408.569343,366.663596 L465.430657,330.888008 L465.430657,259.336098 L408.569343,295.111931 Z M407.784671,369 C407.649259,369 407.513848,368.961887 407.392336,368.885415 C407.149536,368.732717 407,368.450287 407,368.14489 L407,294.618166 C407,294.31277 407.149536,294.030339 407.392336,293.877641 L465.822993,257.114524 C466.065569,256.961825 466.365089,256.961825 466.607664,257.114524 C466.850464,257.267466 467,257.549652 467,257.855049 L467,331.381528 C467,331.686925 466.850464,331.969355 466.607664,332.122053 L408.177007,368.885415 C408.055495,368.961887 407.920083,369 407.784671,369 Z" id="Fill-57"></path>
                        <path d="M349.569348,330.888008 L406.430652,366.66384 L406.430652,295.111931 L349.569348,259.336343 L349.569348,330.888008 Z M407.215326,369 C407.079689,369 406.944277,368.961887 406.822989,368.885415 L348.392337,332.122298 C348.149536,331.969599 348,331.687169 348,331.381773 L348,257.855049 C348,257.549652 348.149536,257.267466 348.392337,257.114524 C348.635138,256.961825 348.934211,256.961825 349.177011,257.114524 L407.607663,293.877886 C407.850464,294.030584 408,294.313014 408,294.618411 L408,368.14489 C408,368.450287 407.850464,368.732717 407.607663,368.885415 C407.486151,368.961887 407.350738,369 407.215326,369 Z" id="Fill-59"></path>
                        <path d="M409.345454,221.49997 L466,257.163394 L522.654546,221.49997 L466,185.836545 L409.345454,221.49997 Z M466,259 C465.864857,259 465.729938,258.962006 465.609091,258.885775 L407.390909,222.238168 C407.148992,222.085706 407,221.804406 407,221.49997 C407,221.195533 407.148992,220.91399 407.390909,220.761528 L465.609091,184.114164 C465.850784,183.961945 466.149216,183.961945 466.390909,184.114164 L524.609091,220.761528 C524.851008,220.91399 525,221.195533 525,221.49997 C525,221.804406 524.851008,222.085706 524.609091,222.238168 L466.390909,258.885775 C466.270062,258.962006 466.134919,259 466,259 Z" id="Fill-61"></path>
                        <path d="M466.569343,258.111931 L466.569343,329.663596 L523.430657,293.888008 L523.430657,222.336098 L466.569343,258.111931 Z M465.784671,332 C465.649259,332 465.513623,331.961887 465.392336,331.885415 C465.149536,331.732717 465,331.450287 465,331.14489 L465,257.618166 C465,257.31277 465.149536,257.030584 465.392336,256.877641 L523.822993,220.114524 C524.065569,219.961825 524.365089,219.961825 524.607664,220.114524 C524.850464,220.267222 525,220.549652 525,220.855049 L525,294.381528 C525,294.686925 524.850464,294.969355 524.607664,295.122053 L466.177007,331.885415 C466.055719,331.961887 465.920083,332 465.784671,332 Z" id="Fill-63"></path>
                        <path d="M408.569343,293.888008 L465.430657,329.66384 L465.430657,258.111931 L408.569343,222.336343 L408.569343,293.888008 Z M466.215329,332 C466.079693,332 465.944281,331.961887 465.822993,331.885415 L407.392336,295.122298 C407.149536,294.969599 407,294.687169 407,294.381773 L407,220.855293 C407,220.549652 407.149536,220.267222 407.392336,220.114524 C407.635135,219.961825 407.934207,219.961825 408.177007,220.114524 L466.607664,256.877886 C466.850464,257.030828 467,257.313014 467,257.618411 L467,331.14489 C467,331.450287 466.850464,331.732717 466.607664,331.885415 C466.486377,331.961887 466.350741,332 466.215329,332 Z" id="Fill-65"></path>
                        <path d="M409.345454,147.500091 L466,183.1634 L522.654546,147.500091 L466,111.836539 L409.345454,147.500091 Z M466,185 C465.864857,185 465.729938,184.962006 465.609091,184.885776 L407.390909,148.238287 C407.148992,148.085826 407,147.804527 407,147.500091 C407,147.195656 407.148992,146.914113 407.390909,146.761896 L465.609091,110.114163 C465.850784,109.961946 466.149216,109.961946 466.390909,110.114163 L524.609091,146.761896 C524.851008,146.914113 525,147.195656 525,147.500091 C525,147.804527 524.851008,148.085826 524.609091,148.238287 L466.390909,184.885776 C466.270062,184.962006 466.134919,185 466,185 Z" id="Fill-67"></path>
                        <path d="M466.569343,185.112014 L466.569343,256.66408 L523.430657,220.887925 L523.430657,149.336104 L466.569343,185.112014 Z M465.784671,259 C465.649259,259 465.513623,258.961886 465.392336,258.885659 C465.149536,258.732961 465,258.45053 465,258.144889 L465,184.618248 C465,184.312851 465.149536,184.03042 465.392336,183.877722 L523.822993,147.114524 C524.065569,146.961825 524.365089,146.961825 524.607664,147.114524 C524.850464,147.267467 525,147.549653 525,147.85505 L525,221.381691 C525,221.687088 524.850464,221.969519 524.607664,222.122217 L466.177007,258.885659 C466.055719,258.961886 465.920083,259 465.784671,259 Z" id="Fill-69"></path>
                        <path d="M408.569343,220.887925 L465.430657,256.66408 L465.430657,185.112014 L408.569343,149.336104 L408.569343,220.887925 Z M466.215329,259 C466.079693,259 465.944281,258.961886 465.822993,258.885415 L407.392336,222.122217 C407.149536,221.969519 407,221.687088 407,221.381691 L407,147.85505 C407,147.549653 407.149536,147.267222 407.392336,147.114524 C407.635135,146.961825 407.934207,146.961825 408.177007,147.114524 L466.607664,183.877722 C466.850464,184.03042 467,184.312851 467,184.618248 L467,258.144889 C467,258.45053 466.850464,258.732717 466.607664,258.885415 C466.486377,258.961886 466.350741,259 466.215329,259 Z" id="Fill-71"></path>
                        <path d="M583.345454,184.499848 L640,220.163156 L696.654546,184.499848 L640,148.836539 L583.345454,184.499848 Z M640,222 C639.864857,222 639.729938,221.961763 639.609091,221.885532 L581.390909,185.238287 C581.148992,185.085826 581,184.804284 581,184.499848 C581,184.195412 581.148992,183.914113 581.390909,183.761652 L639.609091,147.114163 C639.850784,146.961946 640.149216,146.961946 640.390909,147.114163 L698.609091,183.761652 C698.851008,183.914113 699,184.195412 699,184.499848 C699,184.804284 698.851008,185.085826 698.609091,185.238287 L640.390909,221.885532 C640.270062,221.961763 640.134919,222 640,222 Z" id="Fill-73"></path>
                        <path d="M640.569343,222.112014 L640.569343,293.663835 L697.430657,257.887925 L697.430657,186.336104 L640.569343,222.112014 Z M639.784671,296 C639.649259,296 639.513623,295.961886 639.392336,295.885659 C639.149536,295.732961 639,295.450285 639,295.144889 L639,221.618248 C639,221.312851 639.149536,221.03042 639.392336,220.877722 L697.822993,184.114524 C698.065569,183.961825 698.365089,183.961825 698.607664,184.114524 C698.850464,184.267467 699,184.549653 699,184.85505 L699,258.381691 C699,258.687332 698.850464,258.969519 698.607664,259.122217 L640.177007,295.885659 C640.055719,295.961886 639.920083,296 639.784671,296 Z" id="Fill-75"></path>
                        <path d="M582.569343,257.887925 L639.430657,293.663835 L639.430657,222.112014 L582.569343,186.336104 L582.569343,257.887925 Z M640.215329,296 C640.079693,296 639.944281,295.961886 639.822993,295.885415 L581.392336,259.122217 C581.149536,258.969519 581,258.687088 581,258.381691 L581,184.85505 C581,184.549653 581.149536,184.267222 581.392336,184.114524 C581.634911,183.961825 581.934431,183.961825 582.177007,184.114524 L640.607664,220.877722 C640.850464,221.03042 641,221.312851 641,221.618248 L641,295.144889 C641,295.450285 640.850464,295.732717 640.607664,295.885415 C640.486377,295.961886 640.350741,296 640.215329,296 Z" id="Fill-77"></path>
                        <path d="M467.345454,257.49997 L524,293.163406 L580.654546,257.49997 L524,221.836777 L467.345454,257.49997 Z M524,295 C523.864857,295 523.729938,294.961763 523.609091,294.885776 L465.390909,258.238163 C465.148992,258.085946 465,257.804648 465,257.49997 C465,257.195535 465.148992,256.914237 465.390909,256.761776 L523.609091,220.114163 C523.850784,219.961946 524.149216,219.961946 524.390909,220.114163 L582.609091,256.761776 C582.851008,256.914237 583,257.195535 583,257.49997 C583,257.804648 582.851008,258.085946 582.609091,258.238163 L524.390909,294.885776 C524.270062,294.961763 524.134919,295 524,295 Z" id="Fill-79"></path>
                        <path d="M524.569343,295.111931 L524.569343,366.663596 L581.430657,330.888008 L581.430657,259.336098 L524.569343,295.111931 Z M523.784671,369 C523.649259,369 523.513623,368.961887 523.392336,368.885415 C523.149536,368.732717 523,368.450287 523,368.14489 L523,294.618166 C523,294.31277 523.149536,294.030339 523.392336,293.877641 L581.822993,257.114524 C582.065569,256.961825 582.365089,256.961825 582.607664,257.114524 C582.850464,257.267466 583,257.549652 583,257.855049 L583,331.381528 C583,331.686925 582.850464,331.969355 582.607664,332.122053 L524.177007,368.885415 C524.055719,368.961887 523.920083,369 523.784671,369 Z" id="Fill-81"></path>
                        <path d="M466.569343,330.888008 L523.430657,366.66384 L523.430657,295.111931 L466.569343,259.336343 L466.569343,330.888008 Z M524.215329,369 C524.079693,369 523.944281,368.961887 523.822993,368.885415 L465.392336,332.122298 C465.149536,331.969599 465,331.687169 465,331.381773 L465,257.855049 C465,257.549652 465.149536,257.267466 465.392336,257.114524 C465.634911,256.961825 465.934431,256.961825 466.177007,257.114524 L524.607664,293.877886 C524.850464,294.030584 525,294.313014 525,294.618411 L525,368.14489 C525,368.450287 524.850464,368.732717 524.607664,368.885415 C524.486377,368.961887 524.350741,369 524.215329,369 Z" id="Fill-83"></path>
                        <path d="M467.345454,474.500091 L524,510.1634 L580.654546,474.500091 L524,438.836539 L467.345454,474.500091 Z M524,512 C523.864857,512 523.729938,511.961763 523.609091,511.885776 L465.390909,475.238287 C465.148992,475.086069 465,474.804527 465,474.500091 C465,474.195656 465.148992,473.914113 465.390909,473.761896 L523.609091,437.114163 C523.850784,436.961946 524.149216,436.961946 524.390909,437.114163 L582.609091,473.761896 C582.851008,473.914113 583,474.195656 583,474.500091 C583,474.804527 582.851008,475.086069 582.609091,475.238287 L524.390909,511.885776 C524.270062,511.961763 524.134919,512 524,512 Z" id="Fill-85"></path>
                        <path d="M524.569343,512.11177 L524.569343,583.663591 L581.430657,547.887925 L581.430657,476.336104 L524.569343,512.11177 Z M523.784671,586 C523.649259,586 523.513623,585.961886 523.392336,585.885415 C523.149536,585.732717 523,585.450285 523,585.144889 L523,511.618004 C523,511.312607 523.149536,511.030176 523.392336,510.877477 L581.822993,474.114524 C582.065569,473.961825 582.365089,473.961825 582.607664,474.114524 C582.850464,474.267222 583,474.549653 583,474.85505 L583,548.381446 C583,548.686843 582.850464,548.969274 582.607664,549.121973 L524.177007,585.885415 C524.055719,585.961886 523.920083,586 523.784671,586 Z" id="Fill-87"></path>
                        <path d="M466.569343,547.887925 L523.430657,583.663835 L523.430657,512.11177 L466.569343,476.336348 L466.569343,547.887925 Z M524.215329,586 C524.079693,586 523.944281,585.961886 523.822993,585.885415 L465.392336,549.122217 C465.149536,548.969519 465,548.687088 465,548.381691 L465,474.85505 C465,474.549653 465.149536,474.267222 465.392336,474.114524 C465.634911,473.961825 465.934431,473.961825 466.177007,474.114524 L524.607664,510.877722 C524.850464,511.03042 525,511.312851 525,511.618248 L525,585.144889 C525,585.450285 524.850464,585.732717 524.607664,585.885415 C524.486377,585.961886 524.350741,586 524.215329,586 Z" id="Fill-89"></path>
                        <path d="M524,439 C523.447714,439 523,438.621035 523,438.153556 L523,367.846444 C523,367.379207 523.447714,367 524,367 C524.552286,367 525,367.379207 525,367.846444 L525,438.153556 C525,438.621035 524.552286,439 524,439" id="Fill-91"></path>
                    </g>
                </g>
                <g id="Group-Copy-3" opacity="0.629999995" mask="url(#mask-3)">
                    <g transform="translate(781.000000, -30.000000)">
                        <path d="M433.025874,321 C432.865738,321 432.703101,320.956617 432.553252,320.865603 L327.499557,256.989591 C327.029993,256.704112 326.861795,256.05731 327.123127,255.545207 C327.38446,255.033104 327.976628,254.848954 328.446748,255.134433 L433.500443,319.010141 C433.970007,319.295924 434.138205,319.942726 433.876873,320.454829 C433.698944,320.803411 433.367552,321 433.025874,321" id="Fill-1" fill="#1E4EFF" opacity="0.239341518"></path>
                        <g id="Group-5" stroke-width="1" fill="none">
                            <mask id="mask-5" fill="white">
                                <use xlink:href="#path-4"></use>
                            </mask>
                            <g id="Clip-4"></g>
                            <path d="M2.89836409,46.5930057 L72.9098203,90.716024 L142.921001,46.5930057 L72.9098203,2.46998747 L2.89836409,46.5930057 Z M72.9098203,92.9882847 C72.7428162,92.9882847 72.5760881,92.9412787 72.4267504,92.8472666 L0.483014676,47.5063093 C0.184063428,47.3179838 -5.52079867e-05,46.9696568 -5.52079867e-05,46.5930057 C-5.52079867e-05,46.2163547 0.184063428,45.8680277 0.483014676,45.6794009 L72.4267504,0.338744927 C72.7257017,0.15041938 73.093939,0.15041938 73.3928902,0.338744927 L145.33635,45.6794009 C145.635301,45.8680277 145.81942,46.2163547 145.81942,46.5930057 C145.81942,46.9696568 145.635301,47.3179838 145.33635,47.5063093 L73.3928902,92.8472666 C73.2432766,92.9412787 73.0765485,92.9882847 72.9098203,92.9882847 Z" id="Fill-3" fill="#1E4EFF" opacity="0.239341518" mask="url(#mask-5)"></path>
                        </g>
                        <path d="M73.9355297,93.2996287 L73.9355297,182.100659 L144.06447,137.700296 L144.06447,48.899265 L73.9355297,93.2996287 Z M72.9677648,185 C72.8007563,185 72.6337477,184.952698 72.4838824,184.857792 C72.1844283,184.668283 72,184.317766 72,183.938748 L72,92.6868314 C72,92.3078127 72.1844283,91.9575995 72.4838824,91.7680902 L144.548353,46.142132 C144.847807,45.9526227 145.216663,45.9526227 145.516118,46.142132 C145.815572,46.3316413 146,46.6821577 146,47.0611763 L146,138.313093 C146,138.692111 145.815572,139.042325 145.516118,139.232137 L73.4516473,184.857792 C73.301782,184.952698 73.1347734,185 72.9677648,185 Z" id="Fill-6" fill="#1E4EFF" opacity="0.239341518"></path>
                        <g id="Group-10" stroke-width="1" fill="none" transform="translate(0.000000, 46.000000)">
                            <mask id="mask-7" fill="white">
                                <use xlink:href="#path-6"></use>
                            </mask>
                            <g id="Clip-9"></g>
                            <path d="M1.92701617,91.2559334 L71.7497623,135.42228 L71.7497623,47.0892849 L1.92701617,2.92293796 L1.92701617,91.2559334 Z M72.7132979,138.30634 C72.5467439,138.30634 72.3804652,138.258986 72.2315301,138.164882 L0.481712749,92.7797014 C0.1835673,92.5908893 -5.50591781e-05,92.2425219 -5.50591781e-05,91.8655009 L-5.50591781e-05,1.0945371 C-5.50591781e-05,0.717516135 0.1835673,0.368847149 0.481712749,0.180336667 C0.779858199,-0.00817381448 1.14710292,-0.00817381448 1.44524837,0.180336667 L73.1950657,45.5658186 C73.4932112,45.7543291 73.6768335,46.1026964 73.6768335,46.4797174 L73.6768335,137.250681 C73.6768335,137.627702 73.4932112,137.97607 73.1950657,138.164882 C73.0458553,138.258986 72.8795766,138.30634 72.7132979,138.30634 Z" id="Fill-8" fill="#1E4EFF" opacity="0.239341518" mask="url(#mask-7)"></path>
                        </g>
                        <path d="M74.9020021,92.4999623 L144.999724,136.722321 L215.097998,92.4999623 L144.999724,48.2776031 L74.9020021,92.4999623 Z M144.999724,139 C144.832789,139 144.665855,138.952586 144.516057,138.85806 L72.483667,93.4156241 C72.1843462,93.2265725 72,92.8774614 72,92.4999623 C72,92.1224631 72.1843462,91.773654 72.483667,91.5846024 L144.516057,46.1415622 C144.815377,45.9528126 145.18407,45.9528126 145.483391,46.1415622 L217.516333,91.5846024 C217.815654,91.773654 218,92.1224631 218,92.4999623 C218,92.8774614 217.815654,93.2265725 217.516333,93.4156241 L145.483391,138.85806 C145.333868,138.952586 145.166934,139 144.999724,139 Z" id="Fill-11" fill="#1E4EFF" opacity="0.239341518"></path>
                        <path d="M145.935522,139.299732 L145.935522,228.100653 L216.064478,183.700496 L216.064478,94.8992714 L145.935522,139.299732 Z M144.967761,231 C144.800753,231 144.633745,230.953002 144.483881,230.858095 C144.184428,230.668585 144,230.318068 144,229.938746 L144,138.687236 C144,138.307914 144.184428,137.9577 144.483881,137.76819 L216.548358,92.1421323 C216.847811,91.9526226 217.216666,91.9526226 217.516119,92.1421323 C217.815572,92.3319452 218,92.681856 218,93.0611786 L218,184.312991 C218,184.692314 217.815572,185.042528 217.516119,185.232037 L145.451642,230.858095 C145.301777,230.953002 145.134769,231 144.967761,231 Z" id="Fill-13" fill="#1E4EFF" opacity="0.239341518"></path>
                        <path d="M73.9355297,183.700296 L144.06447,228.100659 L144.06447,139.299932 L73.9355297,94.899265 L73.9355297,183.700296 Z M145.032235,231 C144.865227,231 144.698218,230.952698 144.548353,230.857792 L72.4838824,185.232137 C72.1844283,185.042325 72,184.692111 72,184.313093 L72,93.0611763 C72,92.6821577 72.1844283,92.3319445 72.4838824,92.142132 C72.7833365,91.9526227 73.1521932,91.9526227 73.4516473,92.142132 L145.516118,137.767787 C145.815572,137.9576 146,138.308116 146,138.687135 L146,229.938748 C146,230.317766 145.815572,230.668283 145.516118,230.857792 C145.366529,230.952698 145.19952,231 145.032235,231 Z" id="Fill-15" fill="#1E4EFF" opacity="0.239341518"></path>
                        <path d="M146.902008,46.5001133 L217.000138,90.722616 L287.097992,46.5001133 L217.000138,2.2776105 L146.902008,46.5001133 Z M217.000138,93 C216.833204,93 216.666269,92.952888 216.51647,92.8586639 L144.483668,47.4154761 C144.184347,47.2267259 144,46.8776136 144,46.5001133 C144,46.1226129 144.184347,45.7735006 144.483668,45.5844484 L216.51647,0.141562624 C216.815792,-0.0471875414 217.184485,-0.0471875414 217.483806,0.141562624 L289.516332,45.5844484 C289.815653,45.7735006 290,46.1226129 290,46.5001133 C290,46.8776136 289.815653,47.2267259 289.516332,47.4154761 L217.483806,92.8586639 C217.334284,92.952888 217.167349,93 217.000138,93 Z" id="Fill-17" fill="#1E4EFF" opacity="0.239341518"></path>
                        <path d="M217.93553,93.2995537 L217.93553,182.100657 L288.06447,137.700257 L288.06447,48.8991537 L217.93553,93.2995537 Z M216.967765,185 C216.800756,185 216.633748,184.952698 216.483882,184.857792 C216.184428,184.668283 216,184.317766 216,183.938747 L216,92.6867559 C216,92.3077369 216.184428,91.9575234 216.483882,91.768014 L288.548353,46.1420184 C288.847807,45.952509 289.21694,45.9528122 289.516118,46.1420184 C289.815572,46.3315279 290,46.6820446 290,47.0610635 L290,138.312751 C290,138.692074 289.815572,139.041984 289.516118,139.231797 L217.451647,184.857792 C217.301782,184.952698 217.134773,185 216.967765,185 Z" id="Fill-19" fill="#1E4EFF" opacity="0.239341518"></path>
                        <path d="M145.935522,137.700296 L216.064478,182.100659 L216.064478,93.2996287 L145.935522,48.8995682 L145.935522,137.700296 Z M217.032239,185 C216.865231,185 216.698223,184.952698 216.548358,184.857792 L144.483881,139.231834 C144.184428,139.042325 144,138.692111 144,138.313093 L144,47.0614795 C144,46.6821577 144.184428,46.3316413 144.483881,46.142132 C144.783334,45.9526227 145.152189,45.9526227 145.451642,46.142132 L217.516119,91.7680902 C217.815572,91.9579028 218,92.3078127 218,92.6871346 L218,183.938748 C218,184.31807 217.815572,184.668283 217.516119,184.857792 C217.366531,184.952698 217.199523,185 217.032239,185 Z" id="Fill-21" fill="#1E4EFF" opacity="0.239341518"></path>
                        <path d="M218.902008,92.4999623 L288.999862,136.722321 L359.097992,92.4999623 L288.999862,48.2776031 L218.902008,92.4999623 Z M288.999862,139 C288.832651,139 288.665716,138.952586 288.516194,138.85806 L216.483668,93.4156241 C216.184347,93.2265725 216,92.8774614 216,92.4999623 C216,92.1224631 216.184347,91.773654 216.483668,91.5846024 L288.516194,46.1415622 C288.815515,45.9528126 289.184208,45.9528126 289.48353,46.1415622 L361.516332,91.5846024 C361.815653,91.773654 362,92.1224631 362,92.4999623 C362,92.8774614 361.815653,93.2265725 361.516332,93.4156241 L289.48353,138.85806 C289.333731,138.952586 289.166796,139 288.999862,139 Z" id="Fill-23" fill="#1E4EFF" opacity="0.239341518"></path>
                        <path d="M288.935522,139.299732 L288.935522,228.100653 L359.064478,183.700496 L359.064478,94.8992714 L288.935522,139.299732 Z M287.967761,231 C287.800753,231 287.633745,230.953002 287.483881,230.858095 C287.184428,230.668585 287,230.318068 287,229.938746 L287,138.686933 C287,138.307914 287.184428,137.9577 287.483881,137.767887 L359.548358,92.1421323 C359.847811,91.9526226 360.216666,91.9526226 360.516119,92.1421323 C360.815572,92.3319452 361,92.681856 361,93.0611786 L361,184.312991 C361,184.692314 360.815572,185.042528 360.516119,185.232037 L288.451642,230.858095 C288.301777,230.953002 288.134769,231 287.967761,231 Z" id="Fill-25" fill="#1E4EFF" opacity="0.239341518"></path>
                        <path d="M217.93553,183.700296 L288.06447,228.100659 L288.06447,139.299629 L217.93553,94.899265 L217.93553,183.700296 Z M289.032235,231 C288.86495,231 288.697942,230.952698 288.548353,230.857792 L216.483882,185.232137 C216.184428,185.042325 216,184.692111 216,184.313093 L216,93.0611763 C216,92.6821577 216.184428,92.3319445 216.483882,92.142132 C216.783337,91.9526227 217.152193,91.9526227 217.451647,92.142132 L289.516118,137.767787 C289.815572,137.9576 290,138.307813 290,138.687135 L290,229.938748 C290,230.317766 289.815572,230.668283 289.516118,230.857792 C289.366252,230.952698 289.199244,231 289.032235,231 Z" id="Fill-27" fill="#1E4EFF" opacity="0.239341518"></path>
                        <path d="M218.902008,182.500113 L288.999862,226.722616 L359.097992,182.500113 L288.999862,138.27761 L218.902008,182.500113 Z M288.999862,229 C288.832651,229 288.665716,228.952888 288.516194,228.858664 L216.483668,183.415476 C216.184347,183.226726 216,182.877614 216,182.500113 C216,182.122311 216.184347,181.773501 216.483668,181.58475 L288.516194,136.141563 C288.815515,135.952812 289.184208,135.952812 289.48353,136.141563 L361.516332,181.58475 C361.815653,181.773501 362,182.122311 362,182.500113 C362,182.877614 361.815653,183.226726 361.516332,183.415476 L289.48353,228.858664 C289.333731,228.952888 289.166796,229 288.999862,229 Z" id="Fill-29" fill="#1E4EFF" opacity="0.239341518"></path>
                        <path d="M288.935522,229.299732 L288.935522,318.100956 L359.064478,273.700496 L359.064478,184.899271 L288.935522,229.299732 Z M287.967761,321 C287.800753,321 287.633745,320.952698 287.483881,320.858095 C287.184428,320.668585 287,320.318068 287,319.938746 L287,228.686933 C287,228.307914 287.184428,227.9577 287.483881,227.76819 L359.548358,182.142132 C359.847811,181.952623 360.216666,181.952623 360.516119,182.142132 C360.815572,182.331642 361,182.681856 361,183.061179 L361,274.313294 C361,274.692314 360.815572,275.042528 360.516119,275.232037 L288.451642,320.858095 C288.301777,320.952698 288.134769,321 287.967761,321 Z" id="Fill-31" fill="#1E4EFF" opacity="0.239341518"></path>
                        <path d="M217.93553,273.700496 L288.06447,318.100956 L288.06447,229.299732 L217.93553,184.899271 L217.93553,273.700496 Z M289.032235,321 C288.86495,321 288.697942,320.952698 288.548353,320.857792 L216.483882,275.232037 C216.184428,275.042528 216,274.692314 216,274.313294 L216,183.061179 C216,182.681856 216.184428,182.331642 216.483882,182.142132 C216.783337,181.952623 217.152193,181.952623 217.451647,182.142132 L289.516118,227.76819 C289.815572,227.9577 290,228.307914 290,228.686933 L290,319.938746 C290,320.318068 289.815572,320.668282 289.516118,320.857792 C289.366252,320.952698 289.199244,321 289.032235,321 Z" id="Fill-33" fill="#1E4EFF" opacity="0.239341518"></path>
                        <path d="M289.902002,409.499962 L360,453.722623 L430.097998,409.499962 L360,365.277301 L289.902002,409.499962 Z M360,456 C359.832789,456 359.665855,455.952586 359.516333,455.858362 L287.483667,410.415322 C287.184346,410.226573 287,409.877461 287,409.499962 C287,409.122463 287.184346,408.773352 287.483667,408.584602 L359.516333,363.141562 C359.815654,362.952813 360.184346,362.952813 360.483667,363.141562 L432.516333,408.584602 C432.815654,408.773352 433,409.122463 433,409.499962 C433,409.877461 432.815654,410.226573 432.516333,410.415322 L360.483667,455.858362 C360.333868,455.952586 360.166934,456 360,456 Z" id="Fill-35" fill="#1E4EFF" opacity="0.239341518"></path>
                        <path d="M360.935522,456.299629 L360.935522,545.100356 L431.064478,500.700296 L431.064478,411.899265 L360.935522,456.299629 Z M359.967761,548 C359.800753,548 359.633745,547.952698 359.483881,547.857792 C359.184428,547.668283 359,547.317766 359,546.938748 L359,455.686831 C359,455.307813 359.184428,454.957296 359.483881,454.767787 L431.548358,409.142132 C431.847811,408.952623 432.216666,408.952623 432.516119,409.142132 C432.815572,409.331641 433,409.682158 433,410.061176 L433,501.31279 C433,501.691808 432.815572,502.042325 432.516119,502.231834 L360.451642,547.857792 C360.301777,547.952698 360.134769,548 359.967761,548 Z" id="Fill-37" fill="#1E4EFF" opacity="0.239341518"></path>
                        <path d="M288.935522,500.700296 L359.064478,545.100659 L359.064478,456.299629 L288.935522,411.899568 L288.935522,500.700296 Z M360.032239,548 C359.864954,548 359.697946,547.952698 359.548358,547.857792 L287.483881,502.232137 C287.184428,502.042628 287,501.692111 287,501.313093 L287,410.061176 C287,409.682158 287.184428,409.331641 287.483881,409.142132 C287.783334,408.952623 288.152189,408.952623 288.451642,409.142132 L360.516119,454.76809 C360.815572,454.9576 361,455.308116 361,455.687135 L361,546.938748 C361,547.317766 360.815572,547.668283 360.516119,547.857792 C360.366255,547.952698 360.199247,548 360.032239,548 Z" id="Fill-39" fill="#1E4EFF" opacity="0.239341518"></path>
                        <path d="M576.036835,590 C575.873269,590 575.708054,589.95449 575.556309,589.858046 L400.481013,478.968708 C400.021105,478.677266 399.863312,478.031994 400.12914,477.527471 C400.394969,477.023551 400.983256,476.84965 401.443714,477.141996 L576.51901,588.031636 C576.979193,588.323078 577.136711,588.968048 576.870608,589.472571 C576.692472,589.810728 576.369189,590 576.036835,590" id="Fill-41" fill="#1E4EFF" opacity="0.239341518"></path>
                        <path d="M433.902008,319.499962 L503.999862,363.722623 L574.097992,319.499962 L503.999862,275.277603 L433.902008,319.499962 Z M503.999862,366 C503.832651,366 503.665716,365.952586 503.516194,365.858362 L431.483668,320.415322 C431.184347,320.226573 431,319.877763 431,319.499962 C431,319.122463 431.184347,318.773654 431.483668,318.584602 L503.516194,273.141562 C503.815515,272.952813 504.184208,272.952813 504.48353,273.141562 L576.516332,318.584602 C576.815653,318.773654 577,319.122463 577,319.499962 C577,319.877763 576.815653,320.226573 576.516332,320.415322 L504.48353,365.858362 C504.333731,365.952586 504.166796,366 503.999862,366 Z" id="Fill-55" fill="#1E4EFF" opacity="0.239341518"></path>
                        <path d="M505.935522,365.299629 L505.935522,454.100356 L576.064478,409.700296 L576.064478,320.899265 L505.935522,365.299629 Z M504.967761,457 C504.800753,457 504.633745,456.952698 504.483881,456.857792 C504.184428,456.668283 504,456.317766 504,455.938748 L504,364.686831 C504,364.307813 504.184428,363.957296 504.483881,363.767787 L576.548358,318.142132 C576.847535,317.952623 577.216943,317.952623 577.516119,318.142132 C577.815572,318.331945 578,318.682158 578,319.061176 L578,410.31279 C578,410.691808 577.815572,411.042325 577.516119,411.231834 L505.451642,456.857792 C505.301777,456.952698 505.134769,457 504.967761,457 Z" id="Fill-57" fill="#1E4EFF" opacity="0.239341518"></path>
                        <path d="M432.93553,409.700296 L503.06447,454.100659 L503.06447,365.299629 L432.93553,320.899568 L432.93553,409.700296 Z M504.032235,457 C503.86495,457 503.697942,456.952698 503.548353,456.857792 L431.483882,411.232137 C431.184428,411.042628 431,410.692111 431,410.313093 L431,319.061176 C431,318.682158 431.184428,318.331945 431.483882,318.142132 C431.783337,317.952623 432.152193,317.952623 432.451647,318.142132 L504.516118,363.76809 C504.815572,363.9576 505,364.308116 505,364.687135 L505,455.938748 C505,456.317766 504.815572,456.668283 504.516118,456.857792 C504.366252,456.952698 504.199244,457 504.032235,457 Z" id="Fill-59" fill="#1E4EFF" opacity="0.239341518"></path>
                        <path d="M506.902002,274.499962 L577,318.722609 L647.097998,274.499962 L577,230.277316 L506.902002,274.499962 Z M577,321 C576.832789,321 576.665855,320.952888 576.516333,320.858361 L504.483667,275.415328 C504.184346,275.226275 504,274.877464 504,274.499962 C504,274.122461 504.184346,273.773347 504.483667,273.584294 L576.516333,228.141563 C576.815377,227.952812 577.184623,227.952812 577.483667,228.141563 L649.516333,273.584294 C649.815654,273.773347 650,274.122461 650,274.499962 C650,274.877464 649.815654,275.226275 649.516333,275.415328 L577.483667,320.858361 C577.334145,320.952888 577.166934,321 577,321 Z" id="Fill-61" fill="#1E4EFF" opacity="0.239341518"></path>
                        <path d="M577.935522,320.299629 L577.935522,409.100356 L648.064478,364.700296 L648.064478,275.899265 L577.935522,320.299629 Z M576.967761,412 C576.800753,412 576.633469,411.952698 576.483881,411.857792 C576.184428,411.668283 576,411.317766 576,410.938748 L576,319.686831 C576,319.307813 576.184428,318.9576 576.483881,318.767787 L648.548358,273.142132 C648.847535,272.952623 649.216943,272.952623 649.516119,273.142132 C649.815572,273.331641 650,273.682158 650,274.061176 L650,365.31279 C650,365.691808 649.815572,366.042325 649.516119,366.231834 L577.451642,411.857792 C577.302054,411.952698 577.134769,412 576.967761,412 Z" id="Fill-63" fill="#1E4EFF" opacity="0.239341518"></path>
                        <path d="M505.935522,364.700296 L576.064478,409.100659 L576.064478,320.299629 L505.935522,275.899568 L505.935522,364.700296 Z M577.032239,412 C576.864954,412 576.697946,411.952698 576.548358,411.857792 L504.483881,366.232137 C504.184428,366.042628 504,365.692111 504,365.313093 L504,274.06148 C504,273.682158 504.184428,273.331641 504.483881,273.142132 C504.783334,272.952623 505.152189,272.952623 505.451642,273.142132 L577.516119,318.76809 C577.815572,318.957903 578,319.308116 578,319.687135 L578,410.938748 C578,411.317766 577.815572,411.668283 577.516119,411.857792 C577.366531,411.952698 577.199247,412 577.032239,412 Z" id="Fill-65" fill="#1E4EFF" opacity="0.239341518"></path>
                        <path d="M506.902002,182.500113 L577,226.722616 L647.097998,182.500113 L577,138.277308 L506.902002,182.500113 Z M577,229 C576.832789,229 576.665855,228.952888 576.516333,228.858362 L504.483667,183.415476 C504.184346,183.226424 504,182.877614 504,182.500113 C504,182.122613 504.184346,181.773501 504.483667,181.58475 L576.516333,136.141563 C576.815377,135.952812 577.184623,135.952812 577.483667,136.141563 L649.516333,181.58475 C649.815654,181.773501 650,182.122613 650,182.500113 C650,182.877614 649.815654,183.226424 649.516333,183.415476 L577.483667,228.858362 C577.334145,228.952888 577.166934,229 577,229 Z" id="Fill-67" fill="#1E4EFF" opacity="0.239341518"></path>
                        <path d="M577.935522,229.299732 L577.935522,318.100956 L648.064478,273.700192 L648.064478,184.899271 L577.935522,229.299732 Z M576.967761,321 C576.800753,321 576.633469,320.952698 576.483881,320.858095 C576.184428,320.668585 576,320.318068 576,319.938746 L576,228.686933 C576,228.307914 576.184428,227.957397 576.483881,227.767887 L648.548358,182.142132 C648.847535,181.952623 649.216943,181.952623 649.516119,182.142132 C649.815572,182.331945 650,182.682159 650,183.061179 L650,274.312991 C650,274.69201 649.815572,275.042528 649.516119,275.232037 L577.451642,320.858095 C577.302054,320.952698 577.134769,321 576.967761,321 Z" id="Fill-69" fill="#1E4EFF" opacity="0.239341518"></path>
                        <path d="M505.935522,273.700192 L576.064478,318.100956 L576.064478,229.299732 L505.935522,184.899271 L505.935522,273.700192 Z M577.032239,321 C576.864954,321 576.697946,320.952698 576.548358,320.857792 L504.483881,275.232037 C504.184428,275.042528 504,274.69201 504,274.312991 L504,183.061179 C504,182.682159 504.184428,182.331642 504.483881,182.142132 C504.783334,181.952623 505.152189,181.952623 505.451642,182.142132 L577.516119,227.767887 C577.815572,227.957397 578,228.307914 578,228.686933 L578,319.938746 C578,320.318068 577.815572,320.668282 577.516119,320.857792 C577.366531,320.952698 577.199247,321 577.032239,321 Z" id="Fill-71" fill="#1E4EFF" opacity="0.239341518"></path>
                        <path d="M578.902002,319.499962 L649,363.722623 L719.097998,319.499962 L649,275.277603 L578.902002,319.499962 Z M649,366 C648.832789,366 648.665855,365.952586 648.516333,365.858362 L576.483667,320.415322 C576.184346,320.226573 576,319.877763 576,319.499962 C576,319.122463 576.184346,318.773654 576.483667,318.584602 L648.516333,273.141562 C648.815377,272.952813 649.184623,272.952813 649.483667,273.141562 L721.516333,318.584602 C721.815654,318.773654 722,319.122463 722,319.499962 C722,319.877763 721.815654,320.226573 721.516333,320.415322 L649.483667,365.858362 C649.334145,365.952586 649.166934,366 649,366 Z" id="Fill-79" fill="#1E4EFF" opacity="0.239341518"></path>
                        <path d="M649.935522,365.299629 L649.935522,454.100356 L720.064478,409.700296 L720.064478,320.899265 L649.935522,365.299629 Z M648.967761,457 C648.800753,457 648.633469,456.952698 648.483881,456.857792 C648.184428,456.668283 648,456.317766 648,455.938748 L648,364.686831 C648,364.307813 648.184428,363.957296 648.483881,363.767787 L720.548358,318.142132 C720.847535,317.952623 721.216943,317.952623 721.516119,318.142132 C721.815572,318.331945 722,318.682158 722,319.061176 L722,410.31279 C722,410.691808 721.815572,411.042325 721.516119,411.231834 L649.451642,456.857792 C649.302054,456.952698 649.134769,457 648.967761,457 Z" id="Fill-81" fill="#1E4EFF" opacity="0.239341518"></path>
                        <path d="M577.935522,409.700296 L648.064478,454.100659 L648.064478,365.299629 L577.935522,320.899568 L577.935522,409.700296 Z M649.032239,457 C648.864954,457 648.697946,456.952698 648.548358,456.857792 L576.483881,411.232137 C576.184428,411.042628 576,410.692111 576,410.313093 L576,319.061176 C576,318.682158 576.184428,318.331945 576.483881,318.142132 C576.783057,317.952623 577.152465,317.952623 577.451642,318.142132 L649.516119,363.76809 C649.815572,363.9576 650,364.308116 650,364.687135 L650,455.938748 C650,456.317766 649.815572,456.668283 649.516119,456.857792 C649.366531,456.952698 649.199247,457 649.032239,457 Z" id="Fill-83" fill="#1E4EFF" opacity="0.239341518"></path>
                        <path d="M578.902002,587.500113 L649,631.722616 L719.097998,587.500113 L649,543.277308 L578.902002,587.500113 Z M649,634 C648.832789,634 648.665855,633.952586 648.516333,633.858362 L576.483667,588.415476 C576.184346,588.226726 576,587.877614 576,587.500113 C576,587.122613 576.184346,586.773501 576.483667,586.58475 L648.516333,541.141563 C648.815377,540.952812 649.184623,540.952812 649.483667,541.141563 L721.516333,586.58475 C721.815654,586.773501 722,587.122613 722,587.500113 C722,587.877614 721.815654,588.226726 721.516333,588.415476 L649.483667,633.858362 C649.334145,633.952586 649.166934,634 649,634 Z" id="Fill-85" fill="#1E4EFF" opacity="0.239341518"></path>
                        <path d="M649.935522,634.299429 L649.935522,723.10035 L720.064478,678.700192 L720.064478,589.899271 L649.935522,634.299429 Z M648.967761,726 C648.800753,726 648.633469,725.952698 648.483881,725.857792 C648.184428,725.668282 648,725.317765 648,724.938746 L648,633.68663 C648,633.307611 648.184428,632.957093 648.483881,632.767584 L720.548358,587.142132 C720.847535,586.952623 721.216943,586.952623 721.516119,587.142132 C721.815572,587.331642 722,587.682159 722,588.061179 L722,679.312688 C722,679.691707 721.815572,680.042224 721.516119,680.231734 L649.451642,725.857792 C649.302054,725.952698 649.134769,726 648.967761,726 Z" id="Fill-87" fill="#1E4EFF" opacity="0.239341518"></path>
                        <path d="M577.935522,678.700192 L648.064478,723.100653 L648.064478,634.299429 L577.935522,589.899575 L577.935522,678.700192 Z M649.032239,726 C648.864954,726 648.697946,725.952698 648.548358,725.857792 L576.483881,680.232037 C576.184428,680.042528 576,679.69201 576,679.312991 L576,588.061179 C576,587.682159 576.184428,587.331642 576.483881,587.142132 C576.783057,586.952623 577.152465,586.952623 577.451642,587.142132 L649.516119,632.767887 C649.815572,632.957397 650,633.307914 650,633.686933 L650,724.938746 C650,725.317765 649.815572,725.668282 649.516119,725.857792 C649.366531,725.952698 649.199247,726 649.032239,726 Z" id="Fill-89" fill="#1E4EFF" opacity="0.239341518"></path>
                        <path d="M649,544 C648.447714,544 648,543.531557 648,542.953701 L648,456.046299 C648,455.468742 648.447714,455 649,455 C649.552286,455 650,455.468742 650,456.046299 L650,542.953701 C650,543.531557 649.552286,544 649,544" id="Fill-91" fill="#1E4EFF" opacity="0.239341518"></path>
                    </g>
                </g>
            </g>
        </g>
    </g>
</svg>