<?xml version="1.0" encoding="UTF-8"?>
<svg width="833px" height="493px" viewBox="0 0 833 493" version="1.1" xmlns="http://www.w3.org/2000/svg" xmlns:xlink="http://www.w3.org/1999/xlink">
    <!-- Generator: Sketch 50.2 (55047) - http://www.bohemiancoding.com/sketch -->
    <title>Group 6</title>
    <desc>Created with Sketch.</desc>
    <defs>
        <linearGradient x1="50%" y1="0%" x2="50%" y2="100%" id="linearGradient-1">
            <stop stop-color="#7241FF" offset="0%"></stop>
            <stop stop-color="#284CFF" offset="50.0342475%"></stop>
            <stop stop-color="#00C1D2" stop-opacity="0" offset="100%"></stop>
        </linearGradient>
    </defs>
    <g id="Page-1" stroke="none" stroke-width="1" fill="none" fill-rule="evenodd">
        <g id="After-clock-down" transform="translate(-587.000000, -886.000000)">
            <g id="Group-6" transform="translate(587.000000, 886.000000)">
                <path d="M50,121 L822,121" id="Gridline" stroke="#778F9B" stroke-linejoin="round" stroke-dasharray="1,6"></path>
                <path d="M50,7 L822,7" id="Gridline" stroke="#778F9B" stroke-linejoin="round" stroke-dasharray="1,6"></path>
                <path d="M50,235 L822,235" id="Gridline" stroke="#778F9B" stroke-linejoin="round" stroke-dasharray="1,6"></path>
                <path d="M50,348 L822,348" id="Gridline" stroke="#778F9B" stroke-linejoin="round" stroke-dasharray="1,6"></path>
                <path d="M50,461.668003 L822.112351,461.668003" id="Axis" stroke="#214DFF" stroke-width="2" stroke-linecap="round" stroke-linejoin="round"></path>
                <g id="Numbers" fill="#778F9B">
                    <path d="M4.7034375,12.2566062 L3.2503125,12.2566062 L3.2503125,2.54907859 L0.33625,3.62769277 L0.33625,2.30501261 L4.476875,0.73826646 L4.7034375,0.73826646 L4.7034375,12.2566062 Z M16.150625,7.36741347 C16.150625,9.07325951 15.8615654,10.3408153 15.2834375,11.1701189 C14.7053096,11.9994226 13.8016728,12.4140681 12.5725,12.4140681 C11.3589523,12.4140681 10.4605238,12.0086077 9.8771875,11.1976748 C9.29385125,10.3867418 8.99177094,9.17560929 8.9709375,7.56424088 L8.9709375,5.61958611 C8.9709375,3.9347351 9.25999711,2.68292532 9.838125,1.86411922 C10.4162529,1.04531312 11.3224938,0.635916209 12.556875,0.635916209 C13.7808395,0.635916209 14.6818721,1.03087925 15.26,1.82081719 C15.8381279,2.61075513 16.1349999,3.82976067 16.150625,5.47787038 L16.150625,7.36741347 Z M14.7053125,5.37552013 C14.7053125,4.14206222 14.5334392,3.24322606 14.1896875,2.67898468 C13.8459358,2.11474329 13.3016704,1.83262683 12.556875,1.83262683 C11.817288,1.83262683 11.2782309,2.11343112 10.9396875,2.67504813 C10.6011441,3.23666513 10.4266667,4.10007272 10.41625,5.26529678 L10.41625,7.59573326 C10.41625,8.83443992 10.5946336,9.74902212 10.9514063,10.3395073 C11.3081789,10.9299925 11.848538,11.2252306 12.5725,11.2252306 C13.2860452,11.2252306 13.8159879,10.9470507 14.1623438,10.3906824 C14.5086996,9.83431417 14.6896874,8.95778489 14.7053125,7.76106828 L14.7053125,5.37552013 Z M25.215,7.36741347 C25.215,9.07325951 24.9259404,10.3408153 24.3478125,11.1701189 C23.7696846,11.9994226 22.8660478,12.4140681 21.636875,12.4140681 C20.4233273,12.4140681 19.5248988,12.0086077 18.9415625,11.1976748 C18.3582263,10.3867418 18.0561459,9.17560929 18.0353125,7.56424088 L18.0353125,5.61958611 C18.0353125,3.9347351 18.3243721,2.68292532 18.9025,1.86411922 C19.4806279,1.04531312 20.3868688,0.635916209 21.62125,0.635916209 C22.8452145,0.635916209 23.7462471,1.03087925 24.324375,1.82081719 C24.9025029,2.61075513 25.1993749,3.82976067 25.215,5.47787038 L25.215,7.36741347 Z M23.7696875,5.37552013 C23.7696875,4.14206222 23.5978142,3.24322606 23.2540625,2.67898468 C22.9103108,2.11474329 22.3660454,1.83262683 21.62125,1.83262683 C20.881663,1.83262683 20.3426059,2.11343112 20.0040625,2.67504813 C19.6655191,3.23666513 19.4910417,4.10007272 19.480625,5.26529678 L19.480625,7.59573326 C19.480625,8.83443992 19.6590086,9.74902212 20.0157813,10.3395073 C20.3725539,10.9299925 20.912913,11.2252306 21.636875,11.2252306 C22.3504202,11.2252306 22.8803629,10.9470507 23.2267188,10.3906824 C23.5730746,9.83431417 23.7540624,8.95778489 23.7696875,7.76106828 L23.7696875,5.37552013 Z M27.0215625,2.99784507 C27.0215625,2.3102579 27.2390082,1.74340064 27.6739063,1.29725629 C28.1088043,0.851111942 28.6673924,0.628043113 29.3496875,0.628043113 C30.0423993,0.628043113 30.6035916,0.852424111 31.0332813,1.30119284 C31.4629709,1.74996157 31.6778125,2.33125269 31.6778125,3.04508365 L31.6778125,3.60407348 C31.6778125,4.29690941 31.4603668,4.8624545 31.0254688,5.30072571 C30.5905707,5.73899693 30.0371909,5.95812925 29.3653125,5.95812925 C28.6882258,5.95812925 28.1283355,5.73899693 27.685625,5.30072571 C27.2429145,4.8624545 27.0215625,4.27853904 27.0215625,3.54896181 L27.0215625,2.99784507 Z M28.0996875,3.60407348 C28.0996875,4.01347653 28.2142697,4.35070411 28.4434375,4.61576634 C28.6726053,4.88082858 28.9798939,5.0133577 29.3653125,5.0133577 C29.735106,5.0133577 30.0332801,4.88476508 30.2598438,4.62757599 C30.4864074,4.37038689 30.5996875,4.01872545 30.5996875,3.5725811 L30.5996875,2.99784507 C30.5996875,2.58844202 30.4877095,2.24990227 30.26375,1.98221566 C30.0397905,1.71452905 29.7351061,1.58068775 29.3496875,1.58068775 C28.9642689,1.58068775 28.6595845,1.71452905 28.435625,1.98221566 C28.2116655,2.24990227 28.0996875,2.59893938 28.0996875,3.02933746 L28.0996875,3.60407348 Z M32.560625,9.44591087 C32.560625,8.7583237 32.7780707,8.19277861 33.2129688,7.74925864 C33.6478668,7.30573867 34.2064549,7.08398201 34.88875,7.08398201 C35.5710451,7.08398201 36.1309353,7.3044265 36.5684375,7.74532209 C37.0059397,8.18621768 37.2246875,8.77144531 37.2246875,9.50102254 L37.2246875,10.0600124 C37.2246875,10.7475995 37.0072418,11.3131446 36.5723438,11.7566646 C36.1374457,12.2001846 35.5814617,12.4219412 34.904375,12.4219412 C34.2272883,12.4219412 33.667398,12.2028089 33.2246875,11.7645377 C32.781977,11.3262665 32.560625,10.742351 32.560625,10.0127738 L32.560625,9.44591087 Z M33.63875,10.0600124 C33.63875,10.4746642 33.7533322,10.8145161 33.9825,11.0795783 C34.2116678,11.3446406 34.5189564,11.4771697 34.904375,11.4771697 C35.2793769,11.4771697 35.578853,11.3472649 35.8028125,11.0874514 C36.026772,10.827638 36.13875,10.4746643 36.13875,10.02852 L36.13875,9.44591087 C36.13875,9.03125906 36.0254699,8.69271931 35.7989063,8.43028146 C35.5723426,8.16784361 35.2689602,8.03662665 34.88875,8.03662665 C34.5189565,8.03662665 34.2181782,8.16653144 33.9864063,8.42634491 C33.7546343,8.68615839 33.63875,9.03650766 33.63875,9.47740326 L33.63875,10.0600124 Z M29.6934375,11.3905656 L28.873125,10.8709413 L34.4278125,1.9113578 L35.248125,2.43098215 L29.6934375,11.3905656 Z" id="100%"></path>
                    <path d="M16.3615625,117.502137 L11.650625,128.146563 L10.135,128.146563 L14.8303125,117.880045 L8.6740625,117.880045 L8.6740625,116.683335 L16.3615625,116.683335 L16.3615625,117.502137 Z M18.74625,122.399203 L19.324375,116.683335 L25.1525,116.683335 L25.1525,118.029634 L20.5509375,118.029634 L20.2071875,121.155253 C20.764482,120.824582 21.3972881,120.659248 22.105625,120.659248 C23.1420885,120.659248 23.964997,121.004349 24.574375,121.694561 C25.183753,122.384772 25.4884375,123.317725 25.4884375,124.493446 C25.4884375,125.674417 25.1720344,126.604745 24.5392187,127.284459 C23.9064031,127.964173 23.0222973,128.304025 21.886875,128.304025 C20.8816616,128.304025 20.0613573,128.023221 19.4259375,127.461604 C18.7905177,126.899987 18.4285421,126.123182 18.34,125.131167 L19.7071875,125.131167 C19.7957296,125.787262 20.0274981,126.28195 20.4025,126.615246 C20.7775019,126.948542 21.2722886,127.115187 21.886875,127.115187 C22.5587534,127.115187 23.0860918,126.884245 23.4689062,126.422355 C23.8517207,125.960464 24.043125,125.32275 24.043125,124.509192 C24.043125,123.742874 23.8360958,123.127466 23.4220312,122.662951 C23.0079667,122.198436 22.4571909,121.966182 21.7696875,121.966182 C21.139476,121.966182 20.6446893,122.105272 20.2853125,122.383456 L19.9025,122.69838 L18.74625,122.399203 Z M27.0215625,118.887802 C27.0215625,118.200215 27.2390082,117.633357 27.6739062,117.187213 C28.1088043,116.741069 28.6673924,116.518 29.3496875,116.518 C30.0423993,116.518 30.6035916,116.742381 31.0332812,117.19115 C31.4629709,117.639918 31.6778125,118.221209 31.6778125,118.93504 L31.6778125,119.49403 C31.6778125,120.186866 31.4603668,120.752411 31.0254687,121.190682 C30.5905707,121.628954 30.0371909,121.848086 29.3653125,121.848086 C28.6882258,121.848086 28.1283355,121.628954 27.685625,121.190682 C27.2429145,120.752411 27.0215625,120.168496 27.0215625,119.438918 L27.0215625,118.887802 Z M28.0996875,119.49403 C28.0996875,119.903433 28.2142697,120.240661 28.4434375,120.505723 C28.6726053,120.770785 28.9798939,120.903314 29.3653125,120.903314 C29.735106,120.903314 30.0332801,120.774722 30.2598437,120.517533 C30.4864074,120.260344 30.5996875,119.908682 30.5996875,119.462538 L30.5996875,118.887802 C30.5996875,118.478399 30.4877095,118.139859 30.26375,117.872172 C30.0397905,117.604486 29.7351061,117.470644 29.3496875,117.470644 C28.9642689,117.470644 28.6595845,117.604486 28.435625,117.872172 C28.2116655,118.139859 28.0996875,118.488896 28.0996875,118.919294 L28.0996875,119.49403 Z M32.560625,125.335868 C32.560625,124.64828 32.7780707,124.082735 33.2129687,123.639215 C33.6478668,123.195695 34.2064549,122.973939 34.88875,122.973939 C35.5710451,122.973939 36.1309353,123.194383 36.5684375,123.635279 C37.0059397,124.076174 37.2246875,124.661402 37.2246875,125.390979 L37.2246875,125.949969 C37.2246875,126.637556 37.0072418,127.203101 36.5723437,127.646621 C36.1374457,128.090141 35.5814617,128.311898 34.904375,128.311898 C34.2272883,128.311898 33.667398,128.092766 33.2246875,127.654494 C32.781977,127.216223 32.560625,126.632308 32.560625,125.90273 L32.560625,125.335868 Z M33.63875,125.949969 C33.63875,126.364621 33.7533322,126.704473 33.9825,126.969535 C34.2116678,127.234597 34.5189564,127.367126 34.904375,127.367126 C35.2793769,127.367126 35.578853,127.237222 35.8028125,126.977408 C36.026772,126.717595 36.13875,126.364621 36.13875,125.918477 L36.13875,125.335868 C36.13875,124.921216 36.0254699,124.582676 35.7989062,124.320238 C35.5723426,124.0578 35.2689602,123.926583 34.88875,123.926583 C34.5189565,123.926583 34.2181782,124.056488 33.9864062,124.316302 C33.7546343,124.576115 33.63875,124.926464 33.63875,125.36736 L33.63875,125.949969 Z M29.6934375,127.280522 L28.873125,126.760898 L34.4278125,117.801314 L35.248125,118.320939 L29.6934375,127.280522 Z" id="75%"></path>
                    <path d="M9.681875,233.252397 L10.26,227.536529 L16.088125,227.536529 L16.088125,228.882829 L11.4865625,228.882829 L11.1428125,232.008448 C11.700107,231.677776 12.3329131,231.512443 13.04125,231.512443 C14.0777135,231.512443 14.900622,231.857544 15.51,232.547755 C16.119378,233.237967 16.4240625,234.170919 16.4240625,235.346641 C16.4240625,236.527611 16.1076594,237.457939 15.4748437,238.137654 C14.8420281,238.817368 13.9579223,239.157219 12.8225,239.157219 C11.8172866,239.157219 10.9969823,238.876415 10.3615625,238.314798 C9.72614266,237.753181 9.36416711,236.976377 9.275625,235.984362 L10.6428125,235.984362 C10.7313546,236.640456 10.9631231,237.135144 11.338125,237.46844 C11.7131269,237.801736 12.2079136,237.968382 12.8225,237.968382 C13.4943784,237.968382 14.0217168,237.73744 14.4045312,237.27555 C14.7873457,236.813659 14.97875,236.175944 14.97875,235.362387 C14.97875,234.596069 14.7717208,233.980661 14.3576562,233.516146 C13.9435917,233.051631 13.3928159,232.819377 12.7053125,232.819377 C12.075101,232.819377 11.5803143,232.958467 11.2209375,233.236651 L10.838125,233.551575 L9.681875,233.252397 Z M25.215,234.110565 C25.215,235.816411 24.9259404,237.083967 24.3478125,237.91327 C23.7696846,238.742574 22.8660478,239.157219 21.636875,239.157219 C20.4233273,239.157219 19.5248987,238.751759 18.9415625,237.940826 C18.3582262,237.129893 18.0561459,235.918761 18.0353125,234.307392 L18.0353125,232.362737 C18.0353125,230.677886 18.3243721,229.426077 18.9025,228.607271 C19.4806279,227.788464 20.3868688,227.379068 21.62125,227.379068 C22.8452145,227.379068 23.7462471,227.774031 24.324375,228.563969 C24.9025029,229.353906 25.1993749,230.572912 25.215,232.221022 L25.215,234.110565 Z M23.7696875,232.118671 C23.7696875,230.885214 23.5978142,229.986377 23.2540625,229.422136 C22.9103108,228.857895 22.3660454,228.575778 21.62125,228.575778 C20.881663,228.575778 20.3426059,228.856582 20.0040625,229.418199 C19.6655191,229.979816 19.4910417,230.843224 19.480625,232.008448 L19.480625,234.338885 C19.480625,235.577591 19.6590086,236.492173 20.0157812,237.082659 C20.3725539,237.673144 20.912913,237.968382 21.636875,237.968382 C22.3504202,237.968382 22.8803629,237.690202 23.2267187,237.133834 C23.5730746,236.577466 23.7540624,235.700936 23.7696875,234.50422 L23.7696875,232.118671 Z M27.0215625,229.740996 C27.0215625,229.053409 27.2390082,228.486552 27.6739062,228.040408 C28.1088043,227.594263 28.6673924,227.371194 29.3496875,227.371194 C30.0423993,227.371194 30.6035916,227.595575 31.0332812,228.044344 C31.4629709,228.493113 31.6778125,229.074404 31.6778125,229.788235 L31.6778125,230.347225 C31.6778125,231.040061 31.4603668,231.605606 31.0254687,232.043877 C30.5905707,232.482148 30.0371909,232.701281 29.3653125,232.701281 C28.6882258,232.701281 28.1283355,232.482148 27.685625,232.043877 C27.2429145,231.605606 27.0215625,231.02169 27.0215625,230.292113 L27.0215625,229.740996 Z M28.0996875,230.347225 C28.0996875,230.756628 28.2142697,231.093855 28.4434375,231.358918 C28.6726053,231.62398 28.9798939,231.756509 29.3653125,231.756509 C29.735106,231.756509 30.0332801,231.627916 30.2598437,231.370727 C30.4864074,231.113538 30.5996875,230.761877 30.5996875,230.315732 L30.5996875,229.740996 C30.5996875,229.331593 30.4877095,228.993054 30.26375,228.725367 C30.0397905,228.45768 29.7351061,228.323839 29.3496875,228.323839 C28.9642689,228.323839 28.6595845,228.45768 28.435625,228.725367 C28.2116655,228.993054 28.0996875,229.342091 28.0996875,229.772489 L28.0996875,230.347225 Z M32.560625,236.189062 C32.560625,235.501475 32.7780707,234.93593 33.2129687,234.49241 C33.6478668,234.04889 34.2064549,233.827133 34.88875,233.827133 C35.5710451,233.827133 36.1309353,234.047578 36.5684375,234.488473 C37.0059397,234.929369 37.2246875,235.514597 37.2246875,236.244174 L37.2246875,236.803164 C37.2246875,237.490751 37.0072418,238.056296 36.5723437,238.499816 C36.1374457,238.943336 35.5814617,239.165093 34.904375,239.165093 C34.2272883,239.165093 33.667398,238.94596 33.2246875,238.507689 C32.781977,238.069418 32.560625,237.485502 32.560625,236.755925 L32.560625,236.189062 Z M33.63875,236.803164 C33.63875,237.217816 33.7533322,237.557667 33.9825,237.82273 C34.2116678,238.087792 34.5189564,238.220321 34.904375,238.220321 C35.2793769,238.220321 35.578853,238.090416 35.8028125,237.830603 C36.026772,237.570789 36.13875,237.217816 36.13875,236.771671 L36.13875,236.189062 C36.13875,235.77441 36.0254699,235.435871 35.7989062,235.173433 C35.5723426,234.910995 35.2689602,234.779778 34.88875,234.779778 C34.5189565,234.779778 34.2181782,234.909683 33.9864062,235.169496 C33.7546343,235.42931 33.63875,235.779659 33.63875,236.220555 L33.63875,236.803164 Z M29.6934375,238.133717 L28.873125,237.614093 L34.4278125,228.654509 L35.248125,229.174133 L29.6934375,238.133717 Z" id="50%"></path>
                    <path d="M16.4709375,352.876221 L9.0178125,352.876221 L9.0178125,351.829099 L12.9553125,347.420166 C13.5386487,346.753573 13.9409885,346.211647 14.1623437,345.794371 C14.383699,345.377095 14.494375,344.945391 14.494375,344.499247 C14.494375,343.900889 14.3146893,343.410137 13.9553125,343.026978 C13.5959357,342.643819 13.1167738,342.452242 12.5178125,342.452242 C11.7990589,342.452242 11.2404707,342.658252 10.8420312,343.07028 C10.4435918,343.482307 10.244375,344.055725 10.244375,344.790551 L8.7990625,344.790551 C8.7990625,343.735551 9.13629871,342.882641 9.81078125,342.231795 C10.4852638,341.580949 11.3875985,341.255531 12.5178125,341.255531 C13.5751095,341.255531 14.4110386,341.535023 15.025625,342.094016 C15.6402114,342.653009 15.9475,343.397009 15.9475,344.326039 C15.9475,345.454521 15.2339655,346.798183 13.806875,348.357064 L10.76,351.687384 L16.4709375,351.687384 L16.4709375,352.876221 Z M18.74625,347.128861 L19.324375,341.412993 L25.1525,341.412993 L25.1525,342.759293 L20.5509375,342.759293 L20.2071875,345.884912 C20.764482,345.55424 21.3972881,345.388907 22.105625,345.388907 C23.1420885,345.388907 23.964997,345.734007 24.574375,346.424219 C25.183753,347.11443 25.4884375,348.047383 25.4884375,349.223105 C25.4884375,350.404075 25.1720344,351.334403 24.5392187,352.014117 C23.9064031,352.693831 23.0222973,353.033683 21.886875,353.033683 C20.8816616,353.033683 20.0613573,352.752879 19.4259375,352.191262 C18.7905177,351.629645 18.4285421,350.85284 18.34,349.860825 L19.7071875,349.860825 C19.7957296,350.51692 20.0274981,351.011608 20.4025,351.344904 C20.7775019,351.6782 21.2722886,351.844846 21.886875,351.844846 C22.5587534,351.844846 23.0860918,351.613904 23.4689062,351.152013 C23.8517207,350.690122 24.043125,350.052408 24.043125,349.238851 C24.043125,348.472532 23.8360958,347.857125 23.4220312,347.39261 C23.0079667,346.928095 22.4571909,346.695841 21.7696875,346.695841 C21.139476,346.695841 20.6446893,346.834931 20.2853125,347.113115 L19.9025,347.428039 L18.74625,347.128861 Z M27.0215625,343.61746 C27.0215625,342.929873 27.2390082,342.363016 27.6739062,341.916871 C28.1088043,341.470727 28.6673924,341.247658 29.3496875,341.247658 C30.0423993,341.247658 30.6035916,341.472039 31.0332812,341.920808 C31.4629709,342.369577 31.6778125,342.950868 31.6778125,343.664699 L31.6778125,344.223688 C31.6778125,344.916524 31.4603668,345.482069 31.0254687,345.920341 C30.5905707,346.358612 30.0371909,346.577744 29.3653125,346.577744 C28.6882258,346.577744 28.1283355,346.358612 27.685625,345.920341 C27.2429145,345.482069 27.0215625,344.898154 27.0215625,344.168577 L27.0215625,343.61746 Z M28.0996875,344.223688 C28.0996875,344.633091 28.2142697,344.970319 28.4434375,345.235381 C28.6726053,345.500444 28.9798939,345.632973 29.3653125,345.632973 C29.735106,345.632973 30.0332801,345.50438 30.2598437,345.247191 C30.4864074,344.990002 30.5996875,344.63834 30.5996875,344.192196 L30.5996875,343.61746 C30.5996875,343.208057 30.4877095,342.869517 30.26375,342.601831 C30.0397905,342.334144 29.7351061,342.200303 29.3496875,342.200303 C28.9642689,342.200303 28.6595845,342.334144 28.435625,342.601831 C28.2116655,342.869517 28.0996875,343.218554 28.0996875,343.648952 L28.0996875,344.223688 Z M32.560625,350.065526 C32.560625,349.377939 32.7780707,348.812394 33.2129687,348.368874 C33.6478668,347.925354 34.2064549,347.703597 34.88875,347.703597 C35.5710451,347.703597 36.1309353,347.924041 36.5684375,348.364937 C37.0059397,348.805833 37.2246875,349.39106 37.2246875,350.120638 L37.2246875,350.679627 C37.2246875,351.367215 37.0072418,351.93276 36.5723437,352.37628 C36.1374457,352.8198 35.5814617,353.041556 34.904375,353.041556 C34.2272883,353.041556 33.667398,352.822424 33.2246875,352.384153 C32.781977,351.945881 32.560625,351.361966 32.560625,350.632389 L32.560625,350.065526 Z M33.63875,350.679627 C33.63875,351.094279 33.7533322,351.434131 33.9825,351.699193 C34.2116678,351.964256 34.5189564,352.096785 34.904375,352.096785 C35.2793769,352.096785 35.578853,351.96688 35.8028125,351.707066 C36.026772,351.447253 36.13875,351.094279 36.13875,350.648135 L36.13875,350.065526 C36.13875,349.650874 36.0254699,349.312334 35.7989062,349.049896 C35.5723426,348.787459 35.2689602,348.656242 34.88875,348.656242 C34.5189565,348.656242 34.2181782,348.786146 33.9864062,349.04596 C33.7546343,349.305773 33.63875,349.656123 33.63875,350.097018 L33.63875,350.679627 Z M29.6934375,352.010181 L28.873125,351.490556 L34.4278125,342.530973 L35.248125,343.050597 L29.6934375,352.010181 Z" id="25%"></path>
                    <path d="M37.01375,461.863492 C37.01375,463.569338 36.7246904,464.836894 36.1465625,465.666198 C35.5684346,466.495501 34.6647978,466.910147 33.435625,466.910147 C32.2220773,466.910147 31.3236488,466.504686 30.7403125,465.693753 C30.1569763,464.88282 29.8548959,463.671688 29.8340625,462.060319 L29.8340625,460.115665 C29.8340625,458.430814 30.1231221,457.179004 30.70125,456.360198 C31.2793779,455.541392 32.1856188,455.131995 33.42,455.131995 C34.6439645,455.131995 35.5449971,455.526958 36.123125,456.316896 C36.7012529,457.106834 36.9981249,458.325839 37.01375,459.973949 L37.01375,461.863492 Z M35.5684375,459.871599 C35.5684375,458.638141 35.3965642,457.739305 35.0528125,457.175063 C34.7090608,456.610822 34.1647954,456.328705 33.42,456.328705 C32.680413,456.328705 32.1413559,456.60951 31.8028125,457.171127 C31.4642691,457.732744 31.2897917,458.596151 31.279375,459.761375 L31.279375,462.091812 C31.279375,463.330519 31.4577586,464.245101 31.8145313,464.835586 C32.1713039,465.426071 32.711663,465.721309 33.435625,465.721309 C34.1491702,465.721309 34.6791129,465.443129 35.0254688,464.886761 C35.3718246,464.330393 35.5528124,463.453863 35.5684375,462.257147 L35.5684375,459.871599 Z" id="0"></path>
                </g>
                <path d="M494.701581,492.852941 L487.219597,492.852941 L487.219597,491.875 L491.172343,487.757353 C491.757938,487.134801 492.161836,486.628678 492.384048,486.238971 C492.606261,485.849263 492.717365,485.446081 492.717365,485.029412 C492.717365,484.470585 492.536984,484.012257 492.176215,483.654412 C491.815447,483.296567 491.33443,483.117647 490.733149,483.117647 C490.011613,483.117647 489.450862,483.310047 489.050879,483.694853 C488.650897,484.079659 488.450909,484.615193 488.450909,485.301471 L487,485.301471 C487,484.316172 487.338542,483.519611 488.015636,482.911765 C488.69273,482.303919 489.598559,482 490.733149,482 C491.79454,482 492.633706,482.261027 493.250672,482.783088 C493.867638,483.30515 494.176117,483.999996 494.176117,484.867647 C494.176117,485.921574 493.459819,487.176463 492.027203,488.632353 L488.96853,491.742647 L494.701581,491.742647 L494.701581,492.852941 Z M503.479501,488.286765 C503.479501,489.87991 503.189322,491.063722 502.608956,491.838235 C502.02859,492.612749 501.121454,493 499.887522,493 C498.669275,493 497.767368,492.621327 497.181773,491.863971 C496.596178,491.106614 496.292928,489.975498 496.272013,488.470588 L496.272013,486.654412 C496.272013,485.080874 496.562192,483.911769 497.142559,483.147059 C497.722925,482.382349 498.632675,482 499.871836,482 C501.10054,482 502.005061,482.368869 502.585428,483.106618 C503.165794,483.844366 503.463816,484.982835 503.479501,486.522059 L503.479501,488.286765 Z M502.028592,486.426471 C502.028592,485.274504 501.856054,484.435052 501.510971,483.908088 C501.165888,483.381125 500.619515,483.117647 499.871836,483.117647 C499.129385,483.117647 498.588241,483.379899 498.248387,483.904412 C497.908532,484.428924 497.733379,485.235289 497.722922,486.323529 L497.722922,488.5 C497.722922,489.656869 497.901997,490.511027 498.260151,491.0625 C498.618305,491.613973 499.160756,491.889706 499.887522,491.889706 C500.60383,491.889706 501.135824,491.629905 501.483521,491.110294 C501.831218,490.590684 502.012907,489.772064 502.028592,488.654412 L502.028592,486.426471 Z M512.900527,492.852941 L505.418543,492.852941 L505.418543,491.875 L509.371289,487.757353 C509.956884,487.134801 510.360782,486.628678 510.582994,486.238971 C510.805207,485.849263 510.916311,485.446081 510.916311,485.029412 C510.916311,484.470585 510.73593,484.012257 510.375161,483.654412 C510.014393,483.296567 509.533376,483.117647 508.932095,483.117647 C508.210559,483.117647 507.649807,483.310047 507.249825,483.694853 C506.849843,484.079659 506.649855,484.615193 506.649855,485.301471 L505.198946,485.301471 C505.198946,484.316172 505.537488,483.519611 506.214582,482.911765 C506.891676,482.303919 507.797505,482 508.932095,482 C509.993486,482 510.832652,482.261027 511.449618,482.783088 C512.066584,483.30515 512.375063,483.999996 512.375063,484.867647 C512.375063,485.921574 511.658765,487.176463 510.226149,488.632353 L507.167476,491.742647 L512.900527,491.742647 L512.900527,492.852941 Z M522,492.852941 L514.518016,492.852941 L514.518016,491.875 L518.470762,487.757353 C519.056357,487.134801 519.460255,486.628678 519.682467,486.238971 C519.90468,485.849263 520.015784,485.446081 520.015784,485.029412 C520.015784,484.470585 519.835403,484.012257 519.474634,483.654412 C519.113866,483.296567 518.632849,483.117647 518.031568,483.117647 C517.310032,483.117647 516.74928,483.310047 516.349298,483.694853 C515.949316,484.079659 515.749328,484.615193 515.749328,485.301471 L514.298419,485.301471 C514.298419,484.316172 514.636961,483.519611 515.314055,482.911765 C515.991149,482.303919 516.896978,482 518.031568,482 C519.092959,482 519.932125,482.261027 520.549091,482.783088 C521.166057,483.30515 521.474536,483.999996 521.474536,484.867647 C521.474536,485.921574 520.758238,487.176463 519.325622,488.632353 L516.266949,491.742647 L522,491.742647 L522,492.852941 Z" id="2022" fill="#778F9B"></path>
                <path d="M597.802993,492.852941 L590.222489,492.852941 L590.222489,491.875 L594.227283,487.757353 C594.820589,487.134801 595.229805,486.628678 595.454944,486.238971 C595.680082,485.849263 595.79265,485.446081 595.79265,485.029412 C595.79265,484.470585 595.609893,484.012257 595.244374,483.654412 C594.878855,483.296567 594.391504,483.117647 593.782306,483.117647 C593.051269,483.117647 592.483134,483.310047 592.077885,483.694853 C591.672636,484.079659 591.470014,484.615193 591.470014,485.301471 L590,485.301471 C590,484.316172 590.343,483.519611 591.02901,482.911765 C591.71502,482.303919 592.632776,482 593.782306,482 C594.857673,482 595.707889,482.261027 596.332979,482.783088 C596.958069,483.30515 597.27061,483.999996 597.27061,484.867647 C597.27061,485.921574 596.54488,487.176463 595.0934,488.632353 L591.994451,491.742647 L597.802993,491.742647 L597.802993,492.852941 Z M606.696498,488.286765 C606.696498,489.87991 606.402498,491.063722 605.81449,491.838235 C605.226481,492.612749 604.307401,493 603.05722,493 C601.822932,493 600.909149,492.621327 600.315843,491.863971 C599.722537,491.106614 599.415294,489.975498 599.394105,488.470588 L599.394105,486.654412 C599.394105,485.080874 599.688104,483.911769 600.276113,483.147059 C600.864121,482.382349 601.785851,482 603.041328,482 C604.286211,482 605.202643,482.368869 605.790652,483.106618 C606.37866,483.844366 606.680606,484.982835 606.696498,486.522059 L606.696498,488.286765 Z M605.226484,486.426471 C605.226484,485.274504 605.051674,484.435052 604.702047,483.908088 C604.35242,483.381125 603.798853,483.117647 603.041328,483.117647 C602.289101,483.117647 601.740831,483.379899 601.396502,483.904412 C601.052173,484.428924 600.874713,485.235289 600.864118,486.323529 L600.864118,488.5 C600.864118,489.656869 601.045551,490.511027 601.408421,491.0625 C601.771291,491.613973 602.320885,491.889706 603.05722,491.889706 C603.782961,491.889706 604.32196,491.629905 604.674236,491.110294 C605.026511,490.590684 605.210592,489.772064 605.226484,488.654412 L605.226484,486.426471 Z M616.241577,492.852941 L608.661073,492.852941 L608.661073,491.875 L612.665868,487.757353 C613.259173,487.134801 613.668389,486.628678 613.893528,486.238971 C614.118666,485.849263 614.231234,485.446081 614.231234,485.029412 C614.231234,484.470585 614.048477,484.012257 613.682958,483.654412 C613.317439,483.296567 612.830088,483.117647 612.22089,483.117647 C611.489853,483.117647 610.921718,483.310047 610.516469,483.694853 C610.11122,484.079659 609.908598,484.615193 609.908598,485.301471 L608.438584,485.301471 C608.438584,484.316172 608.781584,483.519611 609.467594,482.911765 C610.153604,482.303919 611.07136,482 612.22089,482 C613.296257,482 614.146473,482.261027 614.771563,482.783088 C615.396653,483.30515 615.709194,483.999996 615.709194,484.867647 C615.709194,485.921574 614.983464,487.176463 613.531984,488.632353 L610.433035,491.742647 L616.241577,491.742647 L616.241577,492.852941 Z M620.017844,486.838235 L621.122341,486.838235 C621.816298,486.828431 622.361919,486.659315 622.759222,486.330882 C623.156525,486.002449 623.355174,485.558826 623.355174,485 C623.355174,483.745092 622.679768,483.117647 621.328938,483.117647 C620.693253,483.117647 620.186037,483.285538 619.807275,483.621324 C619.428513,483.95711 619.239134,484.401958 619.239134,484.955882 L617.76912,484.955882 C617.76912,484.107839 618.104174,483.403189 618.774292,482.841912 C619.44441,482.280634 620.29595,482 621.328938,482 C622.420197,482 623.27571,482.267154 623.895503,482.801471 C624.515296,483.335787 624.825188,484.078427 624.825188,485.029412 C624.825188,485.4951 624.662296,485.946076 624.336507,486.382353 C624.010719,486.81863 623.56707,487.144607 623.005549,487.360294 C623.641233,487.54657 624.132558,487.85539 624.479536,488.286765 C624.826514,488.718139 625,489.245095 625,489.867647 C625,490.828436 624.660973,491.590683 623.982909,492.154412 C623.304845,492.71814 622.422846,493 621.336884,493 C620.250922,493 619.367598,492.727944 618.686886,492.183824 C618.006173,491.639703 617.665822,490.921573 617.665822,490.029412 L619.143782,490.029412 C619.143782,490.59314 619.342431,491.044116 619.739734,491.382353 C620.137037,491.72059 620.669415,491.889706 621.336884,491.889706 C622.046732,491.889706 622.589705,491.718139 622.965818,491.375 C623.341932,491.031861 623.529986,490.539219 623.529986,489.897059 C623.529986,489.274507 623.323392,488.79657 622.910196,488.463235 C622.497001,488.1299 621.901055,487.958333 621.122341,487.948529 L620.017844,487.948529 L620.017844,486.838235 Z" id="2023" fill="#778F9B"></path>
                <path d="M702.870482,492.852941 L695.224413,492.852941 L695.224413,491.875 L699.263845,487.757353 C699.862283,487.134801 700.275038,486.628678 700.502124,486.238971 C700.72921,485.849263 700.842751,485.446081 700.842751,485.029412 C700.842751,484.470585 700.658413,484.012257 700.289733,483.654412 C699.921053,483.296567 699.429487,483.117647 698.81502,483.117647 C698.077659,483.117647 697.504611,483.310047 697.095856,483.694853 C696.687102,484.079659 696.482728,484.615193 696.482728,485.301471 L695,485.301471 C695,484.316172 695.345966,483.519611 696.03791,482.911765 C696.729853,482.303919 697.655547,482 698.81502,482 C699.899688,482 700.757257,482.261027 701.387753,482.783088 C702.01825,483.30515 702.333494,483.999996 702.333494,484.867647 C702.333494,485.921574 701.601487,487.176463 700.137453,488.632353 L697.011702,491.742647 L702.870482,491.742647 L702.870482,492.852941 Z M711.840907,488.286765 C711.840907,489.87991 711.544365,491.063722 710.95127,491.838235 C710.358176,492.612749 709.431146,493 708.170153,493 C706.925189,493 706.003503,492.621327 705.405065,491.863971 C704.806628,491.106614 704.496727,489.975498 704.475355,488.470588 L704.475355,486.654412 C704.475355,485.080874 704.771897,483.911769 705.364992,483.147059 C705.958086,482.382349 706.887787,482 708.154124,482 C709.409774,482 710.334132,482.368869 710.927226,483.106618 C711.52032,483.844366 711.824878,484.982835 711.840907,486.522059 L711.840907,488.286765 Z M710.358179,486.426471 C710.358179,485.274504 710.181856,484.435052 709.829206,483.908088 C709.476555,483.381125 708.9182,483.117647 708.154124,483.117647 C707.39539,483.117647 706.842378,483.379899 706.495071,483.904412 C706.147763,484.428924 705.968769,485.235289 705.958083,486.323529 L705.958083,488.5 C705.958083,489.656869 706.141084,490.511027 706.507093,491.0625 C706.873102,491.613973 707.427449,491.889706 708.170153,491.889706 C708.90217,491.889706 709.445832,491.629905 709.801154,491.110294 C710.156476,490.590684 710.342149,489.772064 710.358179,488.654412 L710.358179,486.426471 Z M721.468542,492.852941 L713.822473,492.852941 L713.822473,491.875 L717.861906,487.757353 C718.460343,487.134801 718.873099,486.628678 719.100184,486.238971 C719.32727,485.849263 719.440811,485.446081 719.440811,485.029412 C719.440811,484.470585 719.256474,484.012257 718.887794,483.654412 C718.519113,483.296567 718.027547,483.117647 717.41308,483.117647 C716.67572,483.117647 716.102671,483.310047 715.693917,483.694853 C715.285163,484.079659 715.080789,484.615193 715.080789,485.301471 L713.59806,485.301471 C713.59806,484.316172 713.944027,483.519611 714.63597,482.911765 C715.327913,482.303919 716.253608,482 717.41308,482 C718.497748,482 719.355317,482.261027 719.985814,482.783088 C720.61631,483.30515 720.931554,483.999996 720.931554,484.867647 C720.931554,485.921574 720.199548,487.176463 718.735513,488.632353 L715.609762,491.742647 L721.468542,491.742647 L721.468542,492.852941 Z M729.381021,489.257353 L731,489.257353 L731,490.367647 L729.381021,490.367647 L729.381021,492.852941 L727.890278,492.852941 L727.890278,490.367647 L722.576501,490.367647 L722.576501,489.566176 L727.802116,482.147059 L729.381021,482.147059 L729.381021,489.257353 Z M724.259598,489.257353 L727.890278,489.257353 L727.890278,484.007353 L727.713954,484.301471 L724.259598,489.257353 Z" id="2024" fill="#778F9B"></path>
                <path d="M805.71195,492.852941 L798.219893,492.852941 L798.219893,491.875 L802.17796,487.757353 C802.764344,487.134801 803.168785,486.628678 803.391297,486.238971 C803.613808,485.849263 803.725062,485.446081 803.725062,485.029412 C803.725062,484.470585 803.544438,484.012257 803.183184,483.654412 C802.82193,483.296567 802.340265,483.117647 801.738175,483.117647 C801.015667,483.117647 800.454161,483.310047 800.05364,483.694853 C799.65312,484.079659 799.452862,484.615193 799.452862,485.301471 L798,485.301471 C798,484.316172 798.338998,483.519611 799.017004,482.911765 C799.695009,482.303919 800.602057,482 801.738175,482 C802.800995,482 803.641291,482.261027 804.259087,482.783088 C804.876884,483.30515 805.185778,483.999996 805.185778,484.867647 C805.185778,485.921574 804.468516,487.176463 803.033971,488.632353 L799.971181,491.742647 L805.71195,491.742647 L805.71195,492.852941 Z M814.501687,488.286765 C814.501687,489.87991 814.211118,491.063722 813.62997,491.838235 C813.048822,492.612749 812.140465,493 810.904872,493 C809.684985,493 808.781863,492.621327 808.19548,491.863971 C807.609097,491.106614 807.305438,489.975498 807.284496,488.470588 L807.284496,486.654412 C807.284496,485.080874 807.575066,483.911769 808.156214,483.147059 C808.737361,482.382349 809.648336,482 810.889165,482 C812.119523,482 813.025262,482.368869 813.60641,483.106618 C814.187558,483.844366 814.485981,484.982835 814.501687,486.522059 L814.501687,488.286765 Z M813.048825,486.426471 C813.048825,485.274504 812.876054,484.435052 812.530507,483.908088 C812.184959,483.381125 811.637851,483.117647 810.889165,483.117647 C810.145715,483.117647 809.603842,483.379899 809.26353,483.904412 C808.923218,484.428924 808.74783,485.235289 808.737358,486.323529 L808.737358,488.5 C808.737358,489.656869 808.916674,490.511027 809.27531,491.0625 C809.633946,491.613973 810.177128,491.889706 810.904872,491.889706 C811.622144,491.889706 812.154855,491.629905 812.50302,491.110294 C812.851185,490.590684 813.033118,489.772064 813.048825,488.654412 L813.048825,486.426471 Z M823.935396,492.852941 L816.443339,492.852941 L816.443339,491.875 L820.401407,487.757353 C820.987791,487.134801 821.392232,486.628678 821.614744,486.238971 C821.837255,485.849263 821.948509,485.446081 821.948509,485.029412 C821.948509,484.470585 821.767885,484.012257 821.406631,483.654412 C821.045377,483.296567 820.563712,483.117647 819.961622,483.117647 C819.239114,483.117647 818.677608,483.310047 818.277087,483.694853 C817.876566,484.079659 817.676309,484.615193 817.676309,485.301471 L816.223447,485.301471 C816.223447,484.316172 816.562445,483.519611 817.24045,482.911765 C817.918456,482.303919 818.825504,482 819.961622,482 C821.024442,482 821.864737,482.261027 822.482534,482.783088 C823.100331,483.30515 823.409225,483.999996 823.409225,484.867647 C823.409225,485.921574 822.691963,487.176463 821.257418,488.632353 L818.194627,491.742647 L823.935396,491.742647 L823.935396,492.852941 Z M826.222594,487.485294 L826.803739,482.147059 L832.662308,482.147059 L832.662308,483.404412 L828.036709,483.404412 L827.691163,486.323529 C828.251369,486.014704 828.88748,485.860294 829.599517,485.860294 C830.641395,485.860294 831.468602,486.182595 832.081163,486.827206 C832.693724,487.471817 833,488.343132 833,489.441176 C833,490.544123 832.681944,491.412987 832.045823,492.047794 C831.409702,492.682601 830.520978,493 829.379624,493 C828.36916,493 827.544571,492.737748 826.905832,492.213235 C826.267093,491.688723 825.903227,490.96324 825.814222,490.036765 L827.188551,490.036765 C827.277556,490.649513 827.510535,491.111518 827.887496,491.422794 C828.264456,491.73407 828.761828,491.889706 829.379624,491.889706 C830.055012,491.889706 830.585106,491.674022 830.96992,491.242647 C831.354734,490.811272 831.547138,490.21569 831.547138,489.455882 C831.547138,488.740193 831.339027,488.165443 830.9228,487.731618 C830.506572,487.297792 829.952919,487.080882 829.261825,487.080882 C828.628321,487.080882 828.13095,487.210783 827.769696,487.470588 L827.384884,487.764706 L826.222594,487.485294 Z" id="2025" fill="#778F9B"></path>
                <path d="M60.765968,492.852941 L53.2214329,492.852941 L53.2214329,491.875 L57.207225,487.757353 C57.7977157,487.134801 58.20499,486.628678 58.4290601,486.238971 C58.6531303,485.849263 58.7651636,485.446081 58.7651636,485.029412 C58.7651636,484.470585 58.5832742,484.012257 58.2194897,483.654412 C57.8557053,483.296567 57.3706666,483.117647 56.7643592,483.117647 C56.0367904,483.117647 55.4713513,483.310047 55.0680251,483.694853 C54.6646989,484.079659 54.4630388,484.615193 54.4630388,485.301471 L53,485.301471 C53,484.316172 53.3413723,483.519611 54.0241271,482.911765 C54.706882,482.303919 55.6202836,482 56.7643592,482 C57.8346236,482 58.6808051,482.261027 59.3029292,482.783088 C59.9250534,483.30515 60.2361107,483.999996 60.2361107,484.867647 C60.2361107,485.921574 59.5138249,487.176463 58.0692317,488.632353 L54.9849878,491.742647 L60.765968,491.742647 L60.765968,492.852941 Z M69.6172736,488.286765 C69.6172736,489.87991 69.3246687,491.063722 68.7394503,491.838235 C68.1542319,492.612749 67.2395123,493 65.995264,493 C64.7668325,493 63.8573851,492.621327 63.2668944,491.863971 C62.6764037,491.106614 62.3706185,489.975498 62.3495296,488.470588 L62.3495296,486.654412 C62.3495296,485.080874 62.6421344,483.911769 63.2273528,483.147059 C63.8125713,482.382349 64.729927,482 65.9794474,482 C67.2184234,482 68.1305069,482.368869 68.7157254,483.106618 C69.3009438,483.844366 69.6014569,484.982835 69.6172736,486.522059 L69.6172736,488.286765 Z M68.1542348,486.426471 C68.1542348,485.274504 67.9802535,484.435052 67.6322858,483.908088 C67.2843181,483.381125 66.7333775,483.117647 65.9794474,483.117647 C65.2307896,483.117647 64.6851211,483.379899 64.3424256,483.904412 C63.9997302,484.428924 63.8231128,485.235289 63.8125683,486.323529 L63.8125683,488.5 C63.8125683,489.656869 63.9931398,490.511027 64.3542881,491.0625 C64.7154364,491.613973 65.2624229,491.889706 65.995264,491.889706 C66.7175607,491.889706 67.2540029,491.629905 67.6046067,491.110294 C67.9552106,490.590684 68.1384181,489.772064 68.1542348,488.654412 L68.1542348,486.426471 Z M76.3807832,492.852941 L74.9098361,492.852941 L74.9098361,483.786765 L71.9600336,484.794118 L71.9600336,483.558824 L76.151442,482.095588 L76.3807832,482.095588 L76.3807832,492.852941 Z M87.7311172,484.941176 C87.7311172,485.475493 87.5795426,485.950978 87.2763889,486.367647 C86.9732352,486.784316 86.5633249,487.110293 86.0466455,487.345588 C86.6476807,487.585786 87.123493,487.936272 87.4740969,488.397059 C87.8247007,488.857845 88,489.379899 88,489.963235 C88,490.889711 87.6638999,491.627448 86.9916895,492.176471 C86.3194791,492.725493 85.4350744,493 84.3384489,493 C83.2312789,493 82.3442381,492.724267 81.6773,492.172794 C81.0103618,491.621321 80.6768978,490.884809 80.6768978,489.963235 C80.6768978,489.384801 80.8469249,488.862747 81.1869843,488.397059 C81.5270436,487.93137 81.9975838,487.578433 82.598619,487.338235 C82.0872119,487.10294 81.6838917,486.776963 81.3886464,486.360294 C81.093401,485.943625 80.9457806,485.470591 80.9457806,484.941176 C80.9457806,484.039211 81.256838,483.323532 81.8789621,482.794118 C82.5010862,482.264703 83.3209069,482 84.3384489,482 C85.3507186,482 86.1692213,482.264703 86.7939815,482.794118 C87.4187418,483.323532 87.7311172,484.039211 87.7311172,484.941176 Z M86.5369612,489.933824 C86.5369612,489.335781 86.3326651,488.848041 85.9240666,488.470588 C85.5154681,488.093135 84.981662,487.904412 84.3226322,487.904412 C83.6636025,487.904412 83.1350685,488.090684 82.7370145,488.463235 C82.3389606,488.835786 82.1399365,489.325977 82.1399365,489.933824 C82.1399365,490.54167 82.3336884,491.019606 82.7211979,491.367647 C83.1087074,491.715688 83.6477857,491.889706 84.3384489,491.889706 C85.0238398,491.889706 85.5616001,491.714463 85.9517457,491.363971 C86.3418913,491.013479 86.5369612,490.536768 86.5369612,489.933824 Z M84.3384489,483.117647 C83.7637749,483.117647 83.2985069,483.283087 82.9426308,483.613971 C82.5867547,483.944855 82.4088194,484.394605 82.4088194,484.963235 C82.4088194,485.507356 82.5841186,485.947302 82.9347225,486.283088 C83.2853263,486.618874 83.7532304,486.786765 84.3384489,486.786765 C84.9236673,486.786765 85.3915714,486.618874 85.7421753,486.283088 C86.0927791,485.947302 86.2680784,485.507356 86.2680784,484.963235 C86.2680784,484.419115 86.0861889,483.975492 85.7224045,483.632353 C85.3586201,483.289214 84.8973061,483.117647 84.3384489,483.117647 Z" id="2018" fill="#778F9B"></path>
                <path d="M165.804765,492.852941 L158.222539,492.852941 L158.222539,491.875 L162.228243,487.757353 C162.821684,487.134801 163.230993,486.628678 163.456183,486.238971 C163.681372,485.849263 163.793965,485.446081 163.793965,485.029412 C163.793965,484.470585 163.611167,484.012257 163.245565,483.654412 C162.879963,483.296567 162.392502,483.117647 161.783165,483.117647 C161.051962,483.117647 160.483698,483.310047 160.078356,483.694853 C159.673015,484.079659 159.470348,484.615193 159.470348,485.301471 L158,485.301471 C158,484.316172 158.343078,483.519611 159.029243,482.911765 C159.715409,482.303919 160.633374,482 161.783165,482 C162.858776,482 163.709185,482.261027 164.334417,482.783088 C164.959649,483.30515 165.272261,483.999996 165.272261,484.867647 C165.272261,485.921574 164.546367,487.176463 163.094556,488.632353 L159.994904,491.742647 L165.804765,491.742647 L165.804765,492.852941 Z M174.70029,488.286765 C174.70029,489.87991 174.406223,491.063722 173.818081,491.838235 C173.229939,492.612749 172.31065,493 171.060185,493 C169.825617,493 168.911626,492.621327 168.318186,491.863971 C167.724745,491.106614 167.417432,489.975498 167.396238,488.470588 L167.396238,486.654412 C167.396238,485.080874 167.690304,483.911769 168.278446,483.147059 C168.866588,482.382349 169.788527,482 171.04429,482 C172.289455,482 173.206096,482.368869 173.794238,483.106618 C174.38238,483.844366 174.684394,484.982835 174.70029,486.522059 L174.70029,488.286765 Z M173.229942,486.426471 C173.229942,485.274504 173.055092,484.435052 172.705385,483.908088 C172.355679,483.381125 171.801986,483.117647 171.04429,483.117647 C170.291892,483.117647 169.743497,483.379899 169.39909,483.904412 C169.054682,484.428924 168.877183,485.235289 168.866586,486.323529 L168.866586,488.5 C168.866586,489.656869 169.048059,490.511027 169.411012,491.0625 C169.773964,491.613973 170.323683,491.889706 171.060185,491.889706 C171.786091,491.889706 172.325213,491.629905 172.677568,491.110294 C173.029923,490.590684 173.214046,489.772064 173.229942,488.654412 L173.229942,486.426471 Z M181.497588,492.852941 L180.019293,492.852941 L180.019293,483.786765 L177.054754,484.794118 L177.054754,483.558824 L181.267101,482.095588 L181.497588,482.095588 L181.497588,492.852941 Z M191.521704,488.147059 C191.214387,488.485296 190.847466,488.757352 190.42093,488.963235 C189.994395,489.169119 189.526803,489.272059 189.018139,489.272059 C188.350518,489.272059 187.769008,489.1201 187.273591,488.816176 C186.778174,488.512253 186.395358,488.084562 186.125131,487.533088 C185.854903,486.981615 185.719791,486.372552 185.719791,485.705882 C185.719791,484.990192 185.866825,484.345591 186.160896,483.772059 C186.454967,483.198527 186.872224,482.759805 187.412678,482.455882 C187.953133,482.151959 188.583654,482 189.304261,482 C190.448754,482 191.350823,482.395829 192.010496,483.1875 C192.670169,483.979171 193,485.058817 193,486.426471 L193,486.823529 C193,488.906873 192.554926,490.427691 191.664765,491.386029 C190.774604,492.344368 189.431435,492.835784 187.635217,492.860294 L187.349096,492.860294 L187.349096,491.713235 L187.659061,491.713235 C188.872435,491.693627 189.804971,491.400738 190.456696,490.834559 C191.108421,490.26838 191.46342,489.372555 191.521704,488.147059 Z M189.256574,488.147059 C189.749342,488.147059 190.203688,488.007354 190.619626,487.727941 C191.035564,487.448528 191.338903,487.102943 191.529652,486.691176 L191.529652,486.147059 C191.529652,485.254897 191.320362,484.529415 190.901774,483.970588 C190.483186,483.411762 189.953337,483.132353 189.312209,483.132353 C188.665782,483.132353 188.14653,483.361517 187.754435,483.819853 C187.36234,484.278189 187.166296,484.882349 187.166296,485.632353 C187.166296,486.362749 187.355717,486.964458 187.734565,487.4375 C188.113414,487.910542 188.620745,488.147059 189.256574,488.147059 Z" id="2019" fill="#778F9B"></path>
                <path d="M272.772993,492.852941 L265.221633,492.852941 L265.221633,491.875 L269.211031,487.757353 C269.802056,487.134801 270.209699,486.628678 270.433971,486.238971 C270.658244,485.849263 270.770379,485.446081 270.770379,485.029412 C270.770379,484.470585 270.588325,484.012257 270.224211,483.654412 C269.860098,483.296567 269.37462,483.117647 268.767765,483.117647 C268.039538,483.117647 267.473587,483.310047 267.069896,483.694853 C266.666205,484.079659 266.464362,484.615193 266.464362,485.301471 L265,485.301471 C265,484.316172 265.341681,483.519611 266.025054,482.911765 C266.708426,482.303919 267.622654,482 268.767765,482 C269.838997,482 270.685944,482.261027 271.308631,482.783088 C271.931318,483.30515 272.242657,483.999996 272.242657,484.867647 C272.242657,485.921574 271.519718,487.176463 270.073817,488.632353 L266.986783,491.742647 L272.772993,491.742647 L272.772993,492.852941 Z M281.632306,488.286765 C281.632306,489.87991 281.339436,491.063722 280.753689,491.838235 C280.167941,492.612749 279.252394,493 278.00702,493 C276.777477,493 275.867207,492.621327 275.276182,491.863971 C274.685157,491.106614 274.379095,489.975498 274.357987,488.470588 L274.357987,486.654412 C274.357987,485.080874 274.650857,483.911769 275.236605,483.147059 C275.822353,482.382349 276.740538,482 277.991189,482 C279.231286,482 280.144194,482.368869 280.729942,483.106618 C281.31569,483.844366 281.616475,484.982835 281.632306,486.522059 L281.632306,488.286765 Z M280.167944,486.426471 C280.167944,485.274504 279.993805,484.435052 279.645523,483.908088 C279.29724,483.381125 278.745801,483.117647 277.991189,483.117647 C277.241854,483.117647 276.695692,483.379899 276.352686,483.904412 C276.009681,484.428924 275.832904,485.235289 275.82235,486.323529 L275.82235,488.5 C275.82235,489.656869 276.003084,490.511027 276.364559,491.0625 C276.726035,491.613973 277.273516,491.889706 278.00702,491.889706 C278.72997,491.889706 279.266897,491.629905 279.617818,491.110294 C279.968739,490.590684 280.152113,489.772064 280.167944,488.654412 L280.167944,486.426471 Z M291.140687,492.852941 L283.589327,492.852941 L283.589327,491.875 L287.578725,487.757353 C288.16975,487.134801 288.577393,486.628678 288.801665,486.238971 C289.025938,485.849263 289.138073,485.446081 289.138073,485.029412 C289.138073,484.470585 288.956019,484.012257 288.591905,483.654412 C288.227792,483.296567 287.742314,483.117647 287.135459,483.117647 C286.407232,483.117647 285.841281,483.310047 285.43759,483.694853 C285.033899,484.079659 284.832056,484.615193 284.832056,485.301471 L283.367694,485.301471 C283.367694,484.316172 283.709375,483.519611 284.392748,482.911765 C285.07612,482.303919 285.990348,482 287.135459,482 C288.206691,482 289.053638,482.261027 289.676325,482.783088 C290.299012,483.30515 290.610351,483.999996 290.610351,484.867647 C290.610351,485.921574 289.887412,487.176463 288.441511,488.632353 L285.354477,491.742647 L291.140687,491.742647 L291.140687,492.852941 Z M300,488.286765 C300,489.87991 299.70713,491.063722 299.121383,491.838235 C298.535635,492.612749 297.620088,493 296.374714,493 C295.145171,493 294.234901,492.621327 293.643876,491.863971 C293.052851,491.106614 292.746789,489.975498 292.725681,488.470588 L292.725681,486.654412 C292.725681,485.080874 293.018551,483.911769 293.604299,483.147059 C294.190047,482.382349 295.108232,482 296.358883,482 C297.59898,482 298.511888,482.368869 299.097636,483.106618 C299.683384,483.844366 299.984169,484.982835 300,486.522059 L300,488.286765 Z M298.535638,486.426471 C298.535638,485.274504 298.361499,484.435052 298.013217,483.908088 C297.664934,483.381125 297.113495,483.117647 296.358883,483.117647 C295.609548,483.117647 295.063386,483.379899 294.72038,483.904412 C294.377375,484.428924 294.200598,485.235289 294.190044,486.323529 L294.190044,488.5 C294.190044,489.656869 294.370778,490.511027 294.732254,491.0625 C295.093729,491.613973 295.64121,491.889706 296.374714,491.889706 C297.097664,491.889706 297.634591,491.629905 297.985512,491.110294 C298.336433,490.590684 298.519807,489.772064 298.535638,488.654412 L298.535638,486.426471 Z" id="2020" fill="#778F9B"></path>
                <path d="M379.871801,492.852941 L372.224451,492.852941 L372.224451,491.875 L376.26456,487.757353 C376.863098,487.134801 377.275922,486.628678 377.503046,486.238971 C377.73017,485.849263 377.84373,485.446081 377.84373,485.029412 C377.84373,484.470585 377.659362,484.012257 377.29062,483.654412 C376.921878,483.296567 376.430229,483.117647 375.815659,483.117647 C375.078175,483.117647 374.50503,483.310047 374.096208,483.694853 C373.687385,484.079659 373.482977,484.615193 373.482977,485.301471 L372,485.301471 C372,484.316172 372.346024,483.519611 373.038084,482.911765 C373.730143,482.303919 374.655992,482 375.815659,482 C376.900509,482 377.758222,482.261027 378.388824,482.783088 C379.019426,483.30515 379.334723,483.999996 379.334723,484.867647 C379.334723,485.921574 378.602594,487.176463 377.138314,488.632353 L374.012039,491.742647 L379.871801,491.742647 L379.871801,492.852941 Z M388.84373,488.286765 C388.84373,489.87991 388.547138,491.063722 387.953944,491.838235 C387.36075,492.612749 386.433565,493 385.172361,493 C383.927188,493 383.005347,492.621327 382.406809,491.863971 C381.808272,491.106614 381.498319,489.975498 381.476943,488.470588 L381.476943,486.654412 C381.476943,485.080874 381.773535,483.911769 382.366729,483.147059 C382.959923,482.382349 383.88978,482 385.156328,482 C386.412189,482 387.336702,482.368869 387.929896,483.106618 C388.523089,483.844366 388.827698,484.982835 388.84373,486.522059 L388.84373,488.286765 Z M387.360753,486.426471 C387.360753,485.274504 387.184401,484.435052 386.831691,483.908088 C386.478982,483.381125 385.920533,483.117647 385.156328,483.117647 C384.397468,483.117647 383.844363,483.379899 383.496998,483.904412 C383.149632,484.428924 382.970608,485.235289 382.95992,486.323529 L382.95992,488.5 C382.95992,489.656869 383.142952,490.511027 383.509022,491.0625 C383.875092,491.613973 384.429532,491.889706 385.172361,491.889706 C385.9045,491.889706 386.448253,491.629905 386.803635,491.110294 C387.159017,490.590684 387.344721,489.772064 387.360753,488.654412 L387.360753,486.426471 Z M398.472978,492.852941 L390.825628,492.852941 L390.825628,491.875 L394.865738,487.757353 C395.464276,487.134801 395.8771,486.628678 396.104224,486.238971 C396.331347,485.849263 396.444908,485.446081 396.444908,485.029412 C396.444908,484.470585 396.260539,484.012257 395.891797,483.654412 C395.523055,483.296567 395.031407,483.117647 394.416837,483.117647 C393.679353,483.117647 393.106208,483.310047 392.697385,483.694853 C392.288563,484.079659 392.084154,484.615193 392.084154,485.301471 L390.601178,485.301471 C390.601178,484.316172 390.947202,483.519611 391.639261,482.911765 C392.331321,482.303919 393.25717,482 394.416837,482 C395.501686,482 396.359399,482.261027 396.990002,482.783088 C397.620604,483.30515 397.9359,483.999996 397.9359,484.867647 C397.9359,485.921574 397.203771,487.176463 395.739492,488.632353 L392.613216,491.742647 L398.472978,491.742647 L398.472978,492.852941 Z M405,492.852941 L403.509007,492.852941 L403.509007,483.786765 L400.519005,484.794118 L400.519005,483.558824 L404.767533,482.095588 L405,482.095588 L405,492.852941 Z" id="2021" fill="#778F9B"></path>
                <path d="M50,8 C58.7089549,310.666667 316.375622,462 823,462" id="Path-3"></path>
                <path d="M49,6 C71.9040543,310 329.570721,462 822,462 L49,462" id="Path-5" stroke="#00C1D2" stroke-width="2" fill="url(#linearGradient-1)" stroke-linecap="round" stroke-linejoin="round"></path>
            </g>
        </g>
    </g>
</svg>