<?xml version="1.0" encoding="UTF-8"?>
<svg width="40px" height="40px" viewBox="0 0 40 40" version="1.1" xmlns="http://www.w3.org/2000/svg" xmlns:xlink="http://www.w3.org/1999/xlink">
    <!-- Generator: Sketch 50.2 (55047) - http://www.bohemiancoding.com/sketch -->
    <title>Group 8</title>
    <desc>Created with Sketch.</desc>
    <defs></defs>
    <g id="Page-1" stroke="none" stroke-width="1" fill="none" fill-rule="evenodd">
        <g id="4" transform="translate(-384.000000, -652.000000)">
            <g id="Group-8" transform="translate(384.000000, 652.000000)">
                <rect id="Rectangle-11" fill="#F5D516" fill-rule="nonzero" x="0" y="0" width="40" height="40" rx="4"></rect>
                <path d="M28.975796,12.5193758 L23.6023439,26.5574152 C23.4664336,26.9118355 23.1646329,27.1853881 22.785883,27.2962068 C22.4061337,27.4060272 21.9934062,27.3391366 21.6736174,27.1184975 L16.6509336,23.6292045 L28.1903147,12.7789512 L15.1399313,22.577924 L11.4663568,20.0270962 C11.1305785,19.7934783 10.955694,19.4041151 11.0096583,19.0107585 C11.064622,18.6174018 11.3404399,18.2849456 11.7281839,18.1431775 L28.4501431,12.0261824 C28.5990448,11.9712723 28.7659346,12.0042184 28.87886,12.1110436 C28.9917855,12.2168706 29.0297604,12.3776077 28.975796,12.5193758 L28.975796,12.5193758 Z M16.3551289,27.8662744 C16.1082919,28.0180262 15.7974971,28.041987 15.5286746,27.9311683 C15.2588528,27.8193511 15.0659801,27.58773 15.0120157,27.3101839 L14.2994862,23.5892699 L14.2685066,23.426536 L18.6106397,26.3956797 C18.6456166,26.4436013 17.3484731,27.2552737 16.3551289,27.8662744 L16.3551289,27.8662744 Z" id="Shape" fill="#FFFFFF"></path>
            </g>
        </g>
    </g>
</svg>