<?xml version="1.0" encoding="UTF-8"?>
<svg width="85px" height="85px" viewBox="0 0 85 85" version="1.1" xmlns="http://www.w3.org/2000/svg" xmlns:xlink="http://www.w3.org/1999/xlink">
    <!-- Generator: Sketch 50.2 (55047) - http://www.bohemiancoding.com/sketch -->
    <title>Group 4</title>
    <desc>Created with Sketch.</desc>
    <defs>
        <linearGradient x1="50%" y1="0%" x2="50%" y2="100%" id="linearGradient-1">
            <stop stop-color="#FF5B62" offset="0%"></stop>
            <stop stop-color="#F95559" offset="100%"></stop>
        </linearGradient>
    </defs>
    <g id="Page-1" stroke="none" stroke-width="1" fill="none" fill-rule="evenodd">
        <g id="Referral-page" transform="translate(-70.000000, -55.000000)">
            <g id="Group-4" transform="translate(70.000000, 55.000000)">
                <circle id="Oval-2" fill="url(#linearGradient-1)" cx="42.5" cy="42.5" r="42.5"></circle>
                <circle id="Oval-2-Copy" fill="#FFFFFF" cx="42.5" cy="42.5" r="38.5"></circle>
                <circle id="Oval-2" fill="url(#linearGradient-1)" cx="42.5" cy="42.5" r="34.5"></circle>
                <path d="M26.3340976,66.7961373 C25.0403023,68.0899326 22.9425884,68.0899326 21.6485565,66.7961373 C20.3547612,65.502342 20.3547612,63.4043915 21.6485565,62.1105962 C22.9425884,60.8168009 25.0403023,60.8168009 26.3340976,62.1105962 C27.6281295,63.4043915 27.6281295,65.502342 26.3340976,66.7961373" id="Fill-4" fill="#F95559" transform="translate(23.991416, 64.453367) rotate(-4.000000) translate(-23.991416, -64.453367) "></path>
                <path d="M22.0309462,66.0999616 C21.0161677,65.0849464 21.0161677,63.4333281 22.0309462,62.4183129 C23.0459614,61.4035343 24.6975798,61.4035343 25.7125949,62.4183129 C26.7276101,63.4333281 26.7276101,65.0849464 25.7125949,66.0999616 C24.6975798,67.1149768 23.0459614,67.1149768 22.0309462,66.0999616 M29.4597972,61.6832611 L39.160777,51.9820446 L36.1486266,48.9698941 L26.4474101,58.6711106 C24.1745712,57.6262769 21.3907933,58.0385306 19.5209786,59.9083453 C17.1220024,62.3073215 17.1217658,66.210953 19.5209786,68.6099292 C21.9199548,71.0091421 25.8235863,71.0091421 28.2225625,68.6099292 C30.0923772,66.7401146 30.504631,63.9563366 29.4597972,61.6832611" id="Fill-6" fill="#FFFFFF" transform="translate(28.441217, 59.689616) rotate(-4.000000) translate(-28.441217, -59.689616) "></path>
                <polygon id="Fill-8" fill="#FFFFFF" transform="translate(51.502094, 32.074524) rotate(-4.000000) translate(-51.502094, -32.074524) " points="66.5627281 17.0138898 36.4414601 26.0503411 40.9594492 42.6171687 57.5262767 47.1351577"></polygon>
                <polygon id="Fill-10" fill="#FFFFFF" transform="translate(45.287863, 39.680970) rotate(-4.000000) translate(-45.287863, -39.680970) " points="38.3434455 46.6256241 37.7574867 26.1262931 31.7331857 53.2356473 58.8425399 47.2113463"></polygon>
                <polygon id="Fill-12" fill="#FFFFFF" opacity="0.100000001" transform="translate(47.831549, 36.466040) rotate(-4.000000) translate(-47.831549, -36.466040) " points="41.8072476 42.4903411 37.2890219 25.9235136 37.8747441 46.4228446 58.3740751 47.0085668"></polygon>
            </g>
        </g>
    </g>
</svg>