<?xml version="1.0" encoding="UTF-8"?>
<svg width="300px" height="290px" viewBox="0 0 300 290" version="1.1" xmlns="http://www.w3.org/2000/svg" xmlns:xlink="http://www.w3.org/1999/xlink">
    <!-- Generator: Sketch 50.2 (55047) - http://www.bohemiancoding.com/sketch -->
    <title>Group</title>
    <desc>Created with Sketch.</desc>
    <defs></defs>
    <g id="Page-1" stroke="none" stroke-width="1" fill="none" fill-rule="evenodd">
        <g id="Artboard-Copy-2" transform="translate(-895.000000, -216.000000)">
            <g id="Group-3" transform="translate(245.000000, 216.000000)">
                <g id="Group" transform="translate(650.000000, 0.000000)">
                    <path d="M293.267,86.628 L46.985,86.628 C52.797,70.505 61.68,55.854 72.942,43.379 C96.882,16.83 131.55,0.145 170.126,0.145 C208.702,0.145 243.37,16.83 267.31,43.379 C278.572,55.854 287.455,70.505 293.267,86.628" id="Fill-1" fill="#0A0B09"></path>
                    <path d="M105.05,244.564 C104.219,259.766 99.204,277.772 95.372,289.081 L53.684,288.587 C59.455,274.704 62.202,256.892 63.347,239.842 C54.358,250.305 42.541,260.289 34.293,266.568 L0,242.851 C19.639,229.888 38.515,204.786 51.141,185.566 C54.703,193.327 59.006,200.685 63.961,207.54 C67.381,212.285 71.123,216.791 75.135,221.026 C83.884,230.247 93.958,238.195 105.05,244.564" id="Fill-2" fill="#F95559"></path>
                    <path d="M300,147.225 C292.015,211.844 236.907,261.868 170.125,261.868 C146.437,261.868 124.217,255.574 105.05,244.564 C93.958,238.195 83.884,230.247 75.135,221.026 C71.123,216.791 67.381,212.285 63.961,207.54 C59.006,200.685 54.703,193.327 51.141,185.566 C45.661,173.644 41.92,160.756 40.25,147.225 L300,147.225" id="Fill-3" fill="#0A0B09"></path>
                    <path d="M293.267,86.628 L46.985,86.628 C52.797,70.505 61.68,55.854 72.942,43.379 L267.31,43.379 C278.572,55.854 287.455,70.505 293.267,86.628" id="Fill-4" fill="#F95559"></path>
                    <path d="M133.256,116.926 C133.256,125.21 126.54,131.926 118.256,131.926 C109.971,131.926 103.256,125.21 103.256,116.926 C103.256,108.642 109.971,101.926 118.256,101.926 C126.54,101.926 133.256,108.642 133.256,116.926" id="Fill-5" fill="#0A0B09"></path>
                    <path d="M236.994,116.926 C236.994,125.21 230.278,131.926 221.994,131.926 C213.71,131.926 206.994,125.21 206.994,116.926 C206.994,108.642 213.71,101.926 221.994,101.926 C230.278,101.926 236.994,108.642 236.994,116.926" id="Fill-6" fill="#0A0B09"></path>
                </g>
            </g>
        </g>
    </g>
</svg>