<?xml version="1.0" encoding="UTF-8"?>
<svg width="468px" height="251px" viewBox="0 0 468 251" version="1.1" xmlns="http://www.w3.org/2000/svg" xmlns:xlink="http://www.w3.org/1999/xlink">
    <!-- Generator: Sketch 50.2 (55047) - http://www.bohemiancoding.com/sketch -->
    <title>Group 6</title>
    <desc>Created with Sketch.</desc>
    <defs>
        <polygon id="path-1" points="0 0.666461538 148.865961 0.666461538 148.865961 37.5425385 0 37.5425385"></polygon>
        <polygon id="path-3" points="0.32975 0.1767 1.9925 0.1767 1.9925 1.8417 0.32975 1.8417"></polygon>
        <polygon id="path-5" points="0.551245175 0.479 4.72995482 0.479 4.72995482 4.65650482 0.551245175 4.65650482"></polygon>
        <polygon id="path-7" points="0 0.596307692 135.877655 0.596307692 135.877655 33.5906923 0 33.5906923"></polygon>
        <polygon id="path-9" points="0.32975 0.1767 1.9925 0.1767 1.9925 1.8417 0.32975 1.8417"></polygon>
        <polygon id="path-11" points="0.551245175 0.479 4.72995482 0.479 4.72995482 4.65650482 0.551245175 4.65650482"></polygon>
    </defs>
    <g id="Page-1" stroke="none" stroke-width="1" fill="none" fill-rule="evenodd">
        <g id="Group-6">
            <g id="Group" transform="translate(120.000000, 125.500000) scale(-1, 1) translate(-120.000000, -125.500000) ">
                <path d="M143.415442,84.7781779 L142.011392,81.7858422 L140.192181,84.2089678 L116.334857,80 C116.974896,110.664923 87.8704029,146.037054 87.8704029,146.037054 L33,215.542958 L38.3062724,219.772203 L43.6111033,224 L98.4800647,154.494096 C98.4800647,154.494096 126.137262,117.966164 156,111.61071 L143.958899,85.9368751 L144.695521,85.0041238 L143.415442,84.7781779 Z" id="Fill-1" fill="#DBEBFF"></path>
                <path d="M38.4644054,219.054862 L33.2505672,214.672073 L91.0398231,147.431847 C91.0398231,147.431847 121.642533,113.249838 122.041692,82.7432053 L145.994173,87.7354355 L146,87.7267909 L145.133212,85.9056714 L145.876173,84.9778226 L144.584004,84.7545049 L143.165094,81.7778967 L141.325173,84.1882866 L117.216816,80 C117.863629,110.503751 88.4511139,145.69141 88.4511139,145.69141 L33,214.831997 L38.3624304,219.037573 L39.5875877,220 L38.4644054,219.054862 Z" id="Fill-3" fill="#FFFFFF"></path>
                <path d="M154.29842,71.9664259 C167.737918,82.5585439 172.901885,98.3249479 165.834575,107.18091 C158.767264,116.035448 142.143105,114.626868 128.703606,104.033326 C115.262675,93.4412081 110.097275,77.6748042 117.166018,68.8202664 C124.233328,59.9643043 140.858921,61.3728837 154.29842,71.9664259" id="Fill-5" fill="#BACCD9"></path>
                <path d="M157.253913,68.7603761 C170.871881,79.2584464 175.978074,95.0394257 168.658616,104.007527 C161.339158,112.975629 144.364986,111.73641 130.747018,101.23834 C117.127598,90.7416811 112.021405,74.9607018 119.342315,65.9926003 C126.661773,57.0244989 143.634493,58.2637172 157.253913,68.7603761" id="Fill-7" fill="#FFFFFF"></path>
                <path d="M156.298431,68.9660221 C169.737919,79.5596369 174.901882,95.3261489 167.834577,104.180747 C160.765839,113.035346 144.143125,111.626757 130.702203,101.034566 C117.262714,90.4409514 112.097318,74.6744394 119.166056,65.8198409 C126.233361,56.9638182 142.857509,58.3738315 156.298431,68.9660221" id="Fill-9" fill="#DBEBFF"></path>
                <path d="M154.01526,73.1060587 C163.872839,81.2882267 167.82661,93.247235 162.848363,99.8160386 C157.870116,106.384842 145.843474,105.076109 135.984482,96.8939413 C126.128316,88.7117733 122.173132,76.752765 127.151379,70.1839614 C132.131039,63.6151578 144.156268,64.9238907 154.01526,73.1060587" id="Fill-11" fill="#FFFFFF"></path>
                <path d="M153.725084,73.2063672 C163.661357,81.2982391 167.810172,92.9142068 162.991398,99.150978 C158.171175,105.389238 146.210524,103.885505 136.275701,95.7936328 C126.337977,87.7017609 122.190613,76.0857932 127.007936,69.849022 C131.82671,63.610762 143.787361,65.1144953 153.725084,73.2063672" id="Fill-13" fill="#606060"></path>
                <path d="M158.623853,146.248971 L158.357586,143.119876 L155.935131,144.672093 L136.043222,133 C126.50101,160.504708 88.8704841,182.318436 88.8704841,182.318436 L17,225.950245 L20.3370248,231.475848 L23.6754967,237 L95.5459808,193.368191 C95.5459808,193.368191 132.263383,170.045766 161,174.310736 L158.72515,147.460281 L159.69037,146.875661 L158.623853,146.248971 Z" id="Fill-15" fill="#002399"></path>
                <path d="M20.4058456,231.78118 L17.2721796,226.130681 L90.2220802,184.860956 C90.2220802,184.860956 128.383392,164.284997 138.801103,137.052069 L158.192102,149.423533 L158.202182,149.41917 L158.039451,147.499309 L159,146.911716 L157.938643,146.284852 L157.673664,143.147626 L155.262931,144.702422 L135.465823,133 C125.971218,160.576176 88.5227577,182.44804 88.5227577,182.44804 L17,226.193222 L20.3208795,231.731729 L21.0812543,233 L20.4058456,231.78118 Z" id="Fill-17" fill="#002ABB"></path>
                <path d="M170.113574,139.94179 C178.49349,153.776232 177.848991,169.493755 168.673431,175.048914 C159.499298,180.604073 145.267557,173.891411 136.88764,160.058395 C128.506298,146.223953 129.150798,130.50643 138.326357,124.951271 C147.501916,119.396112 161.732231,126.107349 170.113574,139.94179" id="Fill-19" fill="#002363"></path>
                <path d="M174.14913,138.062209 C182.613283,152.109613 181.79812,168.168958 172.325816,173.934111 C162.853511,179.699264 148.315965,172.984591 139.850372,158.937187 C131.38622,144.89123 132.202822,128.830437 141.673687,123.065284 C151.144551,117.301579 165.684977,124.014805 174.14913,138.062209" id="Fill-21" fill="#002ABB"></path>
                <path d="M174.1135,136.94218 C182.493521,150.776939 181.849014,166.493397 172.67334,172.048684 C163.499091,177.603971 149.267171,170.89258 140.88715,157.05782 C132.507129,143.224486 133.15021,127.505177 142.325884,121.951316 C151.501558,116.396029 165.733478,123.10742 174.1135,136.94218" id="Fill-23" fill="#002399"></path>
                <path d="M171.319118,139.125634 C177.789131,149.686991 177.518314,161.550233 170.715329,165.622646 C163.912343,169.693595 153.152172,164.434859 146.682158,153.874964 C140.210665,143.313607 140.481482,131.450365 147.284467,127.377952 C154.087453,123.30554 164.847624,128.565739 171.319118,139.125634" id="Fill-25" fill="#002ABB"></path>
                <path d="M170.368064,139.056521 C176.585726,149.413174 176.537942,160.916185 170.259465,164.751008 C163.982436,168.584372 153.850861,163.297981 147.6332,152.942789 C141.41409,142.586136 141.461873,131.083125 147.740351,127.249762 C154.018828,123.414938 164.148954,128.701329 170.368064,139.056521" id="Fill-27" fill="#00164A"></path>
                <path d="M147.982911,205.453224 L149,202.827627 L146.393077,203.136521 L134.630906,186 C115.925116,204.465614 76.3552866,207.431278 76.3552866,207.431278 L0,214.683198 L0.565530596,220.434573 L1.13250387,226.184532 L77.4877905,218.932613 C77.4877905,218.932613 116.903253,214.396975 138.865172,229 L147.590502,206.469173 L148.613362,206.372821 L147.982911,205.453224 Z" id="Fill-29" fill="#FF2326"></path>
                <g id="Group-33" transform="translate(0.000000, 186.000000)">
                    <mask id="mask-2" fill="white">
                        <use xlink:href="#path-1"></use>
                    </mask>
                    <g id="Clip-32"></g>
                    <path d="M0.616187937,36.2607692 L0.248637238,30.3123077 L76.7409826,25.46 C76.7409826,25.46 116.355741,23.7616923 135.67017,5.36823077 L146.824973,23.4401538 L146.833622,23.4386923 L147.456296,21.7813077 L148.479672,21.6819231 L147.84835,20.7333846 L148.865961,18.0251538 L146.261396,18.3437692 L134.509863,0.666461538 C115.820991,19.7146923 76.285508,22.7722308 76.285508,22.7722308 L-0.000720687646,30.2538462 L0.565739802,36.1862308 L0.695463578,37.5425385 L0.616187937,36.2607692 Z" id="Fill-31" fill="#FF3D46" mask="url(#mask-2)"></path>
                </g>
                <path d="M161.803949,205.272626 C163.278231,220.153512 156.27834,232.989752 146.170662,233.943729 C136.060036,234.897706 126.670333,223.608261 125.196051,208.727374 C123.721769,193.847926 130.72166,181.010248 140.829338,180.056271 C150.939964,179.102294 160.329667,190.391739 161.803949,205.272626" id="Fill-34" fill="#D0180E"></path>
                <path d="M165.807062,205.234699 C167.289217,220.113868 160.071123,232.96589 149.684182,233.941337 C139.297242,234.915346 129.675093,223.644469 128.192938,208.765301 C126.710783,193.886132 133.928877,181.03411 144.315818,180.058663 C154.702758,179.084654 164.324907,190.355531 165.807062,205.234699" id="Fill-36" fill="#FF3D46"></path>
                <path d="M165.803949,205.272626 C167.278231,220.153512 160.27834,232.989752 150.170662,233.943729 C140.060036,234.897706 130.670333,223.608261 129.196051,208.727374 C127.721769,193.847926 134.72166,181.010248 144.829338,180.056271 C154.939964,179.102294 164.329667,190.391739 165.803949,205.272626" id="Fill-38" fill="#FF2326"></path>
                <path d="M162.845097,206.240458 C163.96446,217.539654 158.897235,227.264335 151.52659,227.960529 C144.155944,228.656723 137.272763,220.060052 136.154904,208.759387 C135.035541,197.460191 140.102766,187.73551 147.471907,187.039316 C154.844057,186.344591 161.725734,194.939794 162.845097,206.240458" id="Fill-40" fill="#FF3D46"></path>
                <path d="M161.844623,205.81968 C162.923328,216.845932 158.270583,226.31243 151.45305,226.964638 C144.634041,227.615386 138.232642,219.20672 137.155413,208.180468 C136.076708,197.154216 140.727978,187.687718 147.548462,187.03551 C154.365996,186.383303 160.767394,194.793428 161.844623,205.81968" id="Fill-42" fill="#AE0512"></path>
                <polygon id="Fill-44" fill="#FFCC18" points="161 141 168.235982 129 188 129"></polygon>
                <polygon id="Fill-46" fill="#00164A" points="176 162.862833 191.291333 156 211 170"></polygon>
                <polygon id="Fill-48" fill="#FFCC18" points="202.035468 100 197 114 208 106.999279"></polygon>
                <polygon id="Fill-50" fill="#DBEBFF" points="207.662982 142 204 153 212 147.500743"></polygon>
                <polygon id="Fill-52" fill="#FF2326" points="188 147.41295 200.043044 154 202 146"></polygon>
                <polygon id="Fill-54" fill="#FF2326" points="148 134 158 125.788233 151.454342 121"></polygon>
                <path d="M200,135.500738 C200,136.881016 201.12013,138 202.5,138 C203.881346,138 205,136.881016 205,135.500738 C205,134.118984 203.881346,133 202.5,133 C201.12013,133 200,134.118984 200,135.500738" id="Fill-56" fill="#002399"></path>
                <path d="M170,115.500738 C170,116.881016 171.12013,118 172.5,118 C173.881346,118 175,116.881016 175,115.500738 C175,114.118984 173.881346,113 172.5,113 C171.12013,113 170,114.118984 170,115.500738" id="Fill-58" fill="#002399"></path>
                <path d="M215,117.499262 C215,118.881016 216.12013,120 217.5,120 C218.881346,120 220,118.881016 220,117.499262 C220,116.118984 218.881346,115 217.5,115 C216.12013,115 215,116.118984 215,117.499262" id="Fill-60" fill="#FF2326"></path>
                <path d="M195,126.5 C195,127.881346 196.118654,129 197.498524,129 C198.87987,129 200,127.881346 200,126.5 C200,125.118654 198.87987,124 197.498524,124 C196.118654,124 195,125.118654 195,126.5" id="Fill-62" fill="#FF2326"></path>
                <path d="M229,131 C229,131.551351 229.44725,132 230.000902,132 C230.55275,132 231,131.551351 231,131 C231,130.446847 230.55275,130 230.000902,130 C229.44725,130 229,130.446847 229,131" id="Fill-64" fill="#FF2326"></path>
                <g id="Group-68" transform="translate(238.000000, 106.000000)">
                    <mask id="mask-4" fill="white">
                        <use xlink:href="#path-3"></use>
                    </mask>
                    <g id="Clip-67"></g>
                    <path d="M0.32975,1.0092 C0.32975,1.4682 0.70175,1.8417 1.16225,1.8417 C1.61975,1.8417 1.99325,1.4682 1.99325,1.0092 C1.99325,0.5487 1.61975,0.1767 1.16225,0.1767 C0.70175,0.1767 0.32975,0.5487 0.32975,1.0092" id="Fill-66" fill="#FF2326" mask="url(#mask-4)"></path>
                </g>
                <path d="M190,137 C190,137.553153 190.449053,138 191.000902,138 C191.55275,138 192,137.553153 192,137 C192,136.448649 191.55275,136 191.000902,136 C190.449053,136 190,136.448649 190,137" id="Fill-69" fill="#FFCC18"></path>
                <path d="M181,117.499262 C181,118.881016 182.12013,120 183.5,120 C184.881346,120 186,118.881016 186,117.499262 C186,116.118984 184.881346,115 183.5,115 C182.12013,115 181,116.118984 181,117.499262" id="Fill-71" fill="#DBEBFF"></path>
                <path d="M189,90.5 C189,91.8813459 190.118654,93 191.498524,93 C192.87987,93 194,91.8813459 194,90.5 C194,89.1186541 192.87987,88 191.498524,88 C190.118654,88 189,89.1186541 189,90.5" id="Fill-73" fill="#DBEBFF"></path>
                <path d="M227,86.5 C227,87.8813459 228.12013,89 229.5,89 C230.881346,89 232,87.8813459 232,86.5 C232,85.1186541 230.881346,84 229.5,84 C228.12013,84 227,85.1186541 227,86.5" id="Fill-75" fill="#FFCC18"></path>
                <path d="M162,149.5 C162,150.881346 163.12013,152 164.5,152 C165.881346,152 167,150.881346 167,149.5 C167,148.118654 165.881346,147 164.5,147 C163.12013,147 162,148.118654 162,149.5" id="Fill-77" fill="#FFCC18"></path>
                <path d="M180,139.5 C180,140.881346 181.118654,142 182.498524,142 C183.87987,142 185,140.881346 185,139.5 C185,138.118654 183.87987,137 182.498524,137 C181.118654,137 180,138.118654 180,139.5" id="Fill-79" fill="#FFCC18"></path>
                <path d="M162,126.5 C162,127.881346 163.12013,129 164.5,129 C165.881346,129 167,127.881346 167,126.5 C167,125.118654 165.881346,124 164.5,124 C163.12013,124 162,125.118654 162,126.5" id="Fill-81" fill="#FFCC18"></path>
                <polygon id="Fill-83" fill="#FFCC18" points="145.968829 73 144 61.8484526 156 51"></polygon>
                <polygon id="Fill-85" fill="#00164A" points="168 79 173.870968 66.4662757 194 64"></polygon>
                <polygon id="Fill-87" fill="#FFCC18" points="148 27 152.54931 38 155 28.1621413"></polygon>
                <polygon id="Fill-89" fill="#DBEBFF" points="177 49 180.899534 57 183 49.8459459"></polygon>
                <polygon id="Fill-91" fill="#FF2326" points="167 63 178 60.867429 174.585636 55"></polygon>
                <polygon id="Fill-93" fill="#FF2326" points="133.282398 76 135 65 129 65.8705898"></polygon>
                <path d="M166.510831,49.3337482 C167.247462,50.1566834 168.512516,50.2270566 169.333868,49.4902926 C170.156655,48.7535286 170.227016,47.489684 169.490384,46.6667488 C168.753752,45.8423774 167.490134,45.7734404 166.665911,46.5102044 C165.843123,47.2455322 165.772763,48.510813 166.510831,49.3337482" id="Fill-95" fill="#002399"></path>
                <path d="M137.510831,52.3337482 C138.247462,53.1566834 139.51108,53.2270566 140.333868,52.4902926 C141.156655,51.7535286 141.227016,50.489684 140.490384,49.6667488 C139.753752,48.8423774 138.490134,48.7734404 137.665911,49.5102044 C136.843123,50.2469684 136.772763,51.510813 137.510831,52.3337482" id="Fill-97" fill="#002399"></path>
                <path d="M166.510311,30.3337482 C167.247022,31.1566834 168.512213,31.2270566 169.335089,30.4902926 C170.156529,29.7535286 170.226897,28.489684 169.490186,27.6667488 C168.753475,26.8423774 167.489721,26.7734404 166.665408,27.5102044 C165.842532,28.2469684 165.7736,29.510813 166.510311,30.3337482" id="Fill-99" fill="#FF2326"></path>
                <path d="M158.509616,45.3337482 C159.247684,46.1566834 160.511302,46.2270566 161.334089,45.4902926 C162.156877,44.7535286 162.227237,43.4882478 161.489169,42.6667488 C160.752538,41.8423774 159.490356,41.7734404 158.666132,42.5102044 C157.843345,43.2455322 157.772984,44.510813 158.509616,45.3337482" id="Fill-101" fill="#FF2326"></path>
                <path d="M182.254043,30.6669888 C182.622392,31.0770416 183.256041,31.1143192 183.668242,30.7459294 C184.07825,30.3775397 184.11333,29.7438216 183.744981,29.3337688 C183.376632,28.9215231 182.745175,28.8864384 182.332975,29.2548281 C181.922967,29.6232178 181.885693,30.2569359 182.254043,30.6669888" id="Fill-103" fill="#FF2326"></path>
                <path d="M175.254922,10.6663576 C175.623132,11.0784472 176.25435,11.1135186 176.666394,10.7452684 C177.078439,10.3770181 177.113506,9.74573197 176.745296,9.33364239 C176.377086,8.92155282 175.745869,8.88648137 175.331633,9.25473162 C174.92178,9.62298188 174.886712,10.25646 175.254922,10.6663576" id="Fill-105" fill="#FF2326"></path>
                <path d="M162.254704,56.6669888 C162.622914,57.0770416 163.254131,57.1143192 163.668367,56.7459294 C164.07822,56.3775397 164.113288,55.7460144 163.745078,55.3337688 C163.376868,54.9215231 162.74565,54.8864384 162.333606,55.2548281 C161.921561,55.6232178 161.886494,56.2569359 162.254704,56.6669888" id="Fill-107" fill="#FFCC18"></path>
                <path d="M145.509878,48.3337482 C146.24668,49.1566834 147.512028,49.2270566 148.335006,48.4902926 C149.156548,47.7535286 149.226925,46.489684 148.490122,45.6667488 C147.75332,44.8423774 146.489409,44.7734404 145.664994,45.5102044 C144.843452,46.2469684 144.773075,47.510813 145.509878,48.3337482" id="Fill-109" fill="#DBEBFF"></path>
                <path d="M135.509616,28.3337482 C136.246248,29.1566834 137.511302,29.2270566 138.334089,28.4902926 C139.156877,27.7535286 139.227237,26.4882478 138.489169,25.6667488 C137.752538,24.8423774 136.48892,24.7734404 135.666132,25.5102044 C134.843345,26.2455322 134.772984,27.510813 135.509616,28.3337482" id="Fill-111" fill="#DBEBFF"></path>
                <g id="Group-115" transform="translate(156.000000, 0.000000)">
                    <mask id="mask-6" fill="white">
                        <use xlink:href="#path-5"></use>
                    </mask>
                    <g id="Clip-114"></g>
                    <path d="M1.0836,3.96065 C1.8546,4.82015 3.1746,4.89365 4.0341,4.12415 C4.8936,3.35465 4.9671,2.03315 4.1976,1.17515 C3.4266,0.31415 2.1081,0.24215 1.2471,1.01165 C0.3876,1.77965 0.3141,3.10115 1.0836,3.96065" id="Fill-113" fill="#FFCC18" mask="url(#mask-6)"></path>
                </g>
                <path d="M151.509878,79.3337482 C152.24668,80.1566834 153.512028,80.2270566 154.335006,79.4902926 C155.156548,78.7535286 155.226925,77.489684 154.490122,76.6667488 C153.75332,75.8423774 152.489409,75.7734404 151.664994,76.5102044 C150.843452,77.2469684 150.773075,78.510813 151.509878,79.3337482" id="Fill-116" fill="#FFCC18"></path>
                <path d="M157.509588,63.3337721 C158.247615,64.1566778 159.511163,64.2270484 160.333905,63.4903109 C161.156647,62.7535733 161.227003,61.4883379 160.490412,60.6654322 C159.752385,59.8425265 158.490273,59.773592 157.666095,60.5103296 C156.843353,61.245631 156.772997,62.5108664 157.509588,63.3337721" id="Fill-118" fill="#FFCC18"></path>
                <path d="M137.510311,63.3337482 C138.247022,64.1566834 139.512213,64.2270566 140.335089,63.4902926 C141.156529,62.7535286 141.226897,61.489684 140.490186,60.6667488 C139.753475,59.8423774 138.489721,59.7734404 137.665408,60.5102044 C136.842532,61.2469684 136.7736,62.510813 137.510311,63.3337482" id="Fill-120" fill="#FFCC18"></path>
                <polygon id="Fill-122" fill="#FFCC18" points="164 210.641981 173.629955 209 183 219"></polygon>
                <polygon id="Fill-124" fill="#00164A" points="159 229 169.861774 233.969419 172 251"></polygon>
                <polygon id="Fill-126" fill="#FFCC18" points="205 212 195 215.899585 203.943493 218"></polygon>
                <polygon id="Fill-128" fill="#DBEBFF" points="186 236 179 239.248186 185.259961 241"></polygon>
                <polygon id="Fill-130" fill="#FF2326" points="173 228 174.865401 237 180 234.20655"></polygon>
                <polygon id="Fill-132" fill="#AE0512" points="162 201.282489 171 203 170.286987 197"></polygon>
                <path d="M184.665367,228.509335 C183.843538,229.24555 183.773096,230.51003 184.509387,231.333451 C185.245679,232.156871 186.511966,232.227307 187.333794,231.489414 C188.1573,230.753199 188.226065,229.488719 187.491451,228.665298 C186.753483,227.843554 185.488873,227.773119 184.665367,228.509335" id="Fill-134" fill="#002399"></path>
                <path d="M181.665894,204.50942 C180.842454,205.245759 180.773694,206.510451 181.509927,207.33401 C182.246159,208.157569 183.510667,208.226338 184.334106,207.489999 C185.157546,206.75366 185.226306,205.488969 184.490073,204.66541 C183.753841,203.843528 182.489333,203.773081 181.665894,204.50942" id="Fill-136" fill="#002399"></path>
                <path d="M201.666206,228.509335 C200.8427,229.24555 200.773935,230.51003 201.508549,231.333451 C202.246517,232.156871 203.511127,232.227307 204.334633,231.489414 C205.156462,230.753199 205.226904,229.488719 204.490613,228.665298 C203.754321,227.843554 202.488034,227.773119 201.666206,228.509335" id="Fill-138" fill="#FF2326"></path>
                <path d="M187.666765,221.509335 C186.843397,222.24555 186.772967,223.51003 187.509135,224.333451 C188.246979,225.156871 189.511377,225.227307 190.334745,224.489414 C191.156436,223.753199 191.226866,222.488719 190.490698,221.665298 C189.752854,220.843554 188.488456,220.773119 187.666765,221.509335" id="Fill-140" fill="#FF2326"></path>
                <path d="M201.166002,242.127509 C200.961056,242.311866 200.943123,242.628089 201.127574,242.83293 C201.310745,243.039052 201.62713,243.056975 201.833357,242.872618 C202.039584,242.688261 202.056236,242.372038 201.873066,242.165917 C201.688614,241.961076 201.372229,241.943152 201.166002,242.127509" id="Fill-142" fill="#FF2326"></path>
                <path d="M217.166002,235.127509 C216.961056,235.311866 216.943123,235.628089 217.127574,235.83293 C217.312026,236.039052 217.62713,236.056975 217.833357,235.872618 C218.039584,235.688261 218.056236,235.372038 217.873066,235.165917 C217.688614,234.961076 217.372229,234.943152 217.166002,235.127509" id="Fill-144" fill="#FF2326"></path>
                <path d="M179.166995,224.127382 C178.960966,224.311739 178.94305,224.627962 179.127325,224.834083 C179.3116,225.038924 179.627683,225.056848 179.833713,224.872491 C180.039743,224.688134 180.056379,224.371911 179.872104,224.16707 C179.687829,223.960948 179.371746,223.943025 179.166995,224.127382" id="Fill-146" fill="#FFCC18"></path>
                <path d="M185.666765,210.50942 C184.843397,211.245759 184.772967,212.510451 185.509135,213.33401 C186.246979,214.157569 187.511377,214.226338 188.334745,213.489999 C189.156436,212.75366 189.226866,211.488969 188.490698,210.66541 C187.752854,209.843528 186.488456,209.773081 185.666765,210.50942" id="Fill-148" fill="#DBEBFF"></path>
                <path d="M202.665367,202.509335 C201.843538,203.24555 201.773096,204.51003 202.509387,205.333451 C203.245679,206.156871 204.511966,206.227307 205.333794,205.489414 C206.1573,204.753199 206.226065,203.488719 205.491451,202.665298 C204.753483,201.843554 203.488873,201.773119 202.665367,202.509335" id="Fill-150" fill="#DBEBFF"></path>
                <path d="M223.665255,220.509335 C222.843564,221.24555 222.773134,222.51003 223.509302,223.333451 C224.247146,224.156871 225.511544,224.227307 226.333235,223.489414 C227.156603,222.753199 227.227033,221.488719 226.490865,220.665298 C225.753021,219.843554 224.488623,219.773119 223.665255,220.509335" id="Fill-152" fill="#FFCC18"></path>
                <path d="M158.665255,215.50942 C157.843564,216.245759 157.773134,217.510451 158.509302,218.33401 C159.247146,219.157569 160.511544,219.226338 161.333235,218.489999 C162.156603,217.75366 162.227033,216.488969 161.490865,215.66541 C160.753021,214.843528 159.488623,214.773081 158.665255,215.50942" id="Fill-154" fill="#FFCC18"></path>
                <path d="M172.666206,220.509927 C171.8427,221.246159 171.773935,222.510667 172.508549,223.334106 C173.246517,224.157546 174.511127,224.226306 175.334633,223.490073 C176.156462,222.753841 176.226904,221.489333 175.490613,220.665894 C174.752644,219.842454 173.488034,219.773694 172.666206,220.509927" id="Fill-156" fill="#FFCC18"></path>
                <path d="M171.665894,204.50942 C170.842454,205.245759 170.773694,206.510451 171.509927,207.33401 C172.246159,208.157569 173.510667,208.226338 174.334106,207.489999 C175.157546,206.75366 175.226306,205.488969 174.490073,204.66541 C173.753841,203.843528 172.489333,203.773081 171.665894,204.50942" id="Fill-158" fill="#FFCC18"></path>
            </g>
            <g id="Group-Copy" transform="translate(249.000000, 22.000000)">
                <path d="M131.438577,77.3799964 L130.148677,74.637022 L128.477369,76.8582205 L106.559665,73 C107.147669,101.109513 80.4093946,133.533966 80.4093946,133.533966 L30,197.247712 L34.8748682,201.12452 L39.748412,205 L90.1564822,141.286255 C90.1564822,141.286255 115.565127,107.802317 143,101.976484 L131.93785,78.4421355 L132.614584,77.5871135 L131.438577,77.3799964 Z" id="Fill-1" fill="#DBEBFF"></path>
                <path d="M34.9808297,200.135874 L30.2283932,196.128752 L82.9035556,134.651974 C82.9035556,134.651974 110.798061,103.399852 111.161897,75.5080734 L132.994689,80.0723981 L133,80.0644946 L132.209919,78.399471 L132.887131,77.5511521 L131.709313,77.3469759 L130.415971,74.6255056 L128.738874,76.8292906 L106.764001,73 C107.353574,100.889144 80.5439356,133.060718 80.5439356,133.060718 L30,196.274969 L34.887879,200.120067 L36.0046153,201 L34.9808297,200.135874 Z" id="Fill-3" fill="#FFFFFF"></path>
                <path d="M140.634927,66.2491119 C152.852653,75.9938604 157.547168,90.4989521 151.122341,98.6464371 C144.697513,106.792612 129.584641,105.496719 117.366915,95.75066 C105.147886,86.0059115 100.452068,71.5008198 106.878198,63.3546451 C113.303026,55.20716 128.417201,56.503053 140.634927,66.2491119" id="Fill-5" fill="#BACCD9"></path>
                <path d="M142.570528,63.059546 C154.972606,72.7177707 159.622889,87.2362716 152.956954,95.486925 C146.291019,103.737578 130.832398,102.597497 118.43032,92.9392728 C106.02692,83.2823466 101.376636,68.7638457 108.043894,60.5131923 C114.709829,52.262539 130.167127,53.4026198 142.570528,63.059546" id="Fill-7" fill="#FFFFFF"></path>
                <path d="M141.634937,63.2487403 C153.852654,72.9948659 158.547165,87.500057 152.122343,95.6462876 C145.696217,103.792518 130.584659,102.496616 118.365639,92.751801 C106.147922,83.0056753 101.452107,68.5004843 107.878233,60.3542537 C114.303056,52.2067127 129.415917,53.503925 141.634937,63.2487403" id="Fill-9" fill="#DBEBFF"></path>
                <path d="M140.839116,66.3580525 C149.957376,73.6789397 153.614614,84.379105 149.009736,90.2564555 C144.404857,96.1338061 133.280214,94.9628347 124.160646,87.6419475 C115.043693,80.3210603 111.385148,69.620895 115.990026,63.7435445 C120.596211,57.8661939 131.719548,59.0371653 140.839116,66.3580525" id="Fill-11" fill="#FFFFFF"></path>
                <path d="M139.852575,66.4273005 C148.795221,73.6443754 152.529154,84.0045628 148.192258,89.5670885 C143.854057,95.130942 133.089471,93.7897745 124.148131,86.5726995 C115.20418,79.3556246 111.471552,68.9954372 115.807143,63.4329115 C120.144039,57.869058 130.908625,59.2102255 139.852575,66.4273005" id="Fill-13" fill="#606060"></path>
                <path d="M144.821865,134.102426 L144.577787,131.244117 L142.357204,132.662008 L124.122954,122 C115.375926,147.124493 80.8812771,167.050494 80.8812771,167.050494 L15,206.906474 L18.0589394,211.953899 L21.1192053,217 L87.0004824,177.144021 C87.0004824,177.144021 120.658101,155.839882 147,159.735769 L144.914721,135.20891 L145.799506,134.674882 L144.821865,134.102426 Z" id="Fill-15" fill="#002399"></path>
                <path d="M18.1180277,211.890873 L15.2491785,206.74892 L82.0342988,169.19347 C82.0342988,169.19347 116.970711,150.469348 126.508052,125.687383 L144.260375,136.945415 L144.269604,136.941444 L144.120624,135.194371 L145,134.659661 L144.028336,134.089215 L143.785749,131.234339 L141.578739,132.649204 L123.454627,122 C114.762383,147.09432 80.478581,166.997717 80.478581,166.997717 L15,206.805832 L18.0402418,211.845873 L18.7363596,213 L18.1180277,211.890873 Z" id="Fill-17" fill="#002ABB"></path>
                <path d="M155.636811,127.686843 C163.271846,140.496511 162.684636,155.049773 154.324682,160.193439 C145.966027,165.337105 132.999329,159.121677 125.364295,146.313328 C117.727961,133.50366 118.315171,118.950398 126.675125,113.806733 C135.035079,108.663067 148.000478,114.877175 155.636811,127.686843" id="Fill-19" fill="#002363"></path>
                <path d="M159.657901,125.511099 C167.386041,138.281466 166.641762,152.880871 157.993136,158.121919 C149.34451,163.362967 136.071099,157.258719 128.341644,144.488351 C120.613505,131.7193 121.359099,117.118579 130.006409,111.877531 C138.65372,106.637799 151.929762,112.740732 159.657901,125.511099" id="Fill-21" fill="#002ABB"></path>
                <path d="M158.636744,124.687203 C166.271875,137.497166 165.684657,152.049442 157.324598,157.193226 C148.965839,162.33701 135.998978,156.122759 128.363848,143.312797 C120.728717,130.504154 121.314636,115.949238 129.674695,110.806774 C138.034753,105.66299 151.001614,111.877241 158.636744,124.687203" id="Fill-23" fill="#002399"></path>
                <path d="M156.732137,125.845084 C162.631267,135.376065 162.384345,146.081918 156.181623,149.757022 C149.978901,153.430806 140.168157,148.685116 134.269027,139.155455 C128.368547,129.624475 128.615469,118.918622 134.818191,115.243518 C141.020913,111.568414 150.831657,116.315423 156.732137,125.845084" id="Fill-25" fill="#002ABB"></path>
                <path d="M155.802308,126.750869 C161.437064,136.071856 161.39376,146.424566 155.70389,149.875908 C150.015332,153.325935 140.833593,148.568183 135.198837,139.24851 C129.562769,129.927522 129.606073,119.574813 135.295943,116.124786 C140.985813,112.673444 150.16624,117.431196 155.802308,126.750869" id="Fill-27" fill="#00164A"></path>
                <path d="M135.07165,187.096023 L136,184.653607 L133.620527,184.94095 L122.884586,169 C105.810844,186.177316 69.693416,188.936073 69.693416,188.936073 L0,195.682044 L0.516189001,201.032161 L1.03369481,206.38096 L70.7271108,199.634989 C70.7271108,199.634989 106.703641,195.415791 126.749419,209 L134.713478,188.041091 L135.647095,187.951461 L135.07165,187.096023 Z" id="Fill-29" fill="#FF2326"></path>
                <g id="Group-33" transform="translate(0.000000, 169.000000)">
                    <mask id="mask-8" fill="white">
                        <use xlink:href="#path-7"></use>
                    </mask>
                    <g id="Clip-32"></g>
                    <path d="M0.562426573,32.4438462 L0.226944056,27.1215385 L70.0454606,22.78 C70.0454606,22.78 106.203898,21.2604615 123.833175,4.80315385 L134.014741,20.9727692 L134.022634,20.9714615 L134.590981,19.4885385 L135.52507,19.3996154 L134.948829,18.5509231 L135.877655,16.1277692 L133.500334,16.4128462 L122.774103,0.596307692 C105.715804,17.6394615 69.6297254,20.3751538 69.6297254,20.3751538 L-0.000657808858,27.0692308 L0.516379953,32.3771538 L0.634785548,33.5906923 L0.562426573,32.4438462 Z" id="Fill-31" fill="#FF3D46" mask="url(#mask-8)"></path>
                </g>
                <path d="M146.825143,187.400579 C148.140044,201.179178 141.896898,213.064585 132.881942,213.947897 C123.864356,214.831209 115.489757,204.378019 114.174857,190.599421 C112.859956,176.822154 119.103102,164.935415 128.118058,164.052103 C137.135644,163.168791 145.510243,173.621981 146.825143,187.400579" id="Fill-34" fill="#D0180E"></path>
                <path d="M150.827371,187.365462 C152.15351,201.14247 145.695215,213.042491 136.401637,213.945683 C127.108058,214.847543 118.498767,204.411546 117.172629,190.634538 C115.84649,176.85753 122.304785,164.957509 131.598363,164.054317 C140.891942,163.152457 149.501233,173.588454 150.827371,187.365462" id="Fill-36" fill="#FF3D46"></path>
                <path d="M150.825143,187.400579 C152.140044,201.179178 145.896898,213.064585 136.881942,213.947897 C127.864356,214.831209 119.489757,204.378019 118.174857,190.599421 C116.859956,176.822154 123.103102,164.935415 132.118058,164.052103 C141.135644,163.168791 149.510243,173.621981 150.825143,187.400579" id="Fill-38" fill="#FF2326"></path>
                <path d="M147.862308,187.36334 C148.857298,197.560175 144.353098,206.336107 137.801413,206.96438 C131.249728,207.592652 125.131345,199.834681 124.137693,189.63652 C123.142703,179.439685 127.646903,170.663753 134.197251,170.035481 C140.750273,169.408534 146.867319,177.16518 147.862308,187.36334" id="Fill-40" fill="#FF3D46"></path>
                <path d="M147.857053,186.937712 C148.849462,196.861339 144.568936,205.381187 138.296806,205.968174 C132.023317,206.553848 126.134031,198.986048 125.14298,189.062421 C124.150571,179.138794 128.429739,170.618946 134.704585,170.031959 C140.976716,169.444972 146.866002,177.014085 147.857053,186.937712" id="Fill-42" fill="#AE0512"></path>
                <polygon id="Fill-44" fill="#FFCC18" points="147 129 153.431984 118 171 118"></polygon>
                <polygon id="Fill-46" fill="#00164A" points="160 148.372631 173.980647 142 192 155"></polygon>
                <polygon id="Fill-48" fill="#FFCC18" points="183.577698 91 179 104 189 97.4993309"></polygon>
                <polygon id="Fill-50" fill="#DBEBFF" points="190.20511 130 187 140 194 135.000676"></polygon>
                <polygon id="Fill-52" fill="#FF2326" points="171 134.236331 182.182826 140 184 133"></polygon>
                <polygon id="Fill-54" fill="#FF2326" points="135 122 144 114.419907 138.108908 110"></polygon>
                <path d="M182,124.500738 C182,125.881016 183.12013,127 184.5,127 C185.881346,127 187,125.881016 187,124.500738 C187,123.118984 185.881346,122 184.5,122 C183.12013,122 182,123.118984 182,124.500738" id="Fill-56" fill="#002399"></path>
                <path d="M155,105.500738 C155,106.881016 156.12013,108 157.5,108 C158.881346,108 160,106.881016 160,105.500738 C160,104.118984 158.881346,103 157.5,103 C156.12013,103 155,104.118984 155,105.500738" id="Fill-58" fill="#002399"></path>
                <path d="M196,107.499262 C196,108.881016 197.12013,110 198.5,110 C199.881346,110 201,108.881016 201,107.499262 C201,106.118984 199.881346,105 198.5,105 C197.12013,105 196,106.118984 196,107.499262" id="Fill-60" fill="#FF2326"></path>
                <path d="M178,115.5 C178,116.881346 179.118654,118 180.498524,118 C181.87987,118 183,116.881346 183,115.5 C183,114.118654 181.87987,113 180.498524,113 C179.118654,113 178,114.118654 178,115.5" id="Fill-62" fill="#FF2326"></path>
                <path d="M209,120 C209,120.551351 209.44725,121 210.000902,121 C210.55275,121 211,120.551351 211,120 C211,119.446847 210.55275,119 210.000902,119 C209.44725,119 209,119.446847 209,120" id="Fill-64" fill="#FF2326"></path>
                <g id="Group-68" transform="translate(217.000000, 96.000000)">
                    <mask id="mask-10" fill="white">
                        <use xlink:href="#path-9"></use>
                    </mask>
                    <g id="Clip-67"></g>
                    <path d="M0.32975,1.0092 C0.32975,1.4682 0.70175,1.8417 1.16225,1.8417 C1.61975,1.8417 1.99325,1.4682 1.99325,1.0092 C1.99325,0.5487 1.61975,0.1767 1.16225,0.1767 C0.70175,0.1767 0.32975,0.5487 0.32975,1.0092" id="Fill-66" fill="#FF2326" mask="url(#mask-10)"></path>
                </g>
                <path d="M173,125 C173,125.553153 173.449053,126 174.000902,126 C174.55275,126 175,125.553153 175,125 C175,124.448649 174.55275,124 174.000902,124 C173.449053,124 173,124.448649 173,125" id="Fill-69" fill="#FFCC18"></path>
                <path d="M165,107.499262 C165,108.881016 166.12013,110 167.5,110 C168.881346,110 170,108.881016 170,107.499262 C170,106.118984 168.881346,105 167.5,105 C166.12013,105 165,106.118984 165,107.499262" id="Fill-71" fill="#DBEBFF"></path>
                <path d="M172,82.5 C172,83.8813459 173.118654,85 174.498524,85 C175.87987,85 177,83.8813459 177,82.5 C177,81.1186541 175.87987,80 174.498524,80 C173.118654,80 172,81.1186541 172,82.5" id="Fill-73" fill="#DBEBFF"></path>
                <path d="M207,79.5 C207,80.8813459 208.12013,82 209.5,82 C210.881346,82 212,80.8813459 212,79.5 C212,78.1186541 210.881346,77 209.5,77 C208.12013,77 207,78.1186541 207,79.5" id="Fill-75" fill="#FFCC18"></path>
                <path d="M148,136.5 C148,137.881346 149.12013,139 150.5,139 C151.881346,139 153,137.881346 153,136.5 C153,135.118654 151.881346,134 150.5,134 C149.12013,134 148,135.118654 148,136.5" id="Fill-77" fill="#FFCC18"></path>
                <path d="M164,127.5 C164,128.881346 165.118654,130 166.498524,130 C167.87987,130 169,128.881346 169,127.5 C169,126.118654 167.87987,125 166.498524,125 C165.118654,125 164,126.118654 164,127.5" id="Fill-79" fill="#FFCC18"></path>
                <path d="M148,115.5 C148,116.881346 149.12013,118 150.5,118 C151.881346,118 153,116.881346 153,115.5 C153,114.118654 151.881346,113 150.5,113 C149.12013,113 148,114.118654 148,115.5" id="Fill-81" fill="#FFCC18"></path>
                <polygon id="Fill-83" fill="#FFCC18" points="133.80476 67 132 56.8622296 143 47"></polygon>
                <polygon id="Fill-85" fill="#00164A" points="153 73 158.193548 61.3018573 176 59"></polygon>
                <polygon id="Fill-87" fill="#FFCC18" points="135 24 138.899408 34 141 25.0564921"></polygon>
                <polygon id="Fill-89" fill="#DBEBFF" points="161 45 164.249612 52 166 45.7402027"></polygon>
                <polygon id="Fill-91" fill="#FF2326" points="152 57 162 55.1340004 158.896033 50"></polygon>
                <polygon id="Fill-93" fill="#FF2326" points="121.568665 70 123 60 118 60.7914453"></polygon>
                <path d="M151.510831,45.3337482 C152.247462,46.1566834 153.512516,46.2270566 154.333868,45.4902926 C155.156655,44.7535286 155.227016,43.489684 154.490384,42.6667488 C153.753752,41.8423774 152.490134,41.7734404 151.665911,42.5102044 C150.843123,43.2455322 150.772763,44.510813 151.510831,45.3337482" id="Fill-95" fill="#002399"></path>
                <path d="M125.510831,48.3337482 C126.247462,49.1566834 127.51108,49.2270566 128.333868,48.4902926 C129.156655,47.7535286 129.227016,46.489684 128.490384,45.6667488 C127.753752,44.8423774 126.490134,44.7734404 125.665911,45.5102044 C124.843123,46.2469684 124.772763,47.510813 125.510831,48.3337482" id="Fill-97" fill="#002399"></path>
                <path d="M151.510311,27.3337482 C152.247022,28.1566834 153.512213,28.2270566 154.335089,27.4902926 C155.156529,26.7535286 155.226897,25.489684 154.490186,24.6667488 C153.753475,23.8423774 152.489721,23.7734404 151.665408,24.5102044 C150.842532,25.2469684 150.7736,26.510813 151.510311,27.3337482" id="Fill-99" fill="#FF2326"></path>
                <path d="M144.509616,42.3337482 C145.247684,43.1566834 146.511302,43.2270566 147.334089,42.4902926 C148.156877,41.7535286 148.227237,40.4882478 147.489169,39.6667488 C146.752538,38.8423774 145.490356,38.7734404 144.666132,39.5102044 C143.843345,40.2455322 143.772984,41.510813 144.509616,42.3337482" id="Fill-101" fill="#FF2326"></path>
                <path d="M166.254043,27.6669888 C166.622392,28.0770416 167.256041,28.1143192 167.668242,27.7459294 C168.07825,27.3775397 168.11333,26.7438216 167.744981,26.3337688 C167.376632,25.9215231 166.745175,25.8864384 166.332975,26.2548281 C165.922967,26.6232178 165.885693,27.2569359 166.254043,27.6669888" id="Fill-103" fill="#FF2326"></path>
                <path d="M160.254922,9.66635761 C160.623132,10.0784472 161.25435,10.1135186 161.666394,9.74526838 C162.078439,9.37701812 162.113506,8.74573197 161.745296,8.33364239 C161.377086,7.92155282 160.745869,7.88648137 160.331633,8.25473162 C159.92178,8.62298188 159.886712,9.25646 160.254922,9.66635761" id="Fill-105" fill="#FF2326"></path>
                <path d="M148.254704,51.6669888 C148.622914,52.0770416 149.254131,52.1143192 149.668367,51.7459294 C150.07822,51.3775397 150.113288,50.7460144 149.745078,50.3337688 C149.376868,49.9215231 148.74565,49.8864384 148.333606,50.2548281 C147.921561,50.6232178 147.886494,51.2569359 148.254704,51.6669888" id="Fill-107" fill="#FFCC18"></path>
                <path d="M132.509878,44.3337482 C133.24668,45.1566834 134.512028,45.2270566 135.335006,44.4902926 C136.156548,43.7535286 136.226925,42.489684 135.490122,41.6667488 C134.75332,40.8423774 133.489409,40.7734404 132.664994,41.5102044 C131.843452,42.2469684 131.773075,43.510813 132.509878,44.3337482" id="Fill-109" fill="#DBEBFF"></path>
                <path d="M123.509616,26.3337482 C124.246248,27.1566834 125.511302,27.2270566 126.334089,26.4902926 C127.156877,25.7535286 127.227237,24.4882478 126.489169,23.6667488 C125.752538,22.8423774 124.48892,22.7734404 123.666132,23.5102044 C122.843345,24.2455322 122.772984,25.510813 123.509616,26.3337482" id="Fill-111" fill="#DBEBFF"></path>
                <g id="Group-115" transform="translate(142.000000, 0.000000)">
                    <mask id="mask-12" fill="white">
                        <use xlink:href="#path-11"></use>
                    </mask>
                    <g id="Clip-114"></g>
                    <path d="M1.0836,3.96065 C1.8546,4.82015 3.1746,4.89365 4.0341,4.12415 C4.8936,3.35465 4.9671,2.03315 4.1976,1.17515 C3.4266,0.31415 2.1081,0.24215 1.2471,1.01165 C0.3876,1.77965 0.3141,3.10115 1.0836,3.96065" id="Fill-113" fill="#FFCC18" mask="url(#mask-12)"></path>
                </g>
                <path d="M138.509878,72.3337482 C139.24668,73.1566834 140.512028,73.2270566 141.335006,72.4902926 C142.156548,71.7535286 142.226925,70.489684 141.490122,69.6667488 C140.75332,68.8423774 139.489409,68.7734404 138.664994,69.5102044 C137.843452,70.2469684 137.773075,71.510813 138.509878,72.3337482" id="Fill-116" fill="#FFCC18"></path>
                <path d="M143.509588,58.3337721 C144.247615,59.1566778 145.511163,59.2270484 146.333905,58.4903109 C147.156647,57.7535733 147.227003,56.4883379 146.490412,55.6654322 C145.752385,54.8425265 144.490273,54.773592 143.666095,55.5103296 C142.843353,56.245631 142.772997,57.5108664 143.509588,58.3337721" id="Fill-118" fill="#FFCC18"></path>
                <path d="M125.510311,58.3337482 C126.247022,59.1566834 127.512213,59.2270566 128.335089,58.4902926 C129.156529,57.7535286 129.226897,56.489684 128.490186,55.6667488 C127.753475,54.8423774 126.489721,54.7734404 125.665408,55.5102044 C124.842532,56.2469684 124.7736,57.510813 125.510311,58.3337482" id="Fill-120" fill="#FFCC18"></path>
                <polygon id="Fill-122" fill="#FFCC18" points="150 192.477782 158.616275 191 167 200"></polygon>
                <polygon id="Fill-124" fill="#00164A" points="145 209 155.026253 213.517653 157 229"></polygon>
                <polygon id="Fill-126" fill="#FFCC18" points="187 194 178 197.249655 186.049143 199"></polygon>
                <polygon id="Fill-128" fill="#DBEBFF" points="169 215 163 218.248186 168.36568 220"></polygon>
                <polygon id="Fill-130" fill="#FF2326" points="158 208 159.598915 216 164 213.516933"></polygon>
                <polygon id="Fill-132" fill="#AE0512" points="148 182.568741 156 184 155.366211 179"></polygon>
                <path d="M168.665367,208.509335 C167.843538,209.24555 167.773096,210.51003 168.509387,211.333451 C169.245679,212.156871 170.511966,212.227307 171.333794,211.489414 C172.1573,210.753199 172.226065,209.488719 171.491451,208.665298 C170.753483,207.843554 169.488873,207.773119 168.665367,208.509335" id="Fill-134" fill="#002399"></path>
                <path d="M165.665894,186.50942 C164.842454,187.245759 164.773694,188.510451 165.509927,189.33401 C166.246159,190.157569 167.510667,190.226338 168.334106,189.489999 C169.157546,188.75366 169.226306,187.488969 168.490073,186.66541 C167.753841,185.843528 166.489333,185.773081 165.665894,186.50942" id="Fill-136" fill="#002399"></path>
                <path d="M184.666206,208.509335 C183.8427,209.24555 183.773935,210.51003 184.508549,211.333451 C185.246517,212.156871 186.511127,212.227307 187.334633,211.489414 C188.156462,210.753199 188.226904,209.488719 187.490613,208.665298 C186.754321,207.843554 185.488034,207.773119 184.666206,208.509335" id="Fill-138" fill="#FF2326"></path>
                <path d="M170.666765,202.509335 C169.843397,203.24555 169.772967,204.51003 170.509135,205.333451 C171.246979,206.156871 172.511377,206.227307 173.334745,205.489414 C174.156436,204.753199 174.226866,203.488719 173.490698,202.665298 C172.752854,201.843554 171.488456,201.773119 170.666765,202.509335" id="Fill-140" fill="#FF2326"></path>
                <path d="M184.166002,221.127509 C183.961056,221.311866 183.943123,221.628089 184.127574,221.83293 C184.310745,222.039052 184.62713,222.056975 184.833357,221.872618 C185.039584,221.688261 185.056236,221.372038 184.873066,221.165917 C184.688614,220.961076 184.372229,220.943152 184.166002,221.127509" id="Fill-142" fill="#FF2326"></path>
                <path d="M198.166002,215.127509 C197.961056,215.311866 197.943123,215.628089 198.127574,215.83293 C198.312026,216.039052 198.62713,216.056975 198.833357,215.872618 C199.039584,215.688261 199.056236,215.372038 198.873066,215.165917 C198.688614,214.961076 198.372229,214.943152 198.166002,215.127509" id="Fill-144" fill="#FF2326"></path>
                <path d="M163.166995,205.127382 C162.960966,205.311739 162.94305,205.627962 163.127325,205.834083 C163.3116,206.038924 163.627683,206.056848 163.833713,205.872491 C164.039743,205.688134 164.056379,205.371911 163.872104,205.16707 C163.687829,204.960948 163.371746,204.943025 163.166995,205.127382" id="Fill-146" fill="#FFCC18"></path>
                <path d="M169.666765,192.50942 C168.843397,193.245759 168.772967,194.510451 169.509135,195.33401 C170.246979,196.157569 171.511377,196.226338 172.334745,195.489999 C173.156436,194.75366 173.226866,193.488969 172.490698,192.66541 C171.752854,191.843528 170.488456,191.773081 169.666765,192.50942" id="Fill-148" fill="#DBEBFF"></path>
                <path d="M185.665367,184.509335 C184.843538,185.24555 184.773096,186.51003 185.509387,187.333451 C186.245679,188.156871 187.511966,188.227307 188.333794,187.489414 C189.1573,186.753199 189.226065,185.488719 188.491451,184.665298 C187.753483,183.843554 186.488873,183.773119 185.665367,184.509335" id="Fill-150" fill="#DBEBFF"></path>
                <path d="M204.665255,201.509335 C203.843564,202.24555 203.773134,203.51003 204.509302,204.333451 C205.247146,205.156871 206.511544,205.227307 207.333235,204.489414 C208.156603,203.753199 208.227033,202.488719 207.490865,201.665298 C206.753021,200.843554 205.488623,200.773119 204.665255,201.509335" id="Fill-152" fill="#FFCC18"></path>
                <path d="M144.665255,197.50942 C143.843564,198.245759 143.773134,199.510451 144.509302,200.33401 C145.247146,201.157569 146.511544,201.226338 147.333235,200.489999 C148.156603,199.75366 148.227033,198.488969 147.490865,197.66541 C146.753021,196.843528 145.488623,196.773081 144.665255,197.50942" id="Fill-154" fill="#FFCC18"></path>
                <path d="M157.666206,201.509927 C156.8427,202.246159 156.773935,203.510667 157.508549,204.334106 C158.246517,205.157546 159.511127,205.226306 160.334633,204.490073 C161.156462,203.753841 161.226904,202.489333 160.490613,201.665894 C159.752644,200.842454 158.488034,200.773694 157.666206,201.509927" id="Fill-156" fill="#FFCC18"></path>
                <path d="M156.665894,186.50942 C155.842454,187.245759 155.773694,188.510451 156.509927,189.33401 C157.246159,190.157569 158.510667,190.226338 159.334106,189.489999 C160.157546,188.75366 160.226306,187.488969 159.490073,186.66541 C158.753841,185.843528 157.489333,185.773081 156.665894,186.50942" id="Fill-158" fill="#FFCC18"></path>
            </g>
        </g>
    </g>
</svg>