<?xml version="1.0" encoding="UTF-8"?>
<svg width="31px" height="28px" viewBox="0 0 31 28" version="1.1" xmlns="http://www.w3.org/2000/svg" xmlns:xlink="http://www.w3.org/1999/xlink">
    <!-- Generator: Sketch 50.2 (55047) - http://www.bohemiancoding.com/sketch -->
    <title>Shape</title>
    <desc>Created with Sketch.</desc>
    <defs></defs>
    <g id="Page-1" stroke="none" stroke-width="1" fill="none" fill-rule="evenodd">
        <g id="New-landing-page-Copy-5" transform="translate(-693.000000, -674.000000)" fill="#000000" fill-rule="nonzero">
            <path d="M717.955954,702 C717.713808,702 717.473298,701.927637 717.266983,701.78638 L709.472336,696.447371 L705.291719,699.484969 C704.96384,699.72304 704.54123,699.783012 704.160504,699.645556 C703.78027,699.507768 703.491494,699.189734 703.388418,698.795372 L701.289275,690.762406 L693.788803,687.866395 C693.316618,687.684 693.003464,687.227848 693.000029,686.717341 C692.996593,686.206835 693.303529,685.746387 693.773423,685.557549 L722.292984,674.098405 C722.422402,674.042894 722.559345,674.010843 722.697434,674.002251 C722.746845,673.999278 722.796419,673.999278 722.845666,674.002086 C723.13166,674.019268 723.412582,674.1369 723.631823,674.353989 C723.654565,674.376458 723.676162,674.399422 723.696613,674.423378 C723.878223,674.632868 723.978026,674.888286 723.996841,675.148496 C724.001423,675.21392 724.001095,675.280171 723.995369,675.346421 C723.991442,675.393672 723.984734,675.440757 723.975245,675.487512 L719.161284,700.992864 C719.083896,701.402591 718.807718,701.745573 718.426175,701.905333 C718.274834,701.968775 718.114985,702 717.955954,702 Z M710.156726,693.921601 L717.099935,698.677245 L720.845671,678.83125 L707.317073,691.976553 L710.124004,693.899297 C710.135293,693.906401 710.146091,693.914001 710.156726,693.921601 Z M704.376799,692.864075 L705.306444,696.421102 L707.309384,694.965744 L704.686681,693.169223 C704.56479,693.085956 704.460405,692.982202 704.376799,692.864075 Z M697.60342,686.685786 L702.753603,688.674119 C703.122549,688.816532 703.401017,689.129775 703.501802,689.515382 L704.154941,692.014883 C704.184882,691.726587 704.3143,691.455308 704.524541,691.25094 L717.415379,678.725514 L697.60342,686.685786 Z" id="Shape"></path>
        </g>
    </g>
</svg>