<?xml version="1.0" encoding="utf-8"?>
<!-- Generator: Adobe Illustrator 21.0.0, SVG Export Plug-In . SVG Version: 6.00 Build 0)  -->
<svg version="1.1" id="Layer_1" xmlns="http://www.w3.org/2000/svg" xmlns:xlink="http://www.w3.org/1999/xlink" x="0px" y="0px"
	 viewBox="0 0 460.9 60" style="enable-background:new 0 0 460.9 60;" xml:space="preserve">
<style type="text/css">
	.st0{clip-path:url(#SVGID_2_);}
	.st1{clip-path:url(#SVGID_4_);fill:#020303;}
	.st2{clip-path:url(#SVGID_6_);}
	.st3{clip-path:url(#SVGID_8_);}
	.st4{clip-path:url(#SVGID_10_);}
	.st5{clip-path:url(#SVGID_12_);}
	.st6{clip-path:url(#SVGID_14_);fill:#FEFEFE;}
	.st7{clip-path:url(#SVGID_16_);}
	.st8{clip-path:url(#SVGID_18_);fill:#FFFFFF;}
	.st9{opacity:0.9;}
	.st10{fill:#9B9B9B;}
</style>
<g>
	<g>
		<defs>
			<path id="SVGID_1_" d="M59,30c0,16-13,29-29,29C14,59,1,46,1,30S14,1,30,1C46,1,59,14,59,30"/>
		</defs>
		<clipPath id="SVGID_2_">
			<use xlink:href="#SVGID_1_"  style="overflow:visible;"/>
		</clipPath>
		<g class="st0">
			<defs>
				<rect id="SVGID_3_" x="-662" y="-169" width="1440" height="2930"/>
			</defs>
			<clipPath id="SVGID_4_">
				<use xlink:href="#SVGID_3_"  style="overflow:visible;"/>
			</clipPath>
			<rect x="-4" y="-4" class="st1" width="68" height="68"/>
		</g>
	</g>
	<g>
		<defs>
			<rect id="SVGID_5_" width="60" height="60"/>
		</defs>
		<clipPath id="SVGID_6_">
			<use xlink:href="#SVGID_5_"  style="overflow:visible;"/>
		</clipPath>
		<g class="st2">
			<defs>
				<rect id="SVGID_7_" x="-662" y="-169" width="1440" height="2930"/>
			</defs>
			<clipPath id="SVGID_8_">
				<use xlink:href="#SVGID_7_"  style="overflow:visible;"/>
			</clipPath>
			<g class="st3">
				<defs>
					<rect id="SVGID_9_" y="0" width="60" height="60"/>
				</defs>
				<clipPath id="SVGID_10_">
					<use xlink:href="#SVGID_9_"  style="overflow:visible;"/>
				</clipPath>
				<g class="st4">
					<defs>
						<path id="SVGID_11_" d="M30,0C13.4,0,0,13.4,0,30c0,13.1,8.4,24.2,20.1,28.3c3.1,1.1,6.4,1.7,9.9,1.7c3.5,0,6.8-0.6,9.9-1.7
							C51.6,54.2,60,43.1,60,30C60,13.4,46.6,0,30,0 M21.4,27.7c-1.8,0.6-3.5,0.3-3.8-1.5c0,0-0.1-0.8,0-1.2c0-0.3,0.1-0.6,0.3-0.9
							c1.4-3.7,6.3-6.5,12.1-6.5s10.7,2.8,12.1,6.5c0.1,0.3,0.2,0.6,0.3,0.9c0.1,0.4,0,1.2,0,1.2c-0.3,1.8-2,2.3-3.8,1.5
							C35,26.1,26.3,26,21.4,27.7 M49.7,49.7c-2.6,2.6-5.6,4.6-8.9,6c-0.3,0.1-0.7,0.3-1,0.4V46l0-2.7c0-1-0.3-1.9-0.8-2.7
							c4.3-2.9,7.2-7.9,7.2-13.5c0-9-7.3-16.2-16.2-16.2c-9,0-16.2,7.3-16.2,16.2c0,5.6,2.8,10.5,7.2,13.5c-0.5,0.8-0.8,1.8-0.8,2.9
							L17,41.1c0.1-0.1,0.1-0.2,0.2-0.3c0.2-0.3,0.4-0.7,0.5-1c0.1-0.3,0.2-0.5,0.3-0.7c0.1-0.2,0.1-0.3,0.1-0.3s-0.1,0.1-0.2,0.2
							c-0.2,0.1-0.4,0.3-0.6,0.5c-0.2,0.2-0.5,0.5-0.7,0.8c-0.1,0.1-0.1,0.2-0.2,0.3l-4-3l-1.7,2.2l4,3c0,0,0,0,0,0
							c-0.2,0.3-0.4,0.7-0.5,1c-0.1,0.3-0.2,0.5-0.3,0.7c-0.1,0.2-0.1,0.3-0.1,0.3s0.1-0.1,0.2-0.2c0.2-0.1,0.4-0.3,0.6-0.5
							c0.2-0.2,0.5-0.5,0.7-0.8c0,0,0,0,0,0l4.7,3.4l0,9.4c-0.3-0.1-0.7-0.3-1-0.4c-3.3-1.4-6.3-3.4-8.9-6c-2.6-2.6-4.6-5.6-6-8.9
							C2.8,37.4,2.1,33.8,2.1,30c0-3.8,0.7-7.4,2.2-10.9c1.4-3.3,3.4-6.3,6-8.9c2.6-2.6,5.6-4.6,8.9-6c3.4-1.5,7.1-2.2,10.9-2.2
							s7.4,0.7,10.9,2.2c3.3,1.4,6.3,3.4,8.9,6c2.6,2.6,4.6,5.6,6,8.9c1.5,3.4,2.2,7.1,2.2,10.9c0,3.8-0.7,7.4-2.2,10.9
							C54.3,44.2,52.3,47.2,49.7,49.7"/>
					</defs>
					<clipPath id="SVGID_12_">
						<use xlink:href="#SVGID_11_"  style="overflow:visible;"/>
					</clipPath>
					<g class="st5">
						<defs>
							<rect id="SVGID_13_" y="0" width="60" height="60"/>
						</defs>
						<clipPath id="SVGID_14_">
							<use xlink:href="#SVGID_13_"  style="overflow:visible;"/>
						</clipPath>
						<rect x="-5" y="-5" class="st6" width="70" height="70"/>
					</g>
				</g>
			</g>
		</g>
	</g>
	<g>
		<g>
			<defs>
				<path id="SVGID_15_" d="M138.9,23.7v-2.1c-0.5-0.1-1.1-0.2-1.6-0.2c-1.1,0-2.3,0.3-2.3,1.5c0,0.9,0.8,1.4,1.8,1.4
					C137.7,24.3,138.4,24,138.9,23.7z M139.8,26.4L139.8,26.4c-1,0.7-2.4,1.2-4.1,1.2c-1.2,0-2.4-0.3-3.3-0.9
					c-1.1-0.7-1.7-1.9-1.7-3.4c0-1.6,0.7-2.8,1.8-3.5c1.1-0.8,2.6-1,4-1c0.9,0,1.7,0.1,2.5,0.3v-0.6c0-0.7-0.2-1.2-0.6-1.5
					c-0.4-0.4-1.2-0.6-2.2-0.6c-1.6,0-3.1,0.5-4.2,1.1v-3.8c1.2-0.6,2.9-1.1,5-1.1c1.9,0,3.7,0.4,4.8,1.4c1.1,0.9,1.6,2.2,1.6,4v4.9
					c0,0.7,0.3,1.1,0.9,1.1c0.2,0,0.5-0.1,0.7-0.2v3.3c-0.5,0.3-1.3,0.4-2.1,0.4C141.7,27.5,140.5,27.2,139.8,26.4z M123.4,27.9v-15
					h4.5v14.7c0,2.7-0.5,3.9-1.3,4.8c-1.1,1.1-2.8,1.5-4.4,1.5c-0.8,0-1.6-0.1-2-0.2v-3.6c0.5,0.1,1.1,0.1,1.5,0.1
					C123.2,30.2,123.4,29.4,123.4,27.9z M123.1,8.3c0-1.4,1.2-2.5,2.6-2.5c1.4,0,2.6,1.1,2.6,2.5c0,1.4-1.2,2.5-2.6,2.5
					C124.2,10.9,123.1,9.7,123.1,8.3z M105.7,27.2V12.9h4.4v1.3l0.1,0c1.1-0.9,2.6-1.7,4.5-1.7c1.5,0,2.9,0.5,3.8,1.5
					c0.9,0.9,1.3,2.2,1.3,4.3v8.9h-4.5V19c0-1.1-0.1-1.6-0.5-2c-0.4-0.4-0.9-0.6-1.5-0.6c-1.1,0-2.2,0.6-3,1.2v9.6H105.7z
					 M97.6,27.2V12.9h4.5v14.3H97.6z M97.2,8.3c0-1.4,1.2-2.5,2.6-2.5c1.4,0,2.6,1.1,2.6,2.5c0,1.4-1.2,2.5-2.6,2.5
					C98.4,10.9,97.2,9.7,97.2,8.3z M89.4,27.2L83,18.7c-1.4-1.8-2.7-3.6-4-5.5l-0.1,0c0,2,0.1,4.1,0.1,6.1v7.8h-4.5V6.1H79l6.4,8.5
					c1.4,1.8,2.7,3.6,4,5.5l0.1,0c0-2-0.1-4.1-0.1-6.1V6.1h4.5v21.1H89.4z"/>
			</defs>
			<clipPath id="SVGID_16_">
				<use xlink:href="#SVGID_15_"  style="overflow:visible;"/>
			</clipPath>
			<g class="st7">
				<defs>
					<rect id="SVGID_17_" x="-744" y="-165" width="1440" height="2930"/>
				</defs>
				<clipPath id="SVGID_18_">
					<use xlink:href="#SVGID_17_"  style="overflow:visible;"/>
				</clipPath>
				<rect x="-15" y="0" class="st8" width="165" height="39"/>
			</g>
		</g>
		<g>
			<g class="st9">
				<path class="st10" d="M76.9,51.5L76,54h-1.5l3.9-10.5h1.6L84,54h-1.5l-0.9-2.5H76.9z M79.3,44.9l-1.9,5.4h3.8L79.3,44.9z"/>
				<path class="st10" d="M94.3,54h-1.2l-5.9-8v8h-1.4V43.5H87l5.9,8.1v-8.1h1.4L94.3,54z"/>
				<path class="st10" d="M106.6,48.7c0,3.8-2.5,5.5-5,5.5s-5-1.7-5-5.5c0-3.8,2.6-5.4,5-5.4S106.6,44.9,106.6,48.7z M98,48.7
					c0,2.8,1.6,4.2,3.5,4.2c2,0,3.6-1.4,3.6-4.2c0-2.8-1.6-4.1-3.6-4.1C99.6,44.6,98,45.9,98,48.7z"/>
				<path class="st10" d="M117.3,54h-1.2l-5.9-8v8h-1.4V43.5h1.2l5.9,8.1v-8.1h1.4L117.3,54z"/>
				<path class="st10" d="M123.9,54h-1.4v-4.2l-3.7-6.3h1.6l2.8,5l2.8-5h1.6l-3.7,6.3V54z"/>
				<path class="st10" d="M140.2,54h-1.4v-7.8l-3.6,7.6h-0.8l-3.6-7.6V54h-1.4V43.5h1.4l4,8.6l3.8-8.6h1.4L140.2,54z"/>
				<path class="st10" d="M152.4,48.7c0,3.8-2.5,5.5-5,5.5s-5-1.7-5-5.5c0-3.8,2.6-5.4,5-5.4S152.4,44.9,152.4,48.7z M143.8,48.7
					c0,2.8,1.6,4.2,3.5,4.2c2,0,3.6-1.4,3.6-4.2c0-2.8-1.6-4.1-3.6-4.1C145.4,44.6,143.8,45.9,143.8,48.7z"/>
				<path class="st10" d="M162.7,50.2c0,2.9-1.9,4-4,4c-2.1,0-4-1.1-4-4v-6.7h1.4v6.8c0,1.7,1,2.6,2.6,2.6c1.7,0,2.6-1,2.6-2.6v-6.8
					h1.4V50.2z"/>
				<path class="st10" d="M171.7,44.3l-0.6,1.1c-0.8-0.5-1.8-0.8-2.7-0.8c-1.3,0-2.1,0.6-2.1,1.6c0,1.1,1.3,1.5,3,2.2
					c1.7,0.6,2.7,1.3,2.7,2.8c0,1.9-1.4,3.1-3.8,3.1c-1.2,0-2.5-0.3-3.5-1l0.5-1.2c0.9,0.5,2,0.8,3,0.8c1.7,0,2.4-0.7,2.4-1.7
					c0-1-1-1.4-2.6-2c-1.7-0.6-3.1-1.3-3.1-3.1c0-1.7,1.4-2.8,3.5-2.8C169.9,43.3,171,43.8,171.7,44.3z"/>
				<path class="st10" d="M181.3,43.5c2.4,0,3.7,1.3,3.7,3.2c0,1.9-1.2,3.4-3.7,3.4h-1.9v4h-1.4V43.5L181.3,43.5z M179.5,48.8h1.8
					c1.5,0,2.3-0.8,2.3-2.2c0-1.3-0.8-1.9-2.3-1.9h-1.8V48.8z"/>
				<path class="st10" d="M188.1,44.7V48h4.7v1.2h-4.7v3.5h5.3V54h-6.7V43.5h6.7v1.2H188.1z"/>
				<path class="st10" d="M196.8,44.7V48h4.7v1.2h-4.7v3.5h5.3V54h-6.7V43.5h6.7v1.2H196.8z"/>
				<path class="st10" d="M207.9,50l-0.3,0h-2.2v4h-1.4V43.5h3.6c2.8,0,3.8,1.4,3.8,3.1c0,1.5-0.7,2.7-2.1,3.2l2.6,4.2h-1.6
					L207.9,50z M207.8,48.8c1.4,0,2.1-0.9,2.1-2.1c0-1.3-0.7-2-2.4-2h-2.1v4.1H207.8z"/>
				<path class="st10" d="M213.8,50.1V49h4.4v1.2H213.8z"/>
				<path class="st10" d="M224.9,44.7V54h-1.4v-9.3h-3.4v-1.2h8.3v1.2H224.9z"/>
				<path class="st10" d="M240.1,48.7c0,3.8-2.5,5.5-5,5.5s-5-1.7-5-5.5c0-3.8,2.6-5.4,5-5.4S240.1,44.9,240.1,48.7z M231.5,48.7
					c0,2.8,1.6,4.2,3.5,4.2c2,0,3.6-1.4,3.6-4.2c0-2.8-1.6-4.1-3.6-4.1C233.1,44.6,231.5,45.9,231.5,48.7z"/>
				<path class="st10" d="M242.3,50.1V49h4.4v1.2H242.3z"/>
				<path class="st10" d="M252.4,43.5c2.4,0,3.7,1.3,3.7,3.2c0,1.9-1.2,3.4-3.7,3.4h-1.9v4h-1.4V43.5L252.4,43.5z M250.5,48.8h1.8
					c1.5,0,2.3-0.8,2.3-2.2c0-1.3-0.8-1.9-2.3-1.9h-1.8V48.8z"/>
				<path class="st10" d="M259.1,44.7V48h4.7v1.2h-4.7v3.5h5.3V54h-6.7V43.5h6.7v1.2H259.1z"/>
				<path class="st10" d="M267.8,44.7V48h4.7v1.2h-4.7v3.5h5.3V54h-6.7V43.5h6.7v1.2H267.8z"/>
				<path class="st10" d="M278.9,50l-0.3,0h-2.2v4h-1.4V43.5h3.6c2.8,0,3.8,1.4,3.8,3.1c0,1.5-0.7,2.7-2.1,3.2l2.6,4.2h-1.6
					L278.9,50z M278.8,48.8c1.4,0,2.1-0.9,2.1-2.1c0-1.3-0.7-2-2.4-2h-2.1v4.1H278.8z"/>
				<path class="st10" d="M292.4,43.5c2.4,0,3.7,1.3,3.7,3.2c0,1.9-1.2,3.4-3.7,3.4h-1.9v4h-1.4V43.5L292.4,43.5z M290.5,48.8h1.8
					c1.5,0,2.3-0.8,2.3-2.2c0-1.3-0.8-1.9-2.3-1.9h-1.8V48.8z"/>
				<path class="st10" d="M301.5,50l-0.3,0h-2.2v4h-1.4V43.5h3.6c2.8,0,3.8,1.4,3.8,3.1c0,1.5-0.7,2.7-2.1,3.2l2.6,4.2H304L301.5,50
					z M301.4,48.8c1.4,0,2.1-0.9,2.1-2.1c0-1.3-0.7-2-2.4-2h-2.1v4.1H301.4z"/>
				<path class="st10" d="M308.8,44.7V48h4.7v1.2h-4.7v3.5h5.3V54h-6.7V43.5h6.7v1.2H308.8z"/>
				<path class="st10" d="M319.2,43.5c2.9,0,5.2,1.5,5.2,5.2c0,3.6-2.3,5.3-5.2,5.3h-3.1V43.5H319.2z M317.5,52.7h1.8
					c2.3,0,3.6-1.3,3.6-4c0-2.7-1.3-3.9-3.6-3.9h-1.8V52.7z"/>
				<path class="st10" d="M326.7,54V43.5h1.4V54H326.7z"/>
				<path class="st10" d="M338.8,44.2l-0.7,1.1c-0.8-0.5-1.7-0.8-2.7-0.8c-1.9,0-3.5,1.3-3.5,4.2c0,3,1.6,4.2,3.5,4.1
					c1.2,0,2.1-0.3,2.9-1l0.7,1c-0.9,0.8-2.1,1.3-3.7,1.3c-2.6,0-4.9-1.6-4.9-5.4c0-3.8,2.2-5.5,5-5.5
					C336.8,43.3,338,43.7,338.8,44.2z"/>
				<path class="st10" d="M344.9,44.7V54h-1.4v-9.3h-3.4v-1.2h8.3v1.2H344.9z"/>
				<path class="st10" d="M350.5,54V43.5h1.4V54H350.5z"/>
				<path class="st10" d="M364.3,48.7c0,3.8-2.5,5.5-5,5.5s-5-1.7-5-5.5c0-3.8,2.6-5.4,5-5.4S364.3,44.9,364.3,48.7z M355.7,48.7
					c0,2.8,1.6,4.2,3.5,4.2c2,0,3.6-1.4,3.6-4.2c0-2.8-1.6-4.1-3.6-4.1C357.3,44.6,355.7,45.9,355.7,48.7z"/>
				<path class="st10" d="M375,54h-1.2l-5.9-8v8h-1.4V43.5h1.2l5.9,8.1v-8.1h1.4L375,54z"/>
				<path class="st10" d="M383.2,44.7V48h4.7v1.2h-4.7v3.5h5.3V54h-6.7V43.5h6.7v1.2H383.2z"/>
				<path class="st10" d="M398.8,54h-1.8l-3-4.4l-2.8,4.4h-1.7l3.7-5.4l-3.5-5.1h1.8l2.5,4l2.5-4h1.8l-3.6,5L398.8,54z"/>
				<path class="st10" d="M408.9,44.2l-0.7,1.1c-0.8-0.5-1.7-0.8-2.7-0.8c-1.9,0-3.5,1.3-3.5,4.2c0,3,1.6,4.2,3.5,4.1
					c1.2,0,2.1-0.3,2.9-1l0.7,1c-0.9,0.8-2.1,1.3-3.7,1.3c-2.6,0-4.9-1.6-4.9-5.4c0-3.8,2.2-5.5,5-5.5
					C406.9,43.3,408.1,43.7,408.9,44.2z"/>
				<path class="st10" d="M417.7,54l0-4.7h-5.6V54h-1.4V43.5h1.4v4.6h5.6v-4.6h1.4V54H417.7z"/>
				<path class="st10" d="M423.2,51.5l-0.9,2.5h-1.5l3.9-10.5h1.6l4,10.5h-1.5l-0.9-2.5H423.2z M425.6,44.9l-1.9,5.4h3.8L425.6,44.9
					z"/>
				<path class="st10" d="M440.6,54h-1.2l-5.9-8v8h-1.4V43.5h1.2l5.9,8.1v-8.1h1.4V54z"/>
				<path class="st10" d="M451.5,44.6l-0.8,1c-0.8-0.6-1.7-1-3-1c-2,0-3.5,1.4-3.5,4.1c0,2.8,1.4,4.2,3.5,4.2c1.3,0,2.2-0.5,2.6-1
					v-2.5h-3.1v-1.2h4.5v4.3c-0.8,1-2.2,1.7-4.1,1.7c-2.5,0-4.8-1.6-4.8-5.5c0-3.5,2.2-5.4,4.9-5.4
					C449.6,43.3,450.7,43.9,451.5,44.6z"/>
				<path class="st10" d="M455.6,44.7V48h4.7v1.2h-4.7v3.5h5.3V54h-6.7V43.5h6.7v1.2H455.6z"/>
			</g>
		</g>
	</g>
</g>
</svg>
