<?xml version="1.0" encoding="utf-8"?>
<!-- Generator: Adobe Illustrator 21.0.0, SVG Export Plug-In . SVG Version: 6.00 Build 0)  -->
<svg version="1.1" id="Layer_1" xmlns="http://www.w3.org/2000/svg" xmlns:xlink="http://www.w3.org/1999/xlink" x="0px" y="0px"
	 viewBox="0 0 370.5 60" style="enable-background:new 0 0 370.5 60;" xml:space="preserve">
<style type="text/css">
	.st0{opacity:0.9;}
	.st1{fill:#9B9B9B;}
	.st2{clip-path:url(#SVGID_2_);}
	.st3{clip-path:url(#SVGID_4_);fill:#FFFFFF;}
	.st4{clip-path:url(#SVGID_6_);}
	.st5{clip-path:url(#SVGID_8_);fill:#020303;}
	.st6{clip-path:url(#SVGID_10_);}
	.st7{clip-path:url(#SVGID_12_);}
	.st8{clip-path:url(#SVGID_14_);}
	.st9{clip-path:url(#SVGID_16_);}
	.st10{clip-path:url(#SVGID_18_);fill:#FEFEFE;}
</style>
<g>
	<g>
		<g class="st0">
			<path class="st1" d="M77.3,40.5c2.9,0,5.2,1.5,5.2,5.2c0,3.6-2.3,5.3-5.2,5.3h-3.1V40.5H77.3z M75.6,49.7h1.8
				c2.3,0,3.6-1.3,3.6-4c0-2.7-1.3-3.9-3.6-3.9h-1.8V49.7z"/>
			<path class="st1" d="M86,41.7V45h4.7v1.2H86v3.5h5.3V51h-6.7V40.5h6.7v1.2H86z"/>
			<path class="st1" d="M101.4,41.3l-0.7,1.1c-0.8-0.5-1.7-0.8-2.7-0.8c-1.9,0-3.5,1.3-3.5,4.2c0,3,1.6,4.2,3.5,4.1
				c1.2,0,2.1-0.3,2.9-1l0.7,1c-0.9,0.8-2.1,1.3-3.7,1.3c-2.6,0-4.9-1.6-4.9-5.4c0-3.8,2.2-5.5,5-5.5
				C99.5,40.3,100.6,40.7,101.4,41.3z"/>
			<path class="st1" d="M104.7,41.7V45h4.7v1.2h-4.7v3.5h5.3V51h-6.7V40.5h6.7v1.2H104.7z"/>
			<path class="st1" d="M120.5,51h-1.2l-5.9-8v8H112V40.5h1.2l5.9,8.1v-8.1h1.4L120.5,51z"/>
			<path class="st1" d="M127.3,41.7V51h-1.4v-9.3h-3.4v-1.2h8.3v1.2H127.3z"/>
			<path class="st1" d="M136.5,47l-0.3,0h-2.2v4h-1.4V40.5h3.6c2.8,0,3.8,1.4,3.8,3.1c0,1.5-0.7,2.7-2.1,3.2l2.6,4.2h-1.6L136.5,47z
				 M136.4,45.8c1.4,0,2.1-0.9,2.1-2.1c0-1.3-0.7-2-2.4-2h-2.1v4.1H136.4z"/>
			<path class="st1" d="M144.1,48.5l-0.9,2.5h-1.5l3.9-10.5h1.6l4,10.5h-1.5l-0.9-2.5H144.1z M146.4,41.9l-1.9,5.4h3.8L146.4,41.9z"
				/>
			<path class="st1" d="M159.4,49.7V51h-6.4V40.5h1.4v9.3H159.4z"/>
			<path class="st1" d="M161.4,51V40.5h1.4V51H161.4z"/>
			<path class="st1" d="M166.7,49.8h6.3V51h-8v-1.1l6-8.2h-5.7v-1.2h7.4v1L166.7,49.8z"/>
			<path class="st1" d="M176.6,41.7V45h4.7v1.2h-4.7v3.5h5.3V51h-6.7V40.5h6.7v1.2H176.6z"/>
			<path class="st1" d="M187,40.5c2.9,0,5.2,1.5,5.2,5.2c0,3.6-2.3,5.3-5.2,5.3h-3.1V40.5H187z M185.3,49.7h1.8c2.3,0,3.6-1.3,3.6-4
				c0-2.7-1.3-3.9-3.6-3.9h-1.8V49.7z"/>
			<path class="st1" d="M201.9,40.5c2.4,0,3.7,1.3,3.7,3.2c0,1.9-1.2,3.4-3.7,3.4h-1.9v4h-1.4V40.5L201.9,40.5z M200.1,45.8h1.8
				c1.5,0,2.3-0.8,2.3-2.2c0-1.3-0.8-1.9-2.3-1.9h-1.8V45.8z"/>
			<path class="st1" d="M211.1,47l-0.3,0h-2.2v4h-1.4V40.5h3.6c2.8,0,3.8,1.4,3.8,3.1c0,1.5-0.7,2.7-2.1,3.2l2.6,4.2h-1.6L211.1,47z
				 M211,45.8c1.4,0,2.1-0.9,2.1-2.1c0-1.3-0.7-2-2.4-2h-2.1v4.1H211z"/>
			<path class="st1" d="M218.4,41.7V45h4.7v1.2h-4.7v3.5h5.3V51H217V40.5h6.7v1.2H218.4z"/>
			<path class="st1" d="M228.7,40.5c2.9,0,5.2,1.5,5.2,5.2c0,3.6-2.3,5.3-5.2,5.3h-3.1V40.5H228.7z M227.1,49.7h1.8
				c2.3,0,3.6-1.3,3.6-4c0-2.7-1.3-3.9-3.6-3.9h-1.8V49.7z"/>
			<path class="st1" d="M236.2,51V40.5h1.4V51H236.2z"/>
			<path class="st1" d="M248.3,41.3l-0.7,1.1c-0.8-0.5-1.7-0.8-2.7-0.8c-1.9,0-3.5,1.3-3.5,4.2c0,3,1.6,4.2,3.5,4.1
				c1.2,0,2.1-0.3,2.9-1l0.7,1c-0.9,0.8-2.1,1.3-3.7,1.3c-2.6,0-4.9-1.6-4.9-5.4c0-3.8,2.2-5.5,5-5.5
				C246.4,40.3,247.5,40.7,248.3,41.3z"/>
			<path class="st1" d="M254.5,41.7V51h-1.4v-9.3h-3.4v-1.2h8.3v1.2H254.5z"/>
			<path class="st1" d="M260.1,51V40.5h1.4V51H260.1z"/>
			<path class="st1" d="M273.9,45.7c0,3.8-2.5,5.5-5,5.5s-5-1.7-5-5.5c0-3.8,2.6-5.4,5-5.4S273.9,41.9,273.9,45.7z M265.3,45.7
				c0,2.8,1.6,4.2,3.5,4.2c2,0,3.6-1.4,3.6-4.2c0-2.8-1.6-4.1-3.6-4.1C266.9,41.6,265.3,42.9,265.3,45.7z"/>
			<path class="st1" d="M284.6,51h-1.2l-5.9-8v8h-1.4V40.5h1.2l5.9,8.1v-8.1h1.4V51z"/>
			<path class="st1" d="M292.8,41.7V45h4.7v1.2h-4.7v3.5h5.3V51h-6.7V40.5h6.7v1.2H292.8z"/>
			<path class="st1" d="M308.4,51h-1.8l-3-4.4l-2.8,4.4h-1.7l3.7-5.4l-3.5-5.1h1.8l2.5,4l2.5-4h1.8l-3.6,5L308.4,51z"/>
			<path class="st1" d="M318.4,41.3l-0.7,1.1c-0.8-0.5-1.7-0.8-2.7-0.8c-1.9,0-3.5,1.3-3.5,4.2c0,3,1.6,4.2,3.5,4.1
				c1.2,0,2.1-0.3,2.9-1l0.7,1c-0.9,0.8-2.1,1.3-3.7,1.3c-2.6,0-4.9-1.6-4.9-5.4c0-3.8,2.2-5.5,5-5.5
				C316.5,40.3,317.7,40.7,318.4,41.3z"/>
			<path class="st1" d="M327.3,51l0-4.7h-5.6V51h-1.4V40.5h1.4v4.6h5.6v-4.6h1.4V51H327.3z"/>
			<path class="st1" d="M332.8,48.5l-0.9,2.5h-1.5l3.9-10.5h1.6l4,10.5h-1.5l-0.9-2.5H332.8z M335.2,41.9l-1.9,5.4h3.8L335.2,41.9z"
				/>
			<path class="st1" d="M350.2,51H349l-5.9-8v8h-1.4V40.5h1.2l5.9,8.1v-8.1h1.4L350.2,51z"/>
			<path class="st1" d="M361.1,41.6l-0.8,1c-0.8-0.6-1.7-1-3-1c-2,0-3.5,1.4-3.5,4.1c0,2.8,1.4,4.2,3.5,4.2c1.3,0,2.2-0.5,2.6-1
				v-2.5h-3.1v-1.2h4.5v4.3c-0.8,1-2.2,1.7-4.1,1.7c-2.5,0-4.8-1.6-4.8-5.5c0-3.5,2.2-5.4,4.9-5.4C359.2,40.3,360.3,40.9,361.1,41.6
				z"/>
			<path class="st1" d="M365.2,41.7V45h4.7v1.2h-4.7v3.5h5.3V51h-6.7V40.5h6.7v1.2H365.2z"/>
		</g>
	</g>
	<g>
		<defs>
			<path id="SVGID_1_" d="M220.9,20.7v-2.1c-0.5-0.1-1.1-0.2-1.6-0.2c-1.1,0-2.3,0.3-2.3,1.5c0,0.9,0.8,1.4,1.8,1.4
				C219.7,21.3,220.4,21,220.9,20.7z M221.8,23.4L221.8,23.4c-1,0.7-2.4,1.2-4.1,1.2c-1.2,0-2.4-0.3-3.3-0.9
				c-1.1-0.7-1.7-1.9-1.7-3.4c0-1.6,0.7-2.8,1.8-3.5c1.1-0.8,2.6-1,4-1c0.9,0,1.7,0.1,2.5,0.3v-0.6c0-0.7-0.2-1.2-0.6-1.5
				c-0.4-0.4-1.2-0.6-2.2-0.6c-1.6,0-3.1,0.5-4.2,1.1v-3.8c1.2-0.6,2.9-1.1,5-1.1c1.9,0,3.7,0.4,4.8,1.4c1.1,0.9,1.6,2.2,1.6,4v4.9
				c0,0.7,0.3,1.1,0.9,1.1c0.2,0,0.5-0.1,0.7-0.2v3.3c-0.5,0.3-1.3,0.4-2.1,0.4C223.7,24.5,222.5,24.2,221.8,23.4z M205.4,25v-15
				h4.5v14.7c0,2.7-0.5,3.9-1.3,4.8c-1.1,1.1-2.8,1.5-4.4,1.5c-0.8,0-1.6-0.1-2-0.2v-3.6c0.5,0.1,1.1,0.1,1.5,0.1
				C205.2,27.3,205.4,26.4,205.4,25z M205.1,5.4c0-1.4,1.2-2.5,2.6-2.5c1.4,0,2.6,1.1,2.6,2.5c0,1.4-1.2,2.5-2.6,2.5
				C206.2,7.9,205.1,6.8,205.1,5.4z M187.7,24.3V9.9h4.4v1.3l0.1,0c1.1-0.9,2.6-1.7,4.5-1.7c1.5,0,2.9,0.5,3.8,1.5
				c0.9,0.9,1.3,2.2,1.3,4.3v8.9h-4.5V16c0-1.1-0.1-1.6-0.5-2c-0.4-0.4-0.9-0.6-1.5-0.6c-1.1,0-2.2,0.6-3,1.2v9.6H187.7z
				 M179.6,24.3V9.9h4.5v14.3H179.6z M179.2,5.4c0-1.4,1.2-2.5,2.6-2.5c1.4,0,2.6,1.1,2.6,2.5c0,1.4-1.2,2.5-2.6,2.5
				C180.4,7.9,179.2,6.8,179.2,5.4z M171.4,24.3l-6.4-8.5c-1.4-1.8-2.7-3.6-4-5.5l-0.1,0c0,2,0.1,4.1,0.1,6.1v7.8h-4.5V3.1h4.4
				l6.4,8.5c1.4,1.8,2.7,3.6,4,5.5l0.1,0c0-2-0.1-4.1-0.1-6.1V3.1h4.5v21.1H171.4z M143.6,15.4h5.8c-0.3-1.5-1.4-2.5-2.8-2.5
				C145.2,13,144,13.8,143.6,15.4z M153.5,18.2h-9.8c0.5,2,2.1,2.9,4.2,2.9c1.6,0,3.4-0.6,4.9-1.6v3.7c-1.4,0.9-3.6,1.3-5.5,1.3
				c-4.8,0-8.2-2.9-8.2-7.4c0-4.6,3.6-7.5,7.6-7.5c3.5,0,6.9,2.3,6.9,7.1C153.6,17.2,153.5,17.9,153.5,18.2z M123,24.3V2h4.5v14
				l0.1,0l5-6.1h5.1l-5.5,6.4l5.9,7.9h-5.3l-5.2-7.3l-0.1,0v7.3H123z M114.6,20.7v-2.1c-0.5-0.1-1.1-0.2-1.6-0.2
				c-1.1,0-2.3,0.3-2.3,1.5c0,0.9,0.8,1.4,1.8,1.4C113.3,21.3,114.1,21,114.6,20.7z M115.4,23.4L115.4,23.4c-1,0.7-2.4,1.2-4.1,1.2
				c-1.2,0-2.4-0.3-3.3-0.9c-1.1-0.7-1.7-1.9-1.7-3.4c0-1.6,0.7-2.8,1.8-3.5c1.1-0.8,2.6-1,4-1c0.9,0,1.7,0.1,2.5,0.3v-0.6
				c0-0.7-0.2-1.2-0.6-1.5c-0.4-0.4-1.2-0.6-2.2-0.6c-1.6,0-3.1,0.5-4.2,1.1v-3.8c1.2-0.6,2.9-1.1,5-1.1c1.9,0,3.7,0.4,4.8,1.4
				c1.1,0.9,1.6,2.2,1.6,4v4.9c0,0.7,0.3,1.1,0.9,1.1c0.2,0,0.5-0.1,0.7-0.2v3.3c-0.5,0.3-1.3,0.4-2.1,0.4
				C117.3,24.5,116.2,24.2,115.4,23.4z M89.6,24.3V2h4.5v9.2l0.1,0c1.1-0.9,2.6-1.6,4.4-1.6c1.5,0,2.9,0.5,3.8,1.5
				c0.9,0.9,1.3,2.2,1.3,4.3v8.9h-4.5V16c0-1.1-0.1-1.6-0.5-2c-0.4-0.4-0.9-0.6-1.5-0.6c-1.1,0-2.2,0.6-3,1.2v9.6H89.6z M72.6,23
				v-4.7c2.3,1.5,5.1,2.2,6.8,2.2c1.7,0,3-0.7,3-2.2c0-2-2-2.1-4.7-3c-2.9-1-5.6-2.4-5.6-6.1c0-3.9,3-6.4,7.4-6.4
				c2.1,0,4.6,0.5,6.5,1.5v4.6c-2.3-1.4-4.9-2-6.5-2c-1.6,0-2.7,0.6-2.7,2c0,1.9,2,2,4.5,2.9c3.2,1,5.8,2.5,5.8,6.3
				c0,4.1-3.1,6.6-7.7,6.6C77.2,24.6,74.6,24,72.6,23z"/>
		</defs>
		<clipPath id="SVGID_2_">
			<use xlink:href="#SVGID_1_"  style="overflow:visible;"/>
		</clipPath>
		<g class="st2">
			<defs>
				<rect id="SVGID_3_" x="-662" y="-168" width="1440" height="2930"/>
			</defs>
			<clipPath id="SVGID_4_">
				<use xlink:href="#SVGID_3_"  style="overflow:visible;"/>
			</clipPath>
			<rect x="67" y="-3" class="st3" width="165" height="39"/>
		</g>
	</g>
	<g>
		<defs>
			<path id="SVGID_5_" d="M59,30c0,16-13,29-29,29C14,59,1,46,1,30S14,1,30,1C46,1,59,14,59,30"/>
		</defs>
		<clipPath id="SVGID_6_">
			<use xlink:href="#SVGID_5_"  style="overflow:visible;"/>
		</clipPath>
		<g class="st4">
			<defs>
				<rect id="SVGID_7_" x="-662" y="-169" width="1440" height="2930"/>
			</defs>
			<clipPath id="SVGID_8_">
				<use xlink:href="#SVGID_7_"  style="overflow:visible;"/>
			</clipPath>
			<rect x="-4" y="-4" class="st5" width="68" height="68"/>
		</g>
	</g>
	<g>
		<defs>
			<rect id="SVGID_9_" width="60" height="60"/>
		</defs>
		<clipPath id="SVGID_10_">
			<use xlink:href="#SVGID_9_"  style="overflow:visible;"/>
		</clipPath>
		<g class="st6">
			<defs>
				<rect id="SVGID_11_" x="-662" y="-169" width="1440" height="2930"/>
			</defs>
			<clipPath id="SVGID_12_">
				<use xlink:href="#SVGID_11_"  style="overflow:visible;"/>
			</clipPath>
			<g class="st7">
				<defs>
					<rect id="SVGID_13_" y="0" width="60" height="60"/>
				</defs>
				<clipPath id="SVGID_14_">
					<use xlink:href="#SVGID_13_"  style="overflow:visible;"/>
				</clipPath>
				<g class="st8">
					<defs>
						<path id="SVGID_15_" d="M30,0C13.4,0,0,13.4,0,30c0,13.1,8.4,24.2,20.1,28.3c3.1,1.1,6.4,1.7,9.9,1.7c3.5,0,6.8-0.6,9.9-1.7
							C51.6,54.2,60,43.1,60,30C60,13.4,46.6,0,30,0 M21.4,27.7c-1.8,0.6-3.5,0.3-3.8-1.5c0,0-0.1-0.8,0-1.2c0-0.3,0.1-0.6,0.3-0.9
							c1.4-3.7,6.3-6.5,12.1-6.5s10.7,2.8,12.1,6.5c0.1,0.3,0.2,0.6,0.3,0.9c0.1,0.4,0,1.2,0,1.2c-0.3,1.8-2,2.3-3.8,1.5
							C35,26.1,26.3,26,21.4,27.7 M49.7,49.7c-2.6,2.6-5.6,4.6-8.9,6c-0.3,0.1-0.7,0.3-1,0.4V46l0-2.7c0-1-0.3-1.9-0.8-2.7
							c4.3-2.9,7.2-7.9,7.2-13.5c0-9-7.3-16.2-16.2-16.2c-9,0-16.2,7.3-16.2,16.2c0,5.6,2.8,10.5,7.2,13.5c-0.5,0.8-0.8,1.8-0.8,2.9
							L17,41.1c0.1-0.1,0.1-0.2,0.2-0.3c0.2-0.3,0.4-0.7,0.5-1c0.1-0.3,0.2-0.5,0.3-0.7c0.1-0.2,0.1-0.3,0.1-0.3s-0.1,0.1-0.2,0.2
							c-0.2,0.1-0.4,0.3-0.6,0.5c-0.2,0.2-0.5,0.5-0.7,0.8c-0.1,0.1-0.1,0.2-0.2,0.3l-4-3l-1.7,2.2l4,3c0,0,0,0,0,0
							c-0.2,0.3-0.4,0.7-0.5,1c-0.1,0.3-0.2,0.5-0.3,0.7c-0.1,0.2-0.1,0.3-0.1,0.3s0.1-0.1,0.2-0.2c0.2-0.1,0.4-0.3,0.6-0.5
							c0.2-0.2,0.5-0.5,0.7-0.8c0,0,0,0,0,0l4.7,3.4l0,9.4c-0.3-0.1-0.7-0.3-1-0.4c-3.3-1.4-6.3-3.4-8.9-6c-2.6-2.6-4.6-5.6-6-8.9
							C2.8,37.4,2.1,33.8,2.1,30c0-3.8,0.7-7.4,2.2-10.9c1.4-3.3,3.4-6.3,6-8.9c2.6-2.6,5.6-4.6,8.9-6c3.4-1.5,7.1-2.2,10.9-2.2
							s7.4,0.7,10.9,2.2c3.3,1.4,6.3,3.4,8.9,6c2.6,2.6,4.6,5.6,6,8.9c1.5,3.4,2.2,7.1,2.2,10.9c0,3.8-0.7,7.4-2.2,10.9
							C54.3,44.2,52.3,47.2,49.7,49.7"/>
					</defs>
					<clipPath id="SVGID_16_">
						<use xlink:href="#SVGID_15_"  style="overflow:visible;"/>
					</clipPath>
					<g class="st9">
						<defs>
							<rect id="SVGID_17_" y="0" width="60" height="60"/>
						</defs>
						<clipPath id="SVGID_18_">
							<use xlink:href="#SVGID_17_"  style="overflow:visible;"/>
						</clipPath>
						<rect x="-5" y="-5" class="st10" width="70" height="70"/>
					</g>
				</g>
			</g>
		</g>
	</g>
</g>
</svg>
