<?xml version="1.0" encoding="UTF-8"?>
<svg width="65px" height="58px" viewBox="0 0 65 58" version="1.1" xmlns="http://www.w3.org/2000/svg" xmlns:xlink="http://www.w3.org/1999/xlink">
    <!-- Generator: Sketch 50.2 (55047) - http://www.bohemiancoding.com/sketch -->
    <title>if_money_bag_309025</title>
    <desc>Created with Sketch.</desc>
    <defs></defs>
    <g id="Page-1" stroke="none" stroke-width="1" fill="none" fill-rule="evenodd">
        <g id="New-landing-page-Copy-5" transform="translate(-262.000000, -1919.000000)" fill="#FFD402" fill-rule="nonzero">
            <g id="if_money_bag_309025" transform="translate(262.000000, 1919.000000)">
                <path d="M22.85,11.7209302 C23.825,13.3488372 28.375,14 31.3,14 C34.225,14 38.775,12.6976744 38.45,10.4186047 C38.125,6.18604651 42.35,0.651162791 43,0 C41.7,0.651162791 40.725,1.62790698 39.425,1.30232558 C38.775,1.95348837 37.15,5.86046512 33.9,5.86046512 C31.625,5.86046512 31.3,2.60465116 29.675,2.60465116 C28.05,2.60465116 27.725,4.88372093 26.425,5.20930233 C23.5,5.86046512 21.225,2.93023256 19.6,0.976744186 C18.95,0.976744186 17.65,0 17,2.27906977 C17.65,2.93023256 21.875,10.0930233 22.85,11.7209302 Z" id="Shape"></path>
                <path d="M37.7,15 C35.425,15.9772727 32.825,16.6287879 31.2,16.6287879 L30.55,16.6287879 C29.9,16.6287879 26.975,16.6287879 24.375,15.6515152 C10.4,19.8863636 0,34.219697 0,44.3181818 C0,56.3712121 14.625,58 32.5,58 C50.375,58 65,56.3712121 65,44.3181818 C65,33.5681818 53.3,18.2575758 37.7,15 Z M31.2128713,33.7299708 C31.5346535,34.0545548 32.1782178,34.7037228 33.1435644,35.3528907 C35.0742574,36.0020587 36.6831683,36.9758106 37.6485149,37.9495625 C38.6138614,38.9233145 39.2574257,40.5462343 39.2574257,42.4937382 C39.2574257,44.1166581 38.6138614,45.739578 37.6485149,46.7133299 C36.6831683,47.6870818 35.3960396,48.3362498 33.7871287,48.6608338 L33.7871287,51.5820896 L31.5346535,51.5820896 L31.5346535,48.6608338 C29.9257426,48.3362498 28.3168317,47.6870818 27.3514851,46.7133299 C26.3861386,45.739578 25.7425743,43.7920741 25.7425743,41.8445703 L29.9257426,41.8445703 C29.9257426,43.1429062 30.2475248,44.1166581 30.5693069,44.765826 C30.8910891,45.414994 31.8564356,45.739578 32.5,45.739578 C33.1435644,45.739578 33.7871287,45.414994 34.1089109,45.09041 C34.4306931,44.4412421 34.7524752,43.7920741 34.7524752,43.1429062 C34.7524752,42.1691542 34.4306931,41.5199863 34.1089109,41.1954023 C33.7871287,40.5462343 33.1435644,40.2216504 32.1782178,39.5724824 C30.2475248,38.9233145 28.6386139,37.9495625 27.6732673,36.9758106 C26.7079208,36.0020587 26.0643564,34.3791388 26.0643564,32.7562189 C26.0643564,31.133299 26.7079208,29.5103791 27.6732673,28.5366272 C28.6386139,27.5628753 29.9257426,26.9137073 31.5346535,26.5891233 L31.5346535,23.3432836 L33.7871287,23.3432836 L33.7871287,26.5891233 C35.3960396,26.9137073 36.6831683,27.5628753 37.6485149,28.8612112 C38.6138614,30.1595471 38.9356436,31.457883 38.9356436,33.4053869 L34.7524752,33.4053869 C34.7524752,32.4316349 34.4306931,31.457883 34.1089109,30.808715 C33.7871287,30.1595471 33.1435644,29.8349631 32.5,29.8349631 C31.8564356,29.8349631 31.2128713,30.1595471 30.8910891,30.4841311 C30.5693069,31.133299 30.5693069,31.782467 30.5693069,32.4316349 C30.8910891,32.7562189 30.8910891,33.4053869 31.2128713,33.7299708 Z" id="Shape"></path>
            </g>
        </g>
    </g>
</svg>