<?xml version="1.0" encoding="UTF-8"?>
<svg width="51px" height="31px" viewBox="0 0 51 31" version="1.1" xmlns="http://www.w3.org/2000/svg" xmlns:xlink="http://www.w3.org/1999/xlink">
    <!-- Generator: Sketch 50.2 (55047) - http://www.bohemiancoding.com/sketch -->
    <title>ninja-portrait</title>
    <desc>Created with Sketch.</desc>
    <defs></defs>
    <g id="Page-1" stroke="none" stroke-width="1" fill="none" fill-rule="evenodd">
        <g id="New-landing-page-Copy-5" transform="translate(-695.000000, -996.000000)" fill-rule="nonzero">
            <g id="ninja-portrait" transform="translate(695.000000, 996.000000)">
                <path d="M30.162692,30.7621195 C33.0831945,30.0389813 33.0194798,29.1892459 32.9942903,28.8650805 C32.9231669,28 31.9733739,28 31.5169991,28 C31.0354347,28 30.4620027,28.0594623 29.8574543,28.1707143 C29.3344013,28.2685394 27.593361,28.6406583 27.138468,29.4462765 C27.025856,29.6495992 26.9799222,29.8855302 27.0080752,30.1157068 C27.1206871,30.9999687 28.0897427,30.9999687 28.4557316,30.9999687 C28.9417412,31.0018868 29.5492531,30.9155706 30.162692,30.7621195 Z" id="Shape" fill="#9B9B9B"></path>
                <path d="M15.7351199,31 C16.021162,31 16.8884313,31 16.9916154,30.1185468 C17.0190441,29.8910134 16.9785541,29.6520076 16.8792884,29.4474187 C16.4926744,28.6558317 15.0676882,28.2715105 14.6405843,28.1739962 C14.14948,28.0592734 13.6805799,28 13.2835168,28 C12.9256376,28 12.0844909,28 12.0048171,28.8661568 C11.9303678,29.6787763 12.7192693,30.3212237 14.3453992,30.7820268 C14.8469525,30.9254302 15.3276078,31 15.7351199,31 Z" id="Shape" fill="#9B9B9B"></path>
                <path d="M50.9798233,9.62605605 C50.9798233,9.62605605 50.8311298,9.29512997 50.4622015,8.7973504 C50.2798415,8.54428928 50.0399679,8.25507657 49.7425809,7.93527406 C49.4508049,7.60017664 49.0818766,7.28732635 48.6428098,7.02592256 C48.2079514,6.74505253 47.7155794,6.46557294 47.176916,6.2027787 C46.6410582,5.92747044 46.0308536,5.8287488 45.3996075,5.69665645 C45.201817,5.66745709 44.9998182,5.65216219 44.7964167,5.63269595 C45.2481084,5.46028068 45.6871751,5.29203675 46.0897699,5.0959839 C46.5232256,4.91244507 46.9286259,4.72890623 47.2919431,4.54675785 C47.6552603,4.34792411 47.9821055,4.21583176 48.2542428,4.06010184 C48.79992,3.76949869 49.1253624,3.53312292 49.1253624,3.53312292 C49.1576261,3.51087579 49.1758621,3.49140955 49.1912926,3.46777197 C49.2628338,3.36209809 49.2333757,3.21888219 49.1253624,3.1493599 C49.1253624,3.1493599 48.8013227,2.93523126 48.2023403,2.68356058 C47.9035505,2.55981092 47.5346222,2.40408099 47.1081803,2.30814024 C46.6817385,2.21219949 46.1907693,2.10374472 45.6549115,2.04117466 C45.1204564,2.00502307 44.5340989,1.97999505 43.919686,2.02170842 C43.3094814,2.08844982 42.6585965,2.16075299 42.0203365,2.37905297 C41.3806737,2.59179117 40.7452193,2.8879561 40.1378202,3.26893823 C39.5163935,3.60681654 38.930036,4.04897828 38.3268452,4.42022729 C38.2174292,4.50087314 38.109416,4.58151899 38,4.66077439 C38.5260384,5.1293546 39.0282298,5.62713417 39.5163935,6.14716087 C39.7604753,6.41412644 40.0003489,6.6866538 40.2374169,6.96474295 C40.7746775,7.59322441 41.2754661,8.25507657 41.749602,8.9433472 C42.2209325,9.02955484 42.6922629,9.12549559 43.1439546,9.22977902 C43.6924374,9.32711022 44.198837,9.53289619 44.7024312,9.63857006 C45.201817,9.74563438 45.7208416,9.73451082 46.1879637,9.80125221 C46.6536831,9.87216494 47.1123886,9.90692609 47.5556637,9.91526876 C47.7758985,9.92500188 47.9961332,9.91665921 48.2079514,9.90970698 C48.4113529,9.92222099 48.5895046,9.96532481 48.7802812,9.96671525 C49.1478067,9.99174328 49.4900824,10.0042573 49.7860667,9.9986955 C50.3752298,9.99591461 50.7722135,9.94863946 50.7722135,9.94863946 C50.8227131,9.94307768 50.8437547,9.93751589 50.866199,9.92778277 C50.9798233,9.87633628 51.0317258,9.74146305 50.9798233,9.62605605 Z" id="Shape" fill="#4A4A4A"></path>
                <path d="M39.1779106,10.5981112 C38.1536515,9.94193774 37.0069267,9.47743966 35.8949932,8.95557887 C34.7357434,8.54704442 33.5945852,8.07135362 32.404719,7.8209164 C31.2412942,7.47394194 30.0542113,7.33543197 28.9144448,7.12556838 C27.7621533,7.08219657 26.6446532,6.87513116 25.5800361,6.93809024 C25.0470317,6.94228751 24.5279438,6.94648478 24.0255559,6.95068206 C23.5273429,7.0038475 23.0430465,7.05701294 22.5796249,7.10598111 C21.6458234,7.18013291 20.8066546,7.35362015 20.0551602,7.49632739 C19.6780213,7.56628192 19.3259323,7.63343827 19.0002847,7.69359916 C18.682987,7.78733823 18.3907392,7.87268276 18.1263244,7.94963274 C17.058924,8.24623994 16.4479868,8.41552991 16.4479868,8.41552991 C16.4479868,8.41552991 17.0255242,8.15250087 18.0372584,7.69220007 C18.2933232,7.58167191 18.5772211,7.45855194 18.8861688,7.32423924 C19.2062498,7.22210563 19.5527722,7.11017838 19.9229528,6.99265477 C20.663314,6.74921301 21.5024828,6.46239944 22.4571591,6.32948583 C22.931714,6.24134313 23.425752,6.15040224 23.9364899,6.05666317 C24.4555777,6.01189227 24.9913654,5.96712137 25.5424613,5.91955229 C26.6460448,5.77264778 27.8178195,5.88037775 29.0327356,5.90136411 C30.2281684,6.08044771 31.4945757,6.14760406 32.7220166,6.50996852 C33.9772907,6.76180483 35.1880318,7.24029381 36.4154727,7.66281917 C37.187842,8.03497726 37.957428,8.40433718 38.7103141,8.80027982 C38.4500743,8.45330535 38.2065345,8.09094089 37.9282032,7.76075551 C37.6930133,7.48093739 37.4564317,7.20671563 37.2101085,6.94088842 C36.7285954,6.41762854 36.2289907,5.9181532 35.7043363,5.44526058 C31.9440807,2.04547044 27.1860075,0 21.9979125,0 C9.84875225,0 0,11.1493529 0,24.9038125 C0,25.9545296 0.0765411013,26.9828611 0.187873612,28 C1.54195528,25.6453305 10.781162,23.8237146 22.0020875,23.8237146 C33.2230129,23.8237146 42.4636113,25.6453305 43.8121264,27.9972018 C43.9234589,26.980063 44,25.9517314 44,24.9010143 C44,19.9146555 42.6904513,15.2822665 40.4582345,11.3913956 C40.0463042,11.1129766 39.6301989,10.8359566 39.1779106,10.5981112 Z" id="Shape" fill="#4A4A4A"></path>
            </g>
        </g>
    </g>
</svg>