<?xml version="1.0" encoding="UTF-8"?>
<svg width="61px" height="37px" viewBox="0 0 61 37" version="1.1" xmlns="http://www.w3.org/2000/svg" xmlns:xlink="http://www.w3.org/1999/xlink">
    <!-- Generator: Sketch 50.2 (55047) - http://www.bohemiancoding.com/sketch -->
    <title>ninja-portrait</title>
    <desc>Created with Sketch.</desc>
    <defs></defs>
    <g id="Page-1" stroke="none" stroke-width="1" fill="none" fill-rule="evenodd">
        <g id="New-landing-page-Copy-5" transform="translate(-690.000000, -1039.000000)" fill-rule="nonzero">
            <g id="ninja-portrait" transform="translate(690.000000, 1039.000000)">
                <path d="M35.6898073,36.7621195 C39.0970602,36.0389813 39.0227264,35.1892459 38.9933387,34.8650805 C38.9103614,34 37.8022695,34 37.2698323,34 C36.7080072,34 36.0390032,34.0594623 35.3336967,34.1707143 C34.7234682,34.2685394 32.6922545,34.6406583 32.161546,35.4462765 C32.0301653,35.6495992 31.9765759,35.8855302 32.009421,36.1157068 C32.1408016,36.9999687 33.2713665,36.9999687 33.6983536,36.9999687 C34.2653647,37.0018868 34.9741286,36.9155706 35.6898073,36.7621195 Z" id="Shape" fill="#FFFFFF"></path>
                <path d="M18.4821438,37 C18.8253944,37 19.8661175,37 19.9899385,36.1185468 C20.0228529,35.8910134 19.974265,35.6520076 19.855146,35.4474187 C19.3912092,34.6558317 17.6812259,34.2715105 17.1687011,34.1739962 C16.579376,34.0592734 16.0166958,34 15.5402202,34 C15.1107652,34 14.1013891,34 14.0057805,34.8661568 C13.9164413,35.6787763 14.8631232,36.3212237 16.8144791,36.7820268 C17.4163431,36.9254302 17.9931294,37 18.4821438,37 Z" id="Shape" fill="#FFFFFF"></path>
                <path d="M60.9751671,11.5325701 C60.9751671,11.5325701 60.7921597,11.1189125 60.3380941,10.496688 C60.113651,10.1803616 59.8184221,9.81884572 59.4524072,9.41909257 C59.0932983,9.0002208 58.6392327,8.60915794 58.0988429,8.2824032 C57.5636325,7.93131566 56.9576362,7.58196617 56.2946659,7.25347337 C55.6351485,6.90933805 54.8841275,6.785936 54.1072092,6.62082057 C53.8637748,6.58432137 53.6151609,6.56520274 53.3648206,6.54086994 C53.9207488,6.32535085 54.4611386,6.11504594 54.9566399,5.86997988 C55.4901238,5.64055634 55.989078,5.41113279 56.4362377,5.18344731 C56.8833973,4.93490513 57.2856684,4.76978971 57.6206065,4.57512731 C58.2922092,4.21187336 58.6927538,3.91640365 58.6927538,3.91640365 C58.7324629,3.88859473 58.7549072,3.86426193 58.7738986,3.83471496 C58.8619493,3.70262262 58.8256931,3.52360273 58.6927538,3.43669987 C58.6927538,3.43669987 58.2939357,3.16903907 57.5567265,2.85445073 C57.1889852,2.69976364 56.7349196,2.50510124 56.2100681,2.3851753 C55.6852166,2.26524936 55.0809468,2.1296809 54.4214295,2.05146833 C53.7636386,2.00627884 53.0419678,1.97499381 52.2857673,2.02713553 C51.5347463,2.11056227 50.7336572,2.20094124 49.9481065,2.47381621 C49.1608292,2.73973896 48.3787314,3.10994513 47.6311634,3.58617279 C46.8663305,4.00852068 46.1446597,4.56122285 45.402271,5.02528411 C45.2676052,5.12609142 45.1346658,5.22689874 45,5.32596799 C45.6474319,5.91169325 46.2655136,6.53391771 46.8663305,7.18395108 C47.1667389,7.51765806 47.4619678,7.85831726 47.7537438,8.20592869 C48.4149876,8.99153052 49.0313428,9.81884572 49.6148948,10.679184 C50.1949938,10.7869435 50.7750928,10.9068695 51.3310211,11.0372238 C52.0060768,11.1588878 52.6293379,11.4161202 53.2491461,11.5482126 C53.8637748,11.682043 54.5025743,11.6681385 55.0774938,11.7515653 C55.6506869,11.8402062 56.2152476,11.8836576 56.7608169,11.894086 C57.031875,11.9062524 57.3029332,11.895824 57.5636325,11.8871337 C57.8139728,11.9027762 58.0332364,11.956656 58.2680384,11.9583941 C58.7203775,11.9896791 59.1416399,12.0053216 59.5059283,11.9983694 C60.231052,11.9948933 60.7196473,11.9357993 60.7196473,11.9357993 C60.7818008,11.9288471 60.8076981,11.9218949 60.8353218,11.9097285 C60.9751671,11.8454204 61.0390471,11.6768288 60.9751671,11.5325701 Z" id="Shape" fill="#FFD402"></path>
                <path d="M47.1915742,12.8691351 C45.9578075,12.072353 44.5765253,11.5083196 43.2371509,10.8746315 C41.8407819,10.3785539 40.4662049,9.8009294 39.032957,9.49682706 C37.631559,9.07550092 36.2016637,8.90731025 34.828763,8.65247589 C33.4407755,8.59981012 32.0946959,8.34837356 30.8123162,8.42482386 C30.1702881,8.42992055 29.5450232,8.43501724 28.9398741,8.44011393 C28.3397539,8.50467196 27.7563969,8.56923 27.1981845,8.62869135 C26.0733782,8.71873282 25.0625613,8.92939589 24.1573521,9.10268326 C23.7030711,9.18762804 23.2789638,9.26917504 22.8867065,9.34222755 C22.5045071,9.45605357 22.1524813,9.5596862 21.8339817,9.65312547 C20.5482494,10.0132914 19.8123478,10.2188577 19.8123478,10.2188577 C19.8123478,10.2188577 20.5080178,9.89946535 21.7266977,9.34052866 C22.0351393,9.20631589 22.3771073,9.05681307 22.7492488,8.89371908 C23.1348009,8.7696997 23.5522029,8.63378804 23.9981023,8.4910808 C24.889901,8.19547294 25.900718,7.84719932 27.0506689,7.68580423 C27.6222918,7.5787738 28.2173831,7.46834558 28.8325901,7.35451956 C29.457855,7.3001549 30.1032356,7.24579024 30.7670557,7.18802778 C32.0963722,7.00964373 33.5078281,7.1404587 34.9712496,7.16594214 C36.4112028,7.38340079 37.936648,7.46494778 39.4151564,7.90496177 C40.9271911,8.210763 42.3855837,8.79178534 43.8640921,9.30485185 C44.794446,9.75675811 45.7214473,10.2052666 46.6283329,10.6860541 C46.3148623,10.2647279 46.0215074,9.82471394 45.6862447,9.42377455 C45.4029478,9.0839954 45.1179745,8.75101184 44.821267,8.42822166 C44.2412626,7.79283466 43.6394661,7.18632889 43.007496,6.61210213 C38.4780972,2.48378554 32.7467818,0 26.4974855,0 C11.8632698,0 0,13.5385 0,30.2403438 C0,31.5162145 0.0921972357,32.7649028 0.226302306,34 C1.85735522,31.1407585 12.9863997,28.9287963 26.5025145,28.9287963 C40.0186292,28.9287963 51.14935,31.1407585 52.7736977,33.9966022 C52.9078028,32.761505 53,31.5128167 53,30.236946 C53,24.1820816 51.4225891,18.5570379 48.7337825,13.8324089 C48.2375937,13.4943287 47.736376,13.1579473 47.1915742,12.8691351 Z" id="Shape" fill="#FFD402"></path>
            </g>
        </g>
    </g>
</svg>