<svg xmlns="http://www.w3.org/2000/svg" viewBox="0 0 60 60"><defs><style>.cls-1{fill:#fff;}</style></defs><title>Asset 2</title><g id="Layer_2" data-name="Layer 2"><g id="Layer_1-2" data-name="Layer 1"><path class="cls-1" d="M30,0A30,30,0,1,0,60,30,30,30,0,0,0,30,0ZM21.4,27.74c-1.78.62-3.45.31-3.76-1.49a5.44,5.44,0,0,1,0-1.2,4.07,4.07,0,0,1,.26-.94C19.27,20.36,24.17,17.6,30,17.6s10.73,2.76,12.11,6.51a4.07,4.07,0,0,1,.26.94,5.44,5.44,0,0,1,0,1.2c-.31,1.8-2,2.27-3.76,1.49C35,26.09,26.33,26,21.4,27.74Zm28.35,22a27.73,27.73,0,0,1-8.88,6c-.32.14-.65.27-1,.39V43.31a5.37,5.37,0,0,0-.82-2.75,16.24,16.24,0,1,0-18.14,0,5.33,5.33,0,0,0-.82,2.85L17,41.1l.18-.3a10.72,10.72,0,0,0,.48-1,5.35,5.35,0,0,0,.27-.72,2.35,2.35,0,0,0,.08-.29l-.24.17c-.15.12-.36.29-.59.51s-.48.48-.74.78a2.43,2.43,0,0,0-.2.25l-4-3-1.66,2.22,4,3,0,0a10,10,0,0,0-.76,1.68,2.35,2.35,0,0,0-.08.29l.25-.17c.15-.12.35-.29.58-.51a8.11,8.11,0,0,0,.74-.78h0l4.75,3.41,0,9.37c-.33-.12-.66-.25-1-.39a27.92,27.92,0,0,1-8.88-45.49,28,28,0,0,1,45.49,8.88,27.9,27.9,0,0,1-6,30.62Z"/></g></g></svg>