<?xml version="1.0" encoding="UTF-8"?>
<svg width="71px" height="30px" viewBox="0 0 71 30" version="1.1" xmlns="http://www.w3.org/2000/svg" xmlns:xlink="http://www.w3.org/1999/xlink">
    <!-- Generator: Sketch 50.2 (55047) - http://www.bohemiancoding.com/sketch -->
    <title>Group 7</title>
    <desc>Created with Sketch.</desc>
    <defs></defs>
    <g id="Page-1" stroke="none" stroke-width="1" fill="none" fill-rule="evenodd">
        <g id="After-clock-down" transform="translate(-758.000000, -96.000000)" fill="#FFFFFF">
            <g id="Group-7" transform="translate(758.000000, 96.000000)">
                <g id="Group-2">
                    <path d="M15.4950819,22.5782857 L9.14246203,13.9680571 C7.76654898,12.1103707 6.47846016,10.3116586 5.1610966,8.45397229 L5.1025471,8.48345937 C5.13182185,10.5180682 5.1610966,12.5821641 5.1610966,14.64626 L5.1610966,22.5782857 L0.682060482,22.5782857 L0.682060482,1.22963662 L5.07327236,1.22963662 L11.4258922,9.83986525 C12.8018053,11.6975516 14.0898941,13.4962637 15.4072576,15.35395 L15.4658071,15.3244629 C15.4365324,13.2898541 15.4072576,11.2257582 15.4072576,9.16166231 L15.4072576,1.22963662 L19.8862938,1.22963662 L19.8862938,22.5782857 L15.4950819,22.5782857 Z M23.311439,3.47065503 C23.311439,2.05527498 24.4824289,0.905278692 25.8876167,0.905278692 C27.2928045,0.905278692 28.4637943,2.05527498 28.4637943,3.47065503 C28.4637943,4.88603508 27.2928045,6.03603137 25.8876167,6.03603137 C24.4824289,6.03603137 23.311439,4.88603508 23.311439,3.47065503 Z M23.662736,22.5782857 L23.662736,8.07064019 L28.1124973,8.07064019 L28.1124973,22.5782857 L23.662736,22.5782857 Z M31.8011153,22.5782857 L31.8011153,8.07064019 L36.1923272,8.07064019 L36.1923272,9.39755898 L36.2508767,9.42704607 C37.363317,8.51294645 38.8856038,7.74628226 40.7006381,7.74628226 C42.2229248,7.74628226 43.5695631,8.27704978 44.4770803,9.22063648 C45.3553226,10.1642232 45.7358943,11.4321678 45.7358943,13.5257508 L45.7358943,22.5782857 L41.286133,22.5782857 L41.286133,14.2629279 C41.286133,13.1719058 41.1397592,12.6411383 40.7884623,12.2283191 C40.4078906,11.7860128 39.8809452,11.6090903 39.2661755,11.6090903 C38.1244604,11.6090903 37.0412948,12.198832 36.2508767,12.8180608 L36.2508767,22.5782857 L31.8011153,22.5782857 Z M49.1024901,3.47065503 C49.1024901,2.05527498 50.2734799,0.905278692 51.6786677,0.905278692 C53.0838555,0.905278692 54.2548454,2.05527498 54.2548454,3.47065503 C54.2548454,4.88603508 53.0838555,6.03603137 51.6786677,6.03603137 C50.2734799,6.03603137 49.1024901,4.88603508 49.1024901,3.47065503 Z M49.4537871,23.2859757 L49.4537871,8.07064019 L53.9035484,8.07064019 L53.9035484,22.9911049 C53.9035484,25.6744295 53.4351525,26.9423742 52.5861849,27.8269867 C51.5030193,28.9474959 49.7758093,29.3898022 48.2242477,29.3898022 C47.4045548,29.3898022 46.6434115,29.2718538 46.2042903,29.1539055 L46.2042903,25.46802 C46.6726862,25.5564812 47.2581811,25.6154554 47.6680276,25.6154554 C49.2195891,25.6154554 49.4537871,24.7603299 49.4537871,23.2859757 Z M65.7598205,21.6936732 L65.701271,21.6936732 C64.7644791,22.3718761 63.3300166,22.9026436 61.6906308,22.9026436 C60.4610915,22.9026436 59.2901017,22.6077728 58.3533098,21.9590569 C57.2994189,21.2218798 56.6553745,20.0718835 56.6553745,18.5680422 C56.6553745,16.9757397 57.3872432,15.7667692 58.4118593,15.0590792 C59.5242996,14.292415 60.9587622,14.0270312 62.4517742,14.0270312 C63.3007418,14.0270312 64.1497095,14.1154925 64.9401276,14.292415 L64.9401276,13.7321604 C64.9401276,13.0244704 64.7059296,12.4937028 64.3839074,12.198832 C63.974061,11.8154999 63.2129176,11.5796032 62.1590268,11.5796032 C60.5489157,11.5796032 59.0851784,12.1103707 57.9434634,12.7295995 L57.9434634,8.86679147 C59.1144532,8.27704978 60.8709379,7.74628226 62.9787196,7.74628226 C64.9108529,7.74628226 66.6380629,8.18858853 67.779778,9.13217523 C68.8629436,10.0167878 69.389889,11.3142195 69.389889,13.1424187 L69.389889,18.0667618 C69.389889,18.7449647 69.6533617,19.2167581 70.2681314,19.2167581 C70.5023293,19.2167581 70.765802,19.1577839 71,19.0398356 L71,22.4013632 C70.5023293,22.6667469 69.7119112,22.8436694 68.8629436,22.8436694 C67.6919537,22.8436694 66.5502386,22.5193115 65.7598205,21.6936732 Z M64.9401276,19.0103485 L64.9401276,16.8872784 C64.4717317,16.739843 63.8276873,16.6808688 63.3592913,16.6808688 C62.2175762,16.6808688 61.0758612,17.0347138 61.0758612,18.155223 C61.0758612,19.0988097 61.895554,19.6000902 62.9201701,19.6000902 C63.6813135,19.6000902 64.4131822,19.3347064 64.9401276,19.0103485 Z" id="ShakeNinja"></path>
                </g>
            </g>
        </g>
    </g>
</svg>