<?xml version="1.0" encoding="UTF-8"?>
<svg width="192px" height="37px" viewBox="0 0 192 37" version="1.1" xmlns="http://www.w3.org/2000/svg" xmlns:xlink="http://www.w3.org/1999/xlink">
    <!-- Generator: Sketch 50.2 (55047) - http://www.bohemiancoding.com/sketch -->
    <title>Group 2</title>
    <desc>Created with Sketch.</desc>
    <defs></defs>
    <g id="Page-1" stroke="none" stroke-width="1" fill="none" fill-rule="evenodd">
        <g id="New-landing-page" transform="translate(-765.000000, -108.000000)" fill="#FFFFFF">
            <g id="Group-2" transform="translate(765.000000, 108.000000)">
                <path d="M1.03951077,26.3191214 L1.03951077,20.4639693 C3.83175492,22.3550743 7.34925728,23.1915246 9.41624321,23.1915246 C11.519492,23.1915246 13.0787972,22.3550743 13.0787972,20.3912345 C13.0787972,17.9546185 10.6129193,17.736414 7.24046855,16.6453919 C3.61417745,15.4452676 0.350515464,13.6632648 0.350515464,9.08097187 C0.350515464,4.17137233 4.04933238,1.11651039 9.56129485,1.11651039 C12.1359615,1.11651039 15.2908348,1.77112366 17.5753982,3.0076154 L17.5753982,8.71729783 C14.783154,6.97166244 11.555755,6.17157955 9.52503194,6.17157955 C7.56683475,6.17157955 6.15258122,6.89892763 6.15258122,8.64456302 C6.15258122,10.9720769 8.58219626,11.1539139 11.7370695,12.2085686 C15.6897268,13.5177952 18.880863,15.3725328 18.880863,20.0275605 C18.880863,25.1553645 15.0007315,28.2465938 9.34371739,28.2465938 C6.7327878,28.2465938 3.50538872,27.5919805 1.03951077,26.3191214 Z M22.144525,27.8465523 L22.144525,0.0618556701 L27.6564874,0.0618556701 L27.6564874,11.5539553 L27.7290133,11.5903227 C29.0344781,10.4993006 30.9201494,9.55374812 33.1684499,9.55374812 C35.0541213,9.55374812 36.7222152,10.2083614 37.8463654,11.3721183 C38.9342527,12.5358753 39.4056706,14.0996736 39.4056706,16.6817593 L39.4056706,27.8465523 L33.8937081,27.8465523 L33.8937081,17.5909444 C33.8937081,16.2453505 33.7123936,15.5907372 33.2772386,15.0815935 C32.8058208,14.5360825 32.1530884,14.3178781 31.3915673,14.3178781 C29.9773137,14.3178781 28.635586,15.0452261 27.6564874,15.8089416 L27.6564874,27.8465523 L22.144525,27.8465523 Z M54.0196237,26.7555302 L53.9470979,26.7555302 C52.7866847,27.5919805 51.0098021,28.2465938 48.9790791,28.2465938 C47.4560368,28.2465938 46.0055204,27.8829198 44.8451072,27.0828369 C43.5396424,26.1736518 42.7418584,24.755323 42.7418584,22.9005854 C42.7418584,20.9367456 43.6484312,19.445682 44.9176331,18.5728643 C46.2956237,17.6273118 48.0725063,17.3000052 49.9219148,17.3000052 C50.9735392,17.3000052 52.0251636,17.4091074 53.0042622,17.6273118 L53.0042622,16.9363311 C53.0042622,16.0635134 52.7141589,15.4089002 52.3152669,15.0452261 C51.8075861,14.5724499 50.8647505,14.2815106 49.5592857,14.2815106 C47.5648256,14.2815106 45.75168,14.9361239 44.3374265,15.6998394 L44.3374265,10.9357095 C45.7879429,10.2083614 47.9637176,9.55374812 50.5746472,9.55374812 C52.9679993,9.55374812 55.107511,10.0992592 56.5217646,11.2630161 C57.8634923,12.3540382 58.5162247,13.954204 58.5162247,16.2089831 L58.5162247,22.2823395 C58.5162247,23.1187898 58.8425909,23.7006683 59.604112,23.7006683 C59.8942153,23.7006683 60.2205815,23.6279335 60.5106848,23.4824639 L60.5106848,27.6283479 C59.8942153,27.9556546 58.9151167,28.173859 57.8634923,28.173859 C56.4129758,28.173859 54.9987223,27.7738175 54.0196237,26.7555302 Z M53.0042622,23.4460965 L53.0042622,20.8276434 C52.4240556,20.6458064 51.6262716,20.5730715 51.046065,20.5730715 C49.6318115,20.5730715 48.217558,21.0094804 48.217558,22.3914417 C48.217558,23.5551987 49.2329195,24.1734445 50.5021214,24.1734445 C51.444957,24.1734445 52.3515298,23.8461379 53.0042622,23.4460965 Z M63.3754547,27.8465523 L63.3754547,0.0618556701 L68.8874172,0.0618556701 L68.8874172,17.5182096 L68.959943,17.554577 L75.1971637,9.95378957 L81.4706473,9.95378957 L74.6532201,17.9546185 L81.9783281,27.8465523 L75.4510041,27.8465523 L68.959943,18.7183339 L68.8874172,18.7547013 L68.8874172,27.8465523 L63.3754547,27.8465523 Z M101.088882,20.3548671 L88.9770699,20.3548671 C89.5935394,22.8278506 91.6242624,23.9552401 94.1626662,23.9552401 C96.1571263,23.9552401 98.3329009,23.2642594 100.218572,21.9914003 L100.218572,26.6100606 C98.4779526,27.7010827 95.7944972,28.2465938 93.437408,28.2465938 C87.5628164,28.2465938 83.3200558,24.573486 83.3200558,18.9729058 C83.3200558,13.2632233 87.7441309,9.55374812 92.6758868,9.55374812 C97.0636991,9.55374812 101.197671,12.4631404 101.197671,18.4637621 C101.197671,19.082008 101.161408,19.8820909 101.088882,20.3548671 Z M88.940807,16.8635963 L96.1208634,16.8635963 C95.7944972,14.9361239 94.3802436,13.772367 92.603361,13.772367 C90.8990042,13.772367 89.4122248,14.8270217 88.940807,16.8635963 Z M123.245521,27.8465523 L115.376469,17.2272704 C113.672112,14.9361239 112.076544,12.7177123 110.444713,10.4265658 L110.372187,10.4629332 C110.40845,12.9722841 110.444713,15.5180024 110.444713,18.0637207 L110.444713,27.8465523 L104.896488,27.8465523 L104.896488,1.51655183 L110.335924,1.51655183 L118.204976,12.1358338 C119.909333,14.4269803 121.504901,16.6453919 123.136732,18.9365384 L123.209258,18.900171 C123.172995,16.3908201 123.136732,13.8451018 123.136732,11.2993835 L123.136732,1.51655183 L128.684957,1.51655183 L128.684957,27.8465523 L123.245521,27.8465523 Z M132.927718,4.28047454 C132.927718,2.53483914 134.378234,1.11651039 136.118854,1.11651039 C137.859474,1.11651039 139.30999,2.53483914 139.30999,4.28047454 C139.30999,6.02610993 137.859474,7.44443869 136.118854,7.44443869 C134.378234,7.44443869 132.927718,6.02610993 132.927718,4.28047454 Z M133.362873,27.8465523 L133.362873,9.95378957 L138.874835,9.95378957 L138.874835,27.8465523 L133.362873,27.8465523 Z M143.443962,27.8465523 L143.443962,9.95378957 L148.883399,9.95378957 L148.883399,11.5903227 L148.955925,11.6266902 C150.333915,10.4993006 152.219587,9.55374812 154.467887,9.55374812 C156.353559,9.55374812 158.021652,10.2083614 159.145803,11.3721183 C160.23369,12.5358753 160.705108,14.0996736 160.705108,16.6817593 L160.705108,27.8465523 L155.193145,27.8465523 L155.193145,17.5909444 C155.193145,16.2453505 155.011831,15.5907372 154.576676,15.0815935 C154.105258,14.5360825 153.452526,14.3178781 152.691004,14.3178781 C151.276751,14.3178781 149.935023,15.0452261 148.955925,15.8089416 L148.955925,27.8465523 L143.443962,27.8465523 Z M164.875343,4.28047454 C164.875343,2.53483914 166.325859,1.11651039 168.066479,1.11651039 C169.807098,1.11651039 171.257615,2.53483914 171.257615,4.28047454 C171.257615,6.02610993 169.807098,7.44443869 168.066479,7.44443869 C166.325859,7.44443869 164.875343,6.02610993 164.875343,4.28047454 Z M165.310498,28.71937 L165.310498,9.95378957 L170.82246,9.95378957 L170.82246,28.355696 C170.82246,31.6651298 170.242253,33.2289281 169.190629,34.3199503 C167.848901,35.7019116 165.70939,36.2474227 163.787455,36.2474227 C162.772094,36.2474227 161.829258,36.1019531 161.285314,35.9564834 L161.285314,31.4105579 C161.865521,31.5196602 162.590779,31.592395 163.09846,31.592395 C165.020394,31.592395 165.310498,30.5377402 165.310498,28.71937 Z M185.508939,26.7555302 L185.436413,26.7555302 C184.276,27.5919805 182.499117,28.2465938 180.468394,28.2465938 C178.945352,28.2465938 177.494836,27.8829198 176.334422,27.0828369 C175.028958,26.1736518 174.231174,24.755323 174.231174,22.9005854 C174.231174,20.9367456 175.137746,19.445682 176.406948,18.5728643 C177.784939,17.6273118 179.561822,17.3000052 181.41123,17.3000052 C182.462854,17.3000052 183.514479,17.4091074 184.493577,17.6273118 L184.493577,16.9363311 C184.493577,16.0635134 184.203474,15.4089002 183.804582,15.0452261 C183.296901,14.5724499 182.354066,14.2815106 181.048601,14.2815106 C179.054141,14.2815106 177.240995,14.9361239 175.826742,15.6998394 L175.826742,10.9357095 C177.277258,10.2083614 179.453033,9.55374812 182.063962,9.55374812 C184.457315,9.55374812 186.596826,10.0992592 188.01108,11.2630161 C189.352807,12.3540382 190.00554,13.954204 190.00554,16.2089831 L190.00554,22.2823395 C190.00554,23.1187898 190.331906,23.7006683 191.093427,23.7006683 C191.383531,23.7006683 191.709897,23.6279335 192,23.4824639 L192,27.6283479 C191.383531,27.9556546 190.404432,28.173859 189.352807,28.173859 C187.902291,28.173859 186.488038,27.7738175 185.508939,26.7555302 Z M184.493577,23.4460965 L184.493577,20.8276434 C183.913371,20.6458064 183.115587,20.5730715 182.53538,20.5730715 C181.121127,20.5730715 179.706873,21.0094804 179.706873,22.3914417 C179.706873,23.5551987 180.722235,24.1734445 181.991437,24.1734445 C182.934272,24.1734445 183.840845,23.8461379 184.493577,23.4460965 Z" id="ShakeNinja"></path>
            </g>
        </g>
    </g>
</svg>