<?xml version="1.0" encoding="UTF-8"?>
<svg width="71px" height="71px" viewBox="0 0 71 71" version="1.1" xmlns="http://www.w3.org/2000/svg" xmlns:xlink="http://www.w3.org/1999/xlink">
    <!-- Generator: Sketch 50.2 (55047) - http://www.bohemiancoding.com/sketch -->
    <title>Group 9 Copy</title>
    <desc>Created with Sketch.</desc>
    <defs></defs>
    <g id="Page-1" stroke="none" stroke-width="1" fill="none" fill-rule="evenodd">
        <g id="Main-page-Copy-4" transform="translate(-97.000000, -40.000000)">
            <g id="Group-3" transform="translate(99.000000, 42.000000)">
                <g id="Group-9-Copy">
                    <circle id="Oval-2" stroke="#FFFFFF" stroke-width="4" stroke-linecap="round" cx="33.5" cy="33.5" r="33.5"></circle>
                    <g id="Group" transform="translate(13.400000, 12.611765)">
                        <path d="M7.35746513,40.0393082 C6.33765002,41.0591233 4.68415794,41.0591233 3.66415628,40.0393082 C2.64434116,39.0194931 2.64434116,37.3658145 3.66415628,36.3459994 C4.68415794,35.3261842 6.33765002,35.3261842 7.35746513,36.3459994 C8.37746679,37.3658145 8.37746679,39.0194931 7.35746513,40.0393082" id="Fill-4" transform="translate(5.510881, 38.192654) rotate(-4.000000) translate(-5.510881, -38.192654) "></path>
                        <path d="M3.96556939,39.490558 C3.16568513,38.6904872 3.16568513,37.3886233 3.96556939,36.5885525 C4.76564018,35.7886683 6.06750404,35.7886683 6.86757483,36.5885525 C7.66764563,37.3886233 7.66764563,38.6904872 6.86757483,39.490558 C6.06750404,40.2906287 4.76564018,40.2906287 3.96556939,39.490558 M9.82125191,36.0091587 L17.4679066,28.3623175 L15.0936233,25.9880342 L7.44678207,33.6348754 C5.65525026,32.8113006 3.46097822,33.1362536 1.98712433,34.6101074 C0.0961666115,36.5010652 0.0959800714,39.5780453 1.98712433,41.469003 C3.87808205,43.3601473 6.95506217,43.3601473 8.84601989,41.469003 C10.3198738,39.9951491 10.6448268,37.8008771 9.82125191,36.0091587" id="Fill-6" fill="#FFFFFF" transform="translate(9.018371, 34.437698) rotate(-4.000000) translate(-9.018371, -34.437698) "></path>
                        <polygon id="Fill-8" fill="#FFFFFF" transform="translate(27.195768, 12.670507) rotate(-4.000000) translate(-27.195768, -12.670507) " points="39.0670915 0.799183701 15.324445 7.92203361 18.8856835 20.9805918 31.9442416 24.5418302"></polygon>
                        <polygon id="Fill-10" fill="#FFFFFF" transform="translate(22.297492, 18.666177) rotate(-4.000000) translate(-22.297492, -18.666177) " points="16.8236571 24.1401978 16.3617836 7.98190166 11.613217 29.3504514 32.9817667 24.6018848"></polygon>
                        <polygon id="Fill-12" fill="#FFFFFF" opacity="0.100000001" transform="translate(24.302515, 16.132055) rotate(-4.000000) translate(-24.302515, -16.132055) " points="19.5539481 20.8806218 15.9925232 7.82206366 16.4542101 23.9803598 32.6125063 24.4420468"></polygon>
                    </g>
                </g>
            </g>
        </g>
    </g>
</svg>