<?xml version="1.0" encoding="UTF-8"?>
<svg width="61px" height="61px" viewBox="0 0 61 61" version="1.1" xmlns="http://www.w3.org/2000/svg" xmlns:xlink="http://www.w3.org/1999/xlink">
    <!-- Generator: Sketch 50.2 (55047) - http://www.bohemiancoding.com/sketch -->
    <title>Fill 1</title>
    <desc>Created with Sketch.</desc>
    <defs></defs>
    <g id="Page-1" stroke="none" stroke-width="1" fill="none" fill-rule="evenodd">
        <g id="New-landing-page-Copy-5" transform="translate(-267.000000, -1795.000000)" fill="#FFD402">
            <path d="M302.892218,1831.8021 C299.411059,1834.78135 294.174763,1834.37169 291.196854,1830.89266 C290.831547,1830.46498 290.516843,1830.00956 290.253434,1829.53543 C288.367286,1826.15622 289.054922,1821.81004 292.107002,1819.19679 C295.588161,1816.22031 300.825149,1816.62859 303.801672,1820.109 C304.075479,1820.42855 304.291059,1820.77236 304.504559,1821.12034 C306.64857,1824.54183 306.052434,1829.09874 302.892218,1831.8021 M315.004229,1819.26501 C314.596372,1818.11967 314.06744,1817.00792 313.430688,1815.93902 C312.9075,1815.06102 312.317588,1814.21306 311.630463,1813.40973 C311.575669,1813.34389 311.510271,1813.28689 311.453268,1813.22105 C311.641068,1808.59992 313.242889,1800.5472 322.184363,1800.78139 C322.184363,1800.78139 300.328456,1783.82312 291.265906,1807.99455 C289.181993,1808.73602 287.190874,1809.84468 285.408324,1811.36871 C285.343367,1811.42527 285.285922,1811.48934 285.220966,1811.54679 C280.598884,1811.36076 272.547359,1809.75631 272.781114,1800.8163 C272.781114,1800.8163 255.823023,1822.67054 279.995274,1831.73472 C280.374408,1832.79876 280.849873,1833.83672 281.425644,1834.83403 C281.976671,1835.79422 282.62226,1836.71774 283.36904,1837.59089 C283.425159,1837.65673 283.487906,1837.7124 283.546676,1837.77913 C283.35976,1842.4007 281.756614,1850.4521 272.816023,1850.21879 C272.816023,1850.21879 294.670604,1867.17706 303.735364,1843.00474 C305.819277,1842.26371 307.809512,1841.15505 309.591179,1839.63147 C309.656577,1839.57402 309.712696,1839.51128 309.778979,1839.45339 C314.400618,1839.63986 322.453027,1841.24343 322.219714,1850.18299 C322.219714,1850.18299 339.176479,1828.32875 315.004229,1819.26501" id="Fill-1"></path>
        </g>
    </g>
</svg>