<?xml version="1.0" encoding="UTF-8"?>
<svg width="889px" height="889px" viewBox="0 0 889 889" version="1.1" xmlns="http://www.w3.org/2000/svg" xmlns:xlink="http://www.w3.org/1999/xlink">
    <!-- Generator: Sketch 50.2 (55047) - http://www.bohemiancoding.com/sketch -->
    <title>Fill 1</title>
    <desc>Created with Sketch.</desc>
    <defs>
        <linearGradient x1="-168.452066%" y1="-131.445312%" x2="120.908638%" y2="129.923019%" id="linearGradient-1">
            <stop stop-color="#F9F9F9" offset="0%"></stop>
            <stop stop-color="#151515" offset="100%"></stop>
        </linearGradient>
    </defs>
    <g id="Page-1" stroke="none" stroke-width="1" fill="none" fill-rule="evenodd" opacity="0.2">
        <g id="New-landing-page-Copy-5" transform="translate(-143.000000, -1012.000000)" fill="url(#linearGradient-1)">
            <path d="M666.084942,1548.34541 C615.351329,1591.76431 539.03876,1585.79396 495.639397,1535.09143 C490.315499,1528.85843 485.729067,1522.22134 481.890204,1515.31149 C454.40192,1466.06366 464.423374,1402.72339 508.903681,1364.63841 C559.637295,1321.25991 635.959965,1327.21006 679.339124,1377.93279 C683.329522,1382.58987 686.471329,1387.60052 689.582829,1392.67178 C720.829158,1442.53583 712.141204,1508.94715 666.084942,1548.34541 M842.602612,1365.63273 C836.658601,1348.94082 828.950063,1332.73833 819.670194,1317.16049 C812.045375,1304.36465 803.448133,1292.0067 793.434118,1280.29918 C792.635573,1279.33965 791.68247,1278.50892 790.851726,1277.54939 C793.588675,1210.20215 816.933245,1092.84356 947.244243,1096.25664 C947.244243,1096.25664 628.721274,849.110679 496.645748,1201.37965 C466.275268,1212.1856 437.257163,1228.34302 411.278682,1250.55383 C410.332019,1251.37812 409.494835,1252.31189 408.548172,1253.14906 C341.187014,1250.43791 223.845937,1227.05506 227.252634,1096.76539 C227.252634,1096.76539 -19.8906908,1415.26414 332.390136,1547.36339 C337.915554,1562.87039 344.844866,1577.99743 353.236032,1592.53202 C361.266564,1606.52567 370.67523,1619.98481 381.55863,1632.70982 C382.376495,1633.66935 383.290958,1634.48076 384.147462,1635.45317 C381.423392,1702.80685 358.059503,1820.14613 227.761384,1816.74592 C227.761384,1816.74592 546.265034,2063.89188 678.372759,1711.61004 C708.743239,1700.81052 737.748464,1684.65311 763.714066,1662.44874 C764.667168,1661.61157 765.485033,1660.69712 766.451015,1659.85351 C833.805734,1662.57109 951.159691,1685.94106 947.759433,1816.2243 C947.759433,1816.2243 1194.88344,1497.72555 842.602612,1365.63273" id="Fill-1"></path>
        </g>
    </g>
</svg>