<?xml version="1.0" encoding="UTF-8"?>
<svg width="528px" height="884px" viewBox="0 0 528 884" version="1.1" xmlns="http://www.w3.org/2000/svg" xmlns:xlink="http://www.w3.org/1999/xlink">
    <!-- Generator: Sketch 50.2 (55047) - http://www.bohemiancoding.com/sketch -->
    <title>Fill 1</title>
    <desc>Created with Sketch.</desc>
    <defs>
        <linearGradient x1="-168.452066%" y1="-131.445312%" x2="120.908638%" y2="129.923019%" id="linearGradient-1">
            <stop stop-color="#F9F9F9" offset="0%"></stop>
            <stop stop-color="#151515" offset="100%"></stop>
        </linearGradient>
    </defs>
    <g id="Page-1" stroke="none" stroke-width="1" fill="none" fill-rule="evenodd" opacity="0.2">
        <g id="New-landing-page-Copy-5" transform="translate(0.000000, -1029.000000)" fill="url(#linearGradient-1)">
            <path d="M162.084942,1565.34541 C111.351329,1608.76431 35.0387605,1602.79396 -8.36060316,1552.09143 C-13.6845009,1545.85843 -18.2709327,1539.22134 -22.1097963,1532.31149 C-49.5980804,1483.06366 -39.5766259,1419.72339 4.90368093,1381.63841 C55.6372946,1338.25991 131.959965,1344.21006 175.339124,1394.93279 C179.329522,1399.58987 182.471329,1404.60052 185.582829,1409.67178 C216.829158,1459.53583 208.141204,1525.94715 162.084942,1565.34541 M338.602612,1382.63273 C332.658601,1365.94082 324.950063,1349.73833 315.670194,1334.16049 C308.045375,1321.36465 299.448133,1309.0067 289.434118,1297.29918 C288.635573,1296.33965 287.68247,1295.50892 286.851726,1294.54939 C289.588675,1227.20215 312.933245,1109.84356 443.244243,1113.25664 C443.244243,1113.25664 124.721274,866.110679 -7.35425161,1218.37965 C-37.7247318,1229.1856 -66.742837,1245.34302 -92.7213181,1267.55383 C-93.6679807,1268.37812 -94.5051652,1269.31189 -95.4518278,1270.14906 C-162.812986,1267.43791 -280.154063,1244.05506 -276.747366,1113.76539 C-276.747366,1113.76539 -523.890691,1432.26414 -171.609864,1564.36339 C-166.084446,1579.87039 -159.155134,1594.99743 -150.763968,1609.53202 C-142.733436,1623.52567 -133.32477,1636.98481 -122.44137,1649.70982 C-121.623505,1650.66935 -120.709042,1651.48076 -119.852538,1652.45317 C-122.576608,1719.80685 -145.940497,1837.14613 -276.238616,1833.74592 C-276.238616,1833.74592 42.2650338,2080.89188 174.372759,1728.61004 C204.743239,1717.81052 233.748464,1701.65311 259.714066,1679.44874 C260.667168,1678.61157 261.485033,1677.69712 262.451015,1676.85351 C329.805734,1679.57109 447.159691,1702.94106 443.759433,1833.2243 C443.759433,1833.2243 690.883438,1514.72555 338.602612,1382.63273" id="Fill-1"></path>
        </g>
    </g>
</svg>