<?xml version="1.0" encoding="UTF-8"?>
<svg width="61px" height="61px" viewBox="0 0 61 61" version="1.1" xmlns="http://www.w3.org/2000/svg" xmlns:xlink="http://www.w3.org/1999/xlink">
    <!-- Generator: Sketch 50.2 (55047) - http://www.bohemiancoding.com/sketch -->
    <title>Fill 1</title>
    <desc>Created with Sketch.</desc>
    <defs></defs>
    <g id="Page-1" stroke="none" stroke-width="1" fill="none" fill-rule="evenodd">
        <g id="New-landing-page-Copy-5" transform="translate(-267.000000, -1758.000000)" fill="#4A4A4A">
            <g id="Group-3" transform="translate(262.000000, 1630.000000)">
                <path d="M40.8922176,164.802104 C37.4110585,167.781353 32.1747631,167.371689 29.196854,163.892663 C28.8315472,163.464976 28.5168426,163.009563 28.2534335,162.535434 C26.3672858,159.156224 27.0549222,154.810041 30.1070017,152.196786 C33.5881608,149.220309 38.8251495,149.628587 41.8016722,153.108999 C42.075479,153.428551 42.2910585,153.772364 42.5045585,154.120336 C44.6485699,157.541829 44.0524335,162.098736 40.8922176,164.802104 M53.0042287,152.265013 C52.596372,151.119674 52.0674397,150.007917 51.4306883,148.939021 C50.9075004,148.061016 50.3175885,147.213058 49.6304625,146.40973 C49.5756692,146.343891 49.5102707,146.286889 49.453268,146.221049 C49.6410677,141.599923 51.2428886,133.547196 60.1843631,133.781389 C60.1843631,133.781389 38.3284564,116.823117 29.2659062,140.994554 C27.1819925,141.73602 25.190874,142.844684 23.4083235,144.36871 C23.3433669,144.42527 23.2859223,144.489342 23.2209657,144.546786 C18.598884,144.360756 10.547359,142.756309 10.7811144,133.816298 C10.7811144,133.816298 -6.17697654,155.670543 17.9952737,164.734721 C18.3744081,165.798755 18.8498727,166.836719 19.4256445,167.834031 C19.9766708,168.794225 20.6222599,169.717743 21.3690398,170.590888 C21.4251588,170.656727 21.487906,170.712403 21.5466762,170.779126 C21.3597603,175.400695 19.7566138,183.452096 10.816023,183.218786 C10.816023,183.218786 32.6706041,200.177058 41.7353637,176.004738 C43.8192774,175.263714 45.8095122,174.15505 47.5911789,172.631466 C47.6565773,172.574022 47.7126963,172.511276 47.7789786,172.45339 C52.4006184,172.639861 60.4530272,174.243425 60.2197137,183.182995 C60.2197137,183.182995 77.1764789,161.32875 53.0042287,152.265013" id="Fill-1"></path>
            </g>
        </g>
    </g>
</svg>