<?xml version="1.0" encoding="UTF-8"?>
<svg width="44px" height="44px" viewBox="0 0 44 44" version="1.1" xmlns="http://www.w3.org/2000/svg" xmlns:xlink="http://www.w3.org/1999/xlink">
    <!-- Generator: Sketch 50.2 (55047) - http://www.bohemiancoding.com/sketch -->
    <title>Group 3</title>
    <desc>Created with Sketch.</desc>
    <defs></defs>
    <g id="Page-1" stroke="none" stroke-width="1" fill="none" fill-rule="evenodd">
        <g id="Artboard-Copy" transform="translate(-734.000000, -74.000000)">
            <g id="Group-3" transform="translate(735.000000, 75.000000)">
                <g id="Group-6">
                    <circle id="Oval-Copy" stroke="#F95559" stroke-width="2" cx="21" cy="21" r="21"></circle>
                    <path d="M31.2187505,9.91947138 C30.9086538,9.93389446 30.6165868,10.0240385 30.3569714,10.125 L30.3533658,10.125 C30.090144,10.2295671 28.8389428,10.7560098 26.9387022,11.5528846 C25.0384615,12.3533658 22.5721154,13.3918274 20.1237978,14.4230769 C15.2343748,16.4819714 10.4278846,18.5084132 10.4278846,18.5084132 L10.4855769,18.4867791 C10.4855769,18.4867791 10.1538462,18.5949517 9.80769231,18.8329329 C9.63100985,18.9483175 9.43629785,19.1069714 9.26682738,19.3557692 C9.097356,19.6045671 8.96033631,19.9867791 9.01081754,20.3798077 C9.09375046,21.0468748 9.52644277,21.4471154 9.83653846,21.6670671 C10.1502406,21.8906252 10.4495197,21.9951923 10.4495197,21.9951923 L10.4567308,21.9951923 L14.9639428,23.5132209 C15.1658658,24.1622594 16.3377406,28.0132209 16.6189902,28.9002406 C16.784856,29.4302889 16.9471154,29.7620197 17.1490385,30.0144231 C17.2463945,30.1442308 17.3617791,30.2524043 17.4987978,30.3389428 C17.5528846,30.3713945 17.6105769,30.3966351 17.6682692,30.4182692 C17.6862978,30.4290868 17.7043274,30.4326923 17.7259615,30.4362978 L17.6790868,30.4254812 C17.6935098,30.4290868 17.7043274,30.4399043 17.715144,30.4435098 C17.7512022,30.4543274 17.7764428,30.4579329 17.8233175,30.465144 C18.5372594,30.6814902 19.1105769,30.2379812 19.1105769,30.2379812 L19.1430286,30.2127406 L21.8040868,27.7896637 L26.2644231,31.2115385 L26.3653846,31.2548077 C27.2956735,31.6622594 28.2367791,31.4350966 28.7343748,31.034856 C29.2355769,30.6310098 29.4302889,30.1153846 29.4302889,30.1153846 L29.4627406,30.0324517 L32.909856,12.375 C33.007212,11.9387022 33.0324517,11.5312505 32.9242791,11.1346154 C32.8161055,10.7379812 32.5384615,10.3665868 32.2031252,10.1682692 C31.8641825,9.96634615 31.5288462,9.90504831 31.2187505,9.91947138 Z M31.125,11.8125 C31.1213945,11.8701923 31.132212,11.8629812 31.1069714,11.9747594 L31.1069714,11.9855769 L27.6923077,29.4591351 C27.6778846,29.4843748 27.652644,29.5384615 27.5841351,29.5925483 C27.5120197,29.6502406 27.4543274,29.6862978 27.1550483,29.5673077 L21.6995197,25.3846154 L18.4038462,28.3882209 L19.0961538,23.9675483 C19.0961538,23.9675483 27.6418274,16.0024043 28.0096154,15.659856 C28.3774043,15.3173077 28.2548077,15.2451923 28.2548077,15.2451923 C28.2800483,14.8269231 27.6995197,15.1225966 27.6995197,15.1225966 L16.4603363,22.0853363 L16.4567308,22.0673077 L11.069712,20.2536055 L11.069712,20.25 C11.0661055,20.25 11.0588945,20.2463945 11.0552889,20.2463945 C11.0588945,20.2463945 11.0841351,20.2355769 11.0841351,20.2355769 L11.1129812,20.2211538 L11.1418274,20.2103363 C11.1418274,20.2103363 15.9519231,18.1838945 20.8413462,16.125 C23.2896637,15.0937505 25.7560098,14.0552889 27.652644,13.2548077 C29.5492791,12.4579329 30.9519231,11.8737978 31.0312505,11.8413462 C31.1069714,11.8125 31.0709132,11.8125 31.125,11.8125 Z" id="Shape" fill="#F95559" fill-rule="nonzero"></path>
                </g>
                <g id="icons8-telegram_app" transform="translate(9.000000, 9.000000)"></g>
            </g>
        </g>
    </g>
</svg>