<?xml version="1.0" encoding="UTF-8"?>
<svg width="40px" height="40px" viewBox="0 0 40 40" version="1.1" xmlns="http://www.w3.org/2000/svg" xmlns:xlink="http://www.w3.org/1999/xlink">
    <!-- Generator: Sketch 50.2 (55047) - http://www.bohemiancoding.com/sketch -->
    <title>icons8-telegram_app</title>
    <desc>Created with Sketch.</desc>
    <defs>
        <linearGradient x1="50%" y1="0%" x2="50%" y2="99.635%" id="linearGradient-1">
            <stop stop-color="#42BCE8" offset="0%"></stop>
            <stop stop-color="#23A7DC" offset="100%"></stop>
        </linearGradient>
    </defs>
    <g id="Page-1" stroke="none" stroke-width="1" fill="none" fill-rule="evenodd">
        <g id="New-landing-page" transform="translate(-798.000000, -627.000000)" fill-rule="nonzero">
            <g id="Group-7" transform="translate(697.000000, 196.000000)">
                <g id="Group" transform="translate(7.000000, 419.000000)">
                    <g id="Group-4" transform="translate(94.000000, 12.000000)">
                        <g id="icons8-telegram_app">
                            <circle id="Oval" fill="url(#linearGradient-1)" cx="20" cy="20" r="20"></circle>
                            <path d="M30.176,10.811 L26.359,30.303 C26.359,30.303 25.825,31.655 24.357,31.006 L15.548,24.166 L12.345,22.598 L6.953,20.76 C6.953,20.76 6.125,20.463 6.045,19.814 C5.965,19.165 6.979,18.814 6.979,18.814 L28.415,10.298 C28.414,10.297 30.176,9.513 30.176,10.811 Z" id="Shape" fill="#FFFFFF"></path>
                            <path d="M14.87,30.083 C14.87,30.083 14.613,30.059 14.292,29.031 C13.972,28.004 12.343,22.597 12.343,22.597 L25.29,14.27 C25.29,14.27 26.037,13.81 26.011,14.27 C26.011,14.27 26.144,14.351 25.744,14.73 C25.344,15.109 15.573,24.003 15.573,24.003" id="Shape" fill="#D2E5F1"></path>
                            <path d="M18.925,26.788 L15.441,30.005 C15.441,30.005 15.169,30.214 14.871,30.083 L15.538,24.107" id="Shape" fill="#B5CFE4"></path>
                        </g>
                    </g>
                </g>
            </g>
        </g>
    </g>
</svg>