<?xml version="1.0" encoding="UTF-8"?>
<svg width="93px" height="64px" viewBox="0 0 93 64" version="1.1" xmlns="http://www.w3.org/2000/svg" xmlns:xlink="http://www.w3.org/1999/xlink">
    <!-- Generator: Sketch 50.2 (55047) - http://www.bohemiancoding.com/sketch -->
    <title>Shape</title>
    <desc>Created with Sketch.</desc>
    <defs></defs>
    <g id="Page-1" stroke="none" stroke-width="1" fill="none" fill-rule="evenodd">
        <g id="New-landing-page" transform="translate(-204.000000, -2199.000000)" fill="#FFFFFF" fill-rule="nonzero">
            <g id="Group-8" transform="translate(60.000000, 2199.000000)">
                <path d="M148.359375,0 C145.890197,0 144,1.89204509 144,4.36363636 L144,50.9090909 C144,53.3806822 145.890197,55.2727273 148.359375,55.2727273 L152.71875,55.2727273 L152.71875,59.6363636 C152.71875,62.1079549 154.608947,64 157.078125,64 L232.640625,64 C235.109803,64 237,62.1079549 237,59.6363636 L237,13.0909091 C237,10.6193178 235.109803,8.72727273 232.640625,8.72727273 L228.28125,8.72727273 L228.28125,4.36363636 C228.28125,1.89204509 226.391053,0 223.921875,0 L148.359375,0 Z M148.359375,2.90909091 L223.921875,2.90909091 C224.796021,2.90909091 225.375,3.48863709 225.375,4.36363636 L225.375,23.2727273 L146.90625,23.2727273 L146.90625,11.6363636 L209.390625,11.6363636 C210.264771,11.6363636 210.84375,11.0568189 210.84375,10.1818182 C210.84375,9.30681891 210.264771,8.72727273 209.390625,8.72727273 L146.90625,8.72727273 L146.90625,4.36363636 C146.90625,3.48863709 147.48523,2.90909091 148.359375,2.90909091 Z M215.203125,8.72727273 C214.32898,8.72727273 213.75,9.30681891 213.75,10.1818182 C213.75,11.0568189 214.32898,11.6363636 215.203125,11.6363636 L221.015625,11.6363636 C221.889771,11.6363636 222.46875,11.0568189 222.46875,10.1818182 C222.46875,9.30681891 221.889771,8.72727273 221.015625,8.72727273 L215.203125,8.72727273 Z M228.28125,11.6363636 L232.640625,11.6363636 C233.514771,11.6363636 234.09375,12.2159098 234.09375,13.0909091 L234.09375,59.6363636 C234.09375,60.5113644 233.514771,61.0909091 232.640625,61.0909091 L157.078125,61.0909091 C156.20398,61.0909091 155.625,60.5113644 155.625,59.6363636 L155.625,55.2727273 L223.921875,55.2727273 C226.391053,55.2727273 228.28125,53.3806822 228.28125,50.9090909 L228.28125,11.6363636 Z M152.71875,14.5454545 C151.844605,14.5454545 151.265625,15.1250007 151.265625,16 L151.265625,18.9090909 C151.265625,19.7840916 151.844605,20.3636364 152.71875,20.3636364 C153.592896,20.3636364 154.171875,19.7840916 154.171875,18.9090909 L154.171875,16 C154.171875,15.2727273 153.592896,14.5454545 152.71875,14.5454545 Z M159.984375,14.5454545 C159.11023,14.5454545 158.53125,15.1250007 158.53125,16 L158.53125,18.9090909 C158.53125,19.7840916 159.11023,20.3636364 159.984375,20.3636364 C160.858521,20.3636364 161.4375,19.7840916 161.4375,18.9090909 L161.4375,16 C161.4375,15.2727273 160.858521,14.5454545 159.984375,14.5454545 Z M167.25,14.5454545 C166.375855,14.5454545 165.796875,15.1250007 165.796875,16 L165.796875,18.9090909 C165.796875,19.7840916 166.375855,20.3636364 167.25,20.3636364 C168.124146,20.3636364 168.703125,19.7840916 168.703125,18.9090909 L168.703125,16 C168.703125,15.2727273 168.124146,14.5454545 167.25,14.5454545 Z M174.515625,14.5454545 C173.64148,14.5454545 173.0625,15.1250007 173.0625,16 L173.0625,18.9090909 C173.0625,19.7840916 173.64148,20.3636364 174.515625,20.3636364 C175.389771,20.3636364 175.96875,19.7840916 175.96875,18.9090909 L175.96875,16 C175.96875,15.2727273 175.389771,14.5454545 174.515625,14.5454545 Z M181.78125,14.5454545 C180.907105,14.5454545 180.328125,15.1250007 180.328125,16 L180.328125,18.9090909 C180.328125,19.7840916 180.907105,20.3636364 181.78125,20.3636364 C182.655396,20.3636364 183.234375,19.7840916 183.234375,18.9090909 L183.234375,16 C183.234375,15.1250007 182.655396,14.5454545 181.78125,14.5454545 Z M190.5,14.5454545 C189.625855,14.5454545 189.046875,15.1250007 189.046875,16 L189.046875,18.9090909 C189.046875,19.7840916 189.625855,20.3636364 190.5,20.3636364 C191.374146,20.3636364 191.953125,19.7840916 191.953125,18.9090909 L191.953125,16 C191.953125,15.1250007 191.374146,14.5454545 190.5,14.5454545 Z M197.765625,14.5454545 C196.89148,14.5454545 196.3125,15.1250007 196.3125,16 L196.3125,18.9090909 C196.3125,19.7840916 196.89148,20.3636364 197.765625,20.3636364 C198.639771,20.3636364 199.21875,19.7840916 199.21875,18.9090909 L199.21875,16 C199.21875,15.1250007 198.639771,14.5454545 197.765625,14.5454545 Z M205.03125,14.5454545 C204.157105,14.5454545 203.578125,15.1250007 203.578125,16 L203.578125,18.9090909 C203.578125,19.7840916 204.157105,20.3636364 205.03125,20.3636364 C205.905396,20.3636364 206.484375,19.7840916 206.484375,18.9090909 L206.484375,16 C206.484375,15.1250007 205.905396,14.5454545 205.03125,14.5454545 Z M212.296875,14.5454545 C211.42273,14.5454545 210.84375,15.1250007 210.84375,16 L210.84375,18.9090909 C210.84375,19.7840916 211.42273,20.3636364 212.296875,20.3636364 C213.171021,20.3636364 213.75,19.7840916 213.75,18.9090909 L213.75,16 C213.75,15.1250007 213.171021,14.5454545 212.296875,14.5454545 Z M219.5625,14.5454545 C218.688355,14.5454545 218.109375,15.1250007 218.109375,16 L218.109375,18.9090909 C218.109375,19.7840916 218.688355,20.3636364 219.5625,20.3636364 C220.436646,20.3636364 221.015625,19.7840916 221.015625,18.9090909 L221.015625,16 C221.015625,15.1250007 220.436646,14.5454545 219.5625,14.5454545 Z M146.90625,26.1818182 L225.375,26.1818182 L225.375,50.9090909 C225.375,51.7840916 224.796021,52.3636364 223.921875,52.3636364 L148.359375,52.3636364 C147.48523,52.3636364 146.90625,51.7840916 146.90625,50.9090909 L146.90625,26.1818182 Z M205.03125,32 C201.83551,32 199.21875,34.6193178 199.21875,37.8181818 C199.21875,41.0170458 201.83551,43.6363636 205.03125,43.6363636 C206.336793,43.6363636 207.64801,43.198864 208.664062,42.3238633 C209.680115,43.198864 210.991334,43.6363636 212.296875,43.6363636 C215.492615,43.6363636 218.109375,41.0170458 218.109375,37.8181818 C218.109375,34.6193178 215.492615,32 212.296875,32 C210.991334,32 209.680115,32.4374996 208.664062,33.3125004 C207.64801,32.4374996 206.336793,32 205.03125,32 Z M154.171875,33.4545455 C153.29773,33.4545455 152.71875,34.0340916 152.71875,34.9090909 C152.71875,35.7840916 153.29773,36.3636364 154.171875,36.3636364 L174.515625,36.3636364 C175.389771,36.3636364 175.96875,35.7840916 175.96875,34.9090909 C175.96875,34.0340916 175.389771,33.4545455 174.515625,33.4545455 L154.171875,33.4545455 Z M183.234375,33.4545455 C182.36023,33.4545455 181.78125,34.0340916 181.78125,34.9090909 C181.78125,35.7840916 182.36023,36.3636364 183.234375,36.3636364 L189.046875,36.3636364 C189.921021,36.3636364 190.5,35.7840916 190.5,34.9090909 C190.5,34.0340916 189.921021,33.4545455 189.046875,33.4545455 L183.234375,33.4545455 Z M204.74176,34.7670458 C205.757812,34.7670458 206.773865,35.3465905 207.352844,36.2215913 C207.9375,37.0909091 209.390625,37.0909091 209.975281,36.2215913 C210.55426,35.3465905 211.570312,34.7670458 212.586365,34.7670458 C214.32898,34.7670458 215.640197,36.2159098 215.640197,37.8181818 C215.640197,39.4204553 214.32898,40.8693178 212.586365,40.8693178 C211.570312,40.8693178 210.55426,40.2897731 209.975281,39.4147724 C209.680115,38.9829542 209.243043,38.6874996 208.664062,38.6874996 C208.085084,38.6874996 207.64801,38.9829542 207.352844,39.4147724 C206.773865,40.2897731 205.757812,40.8693178 204.74176,40.8693178 C202.999146,40.8693178 201.687928,39.4204553 201.687928,37.8181818 C201.687928,36.2159098 203.141053,34.7670458 204.74176,34.7670458 Z M154.171875,39.2727273 C153.29773,39.2727273 152.71875,39.8522735 152.71875,40.7272727 C152.71875,41.6022735 153.29773,42.1818182 154.171875,42.1818182 L170.15625,42.1818182 C171.030396,42.1818182 171.609375,41.6022735 171.609375,40.7272727 C171.609375,39.8522735 171.030396,39.2727273 170.15625,39.2727273 L154.171875,39.2727273 Z" id="Shape"></path>
            </g>
        </g>
    </g>
</svg>