<?xml version="1.0" encoding="UTF-8"?>
<svg width="70px" height="80px" viewBox="0 0 70 80" version="1.1" xmlns="http://www.w3.org/2000/svg" xmlns:xlink="http://www.w3.org/1999/xlink">
    <!-- Generator: Sketch 50.2 (55047) - http://www.bohemiancoding.com/sketch -->
    <title>Shape</title>
    <desc>Created with Sketch.</desc>
    <defs></defs>
    <g id="Page-1" stroke="none" stroke-width="1" fill="none" fill-rule="evenodd">
        <g id="New-landing-page" transform="translate(-1130.000000, -2199.000000)" fill="#FFFFFF" fill-rule="nonzero">
            <g id="Group-5" transform="translate(957.000000, 2199.000000)">
                <path d="M208,0 C204.097301,0 200.803623,2.19607921 195.919034,4.73098115 C191.028231,7.27215719 184.484375,10.3341179 174.249112,12.5992156 L173,12.8815681 L173,14.1678438 C173,38.7827443 181.520064,55.2094116 190.077415,65.4054895 C198.640981,75.6078432 207.328835,79.6737255 207.328835,79.6737255 L208.031072,80 L208.720881,79.6486275 C208.720881,79.6486275 243,61.8101959 243,14.1678438 L243,12.8815681 L241.750888,12.5992156 C231.515625,10.3341179 224.971769,7.27215719 220.080966,4.73098115 C215.196379,2.19607921 211.902699,0 208,0 Z M208,3.21254899 C210.616299,3.21254899 213.636542,4.99450975 218.63299,7.59215759 C223.36843,10.0517654 230.05522,13.0321563 239.71875,15.3349018 C239.153231,58.9176473 210.032138,75.2376467 207.975142,76.3294106 C206.980824,75.8462737 200.09517,72.3701962 192.513494,63.3286264 C184.509233,53.7976473 176.567117,38.4878436 176.28125,15.3349018 C185.94478,13.0321563 192.63157,10.0517654 197.36701,7.59215759 C202.363458,4.99450975 205.383701,3.21254899 208,3.21254899 Z M208,25.7003919 C204.4826,25.7003919 201.636364,28.5741182 201.636364,32.1254899 C201.636364,34.2901953 202.7239,36.3105883 204.519886,37.4964702 L201.636364,50.5976466 L214.363636,50.5976466 L211.480114,37.4964702 C213.2761,36.3168624 214.363636,34.2901953 214.363636,32.1254899 C214.363636,28.5741182 211.517401,25.7003919 208,25.7003919 Z" id="Shape"></path>
            </g>
        </g>
    </g>
</svg>