<?xml version="1.0" encoding="UTF-8"?>
<svg width="82px" height="82px" viewBox="0 0 82 82" version="1.1" xmlns="http://www.w3.org/2000/svg" xmlns:xlink="http://www.w3.org/1999/xlink">
    <!-- Generator: Sketch 50.2 (55047) - http://www.bohemiancoding.com/sketch -->
    <title>Group</title>
    <desc>Created with Sketch.</desc>
    <defs>
        <polygon id="path-1" points="0 0.0217974684 81.9786956 0.0217974684 81.9786956 82 0 82"></polygon>
    </defs>
    <g id="Page-1" stroke="none" stroke-width="1" fill="none" fill-rule="evenodd">
        <g id="New-landing-page" transform="translate(-99.000000, -80.000000)">
            <g id="Group" transform="translate(99.000000, 80.000000)">
                <path d="M81,41 C81,63.0914318 63.0912299,81 41.0001301,81 C18.9087701,81 1,63.0914318 1,41 C1,18.9085682 18.9087701,1 41.0001301,1 C63.0912299,1 81,18.9085682 81,41" id="Fill-1" fill="#000000"></path>
                <path d="M57,20.3869068 C57,20.3869068 58.2177751,21.4845468 59.4272142,23 C61.363837,22.3222607 65,20.3869068 65,20.3869068 L61.0002452,16 L57,20.3869068 Z" id="Fill-3" fill="#FFFFFF"></path>
                <polygon id="Fill-5" fill="#FFFFFF" points="60 23.3848308 65 22 65 25 61.1294532 25"></polygon>
                <g id="Group-9">
                    <mask id="mask-2" fill="white">
                        <use xlink:href="#path-1"></use>
                    </mask>
                    <g id="Clip-8"></g>
                    <path d="M67.9777146,67.999019 C64.4714361,71.505038 60.3898601,74.2569684 55.844569,76.179038 C55.4026513,76.3669114 54.9560627,76.5420696 54.5086956,76.712038 L54.5086956,62.8273101 L54.5037652,59.1938797 C54.4702905,57.8159684 54.0644424,56.5306962 53.3811956,55.4356329 C59.2888285,51.4500696 63.1729297,44.6951899 63.1729297,37.0336392 C63.1729297,24.7821646 53.241069,14.8505633 40.9893348,14.8505633 C28.7381196,14.8505633 18.8062589,24.7821646 18.8062589,37.0336392 C18.8062589,44.6951899 22.6906196,51.4500696 28.5974741,55.4351139 C27.8911323,56.5685823 27.4798348,57.9041962 27.471012,59.3358228 L23.1911829,56.1806392 C23.2739614,56.0431076 23.3544044,55.9055759 23.431993,55.7703797 C23.6948601,55.3071835 23.9167272,54.858519 24.0892905,54.4612342 C24.2623728,54.0647278 24.3858918,53.7193418 24.4621829,53.4704873 C24.54055,53.2237089 24.5724677,53.072943 24.5724677,53.072943 C24.5724677,53.072943 24.4416829,53.1539051 24.2366829,53.3121962 C24.0288285,53.4689304 23.7457209,53.7024747 23.431993,54.0006329 C23.1174867,54.2982722 22.7713222,54.6600063 22.4259361,55.0653354 C22.3314804,55.1763987 22.2362462,55.2905759 22.1412715,55.4070886 L16.7279741,51.331481 L14.4532525,54.366 L19.970607,58.5217911 C19.9620437,58.5371013 19.9516639,58.5524114 19.9436196,58.567462 C19.6807525,59.0306582 19.4586259,59.4793228 19.2860627,59.8763481 C19.1124614,60.2728544 18.9892019,60.6182405 18.9123918,60.8665759 C18.8332462,61.1133544 18.8013285,61.2636013 18.8013285,61.2636013 C18.8013285,61.2636013 18.9318538,61.1823797 19.1368538,61.0238291 C19.3439297,60.8668354 19.6265184,60.6332911 19.9405057,60.3348734 C20.2547525,60.0372342 20.6003981,59.6755 20.9468222,59.2701709 C20.951493,59.264462 20.9564234,59.2579747 20.9610943,59.2522658 L27.4473981,63.9055063 L27.4697146,76.712038 C27.022607,76.5420696 26.5765373,76.3669114 26.1341006,76.179038 C21.589588,74.2569684 17.5077525,71.505038 14.0014741,67.999019 C10.4951956,64.4927405 7.7427462,60.4103861 5.82093608,55.8658734 C3.8313981,51.1628101 2.8227462,46.1641835 2.8227462,41.0106392 C2.8227462,35.8573544 3.8313981,30.8589873 5.82093608,26.1551456 C7.7427462,21.6106329 10.4951956,17.5287975 14.0014741,14.022519 C17.5077525,10.5167595 21.589588,7.76431013 26.1341006,5.84198101 C30.8376829,3.85244304 35.835531,2.84405063 40.9893348,2.84405063 C46.1431386,2.84405063 51.1409867,3.85244304 55.844569,5.84198101 C60.3898601,7.76431013 64.4714361,10.5167595 67.9777146,14.022519 C71.4834741,17.5287975 74.2359234,21.6106329 76.1582525,26.1551456 C78.1477905,30.8589873 79.1564424,35.8573544 79.1564424,41.0106392 C79.1564424,46.1641835 78.1477905,51.1628101 76.1582525,55.8658734 C74.2359234,60.4103861 71.4834741,64.4927405 67.9777146,67.999019 M29.2430943,37.9182532 C26.8061892,38.7678354 24.52005,38.3516076 24.1027842,35.8887532 C24.1027842,35.8887532 23.9769297,34.7848671 24.0846196,34.2482342 C24.1502715,33.7969747 24.2748285,33.3638797 24.4492082,32.9582911 C26.3315753,27.8454873 33.0231386,24.0649241 40.9893348,24.0649241 C48.955531,24.0649241 55.6470943,27.8452278 57.5299804,32.9569937 C57.7043601,33.3638797 57.8289171,33.7969747 57.8948285,34.2492722 C58.0019994,34.7853861 57.8758854,35.8887532 57.8758854,35.8887532 C57.4591386,38.3516076 55.086069,38.9852911 52.7363538,37.9182532 C47.7701639,35.6629937 35.977993,35.5687975 29.2430943,37.9182532 M40.9893348,0.0217974684 C18.3518854,0.0217974684 -2.59493671e-05,18.3729304 -2.59493671e-05,41.0106392 C-2.59493671e-05,58.9110316 11.4758222,74.1282595 27.4697146,79.7148987 C31.7033538,81.1932342 36.2520184,82 40.9893348,82 C45.7271703,82 50.2758348,81.1932342 54.5086956,79.7148987 C70.5033665,74.1282595 81.9786956,58.9110316 81.9786956,41.0106392 C81.9786956,18.3729304 63.6275627,0.0217974684 40.9893348,0.0217974684" id="Fill-7" fill="#FFFFFF" mask="url(#mask-2)"></path>
                </g>
            </g>
        </g>
    </g>
</svg>