<?xml version="1.0" encoding="UTF-8"?>
<svg width="1320px" height="528px" viewBox="0 0 1320 528" version="1.1" xmlns="http://www.w3.org/2000/svg" xmlns:xlink="http://www.w3.org/1999/xlink">
    <!-- Generator: Sketch 50.2 (55047) - http://www.bohemiancoding.com/sketch -->
    <title>Group 10</title>
    <desc>Created with Sketch.</desc>
    <defs></defs>
    <g id="Page-1" stroke="none" stroke-width="1" fill="none" fill-rule="evenodd">
        <g id="New-landing-page" transform="translate(-60.000000, -1588.000000)">
            <g id="Group-10" transform="translate(60.000000, 1588.000000)">
                <text id="Amount" font-family="AzoSans-Regular, Azo Sans" font-size="20" font-weight="normal" line-spacing="20" fill="#FFFFFF">
                    <tspan x="31" y="232">Fee</tspan>
                </text>
                <text id="Amount" font-family="AzoSans-Regular, Azo Sans" font-size="20" font-weight="normal" line-spacing="20" fill="#FFFFFF">
                    <tspan x="538" y="232">1%</tspan>
                </text>
                <text id="Amount" font-family="AzoSans-Regular, Azo Sans" font-size="20" font-weight="normal" line-spacing="20" fill="#FFFFFF">
                    <tspan x="718" y="232">1%</tspan>
                </text>
                <text id="Amount" font-family="AzoSans-Regular, Azo Sans" font-size="20" font-weight="normal" line-spacing="20" fill="#FFFFFF">
                    <tspan x="940" y="232">1%</tspan>
                </text>
                <text id="Amount" font-family="AzoSans-Regular, Azo Sans" font-size="20" font-weight="normal" line-spacing="20" fill="#FFFFFF">
                    <tspan x="1147" y="232">5 -10%</tspan>
                </text>
                <text id="Amount" font-family="AzoSans-Regular, Azo Sans" font-size="20" font-weight="normal" line-spacing="20" fill="#FFFFFF">
                    <tspan x="31" y="292">Safe transaction</tspan>
                </text>
                <text id="Amount" font-family="AzoSans-Regular, Azo Sans" font-size="20" font-weight="normal" line-spacing="20" fill="#FFFFFF">
                    <tspan x="31" y="358">Unique key control</tspan>
                </text>
                <path d="M34.46,164 L32.62,164 L32.62,149.52 L34.42,149.52 L40.48,157.56 C41.32,158.66 42.16,159.8 42.98,160.94 L43.02,160.92 C43,159.66 42.98,158.2 42.98,156.8 L42.98,149.52 L44.82,149.52 L44.82,164 L43.02,164 L36.96,155.96 C36.12,154.86 35.28,153.72 34.46,152.58 L34.42,152.6 C34.44,153.86 34.46,155.32 34.46,156.72 L34.46,164 Z M47.34,159.08 C47.34,156.18 49.56,153.94 52.54,153.94 C55.52,153.94 57.74,156.18 57.74,159.08 C57.74,161.98 55.52,164.22 52.54,164.22 C49.56,164.22 47.34,161.98 47.34,159.08 Z M49.14,159.08 C49.14,161.06 50.58,162.58 52.54,162.58 C54.5,162.58 55.94,161.06 55.94,159.08 C55.94,157.1 54.5,155.58 52.54,155.58 C50.58,155.58 49.14,157.1 49.14,159.08 Z M64.78,163.42 L64.78,161.54 C65.9,162.26 67.32,162.6 68.54,162.6 C69.9,162.6 70.78,162.2 70.78,161.24 C70.78,160.06 69.36,160.04 67.84,159.78 C65.96,159.46 64.48,158.9 64.48,156.96 C64.5,154.92 66.24,153.94 68.52,153.94 C69.7,153.94 71.06,154.2 72.04,154.72 L72.04,156.52 C70.94,155.88 69.58,155.56 68.44,155.56 C67.18,155.56 66.3,155.94 66.3,156.82 C66.3,157.94 67.7,157.94 69.16,158.2 C71.04,158.52 72.6,159.04 72.6,161.08 C72.6,163.36 70.56,164.22 68.46,164.22 C67.2,164.22 65.8,163.96 64.78,163.42 Z M74.68,150.78 C74.68,150.08 75.24,149.52 75.94,149.52 C76.64,149.52 77.2,150.08 77.2,150.78 C77.2,151.48 76.64,152.04 75.94,152.04 C75.24,152.04 74.68,151.48 74.68,150.78 Z M75.04,164 L75.04,154.16 L76.84,154.16 L76.84,164 L75.04,164 Z M80.66,167.88 L80.66,165.96 C81.6,166.58 82.68,166.98 83.78,166.98 C85.66,166.98 86.92,165.86 86.92,164 L86.92,163.28 L86.88,163.26 C86.2,163.72 85.24,164.02 84.2,164.02 C81.52,164.02 79.38,162 79.38,159.1 C79.38,156.32 81.28,153.94 84.48,153.94 C85.5,153.94 86.32,154.18 86.98,154.5 L88.72,154.2 L88.72,163.96 C88.72,166.84 86.8,168.62 83.78,168.62 C82.58,168.62 81.48,168.3 80.66,167.88 Z M81.2,158.98 C81.2,160.96 82.52,162.44 84.46,162.44 C85.36,162.44 86.32,162.12 86.92,161.64 L86.92,156.22 C86.3,155.84 85.34,155.54 84.44,155.54 C82.46,155.54 81.2,157.06 81.2,158.98 Z M91.9,164 L91.9,154.16 L93.7,154.16 L93.7,155.4 L93.74,155.42 C94.6,154.56 95.8,153.94 97.18,153.94 C98.26,153.94 99.18,154.32 99.8,155.02 C100.34,155.64 100.62,156.4 100.62,157.92 L100.62,164 L98.82,164 L98.82,158.26 C98.82,157.24 98.68,156.64 98.36,156.26 C97.96,155.78 97.32,155.62 96.78,155.62 C95.66,155.62 94.4,156.32 93.7,157.26 L93.7,164 L91.9,164 Z M104.5,163.12 C103.94,162.46 103.7,161.58 103.7,160.18 L103.7,154.16 L105.5,154.16 L105.5,159.84 C105.5,160.92 105.64,161.48 105.98,161.88 C106.38,162.38 106.96,162.56 107.54,162.56 C108.76,162.56 109.92,161.76 110.62,160.88 L110.62,154.16 L112.42,154.16 L112.42,164 L110.62,164 L110.62,162.76 L110.58,162.74 C109.72,163.6 108.54,164.22 107.18,164.22 C106.18,164.22 105.16,163.88 104.5,163.12 Z M117.38,163.7 L117.38,168.4 L115.58,168.4 L115.58,154.16 L117.38,154.16 L117.38,154.8 L117.42,154.82 C118.1,154.34 119.06,153.94 120.22,153.94 C122.86,153.94 124.98,156 124.98,159.04 C124.98,162.2 122.68,164.22 119.84,164.22 C118.86,164.22 118.04,163.98 117.42,163.68 L117.38,163.7 Z M117.38,161.96 C118,162.3 118.92,162.64 119.88,162.64 C121.84,162.64 123.16,161.2 123.16,159.18 C123.16,157.18 121.88,155.56 119.92,155.56 C119.04,155.56 118.08,155.88 117.38,156.46 L117.38,161.96 Z M136.814219,164.244141 C135.297284,164.244141 134.086359,163.741216 133.181406,162.735352 C132.276454,161.729487 131.823984,160.383472 131.823984,158.697266 C131.823984,156.991528 132.278081,155.642258 133.186289,154.649414 C134.094497,153.656571 135.326581,153.160156 136.882578,153.160156 C138.438575,153.160156 139.67066,153.656571 140.578867,154.649414 C141.487075,155.642258 141.941172,156.985018 141.941172,158.677734 C141.941172,160.409514 141.485447,161.770177 140.573984,162.759766 C139.662521,163.749354 138.409279,164.244141 136.814219,164.244141 Z M136.843516,162.798828 C138.881286,162.798828 139.900156,161.425144 139.900156,158.677734 C139.900156,155.962877 138.894307,154.605469 136.882578,154.605469 C134.87736,154.605469 133.874766,155.969387 133.874766,158.697266 C133.874766,161.431654 134.864339,162.798828 136.843516,162.798828 Z M144.948984,164 L144.948984,153.394531 L146.872813,153.394531 L146.872813,155.386719 C147.634535,153.902336 148.741295,153.160156 150.193125,153.160156 C150.388438,153.160156 150.593515,153.176432 150.808359,153.208984 L150.808359,155.005859 C150.476326,154.895182 150.183361,154.839844 149.929453,154.839844 C148.711999,154.839844 147.693129,155.562493 146.872813,157.007812 L146.872813,164 L144.948984,164 Z M159.392344,164 L159.392344,149.546875 L161.443125,149.546875 L161.443125,164 L159.392344,164 Z M165.163828,164 L165.163828,149.546875 L169.968516,149.546875 C171.400814,149.546875 172.558029,149.706379 173.440195,150.025391 C174.322361,150.344403 175.0857,150.884762 175.730234,151.646484 C176.752375,152.857428 177.263438,154.452464 177.263438,156.431641 C177.263438,158.833996 176.628678,160.695957 175.359141,162.017578 C174.089603,163.339199 172.302512,164 169.997813,164 L165.163828,164 Z M167.214609,162.466797 L169.841563,162.466797 C171.716572,162.466797 173.044684,161.962245 173.825938,160.953125 C174.665785,159.878901 175.085703,158.436858 175.085703,156.626953 C175.085703,154.927726 174.672296,153.593104 173.845469,152.623047 C173.344164,152.030596 172.745212,151.625327 172.048594,151.407227 C171.351976,151.189127 170.303809,151.080078 168.904063,151.080078 L167.214609,151.080078 L167.214609,162.466797 Z M188.728281,164 L184.782969,153.394531 L186.706797,153.394531 L189.792734,161.646484 L193.044688,153.394531 L194.841563,153.394531 L190.652109,164 L188.728281,164 Z M204.656016,163.658203 C203.366947,164.04883 202.263442,164.244141 201.345469,164.244141 C199.782961,164.244141 198.50856,163.72494 197.522227,162.686523 C196.535894,161.648107 196.042734,160.302092 196.042734,158.648438 C196.042734,157.040357 196.4773,155.72201 197.346445,154.693359 C198.21559,153.664708 199.327233,153.150391 200.681406,153.150391 C201.963965,153.150391 202.955166,153.606115 203.655039,154.517578 C204.354912,155.429041 204.704844,156.724601 204.704844,158.404297 L204.695078,159 L198.005625,159 C198.285574,161.519544 199.519286,162.779297 201.706797,162.779297 C202.507582,162.779297 203.490645,162.564455 204.656016,162.134766 L204.656016,163.658203 Z M198.093516,157.554688 L202.77125,157.554688 C202.77125,155.582021 202.03558,154.595703 200.564219,154.595703 C199.086347,154.595703 198.262787,155.582021 198.093516,157.554688 Z M208.025156,164 L208.025156,153.394531 L209.948984,153.394531 L209.948984,155.386719 C210.710707,153.902336 211.817467,153.160156 213.269297,153.160156 C213.46461,153.160156 213.669686,153.176432 213.884531,153.208984 L213.884531,155.005859 C213.552498,154.895182 213.259533,154.839844 213.005625,154.839844 C211.788171,154.839844 210.769301,155.562493 209.948984,157.007812 L209.948984,164 L208.025156,164 Z M216.20875,164 L216.20875,153.394531 L218.132578,153.394531 L218.132578,164 L216.20875,164 Z M216.20875,151.470703 L216.20875,149.546875 L218.132578,149.546875 L218.132578,151.470703 L216.20875,151.470703 Z M222.351328,164 L222.351328,154.839844 L220.847422,154.839844 L220.847422,153.394531 L222.351328,153.394531 L222.351328,152.125 C222.351328,149.598946 223.50366,148.335938 225.808359,148.335938 C226.452894,148.335938 227.185308,148.443358 228.005625,148.658203 L228.005625,150.181641 C227.139735,149.914712 226.446383,149.78125 225.925547,149.78125 C225.294033,149.78125 224.862723,149.932616 224.631602,150.235352 C224.400481,150.538087 224.284922,151.099605 224.284922,151.919922 L224.284922,153.394531 L231.023203,153.394531 L231.023203,164 L229.099375,164 L229.099375,154.839844 L224.284922,154.839844 L224.284922,164 L222.351328,164 Z M229.099375,151.470703 L229.099375,149.546875 L231.023203,149.546875 L231.023203,151.470703 L229.099375,151.470703 Z M239.02125,164.244141 C237.588951,164.244141 236.400812,163.713547 235.456797,162.652344 C234.512782,161.591141 234.040781,160.253263 234.040781,158.638672 C234.040781,156.913403 234.507899,155.569015 235.442148,154.605469 C236.376398,153.641922 237.680096,153.160156 239.353281,153.160156 C240.180108,153.160156 241.104578,153.274087 242.126719,153.501953 L242.126719,155.113281 C241.039474,154.794269 240.154066,154.634766 239.470469,154.634766 C238.487391,154.634766 237.698011,155.004228 237.102305,155.743164 C236.506599,156.4821 236.20875,157.466791 236.20875,158.697266 C236.20875,159.888678 236.514737,160.85221 237.126719,161.587891 C237.738701,162.323571 238.539474,162.691406 239.529063,162.691406 C240.407973,162.691406 241.312912,162.466799 242.243906,162.017578 L242.243906,163.677734 C241.00041,164.05534 239.926202,164.244141 239.02125,164.244141 Z M250.593516,162.652344 C249.441166,163.713547 248.331151,164.244141 247.263438,164.244141 C246.384527,164.244141 245.655367,163.969078 245.075938,163.418945 C244.496508,162.868812 244.206797,162.173832 244.206797,161.333984 C244.206797,160.175124 244.693446,159.284834 245.666758,158.663086 C246.64007,158.041338 248.034913,157.730469 249.851328,157.730469 L250.310313,157.730469 L250.310313,156.451172 C250.310313,155.220697 249.678808,154.605469 248.415781,154.605469 C247.400151,154.605469 246.303157,154.917966 245.124766,155.542969 L245.124766,153.951172 C246.420345,153.423825 247.634526,153.160156 248.767344,153.160156 C249.952246,153.160156 250.82626,153.427081 251.389414,153.960938 C251.952568,154.494794 252.234141,155.324864 252.234141,156.451172 L252.234141,161.255859 C252.234141,162.356125 252.572679,162.90625 253.249766,162.90625 C253.334401,162.90625 253.458098,162.893229 253.620859,162.867188 L253.757578,163.931641 C253.321378,164.139975 252.839612,164.244141 252.312266,164.244141 C251.413824,164.244141 250.840913,163.713547 250.593516,162.652344 Z M250.310313,161.607422 L250.310313,158.863281 L249.665781,158.84375 C248.611088,158.84375 247.758232,159.043943 247.107188,159.444336 C246.456143,159.844729 246.130625,160.370439 246.130625,161.021484 C246.130625,161.483726 246.293384,161.874347 246.618906,162.193359 C246.944429,162.512371 247.34156,162.671875 247.810313,162.671875 C248.611098,162.671875 249.444423,162.317061 250.310313,161.607422 Z M259.353281,164.244141 C258.376714,164.244141 257.615003,163.964196 257.068125,163.404297 C256.521247,162.844398 256.247813,162.066411 256.247813,161.070312 L256.247813,154.839844 L254.919688,154.839844 L254.919688,153.394531 L256.247813,153.394531 L256.247813,151.470703 L258.171641,151.285156 L258.171641,153.394531 L260.945078,153.394531 L260.945078,154.839844 L258.171641,154.839844 L258.171641,160.71875 C258.171641,162.105476 258.770593,162.798828 259.968516,162.798828 C260.222423,162.798828 260.531665,162.756511 260.89625,162.671875 L260.89625,164 C260.303799,164.162761 259.789481,164.244141 259.353281,164.244141 Z M263.650156,164 L263.650156,153.394531 L265.573984,153.394531 L265.573984,164 L263.650156,164 Z M263.650156,151.470703 L263.650156,149.546875 L265.573984,149.546875 L265.573984,151.470703 L263.650156,151.470703 Z M273.581797,164.244141 C272.064862,164.244141 270.853937,163.741216 269.948984,162.735352 C269.044032,161.729487 268.591563,160.383472 268.591563,158.697266 C268.591563,156.991528 269.04566,155.642258 269.953867,154.649414 C270.862075,153.656571 272.094159,153.160156 273.650156,153.160156 C275.206154,153.160156 276.438238,153.656571 277.346445,154.649414 C278.254653,155.642258 278.70875,156.985018 278.70875,158.677734 C278.70875,160.409514 278.253025,161.770177 277.341563,162.759766 C276.4301,163.749354 275.176857,164.244141 273.581797,164.244141 Z M273.611094,162.798828 C275.648864,162.798828 276.667734,161.425144 276.667734,158.677734 C276.667734,155.962877 275.661885,154.605469 273.650156,154.605469 C271.644938,154.605469 270.642344,155.969387 270.642344,158.697266 C270.642344,161.431654 271.631917,162.798828 273.611094,162.798828 Z M281.716563,164 L281.716563,153.394531 L283.640391,153.394531 L283.640391,155.386719 C284.656021,153.902336 285.899498,153.160156 287.370859,153.160156 C288.288833,153.160156 289.021247,153.451494 289.568125,154.03418 C290.115003,154.616865 290.388438,155.399735 290.388438,156.382812 L290.388438,164 L288.464609,164 L288.464609,157.007812 C288.464609,156.220048 288.349051,155.65853 288.11793,155.323242 C287.886809,154.987954 287.504326,154.820312 286.970469,154.820312 C285.792077,154.820312 284.682063,155.591789 283.640391,157.134766 L283.640391,164 L281.716563,164 Z" id="Narrative" fill="#FFFFFF"></path>
                <g id="payment_type_paypal" transform="translate(31.000000, 80.000000)" fill="#FFFFFF" font-family="AzoSans-Regular, Azo Sans" font-size="20" font-weight="normal" line-spacing="20">
                    <text id="PayPal">
                        <tspan x="0" y="20">Availabile in ETH</tspan>
                    </text>
                </g>
                <rect id="Rectangle-10" stroke="#979797" fill="#D8D8D8" opacity="0.100000001" x="0.5" y="0.5" width="1319" height="527" rx="4"></rect>
                <rect id="Rectangle-231-Copy-26" fill="#F7F7F7" opacity="0.100000001" x="0" y="124" width="1320" height="2"></rect>
                <rect id="Rectangle-231-Copy-26" fill="#F7F7F7" opacity="0.28" x="0" y="0" width="1320" height="60" rx="4"></rect>
                <rect id="Rectangle-231-Copy-26" fill="#F7F7F7" opacity="0.100000001" x="0" y="190" width="1320" height="2"></rect>
                <rect id="Rectangle-231-Copy-26" fill="#F7F7F7" opacity="0.100000001" x="0" y="250" width="1320" height="2"></rect>
                <rect id="Rectangle-231-Copy-26" fill="#F7F7F7" opacity="0.100000001" x="0" y="316" width="1320" height="2"></rect>
                <rect id="Rectangle-231-Copy-26" fill="#F7F7F7" opacity="0.100000001" x="0" y="382" width="1320" height="2"></rect>
                <g id="checked21-copy-7" transform="translate(546.000000, 279.000000)" fill="#89FF00">
                    <path d="M11.8693125,1.55173846 L10.5331875,0.126507692 C10.3750529,-0.0421692308 10.1186394,-0.0421692308 9.96050481,0.126507692 L4.39463942,6.06349231 L2.02735096,3.53844615 C1.86927404,3.36976923 1.61283173,3.36976923 1.45472596,3.53844615 L0.118600962,4.96367692 C-0.0395336538,5.13232308 -0.0395336538,5.40583077 0.118600962,5.57450769 L4.10834135,9.8302 C4.18740865,9.91456923 4.29105288,9.95672308 4.39466827,9.95672308 C4.4983125,9.95672308 4.60195673,9.91456923 4.68099519,9.8302 L11.8693125,2.16253846 C11.9452644,2.08155385 11.987899,1.97167692 11.987899,1.85715385 C11.9879279,1.74256923 11.9452644,1.63275385 11.8693125,1.55173846 L11.8693125,1.55173846 Z" id="Shape"></path>
                    <path d="M11.8693125,67.5517385 L10.5331875,66.1265077 C10.3750529,65.9578308 10.1186394,65.9578308 9.96050481,66.1265077 L4.39463942,72.0634923 L2.02735096,69.5384462 C1.86927404,69.3697692 1.61283173,69.3697692 1.45472596,69.5384462 L0.118600962,70.9636769 C-0.0395336538,71.1323231 -0.0395336538,71.4058308 0.118600962,71.5745077 L4.10834135,75.8302 C4.18740865,75.9145692 4.29105288,75.9567231 4.39466827,75.9567231 C4.4983125,75.9567231 4.60195673,75.9145692 4.68099519,75.8302 L11.8693125,68.1625385 C11.9452644,68.0815538 11.987899,67.9716769 11.987899,67.8571538 C11.9879279,67.7425692 11.9452644,67.6327538 11.8693125,67.5517385 L11.8693125,67.5517385 Z" id="Shape"></path>
                </g>
                <g id="checked21-copy-8" transform="translate(546.000000, 87.000000)" fill="#89FF00">
                    <path d="M11.8693125,1.55173846 L10.5331875,0.126507692 C10.3750529,-0.0421692308 10.1186394,-0.0421692308 9.96050481,0.126507692 L4.39463942,6.06349231 L2.02735096,3.53844615 C1.86927404,3.36976923 1.61283173,3.36976923 1.45472596,3.53844615 L0.118600962,4.96367692 C-0.0395336538,5.13232308 -0.0395336538,5.40583077 0.118600962,5.57450769 L4.10834135,9.8302 C4.18740865,9.91456923 4.29105288,9.95672308 4.39466827,9.95672308 C4.4983125,9.95672308 4.60195673,9.91456923 4.68099519,9.8302 L11.8693125,2.16253846 C11.9452644,2.08155385 11.987899,1.97167692 11.987899,1.85715385 C11.9879279,1.74256923 11.9452644,1.63275385 11.8693125,1.55173846 L11.8693125,1.55173846 Z" id="Shape"></path>
                </g>
                <g id="checked21-copy-8" transform="translate(546.000000, 153.000000)" fill="#89FF00">
                    <path d="M11.8693125,1.55173846 L10.5331875,0.126507692 C10.3750529,-0.0421692308 10.1186394,-0.0421692308 9.96050481,0.126507692 L4.39463942,6.06349231 L2.02735096,3.53844615 C1.86927404,3.36976923 1.61283173,3.36976923 1.45472596,3.53844615 L0.118600962,4.96367692 C-0.0395336538,5.13232308 -0.0395336538,5.40583077 0.118600962,5.57450769 L4.10834135,9.8302 C4.18740865,9.91456923 4.29105288,9.95672308 4.39466827,9.95672308 C4.4983125,9.95672308 4.60195673,9.91456923 4.68099519,9.8302 L11.8693125,2.16253846 C11.9452644,2.08155385 11.987899,1.97167692 11.987899,1.85715385 C11.9879279,1.74256923 11.9452644,1.63275385 11.8693125,1.55173846 L11.8693125,1.55173846 Z" id="Shape"></path>
                    <path d="M638.869312,1.55173846 L637.533188,0.126507692 C637.375053,-0.0421692308 637.118639,-0.0421692308 636.960505,0.126507692 L631.394639,6.06349231 L629.027351,3.53844615 C628.869274,3.36976923 628.612832,3.36976923 628.454726,3.53844615 L627.118601,4.96367692 C626.960466,5.13232308 626.960466,5.40583077 627.118601,5.57450769 L631.108341,9.8302 C631.187409,9.91456923 631.291053,9.95672308 631.394668,9.95672308 C631.498312,9.95672308 631.601957,9.91456923 631.680995,9.8302 L638.869312,2.16253846 C638.945264,2.08155385 638.987899,1.97167692 638.987899,1.85715385 C638.987928,1.74256923 638.945264,1.63275385 638.869312,1.55173846 L638.869312,1.55173846 Z" id="Shape"></path>
                </g>
                <text id="Ninja" font-family="AzoSans-Bold, Azo Sans" font-size="24" font-weight="bold" line-spacing="24" fill="#FFFFFF">
                    <tspan x="522" y="42">Ninja</tspan>
                </text>
                <text id="Local-Bitcoin" font-family="AzoSans-Bold, Azo Sans" font-size="24" font-weight="bold" line-spacing="24" fill="#FFFFFF">
                    <tspan x="659" y="42">Local Bitcoin</tspan>
                </text>
                <text id="Wall-of-coin" font-family="LucidaGrande-Bold, Lucida Grande" font-size="24" font-weight="bold" line-spacing="24" fill="#FFFFFF">
                    <tspan x="882" y="41">Wall of coin</tspan>
                </text>
                <text id="Bitcoin-ATM" font-family="LucidaGrande-Bold, Lucida Grande" font-size="24" font-weight="bold" line-spacing="24" fill="#FFFFFF">
                    <tspan x="1104" y="41">Bitcoin ATM</tspan>
                </text>
                <polygon id="Shape" stroke="#FF0000" fill="#FF0000" fill-rule="nonzero" stroke-linecap="round" stroke-linejoin="round" points="1173.84404 86 1173 86.8440367 1178.15596 92 1173 97.1559633 1173.84404 98 1179 92.8440367 1184.15596 98 1185 97.1559633 1179.84404 92 1185 86.8440367 1184.15596 86 1179 91.1559633"></polygon>
                <text id="Amount" font-family="AzoSans-Regular, Azo Sans" font-size="20" font-weight="normal" line-spacing="20" fill="#FFFFFF">
                    <tspan x="31" y="427">Smart contract by blockchain technology</tspan>
                </text>
                <text id="Amount" font-family="AzoSans-Regular, Azo Sans" font-size="20" font-weight="normal" line-spacing="20" fill="#FFFFFF">
                    <tspan x="31" y="499">Anonymous transaction history</tspan>
                </text>
                <rect id="Rectangle-231-Copy-26" fill="#F7F7F7" opacity="0.100000001" x="0" y="451" width="1320" height="2"></rect>
                <path d="M557.869312,415.551738 L556.533188,414.126508 C556.375053,413.957831 556.118639,413.957831 555.960505,414.126508 L550.394639,420.063492 L548.027351,417.538446 C547.869274,417.369769 547.612832,417.369769 547.454726,417.538446 L546.118601,418.963677 C545.960466,419.132323 545.960466,419.405831 546.118601,419.574508 L550.108341,423.8302 C550.187409,423.914569 550.291053,423.956723 550.394668,423.956723 C550.498312,423.956723 550.601957,423.914569 550.680995,423.8302 L557.869312,416.162538 C557.945264,416.081554 557.987899,415.971677 557.987899,415.857154 C557.987928,415.742569 557.945264,415.632754 557.869312,415.551738 L557.869312,415.551738 Z" id="Shape" fill="#89FF00"></path>
                <path d="M960.869312,280.551738 L959.533188,279.126508 C959.375053,278.957831 959.118639,278.957831 958.960505,279.126508 L953.394639,285.063492 L951.027351,282.538446 C950.869274,282.369769 950.612832,282.369769 950.454726,282.538446 L949.118601,283.963677 C948.960466,284.132323 948.960466,284.405831 949.118601,284.574508 L953.108341,288.8302 C953.187409,288.914569 953.291053,288.956723 953.394668,288.956723 C953.498312,288.956723 953.601957,288.914569 953.680995,288.8302 L960.869312,281.162538 C960.945264,281.081554 960.987899,280.971677 960.987899,280.857154 C960.987928,280.742569 960.945264,280.632754 960.869312,280.551738 L960.869312,280.551738 Z" id="Shape" fill="#89FF00"></path>
                <path d="M1184.86931,280.551738 L1183.53319,279.126508 C1183.37505,278.957831 1183.11864,278.957831 1182.9605,279.126508 L1177.39464,285.063492 L1175.02735,282.538446 C1174.86927,282.369769 1174.61283,282.369769 1174.45473,282.538446 L1173.1186,283.963677 C1172.96047,284.132323 1172.96047,284.405831 1173.1186,284.574508 L1177.10834,288.8302 C1177.18741,288.914569 1177.29105,288.956723 1177.39467,288.956723 C1177.49831,288.956723 1177.60196,288.914569 1177.681,288.8302 L1184.86931,281.162538 C1184.94526,281.081554 1184.9879,280.971677 1184.9879,280.857154 C1184.98793,280.742569 1184.94526,280.632754 1184.86931,280.551738 L1184.86931,280.551738 Z" id="Shape" fill="#89FF00"></path>
                <path d="M960.869312,415.551738 L959.533188,414.126508 C959.375053,413.957831 959.118639,413.957831 958.960505,414.126508 L953.394639,420.063492 L951.027351,417.538446 C950.869274,417.369769 950.612832,417.369769 950.454726,417.538446 L949.118601,418.963677 C948.960466,419.132323 948.960466,419.405831 949.118601,419.574508 L953.108341,423.8302 C953.187409,423.914569 953.291053,423.956723 953.394668,423.956723 C953.498312,423.956723 953.601957,423.914569 953.680995,423.8302 L960.869312,416.162538 C960.945264,416.081554 960.987899,415.971677 960.987899,415.857154 C960.987928,415.742569 960.945264,415.632754 960.869312,415.551738 L960.869312,415.551738 Z" id="Shape" fill="#89FF00"></path>
                <polygon id="Shape" stroke="#FFFFFF" fill="#FFFFFF" fill-rule="nonzero" stroke-linecap="round" stroke-linejoin="round" transform="translate(1179.485281, 418.485281) rotate(-45.000000) translate(-1179.485281, -418.485281) " points="1174.32932 412.485281 1173.48528 413.329318 1178.64124 418.485281 1179.48528 419.329318 1184.64124 424.485281 1185.48528 423.641245 1180.32932 418.485281 1179.48528 417.641245"></polygon>
                <polygon id="Shape" stroke="#FFFFFF" fill="#FFFFFF" fill-rule="nonzero" stroke-linecap="round" stroke-linejoin="round" transform="translate(1179.485281, 347.485281) rotate(-45.000000) translate(-1179.485281, -347.485281) " points="1174.32932 341.485281 1173.48528 342.329318 1178.64124 347.485281 1179.48528 348.329318 1184.64124 353.485281 1185.48528 352.641245 1180.32932 347.485281 1179.48528 346.641245"></polygon>
                <path d="M557.869312,485.551738 L556.533188,484.126508 C556.375053,483.957831 556.118639,483.957831 555.960505,484.126508 L550.394639,490.063492 L548.027351,487.538446 C547.869274,487.369769 547.612832,487.369769 547.454726,487.538446 L546.118601,488.963677 C545.960466,489.132323 545.960466,489.405831 546.118601,489.574508 L550.108341,493.8302 C550.187409,493.914569 550.291053,493.956723 550.394668,493.956723 C550.498312,493.956723 550.601957,493.914569 550.680995,493.8302 L557.869312,486.162538 C557.945264,486.081554 557.987899,485.971677 557.987899,485.857154 C557.987928,485.742569 557.945264,485.632754 557.869312,485.551738 L557.869312,485.551738 Z" id="Shape" fill="#89FF00"></path>
                <path d="M737.869312,415.551738 L736.533188,414.126508 C736.375053,413.957831 736.118639,413.957831 735.960505,414.126508 L730.394639,420.063492 L728.027351,417.538446 C727.869274,417.369769 727.612832,417.369769 727.454726,417.538446 L726.118601,418.963677 C725.960466,419.132323 725.960466,419.405831 726.118601,419.574508 L730.108341,423.8302 C730.187409,423.914569 730.291053,423.956723 730.394668,423.956723 C730.498312,423.956723 730.601957,423.914569 730.680995,423.8302 L737.869312,416.162538 C737.945264,416.081554 737.987899,415.971677 737.987899,415.857154 C737.987928,415.742569 737.945264,415.632754 737.869312,415.551738 L737.869312,415.551738 Z" id="Shape" fill="#89FF00"></path>
                <path d="M737.869312,485.551738 L736.533188,484.126508 C736.375053,483.957831 736.118639,483.957831 735.960505,484.126508 L730.394639,490.063492 L728.027351,487.538446 C727.869274,487.369769 727.612832,487.369769 727.454726,487.538446 L726.118601,488.963677 C725.960466,489.132323 725.960466,489.405831 726.118601,489.574508 L730.108341,493.8302 C730.187409,493.914569 730.291053,493.956723 730.394668,493.956723 C730.498312,493.956723 730.601957,493.914569 730.680995,493.8302 L737.869312,486.162538 C737.945264,486.081554 737.987899,485.971677 737.987899,485.857154 C737.987928,485.742569 737.945264,485.632754 737.869312,485.551738 L737.869312,485.551738 Z" id="Shape" fill="#89FF00"></path>
                <polygon id="Shape" stroke="#FF0000" fill="#FF0000" fill-rule="nonzero" stroke-linecap="round" stroke-linejoin="round" points="1173.84404 483 1173 483.844037 1178.15596 489 1173 494.155963 1173.84404 495 1179 489.844037 1184.15596 495 1185 494.155963 1179.84404 489 1185 483.844037 1184.15596 483 1179 488.155963"></polygon>
                <polygon id="Shape" stroke="#FF0000" fill="#FF0000" fill-rule="nonzero" stroke-linecap="round" stroke-linejoin="round" points="949.844037 86 949 86.8440367 954.155963 92 949 97.1559633 949.844037 98 955 92.8440367 960.155963 98 961 97.1559633 955.844037 92 961 86.8440367 960.155963 86 955 91.1559633"></polygon>
                <polygon id="Shape" stroke="#FF0000" fill="#FF0000" fill-rule="nonzero" stroke-linecap="round" stroke-linejoin="round" points="949.844037 342 949 342.844037 954.155963 348 949 353.155963 949.844037 354 955 348.844037 960.155963 354 961 353.155963 955.844037 348 961 342.844037 960.155963 342 955 347.155963"></polygon>
                <polygon id="Shape" stroke="#FF0000" fill="#FF0000" fill-rule="nonzero" stroke-linecap="round" stroke-linejoin="round" points="949.844037 483 949 483.844037 954.155963 489 949 494.155963 949.844037 495 955 489.844037 960.155963 495 961 494.155963 955.844037 489 961 483.844037 960.155963 483 955 488.155963"></polygon>
                <polygon id="Shape" stroke="#FF0000" fill="#FF0000" fill-rule="nonzero" stroke-linecap="round" stroke-linejoin="round" points="949.844037 152 949 152.844037 954.155963 158 949 163.155963 949.844037 164 955 158.844037 960.155963 164 961 163.155963 955.844037 158 961 152.844037 960.155963 152 955 157.155963"></polygon>
                <polygon id="Shape" stroke="#FF0000" fill="#FF0000" fill-rule="nonzero" stroke-linecap="round" stroke-linejoin="round" points="726.844037 278 726 278.844037 731.155963 284 726 289.155963 726.844037 290 732 284.844037 737.155963 290 738 289.155963 732.844037 284 738 278.844037 737.155963 278 732 283.155963"></polygon>
                <polygon id="Shape" stroke="#FF0000" fill="#FF0000" fill-rule="nonzero" stroke-linecap="round" stroke-linejoin="round" points="726.844037 86 726 86.8440367 731.155963 92 726 97.1559633 726.844037 98 732 92.8440367 737.155963 98 738 97.1559633 732.844037 92 738 86.8440367 737.155963 86 732 91.1559633"></polygon>
                <polygon id="Shape" stroke="#FF0000" fill="#FF0000" fill-rule="nonzero" stroke-linecap="round" stroke-linejoin="round" points="726.844037 344 726 344.844037 731.155963 350 726 355.155963 726.844037 356 732 350.844037 737.155963 356 738 355.155963 732.844037 350 738 344.844037 737.155963 344 732 349.155963"></polygon>
                <polygon id="Shape" stroke="#FF0000" fill="#FF0000" fill-rule="nonzero" stroke-linecap="round" stroke-linejoin="round" points="726.844037 152 726 152.844037 731.155963 158 726 163.155963 726.844037 164 732 158.844037 737.155963 164 738 163.155963 732.844037 158 738 152.844037 737.155963 152 732 157.155963"></polygon>
            </g>
        </g>
    </g>
</svg>