<?xml version="1.0" encoding="UTF-8"?>
<svg width="80px" height="80px" viewBox="0 0 80 80" version="1.1" xmlns="http://www.w3.org/2000/svg" xmlns:xlink="http://www.w3.org/1999/xlink">
    <!-- Generator: Sketch 50.2 (55047) - http://www.bohemiancoding.com/sketch -->
    <title>Shape</title>
    <desc>Created with Sketch.</desc>
    <defs></defs>
    <g id="Page-1" stroke="none" stroke-width="1" fill="none" fill-rule="evenodd">
        <g id="New-landing-page" transform="translate(-659.000000, -2199.000000)" fill="#FFFFFF" fill-rule="nonzero">
            <g id="Group-7" transform="translate(508.000000, 2199.000000)">
                <path d="M191,0 C168.921401,0 151,17.9214012 151,40 C151,62.0785988 168.921401,80 191,80 C213.078599,80 231,62.0785988 231,40 C231,17.9214012 213.078599,0 191,0 Z M191,2.42424242 C211.767046,2.42424242 228.575758,19.2329552 228.575758,40 C228.575758,60.7670461 211.767046,77.5757576 191,77.5757576 C170.232955,77.5757576 153.424242,60.7670461 153.424242,40 C153.424242,19.2329552 170.232955,2.42424242 191,2.42424242 Z M191,6.06060606 C190.332387,6.06060606 189.787879,6.60511394 189.787879,7.27272727 C189.787879,7.94034061 190.332387,8.48484848 191,8.48484848 C191.667613,8.48484848 192.212121,7.94034061 192.212121,7.27272727 C192.212121,6.60511394 191.667613,6.06060606 191,6.06060606 Z M197.41572,6.68560606 C196.823864,6.67140121 196.312501,7.08333333 196.194128,7.66572 C196.066288,8.31912848 196.492424,8.95833333 197.150568,9.09090909 C197.803977,9.2187503 198.443182,8.79261333 198.575758,8.13920485 C198.703599,7.48106061 198.277462,6.84185576 197.624053,6.70928 C197.55303,6.69981091 197.486743,6.69034061 197.41572,6.68560606 Z M184.622159,6.69034061 C184.541667,6.69034061 184.461175,6.69507636 184.380682,6.70928 C183.722538,6.84185576 183.296401,7.48106061 183.428977,8.13920485 C183.490531,8.45170424 183.675189,8.73106061 183.945076,8.91098545 C184.210228,9.08617455 184.536932,9.15246182 184.854167,9.09090909 C185.51231,8.95833333 185.938447,8.32386424 185.805872,7.66572 C185.692235,7.10227273 185.199811,6.69507636 184.622159,6.69034061 Z M178.485795,8.55113697 C178.324811,8.55113697 178.163825,8.57954545 178.01231,8.64109818 C177.392046,8.90151515 177.098485,9.60700727 177.358902,10.2272727 C177.614583,10.8475382 178.320076,11.1410982 178.940341,10.885417 C179.560606,10.625 179.854167,9.91950788 179.598485,9.29924242 C179.409091,8.84943152 178.973485,8.55587152 178.485795,8.55113697 Z M203.552084,8.55113697 C203.050189,8.54166667 202.595644,8.83522788 202.401515,9.29924242 C202.145834,9.91950788 202.439394,10.625 203.059659,10.885417 C203.679925,11.1410982 204.385417,10.8475382 204.641098,10.2272727 C204.901515,9.60700727 204.607955,8.90151515 203.98769,8.64109818 C203.850379,8.58428 203.698864,8.55587152 203.552084,8.55113697 Z M172.832387,11.5719697 C172.586175,11.5719697 172.344697,11.6429927 172.141098,11.780303 C171.587121,12.1496218 171.435606,12.9024618 171.809659,13.4611745 C172.178977,14.0151515 172.931818,14.1666667 173.490531,13.7926133 C174.049242,13.4232958 174.196023,12.6704545 173.826704,12.1164776 C173.604167,11.780303 173.230114,11.5767042 172.832387,11.5719697 Z M209.200758,11.5719697 C208.788825,11.5672352 208.400568,11.7708339 208.173296,12.1164776 C207.799242,12.6704545 207.950758,13.4232958 208.504735,13.7926133 C209.063447,14.1666667 209.816288,14.0151515 210.185606,13.4611745 C210.365531,13.196023 210.431818,12.864583 210.370265,12.5520836 C210.308713,12.2348485 210.124053,11.9554921 209.854167,11.780303 C209.660038,11.6477273 209.437501,11.5767042 209.200758,11.5719697 Z M167.875,15.6439394 C167.548296,15.6439394 167.231061,15.7717806 167.003788,16.0037879 C166.530303,16.4725382 166.530303,17.2443188 167.003788,17.7130679 C167.472538,18.1865527 168.244319,18.1865527 168.713068,17.7130679 C169.186553,17.2443188 169.186553,16.4725382 168.713068,16.0037879 C168.490531,15.7765152 168.192235,15.6486739 167.875,15.6439394 Z M214.158144,15.6439394 C213.83144,15.6439394 213.514205,15.7717806 213.286932,16.0037879 C212.813447,16.4725382 212.813447,17.2443188 213.286932,17.7130679 C213.755682,18.1865527 214.527462,18.1865527 214.996212,17.7130679 C215.469697,17.2443188 215.469697,16.4725382 214.996212,16.0037879 C214.773674,15.7765152 214.475379,15.6486739 214.158144,15.6439394 Z M218.225379,20.6060606 C217.979167,20.6013261 217.742424,20.6723491 217.538825,20.8096594 C216.984848,21.178977 216.833333,21.9318182 217.207387,22.4857952 C217.576704,23.0445079 218.329545,23.196023 218.883522,22.8219697 C219.442235,22.4479164 219.59375,21.6998109 219.219697,21.1410982 C218.997159,20.8096594 218.623107,20.6060606 218.225379,20.6060606 Z M163.807765,20.6060606 C163.395834,20.5965915 163.007576,20.8001891 162.780303,21.1410982 C162.410985,21.6998109 162.557765,22.4526521 163.116478,22.8219697 C163.675189,23.196023 164.423296,23.0445079 164.797349,22.4905309 C165.166667,21.9318182 165.019886,21.178977 164.461175,20.8096594 C164.267046,20.6818182 164.044508,20.6107952 163.807765,20.6060606 Z M191,20.6060606 L181.30303,43.6363636 L189.787879,43.6363636 L189.787879,59.3939394 L200.69697,38.7878788 L191,38.7878788 L191,20.6060606 Z M221.246212,26.2642048 C221.085228,26.2594703 220.924242,26.2926133 220.772727,26.3541673 C220.152462,26.6098485 219.858902,27.3200764 220.114583,27.9356061 C220.375,28.5558715 221.080492,28.8494315 221.700758,28.5937503 C222.321023,28.3380679 222.614583,27.6278412 222.358902,27.0075758 C222.169508,26.5625006 221.733902,26.2642048 221.246212,26.2642048 Z M160.791667,26.2642048 C160.289773,26.2547345 159.835228,26.5482958 159.645834,27.0123103 C159.390152,27.6325758 159.683713,28.3380679 160.299242,28.5984848 C160.919508,28.8541673 161.629735,28.5606061 161.885417,27.9403406 C162.141098,27.3200764 161.847538,26.614583 161.227273,26.3589018 C161.089962,26.2973491 160.943182,26.2689394 160.791667,26.2642048 Z M223.102273,32.405303 C223.021781,32.4005685 222.941288,32.4100376 222.860795,32.4242424 C222.207387,32.5568182 221.78125,33.196023 221.909091,33.8494315 C222.041667,34.5075758 222.680872,34.9337127 223.33428,34.8058715 C223.992424,34.6732958 224.418561,34.0340909 224.29072,33.3759467 C224.177084,32.8125006 223.679925,32.405303 223.102273,32.405303 Z M158.935606,32.405303 C158.34375,32.3910982 157.832387,32.7982958 157.714016,33.3759467 C157.652462,33.6931818 157.714016,34.0246218 157.893939,34.2897733 C158.073864,34.5596594 158.353219,34.7443188 158.670455,34.8058715 C158.982955,34.8674242 159.309659,34.801137 159.579545,34.6259467 C159.844697,34.446023 160.029356,34.1666667 160.090909,33.8494315 C160.223485,33.196023 159.797349,32.5568182 159.143939,32.4242424 C159.072916,32.4147733 159.006629,32.405303 158.935606,32.405303 Z M158.272727,38.7878788 C157.605114,38.7878788 157.060606,39.3323867 157.060606,40 C157.060606,40.6676133 157.605114,41.2121212 158.272727,41.2121212 C158.940341,41.2121212 159.484848,40.6676133 159.484848,40 C159.484848,39.3323867 158.940341,38.7878788 158.272727,38.7878788 Z M223.727273,38.7878788 C223.059659,38.7878788 222.515152,39.3323867 222.515152,40 C222.515152,40.6676133 223.059659,41.2121212 223.727273,41.2121212 C224.394886,41.2121212 224.939394,40.6676133 224.939394,40 C224.939394,39.3323867 224.394886,38.7878788 223.727273,38.7878788 Z M158.907198,45.1704545 C158.826704,45.1704545 158.746212,45.1799248 158.66572,45.1941285 C158.007576,45.3267042 157.58144,45.9659091 157.714016,46.6240533 C157.846592,47.2774618 158.481061,47.7035988 159.139205,47.5757576 C159.797349,47.4431818 160.223485,46.803977 160.090909,46.1505685 C159.977273,45.5823867 159.484848,45.1751891 158.907198,45.1704545 Z M223.130682,45.1704545 C222.538825,45.1562497 222.027462,45.5681818 221.909091,46.1505685 C221.78125,46.803977 222.207387,47.4431818 222.860795,47.5757576 C223.518939,47.7035988 224.158144,47.2774618 224.29072,46.6240533 C224.418561,45.9659091 223.992424,45.3267042 223.33428,45.1941285 C223.267993,45.1846594 223.201704,45.1751891 223.130682,45.1704545 Z M221.265152,51.3068182 C220.763258,51.2973491 220.308713,51.5956436 220.114583,52.0596594 C219.858902,52.6751891 220.152462,53.385417 220.772727,53.6410982 C221.392993,53.8967806 222.098485,53.6032194 222.358902,52.9876897 C222.614583,52.3674242 222.321023,51.6571976 221.700758,51.4015152 C221.563447,51.344697 221.411932,51.3115527 221.265152,51.3068182 Z M160.772727,51.3115527 C160.611743,51.3115527 160.450758,51.3399624 160.299242,51.4015152 C160.005682,51.5246218 159.768939,51.7613636 159.645834,52.0596594 C159.522727,52.3579552 159.522727,52.6893939 159.641098,52.9876897 C159.901515,53.6079552 160.607007,53.9015152 161.227273,53.6410982 C161.525568,53.5227273 161.76231,53.2859855 161.885417,52.9876897 C162.008522,52.6893939 162.008522,52.3579552 161.885417,52.0596594 C161.700758,51.6098485 161.260417,51.3162885 160.772727,51.3115527 Z M218.234848,56.969697 C217.822916,56.9602279 217.434659,57.1638255 217.207387,57.5047345 C216.833333,58.0634473 216.984848,58.8115527 217.538825,59.1856061 C217.803977,59.3655309 218.135417,59.4318182 218.447916,59.3655309 C218.765152,59.303977 219.044508,59.1193188 219.219697,58.8494315 C219.59375,58.2954545 219.442235,57.5426133 218.883522,57.1732958 C218.694128,57.04072 218.466856,56.969697 218.234848,56.969697 Z M163.80303,56.969697 C163.556818,56.9649624 163.320076,57.0359855 163.116478,57.1732958 C162.562501,57.5473491 162.410985,58.2954545 162.780303,58.8541673 C163.154356,59.4081442 163.907198,59.5596594 164.465909,59.1856061 C165.019886,58.8162885 165.171401,58.0634473 164.797349,57.5047345 C164.574811,57.1732958 164.200758,56.9744315 163.80303,56.969697 Z M167.875,61.9318182 C167.548296,61.9270836 167.231061,62.0549248 167.003788,62.2869321 C166.530303,62.7556824 166.530303,63.5274618 167.003788,63.9962121 C167.472538,64.469697 168.244319,64.469697 168.713068,63.9962121 C169.186553,63.5274618 169.186553,62.7556824 168.713068,62.2869321 C168.490531,62.0596594 168.192235,61.9318182 167.875,61.9318182 Z M214.158144,61.9318182 C213.83144,61.9270836 213.514205,62.0549248 213.286932,62.2869321 C212.813447,62.7556824 212.813447,63.5274618 213.286932,63.9962121 C213.755682,64.469697 214.527462,64.469697 214.996212,63.9962121 C215.469697,63.5274618 215.469697,62.7556824 214.996212,62.2869321 C214.773674,62.0596594 214.475379,61.9318182 214.158144,61.9318182 Z M172.841856,65.9990533 C172.429925,65.989583 172.041667,66.1931818 171.814394,66.5340909 C171.440341,67.0928036 171.591856,67.8456436 172.150568,68.219697 C172.704545,68.5890158 173.457387,68.4375006 173.826704,67.8835224 C174.200758,67.3248109 174.049242,66.5767042 173.495265,66.2026521 C173.301137,66.0748109 173.073864,65.9990533 172.841856,65.9990533 Z M209.196023,65.9990533 C208.949811,65.9943188 208.713068,66.0653406 208.50947,66.1979164 C208.239583,66.3778412 208.054925,66.6571976 207.993371,66.9744315 C207.931818,67.2869321 207.998107,67.6183709 208.17803,67.8835224 C208.547349,68.4375006 209.300189,68.5890158 209.858902,68.219697 C210.412879,67.8456436 210.564394,67.0928036 210.190341,66.5340909 C209.972538,66.2026521 209.598485,65.9990533 209.196023,65.9990533 Z M178.504735,69.0198861 C178.002841,69.010417 177.548296,69.3087127 177.358902,69.7727273 C177.103219,70.3882582 177.396781,71.0984848 178.01231,71.3541673 C178.632576,71.6098485 179.342804,71.3162885 179.598485,70.7007576 C179.854167,70.0804921 179.560606,69.3702655 178.940341,69.114583 C178.80303,69.0577648 178.65625,69.0246218 178.504735,69.0198861 Z M203.533144,69.0198861 C203.372159,69.0198861 203.211175,69.0530303 203.064394,69.114583 C202.766098,69.2376897 202.529356,69.4744315 202.40625,69.7679927 C202.283144,70.0662885 202.283144,70.4024618 202.401515,70.7007576 C202.661932,71.3162885 203.367424,71.6098485 203.98769,71.3541673 C204.285985,71.2310606 204.522727,70.9943188 204.645834,70.7007576 C204.768939,70.4024618 204.768939,70.0662885 204.645834,69.7727273 C204.461175,69.3181818 204.020834,69.0246218 203.533144,69.0198861 Z M184.650568,70.885417 C184.058713,70.8712121 183.542613,71.2831442 183.428977,71.8607952 C183.296401,72.5189394 183.722538,73.1534097 184.380682,73.2859855 C185.038825,73.4185612 185.673296,72.9924242 185.805872,72.33428 C185.938447,71.676137 185.51231,71.0416667 184.854167,70.9090909 C184.787879,70.8948861 184.716856,70.885417 184.650568,70.885417 Z M197.38731,70.8901515 C197.306818,70.885417 197.226326,70.8948861 197.150568,70.9090909 C196.492424,71.0416667 196.066288,71.676137 196.194128,72.33428 C196.260417,72.6515152 196.445076,72.926137 196.710228,73.1060606 C196.980114,73.2859855 197.306818,73.3522727 197.624053,73.29072 C197.936553,73.2244315 198.215909,73.0397733 198.395834,72.7746218 C198.571023,72.5047345 198.63731,72.1780303 198.575758,71.8607952 C198.462121,71.2973491 197.964962,70.8901515 197.38731,70.8901515 Z M191,71.5151515 C190.332387,71.5151515 189.787879,72.0596594 189.787879,72.7272727 C189.787879,73.3948861 190.332387,73.9393939 191,73.9393939 C191.667613,73.9393939 192.212121,73.3948861 192.212121,72.7272727 C192.212121,72.0596594 191.667613,71.5151515 191,71.5151515 Z" id="Shape"></path>
            </g>
        </g>
    </g>
</svg>