<?xml version="1.0" encoding="UTF-8"?>
<svg width="44px" height="44px" viewBox="0 0 44 44" version="1.1" xmlns="http://www.w3.org/2000/svg" xmlns:xlink="http://www.w3.org/1999/xlink">
    <!-- Generator: Sketch 50.2 (55047) - http://www.bohemiancoding.com/sketch -->
    <title>Group 7</title>
    <desc>Created with Sketch.</desc>
    <defs></defs>
    <g id="Page-1" stroke="none" stroke-width="1" fill="none" fill-rule="evenodd">
        <g id="Artboard-Copy" transform="translate(-791.000000, -74.000000)" stroke="#F95559">
            <g id="Group-7" transform="translate(792.000000, 75.000000)">
                <circle id="Oval-Copy-2" stroke-width="2" cx="21" cy="21" r="21"></circle>
                <g id="icons8-twitter" transform="translate(9.000000, 11.000000)" fill="#F95559" fill-rule="nonzero">
                    <path d="M17.609375,0.234375 C14.6191405,0.234375 12.1875,2.6660155 12.1875,5.65625 C12.1875,5.8359375 12.232422,6.011719 12.25,6.1875 C8.5527345,5.8339845 5.283203,4.0527345 3.0625,1.328125 C2.9589845,1.1972655 2.798828,1.126953 2.6308595,1.138672 C2.464844,1.1503905 2.3164065,1.246094 2.234375,1.390625 C1.767578,2.1933595 1.5,3.1171875 1.5,4.109375 C1.5,5.310547 1.9296875,6.4101565 2.59375,7.3125 C2.464844,7.2558595 2.324219,7.2246095 2.203125,7.15625 C2.048828,7.074219 1.8632815,7.078125 1.7128905,7.167969 C1.5625,7.2578125 1.470703,7.419922 1.46875,7.59375 L1.46875,7.65625 C1.46875,9.498047 2.421875,11.0976565 3.828125,12.078125 C3.8125,12.076172 3.796875,12.0820315 3.78125,12.078125 C3.609375,12.048828 3.435547,12.109375 3.3203125,12.2402345 C3.205078,12.371094 3.167969,12.5527345 3.21875,12.71875 C3.777344,14.455078 5.203125,15.78125 6.96875,16.265625 C5.5625,17.1015625 3.9316405,17.59375 2.171875,17.59375 C1.7910155,17.59375 1.4257815,17.574219 1.0625,17.53125 C0.828125,17.5 0.6035155,17.636719 0.52539065,17.859375 C0.4453125,18.0820315 0.53320315,18.330078 0.734375,18.453125 C2.9902345,19.9003905 5.667969,20.75 8.546875,20.75 C13.2128905,20.75 16.873047,18.8007815 19.328125,16.015625 C21.783203,13.230469 23.0625,9.6132815 23.0625,6.234375 C23.0625,6.091797 23.0507815,5.953125 23.046875,5.8125 C23.9628905,5.111328 24.78125,4.2890625 25.421875,3.328125 C25.548828,3.142578 25.5351565,2.8945315 25.388672,2.7226565 C25.2441405,2.5507815 25,2.498047 24.796875,2.59375 C24.5390625,2.7089845 24.2382815,2.720703 23.96875,2.8125 C24.324219,2.3378905 24.6289065,1.826172 24.8125,1.25 C24.875,1.0527345 24.8066405,0.8359375 24.6445315,0.7070315 C24.482422,0.580078 24.2558595,0.564453 24.078125,0.671875 C23.2246095,1.1777345 22.279297,1.533203 21.28125,1.75 C20.3125,0.84375 19.0371095,0.234375 17.609375,0.234375 Z M17.609375,1.234375 C18.8847655,1.234375 20.0371095,1.779297 20.84375,2.640625 C20.964844,2.765625 21.142578,2.8183595 21.3125,2.78125 C21.964844,2.652344 22.5839845,2.4628905 23.1875,2.21875 C22.839844,2.6875 22.4101565,3.0878905 21.90625,3.390625 C21.6777345,3.501953 21.5703125,3.765625 21.654297,4.0058595 C21.736328,4.2441405 21.986328,4.3828125 22.234375,4.328125 C22.734375,4.267578 23.1796875,4.064453 23.65625,3.9375 C23.2285155,4.4003905 22.7597655,4.8183595 22.25,5.1875 C22.111328,5.2890625 22.0351565,5.453125 22.046875,5.625 C22.0546875,5.828125 22.0625,6.029297 22.0625,6.234375 C22.0625,9.359375 20.8632815,12.751953 18.578125,15.34375 C16.292969,17.935547 12.9375,19.75 8.546875,19.75 C6.5527345,19.75 4.669922,19.308594 2.96875,18.53125 C5.078125,18.3691405 7.0234375,17.623047 8.59375,16.390625 C8.7578125,16.2597655 8.8222655,16.0410155 8.7558595,15.841797 C8.689453,15.642578 8.5058595,15.5058595 8.296875,15.5 C6.6484375,15.470703 5.267578,14.511719 4.53125,13.15625 C4.558594,13.15625 4.5820315,13.15625 4.609375,13.15625 C5.1035155,13.15625 5.591797,13.09375 6.046875,12.96875 C6.265625,12.904297 6.4160155,12.701172 6.408203,12.4726565 C6.4003905,12.2441405 6.2382815,12.048828 6.015625,12 C4.236328,11.640625 2.902344,10.1914065 2.59375,8.390625 C3.0976565,8.564453 3.6132815,8.701172 4.171875,8.71875 C4.4003905,8.732422 4.607422,8.589844 4.6777345,8.373047 C4.748047,8.15625 4.6621095,7.917969 4.46875,7.796875 C3.28125,7.001953 2.5,5.6484375 2.5,4.109375 C2.5,3.5390625 2.6484375,3.015625 2.84375,2.515625 C5.34375,5.2597655 8.84375,7.0820315 12.796875,7.28125 C12.953125,7.2890625 13.105469,7.2246095 13.2070315,7.105469 C13.308594,6.984375 13.3476565,6.824219 13.3125,6.671875 C13.236328,6.3476565 13.1875,6.0039065 13.1875,5.65625 C13.1875,3.2070315 15.1601565,1.234375 17.609375,1.234375 Z" id="Shape"></path>
                </g>
            </g>
        </g>
    </g>
</svg>