
<svg id="Layer_1" data-name="Layer 1" xmlns="http://www.w3.org/2000/svg" viewBox="0 0 115 15.69" fill="#ffffff" width="150"><title>Logo autonomous black</title><path d="M18.12,12.36s-1.72,2.83-3.66,1.17c-.8-.57-2-2.6-2.65-6.14h0S10.76.92,7.57.29A4.18,4.18,0,0,0,2.45,3l.29.58S4.46.7,6.4,2.36A7.76,7.76,0,0,1,8.46,6.09L2.3,15.62H4.93L9,8.2c0,.1,0,.21,0,.31H9s1.06,6.47,4.25,7.1A4.2,4.2,0,0,0,18.41,13Z" transform="translate(-2.3 -0.16)"/><path d="M29.54,15.6H27.09V14.29H27a3.07,3.07,0,0,1-1.24,1.16,3.44,3.44,0,0,1-1.62.4,4.49,4.49,0,0,1-1.67-.27,2.43,2.43,0,0,1-1.06-.78,3.15,3.15,0,0,1-.55-1.2A7.67,7.67,0,0,1,20.74,12V6.22h2.57v5.3a3.11,3.11,0,0,0,.39,1.74,1.43,1.43,0,0,0,1.26.56,1.79,1.79,0,0,0,1.53-.63,3.48,3.48,0,0,0,.47-2V6.22h2.58Z" transform="translate(-2.3 -0.16)"/><path d="M34.76,6.22h1.89V7.94H34.76v4.65a1.25,1.25,0,0,0,.22.87,1.27,1.27,0,0,0,.87.21,4,4,0,0,0,.8-.07v2a9.88,9.88,0,0,1-1.51.09A6.79,6.79,0,0,1,34,15.62a2.87,2.87,0,0,1-.93-.34,1.62,1.62,0,0,1-.63-.69,2.46,2.46,0,0,1-.23-1.11V7.94H30.62V6.22h1.56V3.41h2.58Z" transform="translate(-2.3 -0.16)"/><path d="M38.91,7.32A4.71,4.71,0,0,1,42.43,6,4.72,4.72,0,0,1,46,7.32a4.93,4.93,0,0,1,1.32,3.6A4.9,4.9,0,0,1,46,14.5a4.72,4.72,0,0,1-3.54,1.35,4.71,4.71,0,0,1-3.52-1.35,4.9,4.9,0,0,1-1.32-3.58A4.93,4.93,0,0,1,38.91,7.32ZM40.28,12a3.2,3.2,0,0,0,.38,1,1.93,1.93,0,0,0,.71.68,2.21,2.21,0,0,0,1.06.24,2.27,2.27,0,0,0,1.08-.24,1.93,1.93,0,0,0,.71-.68,3.2,3.2,0,0,0,.38-1,5,5,0,0,0,.12-1.12,5.24,5.24,0,0,0-.12-1.14,3.38,3.38,0,0,0-.38-1,2,2,0,0,0-.71-.67,2.27,2.27,0,0,0-1.08-.24,2.21,2.21,0,0,0-1.06.24,2,2,0,0,0-.71.67,3.38,3.38,0,0,0-.38,1,5.24,5.24,0,0,0-.12,1.14A5,5,0,0,0,40.28,12Z" transform="translate(-2.3 -0.16)"/><path d="M49,6.22h2.45V7.53h.05a3.1,3.1,0,0,1,1.25-1.16A3.41,3.41,0,0,1,54.33,6,4.53,4.53,0,0,1,56,6.24,2.5,2.5,0,0,1,57.06,7a2.87,2.87,0,0,1,.54,1.2,7,7,0,0,1,.16,1.62V15.6H55.18V10.3a3.1,3.1,0,0,0-.38-1.74A1.43,1.43,0,0,0,53.53,8,1.79,1.79,0,0,0,52,8.62a3.46,3.46,0,0,0-.47,2.06V15.6H49Z" transform="translate(-2.3 -0.16)"/><path d="M60.75,7.32a5.29,5.29,0,0,1,7.06,0,4.93,4.93,0,0,1,1.32,3.6,4.9,4.9,0,0,1-1.32,3.58,5.29,5.29,0,0,1-7.06,0,4.9,4.9,0,0,1-1.32-3.58A4.93,4.93,0,0,1,60.75,7.32ZM62.12,12a3.2,3.2,0,0,0,.38,1,1.93,1.93,0,0,0,.71.68,2.18,2.18,0,0,0,1.06.24,2.27,2.27,0,0,0,1.08-.24,2,2,0,0,0,.71-.68,3.2,3.2,0,0,0,.38-1,5,5,0,0,0,.11-1.12,5.25,5.25,0,0,0-.11-1.14,3.38,3.38,0,0,0-.38-1,2.07,2.07,0,0,0-.71-.67,2.27,2.27,0,0,0-1.08-.24,2.18,2.18,0,0,0-1.06.24,2,2,0,0,0-.71.67,3.38,3.38,0,0,0-.38,1A5.24,5.24,0,0,0,62,10.92,5,5,0,0,0,62.12,12Z" transform="translate(-2.3 -0.16)"/><path d="M70.87,6.22H73.3V7.49h0a3.58,3.58,0,0,1,1.24-1.12A3.3,3.3,0,0,1,76.2,6a3.39,3.39,0,0,1,1.66.38,2.36,2.36,0,0,1,1.08,1.18,3.83,3.83,0,0,1,1.18-1.12A3.09,3.09,0,0,1,81.77,6a3.69,3.69,0,0,1,2.51.8,3.24,3.24,0,0,1,.92,2.55V15.6H82.62V10.28a8.34,8.34,0,0,0,0-.94,2.21,2.21,0,0,0-.2-.69,1.11,1.11,0,0,0-.48-.48A1.89,1.89,0,0,0,81.05,8a1.65,1.65,0,0,0-.87.2,1.39,1.39,0,0,0-.53.52,2.23,2.23,0,0,0-.25.74,5.05,5.05,0,0,0-.08.91V15.6H76.75V10.34a8.78,8.78,0,0,0,0-1,1.85,1.85,0,0,0-.19-.69,1.11,1.11,0,0,0-.47-.49A1.75,1.75,0,0,0,75.19,8a1.84,1.84,0,0,0-.53.09,1.68,1.68,0,0,0-.56.32,1.85,1.85,0,0,0-.46.68,2.59,2.59,0,0,0-.19,1.07V15.6H70.87Z" transform="translate(-2.3 -0.16)"/><path d="M88.27,7.32a5.28,5.28,0,0,1,7,0,4.93,4.93,0,0,1,1.33,3.6,4.9,4.9,0,0,1-1.33,3.58,5.28,5.28,0,0,1-7,0,4.86,4.86,0,0,1-1.33-3.58A4.89,4.89,0,0,1,88.27,7.32ZM89.63,12A3,3,0,0,0,90,13a1.9,1.9,0,0,0,.7.68,2.51,2.51,0,0,0,2.14,0,1.86,1.86,0,0,0,.71-.68A3,3,0,0,0,94,12a5,5,0,0,0,.12-1.12A5.24,5.24,0,0,0,94,9.78a3.11,3.11,0,0,0-.38-1,1.91,1.91,0,0,0-.71-.67,2.51,2.51,0,0,0-2.14,0,2,2,0,0,0-.7.67,3.13,3.13,0,0,0-.39,1,6,6,0,0,0-.11,1.14A5.67,5.67,0,0,0,89.63,12Z" transform="translate(-2.3 -0.16)"/><path d="M107.11,15.6h-2.45V14.29h0a3.13,3.13,0,0,1-1.24,1.16,3.48,3.48,0,0,1-1.63.4,4.53,4.53,0,0,1-1.67-.27A2.49,2.49,0,0,1,99,14.8a3,3,0,0,1-.54-1.2A7.62,7.62,0,0,1,98.31,12V6.22h2.58v5.3a3.11,3.11,0,0,0,.39,1.74,1.43,1.43,0,0,0,1.26.56,1.77,1.77,0,0,0,1.52-.63,3.4,3.4,0,0,0,.48-2V6.22h2.57Z" transform="translate(-2.3 -0.16)"/><path d="M111.06,12.55a1.41,1.41,0,0,0,.59,1.19,2.61,2.61,0,0,0,2.57.1,1,1,0,0,0,.51-.91.89.89,0,0,0-.65-.82,13.71,13.71,0,0,0-2.27-.63,9.71,9.71,0,0,1-1.15-.32,3.58,3.58,0,0,1-.92-.45A2,2,0,0,1,108.83,9a3,3,0,0,1,.34-1.45,2.44,2.44,0,0,1,.92-.94,4.31,4.31,0,0,1,1.29-.48A7.51,7.51,0,0,1,112.91,6a7.25,7.25,0,0,1,1.52.15,4.16,4.16,0,0,1,1.27.5,2.7,2.7,0,0,1,.92.92A3.21,3.21,0,0,1,117.05,9H114.6a1.17,1.17,0,0,0-.52-1,2.32,2.32,0,0,0-1.24-.28,2.5,2.5,0,0,0-1,.18.68.68,0,0,0-.42.69.79.79,0,0,0,.54.76,8.71,8.71,0,0,0,1.67.47l.71.17a9.05,9.05,0,0,1,1.16.33,4.53,4.53,0,0,1,.93.48,2.14,2.14,0,0,1,.65.75,2.25,2.25,0,0,1,.23,1.07,3,3,0,0,1-.35,1.52,2.93,2.93,0,0,1-1,1,4.68,4.68,0,0,1-1.36.55,7.5,7.5,0,0,1-1.61.17,7.69,7.69,0,0,1-1.63-.17,4.45,4.45,0,0,1-1.38-.56,3,3,0,0,1-1-1,3.33,3.33,0,0,1-.4-1.53Z" transform="translate(-2.3 -0.16)"/></svg>
