<?xml version="1.0" encoding="UTF-8"?>
<svg width="16px" height="16px" viewBox="0 0 16 16" version="1.1" xmlns="http://www.w3.org/2000/svg" xmlns:xlink="http://www.w3.org/1999/xlink">
    <!-- Generator: Sketch 50.2 (55047) - http://www.bohemiancoding.com/sketch -->
    <title></title>
    <desc>Created with Sketch.</desc>
    <defs></defs>
    <g id="Page-1" stroke="none" stroke-width="1" fill="none" fill-rule="evenodd">
        <g id="Home-feed" transform="translate(-17.000000, -405.000000)" fill="#B9BCC7">
            <g id="Group-20-Copy-2" transform="translate(0.000000, 118.000000)">
                <path d="M26.9999762,287 C28.0833071,287 29.0833047,287.114583 29.999969,287.343749 C30.9166333,287.572915 31.6457986,287.874998 32.1874638,288.249997 C32.729129,288.624996 32.9999619,289.041662 32.9999619,289.499994 L32.9999619,296.499977 C32.9999619,297.041643 32.6301712,297.526016 31.8905895,297.953099 C31.1510078,298.380181 30.1874686,298.677056 28.9999714,298.843722 L28.9999714,300.499968 C28.9999714,300.9583 28.7291385,301.374966 28.1874733,301.749965 C27.6458081,302.124964 26.9166429,302.427047 25.9999785,302.656213 C25.0833142,302.885379 24.0833166,302.999962 22.9999857,302.999962 C21.9166548,302.999962 20.9166572,302.885379 19.9999928,302.656213 C19.0833285,302.427047 18.3541633,302.124964 17.8124981,301.749965 C17.2708328,301.374966 17,300.9583 17,300.499968 L17,293.499985 C17,292.958319 17.3697906,292.473945 18.1093724,292.046863 C18.8489541,291.61978 19.8124933,291.322906 20.9999905,291.15624 L20.9999905,289.499994 C20.9999905,289.041662 21.2708233,288.624996 21.8124885,288.249997 C22.3541537,287.874998 23.083319,287.572915 23.9999833,287.343749 C24.9166476,287.114583 25.9166452,287 26.9999762,287 Z M27.499975,300.374968 L27.499975,299.156221 C26.9374763,299.427054 26.2656029,299.635386 25.4843548,299.78122 C24.7031066,299.927053 23.8749836,299.999969 22.9999857,299.999969 C22.1249878,299.999969 21.2968648,299.927053 20.5156166,299.78122 C19.7343685,299.635386 19.0624951,299.427054 18.4999964,299.156221 L18.4999964,300.374968 C18.7083294,300.624968 19.1666613,300.86455 19.8749931,301.093716 C20.7916575,301.364549 21.833322,301.499965 22.9999857,301.499965 C24.1666494,301.499965 25.2083139,301.364549 26.1249782,301.093716 C26.83331,300.86455 27.291642,300.624968 27.499975,300.374968 Z M27.499975,297.374975 L27.499975,295.968729 C26.9374763,296.302061 26.2656029,296.557269 25.4843548,296.734352 C24.7031066,296.911435 23.8749836,296.999976 22.9999857,296.999976 C22.1249878,296.999976 21.2968648,296.911435 20.5156166,296.734352 C19.7343685,296.557269 19.0624951,296.302061 18.4999964,295.968729 L18.4999964,297.374975 C18.7083294,297.624975 19.1666613,297.864558 19.8749931,298.093724 C20.7916575,298.364556 21.833322,298.499973 22.9999857,298.499973 C24.1666494,298.499973 25.2083139,298.364556 26.1249782,298.093724 C26.83331,297.864558 27.291642,297.624975 27.499975,297.374975 Z M22.9999857,295.49998 C24.2499827,295.49998 25.3124802,295.354147 26.1874781,295.062481 C27.062476,294.770815 27.499975,294.416649 27.499975,293.999983 C27.499975,293.583318 27.062476,293.229152 26.1874781,292.937486 C25.3124802,292.64582 24.2499827,292.499987 22.9999857,292.499987 C21.7499887,292.499987 20.6874912,292.64582 19.8124933,292.937486 C18.9374954,293.229152 18.4999964,293.583318 18.4999964,293.999983 C18.4999964,294.416649 18.9374954,294.770815 19.8124933,295.062481 C20.6874912,295.354147 21.7499887,295.49998 22.9999857,295.49998 Z M31.4999654,296.374978 L31.4999654,295.156231 C30.8333005,295.46873 29.999969,295.697896 28.9999714,295.843729 L28.9999714,297.343725 C29.6458033,297.218726 30.208302,297.062476 30.6874674,296.874976 C31.1041329,296.70831 31.3749657,296.541644 31.4999654,296.374978 Z M31.4999654,293.374985 L31.4999654,291.968738 C30.7916336,292.385404 29.8853858,292.67707 28.7812219,292.843736 C28.9270551,293.072902 28.9999714,293.291652 28.9999714,293.499985 L28.9999714,294.343732 C29.6458033,294.218733 30.208302,294.062483 30.6874674,293.874984 C31.1041329,293.708317 31.3749657,293.541651 31.4999654,293.374985 Z M26.9999762,291.499989 C28.2499732,291.499989 29.3124706,291.354156 30.1874686,291.06249 C31.0624665,290.770825 31.4999654,290.416658 31.4999654,289.999993 C31.4999654,289.583327 31.0624665,289.229161 30.1874686,288.937495 C29.3124706,288.64583 28.2499732,288.499996 26.9999762,288.499996 C25.7499791,288.499996 24.6874817,288.64583 23.8124838,288.937495 C22.9374858,289.229161 22.4999869,289.578119 22.4999869,289.984368 C22.4999869,290.390617 22.9062359,290.739575 23.718734,291.03124 C24.760398,291.072907 25.6978958,291.21874 26.5312273,291.468739 L26.656227,291.499989 L26.9999762,291.499989 Z" id=""></path>
            </g>
        </g>
    </g>
</svg>