<?xml version="1.0" encoding="UTF-8"?>
<svg width="14px" height="16px" viewBox="0 0 14 16" version="1.1" xmlns="http://www.w3.org/2000/svg" xmlns:xlink="http://www.w3.org/1999/xlink">
    <!-- Generator: Sketch 50.2 (55047) - http://www.bohemiancoding.com/sketch -->
    <title></title>
    <desc>Created with Sketch.</desc>
    <defs></defs>
    <g id="Page-1" stroke="none" stroke-width="1" fill="none" fill-rule="evenodd">
        <g id="Home-feed" transform="translate(-18.000000, -431.000000)" fill="#B9BCC7">
            <g id="Group-20-Copy-2" transform="translate(0.000000, 118.000000)">
                <path d="M27.8124766,322.499977 C28.5624748,322.499977 29.2603897,322.687477 29.9062216,323.062476 C30.5520536,323.437475 31.0624689,323.94789 31.437468,324.593722 C31.8124671,325.239554 31.9999666,325.937469 31.9999666,326.687467 L31.9999666,327.499965 C31.9999666,327.916631 31.8541335,328.270797 31.5624677,328.562463 C31.2708019,328.854129 30.9166357,328.999962 30.4999702,328.999962 L19.4999964,328.999962 C19.0833309,328.999962 18.7291648,328.854129 18.437499,328.562463 C18.1458331,328.270797 18,327.916631 18,327.499965 L18,326.687467 C18,325.937469 18.1874996,325.239554 18.5624987,324.593722 C18.9374978,323.94789 19.4479131,323.437475 20.093745,323.062476 C20.739577,322.687477 21.4374918,322.499977 22.18749,322.499977 C22.4583229,322.499977 22.8124885,322.572894 23.2499875,322.718727 C23.5416533,322.80206 23.7812362,322.86456 23.9687358,322.906226 C24.281235,322.968726 24.6249842,322.999976 24.9999833,322.999976 C25.3749824,322.999976 25.7187316,322.968726 26.0312309,322.906226 C26.2187304,322.86456 26.4583133,322.80206 26.7499791,322.718727 C27.1874781,322.572894 27.5416438,322.499977 27.8124766,322.499977 Z M30.4999702,327.499965 L30.4999702,326.687467 C30.4999702,325.958303 30.2343458,325.328096 29.7030971,324.796847 C29.1718484,324.265598 28.5416414,323.999974 27.8124766,323.999974 C27.6874769,323.999974 27.4791439,324.04164 27.1874781,324.124973 C26.4374799,324.374973 25.7135231,324.499973 25.0156083,324.499973 C24.3176934,324.499973 23.5833202,324.374973 22.8124885,324.124973 C22.4999893,324.04164 22.2916563,323.999974 22.18749,323.999974 C21.4583252,323.999974 20.8281183,324.265598 20.2968695,324.796847 C19.7656208,325.328096 19.4999964,325.958303 19.4999964,326.687467 L19.4999964,327.499965 L30.4999702,327.499965 Z M24.9999833,321.999979 C24.1874852,321.999979 23.437487,321.796854 22.7499887,321.390605 C22.0624903,320.984356 21.5156166,320.437482 21.1093676,319.749984 C20.7031186,319.062486 20.499994,318.312487 20.499994,317.499989 C20.499994,316.687491 20.7031186,315.937493 21.1093676,315.249995 C21.5156166,314.562496 22.0624903,314.015623 22.7499887,313.609374 C23.437487,313.203125 24.1874852,313 24.9999833,313 C25.8124814,313 26.5624796,313.203125 27.2499779,313.609374 C27.9374763,314.015623 28.48435,314.562496 28.890599,315.249995 C29.2968481,315.937493 29.4999726,316.687491 29.4999726,317.499989 C29.4999726,318.312487 29.2968481,319.062486 28.890599,319.749984 C28.48435,320.437482 27.9374763,320.984356 27.2499779,321.390605 C26.5624796,321.796854 25.8124814,321.999979 24.9999833,321.999979 Z M24.9999833,314.499996 C24.1666518,314.499996 23.4583205,314.791662 22.8749884,315.374994 C22.2916563,315.958326 21.9999905,316.666658 21.9999905,317.499989 C21.9999905,318.333321 22.2916563,319.041652 22.8749884,319.624984 C23.4583205,320.208316 24.1666518,320.499982 24.9999833,320.499982 C25.8333148,320.499982 26.5416461,320.208316 27.1249782,319.624984 C27.7083103,319.041652 27.9999762,318.333321 27.9999762,317.499989 C27.9999762,316.666658 27.7083103,315.958326 27.1249782,315.374994 C26.5416461,314.791662 25.8333148,314.499996 24.9999833,314.499996 Z" id=""></path>
            </g>
        </g>
    </g>
</svg>