<?xml version="1.0" encoding="UTF-8"?>
<svg width="16px" height="16px" viewBox="0 0 16 16" version="1.1" xmlns="http://www.w3.org/2000/svg" xmlns:xlink="http://www.w3.org/1999/xlink">
    <!-- Generator: Sketch 50.2 (55047) - http://www.bohemiancoding.com/sketch -->
    <title></title>
    <desc>Created with Sketch.</desc>
    <defs></defs>
    <g id="Page-1" stroke="none" stroke-width="1" fill="none" fill-rule="evenodd">
        <g id="Home-feed" transform="translate(-17.000000, -377.000000)" fill="#B9BCC7">
            <g id="Group-20-Copy-2" transform="translate(0.000000, 118.000000)">
                <path d="M24.7499815,259 C26.1458117,259 27.4374751,259.348958 28.6249723,260.046873 C29.8124695,260.744787 30.7551757,261.687494 31.4530905,262.874991 C32.1510054,264.062488 32.499963,265.354151 32.499963,266.749982 C32.499963,268.145812 32.1510054,269.437475 31.4530905,270.624972 C30.7551757,271.812469 29.8124695,272.755176 28.6249723,273.453091 C27.4374751,274.151005 26.1458117,274.499963 24.7499815,274.499963 C23.3541514,274.499963 22.0624879,274.151005 20.8749908,273.453091 C19.6874936,272.755176 18.7447873,271.812469 18.0468725,270.624972 C17.3489577,269.437475 17,268.145812 17,266.749982 C17,265.354151 17.3489577,264.062488 18.0468725,262.874991 C18.7447873,261.687494 19.6874936,260.744787 20.8749908,260.046873 C22.0624879,259.348958 23.3541514,259 24.7499815,259 Z M24.7499815,272.999967 C25.8749788,272.999967 26.9166429,272.718717 27.8749741,272.156219 C28.8333053,271.59372 29.59372,270.833305 30.1562186,269.874974 C30.7187173,268.916643 30.9999666,267.874979 30.9999666,266.749982 C30.9999666,265.624984 30.7187173,264.58332 30.1562186,263.624989 C29.59372,262.666658 28.8333053,261.906243 27.8749741,261.343744 C26.9166429,260.781246 25.8749788,260.499996 24.7499815,260.499996 C23.6249842,260.499996 22.5833202,260.781246 21.624989,261.343744 C20.6666578,261.906243 19.9062431,262.666658 19.3437444,263.624989 C18.7812458,264.58332 18.4999964,265.624984 18.4999964,266.749982 C18.4999964,267.874979 18.7812458,268.916643 19.3437444,269.874974 C19.9062431,270.833305 20.6666578,271.59372 21.624989,272.156219 C22.5833202,272.718717 23.6249842,272.999967 24.7499815,272.999967 Z M24.0312332,267.812479 C23.927067,267.729146 23.8749836,267.624979 23.8749836,267.49998 L23.8749836,262.374992 C23.8749836,262.270826 23.911442,262.182284 23.9843583,262.109368 C24.0572747,262.036451 24.1458165,261.999993 24.2499827,261.999993 L25.2499803,261.999993 C25.3541466,261.999993 25.4426884,262.036451 25.5156047,262.109368 C25.588521,262.182284 25.6249794,262.270826 25.6249794,262.374992 L25.6249794,266.812481 L27.7187244,268.312478 C27.8020577,268.374978 27.8489326,268.458311 27.8593491,268.562477 C27.8697656,268.666643 27.8437241,268.760393 27.7812243,268.843727 L27.2187256,269.656225 C27.1562258,269.739558 27.0728925,269.791641 26.9687262,269.812474 C26.86456,269.833308 26.7708102,269.812474 26.6874769,269.749974 L24.0312332,267.812479 Z" id=""></path>
            </g>
        </g>
    </g>
</svg>