<?xml version="1.0" encoding="UTF-8"?>
<svg width="87px" height="87px" viewBox="0 0 87 87" version="1.1" xmlns="http://www.w3.org/2000/svg" xmlns:xlink="http://www.w3.org/1999/xlink">
    <!-- Generator: Sketch 50.2 (55047) - http://www.bohemiancoding.com/sketch -->
    <title>Group 9 Copy 2</title>
    <desc>Created with Sketch.</desc>
    <defs>
        <linearGradient x1="0%" y1="0%" x2="100%" y2="100%" id="linearGradient-1">
            <stop stop-color="#32FBFC" offset="0%"></stop>
            <stop stop-color="#3214F2" offset="100%"></stop>
        </linearGradient>
        <rect id="path-2" x="0" y="0" width="75" height="75" rx="14"></rect>
        <filter x="-14.0%" y="-10.0%" width="128.0%" height="128.0%" filterUnits="objectBoundingBox" id="filter-3">
            <feOffset dx="0" dy="3" in="SourceAlpha" result="shadowOffsetOuter1"></feOffset>
            <feGaussianBlur stdDeviation="3" in="shadowOffsetOuter1" result="shadowBlurOuter1"></feGaussianBlur>
            <feColorMatrix values="0 0 0 0 0.031372549   0 0 0 0 0.149019608   0 0 0 0 0.658823529  0 0 0 0.15 0" type="matrix" in="shadowBlurOuter1"></feColorMatrix>
        </filter>
    </defs>
    <g id="Page-1" stroke="none" stroke-width="1" fill="none" fill-rule="evenodd">
        <g id="NJNJA-CASH" transform="translate(-235.000000, -1340.000000)">
            <g id="Group-3" transform="translate(175.000000, 1343.000000)">
                <g id="Group-9-Copy-2" transform="translate(66.000000, 0.000000)">
                    <g id="Group-8">
                        <g id="Rectangle-9">
                            <use fill="black" fill-opacity="1" filter="url(#filter-3)" xlink:href="#path-2"></use>
                            <use fill="url(#linearGradient-1)" fill-rule="evenodd" xlink:href="#path-2"></use>
                        </g>
                        <g id="Group-11" transform="translate(18.000000, 17.000000)">
                            <path d="M21.0169492,12.3934426 C19.3532203,12.1676066 14.5911864,11.7448525 9.49152542,14.4590164 C6.55864407,16.0199016 4.24067797,18.4889508 2.91050847,20.2274754 C2.46033898,20.8154754 3.10847458,21.6052131 3.7579661,21.2602623 C4.36474576,20.9380328 5.34169492,20.2205902 6.10169492,19.9672131 C7.70847458,19.431541 9.13627119,19.2931475 10.1694915,19.2786885 C8.57423729,20.0663607 5.80745763,21.7002295 3.38983051,24.7868852 C1.6440678,27.0156393 0.619661017,29.5927869 0.0352542373,31.4655738 C-0.18779661,32.1795738 0.70779661,32.6801311 1.19661017,32.1196721 C1.63322034,31.6198033 2.14983051,30.8025246 2.71186441,30.295082 C4.20338983,28.9497049 5.66711864,28.0862951 6.77966102,27.5409836 C6.12474576,28.5916721 4.79457627,31.0462623 4.74576271,34.4262295 C4.70576271,37.1906557 5.3979661,39.4593443 6.18711864,40.948623 C6.50372881,41.5462623 7.38508475,41.3665574 7.45762712,40.6918033 C7.81830508,37.3132131 9.19389831,31.485541 13.559322,26.1632459 C17.1898305,21.7374098 21.3911864,19.5761311 23.7288136,18.5894754" id="Shape" fill="#FFFFFF" fill-rule="nonzero"></path>
                            <path d="M23.7288136,18.5901639 L22.8474576,16.5762295 C19.8366102,17.4534098 15.6501695,19.3296393 12.2033898,23.4098361 C6.77288136,29.8379016 6.67389831,37.4763934 7.04745763,40.95 C7.07254237,41.1840984 7.40881356,41.1827213 7.43118644,40.9479344 C7.75728814,37.6113443 9.0820339,31.6225574 13.559322,26.1639344 C17.1898305,21.7380984 21.3911864,19.5768197 23.7288136,18.5901639 Z" id="Shape" fill="#FFFFFF" fill-rule="nonzero"></path>
                            <path d="M22.0867797,14.8370164 L21.0169492,12.3934426 C19.3532203,12.1676066 14.5911864,11.7448525 9.49152542,14.4590164 C6.49084746,16.0563934 4.14779661,18.5846557 2.81966102,20.3472787 C2.46779661,20.8147869 3.05355932,21.4124262 3.51864407,21.0612787 C5.77152542,19.3613115 9.31932203,16.9996721 13.559322,15.8360656 C16.7891525,14.9492459 19.7186441,14.7571475 22.0867797,14.8370164 Z" id="Shape" fill="#FFFFFF" fill-rule="nonzero"></path>
                            <path d="M21.0169492,12.3934426 C19.3532203,12.1676066 14.5911864,11.7448525 9.49152542,14.4590164 C6.55864407,16.0199016 4.24067797,18.4889508 2.91050847,20.2274754 C2.46033898,20.8154754 3.10847458,21.6052131 3.7579661,21.2602623 C4.36542373,20.9380328 5.69491525,20.1923607 6.45491525,19.9382951 C8.06169492,19.402623 9.13627119,19.2931475 10.1694915,19.2786885 C8.57423729,20.0663607 5.80745763,21.7002295 3.38983051,24.7868852 C1.6440678,27.0156393 0.619661017,29.5927869 0.0352542373,31.4655738 C-0.18779661,32.1795738 0.70779661,32.6801311 1.19661017,32.1196721 C1.63322034,31.6198033 2.43322034,30.5732459 3.34711864,29.7890164 C4.87186441,28.4828852 5.66711864,28.0862951 6.77966102,27.5409836 C6.12474576,28.5916721 4.79457627,31.0462623 4.74576271,34.4262295 C4.70576271,37.1906557 5.3979661,39.4593443 6.18711864,40.948623 C6.50372881,41.5462623 7.38508475,41.3665574 7.45762712,40.6918033 C7.81830508,37.3132131 9.19389831,31.485541 13.559322,26.1632459 C17.1898305,21.7374098 21.3911864,19.5761311 23.7288136,18.5894754" id="Shape"></path>
                            <polygon id="Shape" fill="#FFFFFF" fill-rule="nonzero" points="40 8.95081967 31.1694915 8.24370492 27.7966102 0 24.4237288 8.24370492 15.5932203 8.95081967 22.3728814 15.147541 20.3389831 24.0983607 27.7966102 19.2786885 35.2542373 24.0983607 33.220339 15.147541"></polygon>
                            <polygon id="Shape" fill="#FFFFFF" fill-rule="nonzero" points="27.7966102 0 24.4237288 8.24370492 15.5932203 8.95081967 22.3728814 15.147541 20.3389831 24.0983607 27.7966102 19.2786885"></polygon>
                            <polygon id="Shape" points="40 8.95081967 31.1694915 8.24370492 27.7966102 0 24.4237288 8.24370492 15.5932203 8.95081967 22.3728814 15.147541 20.3389831 24.0983607 27.7966102 19.2786885 35.2542373 24.0983607 33.220339 15.147541"></polygon>
                            <path d="M35.2542373,41.1772131 L34.4,39.5908525 C34.2088136,39.2355738 33.9213559,38.9436393 33.5715254,38.7494754 L32.0094915,37.8819344 L33.5715254,37.0143934 C33.9213559,36.8202295 34.2088136,36.5282951 34.4,36.1730164 L35.2542373,34.5873443 L36.1084746,36.1737049 C36.299661,36.5289836 36.5871186,36.820918 36.9369492,37.015082 L38.4989831,37.882623 L36.9369492,38.7501639 C36.5871186,38.9443279 36.299661,39.2362623 36.1084746,39.591541 L35.2542373,41.1772131 Z" id="Shape" fill="#FFFFFF" fill-rule="nonzero"></path>
                            <path d="M25.0847458,37.7345902 L23.6949153,35.154 C23.3837288,34.5763279 22.9159322,34.1012459 22.3471186,33.7852131 L19.8061017,32.3737377 L22.3471186,30.9622623 C22.9159322,30.6462295 23.3837288,30.1711475 23.6949153,29.5934754 L25.0847458,27.0135738 L26.4745763,29.5941639 C26.7857627,30.1718361 27.2535593,30.646918 27.8223729,30.9629508 L30.3633898,32.3744262 L27.8223729,33.7859016 C27.2535593,34.1019344 26.7857627,34.5770164 26.4745763,35.1546885 L25.0847458,37.7345902 Z" id="Shape" fill="#FFFFFF" fill-rule="nonzero"></path>
                            <path d="M19.4813559,32.9782623 L22.0216949,34.3897377 C22.4786441,34.6438033 22.8515254,35.0224918 23.1010169,35.4844918 L24.4908475,38.065082 C24.7281356,38.5078033 25.4427119,38.5078033 25.68,38.065082 L27.0698305,35.4851803 C27.319322,35.0218033 27.6922034,34.6431148 28.1477966,34.3897377 L30.6888136,32.9782623 C30.9064407,32.8577705 31.0420339,32.6257377 31.0420339,32.3744262 C31.0420339,32.1231148 30.9071186,31.891082 30.6888136,31.7705902 L28.1484746,30.3591148 C27.6928814,30.1057377 27.32,29.7270492 27.0698305,29.2636721 L25.68,26.683082 C25.5613559,26.4620656 25.3328814,26.3243607 25.0854237,26.3243607 C24.8379661,26.3243607 24.6094915,26.461377 24.4908475,26.683082 L23.1010169,29.2629836 C22.8515254,29.7263607 22.4779661,30.1057377 22.0223729,30.3591148 L19.4813559,31.7705902 C19.2637288,31.891082 19.1281356,32.1231148 19.1281356,32.3744262 C19.1281356,32.6257377 19.2637288,32.8577705 19.4813559,32.9782623 Z M22.6732203,31.5667869 C23.3566102,31.1867213 23.9159322,30.6186885 24.2901695,29.9239672 L25.0847458,28.448459 L25.88,29.9253443 C26.2542373,30.6200656 26.8128814,31.1880984 27.4969492,31.5674754 L28.9505085,32.3751148 L27.4962712,33.1827541 C26.8128814,33.5628197 26.2542373,34.1301639 25.88,34.8248852 L25.0847458,36.2997049 L24.2894915,34.8228197 C23.9159322,34.1287869 23.3566102,33.5614426 22.6718644,33.181377 L21.2183051,32.3737377 L22.6732203,31.5667869 Z" id="Shape" fill="#FFFFFF" fill-rule="nonzero"></path>
                            <path d="M31.6847458,38.486459 L33.2461017,39.354 C33.4833898,39.4855082 33.6766102,39.6824262 33.8054237,39.9220328 L34.660339,41.5083934 C34.8976271,41.9497377 35.6122034,41.9504262 35.8494915,41.5077049 L36.7037288,39.9220328 C36.8332203,39.6817377 37.0271186,39.4855082 37.2623729,39.354 L38.8244068,38.486459 C39.0420339,38.3659672 39.1776271,38.1339344 39.1776271,37.882623 C39.1776271,37.6313115 39.0427119,37.3992787 38.8250847,37.2787869 L37.2616949,36.4098689 C37.0264407,36.2797377 36.8332203,36.0828197 36.7037288,35.8432131 L35.8494915,34.2568525 C35.7308475,34.0358361 35.5023729,33.8981311 35.2549153,33.8981311 C35.0074576,33.8981311 34.7789831,34.0351475 34.660339,34.2561639 L33.8047458,35.8439016 C33.6766102,36.0835082 33.4827119,36.2797377 33.2461017,36.4105574 L31.6840678,37.2787869 C31.4671186,37.3992787 31.3315254,37.6313115 31.3315254,37.882623 C31.3315254,38.1339344 31.4671186,38.3659672 31.6847458,38.486459 Z M33.8962712,37.618918 C34.3620339,37.3614098 34.7416949,36.9751475 34.9945763,36.5041967 L35.2549153,36.0222295 L35.5145763,36.5041967 C35.7688136,36.9765246 36.1491525,37.3620984 36.6115254,37.6182295 L37.0861017,37.882623 L36.6115254,38.1463279 C36.1477966,38.4038361 35.7681356,38.7900984 35.5145763,39.2610492 L35.2542373,39.7423279 L34.9945763,39.2617377 C34.7416949,38.7900984 34.3613559,38.4045246 33.8962712,38.1463279 L33.4223729,37.882623 L33.8962712,37.618918 Z" id="Shape" fill="#FFFFFF" fill-rule="nonzero"></path>
                            <path d="M14.6474576,28.364459 C14.8718644,28.0621967 15.2989831,28.000918 15.5966102,28.2288197 L16.679322,29.0578033 C16.9769492,29.2857049 17.0372881,29.7194754 16.8128814,30.0217377 C16.5884746,30.324 16.1613559,30.3852787 15.8637288,30.157377 L14.7810169,29.3283934 C14.4833898,29.1004918 14.4230508,28.6667213 14.6474576,28.364459 Z" id="Shape" fill="#FFFFFF" fill-rule="nonzero"></path>
                            <path d="M12.3945763,31.4882951 C12.5518644,31.1454098 12.9572881,30.9953115 13.2955932,31.1550492 L14.5247458,31.7368525 C14.8623729,31.8965902 15.0101695,32.3083279 14.8528814,32.6519016 C14.6955932,32.9947869 14.2901695,33.1448852 13.9518644,32.9851475 L12.7227119,32.4033443 C12.3844068,32.242918 12.2366102,31.8311803 12.3945763,31.4882951 Z" id="Shape" fill="#FFFFFF" fill-rule="nonzero"></path>
                            <path d="M10.9362712,35.1994426 C11.0454237,34.8372787 11.4264407,34.6314098 11.7830508,34.7422623 L13.08,35.1450492 C13.4366102,35.2559016 13.639322,35.6428525 13.5301695,36.0050164 C13.4210169,36.3671803 13.04,36.5730492 12.6833898,36.4621967 L11.3864407,36.0594098 C11.0298305,35.9485574 10.8271186,35.5616066 10.9362712,35.1994426 Z" id="Shape" fill="#FFFFFF" fill-rule="nonzero"></path>
                            <path d="M10.1742373,38.9939016 C10.219661,38.6179672 10.56,38.3480656 10.9294915,38.3941967 L12.2752542,38.5621967 C12.6454237,38.6083279 12.9111864,38.9539672 12.8657627,39.3292131 C12.820339,39.7051475 12.48,39.9750492 12.1105085,39.928918 L10.7647458,39.760918 C10.3945763,39.7154754 10.1288136,39.3698361 10.1742373,38.9939016 Z" id="Shape" fill="#FFFFFF" fill-rule="nonzero"></path>
                        </g>
                    </g>
                </g>
            </g>
        </g>
    </g>
</svg>