<?xml version="1.0" encoding="UTF-8"?>
<svg width="87px" height="87px" viewBox="0 0 87 87" version="1.1" xmlns="http://www.w3.org/2000/svg" xmlns:xlink="http://www.w3.org/1999/xlink">
    <!-- Generator: Sketch 50.2 (55047) - http://www.bohemiancoding.com/sketch -->
    <title>Group 9</title>
    <desc>Created with Sketch.</desc>
    <defs>
        <linearGradient x1="0%" y1="0%" x2="100%" y2="100%" id="linearGradient-1">
            <stop stop-color="#9C09DB" offset="0%"></stop>
            <stop stop-color="#1C0FD7" offset="100%"></stop>
        </linearGradient>
        <rect id="path-2" x="0" y="0" width="75" height="75" rx="21"></rect>
        <filter x="-14.0%" y="-10.0%" width="128.0%" height="128.0%" filterUnits="objectBoundingBox" id="filter-3">
            <feOffset dx="0" dy="3" in="SourceAlpha" result="shadowOffsetOuter1"></feOffset>
            <feGaussianBlur stdDeviation="3" in="shadowOffsetOuter1" result="shadowBlurOuter1"></feGaussianBlur>
            <feColorMatrix values="0 0 0 0 0.141176471   0 0 0 0 0.031372549   0 0 0 0 0.501960784  0 0 0 0.15 0" type="matrix" in="shadowBlurOuter1"></feColorMatrix>
        </filter>
    </defs>
    <g id="Page-1" stroke="none" stroke-width="1" fill="none" fill-rule="evenodd">
        <g id="NJNJA-CASH" transform="translate(-528.000000, -1340.000000)">
            <g id="Group-4" transform="translate(427.000000, 1343.000000)">
                <g id="Group-9" transform="translate(107.000000, 0.000000)">
                    <g id="Group-8">
                        <g id="Rectangle-9">
                            <use fill="black" fill-opacity="1" filter="url(#filter-3)" xlink:href="#path-2"></use>
                            <use fill="url(#linearGradient-1)" fill-rule="evenodd" xlink:href="#path-2"></use>
                        </g>
                        <g id="icons8-keyhole_shield_filled" transform="translate(20.000000, 17.000000)" fill="#FFFFFF" fill-rule="nonzero">
                            <path d="M34.3754441,6.30274483 C28.4872159,4.99764681 25.0102093,3.14980389 22.4715909,1.8007847 C20.4984906,0.756078223 19.0753731,0 17.5,0 C15.9246269,0 14.5015094,0.756078223 12.5284091,1.8007847 C9.98979068,3.14980389 6.51278409,4.99764681 0.624555909,6.30274483 L0,6.44078405 L0,7.08705895 C0,31.551372 16.993519,39.7584308 17.1675247,39.8368627 L17.515536,40 L17.8604403,39.8243137 C18.031339,39.7333327 35,30.7388236 35,7.08705895 L35,6.44078405 L34.3754441,6.30274483 Z M20.6818182,25.2988233 L14.3181818,25.2988233 L15.7599432,18.7482351 C14.8930218,18.1741173 14.3181818,17.1890196 14.3181818,16.0627449 C14.3181818,14.2870591 15.7413001,12.8501959 17.5,12.8501959 C19.2587007,12.8501959 20.6818182,14.2870591 20.6818182,16.0627449 C20.6818182,17.1890196 20.1069782,18.1741173 19.2400568,18.7482351 L20.6818182,25.2988233 Z" id="Shape"></path>
                        </g>
                    </g>
                </g>
            </g>
        </g>
    </g>
</svg>