<?xml version="1.0" encoding="UTF-8"?>
<svg width="75px" height="75px" viewBox="0 0 75 75" version="1.1" xmlns="http://www.w3.org/2000/svg" xmlns:xlink="http://www.w3.org/1999/xlink">
    <!-- Generator: Sketch 50.2 (55047) - http://www.bohemiancoding.com/sketch -->
    <title>Group 9</title>
    <desc>Created with Sketch.</desc>
    <defs>
        <linearGradient x1="100%" y1="15.0973487%" x2="1.59125237%" y2="200.69429%" id="linearGradient-1">
            <stop stop-color="#930096" offset="0%"></stop>
            <stop stop-color="#FF0032" offset="100%"></stop>
        </linearGradient>
    </defs>
    <g id="Page-1" stroke="none" stroke-width="1" fill="none" fill-rule="evenodd">
        <g id="NJNJA-CASH" transform="translate(-1119.000000, -1343.000000)">
            <g id="Group-10" transform="translate(1003.000000, 1343.000000)">
                <g id="Group-9" transform="translate(116.000000, 0.000000)">
                    <g id="Group-8">
                        <rect id="Rectangle-9" fill="url(#linearGradient-1)" x="0" y="0" width="75" height="75" rx="21"></rect>
                        <g id="icons8-candle_sticks" transform="translate(19.000000, 19.000000)" fill="#FFFFFF" fill-rule="nonzero">
                            <rect id="Rectangle-path" x="34" y="0" width="1" height="22"></rect>
                            <g id="Group" transform="translate(31.000000, 3.000000)">
                                <rect id="Rectangle-path" x="0.5" y="0.5" width="6" height="15"></rect>
                                <path d="M6,1 L6,15 L1,15 L1,1 L6,1 Z M7,0 L0,0 L0,16 L7,16 L7,0 Z" id="Shape"></path>
                            </g>
                            <rect id="Rectangle-path" x="13" y="5" width="1" height="24"></rect>
                            <g id="Group" transform="translate(10.000000, 8.000000)">
                                <rect id="Rectangle-path" x="0.5" y="0.5" width="6" height="17"></rect>
                                <path d="M6,1 L6,17 L1,17 L1,1 L6,1 Z M7,0 L0,0 L0,18 L7,18 L7,0 Z" id="Shape"></path>
                            </g>
                            <rect id="Rectangle-path" x="24" y="16" width="1" height="18"></rect>
                            <g id="Group" transform="translate(21.000000, 19.000000)">
                                <rect id="Rectangle-path" x="0.5" y="0.5" width="6" height="11"></rect>
                                <path d="M6,1 L6,11 L1,11 L1,1 L6,1 Z M7,0 L0,0 L0,12 L7,12 L7,0 Z" id="Shape"></path>
                            </g>
                            <rect id="Rectangle-path" x="3" y="18" width="1" height="20"></rect>
                            <g id="Group" transform="translate(0.000000, 21.000000)">
                                <rect id="Rectangle-path" x="0.5" y="0.5" width="6" height="13"></rect>
                                <path d="M6,1 L6,13 L1,13 L1,1 L6,1 Z M7,0 L0,0 L0,14 L7,14 L7,0 Z" id="Shape"></path>
                            </g>
                        </g>
                    </g>
                </g>
            </g>
        </g>
    </g>
</svg>