<?xml version="1.0" encoding="UTF-8"?>
<svg width="87px" height="87px" viewBox="0 0 87 87" version="1.1" xmlns="http://www.w3.org/2000/svg" xmlns:xlink="http://www.w3.org/1999/xlink">
    <!-- Generator: Sketch 50.2 (55047) - http://www.bohemiancoding.com/sketch -->
    <title>Group 9 Copy</title>
    <desc>Created with Sketch.</desc>
    <defs>
        <linearGradient x1="0%" y1="0%" x2="100%" y2="100%" id="linearGradient-1">
            <stop stop-color="#F2C314" offset="0%"></stop>
            <stop stop-color="#FC3832" offset="100%"></stop>
        </linearGradient>
        <rect id="path-2" x="0" y="0" width="75" height="75" rx="21"></rect>
        <filter x="-14.0%" y="-10.0%" width="128.0%" height="128.0%" filterUnits="objectBoundingBox" id="filter-3">
            <feOffset dx="0" dy="3" in="SourceAlpha" result="shadowOffsetOuter1"></feOffset>
            <feGaussianBlur stdDeviation="3" in="shadowOffsetOuter1" result="shadowBlurOuter1"></feGaussianBlur>
            <feColorMatrix values="0 0 0 0 0.501960784   0 0 0 0 0.125490196   0 0 0 0 0  0 0 0 0.15 0" type="matrix" in="shadowBlurOuter1"></feColorMatrix>
        </filter>
    </defs>
    <g id="Page-1" stroke="none" stroke-width="1" fill="none" fill-rule="evenodd">
        <g id="NJNJA-CASH" transform="translate(-824.000000, -1340.000000)">
            <g id="Group-5" transform="translate(778.000000, 1343.000000)">
                <g id="Group-9-Copy" transform="translate(52.000000, 0.000000)">
                    <g id="Group-8">
                        <g id="Rectangle-9">
                            <use fill="black" fill-opacity="1" filter="url(#filter-3)" xlink:href="#path-2"></use>
                            <use fill="url(#linearGradient-1)" fill-rule="evenodd" xlink:href="#path-2"></use>
                        </g>
                        <g id="machine-learning" transform="translate(21.000000, 18.000000)" fill="#FFFFFF" fill-rule="nonzero">
                            <path d="M15.8310811,32.1275049 L15.8310811,28.1058285 C14.1805053,27.8015808 12.9324324,26.3924197 12.9324324,24.7 C12.9324324,23.9985875 13.1468058,23.3458283 13.5153597,22.8002132 L10.0337838,20.3073974 L6.5522079,22.8002132 C6.92076165,23.3458283 7.1351352,23.9985875 7.1351352,24.7 C7.1351352,25.4064522 6.91767015,26.0635494 6.5442399,26.6115309 L14.4633995,32.6866756 C14.8664891,32.4138621 15.3302567,32.2198209 15.8310811,32.1275049 Z M17.1689189,32.1275049 C17.6697433,32.2198209 18.1335109,32.4138621 18.5366005,32.6866756 L26.4557601,26.6115309 C26.0823299,26.0635494 25.8648648,25.4064522 25.8648648,24.7 C25.8648648,23.9985875 26.0792384,23.3458283 26.4477921,22.8002132 L22.9662162,20.3073974 L19.4846403,22.8002132 C19.8531942,23.3458283 20.0675676,23.9985875 20.0675676,24.7 C20.0675676,26.3924197 18.8194947,27.8015808 17.1689189,28.1058285 L17.1689189,32.1275049 Z M19.4766723,33.6218025 C19.8501026,34.169784 20.0675676,34.826881 20.0675676,35.5333333 C20.0675676,37.4479205 18.4703131,39 16.5,39 C14.5296869,39 12.9324324,37.4479205 12.9324324,35.5333333 C12.9324324,34.826881 13.1498974,34.169784 13.5233277,33.6218025 L5.60416815,27.5466577 C5.02668765,27.9375 4.3246689,28.1666667 3.5675676,28.1666667 C1.59725445,28.1666667 0,26.6145871 0,24.7 C0,23.0075804 1.2480729,21.5984191 2.8986486,21.2941715 L2.8986486,17.7058285 C1.2480729,17.4015809 0,15.9924197 0,14.2999999 C0,12.3854129 1.59725445,10.8333333 3.5675676,10.8333333 C4.3246689,10.8333333 5.02668765,11.0625 5.60416815,11.4533423 L13.5233277,5.3781975 C13.1498974,4.830216 12.9324324,4.17311895 12.9324324,3.46666665 C12.9324324,1.55207955 14.5296869,0 16.5,0 C18.4703131,0 20.0675676,1.55207955 20.0675676,3.46666665 C20.0675676,4.17311895 19.8501026,4.830216 19.4766723,5.3781975 L27.3958319,11.4533423 C27.9733124,11.0625 28.6753311,10.8333333 29.4324324,10.8333333 C31.4027455,10.8333333 33,12.3854129 33,14.2999999 C33,15.9924197 31.7519271,17.4015809 30.1013514,17.7058285 L30.1013514,21.2941715 C31.7519271,21.5984191 33,23.0075804 33,24.7 C33,26.6145871 31.4027455,28.1666667 29.4324324,28.1666667 C28.6753311,28.1666667 27.9733124,27.9375 27.3958319,27.5466577 L19.4766723,33.6218025 Z M5.611965,21.8586342 L8.9061372,19.5 L5.611965,17.1413658 C5.20706325,17.4169623 4.7405433,17.6129166 4.23648645,17.7058285 L4.23648645,21.2941714 C4.7405433,21.3870834 5.20706325,21.5830377 5.611965,21.8586342 Z M6.5522079,16.1997869 L10.0337838,18.6926026 L13.5153597,16.1997869 C13.1468058,15.6541717 12.9324324,15.0014125 12.9324324,14.3 C12.9324324,12.6075803 14.1805053,11.1984192 15.8310811,10.8941715 L15.8310811,6.8724951 C15.3302567,6.7801791 14.8664891,6.5861379 14.4633995,6.31332435 L6.5442399,12.3884691 C6.91767015,12.9364506 7.1351352,13.5935478 7.1351352,14.3 C7.1351352,15.0014125 6.92076165,15.6541717 6.5522079,16.1997869 Z M27.388035,21.8586342 C27.7929367,21.5830377 28.2594567,21.3870834 28.7635135,21.2941714 L28.7635135,17.7058285 C28.2594567,17.6129166 27.7929367,17.4169623 27.388035,17.1413658 L24.0938628,19.5 L27.388035,21.8586342 Z M26.4557601,12.3884691 L18.5366005,6.31332435 C18.1335109,6.5861379 17.6697433,6.7801791 17.1689189,6.8724951 L17.1689189,10.8941715 C18.8194947,11.1984192 20.0675676,12.6075803 20.0675676,14.3 C20.0675676,15.0014125 19.8531942,15.6541717 19.4846403,16.1997869 L22.9662162,18.6926026 L26.4477921,16.1997869 C26.0792384,15.6541717 25.8648648,15.0014125 25.8648648,14.3 C25.8648648,13.5935478 26.0823299,12.9364506 26.4557601,12.3884691 Z M14.4556024,21.8586342 C15.0345559,21.4645695 15.739488,21.2333334 16.5,21.2333334 C17.260512,21.2333334 17.9654441,21.4645695 18.5443976,21.8586342 L21.8385696,19.5 L18.5443976,17.1413658 C17.9654441,17.5354305 17.260512,17.7666666 16.5,17.7666666 C15.739488,17.7666666 15.0345559,17.5354305 14.4556024,17.1413658 L11.1614304,19.5 L14.4556024,21.8586342 Z M16.5,16.4666667 C17.7314457,16.4666667 18.7297298,15.496617 18.7297298,14.3 C18.7297298,13.1033831 17.7314457,12.1333334 16.5,12.1333334 C15.2685543,12.1333334 14.2702702,13.1033831 14.2702702,14.3 C14.2702702,15.496617 15.2685543,16.4666667 16.5,16.4666667 Z M16.5,26.8666666 C17.7314457,26.8666666 18.7297298,25.8966169 18.7297298,24.7 C18.7297298,23.503383 17.7314457,22.5333333 16.5,22.5333333 C15.2685543,22.5333333 14.2702702,23.503383 14.2702702,24.7 C14.2702702,25.8966169 15.2685543,26.8666666 16.5,26.8666666 Z M29.4324324,16.4666667 C30.6638781,16.4666667 31.6621622,15.496617 31.6621622,14.3 C31.6621622,13.1033831 30.6638781,12.1333334 29.4324324,12.1333334 C28.2009867,12.1333334 27.2027026,13.1033831 27.2027026,14.3 C27.2027026,15.496617 28.2009867,16.4666667 29.4324324,16.4666667 Z M29.4324324,26.8666666 C30.6638781,26.8666666 31.6621622,25.8966169 31.6621622,24.7 C31.6621622,23.503383 30.6638781,22.5333333 29.4324324,22.5333333 C28.2009867,22.5333333 27.2027026,23.503383 27.2027026,24.7 C27.2027026,25.8966169 28.2009867,26.8666666 29.4324324,26.8666666 Z M3.5675676,16.4666667 C4.7990133,16.4666667 5.79729735,15.496617 5.79729735,14.3 C5.79729735,13.1033831 4.7990133,12.1333334 3.5675676,12.1333334 C2.3361219,12.1333334 1.33783785,13.1033831 1.33783785,14.3 C1.33783785,15.496617 2.3361219,16.4666667 3.5675676,16.4666667 Z M3.5675676,26.8666666 C4.7990133,26.8666666 5.79729735,25.8966169 5.79729735,24.7 C5.79729735,23.503383 4.7990133,22.5333333 3.5675676,22.5333333 C2.3361219,22.5333333 1.33783785,23.503383 1.33783785,24.7 C1.33783785,25.8966169 2.3361219,26.8666666 3.5675676,26.8666666 Z M16.5,37.6999999 C17.7314457,37.6999999 18.7297298,36.7299503 18.7297298,35.5333334 C18.7297298,34.3367165 17.7314457,33.3666666 16.5,33.3666666 C15.2685543,33.3666666 14.2702702,34.3367165 14.2702702,35.5333334 C14.2702702,36.7299503 15.2685543,37.6999999 16.5,37.6999999 Z M16.5,5.6333334 C17.7314457,5.6333334 18.7297298,4.66328355 18.7297298,3.46666665 C18.7297298,2.27004975 17.7314457,1.30000005 16.5,1.30000005 C15.2685543,1.30000005 14.2702702,2.27004975 14.2702702,3.46666665 C14.2702702,4.66328355 15.2685543,5.6333334 16.5,5.6333334 Z" id="Shape"></path>
                        </g>
                    </g>
                </g>
            </g>
        </g>
    </g>
</svg>