<?xml version="1.0" encoding="UTF-8"?>
<svg width="60px" height="60px" viewBox="0 0 60 60" version="1.1" xmlns="http://www.w3.org/2000/svg" xmlns:xlink="http://www.w3.org/1999/xlink">
    <!-- Generator: Sketch 50.2 (55047) - http://www.bohemiancoding.com/sketch -->
    <title>Group</title>
    <desc>Created with Sketch.</desc>
    <defs>
        <polygon id="path-1" points="0 0.015757206 59.9844114 0.015757206 59.9844114 59.2771084 0 59.2771084"></polygon>
    </defs>
    <g id="Page-1" stroke="none" stroke-width="1" fill="none" fill-rule="evenodd">
        <g id="NJNJA-CASH" transform="translate(-84.000000, -19.000000)">
            <g id="Group" transform="translate(84.000000, 19.000000)">
                <path d="M59.2682927,29.6385542 C59.2682927,45.608264 46.1643146,58.5542169 30.0000952,58.5542169 C13.8356854,58.5542169 0.731707317,45.608264 0.731707317,29.6385542 C0.731707317,13.6688445 13.8356854,0.722891566 30.0000952,0.722891566 C46.1643146,0.722891566 59.2682927,13.6688445 59.2682927,29.6385542" id="Fill-1" fill="#000000"></path>
                <path d="M41.7073171,14.737523 C41.7073171,14.737523 42.598372,15.5309977 43.4833275,16.626506 C44.9003685,16.136574 47.5609756,14.737523 47.5609756,14.737523 L44.6343257,11.5662651 L41.7073171,14.737523 Z" id="Fill-3" fill="#FFFFFF"></path>
                <polygon id="Fill-5" fill="#FFFFFF" points="43.902439 16.904697 47.5609756 15.9036145 47.5609756 18.0722892 44.7288682 18.0722892"></polygon>
                <g id="Group-9">
                    <mask id="mask-2" fill="white">
                        <use xlink:href="#path-1"></use>
                    </mask>
                    <g id="Clip-8"></g>
                    <path d="M49.7397911,49.1559173 C47.1742215,51.6903889 44.1877025,53.6797362 40.8618797,55.0691841 C40.5385253,55.2049962 40.2117532,55.3316166 39.8844114,55.4544853 L39.8844114,45.4173326 L39.8808038,42.7907564 C39.8563101,41.7946759 39.5593481,40.8655635 39.0594114,40.0739515 C43.3820696,37.1928214 46.2240949,32.3097758 46.2240949,26.7713055 C46.2240949,17.9148178 38.9568797,10.735347 29.9921962,10.735347 C21.0278924,10.735347 13.7606772,17.9148178 13.7606772,26.7713055 C13.7606772,32.3097758 16.6028924,37.1928214 20.924981,40.0735763 C20.4081456,40.892951 20.1071962,41.8584551 20.1007405,42.8933659 L16.9691582,40.6125103 C17.0297278,40.5130898 17.0885886,40.4136694 17.1453608,40.3159372 C17.3377025,39.9810965 17.5000443,39.6567607 17.6263101,39.3695669 C17.7529557,39.0829358 17.8433354,38.8332591 17.8991582,38.6533643 C17.9565,38.4749703 17.9798544,38.3659829 17.9798544,38.3659829 C17.9798544,38.3659829 17.8841582,38.4245097 17.7341582,38.538937 C17.5820696,38.6522388 17.3749177,38.821066 17.1453608,39.0366021 C16.9152342,39.251763 16.661943,39.5132576 16.4092215,39.8062666 C16.3401076,39.8865533 16.2704241,39.969091 16.2009304,40.0533171 L12.239981,37.1070947 L10.5755506,39.3007229 L14.6126392,42.3049093 C14.6063734,42.3159768 14.5987785,42.3270444 14.5928924,42.3379244 C14.4005506,42.672765 14.238019,42.9971008 14.1117532,43.2841071 C13.9847278,43.5707381 13.894538,43.8204148 13.8383354,43.9999344 C13.7804241,44.1783285 13.7570696,44.2869407 13.7570696,44.2869407 C13.7570696,44.2869407 13.8525759,44.2282263 14.0025759,44.1136114 C14.1540949,44.000122 14.3608671,43.8312948 14.5906139,43.6155711 C14.8205506,43.4004102 15.073462,43.1389157 15.326943,42.8459067 C15.3303608,42.8417798 15.3339684,42.8370901 15.3373861,42.8329632 L20.083462,46.1967516 L20.0997911,55.4544853 C19.7726392,55.3316166 19.4462468,55.2049962 19.1225127,55.0691841 C15.7972595,53.6797362 12.8105506,51.6903889 10.244981,49.1559173 C7.67941139,46.6212582 5.66542405,43.6701586 4.25922152,40.3849687 C2.80346203,36.9851639 2.06542405,33.3716989 2.06542405,29.6462452 C2.06542405,25.9209791 2.80346203,22.3077017 4.25922152,18.9073341 C5.66542405,15.6221443 7.67941139,12.6714199 10.244981,10.1367607 C12.8105506,7.60247674 15.7972595,5.61275431 19.1225127,4.2231188 C22.5641582,2.78489858 26.2211203,2.05594022 29.9921962,2.05594022 C33.7632722,2.05594022 37.4202342,2.78489858 40.8618797,4.2231188 C44.1877025,5.61275431 47.1742215,7.60247674 49.7397911,10.1367607 C52.304981,12.6714199 54.3189684,15.6221443 55.7255506,18.9073341 C57.1813101,22.3077017 57.9193481,25.9209791 57.9193481,29.6462452 C57.9193481,33.3716989 57.1813101,36.9851639 55.7255506,40.3849687 C54.3189684,43.6701586 52.304981,46.6212582 49.7397911,49.1559173 M21.3973861,27.4107854 C19.6142848,28.0249413 17.9415,27.7240537 17.6361835,25.943677 C17.6361835,25.943677 17.5440949,25.1456871 17.6228924,24.7577596 C17.6709304,24.431548 17.7620696,24.1184673 17.8896646,23.8252707 C19.2670063,20.129268 24.1632722,17.3963306 29.9921962,17.3963306 C35.8211203,17.3963306 40.7173861,20.1290804 42.0951076,23.8243328 C42.2227025,24.1184673 42.3138418,24.431548 42.3620696,24.75851 C42.4404873,25.1460622 42.3482089,25.943677 42.3482089,25.943677 C42.0432722,27.7240537 40.3068797,28.1821382 38.5875759,27.4107854 C34.9537785,25.7804774 26.3253608,25.7123837 21.3973861,27.4107854 M29.9921962,0.015757206 C13.4282089,0.015757206 -1.89873418e-05,13.2816364 -1.89873418e-05,29.6462452 C-1.89873418e-05,42.5862879 8.39694304,53.5866936 20.0997911,57.625228 C23.1975759,58.6939042 26.5258671,59.2771084 29.9921962,59.2771084 C33.4589051,59.2771084 36.7871962,58.6939042 39.8844114,57.625228 C51.5878291,53.5866936 59.9844114,42.5862879 59.9844114,29.6462452 C59.9844114,13.2816364 46.5567532,0.015757206 29.9921962,0.015757206" id="Fill-7" fill="#FFFFFF" mask="url(#mask-2)"></path>
                </g>
            </g>
        </g>
    </g>
</svg>