<?xml version="1.0" encoding="UTF-8"?>
<svg width="3px" height="16px" viewBox="0 0 3 16" version="1.1" xmlns="http://www.w3.org/2000/svg" xmlns:xlink="http://www.w3.org/1999/xlink">
    <!-- Generator: Sketch 50.2 (55047) - http://www.bohemiancoding.com/sketch -->
    <title>icons8-menu_2 copy 20</title>
    <desc>Created with Sketch.</desc>
    <defs>
        <path d="M1.5,0 C0.67089825,0 0,0.67089825 0,1.5 C0,2.32910175 0.67089825,3 1.5,3 C2.32910175,3 3,2.32910175 3,1.5 C3,0.67089825 2.32910175,0 1.5,0 Z M1.5,6 C0.67089825,6 0,6.67089825 0,7.5 C0,8.32910175 0.67089825,9 1.5,9 C2.32910175,9 3,8.32910175 3,7.5 C3,6.67089825 2.32910175,6 1.5,6 Z M1.5,12 C0.67089825,12 0,12.6708983 0,13.5 C0,14.3291017 0.67089825,15 1.5,15 C2.32910175,15 3,14.3291017 3,13.5 C3,12.6708983 2.32910175,12 1.5,12 Z" id="path-1"></path>
        <filter x="-16.7%" y="-3.3%" width="133.3%" height="113.3%" filterUnits="objectBoundingBox" id="filter-2">
            <feOffset dx="0" dy="1" in="SourceAlpha" result="shadowOffsetOuter1"></feOffset>
            <feColorMatrix values="0 0 0 0 0   0 0 0 0 0   0 0 0 0 0  0 0 0 0.241508152 0" type="matrix" in="shadowOffsetOuter1"></feColorMatrix>
        </filter>
    </defs>
    <g id="App-Wallet" stroke="none" stroke-width="1" fill="none" fill-rule="evenodd">
        <g id="Discover-first-sight-CuongDao-edit-Copy" transform="translate(-185.000000, -535.000000)" fill-rule="nonzero">
            <g id="icons8-menu_2-copy-20" transform="translate(185.000000, 535.000000)">
                <g id="Shape">
                    <use fill="black" fill-opacity="1" filter="url(#filter-2)" xlink:href="#path-1"></use>
                    <use fill="#FFFFFF" fill-rule="evenodd" xlink:href="#path-1"></use>
                </g>
            </g>
        </g>
    </g>
</svg>