<?xml version="1.0" encoding="UTF-8"?>
<svg width="43px" height="44px" viewBox="0 0 43 44" version="1.1" xmlns="http://www.w3.org/2000/svg" xmlns:xlink="http://www.w3.org/1999/xlink">
    <!-- Generator: Sketch 50.2 (55047) - http://www.bohemiancoding.com/sketch -->
    <title>Group</title>
    <desc>Created with Sketch.</desc>
    <defs>
        <polygon id="path-1" points="0 0.0122889025 42.9846927 0.0122889025 42.9846927 42.9965749 0 42.9965749"></polygon>
    </defs>
    <g id="Fix-bugs" stroke="none" stroke-width="1" fill="none" fill-rule="evenodd">
        <g id="My-handshake-long-Copy-3" transform="translate(-20.000000, -124.000000)">
            <g id="Group-6" transform="translate(20.000000, 107.000000)">
                <g id="Group" transform="translate(0.000000, 17.000000)">
                    <g id="Group-3" transform="translate(0.000000, 0.133057)">
                        <mask id="mask-2" fill="white">
                            <use xlink:href="#path-1"></use>
                        </mask>
                        <g id="Clip-2"></g>
                        <path d="M35.6434534,35.6553356 C33.8050568,37.4937322 31.664667,38.936734 29.2815496,39.944395 C29.0497164,40.0428805 28.8157043,40.1348294 28.5811112,40.2238731 L28.5811112,32.9436425 L28.5784965,31.0385721 C28.5609202,30.3159091 28.3481159,29.6421984 27.9899075,29.0678447 C31.0874082,26.9781502 33.1240831,23.4363026 33.1240831,19.4190226 C33.1240831,12.9950932 27.9164065,7.78756179 21.4923318,7.78756179 C15.0684024,7.78756179 9.86072579,12.9950932 9.86072579,19.4190226 C9.86072579,23.4363026 11.8974008,26.9781502 14.9947562,29.0675542 C14.6242007,29.6619536 14.4084913,30.3622467 14.4041335,31.1129447 L7.782071,26.231229 L6.89163397,27.4134911 L14.4035525,32.9546822 L14.4035525,40.2238731 C14.1688141,40.1348294 13.9350925,40.0428805 13.7029688,39.944395 C11.3201419,38.936734 9.17975209,37.4937322 7.34135551,35.6553356 C5.50295894,33.816939 4.05981181,31.6762587 3.0520056,29.2934317 C2.00875621,26.8275167 1.48001383,24.2066105 1.48001383,21.504214 C1.48001383,18.8022533 2.00875621,16.1813471 3.0520056,13.7151415 C4.05981181,11.3321694 5.50295894,9.19192479 7.34135551,7.35352821 C9.17975209,5.51513163 11.3201419,4.07198451 13.7029688,3.06403303 C16.1693196,2.02092891 18.7900806,1.49204127 21.4923318,1.49204127 C24.1947283,1.49204127 26.815344,2.02092891 29.2815496,3.06403303 C31.664667,4.07198451 33.8050568,5.51513163 35.6434534,7.35352821 C37.4815595,9.19192479 38.9248519,11.3321694 39.9328033,13.7151415 C40.9760527,16.1813471 41.5049403,18.8022533 41.5049403,21.504214 C41.5049403,24.2066105 40.9760527,26.8275167 39.9328033,29.2934317 C38.9248519,31.6762587 37.4815595,33.816939 35.6434534,35.6553356 M21.4923318,0.0122889025 C9.62235595,0.0122889025 -2.90517791e-05,9.63452864 -2.90517791e-05,21.504214 C-2.90517791e-05,30.8901175 6.01703017,38.8691886 14.4035525,41.7984795 C16.6232537,42.573581 19.0082595,42.9965749 21.4923318,42.9965749 C23.9765495,42.9965749 26.3617005,42.573581 28.5811112,41.7984795 C36.9677788,38.8691886 42.9846927,30.8901175 42.9846927,21.504214 C42.9846927,9.63452864 33.362453,0.0122889025 21.4923318,0.0122889025" id="Fill-1" fill="#000000" mask="url(#mask-2)"></path>
                    </g>
                    <path d="M29.6722379,10.6722872 C29.6722379,10.6722872 30.3479823,11.244462 31.0192236,12.0346704 C32.0939942,11.6812555 34.1119308,10.6722872 34.1119308,10.6722872 L31.8922296,8.38518594 L29.6722379,10.6722872 Z" id="Fill-4" fill="#000000"></path>
                    <polygon id="Fill-6" fill="#000000" points="31.4213003 12.4885899 33.5064917 11.681241 33.5064917 13.4303034 31.8922296 13.4303034"></polygon>
                    <path d="M30.1653918,17.4146387 C29.1780671,14.7343215 25.6693385,12.7521186 21.492419,12.7521186 C17.3152089,12.7521186 13.8064803,14.7344668 12.8195914,17.4152197 C12.7282235,17.628024 12.662857,17.8549184 12.6282854,18.0915451 C12.5717797,18.3730568 12.6380178,18.9517683 12.6380178,18.9517683 C12.8566324,20.2432651 14.0553088,20.461444 15.3331513,20.0159349 C18.8645403,18.7841395 25.0477757,18.8335275 27.6516867,20.0159349 C28.8837726,20.5754722 30.1282056,20.2432651 30.3466749,18.9517683 C30.3466749,18.9517683 30.4127677,18.3733474 30.3565526,18.0921261 C30.3219809,17.8549184 30.2567597,17.628024 30.1653918,17.4146387 Z" id="Fill-8" fill="#FFFFFF"></path>
                    <path d="M10.1606709,31.8478094 C10.2643857,31.4377436 10.4275115,31.0692217 10.6085041,30.7130469 C10.791966,30.3587605 10.9986695,30.020743 11.2252733,29.6965252 C11.4517319,29.3724526 11.6989626,29.0629059 11.9695799,28.7697734 C12.2423761,28.4780936 12.5333297,28.1991965 12.8842752,27.962134 C12.7812866,28.3727809 12.6183061,28.7415932 12.4371683,29.0974775 C12.2538516,29.4519092 12.0471482,29.7899267 11.8196727,30.1134182 C11.5924878,30.4369098 11.3451119,30.7466017 11.0746399,31.0398794 C10.8016984,31.3312688 10.5108901,31.6103111 10.1606709,31.8478094" id="Fill-10" fill="#000000"></path>
                </g>
            </g>
        </g>
    </g>
</svg>