<?xml version="1.0" encoding="UTF-8"?>
<svg width="45px" height="45px" viewBox="0 0 45 45" version="1.1" xmlns="http://www.w3.org/2000/svg" xmlns:xlink="http://www.w3.org/1999/xlink">
    <!-- Generator: Sketch 50.2 (55047) - http://www.bohemiancoding.com/sketch -->
    <title>Group 11</title>
    <desc>Created with Sketch.</desc>
    <defs></defs>
    <g id="App--Me" stroke="none" stroke-width="1" fill="none" fill-rule="evenodd">
        <g id="My-handshake-long" transform="translate(-14.000000, -81.000000)">
            <g id="Group-11" transform="translate(14.000000, 81.000000)">
                <circle id="Oval-6-Copy" fill-opacity="0.1" fill="#0064FF" cx="22.5" cy="22.5" r="22.5"></circle>
                <g id="Group-6" transform="translate(12.000000, 13.000000)" fill="#1E4EFF" fill-rule="nonzero">
                    <path d="M12.5917905,17.2083333 L2.4893474,17.2083333 C2.13915573,17.2083333 1.92788409,17.0345729 1.83313792,16.9310313 C1.66952647,16.7522031 1.6061983,16.5194167 1.65939561,16.2923177 C2.51067554,12.6576042 6.11742826,10.0024896 10.2825271,9.91294792 C10.3546736,9.91542708 10.4271483,9.91666667 10.4999921,9.91666667 C10.5735332,9.91666667 10.6467461,9.91539063 10.7195899,9.912875 C11.9959971,9.93948958 13.2235957,10.1984167 14.371788,10.6836042 C14.7810012,10.8564167 15.270318,10.7017969 15.4648142,10.3380521 C15.6593104,9.97434375 15.485322,9.53935938 15.0761088,9.36647396 C14.6725558,9.19595833 14.2607996,9.04906771 13.8418247,8.92602083 C15.1987456,8.0206875 16.0781213,6.57908854 16.0781213,4.95833333 C16.0781213,2.22432292 13.5757971,0 10.4999921,0 C7.42418705,0 4.9218629,2.22432292 4.9218629,4.95833333 C4.9218629,6.580875 5.80320732,8.02389583 7.16267123,8.92904688 C5.91710779,9.29355729 4.74836668,9.86073958 3.72543622,10.6086458 C1.84970825,11.980099 0.545533439,13.8930313 0.0532225217,15.9951094 C-0.101078376,16.6537656 0.0837791853,17.3302865 0.560299075,17.8511302 C1.03448107,18.3694219 1.73761246,18.6666667 2.4893474,18.6666667 L12.5917905,18.6666667 C13.0448495,18.6666667 13.4121037,18.3402188 13.4121037,17.9375 C13.4121037,17.5347813 13.0448495,17.2083333 12.5917905,17.2083333 Z M6.56248914,4.95833333 C6.56248914,3.02841146 8.32882836,1.45833333 10.4999921,1.45833333 C12.6711558,1.45833333 14.4374951,3.02841146 14.4374951,4.95833333 C14.4374951,6.82860938 12.7786169,8.36095313 10.7000665,8.45384896 C10.6334981,8.45279167 10.5668066,8.45224479 10.4999921,8.45224479 C10.4337928,8.45224479 10.3675936,8.45282813 10.3014763,8.45392188 C8.22218765,8.36171875 6.56248914,6.82908333 6.56248914,4.95833333 Z" id="Shape"></path>
                    <path d="M17.5917905,17.2083333 L7.4893474,17.2083333 C7.13915573,17.2083333 6.92788409,17.0345729 6.83313792,16.9310313 C6.66952647,16.7522031 6.6061983,16.5194167 6.65939561,16.2923177 C7.51067554,12.6576042 11.1174283,10.0024896 15.2825271,9.91294792 C15.3546736,9.91542708 15.4271483,9.91666667 15.4999921,9.91666667 C15.5735332,9.91666667 15.6467461,9.91539063 15.7195899,9.912875 C16.9959971,9.93948958 18.2235957,10.1984167 19.371788,10.6836042 C19.7810012,10.8564167 20.270318,10.7017969 20.4648142,10.3380521 C20.6593104,9.97434375 20.485322,9.53935938 20.0761088,9.36647396 C19.6725558,9.19595833 19.2607996,9.04906771 18.8418247,8.92602083 C20.1987456,8.0206875 21.0781213,6.57908854 21.0781213,4.95833333 C21.0781213,2.22432292 18.5757971,0 15.4999921,0 C12.4241871,0 9.9218629,2.22432292 9.9218629,4.95833333 C9.9218629,6.580875 10.8032073,8.02389583 12.1626712,8.92904688 C10.9171078,9.29355729 9.74836668,9.86073958 8.72543622,10.6086458 C6.84970825,11.980099 5.54553344,13.8930313 5.05322252,15.9951094 C4.89892162,16.6537656 5.08377919,17.3302865 5.56029908,17.8511302 C6.03448107,18.3694219 6.73761246,18.6666667 7.4893474,18.6666667 L17.5917905,18.6666667 C18.0448495,18.6666667 18.4121037,18.3402188 18.4121037,17.9375 C18.4121037,17.5347813 18.0448495,17.2083333 17.5917905,17.2083333 Z M11.5624891,4.95833333 C11.5624891,3.02841146 13.3288284,1.45833333 15.4999921,1.45833333 C17.6711558,1.45833333 19.4374951,3.02841146 19.4374951,4.95833333 C19.4374951,6.82860938 17.7786169,8.36095313 15.7000665,8.45384896 C15.6334981,8.45279167 15.5668066,8.45224479 15.4999921,8.45224479 C15.4337928,8.45224479 15.3675936,8.45282813 15.3014763,8.45392188 C13.2221877,8.36171875 11.5624891,6.82908333 11.5624891,4.95833333 Z" id="Shape" transform="translate(13.039061, 9.333333) scale(-1, 1) translate(-13.039061, -9.333333) "></path>
                </g>
            </g>
        </g>
    </g>
</svg>