<?xml version="1.0" encoding="UTF-8"?>
<svg width="414px" height="162px" viewBox="0 0 414 162" version="1.1" xmlns="http://www.w3.org/2000/svg" xmlns:xlink="http://www.w3.org/1999/xlink">
    <!-- Generator: Sketch 50.2 (55047) - http://www.bohemiancoding.com/sketch -->
    <title>Group 18</title>
    <desc>Created with Sketch.</desc>
    <defs>
        <linearGradient x1="0%" y1="6.24500451e-15%" x2="101.999998%" y2="100.999999%" id="linearGradient-1">
            <stop stop-color="#FFCD2C" offset="0%"></stop>
            <stop stop-color="#FF0663" offset="100%"></stop>
        </linearGradient>
        <rect id="path-2" x="0" y="0" width="414" height="162"></rect>
        <polygon id="path-4" points="0 0.077957125 430.999785 0.077957125 430.999785 140.615743 0 140.615743"></polygon>
        <polygon id="path-6" points="0 0.4924175 430.999838 0.4924175 430.999838 151.929655 0 151.929655"></polygon>
        <polygon id="path-8" points="0 0.44058975 430.999731 0.44058975 430.999731 77.0432973 0 77.0432973"></polygon>
        <polygon id="path-10" points="5.3875e-05 0.465911 431 0.465911 431 46.8732972 5.3875e-05 46.8732972"></polygon>
    </defs>
    <g id="BUGS-14/6" stroke="none" stroke-width="1" fill="none" fill-rule="evenodd">
        <g id="Discover-first-sight-Copy-14" transform="translate(0.000000, -146.000000)">
            <g id="Group-12" transform="translate(0.000000, 146.000000)">
                <g id="Group-18">
                    <mask id="mask-3" fill="white">
                        <use xlink:href="#path-2"></use>
                    </mask>
                    <use id="Mask" fill="url(#linearGradient-1)" xlink:href="#path-2"></use>
                    <g id="Group-16" opacity="0.40597097" style="mix-blend-mode: overlay;" mask="url(#mask-3)">
                        <g transform="translate(0.000000, 9.000000)">
                            <g id="Group-6" transform="translate(0.000000, 11.313750)">
                                <mask id="mask-5" fill="white">
                                    <use xlink:href="#path-4"></use>
                                </mask>
                                <g id="Clip-5"></g>
                                <polygon id="Fill-4" fill="#B2B2B2" mask="url(#mask-5)" points="395.51771 92.2774771 395.51771 51.5237334 385.599861 51.5237334 385.599861 16.8142259 360.80066 16.8142259 360.80066 92.2774771 349.713723 92.2774771 349.713723 51.5237334 330.165718 51.5237334 330.165718 34.1689796 317.767465 34.1689796 317.767465 39.1276346 312.516268 39.1276346 312.516268 41.2966421 306.315795 41.2966421 306.315795 45.0156334 302.814997 45.0156334 302.814997 92.2774771 298.875118 92.2774771 298.875118 34.1684409 280.569471 34.1684409 280.569471 92.2774771 277.87195 92.2774771 277.87195 61.1307234 254.311873 61.1307234 254.311873 92.2774771 253.07221 92.2774771 253.07221 10.6159071 229.513211 10.6159071 229.513211 92.2774771 223.021273 92.2774771 223.021273 31.5339534 199.462275 17.2780896 199.462275 57.1019509 192.969798 57.1019509 192.969798 48.4248434 177.581482 48.4248434 177.581482 92.2774771 146.399171 92.2774771 146.399171 24.4062909 121.856415 24.4062909 121.856415 92.2774771 95.3418333 92.2774771 95.3418333 0.077957125 70.799077 0.077957125 70.799077 49.6634296 62.9403308 49.6634296 62.9403308 37.8868934 38.3981133 37.8868934 38.3981133 61.1307234 30.519972 61.1307234 30.519972 92.2774771 23.552857 92.2774771 23.552857 34.1684409 -0.0002155 34.1684409 -0.0002155 140.615743 430.999785 140.615743 430.999785 92.2774771"></polygon>
                            </g>
                            <g id="Group-9">
                                <mask id="mask-7" fill="white">
                                    <use xlink:href="#path-6"></use>
                                </mask>
                                <g id="Clip-8"></g>
                                <path d="M418.548787,64.0309762 L418.548787,120.682155 L416.225158,120.682155 L416.225158,82.3614062 L403.489108,82.3614062 L403.489108,120.682155 L382.966505,120.682155 L382.966505,60.0566175 L367.682706,60.0566175 L367.682706,120.682155 L364.454516,120.682155 L364.454516,47.6287325 C364.454516,43.53962 361.279662,40.2047575 357.277827,39.9617812 L356.812347,20.5495412 L356.347406,39.9617812 C352.343955,40.2047575 349.170717,43.53962 349.170717,47.6287325 L349.170717,120.682155 L329.278451,120.682155 L329.278451,66.100315 L313.994652,66.100315 L313.994652,120.682155 L301.510737,120.682155 L301.510737,77.78257 L284.064396,77.78257 L284.064396,120.682155 L274.212813,120.682155 L274.212813,46.0496562 L267.610432,46.0496562 L267.05121,22.7045412 L266.491987,46.0496562 L257.708207,46.0496562 L257.708207,61.0586925 L246.829767,61.0586925 L241.439573,51.6645087 L236.049918,61.0586925 L234.960566,61.0586925 L234.960566,52.2075687 L219.586257,52.2075687 L219.586257,120.682155 L216.605892,120.682155 L216.605892,89.9394637 L209.546112,89.9394637 L209.546112,80.6244762 L197.780351,80.6244762 L197.780351,74.151395 L185.229092,74.151395 L185.229092,84.887605 L179.581376,84.887605 L179.581376,31.5249562 L175.520278,31.5249562 C174.253138,28.2849137 171.238293,25.9381187 167.640521,25.6568912 L167.03766,0.49187875 L166.434798,25.6450387 C162.73197,25.8379112 159.61153,28.2143375 158.316913,31.5249562 L155.108118,31.5249562 L155.108118,120.682155 L152.127753,120.682155 L152.127753,65.7846075 L137.536787,65.7846075 L137.536787,120.682155 L132.831345,120.682155 L132.831345,65.7846075 L122.52829,65.7846075 L112.418107,48.1626337 L102.308463,65.7846075 L92.3550571,65.7846075 L92.3550571,120.682155 L90.0028746,120.682155 L90.0028746,92.5928075 L74.0003834,92.5928075 L74.0003834,120.682155 L70.5491509,120.682155 L70.5491509,98.4646437 L62.5476359,98.4646437 L62.5476359,120.682155 L55.3305409,120.682155 L55.3305409,82.9621125 L43.2517659,82.9621125 L43.2517659,120.682155 L42.4668071,120.682155 L42.4668071,95.9071975 L34.4652921,95.9071975 L34.4652921,92.5922687 L26.4653934,92.5922687 L26.4653934,120.682155 L24.1115946,120.682155 L24.1115946,78.4145237 L12.8161621,78.4145237 L12.8161621,65.7846075 L4.66541338,65.7846075 L4.01352588,38.5238575 L3.35948338,65.7846075 L-0.000161625,65.7846075 L-0.000161625,151.929655 L430.999838,151.929655 L430.999838,64.0309762 L418.548787,64.0309762 Z" id="Fill-7" fill="#808080" mask="url(#mask-7)"></path>
                            </g>
                            <g id="Group-12" transform="translate(0.000000, 74.886250)">
                                <mask id="mask-9" fill="white">
                                    <use xlink:href="#path-8"></use>
                                </mask>
                                <g id="Clip-11"></g>
                                <polygon id="Fill-10" fill="#4D4D4D" mask="url(#mask-9)" points="406.991414 0.44058975 406.991414 21.2794398 399.295909 21.2794398 399.295909 58.6342098 384.432336 58.6342098 384.432336 35.7163235 370.048788 35.7163235 370.048788 45.2802135 365.461332 45.2802135 365.461332 68.2433548 347.548433 68.2433548 347.548433 32.2871798 322.776169 32.2871798 322.776169 23.8061773 295.364569 23.8061773 295.364569 34.633436 273.161604 34.633436 273.161604 68.2433548 249.375792 68.2433548 249.375792 30.8438685 232.973548 30.8438685 232.973548 68.2433548 224.236101 68.2433548 224.236101 15.6850597 217.263598 15.6850597 217.263598 0.707271 200.860816 0.707271 200.860816 68.2433548 194.254663 68.2433548 194.254663 18.9331835 168.564369 18.9331835 168.564369 68.2433548 163.059961 68.2433548 163.059961 25.7903935 137.369667 25.7903935 137.369667 68.2433548 122.506632 68.2433548 122.506632 23.4441372 94.2475781 23.4441372 94.2475781 31.564716 67.8224294 31.564716 67.8224294 68.2433548 46.5358781 68.2433548 46.5358781 34.8128398 18.2784406 34.8128398 18.2784406 68.2433548 14.9737481 68.2433548 14.9737481 22.1813072 -0.000269375 22.1813072 -0.000269375 77.0432973 430.999731 77.0432973 430.999731 0.44058975"></polygon>
                            </g>
                            <g id="Group-15" transform="translate(0.000000, 105.056250)">
                                <mask id="mask-11" fill="white">
                                    <use xlink:href="#path-10"></use>
                                </mask>
                                <g id="Clip-14"></g>
                                <polygon id="Fill-13" fill="#333333" mask="url(#mask-11)" points="414.767516 13.2245885 414.767516 35.361826 404.908391 35.361826 404.908391 23.8503547 382.439823 23.8503547 382.439823 31.9967935 359.971254 31.9967935 359.971254 39.434776 342.119773 39.434776 342.119773 14.8176722 326.31177 14.8176722 326.31177 30.0492122 318.40723 30.0492122 318.40723 39.434776 313.87742 39.434776 313.87742 22.610691 285.636145 22.610691 285.636145 39.723546 271.155623 39.723546 271.155623 22.610691 259.578963 22.610691 259.578963 39.434776 254.190385 39.434776 254.190385 33.2774022 242.614264 33.2774022 242.614264 39.434776 235.861033 39.434776 235.861033 22.610691 214.448414 22.610691 214.448414 39.434776 211.03651 39.434776 211.03651 22.610691 199.45985 22.610691 199.45985 39.434776 196.871695 39.434776 196.871695 0.465911 185.295035 0.465911 185.295035 39.723546 171.508961 39.723546 171.508961 13.2245885 154.98927 13.2245885 154.98927 19.6809685 138.470118 19.6809685 138.470118 29.0891597 128.077091 29.0891597 128.077091 14.8176722 110.362453 14.8176722 110.362453 11.305561 82.3426039 11.305561 82.3426039 14.8176722 62.0047914 14.8176722 62.0047914 23.8503547 54.1002514 23.8503547 54.1002514 18.531276 41.2763851 18.531276 41.2763851 13.2245885 5.3875e-05 13.2245885 5.3875e-05 46.8732972 431.000054 46.8732972 431.000054 13.2245885"></polygon>
                            </g>
                        </g>
                    </g>
                </g>
            </g>
        </g>
    </g>
</svg>