<?xml version="1.0" encoding="UTF-8"?>
<svg width="36px" height="36px" viewBox="0 0 36 36" version="1.1" xmlns="http://www.w3.org/2000/svg" xmlns:xlink="http://www.w3.org/1999/xlink">
    <!-- Generator: Sketch 50.2 (55047) - http://www.bohemiancoding.com/sketch -->
    <title>Group 6</title>
    <desc>Created with Sketch.</desc>
    <defs></defs>
    <g id="BUGS-14/6" stroke="none" stroke-width="1" fill="none" fill-rule="evenodd">
        <g id="Buy-Coin-Copy" transform="translate(-348.000000, -324.000000)">
            <g id="Group-6" transform="translate(348.000000, 324.000000)">
                <circle id="Oval-6" fill="#BDF2C0" cx="18" cy="18" r="18"></circle>
                <g id="icons8-speech_bubble" transform="translate(9.000000, 9.000000)" fill-rule="nonzero">
                    <g id="icons8-chat">
                        <path d="M7.38888889,15.8333333 L15.8333333,15.8333333 L19,19 L19,7.38888889 C19,6.22302778 18.05475,5.27777778 16.8888889,5.27777778 L7.38888889,5.27777778 C6.22302778,5.27777778 5.27777778,6.22302778 5.27777778,7.38888889 L5.27777778,13.7222222 C5.27777778,14.8880833 6.22302778,15.8333333 7.38888889,15.8333333" id="Shape" fill="#6ED69A"></path>
                        <path d="M12.1388889,10.5555556 L3.16666667,10.5555556 L0,13.7222222 L0,2.11111111 C0,0.94525 0.94525,0 2.11111111,0 L12.1388889,0 C13.30475,0 14.25,0.94525 14.25,2.11111111 L14.25,8.44444444 C14.25,9.61030556 13.30475,10.5555556 12.1388889,10.5555556" id="Shape" fill="#18B877"></path>
                    </g>
                </g>
            </g>
        </g>
    </g>
</svg>