<?xml version="1.0" encoding="UTF-8"?>
<svg width="37px" height="23px" viewBox="0 0 37 23" version="1.1" xmlns="http://www.w3.org/2000/svg" xmlns:xlink="http://www.w3.org/1999/xlink">
    <!-- Generator: Sketch 50.2 (55047) - http://www.bohemiancoding.com/sketch -->
    <title>Group 9</title>
    <desc>Created with Sketch.</desc>
    <defs></defs>
    <g id="Symbols" stroke="none" stroke-width="1" fill="none" fill-rule="evenodd">
        <g id="Bar/Bottom/Wallet" transform="translate(-273.000000, -14.000000)" stroke="#979797">
            <g id="Group-9" transform="translate(274.000000, 15.000000)">
                <path d="M12.3007909,9.56168182 C12.3007909,10.0943182 11.8696091,10.5238636 11.3361545,10.5238636 C10.8051545,10.5238636 10.3739727,10.0943182 10.3739727,9.56168182 C10.3739727,9.03068182 10.8051545,8.59868182 11.3361545,8.59868182 C11.8696091,8.59868182 12.3007909,9.03068182 12.3007909,9.56168182 Z" id="Stroke-1"></path>
                <path d="M19.0012091,9.56168182 C19.0012091,9.03068182 19.4323909,8.59868182 19.9642091,8.59868182 C20.4968455,8.59868182 20.9280273,9.03068182 20.9280273,9.56168182 C20.9280273,10.0943182 20.4968455,10.5238636 19.9642091,10.5238636 C19.4323909,10.5238636 19.0012091,10.0943182 19.0012091,9.56168182 Z" id="Stroke-3"></path>
                <path d="M4.33227273,6.03572727 C16.7890909,10.0554545 26.9697273,6.03572727 26.9697273,6.03572727 C23.2854545,17.2202727 4.33227273,13.4705455 4.33227273,6.03572727 Z M30.7701818,10.4350909 C30.7701818,9.90736364 30.7120909,9.38781818 30.6,8.88136364 C32.7542727,8.68663636 35.4673636,8.41172727 35.4673636,8.41172727 L31.1694545,5.33781818 L34.1140909,1.683 C30.1671818,1.84827273 28.0489091,3.07227273 27.1824545,3.73581818 C27.1701818,3.72681818 27.1603636,3.717 27.1480909,3.708 C24.3261818,1.44081818 20.1027273,0 15.3867273,0 C6.88909091,0 0,4.67263636 0,10.4350909 C0,16.1975455 6.88909091,20.8677273 15.3867273,20.8677273 C16.7440909,20.8677273 18.0589091,20.7490909 19.3148182,20.5240909 C19.3172727,20.5240909 19.323,20.5224545 19.3295455,20.5208182 C19.4023636,20.5036364 19.6478182,20.4504545 20.0299091,20.3833636 C21.6024545,20.1133636 25.4724545,19.6478182 28.845,20.8677273 C27.6144545,19.3246364 26.7087273,18.4442727 26.0648182,17.9443636 C28.9669091,16.0478182 30.7701818,13.3846364 30.7701818,10.4350909 Z" id="Stroke-5"></path>
            </g>
        </g>
    </g>
</svg>