<?xml version="1.0" encoding="UTF-8"?>
<svg width="24px" height="24px" viewBox="0 0 24 24" version="1.1" xmlns="http://www.w3.org/2000/svg" xmlns:xlink="http://www.w3.org/1999/xlink">
    <!-- Generator: Sketch 50.2 (55047) - http://www.bohemiancoding.com/sketch -->
    <title>Group 13</title>
    <desc>Created with Sketch.</desc>
    <defs>
        <polygon id="path-1" points="0 0.408744828 19.4481931 0.408744828 19.4481931 19.862069 0 19.862069"></polygon>
        <polygon id="path-3" points="0.200193103 0.408827586 19.4481931 0.408827586 19.4481931 16.4473655 0.200193103 16.4473655"></polygon>
    </defs>
    <g id="Trong---Exchange-" stroke="none" stroke-width="1" fill="none" fill-rule="evenodd">
        <g id="FEED" transform="translate(-270.000000, -465.000000)">
            <g id="Group-14" transform="translate(270.000000, 465.000000)">
                <g id="Group-13">
                    <g id="Group-3" transform="translate(0.000000, 4.142897)">
                        <mask id="mask-2" fill="white">
                            <use xlink:href="#path-1"></use>
                        </mask>
                        <g id="Clip-2"></g>
                        <path d="M13.7477793,0.408744828 L5.70033103,0.408744828 C2.5521931,0.408744828 -8.27586207e-05,2.9606069 -8.27586207e-05,6.10915862 L-8.27586207e-05,10.8040552 C-8.27586207e-05,13.9517793 2.64488276,16.5466759 5.79302069,16.5466759 L5.79302069,19.6277793 C5.79302069,19.8359172 5.95191724,19.9406069 6.09922759,19.7932966 L6.7286069,19.164331 C8.43177931,17.4607448 10.7419862,16.5466759 13.1506759,16.5466759 L13.7477793,16.5466759 C16.8959172,16.5466759 19.4481931,13.9517793 19.4481931,10.8040552 L19.4481931,6.10915862 C19.4481931,2.9606069 16.8959172,0.408744828 13.7477793,0.408744828" id="Fill-1" fill="#2CB742" mask="url(#mask-2)"></path>
                    </g>
                    <g id="Group-6" transform="translate(4.551724, 0.004966)">
                        <mask id="mask-4" fill="white">
                            <use xlink:href="#path-3"></use>
                        </mask>
                        <g id="Clip-5"></g>
                        <path d="M13.7477793,0.408744828 L5.70033103,0.408744828 C3.06405517,0.408744828 0.851917241,2.20129655 0.200193103,4.63191724 C0.509296552,4.5801931 0.824606897,4.54667586 1.1486069,4.54667586 L9.19605517,4.54667586 C12.3441931,4.54667586 14.896469,7.09853793 14.896469,10.2470897 L14.896469,14.9419862 C14.896469,15.4625379 14.8207448,15.9661241 14.6895724,16.4473655 C17.3614345,15.9537103 19.4481931,13.5988138 19.4481931,10.8036414 L19.4481931,6.10915862 C19.4481931,2.9606069 16.8959172,0.408744828 13.7477793,0.408744828" id="Fill-4" fill="#9BC0EA" mask="url(#mask-4)"></path>
                    </g>
                    <path d="M4.9656,11.5861241 C5.65125517,11.5861241 6.20697931,12.1418483 6.20697931,12.8275034 C6.20697931,13.5131586 5.65125517,14.0688828 4.9656,14.0688828 C4.27994483,14.0688828 3.72422069,13.5131586 3.72422069,12.8275034 C3.72422069,12.1418483 4.27994483,11.5861241 4.9656,11.5861241" id="Fill-7" fill="#FFFFFF"></path>
                    <path d="M9.93111724,11.5861241 C10.6167724,11.5861241 11.1724966,12.1418483 11.1724966,12.8275034 C11.1724966,13.5131586 10.6167724,14.0688828 9.93111724,14.0688828 C9.24546207,14.0688828 8.68973793,13.5131586 8.68973793,12.8275034 C8.68973793,12.1418483 9.24546207,11.5861241 9.93111724,11.5861241" id="Fill-9" fill="#FFFFFF"></path>
                    <path d="M14.8966345,11.5861241 C15.5822897,11.5861241 16.1380138,12.1418483 16.1380138,12.8275034 C16.1380138,13.5131586 15.5822897,14.0688828 14.8966345,14.0688828 C14.2109793,14.0688828 13.6552552,13.5131586 13.6552552,12.8275034 C13.6552552,12.1418483 14.2109793,11.5861241 14.8966345,11.5861241" id="Fill-11" fill="#FFFFFF"></path>
                </g>
            </g>
        </g>
    </g>
</svg>