<?xml version="1.0" encoding="UTF-8"?>
<svg width="19px" height="19px" viewBox="0 0 19 19" version="1.1" xmlns="http://www.w3.org/2000/svg" xmlns:xlink="http://www.w3.org/1999/xlink">
    <!-- Generator: Sketch 50.2 (55047) - http://www.bohemiancoding.com/sketch -->
    <title>Group 3 Copy 2</title>
    <desc>Created with Sketch.</desc>
    <defs></defs>
    <g id="Page-1" stroke="none" stroke-width="1" fill="none" fill-rule="evenodd">
        <g id="1" transform="translate(-39.000000, -487.000000)">
            <g id="Group-3-Copy-2" transform="translate(39.000000, 487.000000)">
                <g id="Group-4">
                    <circle id="Oval-4-Copy-4" fill="#1E4EFF" cx="9.5" cy="9.5" r="9.5"></circle>
                    <g id="coin-of-dollar" transform="translate(2.000000, 2.000000)" fill="#FFFFFF">
                        <path d="M7.5,0.937568664 C11.118183,0.937568664 14.0624313,3.88181698 14.0624313,7.5 C14.0624313,11.118183 11.118183,14.0624313 7.5,14.0624313 C3.88181698,14.0624313 0.937568664,11.118183 0.937568664,7.5 C0.937568664,3.88181698 3.88181698,0.937568664 7.5,0.937568664 Z M7.5,0 C3.35810128,0 0,3.35810128 0,7.5 C0,11.6417156 3.35810128,15 7.5,15 C11.6417156,15 15,11.6417156 15,7.5 C15,3.35810128 11.6417156,0 7.5,0 Z M7.5,1.87495422 C4.39264213,1.87495422 1.87495422,4.39264213 1.87495422,7.5 C1.87495422,10.6063325 4.39264213,13.1248627 7.5,13.1248627 C10.6063325,13.1248627 13.1248627,10.6063325 13.1248627,7.5 C13.1248627,4.39264213 10.6063325,1.87495422 7.5,1.87495422 Z M9.54531472,10.3957622 C9.17624914,10.8096152 8.64352469,11.053071 7.94673854,11.1263129 L7.94673854,12.1874771 L7.05868135,12.1874771 L7.05868135,11.1319159 C5.89680959,11.0128979 5.17812413,10.3370955 4.90075732,9.10674264 L6.27404163,8.74866334 C6.40137255,9.52228016 6.82251307,9.90866744 7.5374632,9.90866744 C7.87162904,9.90866744 8.11882022,9.82627038 8.27632678,9.66063398 C8.43383333,9.49481448 8.51249506,9.29526711 8.51249506,9.0609665 C8.51249506,8.81835294 8.43383333,8.63422298 8.27632678,8.50978511 C8.11882022,8.38432185 7.76821158,8.22597302 7.22534314,8.03371321 C6.73740607,7.86434148 6.35559641,7.6976797 6.08093955,7.53101791 C5.80628268,7.3662238 5.58282186,7.13463313 5.41158246,6.8370882 C5.24037969,6.5385545 5.15439378,6.19065581 5.15439378,5.79525979 C5.15439378,5.2761217 5.308165,4.80821627 5.61402288,4.39264213 C5.91984414,3.97794689 6.40137255,3.72431043 7.05868135,3.63176938 L7.05868135,2.81252289 L7.94673854,2.81252289 L7.94673854,3.63191586 C8.93923858,3.75093383 9.58193564,4.31211273 9.87391419,5.31647795 L8.65084887,5.81814786 C8.41178754,5.12963804 8.04385721,4.78547468 7.54390848,4.78547468 C7.29312845,4.78547468 7.09171342,4.86226874 6.94065215,5.01622307 C6.78860211,5.16999429 6.71265033,5.35665109 6.71265033,5.5755343 C6.71265033,5.79899512 6.78589216,5.9701979 6.93237582,6.09009477 C7.07798058,6.20911275 7.39200492,6.35643869 7.87177553,6.53324447 C8.39908008,6.72550427 8.81289642,6.90762008 9.11230902,7.07885948 C9.4125639,7.25009888 9.65147875,7.48725592 9.83099448,7.78838971 C10.0095214,8.09051225 10.0992061,8.44298856 10.0992061,8.8466609 C10.0990596,9.46650651 9.91427044,9.98293465 9.54531472,10.3957622 Z" id="Fill-1"></path>
                    </g>
                </g>
            </g>
        </g>
    </g>
</svg>