<?xml version="1.0" encoding="UTF-8"?>
<svg width="20px" height="20px" viewBox="0 0 20 20" version="1.1" xmlns="http://www.w3.org/2000/svg" xmlns:xlink="http://www.w3.org/1999/xlink">
    <!-- Generator: Sketch 50.2 (55047) - http://www.bohemiancoding.com/sketch -->
    <title>drawable-xxxhdpi/Shape</title>
    <desc>Created with Sketch.</desc>
    <defs></defs>
    <g id="App--Chat" stroke="none" stroke-width="1" fill="none" fill-rule="evenodd">
        <g id="Chat-Copy" transform="translate(-18.000000, -43.000000)" fill="#1E4EFF" fill-rule="nonzero">
            <path d="M30.2235723,43 C25.9374239,43 22.4471446,46.4902793 22.4471446,50.7764277 C22.4471446,52.6385174 23.1002432,54.3456867 24.1968408,55.6852977 L18,61.8821385 L19.1178615,63 L25.3147023,56.8031592 C26.6543133,57.8997568 28.3614826,58.5528554 30.2235723,58.5528554 C34.5097207,58.5528554 38,55.0625761 38,50.7764277 C38,46.4902793 34.5097207,43 30.2235723,43 Z M30.2235723,44.5552855 C33.6682871,44.5552855 36.4447145,47.3317136 36.4447145,50.7764277 C36.4447145,54.2211426 33.6682871,56.9975699 30.2235723,56.9975699 C26.7788582,56.9975699 24.0024301,54.2211426 24.0024301,50.7764277 C24.0024301,47.3317136 26.7788582,44.5552855 30.2235723,44.5552855 Z" id="Shape" transform="translate(28.000000, 53.000000) scale(-1, 1) translate(-28.000000, -53.000000) "></path>
        </g>
    </g>
</svg>