<?xml version="1.0" encoding="UTF-8"?>
<svg width="20px" height="17px" viewBox="0 0 20 17" version="1.1" xmlns="http://www.w3.org/2000/svg" xmlns:xlink="http://www.w3.org/1999/xlink">
    <!-- Generator: Sketch 50.2 (55047) - http://www.bohemiancoding.com/sketch -->
    <title>drawable-xxxhdpi/Shape</title>
    <desc>Created with Sketch.</desc>
    <defs></defs>
    <g id="App--Chat" stroke="none" stroke-width="1" fill="none" fill-rule="evenodd">
        <g id="Chat_page-Copy" transform="translate(-379.000000, -635.000000)" fill="#989898" fill-rule="nonzero">
            <g id="send" transform="translate(379.000000, 635.000000)">
                <path d="M18.8089049,6.74279996 L2.67240234,0.146822539 C1.99259689,-0.131085103 1.22458821,-0.00883190752 0.668142269,0.46571213 C0.111696329,0.94033313 -0.121038308,1.67162042 0.0608368966,2.37416263 L1.49712758,7.92277225 L8.52940113,7.92277225 C8.85299525,7.92277225 9.11537835,8.18120866 9.11537835,8.50002129 C9.11537835,8.81879544 8.85303431,9.07727033 8.52940113,9.07727033 L1.49712758,9.07727033 L0.0608368966,14.6258415 C-0.121038308,15.3284222 0.111657266,16.0597095 0.668142269,16.534292 C1.22572102,17.009798 1.99380783,17.1305505 2.6724414,16.8531816 L18.808944,10.2572426 C19.5436323,9.95693921 20,9.28360386 20,8.50002129 C20,7.71643872 19.5436323,7.04306489 18.8089049,6.74279996 Z" id="Shape"></path>
            </g>
        </g>
    </g>
</svg>