<?xml version="1.0" encoding="UTF-8"?>
<svg width="13px" height="6px" viewBox="0 0 13 6" version="1.1" xmlns="http://www.w3.org/2000/svg" xmlns:xlink="http://www.w3.org/1999/xlink">
    <!-- Generator: Sketch 50.2 (55047) - http://www.bohemiancoding.com/sketch -->
    <title>icons8-approximately_equal</title>
    <desc>Created with Sketch.</desc>
    <defs></defs>
    <g id="HS---SHop" stroke="none" stroke-width="1" fill="none" fill-rule="evenodd">
        <g id="Discover-first-sight-Copy-3" transform="translate(-130.000000, -461.000000)" fill="#FFFFFF" fill-rule="nonzero">
            <g id="icons8-approximately_equal" transform="translate(130.000000, 461.000000)">
                <path d="M8.9375,0.0338541667 C7.91341146,0.0317384167 7.07763658,0.3046875 6.33072917,0.575520833 C4.83691433,1.1171875 3.66894558,1.62923204 0.795572917,0.0677083333 L0.287760417,1.015625 C3.38541667,2.69775404 5.20931017,2.1328125 6.703125,1.59114583 C8.19694038,1.04947917 9.36279283,0.535318875 12.2044271,2.09895833 L12.7122396,1.15104167 C11.1803385,0.30680325 9.96158854,0.0359699167 8.9375,0.0338541667 Z M8.9375,3.28385417 C7.91341146,3.28173842 7.07763658,3.5546875 6.33072917,3.82552083 C4.83691433,4.3671875 3.66894558,4.87923204 0.795572917,3.31770833 L0.287760417,4.265625 C3.38541667,5.94775404 5.20931017,5.3828125 6.703125,4.84114583 C8.19694038,4.29947917 9.36279283,3.78531888 12.2044271,5.34895833 L12.7122396,4.40104167 C11.1803385,3.55680325 9.96158854,3.28596992 8.9375,3.28385417 Z" id="Shape"></path>
            </g>
        </g>
    </g>
</svg>