<?xml version="1.0" encoding="UTF-8"?>
<svg width="20px" height="20px" viewBox="0 0 20 20" version="1.1" xmlns="http://www.w3.org/2000/svg" xmlns:xlink="http://www.w3.org/1999/xlink">
    <!-- Generator: Sketch 49 (51002) - http://www.bohemiancoding.com/sketch -->
    <title>Group 6 Copy 8</title>
    <desc>Created with Sketch.</desc>
    <defs></defs>
    <g id="App--Wallet" stroke="none" stroke-width="1" fill="none" fill-rule="evenodd">
        <g id="Discover-first-sight-CuongDao-edit" transform="translate(-173.000000, -437.000000)">
            <g id="Group-6-Copy-8" transform="translate(173.000000, 437.000000)">
                <circle id="Oval-2" fill="#5BAF00" cx="10" cy="10" r="10"></circle>
                <g id="Page-1" transform="translate(6.000000, 4.000000)" fill="#FFFFFF">
                    <path d="M5.87890773,4.19334613 L4.08537173,4.19334613 L3.8955904,4.19334613 L2.1020544,4.19334613 L2.1020544,3.24640213 C2.1020544,2.20309547 2.9499264,1.34043947 3.99045973,1.34043947 C5.03099307,1.34043947 5.87890773,2.20309547 5.87890773,3.24640213 L5.87890773,4.19334613 Z M4.6321024,7.28239147 L4.6321024,8.71750613 C4.6321024,8.88181547 4.4945024,9.0209088 4.33004373,9.0209088 L3.6509184,9.0209088 C3.4864384,9.0209088 3.34885973,8.88181547 3.34885973,8.71750613 L3.34885973,7.28239147 C3.18937173,7.1253568 3.0964864,6.9082688 3.0964864,6.66809813 C3.0964864,6.2129728 3.4482944,5.82189013 3.89561173,5.8038208 C3.9430144,5.80187947 4.03796907,5.80187947 4.08539307,5.8038208 C4.53268907,5.82189013 4.8845184,6.2129728 4.8845184,6.66809813 C4.88447573,6.9082688 4.7915904,7.1253568 4.6321024,7.28239147 Z M7.4147584,4.19334613 L7.2124544,4.19334613 L7.2124544,3.24640213 C7.2124544,1.4949568 5.82254507,0.0318741333 4.08537173,0.000642133333 C4.03788373,-0.0002112 3.94303573,-0.0002112 3.8955904,0.000642133333 C2.1583744,0.0318741333 0.7684864,1.4949568 0.7684864,3.24640213 L0.7684864,4.19334613 L0.566139733,4.19334613 C0.254353067,4.19334613 1.70666667e-05,4.51509547 1.70666667e-05,4.91247147 L1.70666667e-05,9.66195413 C1.70666667e-05,10.0588821 0.254353067,10.3836395 0.566161067,10.3836395 L7.4147584,10.3836395 C7.7265664,10.3836395 7.98092373,10.0588821 7.98092373,9.66195413 L7.98092373,4.91247147 C7.98092373,4.5151168 7.72658773,4.19334613 7.4147584,4.19334613 Z" id="Fill-1"></path>
                </g>
            </g>
        </g>
    </g>
</svg>