<?xml version="1.0" encoding="UTF-8"?>
<svg width="32px" height="32px" viewBox="0 0 32 32" version="1.1" xmlns="http://www.w3.org/2000/svg" xmlns:xlink="http://www.w3.org/1999/xlink">
    <!-- Generator: Sketch 50.2 (55047) - http://www.bohemiancoding.com/sketch -->
    <title>OUT</title>
    <desc>Created with Sketch.</desc>
    <defs></defs>
    <g id="App--Wallet" stroke="none" stroke-width="1" fill="none" fill-rule="evenodd">
        <g id="Discover-first-sight-Copy-9" transform="translate(-30.000000, -221.000000)" fill="#1E4EFF">
            <g id="OUT" transform="translate(30.000000, 221.000000)">
                <g id="Group-4" transform="translate(16.000000, 16.000000) scale(-1, 1) translate(-16.000000, -16.000000) ">
                    <circle id="Oval-4-Copy-2" opacity="0.099999994" cx="16" cy="16" r="16"></circle>
                    <g id="icons8-end_call_filled-copy-5" transform="translate(15.571429, 16.000000) rotate(-270.000000) translate(-15.571429, -16.000000) translate(9.571429, 7.428571)" fill-rule="nonzero">
                        <path d="M5.91964286,0.830357143 C5.88281229,0.837054 5.84598257,0.847098 5.8125,0.857142857 C5.41406229,0.947544857 5.13281229,1.305804 5.14285714,1.71428571 L5.14285714,13.3392857 L2.33035714,10.5267857 C2.12276829,10.3125 1.81808057,10.222098 1.52678571,10.2857143 C1.20535714,10.3426337 0.947544857,10.5770091 0.857142857,10.8883929 C0.766740857,11.2031254 0.860490857,11.5379469 1.09821429,11.7589286 L5.27678571,15.9107143 C5.29352657,15.9375 5.31026829,15.9642857 5.33035714,15.9910714 L5.38392857,16.0446429 C5.42410714,16.0848214 5.47098257,16.121652 5.51785714,16.1517857 L6,16.6339286 L6.48214286,16.1517857 C6.55245514,16.0982143 6.61607143,16.034598 6.66964286,15.9642857 L10.9017857,11.7589286 C11.243304,11.4174111 11.243304,10.868304 10.9017857,10.5267857 C10.5602683,10.1852683 10.0111611,10.1852683 9.66964286,10.5267857 L6.85714286,13.3392857 L6.85714286,1.71428571 C6.86718771,1.46651829 6.76674086,1.22879486 6.58928571,1.06138371 C6.40848257,0.890625429 6.16406229,0.806919429 5.91964286,0.830357143 Z" id="Shape"></path>
                    </g>
                </g>
            </g>
        </g>
    </g>
</svg>