<?xml version="1.0" encoding="UTF-8"?>
<svg width="32px" height="32px" viewBox="0 0 32 32" version="1.1" xmlns="http://www.w3.org/2000/svg" xmlns:xlink="http://www.w3.org/1999/xlink">
    <!-- Generator: Sketch 50.2 (55047) - http://www.bohemiancoding.com/sketch -->
    <title>Group 5 Copy 4</title>
    <desc>Created with Sketch.</desc>
    <defs></defs>
    <g id="App--Wallet" stroke="none" stroke-width="1" fill="none" fill-rule="evenodd">
        <g id="Discover-first-sight-Copy-9" transform="translate(-30.000000, -514.000000)" fill="#4CD964">
            <g id="Group-5-Copy-4" transform="translate(30.000000, 514.000000)">
                <circle id="Oval-4-Copy" opacity="0.100837054" transform="translate(16.000000, 16.000000) scale(-1, 1) translate(-16.000000, -16.000000) " cx="16" cy="16" r="16"></circle>
                <g id="icons8-end_call_filled-copy" transform="translate(15.500000, 15.500000) scale(-1, 1) rotate(-90.000000) translate(-15.500000, -15.500000) translate(10.500000, 7.500000)" fill-rule="nonzero">
                    <path d="M4.93135845,0.00391912161 C4.89572063,0.0106975558 4.86008363,0.0208639056 4.82768538,0.0310311231 C4.44215094,0.122534345 4.17000913,0.485157582 4.17972869,0.898615171 L4.17972869,12.6652238 L1.45831057,9.81846366 C1.25744441,9.60156765 0.962623909,9.51006443 0.68076254,9.57445565 C0.369743327,9.63206843 0.120280207,9.86929888 0.032805846,10.1844757 C-0.054668515,10.5030421 0.0360454221,10.8419422 0.266070256,11.0656157 L4.30932003,15.267976 C4.32551874,15.295088 4.34171827,15.3222 4.36115656,15.349312 L4.4129931,15.403536 C4.4518705,15.444204 4.49722788,15.4814832 4.54258444,15.511984 L5.00911325,16 L5.47564207,15.511984 C5.54367732,15.45776 5.60523341,15.3933687 5.65706995,15.3222 L9.75215625,11.0656157 C10.0826146,10.7199381 10.0826146,10.1641421 9.75215625,9.81846366 C9.42169875,9.47278608 8.89037427,9.47278608 8.55991594,9.81846366 L5.83849782,12.6652238 L5.83849782,0.898615171 C5.84821738,0.647829591 5.75102346,0.407210361 5.57931515,0.237759918 C5.40436725,0.0649215588 5.16786244,-0.0198040966 4.93135845,0.00391912161 Z" id="Shape"></path>
                </g>
            </g>
        </g>
    </g>
</svg>