<?xml version="1.0" encoding="UTF-8"?>
<svg width="18px" height="18px" viewBox="0 0 18 18" version="1.1" xmlns="http://www.w3.org/2000/svg" xmlns:xlink="http://www.w3.org/1999/xlink">
    <!-- Generator: Sketch 49.3 (51167) - http://www.bohemiancoding.com/sketch -->
    <title>icons8-info</title>
    <desc>Created with Sketch.</desc>
    <defs></defs>
    <g id="App--Wallet" stroke="none" stroke-width="1" fill="none" fill-rule="evenodd">
        <g id="Discover-first-sight-Copy-14" transform="translate(-366.000000, -247.000000)" fill="#FF2D55" fill-rule="nonzero">
            <g id="icons8-info" transform="translate(366.000000, 247.000000)">
                <path d="M9,0 C4.0283205,0 0,4.0283205 0,9 C0,13.9716795 4.0283205,18 9,18 C13.9716795,18 18,13.9716795 18,9 C18,4.0283205 13.9716795,0 9,0 Z M9,1.5 C13.1425785,1.5 16.5,4.85742225 16.5,9 C16.5,13.1425785 13.1425785,16.5 9,16.5 C4.85742225,16.5 1.5,13.1425785 1.5,9 C1.5,4.85742225 4.85742225,1.5 9,1.5 Z M9,4.359375 C8.8623045,4.359375 8.74804725,4.3564455 8.625,4.3828125 C8.5019535,4.4091795 8.3876955,4.4765625 8.296875,4.546875 C8.2060545,4.6171875 8.13867225,4.713867 8.0859375,4.828125 C8.0332035,4.942383 8.015625,5.07714825 8.015625,5.25 C8.015625,5.41992225 8.0332035,5.5546875 8.0859375,5.671875 C8.13867225,5.7890625 8.2060545,5.8828125 8.296875,5.953125 C8.3876955,6.0234375 8.5019535,6.0644535 8.625,6.09375 C8.74804725,6.12304725 8.8623045,6.140625 9,6.140625 C9.134766,6.140625 9.2783205,6.12304725 9.3984375,6.09375 C9.5185545,6.0644535 9.6123045,6.0234375 9.703125,5.953125 C9.7939455,5.8828125 9.8613285,5.7890625 9.9140625,5.671875 C9.96679725,5.557617 10.0078125,5.41992225 10.0078125,5.25 C10.0078125,5.07714825 9.96679725,4.942383 9.9140625,4.828125 C9.8613285,4.713867 9.7939455,4.6171875 9.703125,4.546875 C9.6123045,4.4765625 9.5185545,4.4091795 9.3984375,4.3828125 C9.2783205,4.3564455 9.134766,4.359375 9,4.359375 Z M8.0859375,6.8671875 L8.0859375,13.59375 L9.9140625,13.59375 L9.9140625,6.8671875 L8.0859375,6.8671875 Z" id="Shape"></path>
            </g>
        </g>
    </g>
</svg>