<?xml version="1.0" encoding="UTF-8"?>
<svg width="15px" height="15px" viewBox="0 0 15 15" version="1.1" xmlns="http://www.w3.org/2000/svg" xmlns:xlink="http://www.w3.org/1999/xlink">
    <!-- Generator: Sketch 50.2 (55047) - http://www.bohemiancoding.com/sketch -->
    <title>icons8-dashboard</title>
    <desc>Created with Sketch.</desc>
    <defs></defs>
    <g id="Page-1" stroke="none" stroke-width="1" fill="none" fill-rule="evenodd">
        <g id="4" transform="translate(-239.000000, -326.000000)" fill="#2456FB" fill-rule="nonzero">
            <g id="Group-4-Copy" transform="translate(0.000000, 244.000000)">
                <g id="Group-2" transform="translate(67.000000, 80.000000)">
                    <g id="icons8-dashboard" transform="translate(172.000000, 2.000000)">
                        <path d="M7.5,0 C3.36425813,0 0,3.36425813 0,7.5 C0,11.6357425 3.36425813,15 7.5,15 C11.6357425,15 15,11.6357425 15,7.5 C15,3.36425813 11.6357425,0 7.5,0 Z M7.5,1.25 C10.9594725,1.25 13.75,4.0405275 13.75,7.5 C13.75,10.9594725 10.9594725,13.75 7.5,13.75 C4.0405275,13.75 1.25,10.9594725 1.25,7.5 C1.25,4.0405275 4.0405275,1.25 7.5,1.25 Z M7.5,1.875 C7.15576187,1.875 6.875,2.15576188 6.875,2.5 C6.875,2.84423812 7.15576187,3.125 7.5,3.125 C7.84423812,3.125 8.125,2.84423812 8.125,2.5 C8.125,2.15576188 7.84423812,1.875 7.5,1.875 Z M3.96484375,3.33984375 C3.62060562,3.33984375 3.33984375,3.62060562 3.33984375,3.96484375 C3.33984375,4.30908187 3.62060562,4.58984375 3.96484375,4.58984375 C4.30908187,4.58984375 4.58984375,4.30908187 4.58984375,3.96484375 C4.58984375,3.62060562 4.30908187,3.33984375 3.96484375,3.33984375 Z M10.5859375,3.53515625 L7.8125,6.2890625 C7.7124025,6.26220687 7.60742188,6.25 7.5,6.25 C6.80908187,6.25 6.25,6.80908187 6.25,7.5 C6.25,8.19091812 6.80908187,8.75 7.5,8.75 C8.19091812,8.75 8.75,8.19091812 8.75,7.5 C8.75,7.39257812 8.73779312,7.2875975 8.7109375,7.1875 L11.484375,4.4140625 L10.5859375,3.53515625 Z M2.5,6.875 C2.15576188,6.875 1.875,7.15576187 1.875,7.5 C1.875,7.84423812 2.15576188,8.125 2.5,8.125 C2.84423812,8.125 3.125,7.84423812 3.125,7.5 C3.125,7.15576187 2.84423812,6.875 2.5,6.875 Z M12.5,6.875 C12.1557619,6.875 11.875,7.15576187 11.875,7.5 C11.875,7.84423812 12.1557619,8.125 12.5,8.125 C12.8442381,8.125 13.125,7.84423812 13.125,7.5 C13.125,7.15576187 12.8442381,6.875 12.5,6.875 Z M3.96484375,10.4101562 C3.62060562,10.4101562 3.33984375,10.6909181 3.33984375,11.0351563 C3.33984375,11.3793944 3.62060562,11.6601563 3.96484375,11.6601563 C4.30908187,11.6601563 4.58984375,11.3793944 4.58984375,11.0351563 C4.58984375,10.6909181 4.30908187,10.4101562 3.96484375,10.4101562 Z M11.0351563,10.4101562 C10.6909181,10.4101562 10.4101562,10.6909181 10.4101562,11.0351563 C10.4101562,11.3793944 10.6909181,11.6601563 11.0351563,11.6601563 C11.3793944,11.6601563 11.6601563,11.3793944 11.6601563,11.0351563 C11.6601563,10.6909181 11.3793944,10.4101562 11.0351563,10.4101562 Z" id="Shape"></path>
                    </g>
                </g>
            </g>
        </g>
    </g>
</svg>