<?xml version="1.0" encoding="UTF-8"?>
<svg width="24px" height="23px" viewBox="0 0 24 23" version="1.1" xmlns="http://www.w3.org/2000/svg" xmlns:xlink="http://www.w3.org/1999/xlink">
    <!-- Generator: Sketch 50.2 (55047) - http://www.bohemiancoding.com/sketch -->
    <title>Shape</title>
    <desc>Created with Sketch.</desc>
    <defs></defs>
    <g id="Page-1" stroke="none" stroke-width="1" fill="none" fill-rule="evenodd">
        <g id="2" transform="translate(-59.000000, -421.000000)" fill="#FFFFFF" fill-rule="nonzero">
            <g id="Group-7" transform="translate(19.000000, 227.000000)">
                <path d="M52.0000001,194 C51.8019783,194.000172 51.6243825,194.12192 51.5528191,194.306558 L48.593176,201.936757 L40.4557971,202.352063 C40.2575148,202.3621 40.0858694,202.493163 40.02396,202.681799 C39.9620505,202.870436 40.0226524,203.077721 40.1764263,203.2033 L46.5128942,208.383848 L44.4316754,216.244669 C44.3808191,216.43621 44.4528952,216.639315 44.6131151,216.755952 C44.773335,216.872589 44.9887612,216.878779 45.1554144,216.771536 L52.0000001,212.378476 L58.8445858,216.771536 C59.0112391,216.878779 59.2266652,216.872589 59.3868851,216.755952 C59.5471049,216.639315 59.6191811,216.43621 59.5683248,216.244669 L57.487106,208.383848 L63.8235737,203.2033 C63.9773476,203.077721 64.0379495,202.870436 63.97604,202.681799 C63.9141306,202.493163 63.7424853,202.3621 63.544203,202.352063 L55.4068242,201.936757 L52.4471811,194.306558 C52.3756177,194.12192 52.1980219,194.000172 52.0000001,194 Z M52.0000001,195.806536 L54.6240236,202.57331 C54.6926107,202.749858 54.8585957,202.869573 55.047767,202.87893 L62.2523474,203.247362 L56.6405561,207.836356 C56.4949437,207.955414 56.4322777,208.148542 56.4802457,208.330412 L58.3242808,215.29687 L52.2596839,211.40349 C52.1015085,211.301752 51.8984917,211.301752 51.7403163,211.40349 L45.6757195,215.29687 L47.5197545,208.330412 C47.5677225,208.148542 47.5050565,207.955414 47.3594441,207.836356 L41.7476529,203.247362 L48.9522332,202.87893 C49.1414045,202.869573 49.3073895,202.749858 49.3759767,202.57331 L52.0000001,195.806536 Z" id="Shape"></path>
            </g>
        </g>
    </g>
</svg>