<?xml version="1.0" encoding="UTF-8"?>
<svg width="20px" height="17px" viewBox="0 0 20 17" version="1.1" xmlns="http://www.w3.org/2000/svg" xmlns:xlink="http://www.w3.org/1999/xlink">
    <!-- Generator: Sketch 50.2 (55047) - http://www.bohemiancoding.com/sketch -->
    <title>icons8-transfer_between_users</title>
    <desc>Created with Sketch.</desc>
    <defs></defs>
    <g id="HS---Exchange" stroke="none" stroke-width="1" fill="none" fill-rule="evenodd">
        <g id="1-copy" transform="translate(-37.000000, -388.000000)" fill="#FFFFFF" fill-rule="nonzero">
            <g id="icons8-transfer_between_users" transform="translate(37.000000, 388.000000)">
                <path d="M5,0 C3.03571429,0 1.42857143,1.61264822 1.42857143,3.58366271 C1.42857143,4.66996047 1.93359357,5.63586939 2.70089286,6.29380764 C1.09375,7.13092903 0,8.81637004 0,10.7509881 L1.42857143,10.7509881 C1.42857143,8.76317559 3.01897357,7.16732543 5,7.16732543 C6.98102714,7.16732543 8.57142857,8.76317559 8.57142857,10.7509881 L10,10.7509881 C10,8.81637004 8.90625,7.13092903 7.29910714,6.29380764 C8.06640643,5.63586939 8.57142857,4.66996047 8.57142857,3.58366271 C8.57142857,1.61264822 6.96428571,0 5,0 Z M10,10.7509881 L11.4285714,10.7509881 C11.4285714,8.76317559 13.0189736,7.16732543 15,7.16732543 C16.9810271,7.16732543 18.5714286,8.76317559 18.5714286,10.7509881 L20,10.7509881 C20,8.81637004 18.90625,7.13092903 17.2991071,6.29380764 C18.0664064,5.63586939 18.5714286,4.66996047 18.5714286,3.58366271 C18.5714286,1.61264822 16.9642857,0 15,0 C13.0357143,0 11.4285714,1.61264822 11.4285714,3.58366271 C11.4285714,4.66996047 11.9335936,5.63586939 12.7008929,6.29380764 C11.09375,7.13092903 10,8.81637004 10,10.7509881 Z M5,1.43346509 C6.19140643,1.43346509 7.14285714,2.38817505 7.14285714,3.58366271 C7.14285714,4.77915038 6.19140643,5.73386034 5,5.73386034 C3.80859357,5.73386034 2.85714286,4.77915038 2.85714286,3.58366271 C2.85714286,2.38817505 3.80859357,1.43346509 5,1.43346509 Z M15,1.43346509 C16.1914064,1.43346509 17.1428571,2.38817505 17.1428571,3.58366271 C17.1428571,4.77915038 16.1914064,5.73386034 15,5.73386034 C13.8085936,5.73386034 12.8571429,4.77915038 12.8571429,3.58366271 C12.8571429,2.38817505 13.8085936,1.43346509 15,1.43346509 Z M3.05803571,11.6693017 L0.915178571,13.8194993 L0.424107143,14.3346509 L0.915178571,14.8498024 L3.05803571,17 L4.08482143,15.969697 L3.16964286,15.0513834 L6.42857143,15.0513834 L6.42857143,13.6179183 L3.16964286,13.6179183 L4.08482143,12.6996047 L3.05803571,11.6693017 Z M16.9419643,11.6693017 L15.9151786,12.6996047 L16.8303571,13.6179183 L13.5714286,13.6179183 L13.5714286,15.0513834 L16.8303571,15.0513834 L15.9151786,15.969697 L16.9419643,17 L19.0848214,14.8498024 L19.5758929,14.3346509 L19.0848214,13.8194993 L16.9419643,11.6693017 Z M7.85714286,13.6179183 L7.85714286,15.0513834 L9.28571429,15.0513834 L9.28571429,13.6179183 L7.85714286,13.6179183 Z M10.7142857,13.6179183 L10.7142857,15.0513834 L12.1428571,15.0513834 L12.1428571,13.6179183 L10.7142857,13.6179183 Z" id="Shape"></path>
            </g>
        </g>
    </g>
</svg>