<?xml version="1.0" encoding="UTF-8"?>
<svg width="29px" height="27px" viewBox="0 0 29 27" version="1.1" xmlns="http://www.w3.org/2000/svg" xmlns:xlink="http://www.w3.org/1999/xlink">
    <!-- Generator: Sketch 50.2 (55047) - http://www.bohemiancoding.com/sketch -->
    <title>chat</title>
    <desc>Created with Sketch.</desc>
    <defs>
        <linearGradient x1="50%" y1="0%" x2="50%" y2="100%" id="linearGradient-1">
            <stop stop-color="#85E694" offset="0%"></stop>
            <stop stop-color="#4DC95B" offset="100%"></stop>
        </linearGradient>
    </defs>
    <g id="ATM" stroke="none" stroke-width="1" fill="none" fill-rule="evenodd">
        <g id="Seller-info" transform="translate(-340.000000, -481.000000)">
            <g id="Group-4" transform="translate(15.000000, -491.000000)">
                <g id="Group-76" transform="translate(19.000000, 807.000000)">
                    <g id="Group" transform="translate(296.000000, 154.000000)">
                        <g id="chat" transform="translate(10.227273, 11.363636)">
                            <path d="M14.0226064,0 C21.7674081,0 28.0452128,5.62862669 28.0452128,12.5731383 C28.0452128,15.1323743 27.1905222,17.5102756 25.7265474,19.4958897 C25.9205754,21.7909816 26.4730416,25.0229691 28.0452128,26.5957447 C28.0452128,26.5957447 23.2380319,25.9205754 19.982471,23.9536992 C19.9800532,23.956117 19.9752176,23.9585348 19.970382,23.9585348 C18.6339458,23.0869197 17.2950919,22.1899178 17.0188588,21.9632495 C16.875,21.7601547 16.5939313,21.698501 16.3769342,21.8284574 C16.232471,21.9161025 16.1430126,22.0744681 16.1405948,22.2394826 C16.1357592,22.541707 16.1430126,22.6196809 18.8394584,24.3786267 C17.3380077,24.8700435 15.7156673,25.1462766 14.0226064,25.1462766 C6.27840909,25.1462766 0,19.5170455 0,12.5731383 C0,5.62862669 6.27840909,0 14.0226064,0 Z" id="Fill-1" fill="url(#linearGradient-1)"></path>
                            <path d="M14.5067698,9.18701644 L7.25338491,9.18701644 C6.98682302,9.18701644 6.76922147,8.97001934 6.76922147,8.702853 C6.76922147,8.4362911 6.98682302,8.2217118 7.25338491,8.2217118 L14.5067698,8.2217118 C14.7733317,8.2217118 14.9909333,8.4362911 14.9909333,8.702853 C14.9909333,8.97001934 14.7733317,9.18701644 14.5067698,9.18701644 Z" id="Fill-2" fill="#FFFFFF"></path>
                            <path d="M20.7918279,13.0573017 L7.25338491,13.0573017 C6.98682302,13.0573017 6.76922147,12.8397002 6.76922147,12.5731383 C6.76922147,12.305972 6.98682302,12.0889749 7.25338491,12.0889749 L20.7918279,12.0889749 C21.0589942,12.0889749 21.2759913,12.305972 21.2759913,12.5731383 C21.2759913,12.8397002 21.0589942,13.0573017 20.7918279,13.0573017 Z" id="Fill-3" fill="#FFFFFF"></path>
                            <path d="M20.7918279,16.9245648 L7.25338491,16.9245648 C6.98682302,16.9245648 6.76922147,16.7075677 6.76922147,16.4404014 C6.76922147,16.1738395 6.98682302,15.9562379 7.25338491,15.9562379 L20.7918279,15.9562379 C21.0589942,15.9562379 21.2759913,16.1738395 21.2759913,16.4404014 C21.2759913,16.7075677 21.0589942,16.9245648 20.7918279,16.9245648 Z" id="Fill-4" fill="#FFFFFF"></path>
                        </g>
                    </g>
                </g>
            </g>
        </g>
    </g>
</svg>