<?xml version="1.0" encoding="UTF-8"?>
<svg width="56px" height="56px" viewBox="0 0 56 56" version="1.1" xmlns="http://www.w3.org/2000/svg" xmlns:xlink="http://www.w3.org/1999/xlink">
    <!-- Generator: Sketch 50.2 (55047) - http://www.bohemiancoding.com/sketch -->
    <title>Group 15</title>
    <desc>Created with Sketch.</desc>
    <defs></defs>
    <g id="Page-1" stroke="none" stroke-width="1" fill="none" fill-rule="evenodd">
        <g id="successful" transform="translate(-263.000000, -476.000000)">
            <g id="Group" transform="translate(96.000000, 477.000000)">
                <g id="Group-15" transform="translate(168.000000, 0.000000)">
                    <g id="Group-14-Copy" fill="#F5A623" stroke="#FFFFFF" stroke-width="2">
                        <circle id="Oval-2-Copy" cx="27" cy="27" r="27"></circle>
                    </g>
                    <g id="icons8-share" transform="translate(15.428571, 13.500000)" fill="#FFFFFF" fill-rule="nonzero">
                        <path d="M20.8928571,0 C18.5859375,0 16.7142857,1.87165179 16.7142857,4.17857143 C16.7142857,4.45061454 16.752372,4.70089286 16.8013393,4.96205357 L6.87723214,10.7511161 C6.14815918,10.1308601 5.21233329,9.75 4.17857143,9.75 C1.87165179,9.75 0,11.6216518 0,13.9285714 C0,16.2354911 1.87165179,18.1071429 4.17857143,18.1071429 C5.21233329,18.1071429 6.14815918,17.7262842 6.87723214,17.1060268 L16.8013393,22.8950893 C16.752372,23.15625 16.7142857,23.4065297 16.7142857,23.6785714 C16.7142857,25.9854911 18.5859375,27.8571429 20.8928571,27.8571429 C23.1997768,27.8571429 25.0714286,25.9854911 25.0714286,23.6785714 C25.0714286,21.3716518 23.1997768,19.5 20.8928571,19.5 C19.8590967,19.5 18.9232708,19.8808601 18.1941964,20.5011161 L8.27008929,14.7120536 C8.31905657,14.4508929 8.35714286,14.2006145 8.35714286,13.9285714 C8.35714286,13.6565297 8.31905657,13.40625 8.27008929,13.1450893 L18.1941964,7.35602679 C18.9232708,7.97628418 19.8590967,8.35714286 20.8928571,8.35714286 C23.1997768,8.35714286 25.0714286,6.48549107 25.0714286,4.17857143 C25.0714286,1.87165179 23.1997768,0 20.8928571,0 Z" id="Shape"></path>
                    </g>
                </g>
            </g>
        </g>
    </g>
</svg>