<?xml version="1.0" encoding="UTF-8"?>
<svg width="18px" height="18px" viewBox="0 0 18 18" version="1.1" xmlns="http://www.w3.org/2000/svg" xmlns:xlink="http://www.w3.org/1999/xlink">
    <!-- Generator: Sketch 50.2 (55047) - http://www.bohemiancoding.com/sketch -->
    <title>icons8-qr_code</title>
    <desc>Created with Sketch.</desc>
    <defs></defs>
    <g id="App--Wallet" stroke="none" stroke-width="1" fill="none" fill-rule="evenodd">
        <g id="Discover-first-sight-Copy-14" transform="translate(-25.000000, -246.000000)" fill="#000000" fill-rule="nonzero">
            <g id="icons8-qr_code" transform="translate(25.000000, 246.000000)">
                <path d="M0,0 L0,6.54545455 L1.63636364,6.54545455 L1.63636364,8.18181818 L3.27272727,8.18181818 L3.27272727,6.54545455 L6.54545455,6.54545455 L6.54545455,0 L0,0 Z M6.54545455,6.54545455 L6.54545455,8.18181818 L8.18181818,8.18181818 L8.18181818,9.81818182 L4.90909091,9.81818182 L4.90909091,11.4545455 L0,11.4545455 L0,18 L6.54545455,18 L6.54545455,11.4545455 L11.4545455,11.4545455 L11.4545455,9.81818182 L9.81818182,9.81818182 L9.81818182,8.18181818 L13.0909091,8.18181818 L13.0909091,6.54545455 L14.7272727,6.54545455 L14.7272727,8.18181818 L16.3636364,8.18181818 L16.3636364,6.54545455 L18,6.54545455 L18,0 L11.4545455,0 L11.4545455,6.54545455 L6.54545455,6.54545455 Z M16.3636364,8.18181818 L16.3636364,9.81818182 L18,9.81818182 L18,8.18181818 L16.3636364,8.18181818 Z M16.3636364,9.81818182 L14.7272727,9.81818182 L14.7272727,11.4545455 L16.3636364,11.4545455 L16.3636364,9.81818182 Z M16.3636364,11.4545455 L16.3636364,13.0909091 L18,13.0909091 L18,11.4545455 L16.3636364,11.4545455 Z M16.3636364,13.0909091 L14.7272727,13.0909091 L14.7272727,11.4545455 L13.0909091,11.4545455 L13.0909091,13.0909091 L9,13.0909091 L9,18 L10.6363636,18 L10.6363636,14.7272727 L13.9090909,14.7272727 L13.9090909,16.3636364 L15.5454545,16.3636364 L15.5454545,14.7272727 L16.3636364,14.7272727 L16.3636364,13.0909091 Z M13.9090909,16.3636364 L12.2727273,16.3636364 L12.2727273,18 L13.9090909,18 L13.9090909,16.3636364 Z M14.7272727,9.81818182 L14.7272727,8.18181818 L13.0909091,8.18181818 L13.0909091,9.81818182 L14.7272727,9.81818182 Z M4.90909091,9.81818182 L4.90909091,8.18181818 L3.27272727,8.18181818 L3.27272727,9.81818182 L4.90909091,9.81818182 Z M1.63636364,8.18181818 L0,8.18181818 L0,9.81818182 L1.63636364,9.81818182 L1.63636364,8.18181818 Z M8.18181818,0 L8.18181818,3.27272727 L7.36363636,3.27272727 L7.36363636,4.90909091 L8.18181818,4.90909091 L8.18181818,5.72727273 L9.81818182,5.72727273 L9.81818182,3.27272727 L10.6363636,3.27272727 L10.6363636,1.63636364 L9.81818182,1.63636364 L9.81818182,0 L8.18181818,0 Z M1.63636364,1.63636364 L4.90909091,1.63636364 L4.90909091,4.90909091 L1.63636364,4.90909091 L1.63636364,1.63636364 Z M13.0909091,1.63636364 L16.3636364,1.63636364 L16.3636364,4.90909091 L13.0909091,4.90909091 L13.0909091,1.63636364 Z M2.45454545,2.45454545 L2.45454545,4.09090909 L4.09090909,4.09090909 L4.09090909,2.45454545 L2.45454545,2.45454545 Z M13.9090909,2.45454545 L13.9090909,4.09090909 L15.5454545,4.09090909 L15.5454545,2.45454545 L13.9090909,2.45454545 Z M1.63636364,13.0909091 L4.90909091,13.0909091 L4.90909091,16.3636364 L1.63636364,16.3636364 L1.63636364,13.0909091 Z M2.45454545,13.9090909 L2.45454545,15.5454545 L4.09090909,15.5454545 L4.09090909,13.9090909 L2.45454545,13.9090909 Z M16.3636364,16.3636364 L16.3636364,18 L18,18 L18,16.3636364 L16.3636364,16.3636364 Z" id="Shape"></path>
            </g>
        </g>
    </g>
</svg>
