<?xml version="1.0" encoding="UTF-8"?>
<svg width="109px" height="95px" viewBox="0 0 109 95" version="1.1" xmlns="http://www.w3.org/2000/svg" xmlns:xlink="http://www.w3.org/1999/xlink">
    <!-- Generator: Sketch 50.2 (55047) - http://www.bohemiancoding.com/sketch -->
    <title>icons8-shop</title>
    <desc>Created with Sketch.</desc>
    <defs></defs>
    <g id="HS---SHop" stroke="none" stroke-width="1" fill="none" fill-rule="evenodd">
        <g id="Discover-first-sight-Copy-14" transform="translate(-27.000000, -147.000000)" fill-rule="nonzero">
            <g id="icons8-shop" transform="translate(0.000000, 129.000000)">
                <g transform="translate(27.000000, 18.000000)">
                    <g id="Group" transform="translate(5.450000, 24.525000)">
                        <rect id="Rectangle-path" fill="#DBF2FF" x="1.3625" y="2.725" width="95.375" height="74.9375"></rect>
                        <path d="M95.375,4.0875 L95.375,76.3 L2.725,76.3 L2.725,4.0875 L95.375,4.0875 Z M98.1,1.3625 L0,1.3625 L0,79.025 L98.1,79.025 L98.1,1.3625 Z" id="Shape" fill="#7496C4"></path>
                    </g>
                    <rect id="Rectangle-path" fill="#B5DDF5" x="8.175" y="89.925" width="92.65" height="10.9"></rect>
                    <g id="Group" transform="translate(57.225000, 54.500000)">
                        <rect id="Rectangle-path" fill="#8BB7F0" x="1.3625" y="1.3625" width="29.975" height="46.325"></rect>
                        <path d="M29.975,2.725 L29.975,46.325 L2.725,46.325 L2.725,2.725 L29.975,2.725 Z M32.7,0 L0,0 L0,49.05 L32.7,49.05 L32.7,0 Z" id="Shape" fill="#4E7AB5"></path>
                    </g>
                    <g id="Group" transform="translate(19.075000, 54.500000)">
                        <rect id="Rectangle-path" fill="#8BB7F0" x="1.3625" y="1.3625" width="24.525" height="21.8"></rect>
                        <path d="M24.525,2.725 L24.525,21.8 L2.725,21.8 L2.725,2.725 L24.525,2.725 Z M27.25,0 L0,0 L0,24.525 L27.25,24.525 L27.25,0 Z" id="Shape" fill="#4E7AB5"></path>
                    </g>
                    <g id="Group">
                        <path d="M98.1,47.6875 C92.84075,47.6875 88.5625,43.40925 88.5625,38.15 C88.5625,37.3979 87.9521,36.7875 87.2,36.7875 C86.4479,36.7875 85.8375,37.3979 85.8375,38.15 C85.8375,43.40925 81.55925,47.6875 76.3,47.6875 C71.04075,47.6875 66.7625,43.40925 66.7625,38.15 C66.7625,37.3979 66.1521,36.7875 65.4,36.7875 C64.6479,36.7875 64.0375,37.3979 64.0375,38.15 C64.0375,43.40925 59.75925,47.6875 54.5,47.6875 C49.24075,47.6875 44.9625,43.40925 44.9625,38.15 C44.9625,37.3979 44.3521,36.7875 43.6,36.7875 C42.8479,36.7875 42.2375,37.3979 42.2375,38.15 C42.2375,43.40925 37.95925,47.6875 32.7,47.6875 C27.44075,47.6875 23.1625,43.40925 23.1625,38.15 C23.1625,37.3979 22.5521,36.7875 21.8,36.7875 C21.0479,36.7875 20.4375,37.3979 20.4375,38.15 C20.4375,43.40925 16.15925,47.6875 10.9,47.6875 C10.58935,47.6875 10.275975,47.673875 9.959875,47.6439 C5.13935,47.18065 1.3625,42.807025 1.3625,37.6813 L1.3625,27.59335 L9.374,12.7094 C9.480275,12.510475 9.5375,12.28975 9.5375,12.063575 L9.5375,5.45 C9.5375,3.196425 11.371425,1.3625 13.625,1.3625 L95.375,1.3625 C97.628575,1.3625 99.4625,3.196425 99.4625,5.45 L99.4625,12.063575 C99.4625,12.28975 99.519725,12.510475 99.626,12.7094 L107.6375,27.59335 L107.6375,37.6813 C107.6375,42.807025 103.86065,47.18065 99.040125,47.6439 C98.724025,47.673875 98.41065,47.6875 98.1,47.6875 Z" id="Shape" fill="#F78F8F"></path>
                        <path d="M95.375,2.725 C96.876475,2.725 98.1,3.948525 98.1,5.45 L98.1,12.063575 C98.1,12.5132 98.211725,12.957375 98.424275,13.355225 L106.275,27.9367 L106.275,37.6813 C106.275,42.11215 103.040425,45.891725 98.91205,46.28685 C98.63955,46.311375 98.36705,46.325 98.1,46.325 C93.59285,46.325 89.925,42.65715 89.925,38.15 C89.925,36.6458 88.7042,35.425 87.2,35.425 C85.6958,35.425 84.475,36.6458 84.475,38.15 C84.475,42.65715 80.80715,46.325 76.3,46.325 C71.79285,46.325 68.125,42.65715 68.125,38.15 C68.125,36.6458 66.9042,35.425 65.4,35.425 C63.8958,35.425 62.675,36.6458 62.675,38.15 C62.675,42.65715 59.00715,46.325 54.5,46.325 C49.99285,46.325 46.325,42.65715 46.325,38.15 C46.325,36.6458 45.1042,35.425 43.6,35.425 C42.0958,35.425 40.875,36.6458 40.875,38.15 C40.875,42.65715 37.20715,46.325 32.7,46.325 C28.19285,46.325 24.525,42.65715 24.525,38.15 C24.525,36.6458 23.3042,35.425 21.8,35.425 C20.2958,35.425 19.075,36.6458 19.075,38.15 C19.075,42.65715 15.40715,46.325 10.9,46.325 C10.63295,46.325 10.36045,46.311375 10.08795,46.28685 C5.959575,45.891725 2.725,42.11215 2.725,37.6813 L2.725,27.9367 L10.575725,13.355225 C10.788275,12.9601 10.9,12.515925 10.9,12.063575 L10.9,5.45 C10.9,3.948525 12.123525,2.725 13.625,2.725 L95.375,2.725 Z M95.375,0 L13.625,0 C10.613875,0 8.175,2.438875 8.175,5.45 L8.175,12.063575 L0,27.25 L0,37.6813 C0,43.373825 4.161075,48.458675 9.829075,48.998225 C10.188775,49.03365 10.548475,49.05 10.9,49.05 C16.919525,49.05 21.8,44.169525 21.8,38.15 C21.8,44.169525 26.680475,49.05 32.7,49.05 C38.719525,49.05 43.6,44.169525 43.6,38.15 C43.6,44.169525 48.480475,49.05 54.5,49.05 C60.519525,49.05 65.4,44.169525 65.4,38.15 C65.4,44.169525 70.280475,49.05 76.3,49.05 C82.319525,49.05 87.2,44.169525 87.2,38.15 C87.2,44.169525 92.080475,49.05 98.1,49.05 C98.45425,49.05 98.811225,49.03365 99.170925,48.998225 C104.838925,48.458675 109,43.373825 109,37.6813 L109,27.25 L100.825,12.063575 L100.825,5.45 C100.825,2.438875 98.386125,0 95.375,0 Z" id="Shape" fill="#C74343"></path>
                    </g>
                    <rect id="Rectangle-path" fill="#C74343" x="8.175" y="10.9" width="92.65" height="2.725"></rect>
                    <polygon id="Shape" fill="#F7A8A8" points="3.0956 27.25 105.9044 27.25 98.571425 13.625 10.428575 13.625"></polygon>
                    <rect id="Rectangle-path" fill="#C74343" x="0" y="27.25" width="109" height="2.725"></rect>
                    <circle id="Oval" fill="#FFFFFF" cx="80.3875" cy="79.025" r="2.725"></circle>
                </g>
            </g>
        </g>
    </g>
</svg>