<?xml version="1.0" encoding="UTF-8"?>
<svg width="15px" height="19px" viewBox="0 0 15 19" version="1.1" xmlns="http://www.w3.org/2000/svg" xmlns:xlink="http://www.w3.org/1999/xlink">
    <!-- Generator: Sketch 50.2 (55047) - http://www.bohemiancoding.com/sketch -->
    <title>icons8-trash copy</title>
    <desc>Created with Sketch.</desc>
    <defs></defs>
    <g id="Page-1" stroke="none" stroke-width="1" fill="none" fill-rule="evenodd" opacity="0.227734375">
        <g id="with-data---drop-down-menu" transform="translate(-276.000000, -454.000000)" fill="#000000" fill-rule="nonzero">
            <g id="icons8-trash-copy" transform="translate(276.000000, 454.000000)">
                <path d="M5.625,0 L4.6875,0.95 L0,0.95 L0,2.85 L15,2.85 L15,0.95 L10.3125,0.95 L9.375,0 L5.625,0 Z M0.9375,4.75 L0.9375,17.1 C0.9375,18.145 1.78125,19 2.8125,19 L12.1875,19 C13.21875,19 14.0625,18.145 14.0625,17.1 L14.0625,4.75 L0.9375,4.75 Z M3.75,6.65 L5.625,6.65 L5.625,17.1 L3.75,17.1 L3.75,6.65 Z M9.375,6.65 L11.25,6.65 L11.25,17.1 L9.375,17.1 L9.375,6.65 Z" id="Shape"></path>
            </g>
        </g>
    </g>
</svg>