<?xml version="1.0" encoding="UTF-8"?>
<svg width="13px" height="14px" viewBox="0 0 13 14" version="1.1" xmlns="http://www.w3.org/2000/svg" xmlns:xlink="http://www.w3.org/1999/xlink">
    <!-- Generator: Sketch 50.2 (55047) - http://www.bohemiancoding.com/sketch -->
    <title>icons8-phone</title>
    <desc>Created with Sketch.</desc>
    <defs></defs>
    <g id="ATM" stroke="none" stroke-width="1" fill="none" fill-rule="evenodd">
        <g id="Seller-info" transform="translate(-37.000000, -445.000000)" fill="#000000" fill-rule="nonzero">
            <g id="Group-4" transform="translate(15.000000, -491.000000)">
                <g id="Group-76" transform="translate(19.000000, 807.000000)">
                    <g id="Group-2">
                        <g id="icons8-phone" transform="translate(3.000000, 129.000000)">
                            <path d="M11.1210939,9.37421888 C10.3167189,8.685625 9.498125,8.26718776 8.70390612,8.95578112 L8.22859388,9.37015612 C7.88125,9.67281276 7.23531276,11.0825 4.73890612,8.20828112 C2.2425,5.34015612 3.72734388,4.89328112 4.07671888,4.59468776 L4.55406276,4.17828112 C5.34421888,3.48968776 5.045625,2.62234388 4.47484388,1.72859388 L4.13156276,1.18828112 C3.55875,0.29859388 2.933125,-0.28640612 2.14093776,0.40015612 L1.71234388,0.77593776 C1.36093776,1.02984388 0.381875,1.860625 0.14421888,3.436875 C-0.14218724,5.32796888 0.76171888,7.49531276 2.8275,9.871875 C4.89125,12.2504689 6.914375,13.4448439 8.82781276,13.4245311 C10.4182811,13.40625 11.3810939,12.553125 11.6817189,12.2423439 L12.1103128,11.8665628 C12.9025,11.18 12.4109378,10.4792189 11.6045311,9.790625 L11.1210939,9.37421888 Z" id="Shape"></path>
                        </g>
                    </g>
                </g>
            </g>
        </g>
    </g>
</svg>