<?xml version="1.0" encoding="UTF-8"?>
<svg width="44px" height="44px" viewBox="0 0 44 44" version="1.1" xmlns="http://www.w3.org/2000/svg" xmlns:xlink="http://www.w3.org/1999/xlink">
    <!-- Generator: Sketch 50.2 (55047) - http://www.bohemiancoding.com/sketch -->
    <title>Group 3</title>
    <desc>Created with Sketch.</desc>
    <defs></defs>
    <g id="Page-1" stroke="none" stroke-width="1" fill="none" fill-rule="evenodd">
        <g id="2" transform="translate(-49.000000, -337.000000)">
            <g id="Group-7" transform="translate(19.000000, 227.000000)">
                <g id="Group-3" transform="translate(30.000000, 110.000000)">
                    <circle id="Oval-6" fill="#0BDD91" cx="22" cy="22" r="22"></circle>
                    <path d="M23.8461676,11.0092307 C23.7222714,11.0185767 23.6002811,11.0354001 23.4801969,11.0690458 L14.879884,13.4616521 C13.9134924,13.7308203 13.3397571,14.7271163 13.6142352,15.6748128 L17.6399135,29.5519288 C17.6475379,29.5986592 17.6627867,29.6435206 17.6856599,29.6865129 L18.2651136,31.7052743 C18.5395916,32.6529708 19.5555416,33.2006532 20.5219332,32.931485 L29.122246,30.5388788 C30.0886377,30.2697106 30.662373,29.2734146 30.3878949,28.3257181 L29.82369,26.3817255 C29.8313144,26.2695721 29.7989109,26.1592878 29.7321973,26.067696 L25.7370165,12.2952565 C25.531158,11.5849516 24.9193007,11.0970843 24.2121384,11.0092307 C24.0939606,10.9942769 23.9700638,10.9998847 23.8461676,11.0092307 Z M23.9224115,11.9513194 C24.3207858,11.9214118 24.692475,12.171888 24.8068409,12.5644247 L28.6952802,26.0228346 L18.4480989,28.8640545 L14.5596596,15.4056446 C14.430045,14.9551618 14.6949927,14.5009404 15.1543621,14.3738332 L23.7546749,11.981227 C23.8118581,11.9644041 23.8652288,11.9550581 23.9224115,11.9513194 Z M28.4360509,15.1364764 C28.2949999,15.1589071 28.1711032,15.243022 28.0967657,15.3645219 C28.0243338,15.4841522 28.007179,15.6318205 28.0548313,15.7645355 L30.4946364,24.1984724 C30.5708803,24.4545559 30.8434524,24.6022247 31.1045877,24.5274557 C31.3657229,24.4526868 31.5163048,24.1853877 31.4400608,23.9293042 L29.0002558,15.4953673 C28.9449791,15.2841452 28.7505569,15.1364764 28.5275436,15.1364764 C28.5122948,15.1364764 28.497046,15.1364764 28.4817972,15.1364764 C28.4665484,15.1364764 28.4512997,15.1364764 28.4360509,15.1364764 Z M31.1960803,16.6468091 C31.0550294,16.6692397 30.9311326,16.7533547 30.8567952,16.8748546 C30.7843632,16.9944849 30.7672085,17.1421532 30.8148608,17.2748682 L32.0347633,21.4918366 C32.1110072,21.7479201 32.3835793,21.8955889 32.6447146,21.82082 C32.9058499,21.746051 33.0564317,21.4787519 32.9801878,21.2226684 L31.7602853,17.0057 C31.7050086,16.7944778 31.5105863,16.6468091 31.287573,16.6468091 C31.2723243,16.6468091 31.2570755,16.6468091 31.2418267,16.6468091 C31.2265779,16.6468091 31.2113291,16.6468091 31.1960803,16.6468091 Z M12.9890351,19.4431676 C12.9737863,19.4469062 12.9585376,19.4525136 12.9432888,19.4581213 C12.8060497,19.4824211 12.6840595,19.5627979 12.611628,19.6805591 C12.5391961,19.7983203 12.5201353,19.9403813 12.5620692,20.0712267 L15.0018743,28.5051636 C15.0781182,28.7612471 15.3506903,28.9089158 15.6118256,28.8341469 C15.8729608,28.759378 16.0235427,28.4920789 15.9472988,28.2359954 L13.5074937,19.8020585 C13.452217,19.5908363 13.2577948,19.4431676 13.0347815,19.4431676 C13.0195327,19.4431676 13.0042839,19.4431676 12.9890351,19.4431676 Z M11.4489082,22.1498033 C11.4336594,22.153542 11.4184106,22.1591493 11.4031618,22.1647571 C11.2659228,22.1890569 11.1439326,22.2694336 11.0715011,22.3871948 C10.9990691,22.504956 10.9800084,22.647017 11.0219423,22.7778625 L12.2418448,26.9948309 C12.3180887,27.2509144 12.5906608,27.3985832 12.8517961,27.3238142 C13.1129314,27.2490453 13.2635132,26.9817462 13.1872693,26.7256627 L11.9673668,22.5086943 C11.9120901,22.2974721 11.7176678,22.1498033 11.4946545,22.1498033 C11.4794058,22.1498033 11.464157,22.1498033 11.4489082,22.1498033 Z M28.9697582,26.9499695 L29.4424705,28.5948863 C29.5720851,29.0453691 29.3071374,29.4995905 28.847768,29.6266977 L20.2474552,32.0193039 C19.7880857,32.1464111 19.3249039,31.8865889 19.1952892,31.4361062 L18.722577,29.7911894 L28.9697582,26.9499695 Z M24.1511432,28.9388234 C24.1073029,28.9425621 24.0577446,28.9406925 24.0139042,28.9537772 C23.6574638,29.0528459 23.4554177,29.4266907 23.5564408,29.7762356 C23.6574638,30.1257805 24.0234346,30.323918 24.379875,30.2248493 C24.7363154,30.1257805 24.9383615,29.7668896 24.8373384,29.4173447 C24.7496582,29.110792 24.4618373,28.9163927 24.1511432,28.9388234 Z" id="Shape" fill="#FFFFFF" fill-rule="nonzero"></path>
                </g>
            </g>
        </g>
    </g>
</svg>