<?xml version="1.0" encoding="UTF-8"?>
<svg width="16px" height="15px" viewBox="0 0 16 15" version="1.1" xmlns="http://www.w3.org/2000/svg" xmlns:xlink="http://www.w3.org/1999/xlink">
    <!-- Generator: Sketch 50.2 (55047) - http://www.bohemiancoding.com/sketch -->
    <title>Shape</title>
    <desc>Created with Sketch.</desc>
    <defs></defs>
    <g id="Page-1" stroke="none" stroke-width="1" fill="none" fill-rule="evenodd">
        <g id="4" transform="translate(-67.000000, -326.000000)" fill="#8A8A8F" fill-rule="nonzero">
            <g id="Group-4-Copy" transform="translate(0.000000, 244.000000)">
                <g id="Group-2" transform="translate(67.000000, 80.000000)">
                    <g id="icons8-list" transform="translate(0.000000, 2.000000)">
                        <path d="M0.666666667,0 C0.296874667,0 0,0.296874667 0,0.666666667 L0,3.33333333 C0,3.70312533 0.296874667,4 0.666666667,4 L3.33333333,4 C3.70312533,4 4,3.70312533 4,3.33333333 L4,0.666666667 C4,0.296874667 3.70312533,0 3.33333333,0 L0.666666667,0 Z M1.33333333,1.33333333 L2.66666667,1.33333333 L2.66666667,2.66666667 L1.33333333,2.66666667 L1.33333333,1.33333333 Z M6.66666667,1.33333333 L6.66666667,2.66666667 L16,2.66666667 L16,1.33333333 L6.66666667,1.33333333 Z M0.666666667,5.33333333 C0.296874667,5.33333333 0,5.630208 0,6 L0,8.66666667 C0,9.03645867 0.296874667,9.33333333 0.666666667,9.33333333 L3.33333333,9.33333333 C3.70312533,9.33333333 4,9.03645867 4,8.66666667 L4,6 C4,5.630208 3.70312533,5.33333333 3.33333333,5.33333333 L0.666666667,5.33333333 Z M1.33333333,6.66666667 L2.66666667,6.66666667 L2.66666667,8 L1.33333333,8 L1.33333333,6.66666667 Z M6.66666667,6.66666667 L6.66666667,8 L16,8 L16,6.66666667 L6.66666667,6.66666667 Z M0.666666667,10.6666667 C0.296874667,10.6666667 0,10.9635413 0,11.3333333 L0,14 C0,14.369792 0.296874667,14.6666667 0.666666667,14.6666667 L3.33333333,14.6666667 C3.70312533,14.6666667 4,14.369792 4,14 L4,11.3333333 C4,10.9635413 3.70312533,10.6666667 3.33333333,10.6666667 L0.666666667,10.6666667 Z M1.33333333,12 L2.66666667,12 L2.66666667,13.3333333 L1.33333333,13.3333333 L1.33333333,12 Z M6.66666667,12 L6.66666667,13.3333333 L16,13.3333333 L16,12 L6.66666667,12 Z" id="Shape"></path>
                    </g>
                </g>
            </g>
        </g>
    </g>
</svg>