<?xml version="1.0" encoding="UTF-8"?>
<svg width="18px" height="18px" viewBox="0 0 18 18" version="1.1" xmlns="http://www.w3.org/2000/svg" xmlns:xlink="http://www.w3.org/1999/xlink">
    <!-- Generator: Sketch 49.3 (51167) - http://www.bohemiancoding.com/sketch -->
    <title>Group 11</title>
    <desc>Created with Sketch.</desc>
    <defs></defs>
    <g id="App--Wallet" stroke="none" stroke-width="1" fill="none" fill-rule="evenodd">
        <g id="Discover-first-sight-Copy-14" transform="translate(-101.000000, -74.000000)">
            <g id="Group-11" transform="translate(102.000000, 75.000000)">
                <circle id="Oval-3" stroke="#155724" cx="8" cy="8" r="8"></circle>
                <path d="M10.7088916,4.0102581 C10.6032949,4.02767796 10.514371,4.08574295 10.4421199,4.19606605 L6.95185681,9.60772263 L5.30676465,7.91222507 C5.165042,7.68867507 4.89271291,7.6712552 4.75099027,7.8193211 L4.10629198,8.49287492 C3.96456934,8.71642493 3.96456934,9.01836285 4.10629198,9.16642874 L6.59616121,11.7677401 C6.73788386,11.8432249 6.93796263,12 7.15193559,12 C7.29365824,12 7.52152538,11.9216121 7.66324802,11.6980621 L11.9315953,5.1483318 C12.0733179,4.92478179 11.9927308,4.71574785 11.7092855,4.56768195 L10.9978943,4.03348409 C10.925644,3.99574204 10.8144891,3.99283897 10.7088916,4.0102581 Z" id="Path" fill="#155724"></path>
            </g>
        </g>
    </g>
</svg>