<?xml version="1.0" encoding="UTF-8"?>
<svg width="32px" height="32px" viewBox="0 0 32 32" version="1.1" xmlns="http://www.w3.org/2000/svg" xmlns:xlink="http://www.w3.org/1999/xlink">
    <!-- Generator: Sketch 49.3 (51167) - http://www.bohemiancoding.com/sketch -->
    <title>Group</title>
    <desc>Created with Sketch.</desc>
    <defs></defs>
    <g id="Page-1" stroke="none" stroke-width="1" fill="none" fill-rule="evenodd">
        <g id="Group" fill-rule="nonzero">
            <circle id="Oval-4-Copy-2" fill="#1E4EFF" opacity="0.099999994" transform="translate(16.000000, 16.000000) scale(-1, 1) translate(-16.000000, -16.000000) " cx="16" cy="16" r="16"></circle>
            <g id="icons8-end_call_filled-copy-5" transform="translate(16.500000, 11.000000) scale(-1, 1) rotate(90.000000) translate(-16.500000, -11.000000) translate(10.500000, 2.500000)" fill="#1E4EFF">
                <path d="M5.91964286,0.830357143 C5.88281229,0.837054 5.84598257,0.847098 5.8125,0.857142857 C5.41406229,0.947544857 5.13281229,1.305804 5.14285714,1.71428571 L5.14285714,13.3392857 L2.33035714,10.5267857 C2.12276829,10.3125 1.81808057,10.222098 1.52678571,10.2857143 C1.20535714,10.3426337 0.947544857,10.5770091 0.857142857,10.8883929 C0.766740857,11.2031254 0.860490857,11.5379469 1.09821429,11.7589286 L5.27678571,15.9107143 C5.29352657,15.9375 5.31026829,15.9642857 5.33035714,15.9910714 L5.38392857,16.0446429 C5.42410714,16.0848214 5.47098257,16.121652 5.51785714,16.1517857 L6,16.6339286 L6.48214286,16.1517857 C6.55245514,16.0982143 6.61607143,16.034598 6.66964286,15.9642857 L10.9017857,11.7589286 C11.243304,11.4174111 11.243304,10.868304 10.9017857,10.5267857 C10.5602683,10.1852683 10.0111611,10.1852683 9.66964286,10.5267857 L6.85714286,13.3392857 L6.85714286,1.71428571 C6.86718771,1.46651829 6.76674086,1.22879486 6.58928571,1.06138371 C6.40848257,0.890625429 6.16406229,0.806919429 5.91964286,0.830357143 Z" id="Shape"></path>
            </g>
            <path d="M15.8327828,15.2674929 C15.7959523,15.2741898 15.7591225,15.2842338 15.72564,15.2942787 C15.3272023,15.3846807 15.0459523,15.7429398 15.0559971,16.1514215 L15.0559971,27.7764215 L12.2434971,24.9639215 C12.0359083,24.7496358 11.7312205,24.6592338 11.4399257,24.7228501 C11.1184971,24.7797695 10.8606848,25.0141449 10.7702828,25.3255287 C10.6798808,25.6402612 10.7736308,25.9750827 11.0113543,26.1960644 L15.1899257,30.3478501 C15.2066665,30.3746358 15.2234083,30.4014215 15.2434971,30.4282072 L15.2970685,30.4817787 C15.3372471,30.5219572 15.3841225,30.5587878 15.4309971,30.5889215 L15.91314,31.0710644 L16.3952828,30.5889215 C16.4655951,30.5353501 16.5292114,30.4717338 16.5827828,30.4014215 L20.8149257,26.1960644 C21.156444,25.8545469 21.156444,25.3054398 20.8149257,24.9639215 C20.4734083,24.6224041 19.9243011,24.6224041 19.5827828,24.9639215 L16.7702828,27.7764215 L16.7702828,16.1514215 C16.7803277,15.9036541 16.6798808,15.6659307 16.5024257,15.4985195 C16.3216225,15.3277612 16.0772023,15.2440552 15.8327828,15.2674929 Z" id="Shape" fill="#4CD964" transform="translate(15.903722, 23.167343) rotate(90.000000) translate(-15.903722, -23.167343) "></path>
        </g>
    </g>
</svg>