<?xml version="1.0" encoding="UTF-8"?>
<svg width="18px" height="20px" viewBox="0 0 18 20" version="1.1" xmlns="http://www.w3.org/2000/svg" xmlns:xlink="http://www.w3.org/1999/xlink">
    <!-- Generator: Sketch 49.3 (51167) - http://www.bohemiancoding.com/sketch -->
    <title>icons8-shield</title>
    <desc>Created with Sketch.</desc>
    <defs></defs>
    <g id="App--Wallet" stroke="none" stroke-width="1" fill="none" fill-rule="evenodd">
        <g id="Discover-first-sight" transform="translate(-168.000000, -251.000000)" fill="#FFFFFF" fill-rule="nonzero" stroke="#FFFFFF">
            <g id="icons8-shield" transform="translate(169.000000, 252.000000)">
                <g id="icons8-security_checked">
                    <path d="M8,0 C7.10795455,0 6.35511382,0.48796884 5.23863636,1.0575 C4.12215927,1.62703116 2.62357964,2.31468768 0.284090909,2.82375 L0,2.89125 L0,3.1725 C0,8.68781268 1.95312509,12.3735938 3.90909091,14.65875 C5.86505673,16.9439062 7.85227273,17.85375 7.85227273,17.85375 L8.01136364,17.9325 L8.17045455,17.85375 C8.17045455,17.85375 16,13.84875 16,3.1725 L16,2.89125 L15.7159091,2.82375 C13.3764204,2.31468768 11.8778411,1.62703116 10.7613636,1.0575 C9.64488655,0.48796884 8.89204545,0 8,0 Z M8,0.72 C8.59801127,0.72 9.29119309,1.11796884 10.4318182,1.69875 C11.5156251,2.25 13.0397727,2.92640616 15.25,3.4425 C15.1164775,13.2046877 8.45596582,16.8665627 7.98863636,17.11125 C7.762784,17.0029688 6.18892036,16.2239062 4.45454545,14.1975 C2.62642036,12.0614062 0.816761455,8.62593768 0.75,3.4425 C2.96022727,2.92640616 4.48437491,2.25 5.56818182,1.69875 C6.70880691,1.11796884 7.40198873,0.72 8,0.72 Z M10.7954545,5.265 L10.6022727,5.56875 L7.64772727,10.11375 L5.69318182,8.37 L5.43181818,8.13375 L4.94318182,8.6625 L5.21590909,8.91 L7.46590909,10.935 L7.78409091,11.21625 L8.02272727,10.85625 L11.2159091,5.95125 L11.4090909,5.6475 L10.7954545,5.265 Z" id="Shape"></path>
                </g>
            </g>
        </g>
    </g>
</svg>