<?xml version="1.0" encoding="UTF-8"?>
<svg width="22px" height="22px" viewBox="0 0 22 22" version="1.1" xmlns="http://www.w3.org/2000/svg" xmlns:xlink="http://www.w3.org/1999/xlink">
    <!-- Generator: Sketch 50.2 (55047) - http://www.bohemiancoding.com/sketch -->
    <title>icons8-ok</title>
    <desc>Created with Sketch.</desc>
    <defs>
        <path d="M7,0 C3.14032438,0 0,3.14032438 0,7 C0,10.8596756 3.14032438,14 7,14 C10.8596756,14 14,10.8596756 14,7 C14,3.14032438 10.8596756,0 7,0 Z M7,1.07692308 C10.2770435,1.07692308 12.9230769,3.722957 12.9230769,7 C12.9230769,10.2770435 10.2770435,12.9230769 7,12.9230769 C3.722957,12.9230769 1.07692308,10.2770435 1.07692308,7 C1.07692308,3.722957 3.722957,1.07692308 7,1.07692308 Z M10.3822115,4.45913462 L6.46153846,8.37980769 L4.15625,6.07451923 L3.38221154,6.84855769 L6.07451923,9.54086538 L6.46153846,9.91105769 L6.84855769,9.54086538 L11.15625,5.23317308 L10.3822115,4.45913462 Z" id="path-1"></path>
        <filter x="-50.0%" y="-35.7%" width="200.0%" height="200.0%" filterUnits="objectBoundingBox" id="filter-2">
            <feOffset dx="0" dy="2" in="SourceAlpha" result="shadowOffsetOuter1"></feOffset>
            <feGaussianBlur stdDeviation="2" in="shadowOffsetOuter1" result="shadowBlurOuter1"></feGaussianBlur>
            <feColorMatrix values="0 0 0 0 0.298039216   0 0 0 0 0.850980392   0 0 0 0 0.392156863  0 0 0 0.5 0" type="matrix" in="shadowBlurOuter1"></feColorMatrix>
        </filter>
    </defs>
    <g id="HS---SHop" stroke="none" stroke-width="1" fill="none" fill-rule="evenodd">
        <g id="Discover-first-sight-Copy-13" transform="translate(-31.000000, -379.000000)" fill-rule="nonzero">
            <g id="Group-13" transform="translate(15.000000, 147.000000)">
                <g id="Group-12" transform="translate(20.000000, 233.000000)">
                    <g id="icons8-ok" transform="translate(0.000000, 1.000000)">
                        <g id="Shape">
                            <use fill="black" fill-opacity="1" filter="url(#filter-2)" xlink:href="#path-1"></use>
                            <use fill="#4CD964" fill-rule="evenodd" xlink:href="#path-1"></use>
                        </g>
                    </g>
                </g>
            </g>
        </g>
    </g>
</svg>