<?xml version="1.0" encoding="UTF-8"?>
<svg width="46px" height="46px" viewBox="0 0 46 46" version="1.1" xmlns="http://www.w3.org/2000/svg" xmlns:xlink="http://www.w3.org/1999/xlink">
    <!-- Generator: Sketch 50.2 (55047) - http://www.bohemiancoding.com/sketch -->
    <title>icons8-shop_filled</title>
    <desc>Created with Sketch.</desc>
    <defs>
        <circle id="path-1" cx="22" cy="22" r="22"></circle>
    </defs>
    <g id="HS---SHop" stroke="none" stroke-width="1" fill="none" fill-rule="evenodd">
        <g id="On" transform="translate(-19.000000, -200.000000)">
            <g id="icons8-shop_filled" transform="translate(20.000000, 201.000000)">
                <mask id="mask-2" fill="white">
                    <use xlink:href="#path-1"></use>
                </mask>
                <use id="Mask" stroke="#000000" xlink:href="#path-1"></use>
                <g mask="url(#mask-2)" fill="#000000" fill-rule="nonzero" id="Shape">
                    <g transform="translate(7.000000, 14.000000)">
                        <path d="M0.704545455,0 L0.704545455,3.57142857 L0.616477273,4.17410714 C0.591708273,4.32198643 0,7.81808071 0,9.64285714 C0,10.7979914 0.2669565,11.71875 0.748579545,12.3883929 C0.734819068,12.3800221 0.718305932,12.3744421 0.704545455,12.3660714 L0.704545455,30 L30.2954545,30 L30.2954545,12.3660714 C30.2816941,12.3744421 30.2679336,12.3800221 30.2514205,12.3883929 C30.7330435,11.71875 31,10.7979914 31,9.64285714 C31,7.81808071 30.4082917,4.32198643 30.3835227,4.17410714 L30.2734375,3.57142857 L30.2954545,3.57142857 L30.2954545,0 L0.704545455,0 Z M1.89346591,5 L4.93181818,5 L4.93181818,11.3616071 C4.46946023,11.8470986 3.81995739,12.1428571 3.17045455,12.1428571 C2.00079918,12.1428571 1.40909091,11.3002236 1.40909091,9.64285714 C1.40909091,8.36495571 1.73109002,6.07979929 1.89346591,5 Z M6.34090909,5 L9.86363636,5 L9.86363636,11.3616071 C9.40127841,11.8470986 8.75177557,12.1428571 8.10227273,12.1428571 C7.45276989,12.1428571 6.80326705,11.8443079 6.34090909,11.3616071 L6.34090909,5 Z M11.2727273,5 L14.7954545,5 L14.7954545,11.3616071 C14.3330966,11.8470986 13.6835938,12.1428571 13.0340909,12.1428571 C12.3845881,12.1428571 11.7350852,11.8443079 11.2727273,11.3616071 L11.2727273,5 Z M16.2045455,5 L19.7272727,5 L19.7272727,11.3616071 C19.2649148,11.8470986 18.6154119,12.1428571 17.9659091,12.1428571 C17.3164062,12.1428571 16.6669034,11.8443079 16.2045455,11.3616071 L16.2045455,5 Z M21.1363636,5 L24.6590909,5 L24.6590909,11.3616071 C24.196733,11.8470986 23.5472301,12.1428571 22.8977273,12.1428571 C22.2482244,12.1428571 21.5987216,11.8443079 21.1363636,11.3616071 L21.1363636,5 Z M26.0681818,5 L29.084517,5 C29.2523968,6.07979929 29.5909091,8.36495571 29.5909091,9.64285714 C29.5909091,11.3002236 28.9992008,12.1428571 27.8295455,12.1428571 C27.1800426,12.1428571 26.5305398,11.8443079 26.0681818,11.3616071 L26.0681818,5 Z M4.93181818,17.1428571 L16.2045455,17.1428571 L16.2045455,25.7142857 L4.93181818,25.7142857 L4.93181818,17.1428571 Z M19.7272727,17.1428571 L26.0681818,17.1428571 L26.0681818,28.5714286 L19.7272727,28.5714286 L19.7272727,17.1428571 Z"></path>
                    </g>
                </g>
            </g>
        </g>
    </g>
</svg>