<?xml version="1.0" encoding="UTF-8"?>
<svg width="56px" height="56px" viewBox="0 0 56 56" version="1.1" xmlns="http://www.w3.org/2000/svg" xmlns:xlink="http://www.w3.org/1999/xlink">
    <!-- Generator: Sketch 50.2 (55047) - http://www.bohemiancoding.com/sketch -->
    <title>Group 14</title>
    <desc>Created with Sketch.</desc>
    <defs></defs>
    <g id="Page-1" stroke="none" stroke-width="1" fill="none" fill-rule="evenodd">
        <g id="successful" transform="translate(-179.000000, -476.000000)">
            <g id="Group" transform="translate(96.000000, 477.000000)">
                <g id="Group-14" transform="translate(84.000000, 0.000000)">
                    <circle id="Oval-2-Copy" stroke="#FFFFFF" stroke-width="2" fill="#03A9F4" cx="27" cy="27" r="27"></circle>
                    <g id="icons8-twitter" transform="translate(13.500000, 17.357143)" fill="#FFFFFF" fill-rule="nonzero">
                        <path d="M27,2.50224324 C26.0345676,2.92986486 24.9961622,3.21518919 23.9008378,3.35018919 C25.0144054,2.68905405 25.8711081,1.63459459 26.2731892,0.388945946 C25.2311351,0.99972973 24.0767027,1.44851351 22.8485676,1.68494595 C21.8678108,0.645081081 20.4689189,0 18.918973,0 C15.9416757,0 13.5284595,2.39205405 13.5284595,5.34162162 C13.5284595,5.75902703 13.5773514,6.16548649 13.6692973,6.56027027 C9.19021622,6.33551351 5.21756757,4.20616216 2.55989189,0.974918919 C2.09286486,1.76448649 1.83016216,2.68905405 1.83016216,3.6647027 C1.83016216,5.51894595 2.77954054,7.15135135 4.22732432,8.11313514 C3.34362162,8.08613514 2.51172973,7.84021622 1.78345946,7.44616216 C1.78345946,7.46221622 1.78345946,7.4862973 1.78345946,7.50891892 C1.78345946,10.1001892 3.64208108,12.258 6.10564865,12.7491081 C5.65540541,12.8724324 5.17962162,12.941027 4.68924324,12.941027 C4.34116216,12.941027 4.00183784,12.9016216 3.67345946,12.8425135 C4.35940541,14.9601892 6.34937838,16.5079459 8.70713514,16.5539189 C6.86237838,17.9841892 4.53891892,18.8408919 2.01259459,18.8408919 C1.57621622,18.8408919 1.14932432,18.8160811 0.727540541,18.765 C3.11448649,20.2762703 5.94875676,21.1621622 8.991,21.1621622 C18.9043784,21.1621622 24.3277297,13.0212973 24.3277297,5.95897297 C24.3277297,5.72764865 24.3204324,5.49705405 24.3094865,5.26937838 C25.3675946,4.52213514 26.2797568,3.57932432 27,2.50224324" id="Shape"></path>
                    </g>
                </g>
            </g>
        </g>
    </g>
</svg>