<?xml version="1.0" encoding="UTF-8"?>
<svg width="34px" height="32px" viewBox="0 0 34 32" version="1.1" xmlns="http://www.w3.org/2000/svg" xmlns:xlink="http://www.w3.org/1999/xlink">
    <!-- Generator: Sketch 50.2 (55047) - http://www.bohemiancoding.com/sketch -->
    <title>icons8-chat</title>
    <desc>Created with Sketch.</desc>
    <defs></defs>
    <g id="HS---Exchange" stroke="none" stroke-width="1" fill="none" fill-rule="evenodd">
        <g id="My-handshake-long" transform="translate(-348.000000, -417.000000)" fill="#FFFFFF" fill-rule="nonzero" stroke="#FFFFFF" stroke-width="0.5">
            <g id="icons8-chat" transform="translate(349.000000, 418.000000)">
                <path d="M12.1828428,0 C5.52786491,0 0,4.7180117 0,10.6462739 C0,13.5144709 1.30995633,16.1145427 3.40638698,18.0258537 C3.09830917,18.918783 2.44458359,19.6296824 1.74326863,20.1905305 C1.35253601,20.5029328 0.971822167,20.7710574 0.661239825,21.0367223 C0.505948974,21.169555 0.363180804,21.2876283 0.240450845,21.4696576 C0.117720887,21.6516876 -0.00500939261,21.9665497 0.0801502818,22.2764917 L0.160300564,22.5126382 L0.380713838,22.6503904 C1.04696338,23.0218294 1.8559798,23.0833258 2.70507201,23.0242891 C3.55416422,22.9652525 4.47088275,22.7561645 5.37006888,22.5126382 C6.60989371,22.1780973 7.67188494,21.7796003 8.55604258,21.4302999 C10.3193488,25.4349519 14.7451473,28.2195133 19.8772699,28.2195133 C20.7664372,28.2195133 21.6130243,28.0817612 22.4020038,27.9636879 C23.2961802,28.3621855 24.8966813,29.0189677 26.6299311,29.4789616 C28.4308079,29.9586345 30.2717599,30.315314 31.5992486,29.577356 L31.8396994,29.4396039 L31.8998121,29.2034573 C31.9849721,28.895975 31.8797746,28.6007918 31.7595492,28.4163021 C31.6393237,28.2318125 31.5115841,28.0989803 31.3587977,27.9636879 C31.0532251,27.6906433 30.664997,27.415139 30.2767689,27.0978172 C29.5779585,26.5271297 28.9217284,25.8088506 28.593613,24.9331404 C30.6825301,23.0218294 32,20.4340567 32,17.5732395 C32,12.9019653 28.5335003,8.91699215 23.7845961,7.49765312 C22.2542265,3.12894185 17.6055102,0 12.1828428,0 Z M12.1828428,1.25944829 C18.2241703,1.25944829 23.0231684,5.485488 23.0231684,10.6462739 C23.0231684,15.8021403 18.1640576,20.0330994 12.1227301,20.0330994 C11.2561055,20.0330994 10.4045088,19.9716031 9.63807138,19.7969529 L9.43769568,19.7379162 L9.23731997,19.8166317 C9.16217941,19.8486098 9.00438338,19.9174858 8.91671885,19.9543839 C8.90169099,19.9593039 8.87163463,19.9494645 8.85660614,19.9543839 C8.70632436,19.9642233 8.56355683,20.02818 8.45585473,20.1314938 C7.54915499,20.4980128 6.35441437,20.9555471 5.02943018,21.3122266 C4.18033797,21.5409934 3.32373216,21.7131839 2.60488416,21.7648408 C2.28678757,21.7869794 2.15403882,21.693505 1.90356919,21.6664464 C2.10895461,21.5090154 2.28177849,21.3835624 2.54477145,21.1744744 C3.39887273,20.4906337 4.45084517,19.5017697 4.78897934,18.0258537 L4.86912962,17.651955 L4.58860363,17.3961296 C2.5372572,15.6766873 1.28240451,13.2832437 1.28240451,10.6462739 C1.28240451,5.4904074 6.14151534,1.25944829 12.1828428,1.25944829 Z M24.1452724,8.93421133 C24.2654978,8.97848913 24.3882278,9.02276629 24.5059487,9.07196349 C24.4232938,9.17773762 24.3656857,9.30319064 24.3656857,9.4458622 C24.3656857,9.7927023 24.6537259,10.0755863 25.0068879,10.0755863 C25.3024424,10.0755863 25.5328745,9.86895811 25.608015,9.60329324 C27.0306825,10.3756896 28.2179089,11.4211299 29.0945523,12.6535196 C29.0169065,12.6215416 28.941766,12.5944829 28.8541014,12.5944829 C28.5009394,12.5944829 28.2128992,12.877367 28.2128992,13.2242071 C28.2128992,13.5710472 28.5009394,13.8539312 28.8541014,13.8539312 C29.1947401,13.8539312 29.4727616,13.5931864 29.4953037,13.2635648 C29.7908582,13.7555368 30.0463369,14.2819472 30.2366938,14.8181963 C30.1840953,14.909211 30.1365059,15.002686 30.1365059,15.1133795 C30.1365059,15.3495261 30.2817787,15.5364754 30.4771446,15.6447093 C30.629931,16.269514 30.7175955,16.9115373 30.7175955,17.5732395 C30.7175955,17.809386 30.6975579,18.0479923 30.6775204,18.2816791 C30.3744523,18.3308763 30.1365059,18.579322 30.1365059,18.8917244 C30.1365059,19.1377104 30.2892923,19.3394192 30.4971822,19.442733 C30.0563557,21.3319055 28.9668126,23.0218294 27.4113964,24.3230952 L27.1108328,24.5789206 L27.2110207,24.9724982 C27.5366315,26.2171876 28.3356291,27.1027372 29.0945523,27.7668991 C29.0169065,27.7349211 28.941766,27.7078625 28.8541014,27.7078625 C28.5009394,27.7078625 28.2128992,27.9907465 28.2128992,28.3375866 C28.2128992,28.4015433 28.2354413,28.4556599 28.2529743,28.5146965 C27.8447087,28.4605799 27.4239197,28.3794041 26.9705698,28.2588711 C25.5979962,27.8948118 24.2604887,27.3757812 23.3638071,26.9994228 C23.5716971,26.896109 23.7244834,26.6944002 23.7244834,26.4484142 C23.7244834,26.1015741 23.4364432,25.81869 23.0832812,25.81869 C22.7301191,25.81869 22.4420789,26.1015741 22.4420789,26.4484142 C22.4420789,26.5345094 22.4696307,26.6083049 22.5021916,26.6845607 L22.4020038,26.7042396 C21.5729491,26.8296926 20.7138388,26.960065 19.8772699,26.960065 C19.7845963,26.960065 19.6894175,26.9625247 19.5967439,26.960065 C19.7620542,26.8469118 19.8772699,26.6624221 19.8772699,26.4484142 C19.8772699,26.1015741 19.5892296,25.81869 19.2360676,25.81869 C18.8829056,25.81869 18.5948654,26.1015741 18.5948654,26.4484142 C18.5948654,26.6230644 18.6599878,26.7878751 18.7752035,26.9010284 C17.8108956,26.8173935 16.8816531,26.6353635 16.0100188,26.3500198 C15.9599249,26.0523769 15.7069507,25.81869 15.3888541,25.81869 C15.2360678,25.81869 15.0983093,25.8703469 14.9881027,25.9564422 C14.4671259,25.7301351 13.9737008,25.4816894 13.5053225,25.1889659 C13.8409521,25.1668273 14.1064496,24.8937827 14.1064496,24.5592417 C14.1064496,24.2124016 13.8184094,23.9295176 13.4652473,23.9295176 C13.1120853,23.9295176 12.8240451,24.2124016 12.8240451,24.5592417 C12.8240451,24.6305775 12.8415781,24.6920745 12.8641202,24.7560305 C12.2128992,24.2812777 11.6268006,23.7327288 11.1208516,23.1423624 C11.2335628,23.2382971 11.38134,23.2997934 11.5416406,23.2997934 C11.8948026,23.2997934 12.1828428,23.0169094 12.1828428,22.6700693 C12.1828428,22.3232292 11.8948026,22.0403451 11.5416406,22.0403451 C11.1884786,22.0403451 10.9004383,22.3232292 10.9004383,22.6700693 C10.9004383,22.8127415 10.9580465,22.9381939 11.0407013,23.043968 C10.5948657,22.5077188 10.2041331,21.9419507 9.8985598,21.3319055 C9.99874765,21.2827083 10.0788979,21.2064525 10.1390106,21.1154378 C10.7952414,21.2162919 11.4614903,21.2925477 12.1227301,21.2925477 C12.4232937,21.2925477 12.7288669,21.2728688 13.0244208,21.25319 C13.1396371,21.3565044 13.2974325,21.410621 13.4652473,21.410621 C13.6731373,21.410621 13.8484657,21.3073072 13.9661866,21.1547956 C14.9430185,21.0244231 15.8822791,20.8079555 16.7714465,20.4857136 C16.718848,20.5767283 16.6712586,20.6702033 16.6712586,20.7808968 C16.6712586,21.1277369 16.9592988,21.410621 17.3124609,21.410621 C17.6656229,21.410621 17.9536631,21.1277369 17.9536631,20.7808968 C17.9536631,20.4906337 17.7432686,20.2643266 17.4727614,20.1905305 C17.986224,19.9691434 18.4846587,19.7231574 18.9555416,19.442733 C19.0432062,19.4870108 19.1308707,19.5214485 19.2360676,19.5214485 C19.5892296,19.5214485 19.8772699,19.2385645 19.8772699,18.8917244 C19.8772699,18.8769656 19.8572323,18.8671261 19.8572323,18.8523666 C20.3882279,18.4686285 20.8891672,18.0479923 21.3400125,17.5929183 C21.5604258,17.526502 21.7132121,17.3444727 21.7608015,17.1206252 C22.1640574,16.6655513 22.5472765,16.1957179 22.8628679,15.684067 C22.9355039,15.7111256 23.0006263,15.7431037 23.0832812,15.7431037 C23.4364432,15.7431037 23.7244834,15.4602196 23.7244834,15.1133795 C23.7244834,14.8919924 23.5992489,14.7148825 23.4239198,14.6017287 C23.9849718,13.3816381 24.3055729,12.0483943 24.3055729,10.6462739 C24.3055729,10.0632872 24.2479648,9.49013999 24.1452724,8.93421133 Z M26.9304947,10.7053105 C26.5773327,10.7053105 26.2892924,10.9881945 26.2892924,11.3350346 C26.2892924,11.6818747 26.5773327,11.9647588 26.9304947,11.9647588 C27.2836567,11.9647588 27.5716969,11.6818747 27.5716969,11.3350346 C27.5716969,10.9881945 27.2836567,10.7053105 26.9304947,10.7053105 Z M25.0068879,12.5944829 C24.6537259,12.5944829 24.3656857,12.877367 24.3656857,13.2242071 C24.3656857,13.5710472 24.6537259,13.8539312 25.0068879,13.8539312 C25.3600499,13.8539312 25.6480902,13.5710472 25.6480902,13.2242071 C25.6480902,12.877367 25.3600499,12.5944829 25.0068879,12.5944829 Z M26.9304947,14.4836554 C26.5773327,14.4836554 26.2892924,14.7665394 26.2892924,15.1133795 C26.2892924,15.4602196 26.5773327,15.7431037 26.9304947,15.7431037 C27.2836567,15.7431037 27.5716969,15.4602196 27.5716969,15.1133795 C27.5716969,14.7665394 27.2836567,14.4836554 26.9304947,14.4836554 Z M25.0068879,16.3728278 C24.6537259,16.3728278 24.3656857,16.6557119 24.3656857,17.002552 C24.3656857,17.3493921 24.6537259,17.6322761 25.0068879,17.6322761 C25.3600499,17.6322761 25.6480902,17.3493921 25.6480902,17.002552 C25.6480902,16.6557119 25.3600499,16.3728278 25.0068879,16.3728278 Z M28.8541014,16.3728278 C28.5009394,16.3728278 28.2128992,16.6557119 28.2128992,17.002552 C28.2128992,17.3493921 28.5009394,17.6322761 28.8541014,17.6322761 C29.2072635,17.6322761 29.4953037,17.3493921 29.4953037,17.002552 C29.4953037,16.6557119 29.2072635,16.3728278 28.8541014,16.3728278 Z M23.0832812,18.2620003 C22.7301191,18.2620003 22.4420789,18.5448843 22.4420789,18.8917244 C22.4420789,19.2385645 22.7301191,19.5214485 23.0832812,19.5214485 C23.4364432,19.5214485 23.7244834,19.2385645 23.7244834,18.8917244 C23.7244834,18.5448843 23.4364432,18.2620003 23.0832812,18.2620003 Z M26.9304947,18.2620003 C26.5773327,18.2620003 26.2892924,18.5448843 26.2892924,18.8917244 C26.2892924,19.2385645 26.5773327,19.5214485 26.9304947,19.5214485 C27.2836567,19.5214485 27.5716969,19.2385645 27.5716969,18.8917244 C27.5716969,18.5448843 27.2836567,18.2620003 26.9304947,18.2620003 Z M21.1596744,20.1511727 C20.8065124,20.1511727 20.5184721,20.4340567 20.5184721,20.7808968 C20.5184721,21.1277369 20.8065124,21.410621 21.1596744,21.410621 C21.5128364,21.410621 21.8008766,21.1277369 21.8008766,20.7808968 C21.8008766,20.4340567 21.5128364,20.1511727 21.1596744,20.1511727 Z M25.0068879,20.1511727 C24.6537259,20.1511727 24.3656857,20.4340567 24.3656857,20.7808968 C24.3656857,21.1277369 24.6537259,21.410621 25.0068879,21.410621 C25.3600499,21.410621 25.6480902,21.1277369 25.6480902,20.7808968 C25.6480902,20.4340567 25.3600499,20.1511727 25.0068879,20.1511727 Z M28.8541014,20.1511727 C28.5009394,20.1511727 28.2128992,20.4340567 28.2128992,20.7808968 C28.2128992,21.1277369 28.5009394,21.410621 28.8541014,21.410621 C29.2072635,21.410621 29.4953037,21.1277369 29.4953037,20.7808968 C29.4953037,20.4340567 29.2072635,20.1511727 28.8541014,20.1511727 Z M15.3888541,22.0403451 C15.0356921,22.0403451 14.7476518,22.3232292 14.7476518,22.6700693 C14.7476518,23.0169094 15.0356921,23.2997934 15.3888541,23.2997934 C15.7420161,23.2997934 16.0300564,23.0169094 16.0300564,22.6700693 C16.0300564,22.3232292 15.7420161,22.0403451 15.3888541,22.0403451 Z M19.2360676,22.0403451 C18.8829056,22.0403451 18.5948654,22.3232292 18.5948654,22.6700693 C18.5948654,23.0169094 18.8829056,23.2997934 19.2360676,23.2997934 C19.5892296,23.2997934 19.8772699,23.0169094 19.8772699,22.6700693 C19.8772699,22.3232292 19.5892296,22.0403451 19.2360676,22.0403451 Z M23.0832812,22.0403451 C22.7301191,22.0403451 22.4420789,22.3232292 22.4420789,22.6700693 C22.4420789,23.0169094 22.7301191,23.2997934 23.0832812,23.2997934 C23.4364432,23.2997934 23.7244834,23.0169094 23.7244834,22.6700693 C23.7244834,22.3232292 23.4364432,22.0403451 23.0832812,22.0403451 Z M26.9304947,22.0403451 C26.5773327,22.0403451 26.2892924,22.3232292 26.2892924,22.6700693 C26.2892924,23.0169094 26.5773327,23.2997934 26.9304947,23.2997934 C27.2836567,23.2997934 27.5716969,23.0169094 27.5716969,22.6700693 C27.5716969,22.3232292 27.2836567,22.0403451 26.9304947,22.0403451 Z M17.3124609,23.9295176 C16.9592988,23.9295176 16.6712586,24.2124016 16.6712586,24.5592417 C16.6712586,24.9060818 16.9592988,25.1889659 17.3124609,25.1889659 C17.6656229,25.1889659 17.9536631,24.9060818 17.9536631,24.5592417 C17.9536631,24.2124016 17.6656229,23.9295176 17.3124609,23.9295176 Z M21.1596744,23.9295176 C20.8065124,23.9295176 20.5184721,24.2124016 20.5184721,24.5592417 C20.5184721,24.9060818 20.8065124,25.1889659 21.1596744,25.1889659 C21.5128364,25.1889659 21.8008766,24.9060818 21.8008766,24.5592417 C21.8008766,24.2124016 21.5128364,23.9295176 21.1596744,23.9295176 Z M25.0068879,23.9295176 C24.6537259,23.9295176 24.3656857,24.2124016 24.3656857,24.5592417 C24.3656857,24.9060818 24.6537259,25.1889659 25.0068879,25.1889659 C25.3600499,25.1889659 25.6480902,24.9060818 25.6480902,24.5592417 C25.6480902,24.2124016 25.3600499,23.9295176 25.0068879,23.9295176 Z M26.9304947,25.81869 C26.5773327,25.81869 26.2892924,26.1015741 26.2892924,26.4484142 C26.2892924,26.7952543 26.5773327,27.0781383 26.9304947,27.0781383 C27.2836567,27.0781383 27.5716969,26.7952543 27.5716969,26.4484142 C27.5716969,26.1015741 27.2836567,25.81869 26.9304947,25.81869 Z M29.3750783,27.9833668 C29.4026301,28.0055054 29.4276767,28.0399437 29.4552286,28.0620823 C29.7207267,28.27855 29.9110836,28.4113827 30.1164684,28.5737332 C29.9010648,28.593412 29.665623,28.5958717 29.4151534,28.593412 C29.4552286,28.5122368 29.4953037,28.4335213 29.4953037,28.3375866 C29.4953037,28.2047545 29.4477143,28.0842209 29.3750783,27.9833668 Z" id="Shape"></path>
            </g>
        </g>
    </g>
</svg>