<?xml version="1.0" encoding="UTF-8"?>
<svg width="20px" height="20px" viewBox="0 0 20 20" version="1.1" xmlns="http://www.w3.org/2000/svg" xmlns:xlink="http://www.w3.org/1999/xlink">
    <!-- Generator: Sketch 49 (51002) - http://www.bohemiancoding.com/sketch -->
    <title>Group 5</title>
    <desc>Created with Sketch.</desc>
    <defs></defs>
    <g id="App--Wallet" stroke="none" stroke-width="1" fill="none" fill-rule="evenodd">
        <g id="Discover-first-sight-CuongDao-edit" transform="translate(-372.000000, -626.000000)">
            <g id="Group-5" transform="translate(372.000000, 626.000000)">
                <circle id="Oval-2-Copy-2" fill="#FDA42B" cx="10" cy="10" r="10"></circle>
                <g id="Page-1" transform="translate(4.000000, 5.000000)" fill="#FFFFFF">
                    <path d="M4.51173237,7.01333174 L4.51173237,8.39542419 C4.51173237,8.55368344 4.37772833,8.68761724 4.21754271,8.68761724 L3.55606272,8.68761724 C3.39585631,8.68761724 3.26185228,8.55368344 3.26185228,8.39542419 L3.26185228,7.01333174 C3.10648739,6.86211948 3.01603622,6.65303154 3.01603622,6.4217343 C3.01603622,5.98342418 3.35870339,5.60679058 3.79439832,5.58938884 C3.84056935,5.58753978 3.93305686,5.58753978 3.97922789,5.58938884 C4.41492281,5.60679058 4.75758998,5.98342418 4.75758998,6.4217343 C4.75754842,6.65303154 4.66709725,6.86211948 4.51173237,7.01333174 Z M12,3.62751241 L12,3.12645742 C12,1.43972157 10.6462455,0.0306944464 8.95414585,0.000616354346 C8.90793326,-0.000205451449 8.81554965,-0.000205451449 8.76931628,0.000616354346 C7.07725821,0.0306944464 5.72348291,1.43972157 5.72348291,3.12645742 L5.72348291,4.03841531 L3.97920711,4.03841531 L3.79437754,4.03841531 L2.04744201,4.03841531 L0.748523389,4.03841531 L0.551434187,4.03841531 C0.247727725,4.03841531 0,4.34827719 0,4.7309716 L0,9.30497829 C0,9.68724126 0.247727725,10 0.551454966,10 L7.2221089,10 C7.52581536,10 7.77356387,9.68724126 7.77356387,9.30497829 L7.77356387,4.7309716 C7.77356387,4.34829773 7.52583614,4.03841531 7.2221089,4.03841531 L7.02504048,4.03841531 L7.02235998,4.03841531 L7.02235998,3.12645742 C7.02235998,2.12169711 7.84824374,1.29091309 8.86174146,1.29091309 C9.87523918,1.29091309 10.7010814,2.12169711 10.7010814,3.12645742 L10.7010814,3.62751241 L12,3.62751241 Z" id="Fill-1"></path>
                </g>
            </g>
        </g>
    </g>
</svg>