<?xml version="1.0" encoding="UTF-8"?>
<svg width="10px" height="11px" viewBox="0 0 10 11" version="1.1" xmlns="http://www.w3.org/2000/svg" xmlns:xlink="http://www.w3.org/1999/xlink">
    <!-- Generator: Sketch 50.2 (55047) - http://www.bohemiancoding.com/sketch -->
    <title>icons8-spinner_frame_2</title>
    <desc>Created with Sketch.</desc>
    <defs></defs>
    <g id="Page-1" stroke="none" stroke-width="1" fill="none" fill-rule="evenodd">
        <g id="1" transform="translate(-314.000000, -382.000000)" fill="#7B7B7B" fill-rule="nonzero">
            <g id="Group-4" transform="translate(15.000000, 373.000000)">
                <g id="icons8-spinner_frame_2" transform="translate(299.000000, 9.000000)">
                    <path d="M4.70270869,0 C4.40197392,0 4.10583082,0.124051182 3.87626241,0.362611147 C3.41712558,0.839731078 3.41712558,1.60312297 3.87626241,2.0802429 C4.33539923,2.55736283 5.07001815,2.55736283 5.52915497,2.0802429 C5.98829179,1.60312297 5.98829179,0.839731078 5.52915497,0.362611147 C5.29958656,0.124051182 5.00344345,0 4.70270869,0 Z M8.52272705,1.22142702 C8.14623486,1.22142702 7.76285546,1.36217755 7.4758951,1.66037736 C6.90197436,2.25677758 6.90197436,3.23964463 7.4758951,3.83604424 C8.04981642,4.43244446 8.99563827,4.43244446 9.56955901,3.83604424 C10.1434803,3.23964463 10.1434803,2.25677758 9.56955901,1.66037736 C9.28259864,1.36217755 8.89921925,1.22142702 8.52272705,1.22142702 Z M1.47038545,1.83214053 C1.24540871,1.83214053 1.01813583,1.92040757 0.845959376,2.09932769 C0.501607052,2.45716795 0.501607052,3.03925426 0.845959376,3.39709391 C1.19031229,3.75493416 1.75045921,3.75493416 2.09481153,3.39709391 C2.43916444,3.03925426 2.43916444,2.45716795 2.09481153,2.09932769 C1.92263508,1.92040757 1.69536279,1.83214053 1.47038545,1.83214053 Z M0.717401065,5.4964216 C0.549816272,5.5298203 0.386822553,5.63001518 0.258264242,5.76360876 C-0.0860880808,6.12144901 -0.0860880808,6.68445053 0.258264242,7.04229018 C0.602617153,7.40013043 1.16276408,7.40013043 1.5071164,7.04229018 C1.85146931,6.68445053 1.85146931,6.12144901 1.5071164,5.76360876 C1.29132239,5.5393627 0.995178696,5.44155266 0.717401065,5.4964216 Z M9.40426975,5.4964216 C9.25275489,5.4964216 9.09664837,5.5489051 8.98186388,5.66818478 C8.75229546,5.90674474 8.75229546,6.30752548 8.98186388,6.54608545 C9.21143229,6.78464541 9.59710722,6.78464541 9.82667563,6.54608545 C10.056244,6.30752548 10.056244,5.90674474 9.82667563,5.66818478 C9.71189172,5.5489051 9.5557852,5.4964216 9.40426975,5.4964216 Z M2.05808059,8.54998916 C1.83310384,8.54998916 1.60583096,8.63825619 1.43365451,8.81717632 C1.08930219,9.17501657 1.08930219,9.75710289 1.43365451,10.1149425 C1.77800742,10.4727828 2.33815434,10.4727828 2.68250667,10.1149425 C3.02685958,9.75710289 3.02685958,9.17501657 2.68250667,8.81717632 C2.51033021,8.63825619 2.28305792,8.54998916 2.05808059,8.54998916 Z M8.22887949,8.54998916 C8.07736463,8.54998916 7.92125811,8.60247265 7.80647361,8.72175233 C7.5769052,8.9603123 7.5769052,9.36109304 7.80647361,9.599653 C8.03604202,9.83821297 8.42171695,9.83821297 8.65128536,9.599653 C8.88085377,9.36109304 8.88085377,8.9603123 8.65128536,8.72175233 C8.53650145,8.60247265 8.38039493,8.54998916 8.22887949,8.54998916 Z M5.29040382,9.77141618 C5.13888896,9.77141618 4.98278244,9.82389968 4.86799794,9.94317935 C4.63842953,10.1817393 4.63842953,10.5825201 4.86799794,10.82108 C5.09756635,11.05964 5.48324129,11.05964 5.7128097,10.82108 C5.94237811,10.5825201 5.94237811,10.1817393 5.7128097,9.94317935 C5.59802579,9.82389968 5.44191927,9.77141618 5.29040382,9.77141618 Z" id="Shape"></path>
                </g>
            </g>
        </g>
    </g>
</svg>