<?xml version="1.0" encoding="UTF-8"?>
<svg width="18px" height="20px" viewBox="0 0 18 20" version="1.1" xmlns="http://www.w3.org/2000/svg" xmlns:xlink="http://www.w3.org/1999/xlink">
    <!-- Generator: Sketch 50.2 (55047) - http://www.bohemiancoding.com/sketch -->
    <title>icons8-geo_fence</title>
    <desc>Created with Sketch.</desc>
    <defs></defs>
    <g id="HS---Exchange" stroke="none" stroke-width="1" fill="none" fill-rule="evenodd">
        <g id="1-copy" transform="translate(-38.000000, -342.000000)" fill="#FFFFFF" fill-rule="nonzero">
            <g id="icons8-geo_fence" transform="translate(38.000000, 342.000000)">
                <path d="M9,0 C6.10839825,0 3.75,2.35839825 3.75,5.25 C3.75,6.0966795 4.08398475,7.01367225 4.5234375,8.015625 C4.962891,9.0175785 5.52246075,10.078125 6.09375,11.0625 C7.2363285,13.03125 8.390625,14.671875 8.390625,14.671875 L9,15.5625 L9.609375,14.671875 C9.609375,14.671875 10.7636722,13.03125 11.90625,11.0625 C12.4775392,10.078125 13.0371097,9.0175785 13.4765625,8.015625 C13.916016,7.01367225 14.25,6.0966795 14.25,5.25 C14.25,2.35839825 11.8916017,0 9,0 Z M9,1.5 C11.0800785,1.5 12.75,3.16992225 12.75,5.25 C12.75,5.645508 12.5214848,6.4863285 12.1171875,7.40625 C11.712891,8.32617225 11.1474608,9.35742225 10.59375,10.3125 C9.791016,11.698242 9.38085975,12.2988285 9,12.8671875 C8.619141,12.2988285 8.20898475,11.698242 7.40625,10.3125 C6.85253925,9.35742225 6.28710975,8.32617225 5.8828125,7.40625 C5.478516,6.4863285 5.25,5.645508 5.25,5.25 C5.25,3.16992225 6.91992225,1.5 9,1.5 Z M9,3.75 C8.17089825,3.75 7.5,4.42089825 7.5,5.25 C7.5,6.07910175 8.17089825,6.75 9,6.75 C9.82910175,6.75 10.5,6.07910175 10.5,5.25 C10.5,4.42089825 9.82910175,3.75 9,3.75 Z M5.1796875,12.328125 C2.276367,12.8554688 0,14.009766 0,15.75 C0,18.2109375 4.526367,19.5 9,19.5 C13.473633,19.5 18,18.2109375 18,15.75 C18,14.009766 15.723633,12.8554688 12.8203125,12.328125 L11.90625,13.7109375 C14.739258,14.1210938 16.5,15.067383 16.5,15.75 C16.5,16.6464847 13.5087892,18 9,18 C4.49121075,18 1.5,16.6464847 1.5,15.75 C1.5,15.067383 3.260742,14.1210938 6.09375,13.7109375 L5.1796875,12.328125 Z" id="Shape"></path>
            </g>
        </g>
    </g>
</svg>