<?xml version="1.0" encoding="UTF-8"?>
<svg width="44px" height="44px" viewBox="0 0 44 44" version="1.1" xmlns="http://www.w3.org/2000/svg" xmlns:xlink="http://www.w3.org/1999/xlink">
    <!-- Generator: Sketch 50.2 (55047) - http://www.bohemiancoding.com/sketch -->
    <title>Group</title>
    <desc>Created with Sketch.</desc>
    <defs></defs>
    <g id="Page-1" stroke="none" stroke-width="1" fill="none" fill-rule="evenodd">
        <g id="2" transform="translate(-49.000000, -410.000000)">
            <g id="Group-7" transform="translate(19.000000, 227.000000)">
                <g id="Group" transform="translate(30.000000, 183.000000)">
                    <circle id="Oval-6" fill="#0BDD91" cx="22" cy="22" r="22"></circle>
                    <path d="M22.0000001,11 C21.8019783,11.0001715 21.6243825,11.1219196 21.5528191,11.3065579 L18.593176,18.9367566 L10.4557971,19.3520632 C10.2575148,19.3621 10.0858694,19.4931626 10.02396,19.6817994 C9.96205052,19.8704362 10.0226524,20.0777208 10.1764263,20.2033003 L16.5128942,25.3838483 L14.4316754,33.2446686 C14.3808191,33.4362102 14.4528952,33.6393155 14.6131151,33.7559522 C14.773335,33.872589 14.9887612,33.8787794 15.1554144,33.7715356 L22.0000001,29.3784759 L28.8445858,33.7715356 C29.0112391,33.8787794 29.2266652,33.8725889 29.3868851,33.7559522 C29.5471049,33.6393154 29.6191811,33.4362101 29.5683248,33.2446686 L27.487106,25.3838483 L33.8235737,20.2033003 C33.9773476,20.0777208 34.0379495,19.8704362 33.97604,19.6817994 C33.9141306,19.4931626 33.7424853,19.3621001 33.544203,19.3520632 L25.4068242,18.9367566 L22.4471811,11.3065579 C22.3756177,11.1219196 22.1980219,11.0001715 22.0000001,11 Z M22.0000001,12.8065356 L24.6240236,19.5733097 C24.6926107,19.7498576 24.8585957,19.8695726 25.047767,19.8789303 L32.2523474,20.2473622 L26.6405561,24.8363564 C26.4949437,24.9554135 26.4322777,25.1485418 26.4802457,25.3304116 L28.3242808,32.2968704 L22.2596839,28.4034905 C22.1015085,28.301752 21.8984917,28.301752 21.7403163,28.4034905 L15.6757195,32.2968704 L17.5197545,25.3304116 C17.5677225,25.1485418 17.5050565,24.9554135 17.3594441,24.8363564 L11.7476529,20.2473622 L18.9522332,19.8789303 C19.1414045,19.8695726 19.3073895,19.7498576 19.3759767,19.5733097 L22.0000001,12.8065356 Z" id="Shape" fill="#FFFFFF" fill-rule="nonzero"></path>
                </g>
            </g>
        </g>
    </g>
</svg>