<?xml version="1.0" encoding="UTF-8"?>
<svg width="26px" height="26px" viewBox="0 0 26 26" version="1.1" xmlns="http://www.w3.org/2000/svg" xmlns:xlink="http://www.w3.org/1999/xlink">
    <!-- Generator: Sketch 50.2 (55047) - http://www.bohemiancoding.com/sketch -->
    <title>icons8-paypal</title>
    <desc>Created with Sketch.</desc>
    <defs></defs>
    <g id="Page-1" stroke="none" stroke-width="1" fill="none" fill-rule="evenodd">
        <g id="Overview-Copy-7" transform="translate(-79.000000, -506.000000)" fill="#FFFFFF" fill-rule="nonzero">
            <g id="icons8-paypal" transform="translate(79.000000, 506.000000)">
                <path d="M4.53125,0 L0,20.75 L6,20.75 L7.46875,13.875 L11.75,13.875 C15.84375,13.875 19.242188,11.351563 20.15625,7.0625 C21.195313,2.207031 17.710938,0 14.71875,0 L4.53125,0 Z M9.59375,4.21875 L12.53125,4.21875 C13.996094,4.21875 14.992188,5.488281 14.5625,7.0625 C14.195313,8.640625 12.652344,9.90625 11.125,9.90625 L8.3125,9.90625 L9.59375,4.21875 Z M22.34375,5.4375 C22.339844,6.0625 22.28125,6.734375 22.125,7.46875 C21.71875,9.378906 20.898438,11.050781 19.75,12.375 C19.265625,13.800781 17.828125,14.90625 16.40625,14.90625 L16.34375,14.90625 C14.964844,15.535156 13.425781,15.875 11.75,15.875 L9.09375,15.875 L7.96875,21.15625 L7.625,22.75 L5.96875,22.75 L5.3125,25.75 L11.28125,25.75 L12.75,18.875 L17.03125,18.875 C21.125,18.875 24.550781,16.351563 25.46875,12.0625 C26.238281,8.457031 24.503906,6.304688 22.34375,5.4375 Z" id="Shape"></path>
            </g>
        </g>
    </g>
</svg>