<?xml version="1.0" encoding="UTF-8"?>
<svg width="38px" height="38px" viewBox="0 0 38 38" version="1.1" xmlns="http://www.w3.org/2000/svg" xmlns:xlink="http://www.w3.org/1999/xlink">
    <!-- Generator: Sketch 50.2 (55047) - http://www.bohemiancoding.com/sketch -->
    <title>icons8-info_filled</title>
    <desc>Created with Sketch.</desc>
    <defs></defs>
    <g id="Page-1" stroke="none" stroke-width="1" fill="none" fill-rule="evenodd">
        <g id="1" transform="translate(-295.000000, -542.000000)" fill="#424242" fill-rule="nonzero">
            <g id="Group-4" transform="translate(15.000000, 373.000000)">
                <g id="icons8-info_filled" transform="translate(280.000000, 169.000000)">
                    <path d="M19,0 C8.50621739,0 0,8.50621739 0,19 C0,29.4937826 8.50621739,38 19,38 C29.4937826,38 38,29.4937826 38,19 C38,8.50621739 29.4937826,0 19,0 Z M19,7.43478261 C20.3688261,7.43478261 21.4782609,8.54421739 21.4782609,9.91304348 C21.4782609,11.2818696 20.3688261,12.3913043 19,12.3913043 C17.6311739,12.3913043 16.5217391,11.2818696 16.5217391,9.91304348 C16.5217391,8.54421739 17.6311739,7.43478261 19,7.43478261 Z M22.3043478,29.7391304 L20.6521739,29.7391304 L17.3478261,29.7391304 L15.6956522,29.7391304 L15.6956522,28.0869565 L17.3478261,28.0869565 L17.3478261,17.3478261 L15.6956522,17.3478261 L15.6956522,15.6956522 L17.3478261,15.6956522 L20.6521739,15.6956522 L20.6521739,17.3478261 L20.6521739,28.0869565 L22.3043478,28.0869565 L22.3043478,29.7391304 Z" id="Shape"></path>
                </g>
            </g>
        </g>
    </g>
</svg>