<?xml version="1.0" encoding="UTF-8"?>
<svg width="20px" height="20px" viewBox="0 0 20 20" version="1.1" xmlns="http://www.w3.org/2000/svg" xmlns:xlink="http://www.w3.org/1999/xlink">
    <!-- Generator: Sketch 49.3 (51167) - http://www.bohemiancoding.com/sketch -->
    <title>icons8-connection_status_off</title>
    <desc>Created with Sketch.</desc>
    <defs></defs>
    <g id="App--Wallet" stroke="none" stroke-width="1" fill="none" fill-rule="evenodd">
        <g id="Discover-first-sight-Copy-14" transform="translate(-379.000000, -107.000000)" fill="#1E4EFF" fill-rule="nonzero">
            <g id="icons8-connection_status_off" transform="translate(379.000000, 107.000000)">
                <path d="M10,0 C4.48199739,0 0,4.48199739 0,10 C0,15.5180026 4.48199739,20 10,20 C15.5180026,20 20,15.5180026 20,10 C20,4.48199739 15.5180026,0 10,0 Z M10,0.869565217 C15.0475543,0.869565217 19.1304348,4.95244565 19.1304348,10 C19.1304348,15.0475543 15.0475543,19.1304348 10,19.1304348 C4.95244565,19.1304348 0.869565217,15.0475543 0.869565217,10 C0.869565217,4.95244565 4.95244565,0.869565217 10,0.869565217 Z M4.7826087,8.26086957 C3.82642652,8.26086957 3.04347826,9.04381783 3.04347826,10 C3.04347826,10.9561822 3.82642652,11.7391304 4.7826087,11.7391304 C5.73879087,11.7391304 6.52173913,10.9561822 6.52173913,10 C6.52173913,9.04381783 5.73879087,8.26086957 4.7826087,8.26086957 Z M10,8.26086957 C9.04381783,8.26086957 8.26086957,9.04381783 8.26086957,10 C8.26086957,10.9561822 9.04381783,11.7391304 10,11.7391304 C10.9561822,11.7391304 11.7391304,10.9561822 11.7391304,10 C11.7391304,9.04381783 10.9561822,8.26086957 10,8.26086957 Z M15.2173913,8.26086957 C14.2612091,8.26086957 13.4782609,9.04381783 13.4782609,10 C13.4782609,10.9561822 14.2612091,11.7391304 15.2173913,11.7391304 C16.1735735,11.7391304 16.9565217,10.9561822 16.9565217,10 C16.9565217,9.04381783 16.1735735,8.26086957 15.2173913,8.26086957 Z M4.7826087,9.13043478 C5.26834261,9.13043478 5.65217391,9.51426652 5.65217391,10 C5.65217391,10.4857339 5.26834261,10.8695652 4.7826087,10.8695652 C4.29687522,10.8695652 3.91304348,10.4857339 3.91304348,10 C3.91304348,9.51426652 4.29687522,9.13043478 4.7826087,9.13043478 Z M10,9.13043478 C10.4857339,9.13043478 10.8695652,9.51426652 10.8695652,10 C10.8695652,10.4857339 10.4857339,10.8695652 10,10.8695652 C9.51426652,10.8695652 9.13043478,10.4857339 9.13043478,10 C9.13043478,9.51426652 9.51426652,9.13043478 10,9.13043478 Z M15.2173913,9.13043478 C15.7031252,9.13043478 16.0869565,9.51426652 16.0869565,10 C16.0869565,10.4857339 15.7031252,10.8695652 15.2173913,10.8695652 C14.7316578,10.8695652 14.3478261,10.4857339 14.3478261,10 C14.3478261,9.51426652 14.7316578,9.13043478 15.2173913,9.13043478 Z" id="Shape"></path>
            </g>
        </g>
    </g>
</svg>