<?xml version="1.0" encoding="UTF-8"?>
<svg width="22px" height="22px" viewBox="0 0 22 22" version="1.1" xmlns="http://www.w3.org/2000/svg" xmlns:xlink="http://www.w3.org/1999/xlink">
    <!-- Generator: Sketch 50.2 (55047) - http://www.bohemiancoding.com/sketch -->
    <title>icons8-phone</title>
    <desc>Created with Sketch.</desc>
    <defs></defs>
    <g id="HS---Exchange" stroke="none" stroke-width="1" fill="none" fill-rule="evenodd">
        <g id="My-handshake-long" transform="translate(-36.000000, -532.000000)" fill="#FFFFFF" fill-rule="nonzero" stroke="#FFFFFF" stroke-width="0.5">
            <g id="Background-Copy-4" transform="translate(15.000000, 391.000000)">
                <g id="icons8-phone" transform="translate(22.000000, 142.000000)">
                    <path d="M4.01702991,0.00463986926 C3.66738374,-0.0237543089 3.27869055,0.0774002916 2.92016978,0.329398396 C2.60424596,0.549453277 1.92270194,1.09071719 1.28552916,1.70296699 C0.967830148,2.00820441 0.664330419,2.32586394 0.430049663,2.6381999 C0.193993713,2.95053586 -0.0118893753,3.23625262 0.000534717755,3.65151725 C0.0129588108,4.02419106 0.0502306356,5.12623999 0.84359058,6.81569359 C1.63695053,8.50337267 3.17574878,10.8192727 6.17702736,13.8219571 C9.18008068,16.8246414 11.4962653,18.3632511 13.1841518,19.1565131 C14.8720382,19.9497755 15.9759973,19.9870428 16.3487169,19.9994653 C16.7622579,20.0118879 17.0480093,19.8060301 17.3603836,19.5700036 C17.672758,19.3339767 17.990457,19.0322888 18.2957319,18.7146288 C18.9062817,18.0775343 19.4476122,17.396074 19.6676941,17.080189 C20.1699779,16.3650105 20.0865597,15.5202837 19.5274809,15.1280893 C19.1760596,14.8814147 15.9440502,12.7305557 15.4577399,12.4324169 C14.9643307,12.1307289 14.3963773,12.2673758 13.8887688,12.535346 C13.4894267,12.7465273 12.4085406,13.3658757 12.0997157,13.5433393 C11.8672102,13.3960444 10.9851073,12.8086397 9.08778827,10.9115538 C7.18869449,9.01446788 6.60299237,8.13247338 6.45567936,7.89999639 C6.63316478,7.59120947 7.25081405,6.5157802 7.46379655,6.10938818 C7.73002491,5.603617 7.87911266,5.03040941 7.56141365,4.53351129 C7.42829947,4.32232993 6.8230743,3.40129366 6.21252445,2.47670835 C5.60019986,1.55212258 5.01982242,0.675452557 4.86895993,0.466045265 L4.86895993,0.464270743 C4.67195099,0.192751527 4.36490133,0.0330340475 4.01702991,0.00463986926 Z M3.93361164,0.932774683 C4.05785167,0.948746295 4.13239532,0.998436106 4.13239532,0.998436106 C4.20516422,1.09959071 4.842337,2.05434472 5.45288685,2.97715551 C6.06343669,3.90174083 6.68641063,4.84939675 6.79467663,5.02153634 C6.8124254,5.048156 6.83727313,5.34984392 6.65978771,5.68525049 L6.65978771,5.68702501 C6.4592293,6.06857189 5.52388101,7.70301166 5.52388101,7.70301166 L5.39431677,7.93193961 L5.52743095,8.15909304 C5.52743095,8.15909304 6.22494854,9.33567691 8.44351607,11.5539719 C10.6638588,13.7722673 11.8405873,14.4714737 11.8405873,14.4714737 L12.0677686,14.6045715 L12.2967247,14.4750232 C12.2967247,14.4750232 13.9278158,13.5415643 14.3129591,13.339256 C14.6484064,13.1635669 14.9501318,13.1866371 14.9856289,13.2079327 C15.299778,13.4013684 18.7909163,15.7208175 19.0056736,15.8716619 C19.012773,15.8769855 19.2026825,16.1644768 18.9258053,16.5584458 L18.9240305,16.5584458 C18.757194,16.7980218 18.2105389,17.4919046 17.6408108,18.0846328 C17.3550594,18.3809972 17.0622081,18.6578404 16.8137285,18.8441771 C16.5652489,19.0305142 16.3433923,19.0890771 16.3788894,19.0908516 C15.9919714,19.0784291 15.1382661,19.069556 13.5710702,18.3330819 C12.0038738,17.5983828 9.76755754,16.1272095 6.81952481,13.177764 C3.87326683,10.231868 2.40191235,7.99582651 1.66534819,6.42704817 C0.930558323,4.86004434 0.921684166,4.00644447 0.909260073,3.62134855 C0.911034813,3.65684127 0.969605343,3.43323689 1.15596492,3.18478783 C1.3423245,2.93633877 1.61742702,2.6417494 1.91382778,2.35603309 C2.5084036,1.78637455 3.20059697,1.23978662 3.4402024,1.07297105 L3.4402024,1.07474557 C3.63721088,0.936324182 3.80937208,0.918577594 3.93361164,0.932774683 Z" id="Shape"></path>
                </g>
            </g>
        </g>
    </g>
</svg>