<?xml version="1.0" encoding="UTF-8"?>
<svg width="22px" height="22px" viewBox="0 0 22 22" version="1.1" xmlns="http://www.w3.org/2000/svg" xmlns:xlink="http://www.w3.org/1999/xlink">
    <!-- Generator: Sketch 50.2 (55047) - http://www.bohemiancoding.com/sketch -->
    <title>Shape</title>
    <desc>Created with Sketch.</desc>
    <defs></defs>
    <g id="Page-1" stroke="none" stroke-width="1" fill="none" fill-rule="evenodd">
        <g id="2" transform="translate(-60.000000, -348.000000)" fill="#FFFFFF" fill-rule="nonzero">
            <g id="Group-7" transform="translate(19.000000, 227.000000)">
                <path d="M53.8461676,121.009231 C53.7222714,121.018577 53.6002811,121.0354 53.4801969,121.069046 L44.879884,123.461652 C43.9134924,123.73082 43.3397571,124.727116 43.6142352,125.674813 L47.6399135,139.551929 C47.6475379,139.598659 47.6627867,139.643521 47.6856599,139.686513 L48.2651136,141.705274 C48.5395916,142.652971 49.5555416,143.200653 50.5219332,142.931485 L59.122246,140.538879 C60.0886377,140.269711 60.662373,139.273415 60.3878949,138.325718 L59.82369,136.381726 C59.8313144,136.269572 59.7989109,136.159288 59.7321973,136.067696 L55.7370165,122.295257 C55.531158,121.584952 54.9193007,121.097084 54.2121384,121.009231 C54.0939606,120.994277 53.9700638,120.999885 53.8461676,121.009231 Z M53.9224115,121.951319 C54.3207858,121.921412 54.692475,122.171888 54.8068409,122.564425 L58.6952802,136.022835 L48.4480989,138.864054 L44.5596596,125.405645 C44.430045,124.955162 44.6949927,124.50094 45.1543621,124.373833 L53.7546749,121.981227 C53.8118581,121.964404 53.8652288,121.955058 53.9224115,121.951319 Z M58.4360509,125.136476 C58.2949999,125.158907 58.1711032,125.243022 58.0967657,125.364522 C58.0243338,125.484152 58.007179,125.631821 58.0548313,125.764536 L60.4946364,134.198472 C60.5708803,134.454556 60.8434524,134.602225 61.1045877,134.527456 C61.3657229,134.452687 61.5163048,134.185388 61.4400608,133.929304 L59.0002558,125.495367 C58.9449791,125.284145 58.7505569,125.136476 58.5275436,125.136476 C58.5122948,125.136476 58.497046,125.136476 58.4817972,125.136476 C58.4665484,125.136476 58.4512997,125.136476 58.4360509,125.136476 Z M61.1960803,126.646809 C61.0550294,126.66924 60.9311326,126.753355 60.8567952,126.874855 C60.7843632,126.994485 60.7672085,127.142153 60.8148608,127.274868 L62.0347633,131.491837 C62.1110072,131.74792 62.3835793,131.895589 62.6447146,131.82082 C62.9058499,131.746051 63.0564317,131.478752 62.9801878,131.222668 L61.7602853,127.0057 C61.7050086,126.794478 61.5105863,126.646809 61.287573,126.646809 C61.2723243,126.646809 61.2570755,126.646809 61.2418267,126.646809 C61.2265779,126.646809 61.2113291,126.646809 61.1960803,126.646809 Z M42.9890351,129.443168 C42.9737863,129.446906 42.9585376,129.452514 42.9432888,129.458121 C42.8060497,129.482421 42.6840595,129.562798 42.611628,129.680559 C42.5391961,129.79832 42.5201353,129.940381 42.5620692,130.071227 L45.0018743,138.505164 C45.0781182,138.761247 45.3506903,138.908916 45.6118256,138.834147 C45.8729608,138.759378 46.0235427,138.492079 45.9472988,138.235995 L43.5074937,129.802058 C43.452217,129.590836 43.2577948,129.443168 43.0347815,129.443168 C43.0195327,129.443168 43.0042839,129.443168 42.9890351,129.443168 Z M41.4489082,132.149803 C41.4336594,132.153542 41.4184106,132.159149 41.4031618,132.164757 C41.2659228,132.189057 41.1439326,132.269434 41.0715011,132.387195 C40.9990691,132.504956 40.9800084,132.647017 41.0219423,132.777862 L42.2418448,136.994831 C42.3180887,137.250914 42.5906608,137.398583 42.8517961,137.323814 C43.1129314,137.249045 43.2635132,136.981746 43.1872693,136.725663 L41.9673668,132.508694 C41.9120901,132.297472 41.7176678,132.149803 41.4946545,132.149803 C41.4794058,132.149803 41.464157,132.149803 41.4489082,132.149803 Z M58.9697582,136.94997 L59.4424705,138.594886 C59.5720851,139.045369 59.3071374,139.499591 58.847768,139.626698 L50.2474552,142.019304 C49.7880857,142.146411 49.3249039,141.886589 49.1952892,141.436106 L48.722577,139.791189 L58.9697582,136.94997 Z M54.1511432,138.938823 C54.1073029,138.942562 54.0577446,138.940693 54.0139042,138.953777 C53.6574638,139.052846 53.4554177,139.426691 53.5564408,139.776236 C53.6574638,140.125781 54.0234346,140.323918 54.379875,140.224849 C54.7363154,140.125781 54.9383615,139.76689 54.8373384,139.417345 C54.7496582,139.110792 54.4618373,138.916393 54.1511432,138.938823 Z" id="Shape"></path>
            </g>
        </g>
    </g>
</svg>