<?xml version="1.0" encoding="UTF-8"?>
<svg width="15px" height="18px" viewBox="0 0 15 18" version="1.1" xmlns="http://www.w3.org/2000/svg" xmlns:xlink="http://www.w3.org/1999/xlink">
    <!-- Generator: Sketch 50.2 (55047) - http://www.bohemiancoding.com/sketch -->
    <title>icons8-lock_filled</title>
    <desc>Created with Sketch.</desc>
    <defs></defs>
    <g id="ATM" stroke="none" stroke-width="1" fill="none" fill-rule="evenodd">
        <g id="Top-up" transform="translate(-127.000000, -368.000000)" fill="#FFFFFF" fill-rule="nonzero">
            <g id="Group" transform="translate(127.000000, 367.000000)">
                <g id="Group-2">
                    <g id="icons8-lock_filled" transform="translate(0.000000, 1.000000)">
                        <path d="M7.25,0 C4.71756775,0 2.67105263,2.04651512 2.67105263,4.57894737 L2.67105263,6.48684211 L1.14473684,6.48684211 C0.496350645,6.48684211 0,6.98319275 0,7.63157895 L0,16.7894737 C0,17.4378599 0.496350645,17.9342105 1.14473684,17.9342105 L13.3552632,17.9342105 C14.0036494,17.9342105 14.5,17.4378599 14.5,16.7894737 L14.5,7.63157895 C14.5,6.98319275 14.0036494,6.48684211 13.3552632,6.48684211 L11.8289474,6.48684211 L11.8289474,4.57894737 C11.8289474,2.04651512 9.78243225,0 7.25,0 Z M7.25,0.763157895 C9.37402334,0.763157895 11.0657895,2.45492403 11.0657895,4.57894737 L11.0657895,6.48684211 L3.43421053,6.48684211 L3.43421053,4.57894737 C3.43421053,2.45492403 5.12597666,0.763157895 7.25,0.763157895 Z M7.55526316,10.3026316 C8.37655234,10.3026316 9.00526316,10.7989822 9.00526316,11.4473684 C9.00526316,11.7901934 8.81268527,12.0912829 8.52192982,12.2820724 L8.52192982,13.3552632 C8.52192982,13.7755964 8.08768527,14.1184211 7.55526316,14.1184211 C7.02284152,14.1184211 6.58859649,13.7755964 6.58859649,13.3552632 L6.58859649,12.2820724 C6.29784152,12.0912829 6.10526316,11.7901934 6.10526316,11.4473684 C6.10526316,10.7989822 6.73397397,10.3026316 7.55526316,10.3026316 Z" id="Shape"></path>
                    </g>
                </g>
            </g>
        </g>
    </g>
</svg>