<?xml version="1.0" encoding="UTF-8"?>
<svg width="9px" height="13px" viewBox="0 0 9 13" version="1.1" xmlns="http://www.w3.org/2000/svg" xmlns:xlink="http://www.w3.org/1999/xlink">
    <!-- Generator: Sketch 50.2 (55047) - http://www.bohemiancoding.com/sketch -->
    <title>icons8-marker</title>
    <desc>Created with Sketch.</desc>
    <defs></defs>
    <g id="HS---SHop" stroke="none" stroke-width="1" fill="none" fill-rule="evenodd">
        <g id="Discover-first-sight-Copy-13" transform="translate(-37.000000, -358.000000)" fill="#FFFFFF" fill-rule="nonzero">
            <g id="Group-13" transform="translate(15.000000, 147.000000)">
                <g id="icons8-marker" transform="translate(22.000000, 211.000000)">
                    <path d="M4.5,0 C1.99386193,0 0,1.99386193 0,4.5 C0,8.35714286 4.5,12.8571429 4.5,12.8571429 C4.5,12.8571429 9,8.291853 9,4.5 C9,1.99386193 7.00613871,0 4.5,0 Z M4.5,6.10714286 C3.60100479,6.10714286 2.89285714,5.39899586 2.89285714,4.5 C2.89285714,3.60100479 3.60100479,2.89285714 4.5,2.89285714 C5.39899586,2.89285714 6.10714286,3.60100479 6.10714286,4.5 C6.10714286,5.39899586 5.39899586,6.10714286 4.5,6.10714286 Z" id="Shape"></path>
                </g>
            </g>
        </g>
    </g>
</svg>