<?xml version="1.0" encoding="UTF-8"?>
<svg width="42px" height="51px" viewBox="0 0 42 51" version="1.1" xmlns="http://www.w3.org/2000/svg" xmlns:xlink="http://www.w3.org/1999/xlink">
    <!-- Generator: Sketch 50.2 (55047) - http://www.bohemiancoding.com/sketch -->
    <title>Group 27</title>
    <desc>Created with Sketch.</desc>
    <defs>
        <polygon id="path-1" points="0 0.142668183 5.511919 0.142668183 5.511919 2.47752765 0 2.47752765"></polygon>
        <polygon id="path-3" points="0.0433555892 0.0742821835 5.55518852 0.0742821835 5.55518852 2.40901946 0.0433555892 2.40901946"></polygon>
    </defs>
    <g id="Page-1" stroke="none" stroke-width="1" fill="none" fill-rule="evenodd">
        <g id="1" transform="translate(-10.000000, -159.000000)">
            <g id="Group-27" transform="translate(10.000000, 159.000000)">
                <path d="M34.7814221,21.4001705 C34.7814221,27.4058262 30.956668,32.5198426 25.6102746,34.4356623 L25.6102746,37.898941 C25.6102746,39.6460721 24.1936352,41.0644328 22.4447828,41.0644328 L19.4290451,41.0644328 C17.6801926,41.0644328 16.2635533,39.6460721 16.2635533,37.898941 L16.2635533,34.4356623 C10.9171598,32.5198426 7.09240574,27.4058262 7.09240574,21.4001705 C7.09240574,21.0696787 7.10445492,20.7409082 7.12683197,20.4173016 C7.18707787,19.5686951 7.32306148,18.7407443 7.52789754,17.9420557 C7.83429098,16.7491869 8.29560246,15.6182852 8.89289754,14.5717279 C11.27175,10.3820557 15.7747008,7.5556623 20.9369139,7.5556623 C26.099127,7.5556623 30.6020779,10.3820557 32.9809303,14.5717279 C33.5782254,15.6182852 34.0395369,16.7491869 34.3459303,17.9420557 C34.5507664,18.7407443 34.68675,19.5686951 34.7469959,20.4173016 C34.769373,20.7409082 34.7814221,21.0696787 34.7814221,21.4001705" id="Fill-1" fill="#FDEE4B"></path>
                <path d="M24.0679451,44.515077 L17.8073631,44.515077 C17.271691,44.515077 16.8374041,44.0807902 16.8374041,43.545118 C16.8374041,43.0094459 17.271691,42.5749869 17.8073631,42.5749869 L24.0679451,42.5749869 C24.6036172,42.5749869 25.0379041,43.0094459 25.0379041,43.545118 C25.0379041,44.0807902 24.6036172,44.515077 24.0679451,44.515077" id="Fill-3" fill="#000000"></path>
                <path d="M24.0679451,47.0925172 L17.8073631,47.0925172 C17.271691,47.0925172 16.8374041,46.6584025 16.8374041,46.1225582 C16.8374041,45.5868861 17.271691,45.1525992 17.8073631,45.1525992 L24.0679451,45.1525992 C24.6036172,45.1525992 25.0379041,45.5868861 25.0379041,46.1225582 C25.0379041,46.6584025 24.6036172,47.0925172 24.0679451,47.0925172" id="Fill-5" fill="#000000"></path>
                <path d="M17.9247738,47.8454189 C17.9247738,51.5722303 23.9505689,51.6651811 23.9505689,47.8454189 L17.9247738,47.8454189 Z" id="Fill-7" fill="#000000"></path>
                <path d="M21.3420934,5.57107623 C20.8852574,5.57107623 20.5148311,5.20082213 20.5148311,4.74381393 L20.5148311,0.827141803 C20.5148311,0.370305738 20.8852574,5.16393443e-05 21.3420934,5.16393443e-05 C21.7989295,5.16393443e-05 22.1693557,0.370305738 22.1693557,0.827141803 L22.1693557,4.74381393 C22.1693557,5.20082213 21.7989295,5.57107623 21.3420934,5.57107623" id="Fill-9" fill="#FBEA66"></path>
                <g id="Group-13" transform="translate(0.000000, 16.249352)">
                    <mask id="mask-2" fill="white">
                        <use xlink:href="#path-1"></use>
                    </mask>
                    <g id="Clip-12"></g>
                    <path d="M5.49921148,1.79384754 C5.41985902,2.24379836 4.99073607,2.54416721 4.54095738,2.46481475 L0.683670492,1.78472459 C0.233891803,1.70537213 -0.0666491803,1.27642131 0.0127032787,0.826470492 C0.0920557377,0.376519672 0.521178689,0.0761508197 0.970957377,0.155331148 L4.82824426,0.835593443 C5.27802295,0.914945902 5.57856393,1.34389672 5.49921148,1.79384754" id="Fill-11" fill="#FBEA66" mask="url(#mask-2)"></path>
                </g>
                <path d="M7.03150574,28.6617811 C7.25992377,29.0573385 7.12445656,29.5634041 6.72872705,29.7918221 L3.33671066,31.7501582 C2.94115328,31.9785762 2.4350877,31.8429369 2.20666967,31.4473795 C1.97825164,31.05165 2.11389098,30.5457566 2.50944836,30.3173385 L5.90146475,28.3590025 C6.29702213,28.1305844 6.8030877,28.2660516 7.03150574,28.6617811" id="Fill-14" fill="#FBEA66"></path>
                <path d="M34.1838516,29.5097508 C34.4122697,29.1141934 34.9181631,28.9785541 35.3138926,29.2069721 L38.705909,31.1653082 C39.1014664,31.3937262 39.2369336,31.8997918 39.0085156,32.2953492 C38.7802697,32.6909066 38.2742041,32.8265459 37.8786467,32.5981279 L34.4866303,30.6396197 C34.0909008,30.4113738 33.9554336,29.9054803 34.1838516,29.5097508" id="Fill-16" fill="#FBEA66"></path>
                <g id="Group-20" transform="translate(36.319672, 17.282139)">
                    <mask id="mask-4" fill="white">
                        <use xlink:href="#path-3"></use>
                    </mask>
                    <g id="Clip-19"></g>
                    <path d="M0.0560631148,1.72533934 C-0.0232893443,1.27538852 0.277251639,0.846437705 0.727030328,0.767085246 L4.58431721,0.086995082 C5.0340959,0.00764262295 5.46321885,0.308011475 5.54257131,0.757962295 C5.62192377,1.20791311 5.32138279,1.63686393 4.8716041,1.71621639 L1.01431721,2.39630656 C0.564538525,2.47565902 0.135415574,2.17529016 0.0560631148,1.72533934" id="Fill-18" fill="#FBEA66" mask="url(#mask-4)"></path>
                </g>
                <path d="M31.3040975,9.55338197 C30.9541549,9.25972623 30.9085402,8.73799672 31.2021959,8.38788197 L33.7197861,5.38763607 C34.0134418,5.03769344 34.5351713,4.99190656 34.8851139,5.28573443 C35.2350566,5.57939016 35.2808434,6.10111967 34.9871877,6.4510623 L32.4695975,9.45148033 C32.1757697,9.80142295 31.6540402,9.8470377 31.3040975,9.55338197" id="Fill-21" fill="#FBEA66"></path>
                <path d="M11.1508795,8.92401885 C10.8009369,9.21767459 10.2792074,9.17205984 9.98537951,8.82211721 L7.46796148,5.82169918 C7.17413361,5.47175656 7.21992049,4.95002705 7.56986311,4.65637131 C7.91980574,4.36254344 8.44153525,4.40833033 8.73519098,4.75827295 L11.2527811,7.75851885 C11.5464369,8.10863361 11.5008221,8.63036311 11.1508795,8.92401885" id="Fill-23" fill="#FBEA66"></path>
                <path d="M26.7558074,15.8416254 C25.8070205,15.8416254 25.0379385,16.6107074 25.0379385,17.5594943 C25.0379385,18.5082811 25.8070205,19.2773631 26.7558074,19.2773631 C27.7045943,19.2773631 28.4736762,18.5082811 28.4736762,17.5594943 C28.4736762,16.6107074 27.7045943,15.8416254 26.7558074,15.8416254 M15.243332,15.8416254 C14.2945451,15.8416254 13.5254631,16.6107074 13.5254631,17.5594943 C13.5254631,18.5082811 14.2945451,19.2773631 15.243332,19.2773631 C16.1921189,19.2773631 16.961373,18.5082811 16.961373,17.5594943 C16.961373,16.6107074 16.1921189,15.8416254 15.243332,15.8416254 M34.7469959,20.4173877 L7.12683197,20.4173877 C7.18707787,19.568609 7.32306148,18.7406582 7.52789754,17.9419697 C7.83429098,16.7491008 8.29560246,15.6181992 8.89289754,14.5716418 L32.9809303,14.5716418 C33.5782254,15.6181992 34.0395369,16.7491008 34.3459303,17.9419697 C34.5507664,18.7406582 34.68675,19.568609 34.7469959,20.4173877" id="Fill-25" fill="#000000"></path>
            </g>
        </g>
    </g>
</svg>