<?xml version="1.0" encoding="UTF-8"?>
<svg width="44px" height="44px" viewBox="0 0 44 44" version="1.1" xmlns="http://www.w3.org/2000/svg" xmlns:xlink="http://www.w3.org/1999/xlink">
    <!-- Generator: Sketch 50.2 (55047) - http://www.bohemiancoding.com/sketch -->
    <title>Fill 7</title>
    <desc>Created with Sketch.</desc>
    <defs></defs>
    <g id="Page-1" stroke="none" stroke-width="1" fill="none" fill-rule="evenodd">
        <g id="2" transform="translate(-49.000000, -251.000000)" fill="#FEFEFE">
            <g id="Group-7" transform="translate(19.000000, 227.000000)">
                <g id="Group-6" transform="translate(30.000000, 24.000000)">
                    <g id="Group-Copy-2">
                        <path d="M36.4757215,36.4755823 C34.594443,38.3568608 32.4041899,39.8336456 29.9653924,40.865 C29.7282658,40.9656709 29.4886329,41.0596582 29.248443,41.1508608 L29.248443,33.700519 L29.2459367,31.7508734 C29.2279747,31.0115063 29.0100633,30.3218481 28.643443,29.7342532 C31.8133924,27.5956582 33.8976835,23.9712278 33.8976835,19.8600127 C33.8976835,13.2861899 28.5682532,7.95689873 21.9942911,7.95689873 C15.4204684,7.95689873 10.091038,13.2861899 10.091038,19.8600127 C10.091038,23.9712278 12.1753291,27.5956582 15.345,29.7339747 C14.9658481,30.3421772 14.7451519,31.0588481 14.740557,31.827038 L12.4440633,30.1340127 C12.4883418,30.0602152 12.5316456,29.9864177 12.5731392,29.9138734 C12.7141899,29.6654684 12.8333797,29.4245823 12.9259747,29.2114051 C13.0188481,28.9986456 13.0849873,28.8133165 13.1259241,28.6799241 C13.1681139,28.5473671 13.1852405,28.4664684 13.1852405,28.4664684 C13.1852405,28.4664684 13.1149241,28.5099114 13.0049241,28.5948481 C12.8933924,28.6789494 12.741481,28.8042658 12.5731392,28.9642532 C12.4043797,29.123962 12.2187722,29.3180633 12.0333038,29.535557 C11.9826203,29.5951519 11.931519,29.6564177 11.8806962,29.7189367 L8.97586076,27.5320253 L7.75541772,29.1603038 L10.7159494,31.3903797 C10.7112152,31.3984557 10.7056456,31.4066709 10.7013291,31.4147468 C10.5602785,31.6632911 10.4412278,31.904038 10.3486329,32.1170759 C10.255481,32.3298354 10.1892025,32.5153038 10.1479873,32.6484177 C10.1056582,32.7808354 10.0885316,32.8614557 10.0885316,32.8614557 C10.0885316,32.8614557 10.1585696,32.8178734 10.2685696,32.7327975 C10.3796835,32.6486962 10.5311772,32.5232405 10.6996582,32.3632532 C10.8682785,32.2034051 11.0537468,32.0093038 11.2396329,31.7919494 C11.2422785,31.7888861 11.2447848,31.7854051 11.2474304,31.7822025 L14.7277468,34.2790633 L14.7398608,41.1508608 C14.4998101,41.0596582 14.2605949,40.9656709 14.0230506,40.865 C11.5846709,39.8336456 9.39427848,38.3568608 7.513,36.4755823 C5.63158228,34.5941646 4.15451899,32.4036329 3.1233038,29.9651139 C2.05574684,27.441519 1.51465823,24.7593291 1.51465823,21.9940127 C1.51465823,19.2288354 2.05574684,16.5467848 3.1233038,14.0227722 C4.15451899,11.5842532 5.63158228,9.394 7.513,7.51258228 C9.39427848,5.63144304 11.5846709,4.15451899 14.0230506,3.12302532 C16.5469241,2.05546835 19.2286962,1.51437975 21.9942911,1.51437975 C24.7597468,1.51437975 27.441519,2.05546835 29.9653924,3.12302532 C32.4041899,4.15451899 34.594443,5.63144304 36.4757215,7.51258228 C38.3568608,9.394 39.8337848,11.5842532 40.8652785,14.0227722 C41.9328354,16.5467848 42.4740633,19.2288354 42.4740633,21.9940127 C42.4740633,24.7593291 41.9328354,27.441519 40.8652785,29.9651139 C39.8337848,32.4036329 38.3568608,34.5941646 36.4757215,36.4755823 M15.6914304,20.3348228 C14.3836835,20.790557 13.1571139,20.5673544 12.9330759,19.2456835 C12.9330759,19.2456835 12.8655443,18.6533544 12.9233291,18.3654051 C12.9586962,18.1232658 13.0253924,17.8910127 13.118962,17.6732405 C14.1290127,14.9299241 17.7196076,12.9011899 21.9942911,12.9011899 C26.2688354,12.9011899 29.8594304,14.9297848 30.8697595,17.6725443 C30.9633291,17.8910127 31.0300253,18.1232658 31.0653924,18.365962 C31.1228987,18.6536329 31.0553671,19.2456835 31.0553671,19.2456835 C30.8316076,20.5673544 29.5583924,20.9072405 28.2974304,20.3348228 C25.6326456,19.1245443 19.3051392,19.074 15.6914304,20.3348228 M21.9942911,0 C9.84722785,0 0,9.84694937 0,21.9940127 C0,31.5992405 6.15763291,39.7645823 14.7398608,42.7622911 C17.0114304,43.5554051 19.4523165,43.9883038 21.9942911,43.9883038 C24.5364051,43.9883038 26.9772911,43.5554051 29.248443,42.7622911 C37.8309494,39.7645823 43.988443,31.5992405 43.988443,21.9940127 C43.988443,9.84694937 34.1416329,0 21.9942911,0" id="Fill-7"></path>
                    </g>
                </g>
            </g>
        </g>
    </g>
</svg>