<?xml version="1.0" encoding="UTF-8"?>
<svg width="170px" height="45px" viewBox="0 0 170 45" version="1.1" xmlns="http://www.w3.org/2000/svg" xmlns:xlink="http://www.w3.org/1999/xlink">
    <!-- Generator: Sketch 49.3 (51167) - http://www.bohemiancoding.com/sketch -->
    <title>Logo</title>
    <desc>Created with Sketch.</desc>
    <defs></defs>
    <g id="Page-1" stroke="none" stroke-width="1" fill="none" fill-rule="evenodd">
        <g id="8-Dashboard-Vertify" transform="translate(-35.000000, -25.000000)" fill="#000000">
            <g id="Header">
                <g id="Logo" transform="translate(35.000000, 19.000000)">
                    <path d="M21.396,25.944 L22.196,26.712 C21.908,27.288 19.316,31.576 12.66,31.576 C5.524,31.576 1.364,26.136 1.364,19.384 C1.364,12.664 5.524,7.192 12.66,7.192 C19.412,7.192 21.972,11.64 22.228,12.088 L21.46,12.888 C14.132,4.088 5.396,9.912 5.396,19.384 C5.396,28.088 14.1,34.712 21.396,25.944 Z M34.22,14.84 C38.828,14.84 40.46,16.728 40.46,19.704 L40.428,31 L37.228,31 L37.228,28.632 C35.532,31.256 27.148,34.072 27.148,26.936 C27.148,21.368 32.94,21.944 37.228,20.344 L37.228,18.776 C37.228,16.792 36.396,15.832 34.284,15.832 C33.196,15.832 30.86,15.736 29.26,18.072 L28.364,17.816 C29.772,15.256 32.268,14.84 34.22,14.84 Z M30.636,26.648 C30.636,30.904 34.348,31.128 37.228,27.768 L37.228,21.272 C33.996,22.296 30.636,22.296 30.636,26.648 Z M56.036,14.968 C60.964,14.968 62.98,18.52 62.98,23.192 C62.98,27.864 60.964,31.448 56.036,31.448 C53.38,31.448 51.716,30.232 50.788,29.016 L50.788,37.944 L47.588,37.944 L47.588,18.232 C47.588,16.792 46.532,15.352 44.74,15.128 L44.74,14.968 L50.788,14.968 L50.788,17.336 C51.684,16.152 53.316,14.968 56.036,14.968 Z M50.788,27.448 C54.5,32.792 59.46,30.712 59.46,23.192 C59.492,15.576 54.5,13.656 50.788,18.968 L50.788,27.448 Z M72.444,10.328 C72.444,11.416 71.548,12.312 70.46,12.312 C69.34,12.312 68.444,11.416 68.444,10.328 C68.444,9.208 69.34,8.312 70.46,8.312 C71.548,8.312 72.444,9.208 72.444,10.328 Z M72.028,14.872 L72.028,31 L68.828,31 L68.828,18.136 C68.828,16.664 67.772,15.256 65.98,15.032 L65.98,14.872 L72.028,14.872 Z M87.796,28.76 L88.468,29.208 C87.7,30.2 86.58,31.48 83.924,31.48 C81.012,31.48 80.852,29.944 80.852,28.44 L80.852,16.184 L78.228,16.184 L78.228,14.968 L80.852,14.968 L80.852,14.168 C80.852,12.696 79.796,11.32 78.004,11.128 L78.004,10.968 L84.052,10.968 L84.052,14.968 L87.476,14.968 L87.476,16.184 L84.052,16.184 L84.052,27.8 C84.052,28.728 83.828,30.04 84.948,30.328 C85.62,30.52 87.028,30.232 87.796,28.76 Z M99.82,14.84 C104.428,14.84 106.06,16.728 106.06,19.704 L106.028,31 L102.828,31 L102.828,28.632 C101.132,31.256 92.748,34.072 92.748,26.936 C92.748,21.368 98.54,21.944 102.828,20.344 L102.828,18.776 C102.828,16.792 101.996,15.832 99.884,15.832 C98.796,15.832 96.46,15.736 94.86,18.072 L93.964,17.816 C95.372,15.256 97.868,14.84 99.82,14.84 Z M96.236,26.648 C96.236,30.904 99.948,31.128 102.828,27.768 L102.828,21.272 C99.596,22.296 96.236,22.296 96.236,26.648 Z M111.62,7.576 L117.636,7.576 L117.636,31 L114.436,31 L114.436,10.552 C114.436,9.208 113.316,7.928 111.62,7.736 L111.62,7.576 Z" id="Capital" stroke="#000000" stroke-width="1.5"></path>
                    <path d="M52.025,46.85 C52.025,46.9900007 52.0433331,47.0899997 52.08,47.15 C52.1166669,47.2100003 52.1883328,47.24 52.295,47.24 L52.415,47.24 C52.4616669,47.24 52.5149997,47.2333334 52.575,47.22 L52.575,48.01 C52.5349998,48.0233334 52.4833336,48.0383333 52.42,48.055 C52.3566663,48.0716667 52.291667,48.0866666 52.225,48.1 C52.158333,48.1133334 52.091667,48.1233333 52.025,48.13 C51.958333,48.1366667 51.9016669,48.14 51.855,48.14 C51.6216655,48.14 51.4283341,48.0933338 51.275,48 C51.1216659,47.9066662 51.0216669,47.7433345 50.975,47.51 C50.7483322,47.7300011 50.4700017,47.8899995 50.14,47.99 C49.8099984,48.0900005 49.4916682,48.14 49.185,48.14 C48.9516655,48.14 48.7283344,48.1083336 48.515,48.045 C48.3016656,47.9816663 48.1133342,47.888334 47.95,47.765 C47.7866658,47.641666 47.6566671,47.4850009 47.56,47.295 C47.4633329,47.1049991 47.415,46.8833346 47.415,46.63 C47.415,46.3099984 47.4733327,46.050001 47.59,45.85 C47.7066672,45.649999 47.859999,45.4933339 48.05,45.38 C48.2400009,45.2666661 48.4533322,45.1850003 48.69,45.135 C48.9266679,45.0849998 49.1649988,45.0466668 49.405,45.02 C49.6116677,44.9799998 49.8083324,44.9516668 49.995,44.935 C50.1816676,44.9183333 50.346666,44.8900002 50.49,44.85 C50.6333341,44.8099998 50.7466662,44.7483338 50.83,44.665 C50.9133337,44.5816662 50.955,44.4566675 50.955,44.29 C50.955,44.1433326 50.9200003,44.0233338 50.85,43.93 C50.7799997,43.8366662 50.6933339,43.7650002 50.59,43.715 C50.4866661,43.6649997 50.3716673,43.6316668 50.245,43.615 C50.1183327,43.5983333 49.9983339,43.59 49.885,43.59 C49.5649984,43.59 49.3016677,43.656666 49.095,43.79 C48.8883323,43.923334 48.7716668,44.1299986 48.745,44.41 L47.605,44.41 C47.6250001,44.076665 47.7049993,43.8000011 47.845,43.58 C47.9850007,43.3599989 48.1633322,43.183334 48.38,43.05 C48.5966678,42.916666 48.8416653,42.8233336 49.115,42.77 C49.3883347,42.7166664 49.6683319,42.69 49.955,42.69 C50.2083346,42.69 50.4583321,42.7166664 50.705,42.77 C50.9516679,42.8233336 51.1733323,42.9099994 51.37,43.03 C51.5666676,43.1500006 51.7249994,43.304999 51.845,43.495 C51.9650006,43.685001 52.025,43.9166653 52.025,44.19 L52.025,46.85 Z M50.885,45.41 C50.7116658,45.5233339 50.4983346,45.5916665 50.245,45.615 C49.9916654,45.6383334 49.7383346,45.6733331 49.485,45.72 C49.3649994,45.7400001 49.2483339,45.7683332 49.135,45.805 C49.0216661,45.8416668 48.9216671,45.8916664 48.835,45.955 C48.7483329,46.0183337 48.6800002,46.1016661 48.63,46.205 C48.5799997,46.3083338 48.555,46.4333326 48.555,46.58 C48.555,46.7066673 48.5916663,46.8133329 48.665,46.9 C48.7383337,46.9866671 48.8266662,47.0549998 48.93,47.105 C49.0333338,47.1550003 49.1466661,47.1899999 49.27,47.21 C49.3933339,47.2300001 49.5049995,47.24 49.605,47.24 C49.7316673,47.24 49.8683326,47.2233335 50.015,47.19 C50.1616674,47.1566665 50.2999994,47.1000004 50.43,47.02 C50.5600006,46.9399996 50.6683329,46.8383339 50.755,46.715 C50.8416671,46.5916661 50.885,46.4400009 50.885,46.26 L50.885,45.41 Z M56.065,42.83 L57.145,42.83 L57.145,43.53 L57.165,43.53 C57.3250008,43.2299985 57.5483319,43.0150006 57.835,42.885 C58.1216681,42.7549993 58.431665,42.69 58.765,42.69 C59.1716687,42.69 59.5266651,42.761666 59.83,42.905 C60.1333348,43.0483341 60.384999,43.2449988 60.585,43.495 C60.785001,43.7450013 60.9349995,44.036665 61.035,44.37 C61.1350005,44.703335 61.185,45.0599981 61.185,45.44 C61.185,45.7866684 61.1400005,46.1233317 61.05,46.45 C60.9599995,46.7766683 60.8233343,47.0649988 60.64,47.315 C60.4566657,47.5650013 60.2250014,47.7649993 59.945,47.915 C59.6649986,48.0650007 59.3350019,48.14 58.955,48.14 C58.7883325,48.14 58.6216675,48.1250001 58.455,48.095 C58.2883325,48.0649998 58.1283341,48.016667 57.975,47.95 C57.8216659,47.883333 57.6800006,47.7983338 57.55,47.695 C57.4199993,47.5916662 57.3116671,47.4700007 57.225,47.33 L57.205,47.33 L57.205,49.91 L56.065,49.91 L56.065,42.83 Z M60.045,45.42 C60.045,45.1866655 60.0150003,44.9600011 59.955,44.74 C59.8949997,44.5199989 59.8050006,44.3250009 59.685,44.155 C59.5649994,43.9849992 59.4150009,43.8483339 59.235,43.745 C59.0549991,43.6416661 58.8483345,43.59 58.615,43.59 C58.1349976,43.59 57.7733346,43.756665 57.53,44.09 C57.2866655,44.423335 57.165,44.8666639 57.165,45.42 C57.165,45.6800013 57.1966664,45.9216656 57.26,46.145 C57.3233336,46.3683344 57.4183327,46.5599992 57.545,46.72 C57.6716673,46.8800008 57.8233324,47.0066662 58,47.1 C58.1766675,47.1933338 58.3816655,47.24 58.615,47.24 C58.8750013,47.24 59.0949991,47.1866672 59.275,47.08 C59.4550009,46.9733328 59.6033327,46.8350009 59.72,46.665 C59.8366672,46.4949991 59.9199998,46.3016678 59.97,46.085 C60.0200002,45.8683323 60.045,45.6466678 60.045,45.42 Z M62.175,40.86 L63.315,40.86 L63.315,48 L62.175,48 L62.175,40.86 Z M68.885,46.85 C68.885,46.9900007 68.9033331,47.0899997 68.94,47.15 C68.9766669,47.2100003 69.0483328,47.24 69.155,47.24 L69.275,47.24 C69.3216669,47.24 69.3749997,47.2333334 69.435,47.22 L69.435,48.01 C69.3949998,48.0233334 69.3433337,48.0383333 69.28,48.055 C69.2166663,48.0716667 69.151667,48.0866666 69.085,48.1 C69.018333,48.1133334 68.951667,48.1233333 68.885,48.13 C68.818333,48.1366667 68.7616669,48.14 68.715,48.14 C68.4816655,48.14 68.2883341,48.0933338 68.135,48 C67.9816659,47.9066662 67.8816669,47.7433345 67.835,47.51 C67.6083322,47.7300011 67.3300016,47.8899995 67,47.99 C66.6699984,48.0900005 66.3516682,48.14 66.045,48.14 C65.8116655,48.14 65.5883344,48.1083336 65.375,48.045 C65.1616656,47.9816663 64.9733341,47.888334 64.81,47.765 C64.6466659,47.641666 64.5166671,47.4850009 64.42,47.295 C64.3233328,47.1049991 64.275,46.8833346 64.275,46.63 C64.275,46.3099984 64.3333327,46.050001 64.45,45.85 C64.5666672,45.649999 64.719999,45.4933339 64.91,45.38 C65.1000009,45.2666661 65.3133321,45.1850003 65.55,45.135 C65.7866679,45.0849998 66.0249988,45.0466668 66.265,45.02 C66.4716677,44.9799998 66.6683324,44.9516668 66.855,44.935 C67.0416676,44.9183333 67.206666,44.8900002 67.35,44.85 C67.4933341,44.8099998 67.6066662,44.7483338 67.69,44.665 C67.7733338,44.5816662 67.815,44.4566675 67.815,44.29 C67.815,44.1433326 67.7800003,44.0233338 67.71,43.93 C67.6399996,43.8366662 67.5533339,43.7650002 67.45,43.715 C67.3466662,43.6649997 67.2316673,43.6316668 67.105,43.615 C66.9783327,43.5983333 66.8583339,43.59 66.745,43.59 C66.4249984,43.59 66.1616677,43.656666 65.955,43.79 C65.7483323,43.923334 65.6316668,44.1299986 65.605,44.41 L64.465,44.41 C64.4850001,44.076665 64.5649993,43.8000011 64.705,43.58 C64.8450007,43.3599989 65.0233322,43.183334 65.24,43.05 C65.4566677,42.916666 65.7016653,42.8233336 65.975,42.77 C66.2483347,42.7166664 66.5283319,42.69 66.815,42.69 C67.0683346,42.69 67.3183321,42.7166664 67.565,42.77 C67.8116679,42.8233336 68.0333323,42.9099994 68.23,43.03 C68.4266676,43.1500006 68.5849994,43.304999 68.705,43.495 C68.8250006,43.685001 68.885,43.9166653 68.885,44.19 L68.885,46.85 Z M67.745,45.41 C67.5716658,45.5233339 67.3583346,45.5916665 67.105,45.615 C66.8516654,45.6383334 66.5983346,45.6733331 66.345,45.72 C66.2249994,45.7400001 66.1083339,45.7683332 65.995,45.805 C65.8816661,45.8416668 65.7816671,45.8916664 65.695,45.955 C65.6083329,46.0183337 65.5400002,46.1016661 65.49,46.205 C65.4399997,46.3083338 65.415,46.4333326 65.415,46.58 C65.415,46.7066673 65.4516663,46.8133329 65.525,46.9 C65.5983337,46.9866671 65.6866662,47.0549998 65.79,47.105 C65.8933339,47.1550003 66.0066661,47.1899999 66.13,47.21 C66.2533339,47.2300001 66.3649995,47.24 66.465,47.24 C66.5916673,47.24 66.7283326,47.2233335 66.875,47.19 C67.0216674,47.1566665 67.1599993,47.1000004 67.29,47.02 C67.4200006,46.9399996 67.5283329,46.8383339 67.615,46.715 C67.7016671,46.5916661 67.745,46.4400009 67.745,46.26 L67.745,45.41 Z M69.595,42.83 L70.455,42.83 L70.455,41.28 L71.595,41.28 L71.595,42.83 L72.625,42.83 L72.625,43.68 L71.595,43.68 L71.595,46.44 C71.595,46.5600006 71.5999999,46.6633329 71.61,46.75 C71.6200001,46.8366671 71.6433332,46.9099997 71.68,46.97 C71.7166668,47.0300003 71.7716663,47.0749998 71.845,47.105 C71.9183337,47.1350001 72.0183327,47.15 72.145,47.15 C72.2250004,47.15 72.3049996,47.1483334 72.385,47.145 C72.4650004,47.1416666 72.5449996,47.1300001 72.625,47.11 L72.625,47.99 C72.4983327,48.0033334 72.3750006,48.0166666 72.255,48.03 C72.1349994,48.0433334 72.0116673,48.05 71.885,48.05 C71.5849985,48.05 71.3433342,48.0216669 71.16,47.965 C70.9766657,47.908333 70.8333339,47.8250005 70.73,47.715 C70.6266662,47.6049995 70.5566668,47.4666675 70.52,47.3 C70.4833331,47.1333325 70.4616667,46.9433344 70.455,46.73 L70.455,43.68 L69.595,43.68 L69.595,42.83 Z M72.935,42.83 L73.785,42.83 L73.785,42.4 C73.785,42.0733317 73.8249996,41.8083344 73.905,41.605 C73.9850004,41.4016656 74.091666,41.2450006 74.225,41.135 C74.358334,41.0249994 74.5099991,40.9516668 74.68,40.915 C74.8500009,40.8783332 75.0283324,40.86 75.215,40.86 C75.5816685,40.86 75.8483325,40.8833331 76.015,40.93 L76.015,41.82 C75.9416663,41.7999999 75.8633337,41.7850001 75.78,41.775 C75.6966662,41.765 75.5983339,41.76 75.485,41.76 C75.3316659,41.76 75.2000005,41.7966663 75.09,41.87 C74.9799994,41.9433337 74.925,42.0866656 74.925,42.3 L74.925,42.83 L75.895,42.83 L75.895,43.68 L74.925,43.68 L74.925,48 L73.785,48 L73.785,43.68 L72.935,43.68 L72.935,42.83 Z M78.965,48.14 C78.5516646,48.14 78.183335,48.0716673 77.86,47.935 C77.536665,47.7983326 77.2633345,47.6100012 77.04,47.37 C76.8166655,47.1299988 76.6466672,46.843335 76.53,46.51 C76.4133327,46.176665 76.355,45.810002 76.355,45.41 C76.355,45.0166647 76.4133327,44.653335 76.53,44.32 C76.6466672,43.986665 76.8166655,43.7000012 77.04,43.46 C77.2633345,43.2199988 77.536665,43.0316673 77.86,42.895 C78.183335,42.7583326 78.5516646,42.69 78.965,42.69 C79.3783354,42.69 79.746665,42.7583326 80.07,42.895 C80.3933349,43.0316673 80.6666656,43.2199988 80.89,43.46 C81.1133344,43.7000012 81.2833327,43.986665 81.4,44.32 C81.5166673,44.653335 81.575,45.0166647 81.575,45.41 C81.575,45.810002 81.5166673,46.176665 81.4,46.51 C81.2833327,46.843335 81.1133344,47.1299988 80.89,47.37 C80.6666656,47.6100012 80.3933349,47.7983326 80.07,47.935 C79.746665,48.0716673 79.3783354,48.14 78.965,48.14 Z M78.965,47.24 C79.2183346,47.24 79.4383324,47.1866672 79.625,47.08 C79.8116676,46.9733328 79.9649994,46.8333342 80.085,46.66 C80.2050006,46.4866658 80.2933331,46.2916678 80.35,46.075 C80.4066669,45.8583323 80.435,45.6366678 80.435,45.41 C80.435,45.1899989 80.4066669,44.9700011 80.35,44.75 C80.2933331,44.5299989 80.2050006,44.3350009 80.085,44.165 C79.9649994,43.9949991 79.8116676,43.8566672 79.625,43.75 C79.4383324,43.6433328 79.2183346,43.59 78.965,43.59 C78.7116654,43.59 78.4916676,43.6433328 78.305,43.75 C78.1183324,43.8566672 77.9650006,43.9949991 77.845,44.165 C77.7249994,44.3350009 77.636667,44.5299989 77.58,44.75 C77.523333,44.9700011 77.495,45.1899989 77.495,45.41 C77.495,45.6366678 77.523333,45.8583323 77.58,46.075 C77.636667,46.2916678 77.7249994,46.4866658 77.845,46.66 C77.9650006,46.8333342 78.1183324,46.9733328 78.305,47.08 C78.4916676,47.1866672 78.7116654,47.24 78.965,47.24 Z M82.525,42.83 L83.595,42.83 L83.595,43.83 L83.615,43.83 C83.6483335,43.6899993 83.7133329,43.553334 83.81,43.42 C83.9066672,43.286666 84.0233327,43.1650006 84.16,43.055 C84.2966673,42.9449994 84.4483325,42.856667 84.615,42.79 C84.7816675,42.723333 84.9516658,42.69 85.125,42.69 C85.258334,42.69 85.3499997,42.6933333 85.4,42.7 C85.4500002,42.7066667 85.5016664,42.7133333 85.555,42.72 L85.555,43.82 C85.4749996,43.8066666 85.3933337,43.795 85.31,43.785 C85.2266662,43.775 85.1450004,43.77 85.065,43.77 C84.8716657,43.77 84.6900008,43.808333 84.52,43.885 C84.3499992,43.9616671 84.2016673,44.0749992 84.075,44.225 C83.9483327,44.3750007 83.8483337,44.5599989 83.775,44.78 C83.7016663,45.0000011 83.665,45.2533319 83.665,45.54 L83.665,48 L82.525,48 L82.525,42.83 Z M86.045,42.83 L87.125,42.83 L87.125,43.55 L87.155,43.55 C87.2416671,43.4233327 87.3349995,43.3066672 87.435,43.2 C87.5350005,43.0933328 87.646666,43.0033337 87.77,42.93 C87.8933339,42.8566663 88.0349992,42.7983336 88.195,42.755 C88.3550008,42.7116664 88.5383323,42.69 88.745,42.69 C89.0583349,42.69 89.3499987,42.7599993 89.62,42.9 C89.8900014,43.0400007 90.0816661,43.2566652 90.195,43.55 C90.3883343,43.283332 90.6116654,43.0733341 90.865,42.92 C91.1183346,42.7666659 91.4349981,42.69 91.815,42.69 C92.3616694,42.69 92.7866652,42.823332 93.09,43.09 C93.3933349,43.356668 93.545,43.8033302 93.545,44.43 L93.545,48 L92.405,48 L92.405,44.98 C92.405,44.7733323 92.3983334,44.5850009 92.385,44.415 C92.3716666,44.2449991 92.3333337,44.0983339 92.27,43.975 C92.2066664,43.851666 92.1116673,43.756667 91.985,43.69 C91.8583327,43.623333 91.6850011,43.59 91.465,43.59 C91.0783314,43.59 90.7983342,43.7099988 90.625,43.95 C90.4516658,44.1900012 90.365,44.5299978 90.365,44.97 L90.365,48 L89.225,48 L89.225,44.68 C89.225,44.3199982 89.1600007,44.0483343 89.03,43.865 C88.8999994,43.6816658 88.6616684,43.59 88.315,43.59 C88.1683326,43.59 88.0266673,43.6199997 87.89,43.68 C87.7533327,43.7400003 87.6333338,43.8266661 87.53,43.94 C87.4266662,44.0533339 87.3433337,44.1933325 87.28,44.36 C87.2166663,44.5266675 87.185,44.7166656 87.185,44.93 L87.185,48 L86.045,48 L86.045,42.83 Z M97.555,40.86 L98.695,40.86 L98.695,43.5 L98.715,43.5 C98.7950004,43.3733327 98.8916661,43.2600005 99.005,43.16 C99.1183339,43.0599995 99.2433327,42.9750004 99.38,42.905 C99.5166674,42.8349997 99.6599993,42.7816669 99.81,42.745 C99.9600008,42.7083332 100.108333,42.69 100.255,42.69 C100.661669,42.69 101.016665,42.761666 101.32,42.905 C101.623335,43.0483341 101.874999,43.2449988 102.075,43.495 C102.275001,43.7450013 102.425,44.036665 102.525,44.37 C102.625,44.703335 102.675,45.0599981 102.675,45.44 C102.675,45.7866684 102.63,46.1233317 102.54,46.45 C102.45,46.7766683 102.313334,47.0649988 102.13,47.315 C101.946666,47.5650013 101.715001,47.7649993 101.435,47.915 C101.154999,48.0650007 100.825002,48.14 100.445,48.14 C100.271666,48.14 100.096668,48.1283334 99.92,48.105 C99.7433324,48.0816666 99.5750008,48.036667 99.415,47.97 C99.2549992,47.903333 99.1100007,47.8166672 98.98,47.71 C98.8499994,47.6033328 98.7416671,47.4633342 98.655,47.29 L98.635,47.29 L98.635,48 L97.555,48 L97.555,40.86 Z M101.535,45.42 C101.535,45.1866655 101.505,44.9600011 101.445,44.74 C101.385,44.5199989 101.295001,44.3250009 101.175,44.155 C101.054999,43.9849992 100.905001,43.8483339 100.725,43.745 C100.544999,43.6416661 100.338335,43.59 100.105,43.59 C99.6249976,43.59 99.2633345,43.756665 99.02,44.09 C98.7766654,44.423335 98.655,44.8666639 98.655,45.42 C98.655,45.6800013 98.6866663,45.9216656 98.75,46.145 C98.8133337,46.3683344 98.9083327,46.5599992 99.035,46.72 C99.1616673,46.8800008 99.3133324,47.0066662 99.49,47.1 C99.6666675,47.1933338 99.8716655,47.24 100.105,47.24 C100.365001,47.24 100.584999,47.1866672 100.765,47.08 C100.945001,46.9733328 101.093333,46.8350009 101.21,46.665 C101.326667,46.4949991 101.41,46.3016678 101.46,46.085 C101.51,45.8683323 101.535,45.6466678 101.535,45.42 Z M103.065,42.83 L104.315,42.83 L105.665,46.69 L105.685,46.69 L106.995,42.83 L108.185,42.83 L106.175,48.28 C106.081666,48.5133345 105.99,48.7366656 105.9,48.95 C105.81,49.1633344 105.700001,49.3516659 105.57,49.515 C105.439999,49.6783341 105.278334,49.8083328 105.085,49.905 C104.891666,50.0016672 104.645002,50.05 104.345,50.05 C104.078332,50.05 103.815001,50.0300002 103.555,49.99 L103.555,49.03 C103.648334,49.0433334 103.738333,49.0583333 103.825,49.075 C103.911667,49.0916668 104.001666,49.1 104.095,49.1 C104.228334,49.1 104.338333,49.0833335 104.425,49.05 C104.511667,49.0166665 104.583333,48.9683336 104.64,48.905 C104.696667,48.8416663 104.745,48.7666671 104.785,48.68 C104.825,48.5933329 104.861666,48.4933339 104.895,48.38 L105.025,47.98 L103.065,42.83 Z M113.675,40.86 L115.005,40.86 L117.755,48 L116.415,48 L115.745,46.11 L112.895,46.11 L112.225,48 L110.935,48 L113.675,40.86 Z M113.235,45.16 L115.415,45.16 L114.345,42.09 L114.315,42.09 L113.235,45.16 Z M122.815,48 L121.695,48 L121.695,47.28 L121.675,47.28 C121.534999,47.5400013 121.326668,47.7483326 121.05,47.905 C120.773332,48.0616675 120.491668,48.14 120.205,48.14 C119.524997,48.14 119.033335,47.9716684 118.73,47.635 C118.426665,47.2983317 118.275,46.7900034 118.275,46.11 L118.275,42.83 L119.415,42.83 L119.415,46 C119.415,46.4533356 119.501666,46.7733324 119.675,46.96 C119.848334,47.1466676 120.091665,47.24 120.405,47.24 C120.645001,47.24 120.844999,47.2033337 121.005,47.13 C121.165001,47.0566663 121.294999,46.9583339 121.395,46.835 C121.495001,46.711666 121.566666,46.5633342 121.61,46.39 C121.653334,46.2166658 121.675,46.030001 121.675,45.83 L121.675,42.83 L122.815,42.83 L122.815,48 Z M123.495,42.83 L124.355,42.83 L124.355,41.28 L125.495,41.28 L125.495,42.83 L126.525,42.83 L126.525,43.68 L125.495,43.68 L125.495,46.44 C125.495,46.5600006 125.5,46.6633329 125.51,46.75 C125.52,46.8366671 125.543333,46.9099997 125.58,46.97 C125.616667,47.0300003 125.671666,47.0749998 125.745,47.105 C125.818334,47.1350001 125.918333,47.15 126.045,47.15 C126.125,47.15 126.205,47.1483334 126.285,47.145 C126.365,47.1416666 126.445,47.1300001 126.525,47.11 L126.525,47.99 C126.398333,48.0033334 126.275001,48.0166666 126.155,48.03 C126.034999,48.0433334 125.911667,48.05 125.785,48.05 C125.484999,48.05 125.243334,48.0216669 125.06,47.965 C124.876666,47.908333 124.733334,47.8250005 124.63,47.715 C124.526666,47.6049995 124.456667,47.4666675 124.42,47.3 C124.383333,47.1333325 124.361667,46.9433344 124.355,46.73 L124.355,43.68 L123.495,43.68 L123.495,42.83 Z M129.715,48.14 C129.301665,48.14 128.933335,48.0716673 128.61,47.935 C128.286665,47.7983326 128.013334,47.6100012 127.79,47.37 C127.566666,47.1299988 127.396667,46.843335 127.28,46.51 C127.163333,46.176665 127.105,45.810002 127.105,45.41 C127.105,45.0166647 127.163333,44.653335 127.28,44.32 C127.396667,43.986665 127.566666,43.7000012 127.79,43.46 C128.013334,43.2199988 128.286665,43.0316673 128.61,42.895 C128.933335,42.7583326 129.301665,42.69 129.715,42.69 C130.128335,42.69 130.496665,42.7583326 130.82,42.895 C131.143335,43.0316673 131.416666,43.2199988 131.64,43.46 C131.863334,43.7000012 132.033333,43.986665 132.15,44.32 C132.266667,44.653335 132.325,45.0166647 132.325,45.41 C132.325,45.810002 132.266667,46.176665 132.15,46.51 C132.033333,46.843335 131.863334,47.1299988 131.64,47.37 C131.416666,47.6100012 131.143335,47.7983326 130.82,47.935 C130.496665,48.0716673 130.128335,48.14 129.715,48.14 Z M129.715,47.24 C129.968335,47.24 130.188332,47.1866672 130.375,47.08 C130.561668,46.9733328 130.714999,46.8333342 130.835,46.66 C130.955001,46.4866658 131.043333,46.2916678 131.1,46.075 C131.156667,45.8583323 131.185,45.6366678 131.185,45.41 C131.185,45.1899989 131.156667,44.9700011 131.1,44.75 C131.043333,44.5299989 130.955001,44.3350009 130.835,44.165 C130.714999,43.9949991 130.561668,43.8566672 130.375,43.75 C130.188332,43.6433328 129.968335,43.59 129.715,43.59 C129.461665,43.59 129.241668,43.6433328 129.055,43.75 C128.868332,43.8566672 128.715001,43.9949991 128.595,44.165 C128.474999,44.3350009 128.386667,44.5299989 128.33,44.75 C128.273333,44.9700011 128.245,45.1899989 128.245,45.41 C128.245,45.6366678 128.273333,45.8583323 128.33,46.075 C128.386667,46.2916678 128.474999,46.4866658 128.595,46.66 C128.715001,46.8333342 128.868332,46.9733328 129.055,47.08 C129.241668,47.1866672 129.461665,47.24 129.715,47.24 Z M133.275,42.83 L134.355,42.83 L134.355,43.59 L134.375,43.61 C134.548334,43.3233319 134.774999,43.0983341 135.055,42.935 C135.335001,42.7716658 135.644998,42.69 135.985,42.69 C136.55167,42.69 136.998332,42.8366652 137.325,43.13 C137.651668,43.4233348 137.815,43.8633304 137.815,44.45 L137.815,48 L136.675,48 L136.675,44.75 C136.661667,44.3433313 136.575001,44.0483343 136.415,43.865 C136.254999,43.6816658 136.005002,43.59 135.665,43.59 C135.471666,43.59 135.298334,43.6249996 135.145,43.695 C134.991666,43.7650004 134.861667,43.861666 134.755,43.985 C134.648333,44.108334 134.565,44.2533325 134.505,44.42 C134.445,44.5866675 134.415,44.7633324 134.415,44.95 L134.415,48 L133.275,48 L133.275,42.83 Z M141.385,48.14 C140.971665,48.14 140.603335,48.0716673 140.28,47.935 C139.956665,47.7983326 139.683334,47.6100012 139.46,47.37 C139.236666,47.1299988 139.066667,46.843335 138.95,46.51 C138.833333,46.176665 138.775,45.810002 138.775,45.41 C138.775,45.0166647 138.833333,44.653335 138.95,44.32 C139.066667,43.986665 139.236666,43.7000012 139.46,43.46 C139.683334,43.2199988 139.956665,43.0316673 140.28,42.895 C140.603335,42.7583326 140.971665,42.69 141.385,42.69 C141.798335,42.69 142.166665,42.7583326 142.49,42.895 C142.813335,43.0316673 143.086666,43.2199988 143.31,43.46 C143.533334,43.7000012 143.703333,43.986665 143.82,44.32 C143.936667,44.653335 143.995,45.0166647 143.995,45.41 C143.995,45.810002 143.936667,46.176665 143.82,46.51 C143.703333,46.843335 143.533334,47.1299988 143.31,47.37 C143.086666,47.6100012 142.813335,47.7983326 142.49,47.935 C142.166665,48.0716673 141.798335,48.14 141.385,48.14 Z M141.385,47.24 C141.638335,47.24 141.858332,47.1866672 142.045,47.08 C142.231668,46.9733328 142.384999,46.8333342 142.505,46.66 C142.625001,46.4866658 142.713333,46.2916678 142.77,46.075 C142.826667,45.8583323 142.855,45.6366678 142.855,45.41 C142.855,45.1899989 142.826667,44.9700011 142.77,44.75 C142.713333,44.5299989 142.625001,44.3350009 142.505,44.165 C142.384999,43.9949991 142.231668,43.8566672 142.045,43.75 C141.858332,43.6433328 141.638335,43.59 141.385,43.59 C141.131665,43.59 140.911668,43.6433328 140.725,43.75 C140.538332,43.8566672 140.385001,43.9949991 140.265,44.165 C140.144999,44.3350009 140.056667,44.5299989 140,44.75 C139.943333,44.9700011 139.915,45.1899989 139.915,45.41 C139.915,45.6366678 139.943333,45.8583323 140,46.075 C140.056667,46.2916678 140.144999,46.4866658 140.265,46.66 C140.385001,46.8333342 140.538332,46.9733328 140.725,47.08 C140.911668,47.1866672 141.131665,47.24 141.385,47.24 Z M144.945,42.83 L146.025,42.83 L146.025,43.55 L146.055,43.55 C146.141667,43.4233327 146.234999,43.3066672 146.335,43.2 C146.435,43.0933328 146.546666,43.0033337 146.67,42.93 C146.793334,42.8566663 146.934999,42.7983336 147.095,42.755 C147.255001,42.7116664 147.438332,42.69 147.645,42.69 C147.958335,42.69 148.249999,42.7599993 148.52,42.9 C148.790001,43.0400007 148.981666,43.2566652 149.095,43.55 C149.288334,43.283332 149.511665,43.0733341 149.765,42.92 C150.018335,42.7666659 150.334998,42.69 150.715,42.69 C151.261669,42.69 151.686665,42.823332 151.99,43.09 C152.293335,43.356668 152.445,43.8033302 152.445,44.43 L152.445,48 L151.305,48 L151.305,44.98 C151.305,44.7733323 151.298333,44.5850009 151.285,44.415 C151.271667,44.2449991 151.233334,44.0983339 151.17,43.975 C151.106666,43.851666 151.011667,43.756667 150.885,43.69 C150.758333,43.623333 150.585001,43.59 150.365,43.59 C149.978331,43.59 149.698334,43.7099988 149.525,43.95 C149.351666,44.1900012 149.265,44.5299978 149.265,44.97 L149.265,48 L148.125,48 L148.125,44.68 C148.125,44.3199982 148.060001,44.0483343 147.93,43.865 C147.799999,43.6816658 147.561668,43.59 147.215,43.59 C147.068333,43.59 146.926667,43.6199997 146.79,43.68 C146.653333,43.7400003 146.533334,43.8266661 146.43,43.94 C146.326666,44.0533339 146.243334,44.1933325 146.18,44.36 C146.116666,44.5266675 146.085,44.7166656 146.085,44.93 L146.085,48 L144.945,48 L144.945,42.83 Z M156.015,48.14 C155.601665,48.14 155.233335,48.0716673 154.91,47.935 C154.586665,47.7983326 154.313334,47.6100012 154.09,47.37 C153.866666,47.1299988 153.696667,46.843335 153.58,46.51 C153.463333,46.176665 153.405,45.810002 153.405,45.41 C153.405,45.0166647 153.463333,44.653335 153.58,44.32 C153.696667,43.986665 153.866666,43.7000012 154.09,43.46 C154.313334,43.2199988 154.586665,43.0316673 154.91,42.895 C155.233335,42.7583326 155.601665,42.69 156.015,42.69 C156.428335,42.69 156.796665,42.7583326 157.12,42.895 C157.443335,43.0316673 157.716666,43.2199988 157.94,43.46 C158.163334,43.7000012 158.333333,43.986665 158.45,44.32 C158.566667,44.653335 158.625,45.0166647 158.625,45.41 C158.625,45.810002 158.566667,46.176665 158.45,46.51 C158.333333,46.843335 158.163334,47.1299988 157.94,47.37 C157.716666,47.6100012 157.443335,47.7983326 157.12,47.935 C156.796665,48.0716673 156.428335,48.14 156.015,48.14 Z M156.015,47.24 C156.268335,47.24 156.488332,47.1866672 156.675,47.08 C156.861668,46.9733328 157.014999,46.8333342 157.135,46.66 C157.255001,46.4866658 157.343333,46.2916678 157.4,46.075 C157.456667,45.8583323 157.485,45.6366678 157.485,45.41 C157.485,45.1899989 157.456667,44.9700011 157.4,44.75 C157.343333,44.5299989 157.255001,44.3350009 157.135,44.165 C157.014999,43.9949991 156.861668,43.8566672 156.675,43.75 C156.488332,43.6433328 156.268335,43.59 156.015,43.59 C155.761665,43.59 155.541668,43.6433328 155.355,43.75 C155.168332,43.8566672 155.015001,43.9949991 154.895,44.165 C154.774999,44.3350009 154.686667,44.5299989 154.63,44.75 C154.573333,44.9700011 154.545,45.1899989 154.545,45.41 C154.545,45.6366678 154.573333,45.8583323 154.63,46.075 C154.686667,46.2916678 154.774999,46.4866658 154.895,46.66 C155.015001,46.8333342 155.168332,46.9733328 155.355,47.08 C155.541668,47.1866672 155.761665,47.24 156.015,47.24 Z M164.115,48 L162.995,48 L162.995,47.28 L162.975,47.28 C162.834999,47.5400013 162.626668,47.7483326 162.35,47.905 C162.073332,48.0616675 161.791668,48.14 161.505,48.14 C160.824997,48.14 160.333335,47.9716684 160.03,47.635 C159.726665,47.2983317 159.575,46.7900034 159.575,46.11 L159.575,42.83 L160.715,42.83 L160.715,46 C160.715,46.4533356 160.801666,46.7733324 160.975,46.96 C161.148334,47.1466676 161.391665,47.24 161.705,47.24 C161.945001,47.24 162.144999,47.2033337 162.305,47.13 C162.465001,47.0566663 162.594999,46.9583339 162.695,46.835 C162.795,46.711666 162.866666,46.5633342 162.91,46.39 C162.953334,46.2166658 162.975,46.030001 162.975,45.83 L162.975,42.83 L164.115,42.83 L164.115,48 Z M166.175,46.34 C166.208333,46.673335 166.334999,46.906666 166.555,47.04 C166.775001,47.173334 167.038332,47.24 167.345,47.24 C167.451667,47.24 167.573333,47.2316668 167.71,47.215 C167.846667,47.1983333 167.974999,47.1666669 168.095,47.12 C168.215001,47.0733331 168.313333,47.0050004 168.39,46.915 C168.466667,46.8249996 168.501667,46.7066674 168.495,46.56 C168.488333,46.4133326 168.435,46.2933338 168.335,46.2 C168.234999,46.1066662 168.106667,46.031667 167.95,45.975 C167.793333,45.9183331 167.615001,45.8700002 167.415,45.83 C167.214999,45.7899998 167.011668,45.7466669 166.805,45.7 C166.591666,45.6533331 166.386668,45.596667 166.19,45.53 C165.993332,45.463333 165.816667,45.3733339 165.66,45.26 C165.503333,45.1466661 165.378334,45.0016676 165.285,44.825 C165.191666,44.6483324 165.145,44.4300013 165.145,44.17 C165.145,43.8899986 165.213333,43.655001 165.35,43.465 C165.486667,43.274999 165.659999,43.1216673 165.87,43.005 C166.080001,42.8883328 166.313332,42.8066669 166.57,42.76 C166.826668,42.7133331 167.071665,42.69 167.305,42.69 C167.571668,42.69 167.826665,42.718333 168.07,42.775 C168.313335,42.8316669 168.533332,42.9233327 168.73,43.05 C168.926668,43.1766673 169.089999,43.3416657 169.22,43.545 C169.350001,43.7483344 169.431666,43.9933319 169.465,44.28 L168.275,44.28 C168.221666,44.0066653 168.096668,43.8233338 167.9,43.73 C167.703332,43.6366662 167.478335,43.59 167.225,43.59 C167.145,43.59 167.050001,43.5966666 166.94,43.61 C166.829999,43.6233334 166.726667,43.6483331 166.63,43.685 C166.533333,43.7216668 166.451667,43.7749996 166.385,43.845 C166.318333,43.9150003 166.285,44.0066661 166.285,44.12 C166.285,44.2600007 166.333333,44.3733329 166.43,44.46 C166.526667,44.5466671 166.653333,44.618333 166.81,44.675 C166.966667,44.7316669 167.144999,44.7799998 167.345,44.82 C167.545001,44.8600002 167.751666,44.9033331 167.965,44.95 C168.171668,44.9966669 168.374999,45.053333 168.575,45.12 C168.775001,45.186667 168.953333,45.2766661 169.11,45.39 C169.266667,45.5033339 169.393333,45.6466658 169.49,45.82 C169.586667,45.9933342 169.635,46.2066654 169.635,46.46 C169.635,46.7666682 169.565001,47.0266656 169.425,47.24 C169.284999,47.4533344 169.103334,47.626666 168.88,47.76 C168.656666,47.893334 168.408335,47.9899997 168.135,48.05 C167.861665,48.1100003 167.591668,48.14 167.325,48.14 C166.998332,48.14 166.696668,48.1033337 166.42,48.03 C166.143332,47.9566663 165.903334,47.8450007 165.7,47.695 C165.496666,47.5449993 165.336667,47.3583345 165.22,47.135 C165.103333,46.9116655 165.041667,46.6466682 165.035,46.34 L166.175,46.34 Z" id="a-platform-by-Autono"></path>
                </g>
            </g>
        </g>
    </g>
</svg>