<?xml version="1.0" encoding="UTF-8"?>
<svg width="17px" height="17px" viewBox="0 0 17 17" version="1.1" xmlns="http://www.w3.org/2000/svg" xmlns:xlink="http://www.w3.org/1999/xlink">
    <!-- Generator: Sketch 50.2 (55047) - http://www.bohemiancoding.com/sketch -->
    <title>Group 10 Copy 2</title>
    <desc>Created with Sketch.</desc>
    <defs>
        <polygon id="path-1" points="3.42052314e-06 0.0232275732 16.9765694 0.0232275732 16.9765694 16.7792208 3.42052314e-06 16.7792208"></polygon>
    </defs>
    <g id="ATM" stroke="none" stroke-width="1" fill="none" fill-rule="evenodd">
        <g id="Seller-info" transform="translate(-35.000000, -317.000000)">
            <g id="Group-4" transform="translate(15.000000, -491.000000)">
                <g id="Group-76" transform="translate(19.000000, 807.000000)">
                    <g id="Group-2">
                        <g id="Group-10-Copy-2" transform="translate(1.000000, 1.000000)">
                            <path d="M16.749433,8.4117306 C16.749433,12.9149764 13.0507529,16.5655879 8.48828813,16.5655879 C3.92582334,16.5655879 0.227109054,12.9149764 0.227109054,8.4117306 C0.227109054,3.90848484 3.92582334,0.257873328 8.48828813,0.257873328 C13.0507529,0.257873328 16.749433,3.90848484 16.749433,8.4117306" id="Fill-1" fill="#020303"></path>
                            <path d="M11.7085362,4.15268496 C11.7085362,4.15268496 11.9754396,4.37574394 12.2405644,4.68374561 C12.6649829,4.5460007 13.4619648,4.15268496 13.4619648,4.15268496 L12.5853189,3.26112427 L11.7085362,4.15268496 Z" id="Fill-3" fill="#FEFEFE"></path>
                            <polygon id="Fill-5" fill="#FEFEFE" points="12.3992903 4.86071068 13.2228839 4.54599057 13.2228839 5.22782788 12.5853326 5.22782788"></polygon>
                            <g id="Group-9" transform="translate(0.000000, 0.010533)">
                                <mask id="mask-2" fill="white">
                                    <use xlink:href="#path-1"></use>
                                </mask>
                                <g id="Clip-8"></g>
                                <path d="M14.0771664,13.9174622 C13.351092,14.6341071 12.5058465,15.1965993 11.5645869,15.5894424 C11.4730537,15.6278286 11.380597,15.6636491 11.287935,15.6983891 L11.287935,12.8603713 L11.2869089,12.1177642 C11.2799994,11.8361299 11.1959229,11.5734017 11.0544501,11.3495662 C12.2778002,10.5349469 13.0822046,9.15429046 13.0822046,7.58828612 C13.0822046,5.0841309 11.0254441,3.05414904 8.48827103,3.05414904 C5.95126901,3.05414904 3.89447425,5.0841309 3.89447425,7.58828612 C3.89447425,9.15429046 4.69884447,10.5349469 5.92212616,11.3494987 C5.77583038,11.5811667 5.69062515,11.8541245 5.68884648,12.1467649 L4.80255473,11.5018621 C4.81965734,11.4737392 4.8363495,11.44565 4.85242596,11.4179998 C4.90684648,11.3233339 4.95281831,11.2316053 4.98856278,11.15041 C5.02437565,11.0693836 5.04992696,10.9987556 5.06572978,10.9479115 C5.08201147,10.8974388 5.08861308,10.8666825 5.08861308,10.8666825 C5.08861308,10.8666825 5.06148833,10.8832254 5.01903964,10.9155685 C4.97600946,10.9476077 4.91738169,10.995312 4.85242596,11.0562506 C4.7872992,11.1170879 4.71560503,11.1910245 4.64408189,11.273874 C4.62448229,11.2965952 4.60478008,11.3199578 4.58514628,11.3437593 L3.46410402,10.5107065 L2.99306378,11.1309299 L4.13562113,11.9803906 C4.13384245,11.9834967 4.13168753,11.9866702 4.13001147,11.9896749 C4.07559095,12.0844083 4.02961911,12.1761032 3.99387465,12.2572309 C3.95792495,12.3382911 3.93237364,12.4088854 3.91646821,12.4596281 C3.9000839,12.5100671 3.89348229,12.5407896 3.89348229,12.5407896 C3.89348229,12.5407896 3.92050443,12.5241792 3.96298732,12.4917686 C4.00584648,12.4596957 4.06433742,12.4119238 4.12936157,12.3509852 C4.19445412,12.2901141 4.26601147,12.2161775 4.33777404,12.1333618 C4.338766,12.1321801 4.33975795,12.1308635 4.3407499,12.1297156 L5.68392093,13.0807632 L5.68860704,15.6983891 C5.59597928,15.6636491 5.50362515,15.6278286 5.41198934,15.5894424 C4.4709008,15.1965993 3.62558692,14.6341071 2.89951247,13.9174622 C2.17340382,13.2008173 1.60340785,12.366414 1.20539577,11.4375136 C0.793427968,10.4762027 0.584570825,9.45456086 0.584570825,8.4011499 C0.584570825,7.34784023 0.793427968,6.32619837 1.20539577,5.36478616 C1.60340785,4.43591956 2.17340382,3.60158378 2.89951247,2.88493887 C3.62558692,2.16836148 4.4709008,1.60576805 5.41198934,1.21285745 C6.38601751,0.806206109 7.4209994,0.600061397 8.48827103,0.600061397 C9.55557686,0.600061397 10.5905245,0.806206109 11.5645869,1.21285745 C12.5058465,1.60576805 13.351092,2.16836148 14.0771664,2.88493887 C14.8031382,3.60158378 15.3731684,4.43591956 15.7712489,5.36478616 C16.1832509,6.32619837 16.392108,7.34784023 16.392108,8.4011499 C16.392108,9.45456086 16.1832509,10.4762027 15.7712489,11.4375136 C15.3731684,12.366414 14.8031382,13.2008173 14.0771664,13.9174622 M6.05583441,7.76911008 C5.55117042,7.94270918 5.07773581,7.85769896 4.9913334,7.35428858 C4.9913334,7.35428858 4.96523481,7.12866376 4.98753662,7.01894049 C5.00118451,6.92673918 5.02697525,6.83821782 5.06306177,6.75530078 C5.45286459,5.71029631 6.83858692,4.93757437 8.48827103,4.93757437 C10.1379551,4.93757437 11.5237117,5.71022879 11.9136171,6.75506445 C11.9497036,6.83821782 11.9754944,6.92673918 11.9891423,7.01917682 C12.0113072,7.12873129 11.9852429,7.35428858 11.9852429,7.35428858 C11.8989089,7.85769896 11.4075165,7.98720619 10.9209129,7.76911008 C9.89249839,7.30813728 7.45048431,7.28889351 6.05583441,7.76911008 M8.48827103,0.023220821 C3.80037565,0.023220821 3.42052314e-06,3.77410253 3.42052314e-06,8.4011499 C3.42052314e-06,12.0599316 2.37644608,15.1702657 5.68860704,16.312198 C6.56528712,16.6143253 7.50726499,16.7792478 8.48827103,16.7792478 C9.46941388,16.7792478 10.4113918,16.6143253 11.287935,16.312198 C14.6002328,15.1702657 16.9765728,12.0599316 16.9765728,8.4011499 C16.9765728,3.77410253 13.1763374,0.023220821 8.48827103,0.023220821" id="Fill-7" fill="#FEFEFE" mask="url(#mask-2)"></path>
                            </g>
                        </g>
                    </g>
                </g>
            </g>
        </g>
    </g>
</svg>