<?xml version="1.0" encoding="UTF-8"?>
<svg width="32px" height="32px" viewBox="0 0 32 32" version="1.1" xmlns="http://www.w3.org/2000/svg" xmlns:xlink="http://www.w3.org/1999/xlink">
    <!-- Generator: Sketch 50.2 (55047) - http://www.bohemiancoding.com/sketch -->
    <title>Group Copy 2</title>
    <desc>Created with Sketch.</desc>
    <defs>
        <polygon id="path-1" points="0 0.00847949527 31.9916861 0.00847949527 31.9916861 31.8990536 0 31.8990536"></polygon>
    </defs>
    <g id="Symbols" stroke="none" stroke-width="1" fill="none" fill-rule="evenodd">
        <g id="Bar/Top-Prediction" transform="translate(-15.000000, -91.000000)">
            <g id="Group-14">
                <g id="Group-Copy-2" transform="translate(15.000000, 91.000000)">
                    <path d="M31.5636861,16.046183 C31.5636861,24.6169338 24.5936608,31.5648707 15.9958886,31.5648707 C7.39801519,31.5648707 0.427989873,24.6169338 0.427989873,16.046183 C0.427989873,7.47543218 7.39801519,0.527495268 15.9958886,0.527495268 C24.5936608,0.527495268 31.5636861,7.47543218 31.5636861,16.046183" id="Fill-1" fill="#000000"></path>
                    <path d="M22.0642835,7.94020946 C22.0642835,7.94020946 22.5672709,8.36478991 23.0668152,8.95098549 C23.8667139,8.68882776 25.3685873,7.94020946 25.3685873,7.94020946 L23.7165367,6.24330095 L22.0642835,7.94020946 Z" id="Fill-3" fill="#FFFFFF"></path>
                    <polygon id="Fill-5" fill="#FFFFFF" points="23.3660051 9.28776278 24.9180051 8.688747 24.9180051 9.98641262 23.7165873 9.98641262"></polygon>
                    <g id="Group-9" transform="translate(0.000000, 0.092467)">
                        <mask id="mask-2" fill="white">
                            <use xlink:href="#path-1"></use>
                        </mask>
                        <g id="Clip-8"></g>
                        <path d="M26.5278886,26.4524921 C25.1595848,27.8163785 23.5667747,28.8869148 21.7930025,29.6346246 C21.6205468,29.7077098 21.4462684,29.7758486 21.2716861,29.8419685 L21.2716861,24.4406309 L21.269762,23.0271798 C21.2566987,22.4911546 21.098319,21.9911672 20.8316861,21.5651735 C23.1371038,20.0147382 24.6528506,17.3870032 24.6528506,14.4065615 C24.6528506,9.64058044 20.7770025,5.77705994 15.995838,5.77705994 C11.2148759,5.77705994 7.33902785,9.64058044 7.33902785,14.4065615 C7.33902785,17.3870032 8.85487595,20.0147382 11.1599899,21.5649716 C10.8843443,22.0059054 10.723838,22.5254763 10.7203949,23.0823975 L9.05021772,21.8549905 C9.08252152,21.801489 9.11391392,21.7479874 9.14419241,21.6953943 C9.24677468,21.515205 9.33335696,21.3406688 9.40069873,21.1861199 C9.46824304,21.0318738 9.51644557,20.8975142 9.54621772,20.8007066 C9.5768,20.7047066 9.5892557,20.6460568 9.5892557,20.6460568 C9.5892557,20.6460568 9.53821772,20.6775521 9.45821772,20.7391293 C9.3771038,20.8001009 9.26662278,20.8909527 9.14419241,21.0069401 C9.02145823,21.1227256 8.88636962,21.2634448 8.75158481,21.421123 C8.71472405,21.4643281 8.67755949,21.5087445 8.6404962,21.5540694 L6.52798987,19.9686057 L5.64029367,21.1490726 L7.79340759,22.7657287 C7.79006582,22.7716845 7.78601519,22.7776404 7.78287595,22.7834953 C7.68029367,22.9636845 7.59361013,23.1382208 7.52626835,23.2926688 C7.45852152,23.4469148 7.41042025,23.5812744 7.38044557,23.6778801 C7.34955949,23.7738801 7.3371038,23.8323281 7.3371038,23.8323281 C7.3371038,23.8323281 7.38804051,23.8007319 7.46804051,23.7390536 C7.54885063,23.6779811 7.65912911,23.5871293 7.78166076,23.471041 C7.90429367,23.3552555 8.03917975,23.2145363 8.17436962,23.056858 C8.17619241,23.0546372 8.17811646,23.0521136 8.17993924,23.0498927 L10.7111797,24.8600631 L10.7198886,29.8419685 C10.5454076,29.7758486 10.3713316,29.7077098 10.1986734,29.6346246 C8.42520506,28.8869148 6.83229367,27.8163785 5.46398987,26.4524921 C4.09568608,25.0885047 3.02155949,23.5004164 2.27158481,21.7325426 C1.49517975,19.9029905 1.10155949,17.9584606 1.10155949,15.9536656 C1.10155949,13.9489716 1.49517975,12.0045426 2.27158481,10.1746877 C3.02155949,8.40681388 4.09568608,6.81892744 5.46398987,5.45494006 C6.83229367,4.09115457 8.42520506,3.0204164 10.1986734,2.27260568 C12.0342177,1.49864984 13.9845975,1.10637224 15.995838,1.10637224 C18.0070785,1.10637224 19.9574582,1.49864984 21.7930025,2.27260568 C23.5667747,3.0204164 25.1595848,4.09115457 26.5278886,5.45494006 C27.8959899,6.81892744 28.9701165,8.40681388 29.7202937,10.1746877 C30.4966987,12.0045426 30.890319,13.9489716 30.890319,15.9536656 C30.890319,17.9584606 30.4966987,19.9029905 29.7202937,21.7325426 C28.9701165,23.5004164 27.8959899,25.0885047 26.5278886,26.4524921 M11.4119392,14.7506877 C10.4609519,15.0811861 9.5688,14.9192681 9.40596456,13.9611861 C9.40596456,13.9611861 9.35685063,13.5317603 9.39887595,13.3230032 C9.4244962,13.1474574 9.4731038,12.9789779 9.54115443,12.8211987 C10.2757367,10.8322524 12.8870785,9.36156467 15.995838,9.36156467 C19.1045975,9.36156467 21.7159392,10.8321514 22.4507241,12.820694 C22.5187747,12.9789779 22.5673823,13.1474574 22.5931038,13.3234069 C22.6349266,13.5319621 22.5857114,13.9611861 22.5857114,13.9611861 C22.4230785,14.9192681 21.4970025,15.1657792 20.5800405,14.7506877 C18.6420152,13.8733628 14.0401924,13.8367192 11.4119392,14.7506877 M15.995838,0.00847949527 C7.16171139,0.00847949527 -1.01265823e-05,7.14730599 -1.01265823e-05,15.9536656 C-1.01265823e-05,22.9171483 4.47836962,28.8368454 10.7198886,31.0101199 C12.3720405,31.5852114 14.1471291,31.8990536 15.995838,31.8990536 C17.8447494,31.8990536 19.619838,31.5852114 21.2716861,31.0101199 C27.5135089,28.8368454 31.9916861,22.9171483 31.9916861,15.9536656 C31.9916861,7.14730599 24.8302684,0.00847949527 15.995838,0.00847949527" id="Fill-7" fill="#FFFFFF" mask="url(#mask-2)"></path>
                    </g>
                </g>
            </g>
        </g>
    </g>
</svg>