<?xml version="1.0" encoding="UTF-8"?>
<svg width="23px" height="23px" viewBox="0 0 23 23" version="1.1" xmlns="http://www.w3.org/2000/svg" xmlns:xlink="http://www.w3.org/1999/xlink">
    <!-- Generator: Sketch 51.1 (57501) - http://www.bohemiancoding.com/sketch -->
    <title>Group 11</title>
    <desc>Created with Sketch.</desc>
    <defs>
        <circle id="path-1" cx="9" cy="9" r="9"></circle>
        <circle id="path-3" cx="6" cy="6" r="6"></circle>
    </defs>
    <g id="Page-1" stroke="none" stroke-width="1" fill="none" fill-rule="evenodd">
        <g id="Buy-Coin-Copy" transform="translate(-14.000000, -330.000000)">
            <g id="Group-11" transform="translate(15.000000, 331.000000)">
                <g id="icons8-shop_filled">
                    <mask id="mask-2" fill="white">
                        <use xlink:href="#path-1"></use>
                    </mask>
                    <use id="Mask" stroke="#000000" stroke-width="0.5" xlink:href="#path-1"></use>
                    <g mask="url(#mask-2)">
                        <g transform="translate(-2.136364, 1.727273)">
                            <path d="M5.28822314,4 L5.28822314,5.46103896 L5.25219525,5.70758929 C5.24206248,5.76808536 5,7.19830575 5,7.94480519 C5,8.41736013 5.10920948,8.79403409 5.30623709,9.0679789 C5.3006078,9.06455451 5.29385243,9.06227179 5.28822314,9.0588474 L5.28822314,16.2727273 L17.393595,16.2727273 L17.393595,9.0588474 C17.3879658,9.06227179 17.3823365,9.06455451 17.3755811,9.0679789 C17.5726087,8.79403409 17.6818182,8.41736013 17.6818182,7.94480519 C17.6818182,7.19830575 17.4397557,5.76808536 17.4296229,5.70758929 L17.3845881,5.46103896 L17.393595,5.46103896 L17.393595,4 L5.28822314,4 Z M5.77459969,6.04545455 L7.01756198,6.04545455 L7.01756198,8.64793019 C6.82841555,8.84654032 6.56270984,8.96753247 6.29700413,8.96753247 C5.81850876,8.96753247 5.57644628,8.62281873 5.57644628,7.94480519 C5.57644628,7.42202734 5.70817319,6.48719062 5.77459969,6.04545455 Z M7.59400826,6.04545455 L9.03512397,6.04545455 L9.03512397,8.64793019 C8.84597753,8.84654032 8.58027182,8.96753247 8.31456612,8.96753247 C8.04886041,8.96753247 7.7831547,8.84539867 7.59400826,8.64793019 L7.59400826,6.04545455 Z M9.61157025,6.04545455 L11.052686,6.04545455 L11.052686,8.64793019 C10.8635395,8.84654032 10.5978338,8.96753247 10.3321281,8.96753247 C10.0664224,8.96753247 9.80071668,8.84539867 9.61157025,8.64793019 L9.61157025,6.04545455 Z M11.6291322,6.04545455 L13.0702479,6.04545455 L13.0702479,8.64793019 C12.8811015,8.84654032 12.6153958,8.96753247 12.3496901,8.96753247 C12.0839844,8.96753247 11.8182787,8.84539867 11.6291322,8.64793019 L11.6291322,6.04545455 Z M13.6466942,6.04545455 L15.0878099,6.04545455 L15.0878099,8.64793019 C14.8986635,8.84654032 14.6329578,8.96753247 14.3672521,8.96753247 C14.1015464,8.96753247 13.8358407,8.84539867 13.6466942,8.64793019 L13.6466942,6.04545455 Z M15.6642562,6.04545455 L16.8982115,6.04545455 C16.9668896,6.48719062 17.1053719,7.42202734 17.1053719,7.94480519 C17.1053719,8.62281873 16.8633094,8.96753247 16.384814,8.96753247 C16.1191083,8.96753247 15.8534026,8.84539867 15.6642562,8.64793019 L15.6642562,6.04545455 Z M7.01756198,11.012987 L11.6291322,11.012987 L11.6291322,14.5194805 L7.01756198,14.5194805 L7.01756198,11.012987 Z M13.0702479,11.012987 L15.6642562,11.012987 L15.6642562,15.6883117 L13.0702479,15.6883117 L13.0702479,11.012987 Z" id="Shape" fill="#000000" fill-rule="nonzero"></path>
                            <g id="icons8-key" stroke-width="1" fill="none" fill-rule="evenodd"></g>
                        </g>
                    </g>
                </g>
                <g id="Group-6" transform="translate(10.000000, 10.000000)">
                    <mask id="mask-4" fill="white">
                        <use xlink:href="#path-3"></use>
                    </mask>
                    <use id="Mask" fill="#000000" xlink:href="#path-3"></use>
                    <path d="M7.11716289,2.66666667 C6.66262011,2.66666667 6.23978949,2.84537578 5.8909541,3.18430648 C5.49455033,3.56945521 5.31379044,4.04293124 5.36664414,4.54824629 C5.40681318,4.92415152 5.58228775,5.30211075 5.86558426,5.64104144 L3.9036502,7.54727058 L3.54847249,7.20217737 C3.37511193,7.03373902 3.23134953,7.17341961 3.05798897,7.34185796 L2.88885673,7.51440456 C2.71549617,7.68284291 2.57173376,7.81430699 2.74509432,7.98274534 L3.10027203,8.32783855 L2.82120383,8.59898321 C2.64784328,8.76742156 2.64784328,9.03856622 2.82120383,9.20700457 C2.99456438,9.37544292 3.27363259,9.37544292 3.44699314,9.20700457 L6.52520002,6.21619679 C6.8581792,6.41955541 7.22075652,6.52842397 7.57381995,6.52842397 C8.02730572,6.52842397 8.45119361,6.34971512 8.80002874,6.01078416 C9.19643251,5.62563543 9.37719266,5.1531864 9.3243387,4.64684435 C9.27677032,4.19185532 9.02835727,3.73378531 8.63089649,3.34863657 C8.18058202,2.91110782 7.64464415,2.66666667 7.11716289,2.66666667 Z M7.13407611,3.20895599 C7.51145237,3.20895599 7.90257082,3.39588161 8.24189232,3.7265958 C8.54315907,4.01930872 8.73131883,4.35721268 8.76620229,4.68792687 C8.80214303,5.03096608 8.67846487,5.35654503 8.40256796,5.62460843 C8.15521218,5.86391407 7.86768736,5.98613465 7.55690673,5.98613465 C7.17953047,5.98613465 6.78841201,5.79920929 6.44909051,5.46849484 C6.14782377,5.17680891 5.95966401,4.83787822 5.92478055,4.50716377 C5.88884008,4.16412482 6.01251797,3.83854561 6.28841488,3.57048221 C6.53471364,3.33117657 6.82223846,3.20895599 7.13407611,3.20895599 Z" id="Shape" fill="#FFFFFF" fill-rule="nonzero" mask="url(#mask-4)"></path>
                </g>
            </g>
        </g>
    </g>
</svg>