<?xml version="1.0" encoding="UTF-8"?>
<svg width="14px" height="14px" viewBox="0 0 14 14" version="1.1" xmlns="http://www.w3.org/2000/svg" xmlns:xlink="http://www.w3.org/1999/xlink">
    <!-- Generator: Sketch 52.2 (67145) - http://www.bohemiancoding.com/sketch -->
    <title>question-circle</title>
    <desc>Created with Sketch.</desc>
    <g id="Page-1" stroke="none" stroke-width="1" fill="none" fill-rule="evenodd">
        <g id="New-feed-Copy-7" transform="translate(-74.000000, -342.000000)" fill="#424242" fill-rule="nonzero">
            <g id="question-circle" transform="translate(74.000000, 342.000000)">
                <path d="M7,9.37096774 C6.56351613,9.37096774 6.20967742,9.72480645 6.20967742,10.1612903 C6.20967742,10.5977742 6.56351613,10.9516129 7,10.9516129 C7.43648387,10.9516129 7.79032258,10.5977742 7.79032258,10.1612903 C7.79032258,9.72480645 7.43648387,9.37096774 7,9.37096774 Z M7.21649194,8.69354839 L6.76487903,8.69354839 C6.57782661,8.69354839 6.42616935,8.54189113 6.42616935,8.35483871 L6.42616935,8.34408468 C6.42616935,6.35859677 8.61197581,6.5483871 8.61197581,5.31240726 C8.61197581,4.74743952 8.11065726,4.17741935 6.99068548,4.17741935 C6.16807258,4.17741935 5.74127016,4.44977016 5.31940726,4.98727419 C5.20910081,5.12783871 5.00739919,5.1564879 4.86079435,5.05433871 L4.49007661,4.79607258 C4.33130645,4.68545565 4.29644758,4.46382661 4.41541935,4.3112379 C5.01454032,3.54273387 5.72537903,3.0483871 6.99068548,3.0483871 C8.46745968,3.0483871 9.74100806,3.88813306 9.74100806,5.31240726 C9.74100806,7.21522177 7.55520161,7.11459677 7.55520161,8.34408468 L7.55520161,8.35483871 C7.55520161,8.54189113 7.40354435,8.69354839 7.21649194,8.69354839 Z M7,0.903225806 C10.3481734,0.903225806 13.0967742,3.61502016 13.0967742,7 C13.0967742,10.3670847 10.369879,13.0967742 7,13.0967742 C3.63424194,13.0967742 0.903225806,10.3712339 0.903225806,7 C0.903225806,3.63539919 3.62989516,0.903225806 7,0.903225806 Z M7,0 C3.13427823,0 0,3.13540726 0,7 C0,10.8668508 3.13427823,14 7,14 C10.8657218,14 14,10.8668508 14,7 C14,3.13540726 10.8657218,0 7,0 Z" id="Shape"></path>
            </g>
        </g>
    </g>
</svg>