<?xml version="1.0" encoding="UTF-8"?>
<svg width="47px" height="59px" viewBox="0 0 47 59" version="1.1" xmlns="http://www.w3.org/2000/svg" xmlns:xlink="http://www.w3.org/1999/xlink">
    <!-- Generator: Sketch 50.2 (55047) - http://www.bohemiancoding.com/sketch -->
    <title>Group 14</title>
    <desc>Created with Sketch.</desc>
    <defs></defs>
    <g id="ATM" stroke="none" stroke-width="1" fill="none" fill-rule="evenodd">
        <g id="Manage-asset" transform="translate(-54.000000, -554.000000)">
            <g id="Group-6" transform="translate(34.000000, 559.000000)">
                <g id="Group-4-Copy" transform="translate(25.000000, 0.000000)">
                    <g id="Group-14">
                        <g id="icons8-shield_filled" fill="#7ED321" fill-rule="nonzero" stroke="#6AB716" stroke-width="5">
                            <path d="M16.3966614,41.7353884 L16.0836079,41.5897408 C15.4719528,41.3166784 14.2594185,40.6188021 12.9074335,39.6563274 C10.7369165,38.1111416 8.57996773,36.1651428 6.57410966,33.7832548 C0.896428044,27.0412014 -2.5,18.1649203 -2.5,6.99277732 L-2.5,4.34316524 L-0.534604705,3.91292932 L0.0861508906,3.77704293 C2.72617061,3.19749244 4.99104823,2.47821992 7.08173453,1.60726409 C8.47979027,1.02485016 9.45408194,0.544892484 11.320072,-0.437204185 C13.705711,-1.68825643 14.5963915,-2.08761039 15.9455445,-2.35261692 C16.4414768,-2.45003012 16.9352582,-2.5 17.4339623,-2.5 C17.9326664,-2.5 18.4264477,-2.45003012 18.9223801,-2.35261692 C20.2715331,-2.08761039 21.1622135,-1.68825643 23.5511583,-0.435467435 C25.4138426,0.544892484 26.3881343,1.02485016 27.78619,1.60726409 C29.8768763,2.47821992 32.1417539,3.19749244 34.7803301,3.77672649 L37.3679245,4.34316524 L37.3679245,6.99277732 C37.3679245,17.8597173 33.9499267,26.672683 28.2535624,33.5359755 C26.2710963,35.9245595 24.1451282,37.9067675 22.0086133,39.5094564 C20.6918586,40.497209 19.663834,41.1343324 18.919112,41.526549 L17.4946782,42.2451819 L16.3966614,41.7353884 Z" id="Shape"></path>
                        </g>
                        <g id="Group-13" transform="translate(7.924528, 4.754717)" fill-rule="nonzero">
                            <path d="M10.4883463,1.16537181 C7.28357381,1.16537181 4.66148724,3.78745838 4.66148724,6.99223085 L4.66148724,9.32297447 L6.99223085,9.32297447 L6.99223085,6.99223085 C6.99223085,5.06936737 8.5654828,3.49611543 10.4883463,3.49611543 C12.4112098,3.49611543 13.9844617,5.06936737 13.9844617,6.99223085 L13.9844617,9.32297447 L16.3152053,9.32297447 L16.3152053,6.99223085 C16.3152053,3.78745838 13.6931188,1.16537181 10.4883463,1.16537181 Z" id="Shape-Copy-2" fill="#4271C1"></path>
                            <path d="M17.4805771,24.472808 L3.49611543,24.472808 C2.21420644,24.472808 1.16537181,23.4239734 1.16537181,22.1420644 L1.16537181,11.6537181 C1.16537181,10.3718091 2.21420644,9.32297447 3.49611543,9.32297447 L17.4805771,9.32297447 C18.7624861,9.32297447 19.8113208,10.3718091 19.8113208,11.6537181 L19.8113208,22.1420644 C19.8113208,23.4239734 18.7624861,24.472808 17.4805771,24.472808 Z" id="Shape-Copy-3" fill="#4271C1"></path>
                            <g id="Group-12">
                                <path d="M9.32297447,0 C6.118202,0 3.49611543,2.62208657 3.49611543,5.82685905 L3.49611543,8.15760266 L5.82685905,8.15760266 L5.82685905,5.82685905 C5.82685905,3.90399556 7.40011099,2.33074362 9.32297447,2.33074362 C11.245838,2.33074362 12.8190899,3.90399556 12.8190899,5.82685905 L12.8190899,8.15760266 L15.1498335,8.15760266 L15.1498335,5.82685905 C15.1498335,2.62208657 12.5277469,0 9.32297447,0 Z" id="Shape" fill="#EAEEEF"></path>
                                <path d="M16.3152053,23.3074362 L2.33074362,23.3074362 C1.04883463,23.3074362 0,22.2586016 0,20.9766926 L0,10.4883463 C0,9.20643729 1.04883463,8.15760266 2.33074362,8.15760266 L16.3152053,8.15760266 C17.5971143,8.15760266 18.6459489,9.20643729 18.6459489,10.4883463 L18.6459489,20.9766926 C18.6459489,22.2586016 17.5971143,23.3074362 16.3152053,23.3074362 Z" id="Shape" fill="#FED227"></path>
                                <circle id="Oval" fill="#C76E00" cx="9.32297447" cy="15.7325194" r="1.74805771"></circle>
                            </g>
                        </g>
                        <g id="icons8-ok" transform="translate(20.603774, 17.433962)" fill-rule="nonzero">
                            <path d="M21.3962264,10.6981132 C21.3962264,16.6061462 16.6061462,21.3962264 10.6981132,21.3962264 C4.79008019,21.3962264 0,16.6061462 0,10.6981132 C0,4.79008019 4.79008019,0 10.6981132,0 C16.6061462,0 21.3962264,4.79008019 21.3962264,10.6981132 Z" id="Shape" fill="#3AB549"></path>
                            <polygon id="Shape" fill="#FBFBFD" points="16.369183 5.67106981 9.09339623 12.9441821 6.09685472 9.94978019 4.60072358 11.4459113 9.09339623 15.9407236 17.8647792 7.16720094"></polygon>
                        </g>
                        <ellipse id="Oval-3" fill="#E5E5E5" cx="17.0377358" cy="50.3207547" rx="13.8679245" ry="2.77358491"></ellipse>
                    </g>
                </g>
            </g>
        </g>
    </g>
</svg>