<?xml version="1.0" encoding="UTF-8"?>
<svg width="31px" height="18px" viewBox="0 0 31 18" version="1.1" xmlns="http://www.w3.org/2000/svg" xmlns:xlink="http://www.w3.org/1999/xlink">
    <!-- Generator: Sketch 49.3 (51167) - http://www.bohemiancoding.com/sketch -->
    <title>Shape</title>
    <desc>Created with Sketch.</desc>
    <defs></defs>
    <g id="Page-1" stroke="none" stroke-width="1" fill="none" fill-rule="evenodd">
        <path d="M6.13541667,0 C5.77827083,0 5.48958333,0.288 5.48958333,0.642857143 L5.48958333,4.5 C5.48958333,4.85485714 5.77827083,5.14285714 6.13541667,5.14285714 C6.4925625,5.14285714 6.78125,4.85485714 6.78125,4.5 L6.78125,1.28571429 L10.0104167,1.28571429 C10.3675625,1.28571429 10.65625,0.997714286 10.65625,0.642857143 C10.65625,0.288 10.3675625,0 10.0104167,0 L6.13541667,0 Z M21.6354167,0 C21.2782708,0 20.9895833,0.288 20.9895833,0.642857143 C20.9895833,0.997714286 21.2782708,1.28571429 21.6354167,1.28571429 L24.8645833,1.28571429 L24.8645833,4.5 C24.8645833,4.85485714 25.1532708,5.14285714 25.5104167,5.14285714 C25.8675625,5.14285714 26.15625,4.85485714 26.15625,4.5 L26.15625,0.642857143 C26.15625,0.288 25.8675625,0 25.5104167,0 L21.6354167,0 Z M6.86099358,8.35714286 L0.797200521,8.35714286 C0.534921549,8.35714286 0.322916667,8.64514286 0.322916667,9 C0.322916667,9.35485714 0.534921549,9.64285714 0.797200521,9.64285714 L10.6080215,9.64285714 L30.2027995,9.64285714 C30.4650785,9.64285714 30.6770833,9.35485714 30.6770833,9 C30.6770833,8.64514286 30.4650785,8.35714286 30.2027995,8.35714286 L22.9449598,8.35714286 L6.86099358,8.35714286 Z M6.13541667,12.8571429 C5.77827083,12.8571429 5.48958333,13.1451429 5.48958333,13.5 L5.48958333,17.3571429 C5.48958333,17.712 5.77827083,18 6.13541667,18 L10.0104167,18 C10.3675625,18 10.65625,17.712 10.65625,17.3571429 C10.65625,17.0022857 10.3675625,16.7142857 10.0104167,16.7142857 L6.78125,16.7142857 L6.78125,13.5 C6.78125,13.1451429 6.4925625,12.8571429 6.13541667,12.8571429 Z M25.5104167,12.8571429 C25.1532708,12.8571429 24.8645833,13.1451429 24.8645833,13.5 L24.8645833,16.7142857 L21.6354167,16.7142857 C21.2782708,16.7142857 20.9895833,17.0022857 20.9895833,17.3571429 C20.9895833,17.712 21.2782708,18 21.6354167,18 L25.5104167,18 C25.8675625,18 26.15625,17.712 26.15625,17.3571429 L26.15625,13.5 C26.15625,13.1451429 25.8675625,12.8571429 25.5104167,12.8571429 Z" id="Shape" fill="#FBFBFB" fill-rule="nonzero"></path>
    </g>
</svg>