<?xml version="1.0" encoding="UTF-8"?>
<svg width="22px" height="22px" viewBox="0 0 22 22" version="1.1" xmlns="http://www.w3.org/2000/svg" xmlns:xlink="http://www.w3.org/1999/xlink">
    <!-- Generator: Sketch 50.2 (55047) - http://www.bohemiancoding.com/sketch -->
    <title>Group 19</title>
    <desc>Created with Sketch.</desc>
    <defs>
        <linearGradient x1="84.7265625%" y1="77.8710938%" x2="15.6510417%" y2="0%" id="linearGradient-1">
            <stop stop-color="#FF8006" offset="0%"></stop>
            <stop stop-color="#FFC349" offset="100%"></stop>
        </linearGradient>
    </defs>
    <g id="BUGS-14/6" stroke="none" stroke-width="1" fill="none" fill-rule="evenodd">
        <g id="Group-19">
            <g id="bitcoin-copy" fill="url(#linearGradient-1)" stroke="#FFFFFF" stroke-width="3">
                <rect id="Rectangle-3" x="1.5" y="1.5" width="19" height="19" rx="9.5"></rect>
            </g>
            <g id="Group-5" transform="translate(7.809850, 4.875513)" fill="#FFFFFF" fill-rule="nonzero">
                <rect id="Rectangle-path" x="1.55294115" y="0" width="1.0352941" height="2.38894114"></rect>
                <rect id="Rectangle-path" x="3.62352935" y="0" width="1.0352941" height="2.38894114"></rect>
                <rect id="Rectangle-path" x="1.55294115" y="10.352941" width="1.0352941" height="2.38894114"></rect>
                <rect id="Rectangle-path" x="3.62352935" y="10.352941" width="1.0352941" height="2.38894114"></rect>
                <path d="M0,1.55294115 L3.45839994,1.55294115 C4.14272934,1.55294115 4.65312933,1.58348233 4.99011756,1.64508232 C5.32658814,1.70668232 5.62734108,1.83454115 5.89289402,2.02969408 C6.15844695,2.22484702 6.37948224,2.48418819 6.55703518,2.80823525 C6.73407047,3.1322823 6.82258812,3.49567053 6.82258812,3.89839993 C6.82258812,4.3347764 6.71336459,4.73543521 6.49491754,5.09934109 C6.27647048,5.46376461 5.98037637,5.73708226 5.6066352,5.91929402 C6.13411754,6.08442343 6.53891754,6.36654107 6.82207047,6.76461165 C7.10574106,7.16319988 7.2470587,7.63115281 7.2470587,8.16950574 C7.2470587,8.59345868 7.15543517,9.00550573 6.97270576,9.4056469 C6.78997635,9.80578807 6.53995283,10.1262116 6.22315284,10.3653645 C5.90635284,10.6050351 5.51604696,10.7520469 5.05171756,10.8069175 C4.76079992,10.8410822 4.05835287,10.8617881 2.94489407,10.8705881 L0,10.8705881 L0,1.55294115 Z M1.55294115,3.62352935 L1.55294115,5.1764705 L2.7813176,5.1764705 C3.51223523,5.1764705 3.9662117,5.16663521 4.14324699,5.14592932 C4.46418816,5.10917638 4.71679992,5.00254109 4.90056462,4.8255058 C5.08484697,4.64847051 5.1764705,4.41552934 5.1764705,4.12616464 C5.1764705,3.84922346 5.09778815,3.624047 4.93938815,3.45115288 C4.78098815,3.27825877 4.54545875,3.17317642 4.23331757,3.13694112 C4.04696464,3.11623524 3.51275288,3.1058823 2.63016466,3.1058823 L1.55294115,3.1058823 L1.55294115,3.62352935 Z M1.55294115,6.72941165 L1.55294115,9.3176469 L3.280847,9.3176469 C3.95327052,9.3176469 4.38032934,9.29797631 4.56047051,9.25863514 C4.83792933,9.20583514 5.06362344,9.07745867 5.23858815,8.87247044 C5.4130352,8.66799985 5.49999991,8.39364692 5.49999991,8.05044692 C5.49999991,7.76004693 5.43322344,7.51312928 5.29811756,7.31124693 C5.16301168,7.10936458 4.96889403,6.96131753 4.71524698,6.86865871 C4.46108228,6.77548224 3.90875287,6.72941165 3.05981171,6.72941165 L1.55294115,6.72941165 Z" id="Shape"></path>
            </g>
        </g>
    </g>
</svg>