<?xml version="1.0" encoding="UTF-8"?>
<svg width="17px" height="17px" viewBox="0 0 17 17" version="1.1" xmlns="http://www.w3.org/2000/svg" xmlns:xlink="http://www.w3.org/1999/xlink">
    <!-- Generator: Sketch 50.2 (55047) - http://www.bohemiancoding.com/sketch -->
    <title>icons8-us_dollar</title>
    <desc>Created with Sketch.</desc>
    <defs></defs>
    <g id="ATM" stroke="none" stroke-width="1" fill="none" fill-rule="evenodd">
        <g id="Top-up" transform="translate(-303.000000, -305.000000)" fill-rule="nonzero">
            <g id="icons8-us_dollar" transform="translate(303.000000, 305.000000)">
                <path d="M17,8.5 C17,13.1937 13.1937,17 8.5,17 C3.8063,17 0,13.1937 0,8.5 C0,3.8063 3.8063,0 8.5,0 C13.1937,0 17,3.8063 17,8.5 Z" id="Shape" fill="#4CAF50"></path>
                <path d="M9.73165,10.707875 C9.73165,10.36575 9.640275,10.09545 9.457525,9.892725 C9.274775,9.69 8.964525,9.502575 8.52635,9.331725 C8.088175,9.160875 7.100475,8.60625 6.670375,8.206325 C6.4379,7.990425 6.26535,7.7282 6.139125,7.432825 C6.0129,7.135325 5.95,6.783425 5.95,6.375 C5.95,5.6712 6.1608,5.06005 6.54755,4.56875 C7.0788,3.8913 8.075,3.825 8.075,3.825 L8.075,2.55 L8.925,2.55 L8.925,3.825 C9.4197,3.825 10.397625,3.989475 10.9735,4.870925 C11.4818,5.649525 11.475,6.8 11.475,6.8 L9.775,6.8 C9.775,6.2985 9.67555,5.9415 9.477925,5.69415 C9.2769,5.4451 8.97005,5.320575 8.636425,5.320575 C8.3062,5.320575 8.101775,5.463375 7.922425,5.6576 C7.741375,5.85225 7.65,6.11915 7.65,6.461275 C7.65,6.778325 7.737975,7.034175 7.915625,7.225 C8.091575,7.415825 8.368675,7.568825 8.8502,7.767725 C9.330025,7.96875 9.725275,8.156175 10.033825,8.333825 C10.344075,8.511475 10.605025,8.7125 10.817525,8.934775 C11.031725,9.15705 11.1945,9.4129 11.307125,9.6968 C11.418475,9.9841 11.475,10.316025 11.475,10.6964 C11.475,11.4053 11.2625,11.981175 10.8358,12.423175 C10.4091,12.865175 9.67215,13.125275 8.925,13.20475 L8.925,14.45 L8.075,14.45 L8.075,13.21155 C7.25135,13.118475 6.6555,12.8163 6.20415,12.299925 C5.750675,11.78525 5.525,11.0551 5.525,10.2 L7.225,10.2 C7.225,10.6964 7.33805,11.1231 7.565425,11.387025 C7.7928,11.65265 8.0733,11.785675 8.5,11.785675 C8.8536,11.785675 9.220375,11.687925 9.4265,11.494975 C9.6305,11.29905 9.73165,11.038525 9.73165,10.707875 Z" id="Shape" fill="#FFFFFF"></path>
            </g>
        </g>
    </g>
</svg>