<?xml version="1.0" encoding="UTF-8"?>
<svg width="23px" height="22px" viewBox="0 0 23 22" version="1.1" xmlns="http://www.w3.org/2000/svg" xmlns:xlink="http://www.w3.org/1999/xlink">
    <!-- Generator: Sketch 50.2 (55047) - http://www.bohemiancoding.com/sketch -->
    <title>e93bef79bf468b3bfd9dc377ed88f3e1</title>
    <desc>Created with Sketch.</desc>
    <defs></defs>
    <g id="App--Discover-feed" stroke="none" stroke-width="1" fill="none" fill-rule="evenodd">
        <g id="Discover-first-sight" transform="translate(-23.000000, -1107.000000)" fill="#000000" fill-rule="nonzero" stroke="#FFFFFF" stroke-width="0.5">
            <g id="Group-6-Copy" transform="translate(24.000000, 1107.000000)">
                <g id="e93bef79bf468b3bfd9dc377ed88f3e1" transform="translate(0.000000, 1.000000)">
                    <path d="M20.9871429,3.02357143 L20.9871429,2.01642857 C20.9871429,0.906428571 20.1514286,0.00428571429 19.0328571,0.00214285714 L1.87928571,0.0107142857 C0.831428571,0.0557142857 0.00214285714,0.567857143 0,1.62857143 L0.00857142857,14.1 C0.0535714286,15.1714286 0.938571429,16.0307143 2.02928571,16.0307143 L3.10714286,16.0307143 L3.10714286,16.0371429 L7.04571429,16.0307143 C7.60714286,16.0307143 8.05928571,15.8421429 8.05928571,15.285 C8.05928571,14.7278571 7.605,14.4385714 7.04571429,14.4385714 L2.75142857,14.445 C1.96928571,14.3978571 1.70357143,14.2178571 1.61785714,13.59 L1.61142857,2.43642857 C1.71642857,1.85357143 1.99928571,1.68 2.73857143,1.63071429 L19.3842857,1.62214286 L19.3842857,1.64357143 L18.06,1.635 C19.0371429,1.65642857 19.3071429,1.80214286 19.3842857,2.62928571 L19.3735714,13.4871429 C19.3135714,14.2735714 19.0757143,14.4257143 18.2142857,14.4557143 L11.2821429,14.4642857 C11.055,14.3871429 10.8171429,14.4214286 10.5964286,14.5585714 C10.4442857,14.625 10.3221429,14.7278571 10.2407143,14.8628571 L6.27214286,18.7714286 C5.87571429,19.1657143 5.72571429,19.7828571 6.12214286,20.175 C6.51857143,20.5692857 7.16142857,20.3978571 7.55571429,20.0035714 L11.5778571,16.0392857 L17.9485714,16.0328571 L17.9485714,16.0307143 L19.0264286,16.0307143 C20.1471429,16.0307143 20.985,15.1285714 20.985,14.0142857 L20.985,13.0071429 L20.9871429,13.0071429 L20.9978571,3.02785714 L20.9871429,3.02357143 Z M19.3692857,14.4761345 L18.8528571,14.4761345 L19.3692857,14.4514286 L19.3692857,14.4761345 Z M18.0557143,1.65756303 C17.8585714,1.63285714 17.6378571,1.63285714 17.3828571,1.63285714 L18.0557143,1.65756303 Z M11.7021429,8.04214286 C11.7021429,7.37785714 11.16,6.84 10.4914286,6.84 C9.82285714,6.84 9.28071429,7.37785714 9.28071429,8.04214286 C9.28071429,8.70642857 9.82285714,9.24428571 10.4914286,9.24428571 C11.16,9.24428571 11.7021429,8.70642857 11.7021429,8.04214286 Z M4.84071429,8.04214286 C4.84071429,8.70642857 5.38285714,9.24428571 6.05142857,9.24428571 C6.72,9.24428571 7.26214286,8.70642857 7.26214286,8.04214286 C7.26214286,7.37785714 6.72,6.84 6.05142857,6.84 C5.38285714,6.84 4.84071429,7.37785714 4.84071429,8.04214286 Z M16.1421429,8.04214286 C16.1421429,7.37785714 15.6,6.84 14.9314286,6.84 C14.2628571,6.84 13.7207143,7.37785714 13.7207143,8.04214286 C13.7207143,8.70642857 14.2628571,9.24428571 14.9314286,9.24428571 C15.6,9.24428571 16.1421429,8.70642857 16.1421429,8.04214286 Z" id="Shape"></path>
                </g>
            </g>
        </g>
    </g>
</svg>