<?xml version="1.0" encoding="UTF-8"?>
<svg width="14px" height="13px" viewBox="0 0 14 13" version="1.1" xmlns="http://www.w3.org/2000/svg" xmlns:xlink="http://www.w3.org/1999/xlink">
    <!-- Generator: Sketch 50.2 (55047) - http://www.bohemiancoding.com/sketch -->
    <title>icons8-comments</title>
    <desc>Created with Sketch.</desc>
    <defs></defs>
    <g id="Core-UI/UX-Update" stroke="none" stroke-width="1" fill="none" fill-rule="evenodd">
        <g id="New-feed-Copy" transform="translate(-310.000000, -341.000000)" fill="#FFFFFF" fill-rule="nonzero">
            <g id="Group-6" transform="translate(310.000000, 336.000000)">
                <g id="icons8-comments" transform="translate(0.000000, 5.000000)">
                    <path d="M0,0 L0,10.7692308 L5.16165892,10.7692308 L7,12.6075724 L8.83834162,10.7692308 L14,10.7692308 L14,0 L0,0 Z M1.07692308,1.07692308 L12.9230769,1.07692308 L12.9230769,9.69230769 L8.39242815,9.69230769 L7,11.0847358 L5.60757238,9.69230769 L1.07692308,9.69230769 L1.07692308,1.07692308 Z M3.23076923,2.69230769 L3.23076923,3.76923077 L10.7692308,3.76923077 L10.7692308,2.69230769 L3.23076923,2.69230769 Z M3.23076923,4.84615385 L3.23076923,5.92307692 L10.7692308,5.92307692 L10.7692308,4.84615385 L3.23076923,4.84615385 Z M3.23076923,7 L3.23076923,8.07692308 L8.61538462,8.07692308 L8.61538462,7 L3.23076923,7 Z" id="Shape"></path>
                </g>
            </g>
        </g>
    </g>
</svg>