<?xml version="1.0" encoding="UTF-8"?>
<svg width="24px" height="21px" viewBox="0 0 24 21" version="1.1" xmlns="http://www.w3.org/2000/svg" xmlns:xlink="http://www.w3.org/1999/xlink">
    <!-- Generator: Sketch 50.2 (55047) - http://www.bohemiancoding.com/sketch -->
    <title>icons8-image</title>
    <desc>Created with Sketch.</desc>
    <defs></defs>
    <g id="App---Comments" stroke="none" stroke-width="1" fill="none" fill-rule="evenodd">
        <g id="Discover-first-sight-Copy" transform="translate(-15.000000, -437.000000)" fill="#989898" fill-rule="nonzero">
            <g id="icons8-image" transform="translate(15.000000, 437.000000)">
                <path d="M2.57142857,0 C1.15848171,0 0,1.15848171 0,2.57142857 L0,18 C0,19.4129469 1.15848171,20.5714286 2.57142857,20.5714286 L21.4285714,20.5714286 C22.8415183,20.5714286 24,19.4129469 24,18 L24,2.57142857 C24,1.15848171 22.8415183,0 21.4285714,0 L2.57142857,0 Z M2.57142857,1.71428571 L21.4285714,1.71428571 C21.9107143,1.71428571 22.2857143,2.08928571 22.2857143,2.57142857 L22.2857143,15.0267857 L16.2790183,8.68526743 L12.930804,12.4553571 L7.76785714,7.01116114 L1.71428571,13.8281246 L1.71428571,2.57142857 C1.71428571,2.08928571 2.08928571,1.71428571 2.57142857,1.71428571 Z M17.1428571,3.42857143 C16.1986611,3.42857143 15.4285714,4.19866114 15.4285714,5.14285714 C15.4285714,6.08705314 16.1986611,6.85714286 17.1428571,6.85714286 C18.0870531,6.85714286 18.8571429,6.08705314 18.8571429,5.14285714 C18.8571429,4.19866114 18.0870531,3.42857143 17.1428571,3.42857143 Z M7.80803657,9.54241029 L16.6406246,18.8571429 L2.57142857,18.8571429 C2.08928571,18.8571429 1.71428571,18.4821429 1.71428571,18 L1.71428571,16.4129469 L7.80803657,9.54241029 Z M16.3125,11.2232143 L22.2857143,17.5178571 L22.2857143,18 C22.2857143,18.4821429 21.9107143,18.8571429 21.4285714,18.8571429 L18.9977674,18.8571429 L14.1160714,13.7008937 L16.3125,11.2232143 Z" id="Shape"></path>
            </g>
        </g>
    </g>
</svg>