<?xml version="1.0" encoding="UTF-8"?>
<svg width="20px" height="17px" viewBox="0 0 20 17" version="1.1" xmlns="http://www.w3.org/2000/svg" xmlns:xlink="http://www.w3.org/1999/xlink">
    <!-- Generator: Sketch 50.2 (55047) - http://www.bohemiancoding.com/sketch -->
    <title>Shape</title>
    <desc>Created with Sketch.</desc>
    <defs></defs>
    <g id="App---Comments" stroke="none" stroke-width="1" fill="none" fill-rule="evenodd">
        <g id="Discover-first-sight-Copy" transform="translate(-378.000000, -439.000000)" fill="#989898" fill-rule="nonzero">
            <path d="M396.808905,445.680173 L380.672402,439.145459 C379.992597,438.870132 379.224588,438.99125 378.668142,439.461387 C378.111696,439.931599 377.878962,440.656095 378.060837,441.352112 L379.497128,446.849186 L386.529401,446.849186 C386.852995,446.849186 387.115378,447.105222 387.115378,447.421074 C387.115378,447.736887 386.853034,447.992961 386.529401,447.992961 L379.497128,447.992961 L378.060837,453.489998 C377.878962,454.186053 378.111657,454.910548 378.668142,455.380723 C379.225721,455.851812 379.993808,455.971443 380.672441,455.69665 L396.808944,449.161974 C397.543632,448.86446 398,448.197378 398,447.421074 C398,446.644769 397.543632,445.977649 396.808905,445.680173 Z" id="Shape"></path>
        </g>
    </g>
</svg>