<?xml version="1.0" encoding="UTF-8"?>
<svg width="38px" height="35px" viewBox="0 0 38 35" version="1.1" xmlns="http://www.w3.org/2000/svg" xmlns:xlink="http://www.w3.org/1999/xlink">
    <!-- Generator: Sketch 50.2 (55047) - http://www.bohemiancoding.com/sketch -->
    <title>activity</title>
    <desc>Created with Sketch.</desc>
    <defs>
        <path d="M36.7057687,4.30315396 C41.0980586,8.70715568 41.0980586,15.8497255 36.7058795,20.25101 L21.0011043,36 L19.508213,34.503128 L5.29454891,20.2515641 C0.901817075,15.8497255 0.901817075,8.70715568 5.29454865,4.30271133 C9.6232811,-0.0349966895 16.59791,-0.0997914312 20.9999773,4.10758277 C25.4038661,-0.0998487228 32.3796328,-0.0345172222 36.7057687,4.30315396 Z M33.7206496,17.2571566 C36.4634707,14.5086493 36.4634707,10.0472533 33.7202078,7.29667563 C30.9769448,4.54609795 26.5274132,4.54609795 23.7862151,7.2962326 L21.0022115,10.0876597 L19.5094321,8.59334153 L18.2136606,7.2962326 C15.4723889,4.54602417 11.0246279,4.54602417 8.27966793,7.29667563 C5.53640497,10.0472533 5.53640497,14.5086493 8.27966793,17.2575995 L21.0008826,30.0127344 L33.7206496,17.2571566 Z" id="path-1"></path>
    </defs>
    <g id="Page-1" stroke="none" stroke-width="1" fill="none" fill-rule="evenodd">
        <g id="2" transform="translate(-510.000000, -1253.000000)">
            <g id="navbar" transform="translate(0.000000, 1204.000000)">
                <g id="activity" transform="translate(508.000000, 48.000000)">
                    <mask id="mask-2" fill="white">
                        <use xlink:href="#path-1"></use>
                    </mask>
                    <use id="Fill-1" fill="#262628" fill-rule="nonzero" xlink:href="#path-1"></use>
                </g>
            </g>
        </g>
    </g>
</svg>