<?xml version="1.0" encoding="UTF-8"?>
<svg width="46px" height="46px" viewBox="0 0 46 46" version="1.1" xmlns="http://www.w3.org/2000/svg" xmlns:xlink="http://www.w3.org/1999/xlink">
    <!-- Generator: Sketch 51.1 (57501) - http://www.bohemiancoding.com/sketch -->
    <title>album</title>
    <desc>Created with Sketch.</desc>
    <defs></defs>
    <g id="Page-1" stroke="none" stroke-width="1" fill="none" fill-rule="evenodd">
        <g id="324234-copy" transform="translate(-18.000000, -84.000000)">
            <g id="!SONG---144PX" transform="translate(0.000000, 68.000000)">
                <g id="ava" transform="translate(18.000000, 15.500000)">
                    <g id="album">
                        <path d="M23.2299585,0.729957 C35.656293,0.729957 45.7299135,10.803531 45.7299135,23.2299585 C45.7299135,35.6563395 35.656293,45.72996 23.2299585,45.72996 C10.8035775,45.72996 0.7298175,35.6563395 0.7298175,23.2299585 C0.7298175,10.803531 10.8035775,0.729957 23.2299585,0.729957 Z" id="Circle" fill="#D1EFDC"></path>
                        <path d="M14.8518519,14 C13.83044,14 13,14.8875328 13,15.9791667 C13,17.070801 13.83044,17.9583333 14.8518519,17.9583333 L15.962963,17.9583333 L15.962963,31.8125 C15.962963,32.4665528 16.4620948,33 17.0740741,33 L28.9259259,33 C29.5379052,33 30.037037,32.4665528 30.037037,31.8125 L30.037037,17.9583333 L31.1481481,17.9583333 C32.1695604,17.9583333 33,17.070801 33,15.9791667 C33,14.8875328 32.1695604,14 31.1481481,14 L14.8518519,14 Z M14.8518519,14.7916667 L15.962963,14.7916667 L15.962963,17.1666667 L14.8518519,17.1666667 C14.2398726,17.1666667 13.7407407,16.6332195 13.7407407,15.9791667 C13.7407407,15.3251138 14.2398726,14.7916667 14.8518519,14.7916667 Z M16.7037037,14.7916667 L23.3703704,14.7916667 L23.3703704,32.2083333 L17.0740741,32.2083333 C16.8700811,32.2083333 16.7037037,32.0305175 16.7037037,31.8125 L16.7037037,14.7916667 Z M24.1111111,14.7916667 L24.8460648,14.7916667 C24.8460648,15.0112307 25.0124422,15.1890461 25.2164352,15.1875 L25.9571759,15.1875 C26.1626159,15.1875 26.3275463,15.0096841 26.3275463,14.7916667 L27.0740741,14.7916667 L27.0740741,27.8541667 C27.0740741,28.0721841 27.2404515,28.25 27.4444444,28.25 C27.6484374,28.25 27.8148148,28.0721841 27.8148148,27.8541667 L27.8148148,14.7916667 L29.2962963,14.7916667 L29.2962963,31.8125 C29.2962963,32.0305175 29.1299189,32.2083333 28.9259259,32.2083333 L24.1111111,32.2083333 L24.1111111,14.7916667 Z M30.037037,14.7916667 L31.1481481,14.7916667 C31.7601274,14.7916667 32.2592593,15.3251138 32.2592593,15.9791667 C32.2592593,16.6332195 31.7601274,17.1666667 31.1481481,17.1666667 L30.037037,17.1666667 L30.037037,14.7916667 Z M19.6666667,15.5833333 C19.4626737,15.5833333 19.2962963,15.7611492 19.2962963,15.9791667 L19.2962963,20.3333333 C19.2962963,20.5513508 19.4626737,20.7291667 19.6666667,20.7291667 C19.8706596,20.7291667 20.037037,20.5513508 20.037037,20.3333333 L20.037037,15.9791667 C20.037037,15.7611492 19.8706596,15.5833333 19.6666667,15.5833333 Z M21.1481481,15.5833333 C20.9441552,15.5833333 20.7777778,15.7611492 20.7777778,15.9791667 L20.7777778,19.1458333 C20.7777778,19.3638508 20.9441552,19.5416667 21.1481481,19.5416667 C21.3521411,19.5416667 21.5185185,19.3638508 21.5185185,19.1458333 L21.5185185,15.9791667 C21.5185185,15.7611492 21.3521411,15.5833333 21.1481481,15.5833333 Z M25.9586226,16.375 L25.2178819,16.375 C25.0124422,16.375 24.8475115,16.5528159 24.8475115,16.7708333 C24.8489585,16.9903973 25.0138889,17.1666667 25.2178819,17.1666667 L25.9586226,17.1666667 C26.1640626,17.1666667 26.33044,16.9888508 26.328993,16.7708333 C26.328993,16.5512697 26.1640626,16.3734539 25.9586226,16.375 Z M25.9600696,18.3541667 L25.2193289,18.3541667 C25.0138889,18.3541667 24.8489585,18.5319825 24.8504052,18.75 C24.8504052,18.969564 25.0153356,19.1458333 25.2207756,19.1458333 L25.9615163,19.1458333 C26.1655093,19.1458333 26.3318867,18.9680175 26.3318867,18.75 C26.33044,18.5304364 26.1655093,18.3526205 25.9600696,18.3541667 Z M25.9615163,20.3333333 L25.2207756,20.3333333 C25.0153356,20.3333333 24.8504052,20.5111492 24.8504052,20.7291667 C24.8504052,20.9487307 25.0167826,21.125 25.2222222,21.125 L25.962963,21.125 C26.1669559,21.125 26.3318867,20.9471841 26.3318867,20.7291667 C26.3318867,20.5096031 26.1669559,20.3317872 25.9615163,20.3333333 Z M21.1481481,20.3333333 C20.9441552,20.3333333 20.7777778,20.5111492 20.7777778,20.7291667 L20.7777778,22.3125 C20.7777778,22.5305175 20.9441552,22.7083333 21.1481481,22.7083333 C21.3521411,22.7083333 21.5185185,22.5305175 21.5185185,22.3125 L21.5185185,20.7291667 C21.5185185,20.5111492 21.3521411,20.3333333 21.1481481,20.3333333 Z M25.962963,22.7083333 L25.2222222,22.7083333 C25.0182293,22.7083333 24.8518519,22.8861492 24.8518519,23.1041667 C24.8532985,23.3237307 25.0182293,23.5 25.2236689,23.5 L25.9644096,23.5 C26.1698496,23.5 26.33478,23.3221841 26.3333333,23.1041667 C26.3333333,22.8846031 26.168403,22.7067872 25.962963,22.7083333 Z M25.9644096,24.6875 L25.2236689,24.6875 C25.0196759,24.6875 24.8532985,24.8653159 24.8532985,25.0833333 C24.8547456,25.3028973 25.0196759,25.4791667 25.2251159,25.4791667 L25.9658567,25.4791667 C26.1712963,25.4791667 26.336227,25.3013508 26.33478,25.0833333 C26.33478,24.8637697 26.1698496,24.6859539 25.9644096,24.6875 Z M20.4074074,25.0833333 C19.5899885,25.0833333 18.9259259,25.7930502 18.9259259,26.6666667 C18.9259259,27.0315755 19.0431133,27.3794758 19.2514467,27.65625 C19.0431133,27.9330242 18.9259259,28.2809245 18.9259259,28.6458333 C18.9259259,29.5194498 19.5899885,30.2291667 20.4074074,30.2291667 C21.2248263,30.2291667 21.8888889,29.5194498 21.8888889,28.6458333 C21.8888889,28.2809245 21.7717015,27.9330242 21.5633681,27.65625 C21.7717015,27.3794758 21.8888889,27.0315755 21.8888889,26.6666667 C21.8888889,25.7930502 21.2248263,25.0833333 20.4074074,25.0833333 Z M20.4074074,25.875 C20.8153937,25.875 21.1481481,26.2306317 21.1481481,26.6666667 C21.1481481,26.9326172 21.023727,27.180013 20.8153937,27.3269044 C20.7126737,27.4011231 20.650463,27.5232749 20.650463,27.65625 C20.650463,27.7892255 20.7126737,27.9129234 20.8153937,27.9855956 C21.023727,28.132487 21.1481481,28.3798828 21.1481481,28.6458333 C21.1481481,29.0818687 20.8153937,29.4375 20.4074074,29.4375 C19.9994215,29.4375 19.6666667,29.0818687 19.6666667,28.6458333 C19.6666667,28.3798828 19.7910881,28.132487 19.9994215,27.9855956 C20.1021411,27.9113769 20.1643519,27.7892255 20.1643519,27.65625 C20.1643519,27.5232749 20.1021411,27.399577 19.9994215,27.3269044 C19.7910881,27.180013 19.6666667,26.9326172 19.6666667,26.6666667 C19.6666667,26.2306317 19.9994215,25.875 20.4074074,25.875 Z M25.9673033,26.6666667 L25.2265626,26.6666667 C25.0211226,26.6666667 24.8547456,26.8444825 24.8561922,27.0625 C24.8561922,27.282064 25.0211226,27.4583333 25.2265626,27.4583333 L25.9673033,27.4583333 C26.172743,27.4583333 26.3376737,27.2805175 26.3376737,27.0625 C26.336227,26.8429364 26.1712963,26.6651205 25.9673033,26.6666667 Z M25.96875,28.6458333 L25.2280093,28.6458333 C25.0225696,28.6458333 24.8561922,28.8236492 24.8576389,29.0416667 C24.8576389,29.2612307 25.0225696,29.4375 25.2280093,29.4375 L25.96875,29.4375 C26.17419,29.4375 26.3391204,29.2596841 26.3391204,29.0416667 C26.3376737,28.8221031 26.172743,28.6442872 25.96875,28.6458333 Z M27.4444444,29.0416667 C27.2404515,29.0416667 27.0740741,29.2194825 27.0740741,29.4375 L27.0740741,31.0208333 C27.0740741,31.2388508 27.2404515,31.4166667 27.4444444,31.4166667 C27.6484374,31.4166667 27.8148148,31.2388508 27.8148148,31.0208333 L27.8148148,29.4375 C27.8148148,29.2194825 27.6484374,29.0416667 27.4444444,29.0416667 Z M25.96875,30.625 L25.2280093,30.625 C25.0240163,30.625 24.8576389,30.8028159 24.8576389,31.0208333 C24.8590856,31.2403973 25.0240163,31.4182128 25.2294559,31.4166667 L25.9701967,31.4166667 C26.1756367,31.4166667 26.340567,31.2388508 26.3391204,31.0208333 C26.3391204,30.8012697 26.17419,30.625 25.96875,30.625 Z" id="Shape" stroke="#21C364" stroke-width="0.25" fill="#21C364" fill-rule="nonzero"></path>
                    </g>
                </g>
            </g>
        </g>
    </g>
</svg>