<?xml version="1.0" encoding="UTF-8"?>
<svg width="19px" height="19px" viewBox="0 0 19 19" version="1.1" xmlns="http://www.w3.org/2000/svg" xmlns:xlink="http://www.w3.org/1999/xlink">
    <!-- Generator: Sketch 50.2 (55047) - http://www.bohemiancoding.com/sketch -->
    <title>icons8-compass</title>
    <desc>Created with Sketch.</desc>
    <defs></defs>
    <g id="Page-1" stroke="none" stroke-width="1" fill="none" fill-rule="evenodd">
        <g id="2" transform="translate(-105.000000, -625.000000)" fill-rule="nonzero">
            <g id="navbar" transform="translate(0.000000, 602.000000)">
                <g id="icons8-compass" transform="translate(105.500000, 23.500000)">
                    <path d="M8.74405934,2.80507225e-05 C8.72237336,0.000409145928 8.70075975,0.00264505387 8.67945499,0.00671131085 C3.91190993,0.0447160248 0.0468843514,3.90853279 0.00688480069,8.67565482 C-0.00229493356,8.72323661 -0.00229493356,8.77213453 0.00688480069,8.81971632 C0.0444920188,13.5876512 3.90841894,17.4531131 8.67574234,17.4931151 C8.72332365,17.502295 8.77222109,17.502295 8.8198024,17.4931151 C13.58769,17.4555077 17.4531136,13.5915422 17.4931152,8.82417154 C17.5022949,8.77658976 17.5022949,8.72769183 17.4931152,8.68011005 C17.4554963,3.91068323 13.5891819,0.0443306503 8.8198024,0.00671131085 C8.79484144,0.00195835911 8.76946691,-0.000280586045 8.74405934,2.80507225e-05 Z" id="Shape" fill="#000000"></path>
                    <path d="M8.74405934,2.80507225e-05 C8.72237336,0.000409145928 8.70075975,0.00264505387 8.67945499,0.00671131085 C3.91190993,0.0447160248 0.0468843514,3.90853279 0.00688480069,8.67565482 C-0.00229493356,8.72323661 -0.00229493356,8.77213453 0.00688480069,8.81971632 C0.0444920188,13.5876512 3.90841894,17.4531131 8.67574234,17.4931151 C8.72332365,17.502295 8.77222109,17.502295 8.8198024,17.4931151 C13.58769,17.4555077 17.4531136,13.5915422 17.4931152,8.82417154 C17.5022949,8.77658976 17.5022949,8.72769183 17.4931152,8.68011005 C17.4554963,3.91068323 13.5891819,0.0443306503 8.8198024,0.00671131085 C8.79484144,0.00195835911 8.76946691,-0.000280586045 8.74405934,2.80507225e-05 Z M8.40238852,1.45883413 L8.40238852,1.79762287 C8.40061561,1.92298528 8.46647949,2.03959111 8.5747596,2.10278971 C8.68303971,2.1659883 8.81696022,2.1659883 8.92524033,2.10278971 C9.03352044,2.03959111 9.09938432,1.92298528 9.09761141,1.79762287 L9.09761141,1.45883413 C12.8562567,1.63452884 15.8653211,4.64362312 16.041014,8.40230574 L15.7022288,8.40230574 C15.5768676,8.4005328 15.4602629,8.46639733 15.397065,8.57467852 C15.333867,8.68295971 15.333867,8.81688154 15.397065,8.92516273 C15.4602629,9.03344391 15.5768676,9.09930845 15.7022288,9.09753551 L16.041014,9.09753551 C15.8653211,12.8562181 12.8562567,15.8653123 9.09761141,16.041007 L9.09761141,15.7022184 C9.09889808,15.608258 9.06209362,15.5177786 8.99558409,15.4513963 C8.92907455,15.385014 8.83852537,15.3483834 8.74456854,15.3498509 C8.5528552,15.3528477 8.39976311,15.5104977 8.40238852,15.7022184 L8.40238852,16.041007 C4.64374319,15.8653123 1.63467875,12.8562181 1.45898578,9.09753551 L1.79777116,9.09753551 C1.92313233,9.09930845 2.039737,9.03344391 2.10293497,8.92516273 C2.16613294,8.81688154 2.16613294,8.68295971 2.10293497,8.57467852 C2.039737,8.46639733 1.92313233,8.4005328 1.79777116,8.40230574 L1.45898578,8.40230574 C1.63467875,4.64362312 4.64374319,1.63452884 8.40238852,1.45883413 Z M12.9091166,4.23092708 C12.8438351,4.23328817 12.7805397,4.25399467 12.7264847,4.29067339 L7.74790153,7.65411892 C7.71095289,7.67905449 7.67914445,7.71086324 7.65420913,7.74781225 L4.29079696,12.7264448 C4.19749645,12.8644348 4.21518351,13.049213 4.33296687,13.1669975 C4.45075023,13.2847821 4.63552662,13.3024693 4.77351523,13.2091679 L9.75277763,9.84572233 C9.78972615,9.82078672 9.82153446,9.78897797 9.84646969,9.75202899 L13.209203,4.77339645 C13.2826385,4.66503831 13.2889845,4.52461571 13.2256223,4.41007522 C13.1622602,4.29553474 13.0399316,4.2262945 12.9091166,4.23092708 Z M8.19259946,8.19251459 L9.30740047,9.30732666 L5.87134272,11.6286064 L8.19259946,8.19251459 Z" id="Shape" stroke="#000000" stroke-width="0.5" fill="#FFFFFF"></path>
                </g>
            </g>
        </g>
    </g>
</svg>