<?xml version="1.0" encoding="UTF-8"?>
<svg width="36px" height="36px" viewBox="0 0 36 36" version="1.1" xmlns="http://www.w3.org/2000/svg" xmlns:xlink="http://www.w3.org/1999/xlink">
    <!-- Generator: Sketch 50.2 (55047) - http://www.bohemiancoding.com/sketch -->
    <title>Compass</title>
    <desc>Created with Sketch.</desc>
    <defs></defs>
    <g id="Page-1" stroke="none" stroke-width="1" fill="none" fill-rule="evenodd">
        <g id="1" transform="translate(-210.000000, -1250.000000)" fill="#000000" fill-rule="nonzero">
            <g id="navbar" transform="translate(0.000000, 1204.000000)">
                <g id="Compass" transform="translate(210.000000, 46.000000)">
                    <path d="M17.9877792,5.77043434e-05 C17.9431681,0.000841671624 17.8987058,0.00544125367 17.8548788,0.0138061252 C8.04735758,0.0919872511 0.0964478085,8.04041032 0.0141630186,17.8470613 C-0.00472100619,17.9449439 -0.00472100619,18.0455339 0.0141630186,18.1434164 C0.0915264387,27.9517397 8.0401761,35.903547 17.8472414,35.9858368 C17.9451229,36.0047211 18.045712,36.0047211 18.1435935,35.9858368 C27.9518195,35.9084729 35.903548,27.959744 35.985837,18.1525815 C36.004721,18.0546989 36.004721,17.9541089 35.985837,17.8562264 C35.9084495,8.04483407 27.9548885,0.0911944805 18.1435935,0.0138061252 C18.0922452,0.00402862445 18.0400462,-0.000577205577 17.9877792,5.77043434e-05 Z M17.304777,3.41766826 L17.304777,4.09524573 C17.3012312,4.34597056 17.432959,4.57918222 17.6495192,4.70557942 C17.8660794,4.83197661 18.1339204,4.83197661 18.3504807,4.70557942 C18.5670409,4.57918222 18.6987686,4.34597056 18.6952228,4.09524573 L18.6952228,3.41766826 C26.2125135,3.76905769 32.2306422,9.78724625 32.582028,17.3046115 L31.9044575,17.3046115 C31.6537352,17.3010656 31.4205259,17.4327947 31.2941299,17.649357 C31.167734,17.8659194 31.167734,18.1337631 31.2941299,18.3503255 C31.4205259,18.5668878 31.6537352,18.6986169 31.9044575,18.695071 L32.582028,18.695071 C32.2306422,26.2124362 26.2125135,32.2306247 18.6952228,32.582014 L18.6952228,31.9044368 C18.6977962,31.7165159 18.6241872,31.5355571 18.4911682,31.4027925 C18.3581491,31.2700279 18.1770507,31.1967667 17.9891371,31.1997018 C17.6057104,31.2056954 17.2995262,31.5209954 17.304777,31.9044368 L17.304777,32.582014 C9.78748638,32.2306247 3.7693575,26.2124362 3.41797156,18.695071 L4.09554231,18.695071 C4.34626465,18.6986169 4.579474,18.5668878 4.70586994,18.3503255 C4.83226588,18.1337631 4.83226588,17.8659194 4.70586994,17.649357 C4.579474,17.4327947 4.34626465,17.3010656 4.09554231,17.3046115 L3.41797156,17.3046115 C3.7693575,9.78724625 9.78748638,3.76905769 17.304777,3.41766826 Z M26.3182332,8.96185416 C26.1876703,8.96657633 26.0610794,9.00798935 25.9529694,9.08134678 L15.9958031,15.8082378 C15.9219058,15.858109 15.8582889,15.9217265 15.8084183,15.9956245 L9.08159391,25.9528896 C8.8949929,26.2288695 8.93036701,26.598426 9.16593373,26.8339951 C9.40150046,27.0695641 9.77105324,27.1049386 10.0470305,26.9183357 L20.0055553,20.1914447 C20.0794523,20.1415734 20.1430689,20.0779559 20.1929394,20.004058 L26.9184059,10.0467929 C27.065277,9.83007662 27.077969,9.54923142 26.9512447,9.32015045 C26.8245203,9.09106948 26.5798633,8.952589 26.3182332,8.96185416 Z M16.8851989,16.8850292 L19.1148009,19.1146533 L12.2426854,23.7572128 L16.8851989,16.8850292 Z" id="Shape"></path>
                </g>
            </g>
        </g>
    </g>
</svg>