<?xml version="1.0" encoding="UTF-8"?>
<svg width="14px" height="17px" viewBox="0 0 14 17" version="1.1" xmlns="http://www.w3.org/2000/svg" xmlns:xlink="http://www.w3.org/1999/xlink">
    <!-- Generator: Sketch 51 (57462) - http://www.bohemiancoding.com/sketch -->
    <title>icons8-copy</title>
    <desc>Created with Sketch.</desc>
    <defs></defs>
    <g id="Page-1" stroke="none" stroke-width="1" fill="none" fill-rule="evenodd">
        <g id="2" transform="translate(-345.000000, -195.000000)">
            <rect fill="#FFFFFF" x="0" y="0" width="375" height="667"></rect>
            <g id="icons8-copy" transform="translate(345.000000, 195.000000)" fill="#9B9B9B" fill-rule="nonzero">
                <path d="M10.8181818,0.326923077 L10.8181818,2.975 C10.8181818,3.13748077 10.9464091,3.26923077 11.1045455,3.26923077 L13.6818182,3.26923077 L10.8181818,0.326923077 Z" id="Shape"></path>
                <path d="M13.7110909,2.78767308 L11.1990455,0.277884615 C11.0195909,0.0987307692 10.7835,0 10.5334091,0 L4.13636364,0 C3.61009091,0 3.18181818,0.440038462 3.18181818,0.980769231 L3.18181818,2.61538462 L0.954545455,2.61538462 C0.428272727,2.61538462 0,3.05542308 0,3.59615385 L0,16.0192308 C0,16.5599615 0.428272727,17 0.954545455,17 L9.86363636,17 C10.3899091,17 10.8181818,16.5599615 10.8181818,16.0192308 L10.8181818,14.3846154 L13.0454545,14.3846154 C13.5717273,14.3846154 14,13.9445769 14,13.4038462 L14,3.49088462 C14,3.22705769 13.8946818,2.97107692 13.7110909,2.78767308 Z M11.1363636,1.12723077 L12.9528636,2.94230769 L11.4545455,2.94230769 C11.2792273,2.94230769 11.1363636,2.79584615 11.1363636,2.61538462 L11.1363636,1.12723077 Z M13.0454545,13.7307692 L10.8181818,13.7307692 L10.1818182,13.7307692 L4.13636364,13.7307692 C3.96104545,13.7307692 3.81818182,13.5843077 3.81818182,13.4038462 L3.81818182,5.88461538 L3.18181818,5.88461538 L3.18181818,13.4038462 C3.18181818,13.9445769 3.61009091,14.3846154 4.13636364,14.3846154 L10.1818182,14.3846154 L10.1818182,16.0192308 C10.1818182,16.1996923 10.0389545,16.3461538 9.86363636,16.3461538 L0.954545455,16.3461538 C0.779227273,16.3461538 0.636363636,16.1996923 0.636363636,16.0192308 L0.636363636,3.59615385 C0.636363636,3.41569231 0.779227273,3.26923077 0.954545455,3.26923077 L3.18181818,3.26923077 L3.79177273,3.26923077 L3.81818182,3.26923077 L3.81818182,0.980769231 C3.81818182,0.800307692 3.96104545,0.653846154 4.13636364,0.653846154 L10.5,0.653846154 L10.5,2.61538462 C10.5,3.15611538 10.9282727,3.59615385 11.4545455,3.59615385 L13.3636364,3.59615385 L13.3636364,13.4038462 C13.3636364,13.5843077 13.2207727,13.7307692 13.0454545,13.7307692 Z" id="Shape"></path>
            </g>
        </g>
    </g>
</svg>