<?xml version="1.0" encoding="UTF-8"?>
<svg width="25px" height="23px" viewBox="0 0 25 23" version="1.1" xmlns="http://www.w3.org/2000/svg" xmlns:xlink="http://www.w3.org/1999/xlink">
    <!-- Generator: Sketch 50.2 (55047) - http://www.bohemiancoding.com/sketch -->
    <title>Shape</title>
    <desc>Created with Sketch.</desc>
    <defs></defs>
    <g id="Page-1" stroke="none" stroke-width="1" fill="none" fill-rule="evenodd">
        <g id="2" transform="translate(-257.000000, -624.000000)" fill="#979797" fill-rule="nonzero">
            <g id="Tab-Bar" transform="translate(0.000000, 612.000000)">
                <g id="Group-3" transform="translate(254.000000, 12.000000)">
                    <g id="icons8-like" transform="translate(3.000000, 0.000000)">
                        <path d="M7.06521739,0 C3.16958207,0 0,3.27162715 0,7.29268293 C0,15.5736472 9.07353967,19.6604421 12.1603261,22.316311 L12.5,22.6143293 L12.8396739,22.316311 C15.9264609,19.6604421 25,15.5736472 25,7.29268293 C25,3.27162715 21.8304179,0 17.9347826,0 C15.7311484,0 13.7950071,1.08031617 12.5,2.71722561 C11.2049935,1.08031617 9.26885217,0 7.06521739,0 Z M7.06521739,1.12195122 C9.1499663,1.12195122 10.9714674,2.22637195 12.0414402,3.89176829 L12.5,4.5929878 L12.9585598,3.89176829 C14.0285326,2.22637195 15.8500342,1.12195122 17.9347826,1.12195122 C21.2423576,1.12195122 23.9130435,3.87862071 23.9130435,7.29268293 C23.9130435,14.528392 16.0835598,18.2733424 12.5,21.1943598 C8.91644022,18.2733424 1.08695652,14.528392 1.08695652,7.29268293 C1.08695652,3.87862071 3.75764293,1.12195122 7.06521739,1.12195122 Z" id="Shape"></path>
                    </g>
                </g>
            </g>
        </g>
    </g>
</svg>