<?xml version="1.0" encoding="UTF-8"?>
<svg width="28px" height="21px" viewBox="0 0 28 21" version="1.1" xmlns="http://www.w3.org/2000/svg" xmlns:xlink="http://www.w3.org/1999/xlink">
    <!-- Generator: Sketch 51 (57462) - http://www.bohemiancoding.com/sketch -->
    <title>Group</title>
    <desc>Created with Sketch.</desc>
    <defs></defs>
    <g id="Page-1" stroke="none" stroke-width="1" fill="none" fill-rule="evenodd">
        <g id="2" transform="translate(-33.000000, -94.000000)">
            <rect fill="#FFFFFF" x="0" y="0" width="375" height="667"></rect>
            <g id="Group" transform="translate(33.000000, 94.000000)">
                <path d="M1.4,0 C0.607031133,0 0,0.593834804 0,1.36956522 L0,17.8043478 C0,18.5800782 0.607031133,19.173913 1.4,19.173913 L1.86666667,19.173913 L1.86666667,19.6304348 C1.86666667,19.9960087 2.00703113,20.3597995 2.28593773,20.5880603 C2.56666667,20.8626869 2.89296887,21 3.26666667,21 L26.6,21 C27.3929689,21 28,20.4061652 28,19.6304348 L28,3.19565217 C28,2.41992176 27.3929689,1.82608696 26.6,1.82608696 L26.1333333,1.82608696 L26.1333333,1.36956522 C26.1333333,0.593834804 25.5263022,0 24.7333333,0 L1.4,0 Z M26.1333333,2.73913043 L26.6,2.73913043 C26.8807294,2.73913043 27.0666667,2.92102604 27.0666667,3.19565217 L27.0666667,19.6304348 C27.0666667,19.9050614 26.8807294,20.0869565 26.6,20.0869565 L3.26666667,20.0869565 C3.1263022,20.0869565 3.03333333,20.0405913 2.94036447,19.9496435 C2.84739607,19.8586957 2.8,19.7677478 2.8,19.6304348 L2.8,19.173913 L24.7333333,19.173913 C25.5263022,19.173913 26.1333333,18.5800782 26.1333333,17.8043478 L26.1333333,2.73913043 Z" id="Shape" fill="#FFFFFF" fill-rule="nonzero"></path>
                <path d="M7,1.82608696 C6.71927107,1.82608696 6.53333333,2.00798257 6.53333333,2.2826087 L6.53333333,3.19565217 C6.53333333,3.47027876 6.71927107,3.65217391 7,3.65217391 C7.2807294,3.65217391 7.46666667,3.47027876 7.46666667,3.19565217 L7.46666667,2.2826087 C7.46666667,2.00798257 7.2807294,1.82608696 7,1.82608696 Z" id="Path" fill="#21C364"></path>
                <path d="M9.3861978,2.40387228 C9.20208333,2.38247283 9.01796887,2.47698698 8.91223947,2.64818263 L8.4455728,3.42391304 C8.3526044,3.69853963 8.4,3.9268005 8.63333333,4.06411357 C8.7263022,4.10869565 8.81927107,4.15506137 8.86666667,4.10869565 C9.00703113,4.10869565 9.19296887,4.01774785 9.28776053,3.88043478 L9.7544272,3.10470437 C9.89296887,2.8764435 9.84739607,2.60181737 9.56666667,2.46628748 C9.50833333,2.43062172 9.4481772,2.41100543 9.3861978,2.40387228 Z" id="Path" fill="#21C364"></path>
                <path d="M4.6338544,2.44845437 C4.5700522,2.45558752 4.5026044,2.47698698 4.43333333,2.51086957 C4.2,2.64818263 4.1526044,2.92280922 4.2455728,3.15107009 L4.71223947,3.92501687 C4.80703113,4.06233039 4.94739607,4.15327774 5.13333333,4.15327774 C5.1807294,4.15327774 5.2736978,4.15506137 5.36666667,4.10869565 C5.6,3.97138259 5.64739607,3.696756 5.5544272,3.46849513 L5.08776053,2.69454835 C4.98203113,2.5233527 4.82343773,2.42705491 4.6338544,2.44845437 Z" id="Path" fill="#21C364"></path>
                <path d="M11.0085939,4.06589674 C10.9466145,4.07124672 10.8846355,4.08551302 10.8263022,4.10869565 L10.0333333,4.56521739 C9.7526044,4.747113 9.70703113,5.02173913 9.8455728,5.25 C9.94036447,5.38731307 10.0807294,5.47826087 10.2666667,5.47826087 C10.3596355,5.47826087 10.4070311,5.43367878 10.5,5.38731307 L11.2929689,4.93079133 C11.5263022,4.79347826 11.6192711,4.56521739 11.4789061,4.29237443 C11.375,4.12117878 11.1908855,4.05163043 11.0085939,4.06589674 Z" id="Path" fill="#21C364"></path>
                <path d="M3.0388022,4.0872962 C2.85468773,4.05341361 2.67239607,4.13187828 2.56666667,4.33695652 C2.4263022,4.56521739 2.52109387,4.83984398 2.70703113,4.97715704 L3.5,5.43367878 C3.59296887,5.47826087 3.68593773,5.47826087 3.77890613,5.47826087 C3.96666667,5.47826087 4.10703113,5.38731307 4.2,5.25 C4.34036447,5.02173913 4.2455728,4.747113 4.01223947,4.60979948 L3.21927107,4.15327774 C3.16093773,4.11939561 3.10078113,4.09621252 3.0388022,4.0872962 Z" id="Path" fill="#21C364"></path>
                <path d="M7.0455728,4.56521739 C5.74036447,4.56521739 4.71223947,5.56920867 4.71223947,6.84782609 C4.71223947,8.1264435 5.74036447,9.13043478 7.0455728,9.13043478 C8.3526044,9.13043478 9.37890613,8.1264435 9.37890613,6.84782609 C9.37890613,5.56920867 8.3526044,4.56521739 7.0455728,4.56521739 Z" id="Path" fill="#21C364"></path>
                <path d="M7.0455728,5.3409478 C7.88593773,5.3409478 8.58776053,6.02573041 8.58776053,6.84782609 C8.58776053,7.66992176 7.88593773,8.35470437 7.0455728,8.35470437 C6.20703113,8.35470437 5.50703113,7.66992176 5.50703113,6.84782609 C5.50703113,6.02573041 6.20703113,5.3409478 7.0455728,5.3409478 Z" id="Path" fill="#21C364"></path>
                <path d="M2.33333333,6.39130435 C2.0526044,6.39130435 1.86666667,6.57319996 1.86666667,6.84782609 C1.86666667,7.12245267 2.0526044,7.30434783 2.33333333,7.30434783 L3.26666667,7.30434783 C3.54739607,7.30434783 3.73333333,7.12245267 3.73333333,6.84782609 C3.73333333,6.57319996 3.54739607,6.39130435 3.26666667,6.39130435 L2.33333333,6.39130435 Z" id="Path" fill="#21C364"></path>
                <path d="M10.7333333,6.39130435 C10.4526044,6.39130435 10.2666667,6.57319996 10.2666667,6.84782609 C10.2666667,7.12245267 10.4526044,7.30434783 10.7333333,7.30434783 L11.6666667,7.30434783 C11.9473961,7.30434783 12.1333333,7.12245267 12.1333333,6.84782609 C12.1333333,6.57319996 11.9473961,6.39130435 11.6666667,6.39130435 L10.7333333,6.39130435 Z" id="Path" fill="#21C364"></path>
                <path d="M3.7205728,8.21917448 C3.66223947,8.22630763 3.6057294,8.24057393 3.54739607,8.26197339 L2.7526044,8.71849513 C2.51927107,8.85580865 2.4263022,9.08406952 2.56666667,9.35869565 C2.65963553,9.49600872 2.8,9.58695652 2.98593773,9.58695652 C3.0807294,9.58695652 3.1263022,9.54237443 3.21927107,9.49600872 L4.01223947,9.03948698 C4.2455728,8.90217391 4.34036447,8.67391304 4.2,8.40107009 C4.05963553,8.26375702 3.89375,8.203125 3.7205728,8.21917448 Z" id="Path" fill="#21C364"></path>
                <path d="M10.2721355,8.24057393 C10.0880211,8.20847498 9.9057294,8.28515648 9.8,8.49023426 C9.70703113,8.67391304 9.7544272,8.94853963 9.98776053,9.0858527 L10.7789061,9.54237443 C10.8736978,9.58695652 10.9192711,9.63153861 11.0122395,9.63153861 C11.2,9.63153861 11.3403645,9.54059126 11.4333333,9.40327774 C11.5736978,9.17501687 11.4789061,8.90217391 11.2455728,8.76486085 L10.4544272,8.30833911 C10.3960939,8.27445652 10.3341145,8.25127389 10.2721355,8.24057393 Z" id="Path" fill="#21C364"></path>
                <path d="M5.1861978,9.57090704 C5.00208333,9.54950759 4.81796887,9.64402174 4.71223947,9.81521739 L4.2455728,10.5909478 C4.10703113,10.8192087 4.1526044,11.0938348 4.43333333,11.2293647 C4.5263022,11.2757304 4.61927107,11.3220957 4.66666667,11.2757304 C4.80703113,11.2757304 4.99296887,11.1847826 5.08776053,11.0474695 L5.5544272,10.2717391 C5.64739607,9.997113 5.6,9.76885213 5.36666667,9.63153861 C5.30833333,9.59765648 5.2481772,9.5780402 5.1861978,9.57090704 Z" id="Path" fill="#21C364"></path>
                <path d="M8.8338544,9.57090704 C8.7700522,9.5780402 8.7026044,9.59765648 8.63333333,9.63153861 C8.4,9.76885213 8.3526044,10.0434783 8.4455728,10.2717391 L8.91223947,11.0474695 C9.00703113,11.1847826 9.14739607,11.2757304 9.33333333,11.2757304 C9.3807294,11.2757304 9.4736978,11.2757304 9.56666667,11.2293647 C9.8,11.0938348 9.84739607,10.8192087 9.7544272,10.5909478 L9.28776053,9.81521739 C9.18203113,9.64402174 9.02343773,9.54950759 8.8338544,9.57090704 Z" id="Path" fill="#21C364"></path>
                <path d="M20.0666667,9.98641304 C19.7057294,9.98641304 19.3429689,10.1112434 19.0877605,10.3626869 L15.1666667,14.196756 L13.5789061,12.6452956 C13.0666667,12.0978261 12.1807294,12.0978261 11.6210939,12.6452956 L7.7455728,16.4347826 L6.06666667,16.4347826 C5.78593773,16.4347826 5.6,16.6166782 5.6,16.8913043 C5.6,17.1659309 5.83333333,17.3478261 6.06666667,17.3478261 L23.8,17.3478261 C24.0333333,17.3478261 24.2666667,17.1659309 24.2666667,16.8913043 C24.2666667,16.6166782 24.0333333,16.4347826 23.8,16.4347826 L14.1877605,16.4347826 L19.7403645,11.0011038 C19.9263022,10.8192087 20.2070311,10.8192087 20.3929689,11.0011038 L23.4736978,14.0148608 C23.6596355,14.196756 23.9403645,14.196756 24.1263022,14.0148608 C24.3122395,13.8329652 24.3122395,13.5583391 24.1263022,13.3764435 L21.0455728,10.3626869 C20.7903645,10.1112434 20.4276044,9.98641304 20.0666667,9.98641304 Z" id="Path" fill="#21C364"></path>
                <path d="M7,10.0434783 C6.71927107,10.0434783 6.53333333,10.2253739 6.53333333,10.5 L6.53333333,11.4130435 C6.53333333,11.6876701 6.71927107,11.8695652 7,11.8695652 C7.2807294,11.8695652 7.46666667,11.6876701 7.46666667,11.4130435 L7.46666667,10.5 C7.46666667,10.2253739 7.2807294,10.0434783 7,10.0434783 Z" id="Path" fill="#21C364"></path>
                <path d="M12.6,13.1481826 C12.7166667,13.1481826 12.8333333,13.1927652 12.9263022,13.2837125 L14.5122395,14.8369565 L12.8789061,16.4347826 L9.0544272,16.4347826 L12.2736978,13.2837125 C12.3666667,13.1927652 12.4833333,13.1481826 12.6,13.1481826 Z" id="Path" fill="#21C364"></path>
                <path d="M2.33333333,16.4347826 C2.0526044,16.4347826 1.86666667,16.6166782 1.86666667,16.8913043 C1.86666667,17.1659309 2.0526044,17.3478261 2.33333333,17.3478261 L4.2,17.3478261 C4.4807294,17.3478261 4.66666667,17.1659309 4.66666667,16.8913043 C4.66666667,16.6166782 4.4807294,16.4347826 4.2,16.4347826 L2.33333333,16.4347826 Z" id="Path" fill="#21C364"></path>
            </g>
        </g>
    </g>
</svg>