<?xml version="1.0" encoding="UTF-8"?>
<svg width="356px" height="207px" viewBox="0 0 356 207" version="1.1" xmlns="http://www.w3.org/2000/svg" xmlns:xlink="http://www.w3.org/1999/xlink">
    <!-- Generator: Sketch 51.1 (57501) - http://www.bohemiancoding.com/sketch -->
    <title>photo</title>
    <desc>Created with Sketch.</desc>
    <defs>
        <path d="M3.6,0 L344.4,4.4408921e-16 C346.388225,7.88581843e-17 348,1.6117749 348,3.6 L348,189.4 C348,191.388225 346.388225,193 344.4,193 L3.6,193 C1.6117749,193 -5.97376159e-15,191.388225 -6.21724894e-15,189.4 L0,3.6 C-2.4348735e-16,1.6117749 1.6117749,-5.4079287e-15 3.6,-5.77315973e-15 Z" id="path-1"></path>
        <filter x="-6.0%" y="-5.7%" width="112.1%" height="121.8%" filterUnits="objectBoundingBox" id="filter-2">
            <feMorphology radius="5" operator="erode" in="SourceAlpha" result="shadowSpreadOuter1"></feMorphology>
            <feOffset dx="0" dy="10" in="shadowSpreadOuter1" result="shadowOffsetOuter1"></feOffset>
            <feGaussianBlur stdDeviation="7" in="shadowOffsetOuter1" result="shadowBlurOuter1"></feGaussianBlur>
            <feComposite in="shadowBlurOuter1" in2="SourceAlpha" operator="out" result="shadowBlurOuter1"></feComposite>
            <feColorMatrix values="0 0 0 0 0.2   0 0 0 0 0.247059   0 0 0 0 0.219608  0 0 0 0.202417 0" type="matrix" in="shadowBlurOuter1"></feColorMatrix>
        </filter>
        <mask id="mask-3" maskContentUnits="userSpaceOnUse" maskUnits="objectBoundingBox" x="0" y="0" width="348" height="193" fill="white">
            <use xlink:href="#path-1"></use>
        </mask>
    </defs>
    <g id="Page-1" stroke="none" stroke-width="1" fill="none" fill-rule="evenodd">
        <g id="234242" transform="translate(-10.000000, -319.000000)">
            <g id="photo" transform="translate(14.000000, 319.000000)">
                <g id="Rectangle-2" stroke-dasharray="2.7">
                    <use fill="black" fill-opacity="1" filter="url(#filter-2)" xlink:href="#path-1"></use>
                    <use stroke="#21C364" mask="url(#mask-3)" stroke-width="2" fill="#FFFFFF" fill-rule="evenodd" xlink:href="#path-1"></use>
                </g>
                <g id="Group-2" transform="translate(127.000000, 71.000000)">
                    <text id=".-PDF-.-JPG-.-PNG-." font-family="OpenSans-Semibold, Open Sans" font-size="6.5" font-weight="500" letter-spacing="-0.0420588218" fill="#232327" fill-opacity="0.836588542">
                        <tspan x="10.5" y="38">. PDF  . JPG  . PNG . DOC</tspan>
                    </text>
                    <g id="Group" transform="translate(0.000000, 45.000000)" fill="#696969" fill-opacity="0.836588542" font-family="OpenSans-Semibold, Open Sans" font-size="7" font-weight="500" letter-spacing="-0.0452941135">
                        <text id="You-can-also-upload">
                            <tspan x="1.06850178" y="7">You can also upload files by </tspan>
                        </text>
                    </g>
                    <g id="upload" transform="translate(35.000000, 0.000000)" fill="#000000" fill-opacity="0.212069746" fill-rule="nonzero">
                        <path d="M18.1270833,5.39916667 C17.88875,3.98291667 17.1875,2.69041667 16.115,1.70958333 C14.9233333,0.61875 13.3741667,0.0183333333 11.7608333,0.0183333333 C10.5141667,0.0183333333 9.29958333,0.375833333 8.25916667,1.04958333 C7.39291667,1.60875 6.67333333,2.365 6.16458333,3.25416667 C5.94458333,3.21291667 5.71541667,3.19 5.48625,3.19 C3.53833333,3.19 1.9525,4.77583333 1.9525,6.72375 C1.9525,6.97583333 1.98,7.21875 2.02583333,7.45708333 C0.765416667,8.37375 0,9.84958333 0,11.4216667 C0,12.69125 0.472083333,13.9241667 1.33375,14.9004167 C2.21833333,15.8995833 3.38708333,16.4908333 4.63375,16.5595833 C4.6475,16.5595833 4.65666667,16.5595833 4.67041667,16.5595833 L8.61208333,16.5595833 C8.95583333,16.5595833 9.23083333,16.2845833 9.23083333,15.9408333 C9.23083333,15.5970833 8.95583333,15.3220833 8.61208333,15.3220833 L4.68875,15.3220833 C2.81416667,15.2075 1.2375,13.4245833 1.2375,11.4170833 C1.2375,10.12 1.93416667,8.91 3.05708333,8.25458333 C3.31833333,8.10333333 3.42833333,7.78708333 3.3275,7.50291667 C3.23583333,7.25541667 3.19,6.99416667 3.19,6.71458333 C3.19,5.44958333 4.22125,4.41833333 5.48625,4.41833333 C5.75666667,4.41833333 6.0225,4.46416667 6.27,4.55583333 C6.5725,4.66583333 6.90708333,4.52833333 7.04458333,4.23958333 C7.90166667,2.42 9.75333333,1.24666667 11.7654167,1.24666667 C14.4695833,1.24666667 16.7016667,3.2725 16.9583333,5.95833333 C16.9858333,6.23791667 17.1966667,6.4625 17.4716667,6.50833333 C19.51125,6.85666667 21.05125,8.74041667 21.05125,10.89 C21.05125,13.1679167 19.2591667,15.1479167 17.05,15.3175 L13.6720833,15.3175 C13.3283333,15.3175 13.0533333,15.5925 13.0533333,15.93625 C13.0533333,16.28 13.3283333,16.555 13.6720833,16.555 L17.0729167,16.555 C17.0866667,16.555 17.1004167,16.555 17.11875,16.555 C18.5166667,16.4541667 19.8229167,15.8125 20.7945833,14.74 C21.7616667,13.6766667 22.28875,12.3108333 22.28875,10.89 C22.2841667,8.31875 20.52875,6.03166667 18.1270833,5.39916667 Z" id="Shape"></path>
                        <path d="M14.8591667,12.0083333 C15.1020833,11.7654167 15.1020833,11.3758333 14.8591667,11.1329167 L11.5820833,7.85583333 C11.4675,7.74125 11.3070833,7.6725 11.1466667,7.6725 C10.98625,7.6725 10.8258333,7.73666667 10.71125,7.85583333 L7.43416667,11.1329167 C7.19125,11.3758333 7.19125,11.7654167 7.43416667,12.0083333 C7.55333333,12.1275 7.71375,12.1916667 7.86958333,12.1916667 C8.02541667,12.1916667 8.18583333,12.1320833 8.305,12.0083333 L10.5279167,9.78541667 L10.5279167,20.0016667 C10.5279167,20.3454167 10.8029167,20.6204167 11.1466667,20.6204167 C11.4904167,20.6204167 11.7654167,20.3454167 11.7654167,20.0016667 L11.7654167,9.78541667 L13.9883333,12.0083333 C14.2266667,12.25125 14.61625,12.25125 14.8591667,12.0083333 Z" id="Shape"></path>
                    </g>
                </g>
            </g>
        </g>
    </g>
</svg>