<?xml version="1.0" encoding="UTF-8"?>
<svg width="81px" height="37px" viewBox="0 0 81 37" version="1.1" xmlns="http://www.w3.org/2000/svg" xmlns:xlink="http://www.w3.org/1999/xlink">
    <!-- Generator: Sketch 51.1 (57501) - http://www.bohemiancoding.com/sketch -->
    <title>upload</title>
    <desc>Created with Sketch.</desc>
    <defs></defs>
    <g id="Page-1" stroke="none" stroke-width="1" fill="none" fill-rule="evenodd">
        <g id="234242" transform="translate(-151.000000, -384.000000)">
            <g id="photo" transform="translate(17.000000, 319.000000)">
                <g id="Group-2" transform="translate(106.000000, 66.000000)">
                    <g id="upload" transform="translate(28.000000, 0.000000)">
                        <path d="M47.6440217,9.17444444 C47.3331522,7.28611111 46.4184783,5.56277778 45.0195652,4.255 C43.4652174,2.80055556 41.4445652,2 39.3402174,2 C37.7141304,2 36.1298913,2.47666667 34.7728261,3.375 C33.6429348,4.12055556 32.7043478,5.12888889 32.0407609,6.31444444 C31.7538043,6.25944444 31.4548913,6.22888889 31.1559783,6.22888889 C28.6152174,6.22888889 26.5467391,8.34333333 26.5467391,10.9405556 C26.5467391,11.2766667 26.5826087,11.6005556 26.6423913,11.9183333 C24.9983696,13.1405556 24,15.1083333 24,17.2044444 C24,18.8972222 24.6157609,20.5411111 25.7396739,21.8427778 C26.8934783,23.175 28.4179348,23.9633333 30.0440217,24.055 C30.0619565,24.055 30.073913,24.055 30.0918478,24.055 L35.2331522,24.055 C35.6815217,24.055 36.0402174,23.6883333 36.0402174,23.23 C36.0402174,22.7716667 35.6815217,22.405 35.2331522,22.405 L30.1157609,22.405 C27.6706522,22.2522222 25.6141304,19.875 25.6141304,17.1983333 C25.6141304,15.4688889 26.5228261,13.8555556 27.9875,12.9816667 C28.3282609,12.78 28.4717391,12.3583333 28.3402174,11.9794444 C28.2206522,11.6494444 28.1608696,11.3011111 28.1608696,10.9283333 C28.1608696,9.24166667 29.5059783,7.86666667 31.1559783,7.86666667 C31.5086957,7.86666667 31.8554348,7.92777778 32.1782609,8.05 C32.5728261,8.19666667 33.0092391,8.01333333 33.188587,7.62833333 C34.3065217,5.20222222 36.7217391,3.63777778 39.3461957,3.63777778 C42.8733696,3.63777778 45.7847826,6.33888889 46.1195652,9.92 C46.1554348,10.2927778 46.4304348,10.5922222 46.7891304,10.6533333 C49.4494565,11.1177778 51.4581522,13.6294444 51.4581522,16.4955556 C51.4581522,19.5327778 49.1206522,22.1727778 46.2391304,22.3988889 L41.8331522,22.3988889 C41.3847826,22.3988889 41.026087,22.7655556 41.026087,23.2238889 C41.026087,23.6822222 41.3847826,24.0488889 41.8331522,24.0488889 L46.2690217,24.0488889 C46.2869565,24.0488889 46.3048913,24.0488889 46.3288043,24.0488889 C48.1521739,23.9144444 49.8559783,23.0588889 51.1233696,21.6288889 C52.3847826,20.2111111 53.0722826,18.39 53.0722826,16.4955556 C53.0663043,13.0672222 50.7766304,10.0177778 47.6440217,9.17444444 Z" id="Shape" fill="#21C364" fill-rule="nonzero"></path>
                        <path d="M43.2771739,18.0111111 C43.5940217,17.6872222 43.5940217,17.1677778 43.2771739,16.8438889 L39.0027174,12.4744444 C38.8532609,12.3216667 38.6440217,12.23 38.4347826,12.23 C38.2255435,12.23 38.0163043,12.3155556 37.8668478,12.4744444 L33.5923913,16.8438889 C33.2755435,17.1677778 33.2755435,17.6872222 33.5923913,18.0111111 C33.7478261,18.17 33.9570652,18.2555556 34.1603261,18.2555556 C34.363587,18.2555556 34.5728261,18.1761111 34.7282609,18.0111111 L37.6277174,15.0472222 L37.6277174,28.6688889 C37.6277174,29.1272222 37.986413,29.4938889 38.4347826,29.4938889 C38.8831522,29.4938889 39.2418478,29.1272222 39.2418478,28.6688889 L39.2418478,15.0472222 L42.1413043,18.0111111 C42.4521739,18.335 42.9603261,18.335 43.2771739,18.0111111 Z" id="Shape" fill="#21C364" fill-rule="nonzero"></path>
                        <g id="Group-2" transform="translate(0.869565, 0.000000)" stroke="#2DBE60">
                            <ellipse id="Oval-2" stroke-width="1.125" fill="#D1EFDC" cx="10.5882353" cy="3.06944444" rx="3.05882353" ry="3.06944444"></ellipse>
                            <ellipse id="Oval-2" stroke-width="0.63" fill="#D1EFDC" cx="15.2941176" cy="16.2916667" rx="1" ry="1"></ellipse>
                            <polygon id="Shape" stroke-width="0.6" fill="#2DBE60" fill-rule="nonzero" stroke-linecap="round" stroke-linejoin="round" points="2.78074866 8.97222222 2.78074866 11.7626263 0 11.7626263 0 12.3207071 2.78074866 12.3207071 2.78074866 15.1111111 3.3368984 15.1111111 3.3368984 12.3207071 6.11764706 12.3207071 6.11764706 11.7626263 3.3368984 11.7626263 3.3368984 8.97222222"></polygon>
                        </g>
                        <g id="Group-3" transform="translate(61.000000, 12.000000)" stroke="#2DBE60">
                            <ellipse id="Oval-2" fill="#D1EFDC" cx="3.16666667" cy="12.7777778" rx="3.16666667" ry="3.19444444"></ellipse>
                            <ellipse id="Oval-2" stroke-width="0.875" fill="#D1EFDC" cx="11.7166667" cy="22.0416667" rx="1" ry="1"></ellipse>
                            <g id="icons8-plus_math" transform="translate(10.766667, 0.000000)" fill="#2DBE60" fill-rule="nonzero" stroke-linecap="round" stroke-linejoin="round" stroke-width="0.625">
                                <polygon id="Shape" points="3.74242424 0 3.74242424 3.77525253 0 3.77525253 0 4.53030303 3.74242424 4.53030303 3.74242424 8.30555556 4.49090909 8.30555556 4.49090909 4.53030303 8.23333333 4.53030303 8.23333333 3.77525253 4.49090909 3.77525253 4.49090909 0"></polygon>
                            </g>
                        </g>
                    </g>
                </g>
            </g>
        </g>
    </g>
</svg>