<?xml version="1.0" encoding="UTF-8"?>
<svg width="179px" height="66px" viewBox="0 0 179 66" version="1.1" xmlns="http://www.w3.org/2000/svg" xmlns:xlink="http://www.w3.org/1999/xlink">
    <!-- Generator: Sketch 50.2 (55047) - http://www.bohemiancoding.com/sketch -->
    <title>Group 14 Copy 2</title>
    <desc>Created with Sketch.</desc>
    <defs></defs>
    <g id="Page-1" stroke="none" stroke-width="1" fill="none" fill-rule="evenodd">
        <g id="Ninja" transform="translate(-871.000000, -95.000000)" fill="#000000">
            <g id="Group-14-Copy-2" transform="translate(871.000000, 95.000000)">
                <path d="M130.721622,14.4738795 L130.721622,52.8305786 C130.721622,60.6290083 127.413028,65.6797894 120.484375,65.6797894 C118.233591,65.6797894 115.862334,65.0413563 113.676195,63.5705737 L116.423561,57.4965098 C117.737008,58.1349428 118.982873,58.4571427 120.108265,58.3915094 C122.605871,58.2632261 123.167098,56.2822937 123.167098,52.8305786 L123.167098,14.4738795 L130.721622,14.4738795 Z" id="Fill-1"></path>
                <path d="M145.760259,34.3876949 C145.760259,41.6434806 151.794842,47.694937 158.610268,47.694937 C175.824152,47.694937 175.824152,21.1579592 158.610268,21.1579592 C151.131863,21.1579592 145.760259,27.1319093 145.760259,34.3876949 Z M172.61828,15.4016231 L178.976986,15.4016231 L178.976986,53.4512732 L172.771502,53.4512732 L172.314783,47.8946649 C170.178517,52.3721464 161.736583,54.5333809 157.540661,54.6108872 C146.402612,54.6883936 138.163991,47.7396522 138.163991,34.3876949 C138.163991,21.2682567 146.785667,14.3970217 157.770494,14.474528 C162.806189,14.474528 170.178517,16.8682815 172.314783,20.651187 L172.61828,15.4016231 Z" id="Fill-4"></path>
                <path d="M39.4421734,21.2217354 C35.2619923,17.0515783 29.4880989,14.4738795 23.1073574,14.4738795 C10.3488203,14.4738795 0,24.7965809 0,37.5243408 L0,54.2466408 L8.54889739,54.2466408 C8.49292597,53.7376495 8.4664132,53.2227051 8.4664132,52.6928778 L8.4664132,38.3994487 C8.4664132,30.3329779 15.0209606,23.7964576 23.1073574,23.7964576 C27.1520287,23.7964576 30.8078459,25.4305877 33.4620694,28.0707942 C36.1104012,30.7169538 37.7483016,34.3662133 37.7483016,38.3994487 L37.7483016,52.6928778 C37.7483016,53.2227051 37.7247347,53.7376495 37.6658174,54.2466408 L46.2147148,54.2466408 L46.2147148,37.5243408 C46.2147148,31.1604609 43.6282462,25.3978455 39.4421734,21.2217354" id="Fill-6"></path>
                <path d="M108.584188,21.2217354 C104.404007,17.0515783 98.6271678,14.4738795 92.2493722,14.4738795 C79.4908351,14.4738795 69.1420148,24.7965809 69.1420148,37.5243408 L69.1420148,54.2466408 L77.6879664,54.2466408 C77.6319949,53.7376495 77.608428,53.2227051 77.608428,52.6928778 L77.608428,38.3994487 C77.608428,30.3329779 84.1600296,23.7964576 92.2493722,23.7964576 C96.2910977,23.7964576 99.9498608,25.4305877 102.604084,28.0707942 C105.24947,30.7169538 106.887371,34.3662133 106.887371,38.3994487 L106.887371,52.6928778 C106.887371,53.2227051 106.863804,53.7376495 106.807832,54.2466408 L115.35673,54.2466408 L115.35673,37.5243408 C115.35673,31.1604609 112.770261,25.3978455 108.584188,21.2217354" id="Fill-8"></path>
                <polygon id="Fill-10" points="53.8971609 54.2466408 61.579607 54.2466408 61.579607 14.4738795 53.8971609 14.4738795"></polygon>
                <path d="M122.559023,4.13539414 C122.559023,1.85091032 124.358858,0 126.580303,0 C128.79884,0 130.601584,1.85091032 130.601584,4.13539414 C130.601584,6.41987797 128.79884,8.27078829 126.580303,8.27078829 C124.358858,8.27078829 122.559023,6.41987797 122.559023,4.13539414" id="Fill-12"></path>
                <path d="M53.5370462,4.13539414 C53.5370462,1.85091032 55.3368817,0 57.5583266,0 C59.7768638,0 61.579607,1.85091032 61.579607,4.13539414 C61.579607,6.41987797 59.7768638,8.27078829 57.5583266,8.27078829 C55.3368817,8.27078829 53.5370462,6.41987797 53.5370462,4.13539414" id="Fill-13"></path>
            </g>
        </g>
    </g>
</svg>