<?xml version="1.0" encoding="UTF-8"?>
<svg width="84px" height="84px" viewBox="0 0 84 84" version="1.1" xmlns="http://www.w3.org/2000/svg" xmlns:xlink="http://www.w3.org/1999/xlink">
    <!-- Generator: Sketch 52.1 (67048) - http://www.bohemiancoding.com/sketch -->
    <title>Group 9</title>
    <desc>Created with Sketch.</desc>
    <g id="Page-1" stroke="none" stroke-width="1" fill="none" fill-rule="evenodd">
        <g id="landing-page" transform="translate(-378.000000, -80.000000)">
            <g id="Group-8" transform="translate(378.000000, 68.000000)">
                <g id="Group-9" transform="translate(0.000000, 12.000000)">
                    <path d="M82.32,41.58 C82.32,64.0801233 64.0799176,82.32 41.5801325,82.32 C19.0800824,82.32 0.84,64.0801233 0.84,41.58 C0.84,19.0801417 19.0800824,0.84 41.5801325,0.84 C64.0799176,0.84 82.32,19.0801417 82.32,41.58" id="Fill-1" fill="#020303"></path>
                    <path d="M57.96,20.6978593 C57.96,20.6978593 59.2386638,21.8830287 60.5085749,23.52 C62.5420288,22.7877598 66.36,20.6978593 66.36,20.6978593 L62.1602574,15.96 L57.96,20.6978593 Z" id="Fill-3" fill="#FEFEFE"></path>
                    <polygon id="Fill-5" fill="#FEFEFE" points="61.32 24.2310105 65.52 22.68 65.52 26.04 62.2687407 26.04"></polygon>
                    <path d="M69.6538089,69.6537181 C66.0610791,73.2462047 61.8788673,76.0660049 57.2215068,78.0354778 C56.7686931,78.2279847 56.3110934,78.4074627 55.852696,78.581623 L55.852696,64.3544613 L55.847644,60.631421 C55.813344,59.2195267 55.3974892,57.9028223 54.6973962,56.780486 C60.7506885,52.6968941 64.7305567,45.7751554 64.7305567,37.9246509 C64.7305567,25.3710227 54.5538146,15.1944821 42,15.1944821 C29.4467172,15.1944821 19.2699751,25.3710227 19.2699751,37.9246509 C19.2699751,45.7751554 23.2501092,52.6968941 29.3026038,56.7799542 C28.5788464,57.9413768 28.1574079,59.3099305 28.1483676,60.7768647 L23.7630145,57.5438661 C23.8478339,57.4029426 23.9302604,57.262019 24.009762,57.1234885 C24.2791104,56.6491346 24.5064479,56.1891389 24.6832659,55.782056 C24.8606157,55.3757708 24.9871802,55.0218666 25.0653524,54.7671406 C25.1456517,54.5140101 25.1783564,54.3595259 25.1783564,54.3595259 C25.1783564,54.3595259 25.044347,54.4427506 24.8342924,54.6046797 C24.6213131,54.7655453 24.3312252,55.0045835 24.009762,55.3100951 C23.6875012,55.6150749 23.3328015,55.9857304 22.9788996,56.401056 C22.882115,56.5148584 22.7845327,56.6318515 22.6872163,56.7512377 L17.1404478,52.5751149 L14.8096405,55.6844731 L20.4630315,59.9430228 C20.4542571,59.9584446 20.4436214,59.9741324 20.4353788,59.9895542 C20.1660304,60.464174 19.9384271,60.9241697 19.761609,61.3307208 C19.5837274,61.7372719 19.4574288,62.0911761 19.3787249,62.3456362 C19.2976279,62.598235 19.2649232,62.7521873 19.2649232,62.7521873 C19.2649232,62.7521873 19.3986667,62.6689626 19.6087213,62.5065017 C19.8209029,62.3459021 20.110459,62.1063321 20.4321881,61.8008205 C20.754183,61.4955748 21.1083509,61.1249193 21.4633164,60.7095937 C21.4681025,60.7040099 21.4731544,60.6970967 21.4779405,60.6915129 L28.1241715,65.4592487 L28.1470382,78.581623 C27.6889066,78.4074627 27.2318386,78.2279847 26.7784932,78.0354778 C22.1219304,76.0660049 17.9394526,73.2462047 14.3467229,69.6537181 C10.7539931,66.0609656 7.93367899,61.8779296 5.96448445,57.2213373 C3.92589216,52.4022842 2.89237081,47.2803783 2.89237081,41.9997341 C2.89237081,36.7193558 3.92589216,31.5977158 5.96448445,26.777865 C7.93367899,22.1212727 10.7539931,17.9387685 14.3467229,14.346016 C17.9394526,10.7537953 22.1219304,7.93346333 26.7784932,5.96399043 C31.5980476,3.92538523 36.7191233,2.89185733 42,2.89185733 C47.2808767,2.89185733 52.4019524,3.92538523 57.2215068,5.96399043 C61.8788673,7.93346333 66.0610791,10.7537953 69.6538089,14.346016 C73.2460069,17.9387685 76.066321,22.1212727 78.0360473,26.777865 C80.0746396,31.5977158 81.108161,36.7193558 81.108161,41.9997341 C81.108161,47.2803783 80.0746396,52.4022842 78.0360473,57.2213373 C76.066321,61.8779296 73.2460069,66.0609656 69.6538089,69.6537181 M29.9641426,38.8310817 C27.4671529,39.7016169 25.1246463,39.2751238 24.6970923,36.7515289 C24.6970923,36.7515289 24.5681348,35.6204181 24.6784799,35.0705504 C24.7457505,34.6081617 24.8733785,34.1643855 25.0520578,33.748794 C26.9808368,28.5101609 33.8373882,24.6360931 42,24.6360931 C50.1626118,24.6360931 57.0191632,28.509895 58.948474,33.7477304 C59.1271532,34.1643855 59.2547813,34.6081617 59.3223178,35.071614 C59.4321311,35.6209499 59.3029077,36.7515289 59.3029077,36.7515289 C58.8758855,39.2751238 56.4443052,39.9244356 54.0366551,38.8310817 C48.9480182,36.5202016 36.8650979,36.4236822 29.9641426,38.8310817 M42,0 C18.8043986,0 0,18.80372 0,41.9997341 C0,60.341863 11.7587982,75.9341217 28.1470382,81.6585421 C32.4850626,83.1733372 37.1458796,84 42,84 C46.8546522,84 51.5154692,83.1733372 55.852696,81.6585421 C72.2417336,75.9341217 84,60.341863 84,41.9997341 C84,18.80372 65.1963991,0 42,0" id="Fill-7" fill="#FEFEFE"></path>
                </g>
            </g>
        </g>
    </g>
</svg>