<?xml version="1.0" encoding="UTF-8"?>
<svg width="124px" height="59px" viewBox="0 0 124 59" version="1.1" xmlns="http://www.w3.org/2000/svg" xmlns:xlink="http://www.w3.org/1999/xlink">
    <!-- Generator: Sketch 50.2 (55047) - http://www.bohemiancoding.com/sketch -->
    <title>Group 13</title>
    <desc>Created with Sketch.</desc>
    <defs>
        <polygon id="path-1" points="0 58.6405917 123.701408 58.6405917 123.701408 0 0 0"></polygon>
    </defs>
    <g id="Page-1" stroke="none" stroke-width="1" fill="none" fill-rule="evenodd">
        <g id="Final" transform="translate(-80.000000, -42.000000)">
            <g id="Group-13" transform="translate(80.000000, 42.000000)">
                <path d="M18.0161088,48.0733967 L18.0161088,33.6778883 C18.0161088,30.9830633 16.5469568,29.95843 14.2088128,29.95843 C11.9787968,29.95843 10.8365088,31.0907383 10.0205888,32.0067133 L10.0205888,48.0733967 L0.2305408,48.0733967 L0.2305408,22.0342383 L10.0205888,22.0342383 L10.0205888,24.9984967 C11.5433088,23.2732383 14.4260608,21.3862217 19.0492768,21.3862217 C25.1406528,21.3862217 27.8056608,25.0535633 27.8056608,29.5813217 L27.8056608,48.0733967 L18.0161088,48.0733967 Z" id="Fill-1" fill="#FFFFFF"></path>
                <path d="M32.6456784,11.3693492 C32.6456784,8.35002417 35.0929424,5.9246325 38.1393744,5.9246325 C41.1848144,5.9246325 43.6325744,8.35002417 43.6325744,11.3693492 C43.6325744,14.3886742 41.1848144,16.8160325 38.1393744,16.8160325 C35.0929424,16.8160325 32.6456784,14.3886742 32.6456784,11.3693492" id="Fill-3" fill="#FFFFFF"></path>
                <mask id="mask-2" fill="white">
                    <use xlink:href="#path-1"></use>
                </mask>
                <g id="Clip-6"></g>
                <polygon id="Fill-5" fill="#FFFFFF" mask="url(#mask-2)" points="33.2444 48.0736917 43.033952 48.0736917 43.033952 22.0345333 33.2444 22.0345333"></polygon>
                <path d="M66.257168,48.0733967 L66.257168,33.6778883 C66.257168,30.9830633 64.789504,29.95843 62.449872,29.95843 C60.220848,29.95843 59.07856,31.0907383 58.262144,32.0067133 L58.262144,48.0733967 L48.473088,48.0733967 L48.473088,22.0342383 L58.262144,22.0342383 L58.262144,24.9984967 C59.78536,23.2732383 62.668112,21.3862217 67.291328,21.3862217 C73.382704,21.3862217 76.047712,25.0535633 76.047712,29.5813217 L76.047712,48.0733967 L66.257168,48.0733967 Z" id="Fill-7" fill="#FFFFFF" mask="url(#mask-2)"></path>
                <path d="M73.0011312,56.8610042 L75.3407632,49.6905375 C76.4274992,50.4998208 77.0817232,50.7151708 78.6039472,50.7151708 C80.3984752,50.7151708 81.4852112,49.4215958 81.4852112,46.9411375 L81.4852112,22.0342875 L91.2767472,22.0342875 L91.2767472,46.9411375 C91.2767472,53.6278042 87.9575152,58.6403458 80.3434192,58.6403458 C76.3734352,58.6403458 75.1225232,58.1565458 73.0011312,56.8610042" id="Fill-8" fill="#FFFFFF" mask="url(#mask-2)"></path>
                <path d="M80.8882256,11.3693492 C80.8882256,8.35002417 83.3354896,5.9246325 86.3809296,5.9246325 C89.4263696,5.9246325 91.8731376,8.35002417 91.8731376,11.3693492 C91.8731376,14.3886742 89.4263696,16.8160325 86.3809296,16.8160325 C83.3354896,16.8160325 80.8882256,14.3886742 80.8882256,11.3693492" id="Fill-9" fill="#FFFFFF" mask="url(#mask-2)"></path>
                <path d="M113.900795,38.3697158 L113.900795,31.7381158 C112.976747,30.6058075 111.127163,30.0123658 109.822187,30.0123658 C107.157179,30.0123658 104.926171,31.7907242 104.926171,35.0258908 C104.926171,38.2610575 107.157179,40.1480742 109.822187,40.1480742 C111.127163,40.1480742 112.976747,39.5020242 113.900795,38.3697158 Z M113.900795,48.0732492 L113.900795,45.3243408 C111.671771,47.8033242 109.169451,48.7197908 106.504443,48.7197908 C100.141755,48.7197908 94.9188752,43.9766825 94.9188752,35.0258908 C94.9188752,26.3995992 100.033131,21.3860742 106.504443,21.3860742 C109.169451,21.3860742 111.781387,22.3030325 113.847723,24.7834908 L113.847723,22.0340908 L123.691835,22.0340908 L123.691835,48.0732492 L113.900795,48.0732492 Z" id="Fill-10" fill="#FFFFFF" mask="url(#mask-2)"></path>
                <polygon id="Fill-11" fill="#F6DA25" mask="url(#mask-2)" points="0.000496 9.771875 123.700416 9.771875 123.700416 0 0.000496 0"></polygon>
                <polygon id="Fill-12" fill="#F6DA25" mask="url(#mask-2)" points="0 24.8753833 123.701408 24.8753833 123.701408 15.1035083 0 15.1035083"></polygon>
            </g>
        </g>
    </g>
</svg>