<svg xmlns="http://www.w3.org/2000/svg" viewBox="0 0 71.58 47.32"><defs><style>.cls-1{fill:#3a98d4;stroke:#fff;stroke-miterlimit:10;}.cls-2{fill:#fff;}</style></defs><title>Asset 5</title><g id="Layer_2" data-name="Layer 2"><g id="Layer_1-2" data-name="Layer 1"><g id="Amex"><path class="cls-1" d="M66.67.5H4.91A4.42,4.42,0,0,0,.5,4.91v37.5a4.42,4.42,0,0,0,4.41,4.41H66.67a4.42,4.42,0,0,0,4.41-4.41V4.91A4.42,4.42,0,0,0,66.67.5Z"/></g><g id="Amex-2" data-name="Amex"><path class="cls-2" d="M15.72,24.31H19.2L17.46,20ZM64.1,16.07H55.2L53,18.45l-2-2.39H32.21L30.48,20l-1.74-3.9H21.15V17.8l-.87-1.74H13.77L7.48,31.25h7.59l.87-2.39h2.17L19,31.25h8.46V29.52l.65,1.74h4.34l.65-2v2H50.43l2.17-2.39,2,2.39h8.89l-5.64-7.59Zm-26.25,13H35.46V20.62l-3.69,8.46H29.61l-3.69-8.46v8.46h-5l-.87-2.39H14.86L14,29.08H11.17l4.56-10.85h3.69l4.12,10.2V18.24h4.12l3.25,7.38,3-7.38h4.12V29.08Zm21.47,0H56.07l-2.82-3.69L50,29.08H40.24V18.24h10l3,3.47,3.25-3.47h3l-4.77,5.42ZM42.62,20.4v2H48v2.17H42.62V26.7H48.7l2.82-3.25-2.6-3Z"/></g></g></g></svg>