<svg xmlns="http://www.w3.org/2000/svg" xmlns:xlink="http://www.w3.org/1999/xlink" viewBox="0 0 71.96 44.59"><defs><style>.cls-1{fill:url(#linear-gradient);}.cls-2{fill:#f58220;}.cls-3{fill:#fff;}.cls-4{fill:url(#radial-gradient);}.cls-5{fill:#091a23;}</style><linearGradient id="linear-gradient" x1="35.98" x2="35.98" y2="44.59" gradientUnits="userSpaceOnUse"><stop offset="0" stop-color="#f3f3f3"/><stop offset="1" stop-color="#ccc"/></linearGradient><radialGradient id="radial-gradient" cx="31.41" cy="-470.59" r="5.17" gradientTransform="translate(6.42 486.08)" gradientUnits="userSpaceOnUse"><stop offset="0.01" stop-color="#ffeee1"/><stop offset="0.11" stop-color="#fee9d8"/><stop offset="0.28" stop-color="#fddbc0"/><stop offset="0.49" stop-color="#fbc598"/><stop offset="0.74" stop-color="#f8a661"/><stop offset="1" stop-color="#f48220"/></radialGradient></defs><title>Asset 7</title><g id="Layer_2" data-name="Layer 2"><g id="Layer_1-2" data-name="Layer 1"><rect class="cls-1" width="71.96" height="44.59" rx="3.91" ry="3.91"/><path class="cls-2" d="M71.12,24.07S51.87,37.65,16.62,43.74H69.68l1.44-1.56Z"/><path class="cls-3" d="M68.05.78a3.13,3.13,0,0,1,3.13,3.13V40.67a3.13,3.13,0,0,1-3.13,3.13H3.91A3.13,3.13,0,0,1,.78,40.67V3.91A3.13,3.13,0,0,1,3.91.78H68.05m0-.78H3.91A3.92,3.92,0,0,0,0,3.91V40.67a3.92,3.92,0,0,0,3.91,3.91H68.05A3.92,3.92,0,0,0,72,40.67V3.91A3.92,3.92,0,0,0,68.05,0Z"/><path class="cls-4" d="M37.84,10.38a5.15,5.15,0,0,0-5.24,5,5.23,5.23,0,1,0,5.24-5Z"/><path class="cls-5" d="M8.1,10.56H5.28v9.82h2.8a5.12,5.12,0,0,0,3.5-1.13,4.94,4.94,0,0,0,1.78-3.77C13.37,12.58,11.2,10.56,8.1,10.56Zm2.24,7.38a3.63,3.63,0,0,1-2.62.78H7.2v-6.5h.51a3.56,3.56,0,0,1,2.62.79,3.3,3.3,0,0,1,1.06,2.44A3.36,3.36,0,0,1,10.34,17.94Z"/><rect class="cls-5" x="14.25" y="10.56" width="1.91" height="9.82"/><path class="cls-5" d="M20.85,14.33c-1.15-.43-1.49-.71-1.49-1.24S20,12,20.79,12a2,2,0,0,1,1.55.79l1-1.31a4.29,4.29,0,0,0-2.89-1.09,2.88,2.88,0,0,0-3.06,2.81c0,1.36.62,2,2.41,2.7a7.42,7.42,0,0,1,1.33.56,1.17,1.17,0,0,1,.58,1,1.4,1.4,0,0,1-1.49,1.38,2.26,2.26,0,0,1-2.09-1.31l-1.24,1.19a3.82,3.82,0,0,0,3.4,1.87,3.17,3.17,0,0,0,3.39-3.23C23.68,15.83,23,15.13,20.85,14.33Z"/><path class="cls-5" d="M24.28,15.48a5.09,5.09,0,0,0,5.19,5.13,5.28,5.28,0,0,0,2.4-.57V17.78a3.06,3.06,0,0,1-2.31,1.07,3.21,3.21,0,0,1-3.3-3.39,3.27,3.27,0,0,1,3.21-3.37,3.21,3.21,0,0,1,2.4,1.1V10.94a4.89,4.89,0,0,0-2.36-.6A5.16,5.16,0,0,0,24.28,15.48Z"/><polygon class="cls-5" points="47.39 17.16 44.77 10.56 42.68 10.56 46.85 20.64 47.88 20.64 52.12 10.56 50.05 10.56 47.39 17.16"/><polygon class="cls-5" points="52.99 20.39 58.43 20.39 58.43 18.72 54.91 18.72 54.91 16.07 58.29 16.07 58.29 14.41 54.91 14.41 54.91 12.23 58.43 12.23 58.43 10.56 52.99 10.56 52.99 20.39"/><path class="cls-5" d="M66,13.46c0-1.84-1.27-2.9-3.48-2.9H59.69v9.82h1.92V16.44h.25l2.65,3.95h2.36l-3.09-4.14A2.61,2.61,0,0,0,66,13.46Zm-3.84,1.62h-.56v-3h.59c1.2,0,1.84.5,1.84,1.46S63.39,15.08,62.17,15.08Z"/></g></g></svg>