<svg xmlns="http://www.w3.org/2000/svg" xmlns:xlink="http://www.w3.org/1999/xlink" viewBox="0 0 74.07 45.89"><defs><style>.cls-1{fill:url(#linear-gradient);}.cls-2{fill:#fff;}.cls-3{fill:#941d1f;}.cls-4{fill:#f06724;}.cls-5{fill:#f89921;}.cls-6{fill:#cc2028;}</style><linearGradient id="linear-gradient" x1="37.04" x2="37.04" y2="45.89" gradientUnits="userSpaceOnUse"><stop offset="0" stop-color="#1072ba"/><stop offset="1" stop-color="#2e368f"/></linearGradient></defs><title>Asset 2</title><g id="Layer_2" data-name="Layer 2"><g id="Layer_1-2" data-name="Layer 1"><rect class="cls-1" width="74.07" height="45.89" rx="4.03" ry="4.03"/><path class="cls-2" d="M70,.81A3.22,3.22,0,0,1,73.27,4V41.87A3.22,3.22,0,0,1,70,45.09H4A3.22,3.22,0,0,1,.81,41.87V4A3.22,3.22,0,0,1,4,.81H70M70,0H4A4,4,0,0,0,0,4V41.87a4,4,0,0,0,4,4H70a4,4,0,0,0,4-4V4a4,4,0,0,0-4-4Z"/><path class="cls-3" d="M28.7,10.54A12.33,12.33,0,1,0,37.06,32h0a12.34,12.34,0,0,0,1.25-1.32H35.79a12,12,0,0,1-.92-1.27h4.35a12.36,12.36,0,0,0,.72-1.32H34.16a12,12,0,0,1-.51-1.3h6.81a12.3,12.3,0,0,0,.63-3.91,12.43,12.43,0,0,0-.28-2.64H33.28a12.64,12.64,0,0,1,.35-1.29h6.81a12.48,12.48,0,0,0-.53-1.32H34.16a11.89,11.89,0,0,1,.71-1.3h4.35a12.29,12.29,0,0,0-1-1.32H35.83a11.27,11.27,0,0,1,1.23-1.25,12.24,12.24,0,0,0-8.28-3.22Zm0,0"/><path class="cls-4" d="M57.6,22.88a12.31,12.31,0,1,1-24.61,0h0a12.31,12.31,0,1,1,24.61,0Zm0,0"/><path class="cls-5" d="M57.6,23A12.31,12.31,0,1,1,33,23h0A12.31,12.31,0,1,1,57.6,23Zm0,0"/><path class="cls-6" d="M28.7,10.68a12.33,12.33,0,1,0,8.36,21.45h0a12.13,12.13,0,0,0,1.25-1.32H35.79a11.87,11.87,0,0,1-.92-1.27h4.35a12.48,12.48,0,0,0,.72-1.32H34.16a12.16,12.16,0,0,1-.51-1.29h6.81A12.31,12.31,0,0,0,41.09,23a12.43,12.43,0,0,0-.28-2.64H33.28a12.72,12.72,0,0,1,.35-1.29h6.81a12.54,12.54,0,0,0-.53-1.32H34.16a12,12,0,0,1,.71-1.29h4.35a12.48,12.48,0,0,0-1-1.32H35.83a11.42,11.42,0,0,1,1.23-1.25,12.24,12.24,0,0,0-8.28-3.21Zm0,0"/><path class="cls-2" d="M33.21,26.16,33.37,25c-.09,0-.22,0-.34,0-.46,0-.51-.24-.48-.42l.37-2.28h.69l.17-1.23h-.65l.13-.77H32s-.77,4.32-.77,4.84a1,1,0,0,0,1,1.11,3.43,3.43,0,0,0,1-.17Zm0,0"/><path class="cls-2" d="M33.62,24a2.06,2.06,0,0,0,2.26,2.3,3.31,3.31,0,0,0,1.38-.22l.23-1.27a4.05,4.05,0,0,1-1.39.33c-1.41,0-1.16-1.05-1.16-1.05h2.66a9.54,9.54,0,0,0,.17-1.2A1.76,1.76,0,0,0,35.92,21c-1.32,0-2.29,1.42-2.29,3Zm2.3-1.85c.74,0,.6.83.6.9H35.07c0-.09.14-.9.85-.9Zm0,0"/><path class="cls-2" d="M44.22,26.16l.24-1.43a3.14,3.14,0,0,1-1.08.32,1.3,1.3,0,0,1-1.3-1.48c0-1.55.8-2.4,1.69-2.4a2.33,2.33,0,0,1,1.2.38l.21-1.39a4.69,4.69,0,0,0-1.48-.32c-1.51,0-3,1.31-3,3.79,0,1.64.8,2.72,2.36,2.72a6,6,0,0,0,1.15-.18Zm0,0"/><path class="cls-2" d="M26,21a4.52,4.52,0,0,0-1.59.29l-.19,1.13a4.14,4.14,0,0,1,1.43-.23c.49,0,.84.05.84.45a.84.84,0,0,1,0,.33s-.38,0-.56,0c-1.13,0-2.32.48-2.32,1.95a1.25,1.25,0,0,0,1.26,1.42,1.7,1.7,0,0,0,1.34-.6l0,.5h1.15l.51-3.62A1.55,1.55,0,0,0,26,21ZM26.28,24c0,.22-.14,1.26-.93,1.26a.48.48,0,0,1-.51-.5c0-.36.19-.79,1.16-.79a.86.86,0,0,1,.29,0Zm0,0"/><path class="cls-2" d="M29,26.29c.29,0,2,.08,2-1.67s-1.56-1.31-1.56-2c0-.32.25-.43.72-.43.18,0,.9.06.9.06l.17-1.16A6.11,6.11,0,0,0,30,21c-1,0-2,.39-2,1.71,0,1.5,1.64,1.35,1.64,2,0,.42-.46.46-.81.46a4.22,4.22,0,0,1-1.16-.2l-.18,1.15a4.08,4.08,0,0,0,1.47.16Zm0,0"/><path class="cls-2" d="M55.07,20l-.28,1.76a1.73,1.73,0,0,0-1.26-.68c-1.2,0-2.2,1.45-2.2,3.12,0,1.08.53,2.13,1.62,2.13a1.63,1.63,0,0,0,1.22-.55l-.06.47h1.27l1-6.24Zm-.61,3.43c0,.69-.34,1.62-1.05,1.62-.47,0-.69-.4-.69-1,0-1,.46-1.69,1-1.69s.72.33.72,1.09Zm0,0"/><path class="cls-2" d="M18.91,26.22l.8-4.71.12,4.71h.9l1.68-4.71-.75,4.71H23L24,20H22l-1.29,3.83L20.6,20H18.69l-1,6.25Zm0,0"/><path class="cls-2" d="M39.1,26.23c.38-2.17.45-3.94,1.36-3.62a5.09,5.09,0,0,1,.49-1.52,1.33,1.33,0,0,0-.25,0c-.59,0-1,.8-1,.8l.12-.74H38.57l-.82,5.09Zm0,0"/><path class="cls-2" d="M47.24,21a4.52,4.52,0,0,0-1.59.29l-.19,1.13a4.13,4.13,0,0,1,1.43-.23c.49,0,.84.05.84.45a.83.83,0,0,1,0,.33s-.38,0-.56,0c-1.13,0-2.32.48-2.32,1.95a1.25,1.25,0,0,0,1.26,1.42,1.7,1.7,0,0,0,1.34-.6l0,.5h1.15L49,22.6A1.55,1.55,0,0,0,47.24,21ZM47.52,24c0,.22-.14,1.26-.93,1.26a.48.48,0,0,1-.51-.5c0-.36.2-.79,1.15-.79a.87.87,0,0,1,.29,0Zm0,0"/><path class="cls-2" d="M50.1,26.23c.38-2.17.45-3.94,1.36-3.62a5.07,5.07,0,0,1,.49-1.52,1.35,1.35,0,0,0-.25,0c-.59,0-1,.8-1,.8l.12-.74H49.57l-.82,5.09Zm0,0"/></g></g></svg>