<svg xmlns="http://www.w3.org/2000/svg" xmlns:xlink="http://www.w3.org/1999/xlink" viewBox="0 0 71.96 44.59"><defs><style>.cls-1{fill:none;}.cls-2{fill:url(#linear-gradient);}.cls-3{fill:#fff;}.cls-4{fill:#0059a0;}.cls-5{fill:#f9a61c;}.cls-6{clip-path:url(#clip-path);}.cls-7{clip-path:url(#clip-path-2);}</style><linearGradient id="linear-gradient" x1="35.98" x2="35.98" y2="44.59" gradientUnits="userSpaceOnUse"><stop offset="0" stop-color="#f3f3f3"/><stop offset="1" stop-color="#ccc"/></linearGradient><clipPath id="clip-path"><rect class="cls-1" x="0.78" y="32.66" width="70.4" height="11.21"/></clipPath><clipPath id="clip-path-2"><rect class="cls-1" x="0.78" y="0.8" width="70.4" height="11.21"/></clipPath></defs><title>Asset 6</title><g id="Layer_2" data-name="Layer 2"><g id="Layer_1-2" data-name="Layer 1"><rect class="cls-2" width="71.96" height="44.59" rx="3.91" ry="3.91"/><path class="cls-3" d="M68.05.78a3.13,3.13,0,0,1,3.13,3.13V40.67a3.13,3.13,0,0,1-3.13,3.13H3.91A3.13,3.13,0,0,1,.78,40.67V3.91A3.13,3.13,0,0,1,3.91.78H68.05m0-.78H3.91A3.92,3.92,0,0,0,0,3.91V40.67a3.92,3.92,0,0,0,3.91,3.91H68.05A3.92,3.92,0,0,0,72,40.67V3.91A3.92,3.92,0,0,0,68.05,0Z"/><polygon class="cls-4" points="16.54 17.07 19.91 29.78 23.82 29.78 29.9 15.06 25.94 15.06 22.1 25.05 20.53 17.23 16.54 17.07 16.54 17.07"/><polygon class="cls-4" points="31.38 15.01 29.05 29.78 32.74 29.78 35.13 15.01 31.38 15.01 31.38 15.01"/><path class="cls-4" d="M46,18.54l.54-3.1A10.8,10.8,0,0,0,43,14.79c-2,0-6.19,1.25-6.19,4.89S42,23.48,42,25.49s-4.72,1.79-6.14.48l-.6,3.21a13.17,13.17,0,0,0,4,.82c1.9,0,6.63-.44,6.63-5.16,0-4.13-5.27-3.31-5.27-5.81,0,0,.54-2.49,5.32-.48Z"/><path class="cls-4" d="M45.72,29.78s5-11.67,5.49-13a2.3,2.3,0,0,1,1.74-1.58h3.26l3.24,14.6H55.92l-.42-2.1h-5l-.71,2.12Zm9.18-5.16-1.25-5.44-2.06,5.44Z"/><path class="cls-5" d="M21.69,23l-1.16-5.77s-.16-2.17-1.7-2.17H12.52v.3A13.2,13.2,0,0,1,21.69,23Z"/><g class="cls-6"><rect class="cls-5" x="0.78" y="23.4" width="70.4" height="20.47" rx="4" ry="4"/></g><g class="cls-7"><rect class="cls-4" x="0.78" y="0.8" width="70.4" height="20.47" rx="4" ry="4"/></g></g></g></svg>