<?xml version="1.0" encoding="UTF-8"?>

<svg width="18px" height="18px" viewBox="0 0 18 18" version="1.1" xmlns="http://www.w3.org/2000/svg" xmlns:xlink="http://www.w3.org/1999/xlink">
  <!-- Generator: Sketch 50.2 (55047) - http://www.bohemiancoding.com/sketch -->
  <desc>Created with Sketch.</desc>
  <defs></defs>
  <g id="ATM" stroke="none" stroke-width="1" fill="none" fill-rule="evenodd">
    <g id="Home" transform="translate(-61.000000, -640.000000)" fill="#000000" fill-rule="nonzero">
      <g id="Group-10-Copy" transform="translate(35.000000, 626.000000)">
        <g id="Group-6" transform="translate(26.000000, 13.000000)">
          <g id="icons8-dashboard" transform="translate(0.000000, 1.000000)">
            <path d="M9,0 C4.03710975,0 0,4.03710975 0,9 C0,13.962891 4.03710975,18 9,18 C13.962891,18 18,13.962891 18,9 C18,4.03710975 13.962891,0 9,0 Z M9,1.5 C13.151367,1.5 16.5,4.848633 16.5,9 C16.5,13.151367 13.151367,16.5 9,16.5 C4.848633,16.5 1.5,13.151367 1.5,9 C1.5,4.848633 4.848633,1.5 9,1.5 Z M9,2.25 C8.58691425,2.25 8.25,2.58691425 8.25,3 C8.25,3.41308575 8.58691425,3.75 9,3.75 C9.41308575,3.75 9.75,3.41308575 9.75,3 C9.75,2.58691425 9.41308575,2.25 9,2.25 Z M4.7578125,4.0078125 C4.34472675,4.0078125 4.0078125,4.34472675 4.0078125,4.7578125 C4.0078125,5.17089825 4.34472675,5.5078125 4.7578125,5.5078125 C5.17089825,5.5078125 5.5078125,5.17089825 5.5078125,4.7578125 C5.5078125,4.34472675 5.17089825,4.0078125 4.7578125,4.0078125 Z M12.703125,4.2421875 L9.375,7.546875 C9.254883,7.51464825 9.12890625,7.5 9,7.5 C8.17089825,7.5 7.5,8.17089825 7.5,9 C7.5,9.82910175 8.17089825,10.5 9,10.5 C9.82910175,10.5 10.5,9.82910175 10.5,9 C10.5,8.87109375 10.4853517,8.745117 10.453125,8.625 L13.78125,5.296875 L12.703125,4.2421875 Z M3,8.25 C2.58691425,8.25 2.25,8.58691425 2.25,9 C2.25,9.41308575 2.58691425,9.75 3,9.75 C3.41308575,9.75 3.75,9.41308575 3.75,9 C3.75,8.58691425 3.41308575,8.25 3,8.25 Z M15,8.25 C14.5869142,8.25 14.25,8.58691425 14.25,9 C14.25,9.41308575 14.5869142,9.75 15,9.75 C15.4130858,9.75 15.75,9.41308575 15.75,9 C15.75,8.58691425 15.4130858,8.25 15,8.25 Z M4.7578125,12.4921875 C4.34472675,12.4921875 4.0078125,12.8291017 4.0078125,13.2421875 C4.0078125,13.6552733 4.34472675,13.9921875 4.7578125,13.9921875 C5.17089825,13.9921875 5.5078125,13.6552733 5.5078125,13.2421875 C5.5078125,12.8291017 5.17089825,12.4921875 4.7578125,12.4921875 Z M13.2421875,12.4921875 C12.8291017,12.4921875 12.4921875,12.8291017 12.4921875,13.2421875 C12.4921875,13.6552733 12.8291017,13.9921875 13.2421875,13.9921875 C13.6552733,13.9921875 13.9921875,13.6552733 13.9921875,13.2421875 C13.9921875,12.8291017 13.6552733,12.4921875 13.2421875,12.4921875 Z" id="Shape"></path>
          </g>
        </g>
      </g>
    </g>
  </g>
</svg>
