<?xml version="1.0" encoding="UTF-8"?>
<svg width="72px" height="72px" viewBox="0 0 72 72" version="1.1" xmlns="http://www.w3.org/2000/svg" xmlns:xlink="http://www.w3.org/1999/xlink">
    <!-- Generator: Sketch 51.3 (57544) - http://www.bohemiancoding.com/sketch -->
    <title>Group 6</title>
    <desc>Created with Sketch.</desc>
    <defs></defs>
    <g id="Page-1" stroke="none" stroke-width="1" fill="none" fill-rule="evenodd">
        <g id="1" transform="translate(-169.000000, -842.000000)" fill="#F5D516">
            <g id="Benefit" transform="translate(90.000000, 776.000000)">
                <g id="Group-6" transform="translate(79.000000, 66.000000)">
                    <rect id="Rectangle" opacity="0.100000001" x="0" y="0" width="72" height="72" rx="6"></rect>
                    <g id="icons8-money_bag_euro_filled" transform="translate(20.000000, 18.000000)" fill-rule="nonzero">
                        <path d="M15.3950893,0 C14.2410714,0 13.4338726,0.914684084 12.8660714,1.71312033 C12.3412386,2.44731475 11.4880024,2.4717879 9.89508929,2.4717879 C9.04799107,2.4717879 7.96149593,2.55132602 7.29241071,3.03467029 C8.28989936,4.70190327 9.59123864,5.9439159 10.7790179,6.26512576 C11.4082029,6.4364378 11.9146209,6.32324969 12.375,5.94697485 C13.1392297,5.225017 13.9863279,4.44799495 15.0267857,4.52753229 C15.7664619,4.57953753 16.4202013,5.03229076 17.1875,5.99592114 C17.3256136,6.16417423 17.5220422,6.24983024 17.7522321,6.26512576 C18.1604351,6.29265786 18.6668531,6.05098612 19.1026786,5.65329708 C19.5630584,5.24337225 20.0940292,4.82426901 20.6495536,4.38069341 C21.5488279,3.6617945 23.1448101,2.39225056 23.3995536,1.78653977 C23.1662946,1.64581956 22.8440292,1.54180829 22.3928571,1.54180829 C21.7698101,1.54180829 21.1651786,1.69476586 20.5758929,1.83548606 C20.0725446,1.95479285 19.6029578,2.05574439 19.2008929,2.05574439 C18.8448661,2.05574439 18.5839846,1.979266 18.390625,1.78653977 C17.181362,0.53229135 16.2912946,0 15.3950893,0 Z M23.8415179,3.71991842 C23.2368864,4.32562922 22.4634489,4.94051685 21.6316964,5.60435078 C21.1068636,6.02345324 20.5881696,6.44867437 20.1584821,6.82800816 C19.4003904,7.51937497 18.4765625,7.88953113 17.6294643,7.83140721 C16.9695869,7.78551986 16.4109935,7.48572419 15.984375,6.97484704 C15.3828125,6.21617947 15.0452013,6.08157716 14.9040179,6.06934058 C14.5602679,6.06016296 13.9372208,6.64445955 13.4308036,7.12168593 C12.7985495,7.6417407 12.0772881,7.90482665 11.3191964,7.90482665 C11.003069,7.90482665 10.6930804,7.84670273 10.3616071,7.75798776 C9.72014529,7.58361678 9.08789043,7.22875614 8.47098214,6.75458872 C9.24441964,7.57443916 10.3401226,9.03059143 10.5334821,11.0618627 C12.1601566,12.0652617 15.9383369,13.7600276 20.3549107,11.282121 C20.6035154,11.1414008 20.8920203,10.9394969 21.2142857,10.7192386 C21.2388393,10.7008841 21.2603239,10.6886476 21.2879464,10.6702923 C21.0731031,7.76104671 22.7857143,5.51257687 23.0066964,5.23725357 L23.0803571,5.13936098 C23.3473774,4.72025852 23.6542971,4.22467689 23.8415179,3.71991842 Z M26.8861607,8.59007478 C25.3484935,8.51971428 23.9765625,9.04894669 22.859375,9.66689327 C22.8378904,9.9085658 22.8470982,10.1471786 22.859375,10.4010877 C23.2123328,10.5448676 23.5622208,10.7222976 23.9151786,10.8905506 C25.5602679,11.67981 27.1715958,12.7596875 28.6294643,14.0720598 C28.6478799,14.0751188 28.6601566,14.0720598 28.6785714,14.0720598 C28.871931,14.0720598 29.0652906,13.9955814 29.21875,13.8518015 C29.5348774,13.5550648 29.5410154,13.0656018 29.2433036,12.7505099 C27.8897881,11.3249494 26.2201453,10.6978244 24.578125,10.5723997 C25.8733263,10.0523457 27.3895089,9.9085658 29.0959821,10.8416044 C29.4765625,11.0496261 29.9430804,10.9027872 30.1517857,10.5234534 C30.3604911,10.1441196 30.2131696,9.67912984 29.8325893,9.47110809 C28.7829245,8.89904807 27.8099886,8.63290318 26.8861607,8.59007478 Z M22.34375,11.8450034 C22.2608815,11.9000684 22.1780138,11.9612512 22.0982143,12.0163154 C21.7360495,12.2641059 21.4260601,12.4660097 21.140625,12.6281441 C19.2070316,13.7141402 17.362444,14.1210061 15.7142857,14.1210061 C12.8537946,14.1210061 10.5825893,12.9554727 9.453125,12.2365738 C4.46875,14.3657376 0,20.5788581 0,25.8925901 C0,34.4337186 5.55524593,36 16.5,36 C27.4447549,36 33,34.4337186 33,25.8925901 C33,19.5662814 27.7025674,13.9772262 22.34375,11.8450034 Z M17.0401786,18.7709041 C18.0867744,18.7709041 19.1210941,19.1227058 20.1584821,19.8477226 L19.3482143,21.2916383 C18.5410154,20.49932 17.7338174,20.0924541 16.8928571,20.0924541 C14.6584821,20.0924541 13.9709821,22.567301 13.7745536,23.5186948 L18.6607143,23.5186948 L18.1941964,24.546567 L13.6517857,24.546567 C13.6395089,24.6383417 13.6517857,24.7484708 13.6517857,24.8402447 L13.6517857,25.2807614 C13.6517857,25.3388853 13.6395089,25.3939495 13.6517857,25.4520734 L17.9486607,25.4520734 L17.5066964,26.5044188 L13.75,26.5044188 C14.1305804,28.9731477 15.2078685,30.199864 17.015625,30.199864 C18.4704245,30.199864 19.2070316,29.422842 19.6919643,28.9762067 L19.6919643,30.7627464 C18.9215958,31.2552683 18.0192524,31.521414 17.015625,31.521414 C14.1950333,31.521414 12.5652906,29.8450034 12.0803571,26.5044188 L10.7299107,26.5044188 L11.1964286,25.4520734 L12.0066964,25.4520734 C11.9944196,25.3939495 11.9821429,25.3388853 11.9821429,25.2807614 L11.9821429,24.8157716 C11.9821429,24.7239977 11.9944196,24.6261051 12.0066964,24.546567 L10.7299107,24.546567 L11.1964286,23.5186948 L12.1294643,23.5186948 C12.4056924,22.1084298 13.4645649,18.7709041 17.0401786,18.7709041 Z" id="Shape"></path>
                    </g>
                </g>
            </g>
        </g>
    </g>
</svg>