<?xml version="1.0" encoding="UTF-8"?>
<svg width="72px" height="72px" viewBox="0 0 72 72" version="1.1" xmlns="http://www.w3.org/2000/svg" xmlns:xlink="http://www.w3.org/1999/xlink">
    <!-- Generator: Sketch 51.3 (57544) - http://www.bohemiancoding.com/sketch -->
    <title>Group 5</title>
    <desc>Created with Sketch.</desc>
    <defs></defs>
    <g id="Page-1" stroke="none" stroke-width="1" fill="none" fill-rule="evenodd">
        <g id="1" transform="translate(-569.000000, -842.000000)" fill="#F5D516">
            <g id="Group-5" transform="translate(569.000000, 842.000000)">
                <rect id="Rectangle-Copy" opacity="0.100000001" x="0" y="0" width="72" height="72" rx="6"></rect>
                <path d="M22.8461538,20 C21.8269231,20 21,20.8269231 21,21.8461538 L21,47.6923077 C21,48.7115385 21.8269231,49.5384615 22.8461538,49.5384615 L37,49.5384615 L37,45.8461538 L24.0769231,45.8461538 C23.7355766,45.8461538 23.4615385,45.5721157 23.4615385,45.2307692 L23.4615385,23.0769231 C23.4615385,22.7355766 23.7355766,22.4615385 24.0769231,22.4615385 L41.3076923,22.4615385 C41.6490388,22.4615385 41.9230769,22.7355766 41.9230769,23.0769231 L41.9230769,28.6153846 L44.3846154,28.6153846 L44.3846154,21.8461538 C44.3846154,20.8269231 43.5576923,20 42.5384615,20 L22.8461538,20 Z M31.8076923,20.8076923 L33.5769231,20.8076923 C33.8173083,20.8076923 34,20.9951926 34,21.2307692 C34,21.4663458 33.8173083,21.6538462 33.5769231,21.6538462 L31.8076923,21.6538462 C31.5673083,21.6538462 31.3846154,21.4663458 31.3846154,21.2307692 C31.3846154,20.9951926 31.5673083,20.8076923 31.8076923,20.8076923 Z M40.0769231,29.8461538 C39.0576923,29.8461538 38.2307692,30.6730769 38.2307692,31.6923077 L38.2307692,50.1538462 C38.2307692,51.1730769 39.0576923,52 40.0769231,52 L51.1538462,52 C52.1730769,52 53,51.1730769 53,50.1538462 L53,31.6923077 C53,30.6730769 52.1730769,29.8461538 51.1538462,29.8461538 L40.0769231,29.8461538 Z M44.7307692,30.6538462 L46.5,30.6538462 C46.7403852,30.6538462 46.9230769,30.8413465 46.9230769,31.0769231 C46.9230769,31.3124997 46.7403852,31.5 46.5,31.5 L44.7307692,31.5 C44.4903852,31.5 44.3076923,31.3124997 44.3076923,31.0769231 C44.3076923,30.8413465 44.4903852,30.6538462 44.7307692,30.6538462 Z M41.3076923,32.3076923 L49.9230769,32.3076923 C50.2644234,32.3076923 50.5384615,32.5817305 50.5384615,32.9230769 L50.5384615,47.6923077 C50.5384615,48.0336542 50.2644234,48.3076923 49.9230769,48.3076923 L41.3076923,48.3076923 C40.9663458,48.3076923 40.6923077,48.0336542 40.6923077,47.6923077 L40.6923077,32.9230769 C40.6923077,32.5817305 40.9663458,32.3076923 41.3076923,32.3076923 Z M32.6923077,46.6153846 C33.3028849,46.6153846 33.8076923,47.0913465 33.8076923,47.6923077 C33.8076923,48.2932689 33.3076923,48.7692308 32.6923077,48.7692308 C32.0769231,48.7692308 31.5769231,48.2932689 31.5769231,47.6923077 C31.5769231,47.0913465 32.0817305,46.6153846 32.6923077,46.6153846 Z M45.6153846,49.0769231 C46.2259618,49.0769231 46.7307692,49.5528849 46.7307692,50.1538462 C46.7307692,50.7548074 46.2307692,51.2307692 45.6153846,51.2307692 C45,51.2307692 44.5,50.7548074 44.5,50.1538462 C44.5,49.5528849 45.0048074,49.0769231 45.6153846,49.0769231 Z" id="Shape" fill-rule="nonzero"></path>
            </g>
        </g>
    </g>
</svg>