<?xml version="1.0" encoding="UTF-8"?>
<svg width="72px" height="72px" viewBox="0 0 72 72" version="1.1" xmlns="http://www.w3.org/2000/svg" xmlns:xlink="http://www.w3.org/1999/xlink">
    <!-- Generator: Sketch 51.3 (57544) - http://www.bohemiancoding.com/sketch -->
    <title>Group 4</title>
    <desc>Created with Sketch.</desc>
    <defs></defs>
    <g id="Page-1" stroke="none" stroke-width="1" fill="none" fill-rule="evenodd">
        <g id="1" transform="translate(-969.000000, -842.000000)" fill="#F5D516">
            <g id="Benefit" transform="translate(90.000000, 776.000000)">
                <g id="Group-4" transform="translate(879.000000, 66.000000)">
                    <rect id="Rectangle-Copy-2" opacity="0.100000001" x="0" y="0" width="72" height="72" rx="6"></rect>
                    <path d="M30.5217391,18 C28.364087,18 26.6086957,19.7553913 26.6086957,21.9130435 C26.6086957,24.0706957 28.364087,25.826087 30.5217391,25.826087 C30.8402366,25.826087 31.1453014,25.7774791 31.4419156,25.7053328 L32.0945995,27.0932408 C29.2882649,28.7190415 27.3913043,31.747266 27.3913043,35.2173913 C27.3913043,36.1130095 27.5259874,36.9765063 27.761209,37.7975543 L25.2009172,38.5893344 C24.5042937,37.505891 23.2940489,36.7826087 21.9130435,36.7826087 C19.7553913,36.7826087 18,38.538 18,40.6956522 C18,42.8533043 19.7553913,44.6086957 21.9130435,44.6086957 C24.0706957,44.6086957 25.826087,42.8533043 25.826087,40.6956522 C25.826087,40.4764161 25.8043586,40.2631795 25.769531,40.0536689 L28.3221806,39.2649457 C29.517397,41.7527006 31.7705228,43.6314835 34.5005092,44.3167458 L34.2666438,46.181556 C32.1873574,46.2706646 30.5217391,47.9861264 30.5217391,50.0869565 C30.5217391,52.2446087 32.2771304,54 34.4347826,54 C36.5924348,54 38.3478261,52.2446087 38.3478261,50.0869565 C38.3478261,48.4160283 37.2905789,46.9968097 35.8135192,46.436821 L36.0473846,44.5704824 C36.2908902,44.5894959 36.5343042,44.6086957 36.7826087,44.6086957 C39.4060594,44.6086957 41.7781229,43.5241816 43.4836957,41.7839674 L46.6340017,44.3717734 C46.3498208,44.9136689 46.173913,45.520758 46.173913,46.173913 C46.173913,48.3315652 47.9293043,50.0869565 50.0869565,50.0869565 C52.2446087,50.0869565 54,48.3315652 54,46.173913 C54,44.0162609 52.2446087,42.2608696 50.0869565,42.2608696 C49.1488505,42.2608696 48.2993022,42.6072005 47.6244908,43.1596471 L44.4818277,40.5794833 C45.544914,39.0575645 46.173913,37.2106135 46.173913,35.2173913 C46.173913,32.9094383 45.3329585,30.796679 43.9468411,29.1598169 L46.3680368,26.7386212 C46.9866882,27.1486839 47.7255475,27.3913043 48.5217391,27.3913043 C50.6793913,27.3913043 52.4347826,25.635913 52.4347826,23.4782609 C52.4347826,21.3206087 50.6793913,19.5652174 48.5217391,19.5652174 C46.364087,19.5652174 44.6086957,21.3206087 44.6086957,23.4782609 C44.6086957,24.2744525 44.8513161,25.0133118 45.2613788,25.6319632 L42.8401831,28.0531589 C41.203321,26.6670415 39.0905617,25.826087 36.7826087,25.826087 C35.6307973,25.826087 34.5320797,26.0457073 33.5115485,26.4268002 L32.8558085,25.0343069 C33.8082762,24.3198994 34.4347826,23.1925861 34.4347826,21.9130435 C34.4347826,19.7553913 32.6793913,18 30.5217391,18 Z M36.7826087,29.7391304 C37.5073043,29.7391304 38.100913,29.9369473 38.298913,30.3337299 C39.497087,30.4839908 39.9052174,31.5234783 39.9130435,32.4782609 C39.9193043,33.2045217 39.8598261,33.84 39.7173913,34.2391304 C39.8488696,34.3048696 39.9787826,34.6257391 39.9130435,35.0217391 C39.7815652,35.748 39.3284348,36 39.1304348,36 C39.0646957,36.6605217 38.6115652,37.6286087 38.3478261,37.7608696 L38.3478261,39.1304348 C38.7704348,40.1454783 40.8011455,40.1381045 42.0392324,41.0028871 C40.6493194,42.2660176 38.8087826,43.0434783 36.7826087,43.0434783 C34.7564348,43.0434783 32.915898,42.2660176 31.525985,41.0028871 C32.7640719,40.1381045 34.7947826,40.1454783 35.2173913,39.1304348 L35.2173913,37.7608696 C34.9536522,37.6286087 34.5005217,36.6605217 34.4347826,36 C34.2367826,36 33.717913,35.748 33.6521739,35.0217391 C33.5864348,34.6257391 33.7163478,34.3048696 33.8478261,34.2391304 C33.6905217,33.6553043 33.656087,33.0933913 33.6521739,32.576087 C33.6404348,30.9294783 34.6233913,29.7391304 36.7826087,29.7391304 Z" id="Shape" fill-rule="nonzero"></path>
                </g>
            </g>
        </g>
    </g>
</svg>