<?xml version="1.0" encoding="UTF-8"?>
<svg width="219px" height="277px" viewBox="0 0 219 277" version="1.1" xmlns="http://www.w3.org/2000/svg" xmlns:xlink="http://www.w3.org/1999/xlink">
    <!-- Generator: Sketch 50.2 (55047) - http://www.bohemiancoding.com/sketch -->
    <title>Fill 5</title>
    <desc>Created with Sketch.</desc>
    <defs></defs>
    <g id="Page-1" stroke="none" stroke-width="1" fill="none" fill-rule="evenodd" opacity="0.100000001">
        <g id="4" transform="translate(-1221.000000, -2790.000000)" fill="#FAFAFA">
            <path d="M1550.31217,2892.72229 C1554.76649,2879.64019 1555.46479,2859.43204 1551.78718,2846.02215 C1539.97575,2802.93999 1485.34649,2777.27126 1432.67131,2796.44962 C1384.37581,2814.03453 1372.5521,2886.5815 1335.46895,2878.69472 C1248.2496,2860.14635 1216.83498,2922.47604 1221.43577,2973.21572 C1224.40752,3005.9906 1251.82421,3046.52816 1310.38904,3042.27072 C1327.63088,3041.01736 1344.56563,3045.26817 1359.157,3053.7281 C1384.07722,3068.17819 1423.68801,3071.565 1464.8343,3060.22604 C1526.72711,3043.16882 1568.6539,2999.25487 1558.47812,2962.14297 C1557.63998,2959.08773 1556.4749,2956.17365 1555.00745,2953.40831 C1545.15105,2934.82583 1543.43697,2912.91433 1550.31217,2892.72229 Z" id="Fill-5" transform="translate(1390.500000, 2928.500000) scale(-1, 1) translate(-1390.500000, -2928.500000) "></path>
        </g>
    </g>
</svg>