<?xml version="1.0" encoding="UTF-8"?>
<svg width="49px" height="49px" viewBox="0 0 49 49" version="1.1" xmlns="http://www.w3.org/2000/svg" xmlns:xlink="http://www.w3.org/1999/xlink">
    <!-- Generator: Sketch 50.2 (55047) - http://www.bohemiancoding.com/sketch -->
    <title>icons8-idea_sharing_filled</title>
    <desc>Created with Sketch.</desc>
    <defs></defs>
    <g id="Page-1" stroke="none" stroke-width="1" fill="none" fill-rule="evenodd">
        <g id="4" transform="translate(-837.000000, -1399.000000)" fill="#000000" fill-rule="nonzero">
            <g id="icons8-idea_sharing_filled" transform="translate(837.000000, 1399.000000)">
                <path d="M29.4589426,0.00638340314 C23.7741021,0.176762127 19.1489362,4.95984085 19.1489362,10.6696143 C19.1489362,13.7696813 20.7654585,16.1882313 22.1908245,18.3242026 C22.8640298,19.3298536 23.5039894,20.3022611 23.9361702,21.2746674 L28.7234043,21.2746674 L28.7234043,12.1406919 L26.9074138,10.3247004 C26.4918553,9.90914191 26.4918553,9.23593766 26.9074138,8.82037915 C27.3229723,8.40482064 27.9961766,8.40482064 28.4117351,8.82037915 L29.787234,10.1958781 L31.162733,8.82037915 C31.5782915,8.40482064 32.2514957,8.40482064 32.6670543,8.82037915 C33.0826128,9.23593766 33.0826128,9.90914191 32.6670543,10.3247004 L30.8510638,12.1406919 L30.8510638,21.2746674 L35.6258309,21.2746674 C36.0538564,20.3105717 36.693817,19.3423206 37.3670213,18.3449802 C38.8006979,16.196543 40.4255319,13.7655249 40.4255319,10.6363696 C40.4255319,7.7357717 39.2785904,5.02217383 37.1966426,2.99840468 C35.1146947,0.978789786 32.3844745,-0.0933506394 29.4589426,0.00638340314 Z M24.4639298,23.402327 C24.4639298,23.4231047 24.4680851,23.439727 24.4680851,23.4563494 L24.4680851,25.5299866 C24.4680851,27.2877994 25.9017617,28.721476 27.6595745,28.721476 L27.9546213,28.721476 C28.3244681,29.3531249 29.0018287,29.7853057 29.787234,29.7853057 C30.5726394,29.7853057 31.25,29.3531249 31.6198468,28.721476 L31.9148936,28.721476 C33.6727064,28.721476 35.106383,27.2877994 35.106383,25.5299866 L35.106383,23.402327 L24.4639298,23.402327 Z M45.0465426,27.6493355 C44.2777596,27.6244015 43.4923543,27.8197143 42.794216,28.2602057 L32.8457447,34.389694 C33.6020617,35.158477 34.0425532,36.2056845 34.0425532,37.3027589 C34.0425532,39.6132643 32.1642287,41.4874334 29.8537234,41.4874334 C29.5295883,41.4874334 29.2096074,41.4500334 28.893783,41.3752323 C28.0792883,41.184076 17.6279926,38.0549206 16.4394947,37.6975398 C15.8743351,37.5313164 15.5585106,36.9370674 15.724734,36.3719079 C15.8951128,35.8109047 16.4852064,35.4950802 17.050366,35.6613036 C21.6921543,37.0534238 28.8148277,39.1727728 29.3882979,39.3099068 C29.5378989,39.3431515 29.6958117,39.3639291 29.8537234,39.3639291 C30.9923543,39.3639291 31.9148936,38.4413898 31.9148936,37.3027589 C31.9148936,36.571376 31.5325798,35.914794 30.8967755,35.5407908 C30.5892617,35.3621015 20.0880989,30.7701791 17.9729053,29.8476398 C14.6650596,28.3931845 10.850233,28.3557845 7.51329787,29.7479057 L0.656582979,32.602793 C0.112201064,32.827194 0,33.3175536 0,33.9907579 L0,46.8065823 C0,47.3925196 0.477892553,47.8704121 1.06382979,47.8704121 C1.38796596,47.8704121 1.64976702,47.6958781 1.68716809,47.6667887 L5.39395,44.9448802 C7.28474043,43.5569153 9.80302553,43.2535568 12.0179521,44.1636302 L24.4639298,48.5768621 C25.1620681,48.8261972 25.8851394,48.9467089 26.6040564,48.9467089 C27.9753989,48.9467089 29.3301202,48.5020611 30.4604394,47.6460111 L47.2032915,34.9590089 C48.9777266,33.7372674 49.4680851,31.3436504 48.3169883,29.5193483 C47.58145,28.3474738 46.3347745,27.6908908 45.0465426,27.6493355 Z" id="Shape"></path>
            </g>
        </g>
    </g>
</svg>