<?xml version="1.0" encoding="UTF-8"?>
<svg width="479px" height="493px" viewBox="0 0 479 493" version="1.1" xmlns="http://www.w3.org/2000/svg" xmlns:xlink="http://www.w3.org/1999/xlink">
    <!-- Generator: Sketch 52.2 (67145) - http://www.bohemiancoding.com/sketch -->
    <title>Group 20</title>
    <desc>Created with Sketch.</desc>
    <defs>
        <polygon id="path-1" points="0.583608883 0.34661066 473.991594 0.34661066 473.991594 473.753807 0.583608883 473.753807"></polygon>
    </defs>
    <g id="Page-1" stroke="none" stroke-width="1" fill="none" fill-rule="evenodd">
        <g id="page-5" transform="translate(-826.000000, -187.000000)">
            <g id="Group-20" transform="translate(828.000000, 189.000000)">
                <g id="Group-3" transform="translate(3.032995, 16.785201)">
                    <mask id="mask-2" fill="white">
                        <use xlink:href="#path-1"></use>
                    </mask>
                    <g id="Clip-2"></g>
                    <path d="M237.287632,0.34661066 C106.560698,0.34661066 0.583608883,106.323093 0.583608883,237.050634 C0.583608883,367.778174 106.560698,473.75405 237.287632,473.75405 C368.014566,473.75405 473.991655,367.778174 473.991655,237.050634 C473.991655,106.323093 368.014566,0.34661066 237.287632,0.34661066" id="Fill-1" fill="#A6BED3" mask="url(#mask-2)"></path>
                </g>
                <path d="M473.645893,236.942174 C473.645893,367.669714 367.668804,473.64559 236.94187,473.64559 C106.215543,473.64559 0.237847462,367.669714 0.237847462,236.942174 C0.237847462,106.214633 106.215543,0.238150761 236.94187,0.238150761 C367.668804,0.238150761 473.645893,106.214633 473.645893,236.942174" id="Fill-4" fill="#FFFFFF"></path>
                <path d="M473.645893,236.942174 C473.645893,367.669714 367.668804,473.64559 236.94187,473.64559 C106.215543,473.64559 0.237847462,367.669714 0.237847462,236.942174 C0.237847462,106.214633 106.215543,0.238150761 236.94187,0.238150761 C367.668804,0.238150761 473.645893,106.214633 473.645893,236.942174 Z" id="Stroke-6" stroke="#000000" stroke-width="2.785"></path>
                <g id="Group-2" transform="translate(60.000000, 84.000000)" fill="#0A2135">
                    <path d="M282.993086,251.24257 C270.284837,251.24257 259.98236,261.544441 259.98236,274.253296 C259.98236,286.962152 270.284837,297.264022 282.993086,297.264022 C295.701334,297.264022 306.003811,286.962152 306.003811,274.253296 C306.003811,261.544441 295.701334,251.24257 282.993086,251.24257" id="Fill-8"></path>
                    <path d="M79.4782162,54.5218523 C79.4782162,41.8136036 69.1757391,31.5111264 56.4674904,31.5111264 C43.7592416,31.5111264 33.4567645,41.8136036 33.4567645,54.5218523 C33.4567645,67.2307076 43.7592416,77.5325782 56.4674904,77.5325782 C69.1757391,77.5325782 79.4782162,67.2307076 79.4782162,54.5218523 Z" id="Fill-10"></path>
                    <path d="M260.248293,301.663927 C258.484303,300.683663 256.415194,300.785572 254.785869,301.742178 L254.784049,301.730653 C254.784049,301.730653 252.519615,302.946277 248.426892,304.795191 C248.546392,304.741204 248.648907,304.693282 248.765374,304.640508 L248.745356,304.608359 C248.299506,304.821275 247.857902,305.04511 247.409625,305.254387 C246.775729,305.550407 246.134554,305.833082 245.497019,306.121216 C206.473899,323.763541 160.704793,326.432577 117.676907,309.865752 C32.3684652,277.020237 -10.3124459,180.894922 22.5330693,95.5864805 C22.9067343,94.6159221 23.3022368,93.6593155 23.6934931,92.7002825 C23.6977393,92.7021023 23.7038053,92.7057419 23.7056251,92.7033155 C23.78145,92.5856353 24.9861556,89.6660744 24.9861556,89.6660744 L24.967351,89.6794195 C25.0249779,89.544148 25.080785,89.4076632 25.1402317,89.2729982 L25.1378053,89.268752 C25.1560033,89.2262901 25.1748079,89.1832216 25.1930058,89.1407596 C25.2130236,89.1049703 25.233648,89.072214 25.2518459,89.0291454 C25.3664931,88.7537495 25.4708282,88.5086835 25.5806226,88.2496657 C25.7571429,87.8487038 25.9251708,87.4416759 26.1047241,87.0425338 L26.0962317,87.0388942 C27.345219,84.1466302 28.1374373,82.5512749 28.1374373,82.5512749 L28.1265185,82.5500617 C29.0376302,80.8855541 29.0776657,78.7988536 28.0409881,77.0476023 C26.4771759,74.4064703 23.0686962,73.5335744 20.4281708,75.0973865 C19.4139373,75.6973129 18.6635744,76.5708155 18.2086251,77.5674576 L18.2025591,77.5571454 C17.4073079,79.1585668 16.6423865,80.7727266 15.8999094,82.3965921 L15.8574475,82.377181 C15.0706886,84.124186 14.3160794,85.8936353 13.5790617,87.6758231 C13.5432723,87.7492216 13.507483,87.8226201 13.4747266,87.8978383 C13.4553155,87.9354475 13.4298383,87.9857952 13.4128536,88.0185515 C13.4019348,88.0409957 13.4055744,88.0591937 13.4013282,88.0792114 C13.3770642,88.1410845 13.3625058,88.2072038 13.3400617,88.2702901 C12.8954246,89.3567089 12.4489678,90.4407013 12.0249551,91.5410718 C-23.0516312,182.64314 22.5288231,285.29728 113.630892,320.373866 C161.26347,338.713173 212.044298,334.986229 254.680927,314.247216 L254.647564,314.192623 C253.141986,314.930247 251.628521,315.6521 250.104744,316.348475 C253.441645,314.822879 256.740331,313.205686 259.983815,311.470813 L259.973503,311.465354 C260.951341,310.983107 261.799366,310.2103 262.370176,309.183328 C263.85695,306.508227 262.907016,303.142209 260.248293,301.663927" id="Fill-14"></path>
                    <path d="M86.238216,29.6198114 C86.2060662,29.638616 86.1629977,29.6640931 86.1350942,29.6804713 C86.115683,29.6913901 86.1102236,29.7065551 86.097485,29.7199003 C85.3920104,30.23005 84.8084622,30.9264256 84.4390434,31.7847632 C83.3483784,34.317314 84.5179013,37.2538596 87.050452,38.343918 C88.5681627,38.9972251 90.2278175,38.8346566 91.5508099,38.0588165 C91.5544495,38.0594231 91.5580891,38.0709485 91.5611221,38.0697353 C91.6733429,38.0181744 93.9608277,36.4191794 93.9608277,36.4191794 L93.9402033,36.4209992 C94.0481779,36.3476008 94.1543327,36.2723825 94.262914,36.2008038 L94.262914,36.1856388 C94.3302464,36.1443901 94.3927261,36.1207327 94.4618784,36.0722048 C94.940485,35.7397886 95.3814825,35.4383089 95.8018556,35.1532074 C133.890812,9.92839518 183.200637,2.82876066 228.986122,20.4571338 C250.388147,28.697781 268.73716,41.466083 283.375607,57.2437226 L283.478122,57.2831515 C284.176924,58.0893216 285.191158,59.2885678 286.449244,60.8529865 C286.502018,60.9184992 286.554792,60.9591414 286.60696,61.0173749 L286.60332,61.0319332 C286.687031,61.1314155 286.767708,61.2333241 286.850206,61.3340195 L286.830188,61.3267404 C286.830188,61.3267404 288.569914,63.5038241 288.66333,63.5845018 C288.665757,63.5869282 288.673036,63.5772226 288.676069,63.5772226 C289.724272,64.6939713 291.268066,65.3181617 292.905277,65.121017 C294.631658,64.9135602 296.042607,63.8459459 296.766886,62.399814 C297.190292,61.5554282 297.380158,60.58305 297.258838,59.5754891 C297.147224,58.649819 296.784477,57.8181718 296.253097,57.1302886 C296.244604,57.1139104 296.243391,57.0975322 296.228226,57.0817607 C296.205782,57.0581033 296.171812,57.0217074 296.146942,56.9944104 C296.089922,56.9264713 296.031081,56.8609586 295.971028,56.7960525 C293.952873,54.3083901 291.86496,51.8741084 289.693335,49.5107987 C289.659972,49.4744028 289.628429,49.4361871 289.595066,49.3997911 L289.593853,49.4046439 C274.132858,33.0592277 254.90731,19.8129256 232.548678,11.2040728 C183.05748,-7.85041447 129.70164,0.134854569 88.8290003,27.8776591 L88.8393124,27.8934307 C88.0452744,28.4199586 87.2469901,28.9392074 86.4626576,29.4790805 C86.3868327,29.5245754 86.3116145,29.5700703 86.238216,29.6198114" id="Fill-16"></path>
                    <path d="M120.517003,302.177838 C162.46029,318.326716 207.176341,315.045015 244.720572,296.782746 L244.691455,296.734825 C243.36543,297.383886 242.032732,298.019602 240.690935,298.632873 C243.629907,297.289257 246.534303,295.865569 249.390171,294.338153 L249.381072,294.3333 C250.241836,293.908074 250.988559,293.228076 251.49143,292.323637 C252.801077,289.968213 251.96397,287.003764 249.622498,285.702609 C248.069605,284.839419 246.247381,284.929196 244.812775,285.771155 L244.811562,285.761449 C244.811562,285.761449 242.817671,286.83149 239.21326,288.459602 C239.318808,288.412287 239.409191,288.369825 239.511706,288.323117 L239.494115,288.295213 C239.101039,288.482653 238.712815,288.679797 238.31792,288.864203 C237.759242,289.125041 237.195105,289.373746 236.633394,289.627305 C202.270775,305.162911 161.968338,307.512876 124.079559,292.924777 C48.9595541,264.001531 11.3758942,179.357315 40.2991404,104.237916 C40.6285236,103.382612 40.9761048,102.540653 41.320653,101.696267 C41.3248992,101.69748 41.3303586,101.70112 41.3315718,101.698693 C41.3982977,101.595571 42.4592393,99.0241982 42.4592393,99.0241982 L42.4422546,99.0363302 C42.4932089,98.9168302 42.5423434,98.7967236 42.5945109,98.6778302 L42.5926911,98.6741906 C42.6090693,98.6371881 42.6254475,98.5989723 42.6418256,98.5613632 C42.6588104,98.5304266 42.6770084,98.5013099 42.6927799,98.4630942 C42.794082,98.2210612 42.886285,98.0051119 42.9821277,97.7764241 C43.1380236,97.4239901 43.2860338,97.0654901 43.4443561,96.7142693 L43.4370769,96.7106297 C44.5362343,94.1641272 45.2344297,92.7592439 45.2344297,92.7592439 L45.2241175,92.7580307 C46.026648,91.2924876 46.0624373,89.4550992 45.1488992,87.9131246 C43.7719195,85.5874241 40.7704678,84.8182566 38.4453739,86.1952363 C37.5524602,86.7241906 36.8918739,87.4927515 36.4909119,88.3705003 L36.4860591,88.3614013 C35.7854373,89.7711373 35.1121124,91.1930053 34.4581987,92.6233657 L34.4205896,92.6057744 C33.7278536,94.1441094 33.0630211,95.7024622 32.4145668,97.2717338 C32.3830236,97.3366398 32.3508739,97.4009393 32.3223637,97.4670586 C32.3053789,97.5004216 32.2829348,97.5447033 32.2683764,97.5732135 C32.2580642,97.5932312 32.2617038,97.6090028 32.2580642,97.6265942 C32.2368332,97.6811881 32.2234881,97.7400282 32.2040769,97.7952287 C31.8128206,98.7518353 31.4191378,99.7060155 31.0460794,100.675361 C0.158665736,180.896863 40.2948942,271.290424 120.517003,302.177838" id="Fill-18"></path>
                </g>
                <path d="M374.344911,128.867162 C374.218739,127.815926 373.806858,126.870845 373.202686,126.089545 C373.193587,126.071347 373.191767,126.053149 373.174782,126.034952 C373.149305,126.008261 373.111089,125.967012 373.081972,125.936076 C373.017673,125.859038 372.950947,125.784426 372.883008,125.710421 C370.591277,122.88549 368.219475,120.121218 365.75365,117.436411 C365.715434,117.395162 365.679645,117.3527 365.642036,117.310845 L365.640216,117.316304 C348.082815,98.7537688 326.248891,83.7113272 300.857871,73.9347713 C244.654655,52.2955657 184.062089,61.3642206 137.645135,92.8697586 L137.65666,92.88735 C136.755861,93.4860632 135.848995,94.0750708 134.957901,94.6883424 C134.871764,94.7399033 134.78684,94.7920708 134.70313,94.8484845 C134.666127,94.8697155 134.618206,94.8982256 134.586056,94.9170302 C134.564219,94.9291622 134.557546,94.9467536 134.543594,94.9619185 C133.742277,95.5412206 133.079264,96.3322256 132.659498,97.3064236 C131.421429,100.182309 132.749274,103.517997 135.625767,104.756066 C137.349114,105.497936 139.233818,105.312924 140.736363,104.431535 C140.740609,104.432748 140.744249,104.445487 140.747889,104.444274 C140.875881,104.385434 143.473338,102.569883 143.473338,102.569883 L143.450287,102.571096 C143.572213,102.487992 143.692927,102.403068 143.816066,102.321784 L143.816673,102.304193 C143.893104,102.258091 143.96347,102.230188 144.042328,102.175594 C144.58584,101.798289 145.086891,101.456167 145.564285,101.132243 C188.819038,72.4862129 244.817224,64.4239058 296.812462,84.4428855 C321.117064,93.8008881 341.954952,108.30103 358.578797,126.218751 L358.695264,126.263639 C359.488696,127.179604 360.640627,128.540812 362.069168,130.31754 C362.129221,130.392152 362.188668,130.438254 362.248721,130.504373 L362.244475,130.521358 C362.339711,130.634185 362.431307,130.749439 362.524724,130.864086 L362.502279,130.855594 C362.502279,130.855594 364.477972,133.328091 364.584127,133.419688 C364.58716,133.422114 364.594439,133.411195 364.598686,133.411195 C365.788833,134.679594 367.541904,135.388708 369.401736,135.164266 C371.361658,134.928299 372.964292,133.716314 373.78684,132.074251 C374.267267,131.115825 374.483216,130.011208 374.344911,128.867162" id="Fill-12" fill="#0A2135"></path>
            </g>
        </g>
    </g>
</svg>