<?xml version="1.0" encoding="UTF-8"?>
<svg width="17px" height="17px" viewBox="0 0 17 17" version="1.1" xmlns="http://www.w3.org/2000/svg" xmlns:xlink="http://www.w3.org/1999/xlink">
    <!-- Generator: Sketch 50.2 (55047) - http://www.bohemiancoding.com/sketch -->
    <title>icons8-chip</title>
    <desc>Created with Sketch.</desc>
    <defs></defs>
    <g id="HS---Betting" stroke="none" stroke-width="1" fill="none" fill-rule="evenodd">
        <g id="Discover-first-sight-Copy-2" transform="translate(-288.000000, -410.000000)" fill="#FFFFFF" fill-rule="nonzero">
            <g id="icons8-chip" transform="translate(288.000000, 410.000000)">
                <path d="M8.5,0.122596154 C3.87454912,0.122596154 0.122596154,3.87454912 0.122596154,8.5 C0.122596154,13.1254509 3.87454912,16.8774038 8.5,16.8774038 C13.1254509,16.8774038 16.8774038,13.1254509 16.8774038,8.5 C16.8774038,3.87454912 13.1254509,0.122596154 8.5,0.122596154 Z M8.5,0.960336538 C8.93674896,0.960336538 9.35051065,1.01141827 9.76682692,1.08293269 L9.76682692,2.79927885 C9.35561915,2.70733173 8.93930288,2.65625 8.5,2.65625 C8.06069712,2.65625 7.64438085,2.70733173 7.23317308,2.79927885 L7.23317308,1.08293269 C7.64948935,1.01141827 8.06325104,0.960336538 8.5,0.960336538 Z M8.5,3.55528846 C11.2328729,3.55528846 13.4447115,5.76712773 13.4447115,8.5 C13.4447115,11.2328729 11.2328729,13.4447115 8.5,13.4447115 C5.76712773,13.4447115 3.55528846,11.2303183 3.55528846,8.5 C3.55528846,5.76968165 5.76712773,3.55528846 8.5,3.55528846 Z M2.71754808,3.67788462 L4.20913462,4.55649038 C3.63191138,5.18224142 3.18239215,5.93058927 2.921875,6.76322115 L1.43028846,5.90504808 C1.72911642,5.09284888 2.17352781,4.33173077 2.71754808,3.67788462 Z M14.2824519,3.67788462 C14.8264722,4.32917685 15.2708836,5.09284888 15.5697115,5.90504808 L14.078125,6.76322115 C13.8176085,5.93058927 13.3680893,5.18224142 12.7908654,4.55649038 L14.2824519,3.67788462 Z M10.7271635,5.76201923 C10.6914066,5.76968165 10.655649,5.79266827 10.625,5.82331731 L10.1346154,6.31370192 C9.75661058,6.01998181 9.38371427,5.86418269 9.01081731,5.86418269 C8.6328125,5.86418269 8.29056523,6.03275273 7.96875,6.35456731 C7.76442308,6.55889423 7.63161058,6.76066723 7.58052885,6.96754808 C7.52433927,7.17442892 7.51667685,7.37620192 7.56009615,7.58052885 C7.60351546,7.78485577 7.67502988,8.00961538 7.78485577,8.21394231 C7.89468165,8.42082315 8.02238565,8.60471738 8.15264423,8.80649038 C8.22926715,8.92142412 8.29056523,9.02869608 8.33653846,9.11298077 C8.38251235,9.19726546 8.40549896,9.26877988 8.41826923,9.33774038 C8.43359408,9.40925481 8.44381042,9.47821531 8.41826923,9.54206731 C8.39272869,9.60591931 8.34420088,9.67743373 8.27524038,9.74639423 C8.16030665,9.86132796 8.01472388,9.8970855 7.86658654,9.86899038 C7.71844985,9.83834135 7.54987981,9.73873181 7.35576923,9.54206731 C7.27914696,9.46544504 7.21274038,9.38882212 7.13100962,9.296875 C7.05183277,9.20237396 6.96754808,9.10787292 6.88581731,9.01081731 C6.80408654,8.91376235 6.71213942,8.81670673 6.640625,8.72475962 C6.56655665,8.6328125 6.51802885,8.53575754 6.45673077,8.45913462 C6.39032485,8.36974142 6.33158069,8.33143062 6.29326923,8.31610577 C6.25495777,8.30078158 6.19110577,8.30844335 6.109375,8.35697115 L5.72115385,8.62259615 C5.65474792,8.66346154 5.60111162,8.71709719 5.578125,8.765625 C5.55769231,8.81415281 5.5832335,8.88311331 5.63942308,9.01081731 C5.716046,9.19726546 5.82331731,9.39648454 5.96634615,9.58293269 C6.10682108,9.76938085 6.24474142,9.92773454 6.375,10.0733173 L5.92548077,10.5228365 C5.89227781,10.5534856 5.87184512,10.5892431 5.86418269,10.625 C5.85907485,10.6607575 5.88206146,10.7067308 5.92548077,10.7475962 L6.35456731,11.1766827 C6.40309512,11.2226566 6.438852,11.2328729 6.47716346,11.2175481 C6.512921,11.2022239 6.53846154,11.1971154 6.55889423,11.1766827 L7.04927885,10.7067308 C7.22295673,10.8318808 7.39918854,10.9187201 7.58052885,10.9927885 C7.76442308,11.0694114 7.94576338,11.1102768 8.13221154,11.1153846 C8.31865969,11.1204931 8.49744608,11.0872895 8.68389423,11.0132212 C8.86778846,10.9391528 9.05423662,10.826773 9.23557692,10.6454327 C9.45522869,10.4257816 9.60591931,10.2035759 9.66466346,9.99158654 C9.72340762,9.77704327 9.73107004,9.5676085 9.68509615,9.35817308 C9.63912292,9.15129223 9.55483758,8.94951923 9.43990385,8.74519231 C9.32497012,8.54086538 9.19726546,8.32887604 9.07211538,8.13221154 C8.99549312,8.01727781 8.93419504,7.92788462 8.88822115,7.84615385 C8.84224792,7.766977 8.79882796,7.68780081 8.78605769,7.62139423 C8.7707335,7.55754223 8.78861162,7.49369023 8.80649038,7.4375 C8.829477,7.38131042 8.86523454,7.33533654 8.92908654,7.27403846 C9.15129223,7.05183277 9.43224142,7.1029145 9.76682692,7.4375 C9.94050481,7.60862396 10.0809797,7.7720855 10.2163462,7.92788462 C10.3491587,8.08368373 10.4768633,8.23182108 10.5841346,8.37740385 C10.655649,8.46424312 10.7220556,8.53575754 10.7680288,8.56129808 C10.8114482,8.58683927 10.8753008,8.55874415 10.9723558,8.5 L11.3401442,8.25480769 C11.4014423,8.20883446 11.4397538,8.17818542 11.4627404,8.13221154 C11.485727,8.08368373 11.4780652,7.99173662 11.421875,7.86658654 C11.3503606,7.70567892 11.2533056,7.53710954 11.1358173,7.37620192 C11.0208836,7.21529431 10.8982874,7.07482004 10.7884615,6.94711538 L11.2584135,6.47716346 C11.2762922,6.45673077 11.3043873,6.43374415 11.3197115,6.39543269 C11.3350364,6.35712123 11.32482,6.29837773 11.2788462,6.25240385 L10.8497596,5.82331731 C10.8063403,5.779898 10.762921,5.75691138 10.7271635,5.76201923 Z M2.921875,10.2367788 C3.18239215,11.0694114 3.63191138,11.8177586 4.20913462,12.4435096 L2.71754808,13.3221154 C2.17352781,12.6682692 1.72911642,11.9071518 1.43028846,11.0949519 L2.921875,10.2367788 Z M14.078125,10.2367788 L15.5697115,11.0949519 C15.2708836,11.9071518 14.8264722,12.6682692 14.2824519,13.3221154 L12.7908654,12.4435096 C13.3680893,11.8177586 13.8176085,11.0694114 14.078125,10.2367788 Z M7.23317308,14.2007212 C7.64438085,14.2926683 8.06069712,14.34375 8.5,14.34375 C8.93930288,14.34375 9.35561915,14.2926683 9.76682692,14.2007212 L9.76682692,15.9170673 C9.35051065,15.9885817 8.93674896,16.0396635 8.5,16.0396635 C8.06325104,16.0396635 7.64948935,15.9885817 7.23317308,15.9170673 L7.23317308,14.2007212 Z" id="Shape"></path>
            </g>
        </g>
    </g>
</svg>