<?xml version="1.0" encoding="UTF-8"?>
<svg width="27px" height="14px" viewBox="0 0 27 14" version="1.1" xmlns="http://www.w3.org/2000/svg" xmlns:xlink="http://www.w3.org/1999/xlink">
    <!-- Generator: Sketch 50.2 (55047) - http://www.bohemiancoding.com/sketch -->
    <title>icons8-conference_call</title>
    <desc>Created with Sketch.</desc>
    <defs></defs>
    <g id="HS---Betting" stroke="none" stroke-width="1" fill="none" fill-rule="evenodd">
        <g id="Discover-first-sight-Copy-2" transform="translate(-40.000000, -412.000000)" fill="#FFFFFF" fill-rule="nonzero">
            <g id="Group-5" transform="translate(40.000000, 412.000000)">
                <g id="icons8-conference_call">
                    <path d="M13.5,0 C11.025,0 9,2.025 9,4.5 C9,5.8640625 9.6363279,7.0769529 10.603125,7.903125 C9.6433596,8.4058596 8.803125,9.1652346 8.2125,10.06875 C7.8925779,9.6046875 7.4707029,9.1757817 7.003125,8.859375 C7.6710942,8.2054692 8.1,7.3019529 8.1,6.3 C8.1,4.3207029 6.4792971,2.7 4.5,2.7 C2.5207029,2.7 0.9,4.3207029 0.9,6.3 C0.9,7.3019529 1.3289067,8.2054692 1.996875,8.859375 C0.7980471,9.6714846 0,11.0566404 0,12.6 L1.8,12.6 C1.8,11.109375 3.009375,9.9 4.5,9.9 C5.990625,9.9 7.2,11.109375 7.2,12.6 L7.2,13.5 L9,13.5 C9,11.0214846 11.0214846,9 13.5,9 C15.9785154,9 18,11.0214846 18,13.5 L19.8,13.5 L19.8,12.6 C19.8,11.109375 21.009375,9.9 22.5,9.9 C23.990625,9.9 25.2,11.109375 25.2,12.6 L27,12.6 C27,11.0566404 26.2019529,9.6714846 25.003125,8.859375 C25.6710942,8.2054692 26.1,7.3019529 26.1,6.3 C26.1,4.3207029 24.4792971,2.7 22.5,2.7 C20.5207029,2.7 18.9,4.3207029 18.9,6.3 C18.9,7.3019529 19.3289067,8.2054692 19.996875,8.859375 C19.5292971,9.1757817 19.1074221,9.6046875 18.7875,10.06875 C18.196875,9.1652346 17.3566404,8.4058596 16.396875,7.903125 C17.3636721,7.0769529 18,5.8640625 18,4.5 C18,2.025 15.975,0 13.5,0 Z M13.5,1.8 C15.0011721,1.8 16.2,2.9988279 16.2,4.5 C16.2,6.0011721 15.0011721,7.2 13.5,7.2 C11.9988279,7.2 10.8,6.0011721 10.8,4.5 C10.8,2.9988279 11.9988279,1.8 13.5,1.8 Z M4.5,4.5 C5.5054692,4.5 6.3,5.2945317 6.3,6.3 C6.3,7.3054692 5.5054692,8.1 4.5,8.1 C3.4945317,8.1 2.7,7.3054692 2.7,6.3 C2.7,5.2945317 3.4945317,4.5 4.5,4.5 Z M22.5,4.5 C23.5054692,4.5 24.3,5.2945317 24.3,6.3 C24.3,7.3054692 23.5054692,8.1 22.5,8.1 C21.4945317,8.1 20.7,7.3054692 20.7,6.3 C20.7,5.2945317 21.4945317,4.5 22.5,4.5 Z" id="Shape"></path>
                </g>
            </g>
        </g>
    </g>
</svg>