<?xml version="1.0" encoding="UTF-8"?>
<svg width="49px" height="23px" viewBox="0 0 49 23" version="1.1" xmlns="http://www.w3.org/2000/svg" xmlns:xlink="http://www.w3.org/1999/xlink">
    <!-- Generator: Sketch 50.2 (55047) - http://www.bohemiancoding.com/sketch -->
    <title>Group 9</title>
    <desc>Created with Sketch.</desc>
    <defs></defs>
    <g id="HS---Betting" stroke="none" stroke-width="1" fill="none" fill-rule="evenodd">
        <g id="Pop-up-detail" transform="translate(-183.000000, -159.000000)" fill="#FFFFFF" fill-rule="nonzero">
            <g id="Group-6" transform="translate(177.000000, 154.000000)">
                <g id="Group-9">
                    <g id="icons8-boxing" transform="translate(16.023200, 15.773673) rotate(-315.000000) translate(-16.023200, -15.773673) translate(6.023200, 4.273673)">
                        <path d="M11.2272727,0 C4.92205277,0 3.45454545,1.56534091 3.45454545,5.88352273 C3.45454545,7.0069245 4.05504305,11.4060722 4.39914773,12.4417614 C3.79527677,12.0099432 2.59090909,8.548651 2.59090909,6.90909091 C1.72727273,6.90909091 -1.03568914,7.78284823 0.431818182,11.4971591 C2.36487905,16.6283734 4.63867209,17.4279124 6.07244318,17.8934659 C6.13991477,19.7253198 6.44016314,21.2096948 6.74715909,21.5909091 C7.35103005,22.19478 8.548651,22.4545455 11.6590909,22.4545455 C14.7695317,22.4545455 16.1459521,22.2015268 16.4900568,21.5099432 C17.0939278,20.3865414 17.2727273,17.7045455 17.2727273,17.7045455 C17.2727273,17.7045455 14.4220528,18.8313215 10.7954545,18.4872159 C10.2017045,18.436612 9.66530518,18.3421518 9.17613636,18.2443182 C11.9087362,18.1127484 15.8794391,17.4785154 16.6789773,16.6789773 C18.40625,14.9517045 19,9.94193914 19,5.88352273 C19,1.56534091 17.5324927,0 11.2272727,0 Z" id="Shape"></path>
                    </g>
                    <g id="icons8-boxing-copy" transform="translate(45.476800, 15.227273) scale(-1, 1) rotate(-315.000000) translate(-45.476800, -15.227273) translate(35.976800, 4.000000)">
                        <path d="M11.2272727,0 C4.92205277,0 3.45454545,1.56534091 3.45454545,5.88352273 C3.45454545,7.0069245 4.05504305,11.4060722 4.39914773,12.4417614 C3.79527677,12.0099432 2.59090909,8.548651 2.59090909,6.90909091 C1.72727273,6.90909091 -1.03568914,7.78284823 0.431818182,11.4971591 C2.36487905,16.6283734 4.63867209,17.4279124 6.07244318,17.8934659 C6.13991477,19.7253198 6.44016314,21.2096948 6.74715909,21.5909091 C7.35103005,22.19478 8.548651,22.4545455 11.6590909,22.4545455 C14.7695317,22.4545455 16.1459521,22.2015268 16.4900568,21.5099432 C17.0939278,20.3865414 17.2727273,17.7045455 17.2727273,17.7045455 C17.2727273,17.7045455 14.4220528,18.8313215 10.7954545,18.4872159 C10.2017045,18.436612 9.66530518,18.3421518 9.17613636,18.2443182 C11.9087362,18.1127484 15.8794391,17.4785154 16.6789773,16.6789773 C18.40625,14.9517045 19,9.94193914 19,5.88352273 C19,1.56534091 17.5324927,0 11.2272727,0 Z" id="Shape"></path>
                    </g>
                </g>
            </g>
        </g>
    </g>
</svg>