<?xml version="1.0" encoding="UTF-8"?>
<svg width="374px" height="239px" viewBox="0 0 374 239" version="1.1" xmlns="http://www.w3.org/2000/svg" xmlns:xlink="http://www.w3.org/1999/xlink">
    <!-- Generator: Sketch 52.1 (67048) - http://www.bohemiancoding.com/sketch -->
    <title>Back</title>
    <desc>Created with Sketch.</desc>
    <g id="MOBILE-WEB-ATM" stroke="none" stroke-width="1" fill="none" fill-rule="evenodd">
        <g id="Back">
            <g id="Group-18">
                <path d="M373.622216,226.360112 C373.622216,233.257552 368.106376,238.847312 361.302216,238.847312 L12.636536,238.847312 C5.833256,238.847312 0.316536,233.257552 0.316536,226.360112 L0.316536,12.850112 C0.316536,5.953552 5.833256,0.362912 12.636536,0.362912 L361.302216,0.362912 C368.106376,0.362912 373.622216,5.953552 373.622216,12.850112 L373.622216,226.360112 Z" id="Fill-1" fill="#FFFFFF"></path>
                <path d="M12.636624,0.451968 C5.892304,0.451968 0.405504,6.013568 0.405504,12.849408 L0.405504,226.360288 C0.405504,233.196128 5.892304,238.759488 12.636624,238.759488 L361.302304,238.759488 C368.046624,238.759488 373.534304,233.196128 373.534304,226.360288 L373.534304,12.849408 C373.534304,6.013568 368.046624,0.451968 361.302304,0.451968 L12.636624,0.451968 Z M361.302304,238.936368 L12.636624,238.936368 C5.795504,238.936368 0.228624,233.294688 0.228624,226.360288 L0.228624,12.849408 C0.228624,5.915008 5.795504,0.274208 12.636624,0.274208 L361.302304,0.274208 C368.143424,0.274208 373.710304,5.915008 373.710304,12.849408 L373.710304,226.360288 C373.710304,233.294688 368.143424,238.936368 361.302304,238.936368 Z" id="Fill-3" fill="#000000"></path>
                <polygon id="Fill-5" fill="#8998E2" points="175.692 143.73568 327.052 143.73568 327.052 135.26216 175.692 135.26216"></polygon>
                <polygon id="Fill-7" fill="#8998E2" points="64.81288 80.59568 305.932 80.59568 305.932 75.96776 64.81288 75.96776"></polygon>
                <polygon id="Fill-8" fill="#8998E2" points="65.252 90.31264 185.812 90.31264 185.812 85.68472 65.252 85.68472"></polygon>
                <polygon id="Fill-9" fill="#8998E2" points="175.692 161.57504 299.772 161.57504 299.772 153.10152 175.692 153.10152"></polygon>
                <polygon id="Fill-10" fill="#8998E2" points="175.692 179.4144 272.492 179.4144 272.492 170.94088 175.692 170.94088"></polygon>
                <polygon id="Fill-11" fill="#000000" points="0.3168 71.0512 373.62248 71.0512 373.62248 23.77584 0.3168 23.77584"></polygon>
                <polygon id="Fill-12" fill="#000000" points="48.830056 211.242856 46.617736 211.237576 46.589576 129.943176 48.806296 129.942296"></polygon>
                <polygon id="Fill-13" fill="#000000" points="59.91172 202.897024 56.58796 202.902304 56.56156 129.943264 59.88356 129.941504"></polygon>
                <polygon id="Fill-14" fill="#000000" points="66.000352 202.899664 61.571312 202.897904 61.547552 129.938864 65.979232 129.937104"></polygon>
                <polygon id="Fill-15" fill="#000000" points="90.92996 202.893592 87.60884 202.892712 87.58508 129.927512 90.90972 129.927512"></polygon>
                <polygon id="Fill-16" fill="#000000" points="97.022904 202.885056 92.592104 202.890336 92.568344 129.928656 97.000904 129.925136"></polygon>
                <polygon id="Fill-17" fill="#000000" points="53.816136 211.241184 52.709976 211.243824 52.686216 129.937104 53.789736 129.937104"></polygon>
                <polygon id="Fill-18" fill="#000000" points="85.94476 202.89016 82.62012 202.89456 82.59724 129.92672 85.92364 129.93112"></polygon>
                <polygon id="Fill-19" fill="#000000" points="79.850936 202.894472 78.743896 202.894472 78.721016 129.930152 79.828936 129.931032"></polygon>
                <polygon id="Fill-20" fill="#000000" points="70.988984 202.899664 68.774024 202.896144 68.746744 129.931824 70.967864 129.936224"></polygon>
                <polygon id="Fill-21" fill="#000000" points="75.974272 202.897904 74.865472 202.897024 74.842592 129.932704 75.950512 129.937104"></polygon>
                <polygon id="Fill-22" fill="#000000" points="147.990744 202.87256 145.774024 202.87344 145.750264 129.90736 147.968744 129.91088"></polygon>
                <polygon id="Fill-23" fill="#000000" points="138.017704 202.878984 134.695704 202.878984 134.671944 129.912904 137.996584 129.909384"></polygon>
                <polygon id="Fill-24" fill="#000000" points="133.034176 202.880304 128.601616 202.879424 128.579616 129.915104 133.010416 129.915984"></polygon>
                <polygon id="Fill-25" fill="#000000" points="106.995152 202.884176 103.672272 202.886816 103.649392 129.926016 106.974032 129.919856"></polygon>
                <polygon id="Fill-26" fill="#000000" points="102.012416 202.885848 97.578976 202.886728 97.554336 129.925048 101.986896 129.923288"></polygon>
                <polygon id="Fill-27" fill="#000000" points="141.898592 202.87256 140.787152 202.8752 140.764272 129.90912 141.874832 129.91"></polygon>
                <polygon id="Fill-28" fill="#000000" points="111.982024 202.887608 108.660024 202.884968 108.633624 129.924168 111.956504 129.920648"></polygon>
                <polygon id="Fill-29" fill="#000000" points="115.858688 202.884176 114.748128 202.884176 114.727008 129.921616 115.837568 129.921616"></polygon>
                <polygon id="Fill-30" fill="#000000" points="125.830936 202.879424 123.615096 202.881184 123.593976 129.914224 125.807176 129.918624"></polygon>
                <polygon id="Fill-31" fill="#000000" points="119.737024 202.881624 118.631744 202.885144 118.607104 129.922584 119.713264 129.922584"></polygon>
                <path d="M71.675648,113.548688 C72.182528,113.548688 72.507248,113.597968 72.648928,113.694768 C72.790608,113.790688 72.861888,113.973728 72.861888,114.240368 C72.861888,114.514048 72.790608,114.703248 72.648928,114.807088 C72.507248,114.909168 72.182528,114.961088 71.675648,114.961088 L65.676688,114.961088 L65.211168,114.961088 C64.975328,114.961088 64.794048,114.902128 64.668208,114.781568 C64.544128,114.661008 64.480768,114.481488 64.480768,114.240368 C64.480768,113.973728 64.552928,113.790688 64.698128,113.694768 C64.842448,113.597968 65.168928,113.548688 65.676688,113.548688 L67.910128,113.548688 L67.910128,104.523408 L65.676688,104.523408 C65.182128,104.523408 64.860048,104.472368 64.707808,104.368528 C64.556448,104.264688 64.480768,104.076368 64.480768,103.802688 C64.480768,103.556288 64.544128,103.373248 64.668208,103.256208 C64.794048,103.139168 64.981488,103.081088 65.232288,103.081088 L65.676688,103.081088 L71.675648,103.081088 L72.139408,103.081088 C72.377008,103.081088 72.556528,103.140928 72.678848,103.261488 C72.800288,103.382048 72.861888,103.561568 72.861888,103.802688 C72.861888,104.076368 72.787968,104.264688 72.639248,104.368528 C72.491408,104.472368 72.170208,104.523408 71.675648,104.523408 L69.442208,104.523408 L69.442208,113.548688 L71.675648,113.548688 Z" id="Fill-32" fill="#000000"></path>
                <path d="M78.455256,113.548688 C78.665576,113.569808 78.875016,113.584768 79.082696,113.594448 C79.289496,113.604128 79.492776,113.609408 79.689896,113.609408 C81.310856,113.609408 82.498856,113.242448 83.253016,112.506768 C84.008056,111.772848 84.384696,110.614768 84.384696,109.031648 C84.384696,107.443248 84.006296,106.285168 83.247736,105.560048 C82.490936,104.836688 81.278296,104.474128 79.610696,104.474128 C79.301816,104.474128 79.065976,104.477648 78.904936,104.483808 C78.743016,104.489968 78.593416,104.504048 78.455256,104.523408 L78.455256,113.548688 Z M78.455256,114.961088 L76.894136,114.961088 L76.448856,114.961088 C76.205096,114.961088 76.022056,114.902128 75.900616,114.781568 C75.778296,114.661008 75.717576,114.481488 75.717576,114.240368 C75.717576,113.979888 75.788856,113.799488 75.929656,113.699168 C76.071336,113.599728 76.340616,113.548688 76.735736,113.548688 L76.913496,113.548688 L76.913496,104.523408 L76.755096,104.523408 C76.359976,104.523408 76.088056,104.470608 75.940216,104.363248 C75.791496,104.255888 75.717576,104.070208 75.717576,103.802688 C75.717576,103.556288 75.778296,103.373248 75.900616,103.256208 C76.022056,103.139168 76.211256,103.081088 76.468216,103.081088 L76.894136,103.081088 L78.455256,103.081088 L80.638536,103.081088 C82.279736,103.081088 83.587416,103.617008 84.562456,104.689728 C85.537496,105.760688 86.025896,107.208288 86.025896,109.031648 C86.025896,109.919568 85.885096,110.744128 85.605256,111.505328 C85.325416,112.266528 84.918856,112.934448 84.384696,113.509088 C83.891016,114.029168 83.289096,114.409328 82.580696,114.646928 C81.873176,114.883648 80.962376,115.001568 79.848296,115.001568 C79.717176,115.001568 79.494536,114.995408 79.181256,114.981328 C78.868856,114.969008 78.625976,114.961088 78.455256,114.961088 Z" id="Fill-33" fill="#000000"></path>
                <path d="M90.60084,104.212856 C90.51548,104.226936 90.45124,104.236616 90.40812,104.243656 C90.365,104.249816 90.32716,104.252456 90.2946,104.252456 C90.09044,104.252456 89.92412,104.195256 89.79564,104.078216 C89.66716,103.961176 89.60292,103.806296 89.60292,103.611816 C89.60292,103.451656 89.65924,103.312616 89.771,103.192056 C89.88364,103.071496 90.0438,102.980856 90.255,102.921016 L93.1898,102.119336 C93.26284,102.099976 93.33324,102.085016 93.40364,102.074456 C93.47228,102.064776 93.54268,102.059496 93.61572,102.059496 C93.7398,102.059496 93.83924,102.117576 93.91228,102.234616 C93.98444,102.352536 94.02052,102.510056 94.02052,102.710696 L94.02052,113.548776 L95.60188,113.548776 C96.18884,113.548776 96.5602,113.598056 96.7186,113.693976 C96.877,113.790776 96.9562,113.973816 96.9562,114.240456 C96.9562,114.480696 96.88932,114.661096 96.7582,114.781656 C96.6262,114.901336 96.4282,114.961176 96.16508,114.961176 L90.255,114.961176 C89.99188,114.961176 89.79388,114.901336 89.66276,114.781656 C89.52988,114.661096 89.46476,114.480696 89.46476,114.240456 C89.46476,113.973816 89.54396,113.790776 89.70236,113.693976 C89.85988,113.598056 90.23212,113.548776 90.8182,113.548776 L92.45852,113.548776 L92.45852,103.762296 L90.60084,104.212856 Z" id="Fill-34" fill="#000000"></path>
                <path d="M101.669568,114.961528 C101.321088,114.961528 101.062368,114.890248 100.893408,114.746808 C100.726208,114.602488 100.641728,114.380728 100.641728,114.080648 C100.641728,113.645928 101.274448,112.831048 102.539008,111.636008 L102.825888,111.355288 C103.016848,111.168728 103.294048,110.901208 103.656608,110.554488 C105.935808,108.376488 107.076288,106.790728 107.076288,105.796328 C107.076288,105.080888 106.874768,104.501848 106.472608,104.057448 C106.071328,103.613048 105.550368,103.392168 104.911488,103.392168 C104.496128,103.392168 104.099248,103.478408 103.719968,103.651768 C103.341568,103.826008 103.037088,104.059208 102.806528,104.354008 C102.766928,104.406808 102.704448,104.496568 102.618208,104.624168 C102.375328,105.071208 102.100768,105.294728 101.798048,105.294728 C101.561328,105.294728 101.393248,105.221688 101.293808,105.075608 C101.195248,104.927768 101.145968,104.647048 101.145968,104.233448 C101.145968,103.993208 101.169728,103.817208 101.214608,103.707208 C101.261248,103.596328 101.346608,103.478408 101.471568,103.352568 C101.893968,102.937208 102.415808,102.608088 103.038848,102.365208 C103.661008,102.121448 104.298128,102.000008 104.951088,102.000008 C106.044928,102.000008 106.959248,102.356408 107.693168,103.071848 C108.427968,103.785528 108.795808,104.663768 108.795808,105.705688 C108.795808,107.014248 107.674688,108.754888 105.435088,110.924968 C104.862208,111.465288 104.423968,111.890328 104.120368,112.196568 L102.905088,113.379288 L107.421248,113.379288 C107.447648,113.092408 107.525088,112.872408 107.653568,112.723688 C107.782048,112.572328 107.955408,112.497528 108.172768,112.497528 C108.390128,112.497528 108.561728,112.571448 108.686688,112.717528 C108.811648,112.864488 108.875008,113.064248 108.875008,113.318568 C108.875008,113.338808 108.871488,113.374008 108.864448,113.424168 C108.858288,113.474328 108.854768,113.508648 108.854768,113.529768 L108.775568,114.300648 C108.756208,114.506568 108.696368,114.668488 108.597808,114.786408 C108.499248,114.903448 108.369888,114.961528 108.212368,114.961528 L101.669568,114.961528 Z" id="Fill-35" fill="#000000"></path>
                <path d="M118.79692,108.06972 C119.5678,108.28444 120.1662,108.67252 120.59036,109.23748 C121.0154,109.80156 121.22836,110.4906 121.22836,111.3046 C121.22836,112.47412 120.81916,113.43068 120.00252,114.17516 C119.185,114.91964 118.12812,115.29276 116.83012,115.29276 C115.82868,115.29276 114.93724,115.09652 114.15756,114.70668 C113.37612,114.31508 112.9854,113.88652 112.9854,113.41924 C112.9854,113.2186 113.05668,113.05316 113.19836,112.9238 C113.34004,112.79268 113.51252,112.72844 113.71756,112.72844 C113.82844,112.72844 114.23588,112.89828 114.93724,113.23884 C115.63948,113.5794 116.29244,113.74924 116.89964,113.74924 C117.68284,113.74924 118.32084,113.5222 118.81188,113.06812 C119.30204,112.61404 119.54844,112.0262 119.54844,111.3046 C119.54844,110.7106 119.37772,110.20812 119.03892,109.79804 C118.70012,109.38708 118.23284,109.12572 117.6406,109.01132 C117.46196,108.977 117.22876,108.95148 116.93924,108.93124 C116.38572,108.89692 116.10852,108.66372 116.10852,108.22988 C116.10852,107.83652 116.37868,107.60596 116.919,107.5382 C117.12932,107.51972 117.30444,107.49508 117.4426,107.46868 C117.95652,107.3886 118.37188,107.17388 118.6878,106.82716 C119.00372,106.48132 119.16212,106.05892 119.16212,105.56524 C119.16212,104.93076 118.96764,104.41332 118.57956,104.01204 C118.1906,103.61164 117.69604,103.41188 117.09676,103.41188 C116.54324,103.41188 115.97564,103.58524 115.3922,103.93196 C114.80964,104.27956 114.44532,104.45292 114.30012,104.45292 C114.1162,104.45292 113.9622,104.39396 113.84076,104.27428 C113.71844,104.15372 113.65772,104.00236 113.65772,103.82196 C113.65772,103.41452 114.02644,103.00884 114.76476,102.6058 C115.5022,102.20188 116.31972,101.99948 117.21556,101.99948 C118.2434,101.99948 119.09876,102.31452 119.77988,102.94636 C120.46276,103.57732 120.80244,104.35348 120.80244,105.27572 C120.80244,105.9762 120.64052,106.55436 120.31404,107.00756 C119.98844,107.46164 119.48156,107.8154 118.79692,108.06972" id="Fill-36" fill="#000000"></path>
                <path d="M130.230936,110.3432 L130.230936,103.55224 L126.485656,110.3432 L130.230936,110.3432 Z M129.163496,114.96144 C128.847576,114.96144 128.633736,114.90952 128.521976,114.80656 C128.409336,114.70272 128.353016,114.5144 128.353016,114.24072 C128.353016,113.9996 128.411096,113.82536 128.526376,113.71448 C128.641656,113.60448 128.827336,113.54904 129.084296,113.54904 L130.230936,113.54904 L130.230936,111.8656 L125.616216,111.8656 C125.450776,111.8656 125.323176,111.8128 125.229896,111.70544 C125.138376,111.59984 125.091736,111.44584 125.091736,111.2452 L125.091736,110.5544 C125.091736,110.28776 125.187656,110.00704 125.378616,109.71312 C125.411176,109.65856 125.438456,109.61632 125.457816,109.582 L129.628136,102.40912 C129.720536,102.2428 129.796216,102.13632 129.855176,102.0888 C129.915016,102.04304 129.993336,102.01928 130.092776,102.01928 C130.132376,102.01928 130.201896,102.02632 130.300456,102.03952 C130.325976,102.04568 130.353256,102.05272 130.379656,102.05888 L131.387256,102.21992 C131.479656,102.234 131.553576,102.28504 131.609016,102.3748 C131.666216,102.46544 131.693496,102.58424 131.693496,102.73032 L131.693496,110.3432 L132.197736,110.3432 C132.342056,110.3432 132.454696,110.286 132.533896,110.16808 C132.612216,110.05104 132.701976,109.99296 132.800536,109.99296 C132.932536,109.99296 133.044296,110.044 133.136696,110.14256 C133.229096,110.24376 133.274856,110.36784 133.274856,110.51392 C133.274856,110.57376 133.271336,110.6292 133.265176,110.67936 C133.258136,110.72864 133.245816,110.78056 133.225576,110.83512 L133.146376,111.2452 C133.100616,111.48632 133.032856,111.65 132.943976,111.73624 C132.854216,111.82248 132.715176,111.8656 132.523336,111.8656 L131.693496,111.8656 L131.693496,113.54904 L132.040216,113.54904 C132.460856,113.54904 132.751256,113.60096 132.909656,113.7048 C133.068056,113.80864 133.146376,113.9864 133.146376,114.24072 C133.146376,114.48096 133.080376,114.66136 132.949256,114.78104 C132.816376,114.9016 132.619256,114.96144 132.356136,114.96144 L129.163496,114.96144 Z" id="Fill-37" fill="#000000"></path>
                <path d="M139.323096,107.128296 C139.757816,106.968136 140.159976,106.849336 140.528696,106.772776 C140.898296,106.695336 141.250296,106.656616 141.586456,106.656616 C142.739256,106.656616 143.700216,107.063176 144.466696,107.874536 C145.234936,108.685896 145.618616,109.692616 145.618616,110.894696 C145.618616,112.170696 145.193576,113.222296 144.343496,114.050376 C143.493416,114.878456 142.406616,115.292936 141.082216,115.292936 C139.975176,115.292936 139.048536,115.139816 138.300536,114.836216 C137.552536,114.533496 137.178536,114.163896 137.178536,113.730056 C137.178536,113.555816 137.248056,113.400936 137.386216,113.263656 C137.524376,113.127256 137.686296,113.058616 137.871096,113.058616 C137.943256,113.058616 138.330456,113.186216 139.031816,113.444056 C139.734056,113.701016 140.384376,113.829496 140.983656,113.829496 C141.867176,113.829496 142.582616,113.561096 143.133496,113.023416 C143.683496,112.485736 143.958936,111.793176 143.958936,110.943976 C143.958936,110.116776 143.698456,109.426856 143.177496,108.875976 C142.657416,108.325096 142.001816,108.049656 141.211576,108.049656 C140.618456,108.049656 140.036776,108.200136 139.466536,108.500216 C138.897176,108.801176 138.552216,108.951656 138.433416,108.951656 C138.236296,108.951656 138.095496,108.877736 138.014536,108.730776 C137.931816,108.583816 137.890456,108.317176 137.890456,107.929976 L137.890456,102.941256 C137.890456,102.720376 137.957336,102.561976 138.093736,102.465176 C138.228376,102.367496 138.463336,102.319976 138.799496,102.319976 L143.800536,102.319976 C144.116456,102.319976 144.354056,102.385096 144.511576,102.515336 C144.669976,102.645576 144.749176,102.840936 144.749176,103.101416 C144.749176,103.348696 144.666456,103.540536 144.501896,103.676936 C144.337336,103.813336 144.103256,103.882856 143.800536,103.882856 L139.323096,103.882856 L139.323096,107.128296 Z" id="Fill-38" fill="#000000"></path>
                <path d="M151.568296,111.064712 C151.568296,111.887512 151.781256,112.555432 152.209816,113.072872 C152.639256,113.591192 153.189256,113.850792 153.860696,113.850792 C154.493416,113.850792 155.011736,113.606152 155.417416,113.118632 C155.822216,112.631112 156.024616,111.993112 156.024616,111.205512 C156.024616,110.390632 155.816056,109.728872 155.398056,109.221112 C154.979176,108.714232 154.440616,108.459912 153.782376,108.459912 C153.142616,108.459912 152.613736,108.703672 152.195736,109.192072 C151.776856,109.679592 151.568296,110.303512 151.568296,111.064712 M151.350936,108.400952 C151.706456,107.932792 152.101576,107.581672 152.537176,107.348472 C152.971896,107.115272 153.446216,106.998232 153.960136,106.998232 C155.000296,106.998232 155.884696,107.395992 156.612456,108.189752 C157.341976,108.984392 157.705416,109.963832 157.705416,111.125432 C157.705416,112.340712 157.352536,113.338632 156.646776,114.120072 C155.942776,114.901512 155.039896,115.293112 153.939896,115.293112 C152.641896,115.293112 151.602616,114.770392 150.821176,113.724952 C150.041496,112.679512 149.650776,111.285592 149.650776,109.542312 C149.650776,107.271912 150.228056,105.446792 151.379976,104.067832 C152.533656,102.687992 154.055176,101.999832 155.946296,101.999832 C156.585176,101.999832 157.006696,102.045592 157.210856,102.139752 C157.415896,102.233912 157.517976,102.409912 157.517976,102.670392 C157.517976,103.098072 157.128136,103.318072 156.351976,103.331272 C155.838056,103.338312 155.426216,103.370872 155.115576,103.432472 C154.075416,103.632232 153.230616,104.161112 152.580296,105.019112 C151.931736,105.877992 151.521656,107.004392 151.350936,108.400952" id="Fill-39" fill="#000000"></path>
                <path d="M165.98692,114.76124 C165.93412,114.9214 165.88484,115.02524 165.83908,115.07188 C165.79244,115.11852 165.70708,115.14228 165.58212,115.14228 L165.41404,115.14228 L164.71268,115.14228 C164.5798,115.14228 164.47684,115.115 164.40116,115.0622 C164.3246,115.00852 164.28676,114.93548 164.28676,114.84132 C164.28676,114.78764 164.29204,114.7366 164.3026,114.68644 C164.31228,114.6354 164.32636,114.5782 164.3466,114.51044 L168.23092,103.82196 L163.21052,103.82196 C163.19028,104.13612 163.12076,104.36844 163.00196,104.51804 C162.88404,104.6694 162.70892,104.7442 162.47924,104.7442 C162.25484,104.7442 162.08852,104.68788 161.9794,104.57348 C161.87116,104.45996 161.8166,104.28308 161.8166,104.04284 C161.8166,103.97596 161.81836,103.9258 161.82188,103.89236 C161.8254,103.85892 161.8298,103.82988 161.83596,103.8026 L161.9354,102.9006 C161.95476,102.71492 162.02252,102.56972 162.1378,102.47028 C162.25308,102.36908 162.40972,102.3198 162.60684,102.3198 L169.13996,102.3198 C169.33092,102.3198 169.47084,102.36204 169.5606,102.44476 C169.6486,102.52836 169.69348,102.66036 169.69348,102.84076 L169.69348,103.18132 C169.69348,103.2614 169.67676,103.367 169.64332,103.49636 C169.61076,103.62748 169.55884,103.8026 169.4858,104.0226 L165.98692,114.76124 Z" id="Fill-40" fill="#000000"></path>
                <path d="M175.682408,105.545352 C175.682408,106.206232 175.897128,106.747432 176.329208,107.168072 C176.761288,107.588712 177.313048,107.799912 177.984488,107.799912 C178.663848,107.799912 179.219128,107.586952 179.650328,107.162792 C180.081528,106.738632 180.297128,106.193032 180.297128,105.525992 C180.297128,104.884472 180.081528,104.355592 179.650328,103.937592 C179.219128,103.520472 178.663848,103.311912 177.984488,103.311912 C177.306888,103.311912 176.753368,103.520472 176.323928,103.937592 C175.896248,104.355592 175.682408,104.890632 175.682408,105.545352 M175.583848,111.516152 C175.583848,112.222792 175.802088,112.798312 176.240328,113.239192 C176.678568,113.679192 177.260248,113.900072 177.984488,113.900072 C178.715768,113.900072 179.300968,113.686232 179.738328,113.258552 C180.176568,112.830872 180.395688,112.263272 180.395688,111.555752 C180.395688,110.860552 180.173048,110.299112 179.724248,109.867912 C179.276328,109.437592 178.696408,109.221112 177.984488,109.221112 C177.279608,109.221112 176.703208,109.434072 176.255288,109.858232 C175.807368,110.282392 175.583848,110.835032 175.583848,111.516152 M176.008008,108.481032 C175.370008,108.160712 174.888648,107.754152 174.564808,107.263112 C174.242728,106.772952 174.081688,106.200952 174.081688,105.545352 C174.081688,104.510472 174.446888,103.660392 175.178168,102.995992 C175.909448,102.331592 176.844888,101.999832 177.984488,101.999832 C179.105608,101.999832 180.036648,102.333352 180.782008,103.001272 C181.526488,103.669192 181.897848,104.483192 181.897848,105.445032 C181.897848,106.160472 181.740328,106.764152 181.423528,107.257832 C181.107608,107.752392 180.616568,108.160712 179.952168,108.481032 C180.616568,108.754712 181.126968,109.156872 181.483368,109.687512 C181.838888,110.219032 182.016648,110.842072 182.016648,111.555752 C182.016648,112.658392 181.642648,113.555992 180.895528,114.251192 C180.147528,114.945512 179.177768,115.293112 177.984488,115.293112 C176.792088,115.293112 175.824088,114.941992 175.078728,114.240632 C174.335128,113.539272 173.962888,112.631112 173.962888,111.516152 C173.962888,110.835032 174.140648,110.228712 174.496168,109.698072 C174.852568,109.166552 175.355928,108.761752 176.008008,108.481032" id="Fill-41" fill="#000000"></path>
                <path d="M192.177216,106.226824 C192.177216,105.399624 191.960736,104.725544 191.529536,104.208984 C191.097456,103.689784 190.545696,103.431944 189.874256,103.431944 C189.234496,103.431944 188.717056,103.676584 188.321936,104.163224 C187.926816,104.649864 187.728816,105.288744 187.728816,106.077224 C187.728816,106.891224 187.937376,107.553864 188.351856,108.064264 C188.767216,108.575544 189.300496,108.830744 189.953456,108.830744 C190.592336,108.830744 191.122976,108.585224 191.544496,108.095064 C191.966016,107.604024 192.177216,106.980984 192.177216,106.226824 M192.384016,108.910824 C192.028496,109.371944 191.636896,109.716024 191.207456,109.943064 C190.779776,110.170104 190.308976,110.283624 189.795056,110.283624 C188.752256,110.283624 187.869616,109.887624 187.140976,109.096504 C186.413216,108.304504 186.048896,107.332104 186.048896,106.175784 C186.048896,104.961384 186.400896,103.960824 187.101376,103.175864 C187.803616,102.392664 188.702096,101.999304 189.795056,101.999304 C191.086016,101.999304 192.127056,102.525544 192.918176,103.577144 C193.708416,104.629624 194.103536,106.022664 194.103536,107.759784 C194.103536,110.049544 193.525376,111.878184 192.369936,113.243944 C191.212736,114.609704 189.665696,115.292584 187.728816,115.292584 C187.116336,115.292584 186.709776,115.245944 186.509136,115.151784 C186.307616,115.058504 186.207296,114.885144 186.207296,114.630824 C186.207296,114.204024 186.598896,113.980504 187.383856,113.960264 C187.904816,113.946184 188.315776,113.909224 188.619376,113.850264 C189.660416,113.655784 190.505216,113.132184 191.153776,112.276824 C191.802336,111.421464 192.213296,110.299464 192.384016,108.910824" id="Fill-42" fill="#000000"></path>
                <path d="M202.276624,103.43212 C201.519824,103.43212 200.929344,103.8862 200.507824,104.79436 C200.087184,105.70252 199.875104,106.98468 199.875104,108.64084 C199.875104,110.30316 200.087184,111.5906 200.507824,112.50316 C200.929344,113.41396 201.519824,113.86892 202.276624,113.86892 C203.041344,113.86892 203.634464,113.41396 204.055104,112.50316 C204.477504,111.5906 204.687824,110.30316 204.687824,108.64084 C204.687824,106.98468 204.477504,105.70252 204.055104,104.79436 C203.634464,103.8862 203.041344,103.43212 202.276624,103.43212 M202.276624,115.29276 C201.038464,115.29276 200.055504,114.69964 199.326864,113.51428 C198.597344,112.32892 198.234784,110.70444 198.234784,108.64084 C198.234784,106.58428 198.597344,104.96244 199.326864,103.77708 C200.055504,102.5926 201.038464,101.99948 202.276624,101.99948 C203.515664,101.99948 204.500384,102.59436 205.231664,103.78236 C205.962944,104.97036 206.329024,106.59044 206.329024,108.64084 C206.329024,110.69124 205.962944,112.3122 205.231664,113.5046 C204.500384,114.69612 203.515664,115.29276 202.276624,115.29276" id="Fill-43" fill="#000000"></path>
                <path d="M211.27084,108.62016 L218.51412,112.00728 C218.80452,112.14632 219.0122,112.28624 219.13716,112.42264 C219.26212,112.55992 219.3246,112.71392 219.3246,112.88904 C219.3246,113.0888 219.26652,113.24896 219.15212,113.36952 C219.03596,113.4892 218.87668,113.54904 218.67252,113.54904 C218.581,113.54904 218.47804,113.5332 218.36628,113.49888 C218.25452,113.46544 218.09612,113.39944 217.89108,113.29912 L210.03532,109.582 C210.00892,109.57584 209.97548,109.56264 209.93588,109.54152 C209.33044,109.26168 209.02684,108.95456 209.02684,108.62016 C209.02684,108.28664 209.32252,107.98656 209.91652,107.71992 C209.96932,107.69264 210.00892,107.6724 210.03532,107.65832 L217.89108,104.0028 C218.0706,103.91656 218.22108,103.8532 218.34692,103.81712 C218.47188,103.78016 218.581,103.76256 218.67252,103.76256 C218.87668,103.76256 219.03596,103.81888 219.15212,103.9324 C219.26652,104.04592 219.3246,104.19992 219.3246,104.39352 C219.3246,104.57304 219.26212,104.73232 219.13716,104.8696 C219.0122,105.00688 218.80452,105.14152 218.51412,105.27528 L211.27084,108.62016 Z" id="Fill-44" fill="#000000"></path>
                <path d="M223.416336,108.62016 L230.659616,112.00728 C230.950896,112.14632 231.157696,112.28624 231.281776,112.42264 C231.407616,112.55992 231.470976,112.71392 231.470976,112.88904 C231.470976,113.0888 231.412896,113.24896 231.297616,113.36952 C231.182336,113.4892 231.022176,113.54904 230.818016,113.54904 C230.726496,113.54904 230.623536,113.5332 230.511776,113.49888 C230.400896,113.46544 230.242496,113.39944 230.037456,113.29912 L222.181696,109.582 C222.154416,109.57584 222.120976,109.56264 222.081376,109.54152 C221.475936,109.26168 221.172336,108.95456 221.172336,108.62016 C221.172336,108.28664 221.469776,107.98656 222.062896,107.71992 C222.114816,107.69264 222.154416,107.6724 222.181696,107.65832 L230.037456,104.0028 C230.216096,103.91656 230.367456,103.8532 230.492416,103.81712 C230.617376,103.78016 230.726496,103.76256 230.818016,103.76256 C231.022176,103.76256 231.182336,103.81888 231.297616,103.9324 C231.412896,104.04592 231.470976,104.19992 231.470976,104.39352 C231.470976,104.57304 231.407616,104.73232 231.281776,104.8696 C231.157696,105.00688 230.950896,105.14152 230.659616,105.27528 L223.416336,108.62016 Z" id="Fill-45" fill="#000000"></path>
                <path d="M235.56192,108.62016 L242.80608,112.00728 C243.09736,112.14632 243.30416,112.28624 243.42824,112.42264 C243.55408,112.55992 243.61656,112.71392 243.61656,112.88904 C243.61656,113.0888 243.55936,113.24896 243.44408,113.36952 C243.3288,113.4892 243.16952,113.54904 242.96448,113.54904 C242.87208,113.54904 242.77,113.5332 242.65824,113.49888 C242.54648,113.46544 242.38808,113.39944 242.18392,113.29912 L234.32728,109.582 C234.3,109.57584 234.26744,109.56264 234.22784,109.54152 C233.62152,109.26168 233.3188,108.95456 233.3188,108.62016 C233.3188,108.28664 233.61536,107.98656 234.20848,107.71992 C234.2604,107.69264 234.3,107.6724 234.32728,107.65832 L242.18392,104.0028 C242.36168,103.91656 242.51304,103.8532 242.638,103.81712 C242.76296,103.78016 242.87208,103.76256 242.96448,103.76256 C243.16952,103.76256 243.3288,103.81888 243.44408,103.9324 C243.55936,104.04592 243.61656,104.19992 243.61656,104.39352 C243.61656,104.57304 243.55408,104.73232 243.42824,104.8696 C243.30416,105.00688 243.09736,105.14152 242.80608,105.27528 L235.56192,108.62016 Z" id="Fill-46" fill="#000000"></path>
                <path d="M247.708296,108.62016 L254.952456,112.00728 C255.242856,112.14632 255.449656,112.28624 255.574616,112.42264 C255.700456,112.55992 255.762056,112.71392 255.762056,112.88904 C255.762056,113.0888 255.705736,113.24896 255.590456,113.36952 C255.474296,113.4892 255.315016,113.54904 255.110856,113.54904 C255.018456,113.54904 254.916376,113.5332 254.803736,113.49888 C254.691976,113.46544 254.532696,113.39944 254.329416,113.29912 L246.472776,109.582 C246.446376,109.57584 246.413816,109.56264 246.374216,109.54152 C245.767896,109.26168 245.465176,108.95456 245.465176,108.62016 C245.465176,108.28664 245.760856,107.98656 246.353976,107.71992 C246.406776,107.69264 246.446376,107.6724 246.472776,107.65832 L254.329416,104.0028 C254.508056,103.91656 254.658536,103.8532 254.784376,103.81712 C254.910216,103.78016 255.018456,103.76256 255.110856,103.76256 C255.315016,103.76256 255.474296,103.81888 255.590456,103.9324 C255.705736,104.04592 255.762056,104.19992 255.762056,104.39352 C255.762056,104.57304 255.700456,104.73232 255.574616,104.8696 C255.449656,105.00688 255.242856,105.14152 254.952456,105.27528 L247.708296,108.62016 Z" id="Fill-47" fill="#000000"></path>
                <path d="M259.85476,108.62016 L267.09804,112.00728 C267.38844,112.14632 267.59612,112.28624 267.72108,112.42264 C267.84604,112.55992 267.90852,112.71392 267.90852,112.88904 C267.90852,113.0888 267.85132,113.24896 267.73604,113.36952 C267.61988,113.4892 267.4606,113.54904 267.25644,113.54904 C267.16492,113.54904 267.06108,113.5332 266.9502,113.49888 C266.83844,113.46544 266.68004,113.39944 266.475,113.29912 L258.61924,109.582 C258.59284,109.57584 258.5594,109.56264 258.5198,109.54152 C257.91436,109.26168 257.61076,108.95456 257.61076,108.62016 C257.61076,108.28664 257.90732,107.98656 258.50044,107.71992 C258.55324,107.69264 258.59284,107.6724 258.61924,107.65832 L266.475,104.0028 C266.65452,103.91656 266.805,103.8532 266.93084,103.81712 C267.0558,103.78016 267.16492,103.76256 267.25644,103.76256 C267.4606,103.76256 267.61988,103.81888 267.73604,103.9324 C267.85132,104.04592 267.90852,104.19992 267.90852,104.39352 C267.90852,104.57304 267.84604,104.73232 267.72108,104.8696 C267.59612,105.00688 267.38844,105.14152 267.09804,105.27528 L259.85476,108.62016 Z" id="Fill-48" fill="#000000"></path>
                <path d="M272.000256,108.62016 L279.243536,112.00728 C279.534816,112.14632 279.742496,112.28624 279.866576,112.42264 C279.991536,112.55992 280.054896,112.71392 280.054896,112.88904 C280.054896,113.0888 279.996816,113.24896 279.881536,113.36952 C279.766256,113.4892 279.606976,113.54904 279.401936,113.54904 C279.310416,113.54904 279.207456,113.5332 279.095696,113.49888 C278.984816,113.46544 278.826416,113.39944 278.621376,113.29912 L270.765616,109.582 C270.738336,109.57584 270.704896,109.56264 270.665296,109.54152 C270.059856,109.26168 269.756256,108.95456 269.756256,108.62016 C269.756256,108.28664 270.053696,107.98656 270.646816,107.71992 C270.698736,107.69264 270.738336,107.6724 270.765616,107.65832 L278.621376,104.0028 C278.800016,103.91656 278.951376,103.8532 279.076336,103.81712 C279.201296,103.78016 279.310416,103.76256 279.401936,103.76256 C279.606976,103.76256 279.766256,103.81888 279.881536,103.9324 C279.996816,104.04592 280.054896,104.19992 280.054896,104.39352 C280.054896,104.57304 279.991536,104.73232 279.866576,104.8696 C279.742496,105.00688 279.534816,105.14152 279.243536,105.27528 L272.000256,108.62016 Z" id="Fill-49" fill="#000000"></path>
                <path d="M284.14584,108.62016 L291.39,112.00728 C291.68128,112.14632 291.88808,112.28624 292.01216,112.42264 C292.138,112.55992 292.20048,112.71392 292.20048,112.88904 C292.20048,113.0888 292.14328,113.24896 292.028,113.36952 C291.91272,113.4892 291.75344,113.54904 291.54752,113.54904 C291.456,113.54904 291.35392,113.5332 291.24216,113.49888 C291.1304,113.46544 290.972,113.39944 290.76784,113.29912 L282.9112,109.582 C282.88392,109.57584 282.85136,109.56264 282.81176,109.54152 C282.20544,109.26168 281.90272,108.95456 281.90272,108.62016 C281.90272,108.28664 282.19928,107.98656 282.79152,107.71992 C282.84432,107.69264 282.88392,107.6724 282.9112,107.65832 L290.76784,104.0028 C290.9456,103.91656 291.09608,103.8532 291.22192,103.81712 C291.34776,103.78016 291.456,103.76256 291.54752,103.76256 C291.75344,103.76256 291.91272,103.81888 292.028,103.9324 C292.14328,104.04592 292.20048,104.19992 292.20048,104.39352 C292.20048,104.57304 292.138,104.73232 292.01216,104.8696 C291.88808,105.00688 291.68128,105.14152 291.39,105.27528 L284.14584,108.62016 Z" id="Fill-50" fill="#000000"></path>
                <path d="M296.292216,108.62016 L303.536376,112.00728 C303.826776,112.14632 304.032696,112.28624 304.158536,112.42264 C304.284376,112.55992 304.345976,112.71392 304.345976,112.88904 C304.345976,113.0888 304.289656,113.24896 304.174376,113.36952 C304.058216,113.4892 303.898936,113.54904 303.694776,113.54904 C303.602376,113.54904 303.500296,113.5332 303.387656,113.49888 C303.275896,113.46544 303.117496,113.39944 302.913336,113.29912 L295.056696,109.582 C295.030296,109.57584 294.997736,109.56264 294.957256,109.54152 C294.351816,109.26168 294.048216,108.95456 294.048216,108.62016 C294.048216,108.28664 294.344776,107.98656 294.937896,107.71992 C294.990696,107.69264 295.030296,107.6724 295.056696,107.65832 L302.913336,104.0028 C303.091976,103.91656 303.242456,103.8532 303.368296,103.81712 C303.494136,103.78016 303.602376,103.76256 303.694776,103.76256 C303.898936,103.76256 304.058216,103.81888 304.174376,103.9324 C304.289656,104.04592 304.345976,104.19992 304.345976,104.39352 C304.345976,104.57304 304.284376,104.73232 304.158536,104.8696 C304.032696,105.00688 303.826776,105.14152 303.536376,105.27528 L296.292216,108.62016 Z" id="Fill-51" fill="#000000"></path>
                <path d="M308.438592,108.62016 L315.680992,112.00728 C315.972272,112.14632 316.179952,112.28624 316.304912,112.42264 C316.429872,112.55992 316.491472,112.71392 316.491472,112.88904 C316.491472,113.0888 316.435152,113.24896 316.319872,113.36952 C316.203712,113.4892 316.044432,113.54904 315.840272,113.54904 C315.747872,113.54904 315.645792,113.5332 315.534032,113.49888 C315.422272,113.46544 315.263872,113.39944 315.057952,113.29912 L307.203072,109.582 C307.176672,109.57584 307.143232,109.56264 307.103632,109.54152 C306.498192,109.26168 306.194592,108.95456 306.194592,108.62016 C306.194592,108.28664 306.491152,107.98656 307.083392,107.71992 C307.137072,107.69264 307.176672,107.6724 307.203072,107.65832 L315.057952,104.0028 C315.238352,103.91656 315.387952,103.8532 315.514672,103.81712 C315.639632,103.78016 315.747872,103.76256 315.840272,103.76256 C316.044432,103.76256 316.203712,103.81888 316.319872,103.9324 C316.435152,104.04592 316.491472,104.19992 316.491472,104.39352 C316.491472,104.57304 316.429872,104.73232 316.304912,104.8696 C316.179952,105.00688 315.972272,105.14152 315.680992,105.27528 L308.438592,108.62016 Z" id="Fill-52" fill="#000000"></path>
                <path d="M320.584176,108.62016 L327.827456,112.00728 C328.118736,112.14632 328.326416,112.28624 328.450496,112.42264 C328.575456,112.55992 328.638816,112.71392 328.638816,112.88904 C328.638816,113.0888 328.580736,113.24896 328.465456,113.36952 C328.350176,113.4892 328.190896,113.54904 327.985856,113.54904 C327.894336,113.54904 327.791376,113.5332 327.679616,113.49888 C327.568736,113.46544 327.410336,113.39944 327.205296,113.29912 L319.348656,109.582 C319.322256,109.57584 319.288816,109.56264 319.249216,109.54152 C318.643776,109.26168 318.340176,108.95456 318.340176,108.62016 C318.340176,108.28664 318.637616,107.98656 319.230736,107.71992 C319.282656,107.69264 319.322256,107.6724 319.348656,107.65832 L327.205296,104.0028 C327.383936,103.91656 327.535296,103.8532 327.660256,103.81712 C327.785216,103.78016 327.894336,103.76256 327.985856,103.76256 C328.190896,103.76256 328.350176,103.81888 328.465456,103.9324 C328.580736,104.04592 328.638816,104.19992 328.638816,104.39352 C328.638816,104.57304 328.575456,104.73232 328.450496,104.8696 C328.326416,105.00688 328.118736,105.14152 327.827456,105.27528 L320.584176,108.62016 Z" id="Fill-53" fill="#000000"></path>
                <polygon id="Fill-54" fill="#BF7B7B" points="56.59896 211.84944 147.532 211.84944 147.532 206.02384 56.59896 206.02384"></polygon>
            </g>
        </g>
    </g>
</svg>