<?xml version="1.0" encoding="UTF-8"?>
<svg width="374px" height="349px" viewBox="0 0 374 349" version="1.1" xmlns="http://www.w3.org/2000/svg" xmlns:xlink="http://www.w3.org/1999/xlink">
    <!-- Generator: Sketch 52.1 (67048) - http://www.bohemiancoding.com/sketch -->
    <title>Group 7</title>
    <desc>Created with Sketch.</desc>
    <g id="MOBILE-WEB-ATM" stroke="none" stroke-width="1" fill="none" fill-rule="evenodd">
        <g id="Group-7">
            <rect id="Rectangle" fill="#E7EBFF" x="0" y="110" width="374" height="239" rx="13"></rect>
            <g id="Group-89" transform="translate(28.000000, 0.000000)">
                <path d="M252.3302,78.2648 C252.3302,81.4288 249.7652,83.9948 246.6002,83.9948 C243.4352,83.9948 240.8702,81.4288 240.8702,78.2648 L240.8702,78.1958 C242.9192,74.2318 250.2812,74.2318 252.3302,78.1958 L252.3302,78.2648 Z" id="Fill-1" fill="#FFA783"></path>
                <path d="M265.6447,78.2648 C265.6447,81.4288 263.0787,83.9948 259.9137,83.9948 C256.7487,83.9948 254.1837,81.4288 254.1837,78.2648 L254.1837,78.1958 C256.2327,74.2318 263.5957,74.2318 265.6447,78.1958 L265.6447,78.2648 Z" id="Fill-3" fill="#FFA783"></path>
                <path d="M278.9581,78.2648 C278.9581,81.4288 276.3931,83.9948 273.2281,83.9948 C270.0621,83.9948 267.4971,81.4288 267.4971,78.2648 L267.4971,78.1958 C269.5461,74.2318 276.9081,74.2318 278.9581,78.1958 L278.9581,78.2648 Z" id="Fill-5" fill="#FFA783"></path>
                <path d="M292.2726,78.2648 C292.2726,81.4288 289.7066,83.9948 286.5416,83.9948 C283.3766,83.9948 280.8116,81.4288 280.8116,78.2648 L280.8116,78.1958 C282.8616,74.2318 290.2226,74.2318 292.2726,78.1958 L292.2726,78.2648 Z" id="Fill-7" fill="#FFA783"></path>
                <path d="M268.5612,76.8409 C269.6002,78.2999 271.3012,79.2529 273.2282,79.2529 C275.1542,79.2529 276.8552,78.2999 277.8942,76.8409 C275.4892,74.6889 270.9662,74.6889 268.5612,76.8409" id="Fill-9" fill="#F4CEC6"></path>
                <path d="M281.8751,76.8419 C282.9141,78.2999 284.6151,79.2529 286.5411,79.2529 C288.4691,79.2529 290.1701,78.2999 291.2081,76.8409 C288.8041,74.6889 284.2801,74.6889 281.8751,76.8419" id="Fill-11" fill="#F4CEC6"></path>
                <path d="M255.2477,76.8409 C256.2867,78.2999 257.9877,79.2529 259.9137,79.2529 C261.8407,79.2529 263.5417,78.2999 264.5807,76.8409 C262.1757,74.6889 257.6527,74.6889 255.2477,76.8409" id="Fill-13" fill="#F4CEC6"></path>
                <path d="M241.9337,76.8409 C242.9727,78.2999 244.6737,79.2529 246.5997,79.2529 C248.5267,79.2529 250.2277,78.2999 251.2667,76.8409 C248.8617,74.6889 244.3387,74.6889 241.9337,76.8409" id="Fill-15" fill="#F4CEC6"></path>
                <path d="M246.5997,83.046 C244.0197,83.046 241.9117,80.993 241.8207,78.435 C242.8117,76.771 244.9157,76.171 246.5997,76.171 C248.2827,76.171 250.3847,76.769 251.3767,78.431 C251.2567,81.025 249.1597,83.046 246.5997,83.046" id="Fill-17" fill="#FFA783"></path>
                <path d="M259.9137,83.046 C257.3337,83.046 255.2257,80.993 255.1347,78.435 C256.1257,76.771 258.2307,76.171 259.9137,76.171 C261.5967,76.171 263.6987,76.769 264.6907,78.431 C264.5707,81.025 262.4737,83.046 259.9137,83.046" id="Fill-19" fill="#FFA783"></path>
                <path d="M273.2277,83.046 C270.6477,83.046 268.5387,80.993 268.4487,78.435 C269.4387,76.771 271.5437,76.171 273.2277,76.171 C274.9107,76.171 277.0117,76.769 278.0037,78.431 C277.8847,81.025 275.7877,83.046 273.2277,83.046" id="Fill-21" fill="#FFA783"></path>
                <path d="M286.5411,83.046 C283.9621,83.046 281.8541,80.993 281.7621,78.435 C282.7541,76.771 284.8581,76.171 286.5421,76.171 C288.2251,76.171 290.3271,76.769 291.3181,78.431 C291.1981,81.025 289.1021,83.046 286.5411,83.046" id="Fill-23" fill="#FFA783"></path>
                <path d="M324.9196,172.0362 L198.5016,172.0362 C195.5836,172.0362 193.2176,169.6712 193.2176,166.7522 L193.2176,86.8942 C193.2176,83.9762 195.5836,81.6102 198.5016,81.6102 L324.9196,81.6102 C327.8376,81.6102 330.2036,83.9762 330.2036,86.8942 L330.2036,166.7522 C330.2036,169.6712 327.8376,172.0362 324.9196,172.0362" id="Fill-25" stroke="#F0F0F0" stroke-width="2" fill="#FFFFFF"></path>
                <polygon id="Fill-27" fill="#C2CCFF" points="208.07 174.2 310.63 174.2 310.63 109.946 208.07 109.946"></polygon>
                <polygon id="Fill-29" fill="#F3F7F8" points="214.341 156.485 245.406 156.485 245.406 115.907 214.341 115.907"></polygon>
                <polygon id="Fill-30" fill="#F3F7F8" points="251.178 122.962 273.475 122.962 273.475 118.722 251.178 118.722"></polygon>
                <polygon id="Fill-31" fill="#F3F7F8" points="251.177 130.945 281.045 130.945 281.045 126.705 251.177 126.705"></polygon>
                <polygon id="Fill-32" fill="#F3F7F8" points="251.177 146.314 303.343 146.314 303.343 142.074 251.177 142.074"></polygon>
                <polygon id="Fill-33" fill="#F3F7F8" points="251.177 154.65 303.343 154.65 303.343 150.41 251.177 150.41"></polygon>
                <polygon id="Fill-34" fill="#F3F7F8" points="213.42 165.73 269.049 165.73 269.049 161.49 213.42 161.49"></polygon>
                <polygon id="Fill-35" fill="#F3F7F8" points="274.145 165.73 304.373 165.73 304.373 161.49 274.145 161.49"></polygon>
                <path d="M301.3204,123.1661 C301.3204,124.6471 299.4034,125.8491 297.0394,125.8491 C294.6744,125.8491 292.7574,124.6471 292.7574,123.1661 C292.7574,121.6851 294.6744,120.4831 297.0394,120.4831 C299.4034,120.4831 301.3204,121.6851 301.3204,123.1661" id="Fill-36" fill="#F3F7F8"></path>
                <path d="M229.8732,142.3097 C227.7472,142.3127 222.8012,142.4107 220.1692,145.9247 C218.3292,148.3827 218.1562,153.1197 218.2842,156.3157 L241.4622,156.3157 C241.5912,153.1197 241.4182,148.3827 239.5772,145.9247 C236.9452,142.4107 231.9992,142.3127 229.8732,142.3097" id="Fill-37" fill="#546FF7"></path>
                <path d="M233.2472,142.5372 C231.9022,142.3242 230.6842,142.3092 229.8732,142.3092 C229.0622,142.3092 227.8432,142.3242 226.4972,142.5372 C226.5712,143.3752 226.9882,144.1032 227.6822,144.5942 C228.2802,145.0162 229.0572,145.2502 229.8712,145.2502 C230.6852,145.2502 231.4622,145.0162 232.0602,144.5942 C232.7542,144.1012 233.1732,143.3752 233.2472,142.5372" id="Fill-38" fill="#FFFFFF"></path>
                <path d="M224.2008,149.1251 C224.0968,149.1101 224.0008,149.1841 223.9868,149.2871 C223.9518,149.5401 223.4978,152.8921 223.1898,156.3151 L223.5758,156.3151 C223.8928,152.8271 224.3558,149.4021 224.3648,149.3401 C224.3778,149.2351 224.3048,149.1401 224.2008,149.1251" id="Fill-39" fill="#9BC9DD"></path>
                <path d="M235.5597,149.2872 C235.5457,149.1832 235.4497,149.1102 235.3457,149.1252 C235.2397,149.1402 235.1667,149.2352 235.1817,149.3402 C235.1897,149.4022 235.6537,152.8272 235.9707,156.3152 L236.3567,156.3152 C236.0487,152.8912 235.5947,149.5402 235.5597,149.2872" id="Fill-40" fill="#9BC9DD"></path>
                <path d="M232.4088,142.462 C232.2418,145.125 227.5038,145.125 227.3388,142.462 L227.3388,136.302 L232.4088,136.302 L232.4088,142.462 Z" id="Fill-41" fill="#FFA783"></path>
                <path d="M227.3385,142.2667 C230.1865,141.8267 231.6555,140.9547 232.4085,140.2177 L232.4085,136.3017 L227.3385,136.3017 L227.3385,142.2667 Z" id="Fill-42" fill="#F5916F"></path>
                <path d="M222.733,131.087 C222.733,132.026 221.972,132.786 221.031,132.786 C220.091,132.786 219.33,132.026 219.33,131.087 C219.33,130.145 220.091,129.384 221.031,129.384 C221.972,129.384 222.733,130.145 222.733,131.087" id="Fill-43" fill="#F5916F"></path>
                <path d="M240.4176,131.087 C240.4176,132.026 239.6556,132.786 238.7156,132.786 C237.7756,132.786 237.0146,132.026 237.0146,131.087 C237.0146,130.145 237.7756,129.384 238.7156,129.384 C239.6556,129.384 240.4176,130.145 240.4176,131.087" id="Fill-44" fill="#F5916F"></path>
                <path d="M229.8732,120.8302 C224.6042,120.8422 220.3362,124.7152 220.3362,130.0382 C220.3362,136.9752 225.7622,140.5702 229.8732,140.5832 C233.9852,140.5702 239.4112,136.9752 239.4112,130.0382 C239.4112,124.7152 235.1432,120.8422 229.8732,120.8302" id="Fill-45" fill="#FFA783"></path>
                <path d="M220.2682,130.2472 C221.2872,129.8702 221.2632,129.3842 221.5842,127.2342 C222.1082,123.7292 227.0082,123.2972 234.8232,125.2242 C241.0532,126.7612 238.5942,118.3652 236.7432,117.6752 C235.5702,117.2372 232.5142,118.3442 230.2832,119.1102 C227.8452,119.9502 229.1752,117.9882 227.3942,118.3782 C217.6252,120.5192 220.2682,130.2472 220.2682,130.2472" id="Fill-46" fill="#1B2135"></path>
                <path d="M237.7247,124.0108 C239.5497,125.7258 239.6237,130.1198 239.1687,130.2468 C238.7117,130.3758 238.8157,125.2638 236.5807,124.8548 C235.8037,124.7128 237.7247,124.0108 237.7247,124.0108" id="Fill-47" fill="#1B2135"></path>
                <path d="M237.1295,120.8067 C237.1085,120.8067 237.0875,120.8027 237.0665,120.7937 C236.9835,120.7587 236.9445,120.6627 236.9785,120.5797 C237.1385,120.2007 236.9045,119.2407 236.4835,118.8797 C236.4155,118.8217 236.4065,118.7167 236.4645,118.6487 C236.5245,118.5817 236.6275,118.5737 236.6965,118.6317 C237.1965,119.0587 237.5075,120.1647 237.2805,120.7067 C237.2535,120.7697 237.1935,120.8067 237.1295,120.8067" id="Fill-48" fill="#3A4460"></path>
                <path d="M232.7858,123.8634 C232.3388,123.8634 231.8908,123.8234 231.4598,123.7444 C231.3708,123.7294 231.3118,123.6444 231.3278,123.5544 C231.3448,123.4654 231.4308,123.4074 231.5188,123.4244 C233.7658,123.8364 236.5068,123.0864 236.8098,121.4634 C236.8268,121.3764 236.9108,121.3174 237.0008,121.3324 C237.0888,121.3484 237.1478,121.4334 237.1308,121.5234 C236.8468,123.0494 234.8288,123.8634 232.7858,123.8634" id="Fill-49" fill="#3A4460"></path>
                <path d="M236.1358,124.1739 C236.0458,124.1739 235.9718,124.1009 235.9718,124.0109 C235.9718,123.9219 236.0458,123.8469 236.1358,123.8469 C236.6188,123.8469 237.0458,123.6509 237.3688,123.2759 C237.7978,122.7799 237.9898,122.0419 237.8808,121.3029 C237.8668,121.2129 237.9288,121.1299 238.0178,121.1169 C238.1078,121.1049 238.1908,121.1649 238.2038,121.2549 C238.3258,122.0879 238.1058,122.9239 237.6158,123.4899 C237.2288,123.9389 236.7178,124.1739 236.1358,124.1739" id="Fill-50" fill="#3A4460"></path>
                <polygon id="Fill-51" fill="#FFA783" points="252.745 227.363 277.539 227.363 277.539 187.43 252.745 187.43"></polygon>
                <polygon id="Fill-52" fill="#FFA783" points="252.745 227.363 277.539 227.363 277.539 187.43 252.745 187.43"></polygon>
                <path d="M287.7062,174.2003 L245.8522,174.2003 L223.2242,171.3583 C213.9692,169.6153 213.4582,180.8233 216.7362,180.8843 C226.4612,181.0673 231.6962,183.4303 239.0342,184.4853 C247.4462,185.6943 252.5392,190.3183 252.7442,198.1613 L252.7452,198.1613 L252.7452,227.3633 L277.5392,227.3633 L277.5392,197.5713 C277.6552,195.5633 277.5362,191.2473 279.3722,189.4853 C279.3722,189.4853 285.0452,182.5713 287.7062,174.2003" id="Fill-53" fill="#FFA783"></path>
                <path d="M287.7062,174.2003 L245.8522,174.2003 L223.2242,171.3583 C213.9692,169.6153 213.4582,180.8233 216.7362,180.8843 C226.4612,181.0673 231.6962,183.4303 239.0342,184.4853 C247.4462,185.6943 252.5392,190.3183 252.7442,198.1613 L252.7452,198.1613 L252.7452,227.3633 L277.5392,227.3633 L277.5392,197.5713 C277.6552,195.5633 277.5362,191.2473 279.3722,189.4853 C279.3722,189.4853 285.0452,182.5713 287.7062,174.2003" id="Fill-54" fill="#FFA783"></path>
                <path d="M287.7062,174.2003 L245.8522,174.2003 L223.2242,171.3583 C213.9692,169.6153 213.4582,180.8233 216.7362,180.8843 C226.4612,181.0673 231.6962,183.4303 239.0342,184.4853 C247.4462,185.6943 252.5392,190.3183 252.7442,198.1613 L252.7452,198.1613 L252.7452,227.3633 L277.5392,227.3633 L277.5392,197.5713 C277.6552,195.5633 277.5362,191.2473 279.3722,189.4853 C279.3722,189.4853 285.0452,182.5713 287.7062,174.2003" id="Fill-55" fill="#FFA783"></path>
                <path d="M277.7277,194.1554 C277.8417,193.0074 278.0537,191.8294 278.4707,190.8604 C278.4597,190.8714 266.0397,200.5684 251.0877,191.6254 C252.1057,193.4704 252.6787,195.6484 252.7447,198.1614 L252.7447,214.8544 L254.2347,214.8544 C254.2347,214.8544 253.6787,200.5504 277.7277,194.1554" id="Fill-56" fill="#F5916F"></path>
                <path d="M225.6256,178.8429 C225.4166,178.7579 225.1956,178.6909 224.9616,178.6539 L220.5916,177.9449 C218.9456,177.6769 217.3946,178.7939 217.1266,180.4409 L217.1016,180.5959 C219.7676,180.7189 222.4386,181.1569 225.1476,181.7159 L225.6256,178.8429 Z" id="Fill-57" fill="#F4C0B3"></path>
                <path d="M281.8424,210.3321 L241.8554,211.3501 C242.4444,234.4871 237.7554,274.4271 225.8214,286.6671 C224.2434,288.2861 223.0014,288.8941 221.9164,289.1151 C214.8794,285.6981 139.6604,218.4271 137.4964,216.8371 L137.4944,216.8351 C129.9484,211.2921 120.6854,207.9341 110.6684,207.7551 L72.6614,207.0741 C69.2554,207.0131 65.9294,207.3331 62.7144,207.9741 L62.7144,207.9701 C50.9674,209.2011 37.5224,217.7021 29.4194,227.7191 C14.0304,246.7391 6.2644,281.5761 5.6764,334.2191 C5.6224,339.1081 5.6354,343.9001 5.6974,348.5461 L25.3774,348.5461 L45.7074,348.5461 L156.4844,348.5461 L156.4844,286.7831 C187.6974,315.0421 203.6344,329.2371 220.4814,329.2391 L220.4854,329.2391 C233.3704,329.2391 245.1194,324.1731 254.4624,314.5901 C267.2534,301.4711 275.7104,279.5031 279.5994,249.2961 C282.2694,228.5601 281.8614,211.0661 281.8424,210.3321" id="Fill-58" fill="#5587A2"></path>
                <path d="M281.8424,210.3321 L241.8554,211.3501 C242.4444,234.4871 237.7554,274.4271 225.8214,286.6671 C224.2434,288.2861 223.0014,288.8941 221.9164,289.1151 C214.8794,285.6981 139.6604,218.4271 137.4964,216.8371 L137.4944,216.8351 C129.9484,211.2921 120.6854,207.9341 110.6684,207.7551 L72.6614,207.0741 C69.2554,207.0131 65.9294,207.3331 62.7144,207.9741 L62.7144,207.9701 C50.9674,209.2011 37.5224,217.7021 29.4194,227.7191 C14.0304,246.7391 6.2644,281.5761 5.6764,334.2191 C5.6224,339.1081 5.6354,343.9001 5.6974,348.5461 L25.3774,348.5461 L45.7074,348.5461 L156.4844,348.5461 L156.4844,286.7831 C187.6974,315.0421 203.6344,329.2371 220.4814,329.2391 L220.4854,329.2391 C233.3704,329.2391 245.1194,324.1731 254.4624,314.5901 C267.2534,301.4711 275.7104,279.5031 279.5994,249.2961 C282.2694,228.5601 281.8614,211.0661 281.8424,210.3321" id="Fill-59" fill="#546FF7"></path>
                <path d="M47.2433,271.9522 C46.4633,271.6722 45.6043,272.0792 45.3263,272.8592 C34.0213,304.4462 32.7183,347.3692 32.7063,347.7992 C32.6993,348.0702 32.7693,348.3232 32.8893,348.5462 L35.5233,348.5462 C35.6303,348.3472 35.6993,348.1242 35.7053,347.8822 C35.7173,347.4562 37.0093,305.0012 48.1503,273.8702 C48.4293,273.0912 48.0233,272.2312 47.2433,271.9522" id="Fill-60" fill="#4C64DA"></path>
                <path d="M64.1207,211.8087 L64.1287,211.9327 C65.0167,226.1737 77.9987,232.6607 89.6837,232.6607 C101.3687,232.6607 114.3497,226.1737 115.2387,211.9327 L115.2467,211.8087 L115.2467,208.0707 C113.7407,207.8947 112.2147,207.7827 110.6687,207.7547 L72.6617,207.0747 C69.7477,207.0217 66.8977,207.2637 64.1207,207.7317 L64.1207,211.8087 Z" id="Fill-61" fill="#FFFFFF"></path>
                <path d="M111.2467,211.6837 C109.8337,234.3187 69.5337,234.3187 68.1207,211.6837 L68.1207,159.2797 L111.2467,159.2797 L111.2467,211.6837 Z" id="Fill-62" fill="#FFA783"></path>
                <path d="M68.1207,210.0099 C92.3457,206.2699 104.8437,198.8399 111.2467,192.5939 L111.2467,159.2799 L68.1207,159.2799 L68.1207,210.0099 Z" id="Fill-63" fill="#F5916F"></path>
                <path d="M28.9498,114.9122 C28.9498,122.9062 22.4698,129.3852 14.4748,129.3852 C6.4808,129.3852 -0.0002,122.9062 -0.0002,114.9122 C-0.0002,106.9162 6.4808,100.4352 14.4748,100.4352 C22.4698,100.4352 28.9498,106.9162 28.9498,114.9122" id="Fill-64" fill="#F5916F"></path>
                <path d="M179.3678,114.9122 C179.3678,122.9062 172.8878,129.3852 164.8928,129.3852 C156.8988,129.3852 150.4188,122.9062 150.4188,114.9122 C150.4188,106.9162 156.8988,100.4352 164.8928,100.4352 C172.8878,100.4352 179.3678,106.9162 179.3678,114.9122" id="Fill-65" fill="#F5916F"></path>
                <path d="M89.6837,27.6837 C44.8617,27.7797 8.5587,60.7287 8.5587,106.0137 C8.5587,165.0077 54.7147,195.5857 89.6837,195.6977 C124.6527,195.5857 170.8087,165.0077 170.8087,106.0137 C170.8087,60.7287 134.5057,27.7797 89.6837,27.6837" id="Fill-66" fill="#FFA783"></path>
                <path d="M7.9845,107.7833 C16.6525,104.5623 16.4505,100.4353 19.1805,82.1543 C23.6315,52.3383 65.3135,48.6623 131.7865,65.0603 C184.7695,78.1313 163.8605,6.7123 148.1145,0.8433 C138.1435,-2.8747 112.1465,6.5323 93.1705,13.0623 C72.4255,20.2013 83.7465,3.4973 68.5965,6.8193 C-14.4915,25.0413 7.9845,107.7833 7.9845,107.7833" id="Fill-67" fill="#1B2135"></path>
                <path d="M156.463,54.7384 C171.983,69.3324 172.616,106.6994 168.74,107.7834 C164.863,108.8674 165.752,65.3924 146.734,61.9204 C140.123,60.7114 156.463,54.7384 156.463,54.7384" id="Fill-68" fill="#1B2135"></path>
                <path d="M151.4034,27.5939 C151.2094,27.5939 151.0124,27.5569 150.8224,27.4769 C150.0594,27.1569 149.7004,26.2769 150.0214,25.5129 C151.3654,22.3149 149.3924,14.2109 145.8374,11.1719 C145.2074,10.6349 145.1334,9.6879 145.6724,9.0579 C146.2114,8.4279 147.1574,8.3539 147.7864,8.8929 C152.0744,12.5579 154.7384,22.0319 152.7864,26.6749 C152.5454,27.2489 151.9884,27.5939 151.4034,27.5939" id="Fill-69" fill="#3A4460"></path>
                <path d="M114.4464,53.5899 C110.6414,53.5899 106.8294,53.2579 103.1564,52.5849 C102.3424,52.4359 101.8024,51.6539 101.9514,50.8389 C102.1014,50.0239 102.8804,49.4849 103.6974,49.6339 C122.7674,53.1299 146.0104,46.7779 148.5734,33.0489 C148.7254,32.2359 149.5074,31.6969 150.3234,31.8499 C151.1374,32.0019 151.6744,32.7849 151.5224,33.5999 C149.0914,46.6239 131.8734,53.5899 114.4464,53.5899" id="Fill-70" fill="#3A4460"></path>
                <path d="M142.9513,56.2384 C142.1223,56.2384 141.4513,55.5664 141.4513,54.7384 C141.4513,53.9104 142.1223,53.2384 142.9513,53.2384 C147.0293,53.2384 150.6263,51.5704 153.3543,48.4144 C156.9793,44.2204 158.5973,37.9784 157.6813,31.7154 C157.5613,30.8954 158.1293,30.1344 158.9493,30.0134 C159.7633,29.8964 160.5303,30.4614 160.6503,31.2814 C161.6893,38.3944 159.8103,45.5334 155.6243,50.3764 C152.3083,54.2114 147.9263,56.2384 142.9513,56.2384" id="Fill-71" fill="#3A4460"></path>
                <path d="M202.9444,94.5694 L204.9514,94.5694 L204.9514,95.1724 L204.9784,95.1844 C205.4864,94.7704 206.1824,94.4224 207.0124,94.4224 C207.7084,94.4224 208.3234,94.6634 208.7384,95.0904 C209.1404,95.5194 209.3144,96.0944 209.3144,97.0454 L209.3144,101.1534 L207.2794,101.1534 L207.2794,97.3804 C207.2794,96.8844 207.2134,96.6434 207.0524,96.4564 C206.8784,96.2564 206.6374,96.1744 206.3564,96.1744 C205.8344,96.1744 205.3394,96.4424 204.9784,96.7234 L204.9784,101.1534 L202.9444,101.1534 L202.9444,94.5694 Z" id="Fill-72" fill="#000000"></path>
                <path d="M210.975,101.153 L213.009,101.153 L213.009,94.569 L210.975,94.569 L210.975,101.153 Z M211.992,91.317 C212.634,91.317 213.17,91.84 213.17,92.482 C213.17,93.124 212.634,93.647 211.992,93.647 C211.35,93.647 210.815,93.124 210.815,92.482 C210.815,91.84 211.35,91.317 211.992,91.317 Z" id="Fill-73" fill="#000000"></path>
                <path d="M214.6959,94.5694 L216.7029,94.5694 L216.7029,95.1724 L216.7299,95.1844 C217.2379,94.7704 217.9339,94.4224 218.7639,94.4224 C219.4599,94.4224 220.0749,94.6634 220.4899,95.0904 C220.8919,95.5194 221.0659,96.0944 221.0659,97.0454 L221.0659,101.1534 L219.0309,101.1534 L219.0309,97.3804 C219.0309,96.8844 218.9649,96.6434 218.8039,96.4564 C218.6299,96.2564 218.3889,96.1744 218.1079,96.1744 C217.5859,96.1744 217.0909,96.4424 216.7299,96.7234 L216.7299,101.1534 L214.6959,101.1534 L214.6959,94.5694 Z" id="Fill-74" fill="#000000"></path>
                <path d="M223.7838,91.3175 C224.4258,91.3175 224.9608,91.8395 224.9608,92.4815 C224.9608,93.1245 224.4258,93.6465 223.7838,93.6465 C223.1408,93.6465 222.6058,93.1245 222.6058,92.4815 C222.6058,91.8395 223.1408,91.3175 223.7838,91.3175 Z M222.7668,94.5695 L224.8008,94.5695 L224.8008,101.3405 C224.8008,102.5585 224.5868,103.1335 224.1988,103.5355 C223.7028,104.0445 222.9138,104.2445 222.2048,104.2445 C221.8298,104.2445 221.4818,104.1915 221.2818,104.1375 L221.2818,102.4645 C221.4948,102.5045 221.7628,102.5315 221.9508,102.5315 C222.6598,102.5315 222.7668,102.1435 222.7668,101.4745 L222.7668,94.5695 Z" id="Fill-75" fill="#000000"></path>
                <path d="M229.8468,98.5704 C229.6328,98.5044 229.3378,98.4764 229.1238,98.4764 C228.6018,98.4764 228.0798,98.6374 228.0798,99.1464 C228.0798,99.5744 228.4548,99.8014 228.9238,99.8014 C229.2708,99.8014 229.6058,99.6814 229.8468,99.5344 L229.8468,98.5704 Z M230.1948,100.7524 C229.7658,101.0594 229.1108,101.3004 228.3608,101.3004 C227.7988,101.3004 227.2638,101.1674 226.8358,100.8724 C226.3538,100.5384 226.0598,100.0154 226.0598,99.3334 C226.0598,98.6104 226.3938,98.0624 226.8628,97.7414 C227.3708,97.3924 228.0268,97.2724 228.7088,97.2724 C229.0968,97.2724 229.4858,97.3124 229.8468,97.3924 L229.8468,97.1384 C229.8468,96.8174 229.7398,96.5774 229.5928,96.4424 C229.4048,96.2684 229.0568,96.1624 228.5758,96.1624 C227.8398,96.1624 227.1698,96.4024 226.6478,96.6834 L226.6478,94.9304 C227.1838,94.6634 227.9868,94.4224 228.9498,94.4224 C229.8328,94.4224 230.6228,94.6234 231.1448,95.0504 C231.6398,95.4524 231.8808,96.0414 231.8808,96.8714 L231.8808,99.1054 C231.8808,99.4144 232.0008,99.6284 232.2828,99.6284 C232.3888,99.6284 232.5098,99.6004 232.6168,99.5484 L232.6168,101.0734 C232.3888,101.1934 232.0278,101.2734 231.6398,101.2734 C231.1048,101.2734 230.5828,101.1274 230.2218,100.7524 L230.1948,100.7524 Z" id="Fill-76" fill="#000000"></path>
                <path d="M234.8795,98.8917 C235.5485,98.8917 236.1105,99.4267 236.1105,100.0957 C236.1105,100.7657 235.5485,101.3007 234.8795,101.3007 C234.2105,101.3007 233.6485,100.7657 233.6485,100.0957 C233.6485,99.4267 234.2105,98.8917 234.8795,98.8917" id="Fill-77" fill="#000000"></path>
                <path d="M240.8619,99.5479 C241.7849,99.5479 242.4949,98.7979 242.4949,97.8609 C242.4949,96.9249 241.7849,96.1749 240.8619,96.1749 C239.9389,96.1749 239.2299,96.9249 239.2299,97.8609 C239.2299,98.7979 239.9389,99.5479 240.8619,99.5479 M240.8619,94.4219 C242.9629,94.4219 244.5289,95.9209 244.5289,97.8609 C244.5289,99.8019 242.9629,101.3009 240.8619,101.3009 C238.7609,101.3009 237.1949,99.8019 237.1949,97.8609 C237.1949,95.9209 238.7609,94.4219 240.8619,94.4219" id="Fill-78" fill="#000000"></path>
                <path d="M245.8019,94.5694 L247.7959,94.5694 L247.7959,95.4524 L247.8229,95.4654 C248.2779,94.8234 248.9199,94.4894 249.7359,94.4894 C249.8699,94.4894 250.0169,94.5034 250.1639,94.5434 L250.1639,96.4564 C250.0039,96.4164 249.8029,96.3894 249.6149,96.3894 C248.9059,96.3894 248.3179,96.6034 247.8359,97.1654 L247.8359,101.1534 L245.8019,101.1534 L245.8019,94.5694 Z" id="Fill-79" fill="#000000"></path>
                <path d="M255.3707,96.3897 C255.1167,96.2557 254.7287,96.1487 254.3677,96.1487 C253.3097,96.1487 252.8017,96.9247 252.8017,97.7817 C252.8017,98.7437 253.3907,99.4267 254.3407,99.4267 C254.7017,99.4267 255.0897,99.3207 255.3707,99.1467 L255.3707,96.3897 Z M251.6377,101.8357 C252.3067,102.2507 253.0687,102.5047 253.7647,102.5047 C254.7547,102.5047 255.3707,101.9957 255.3707,101.0197 L255.3707,100.6587 L255.3437,100.6447 C254.9557,100.9257 254.3537,101.0857 253.8057,101.0857 C252.2127,101.0857 250.7407,99.8557 250.7407,97.8617 C250.7407,95.9347 252.1187,94.4217 254.1667,94.4217 C254.7957,94.4217 255.3437,94.5697 255.8127,94.7967 L257.4047,94.5157 L257.4047,101.0197 C257.4047,103.0937 255.9867,104.2437 253.8857,104.2437 C253.0417,104.2437 252.2127,104.0437 251.6377,103.7627 L251.6377,101.8357 Z" id="Fill-80" fill="#000000"></path>
                <path d="M271.6056,96.7774 C271.6056,96.2064 271.5206,95.8404 271.3016,95.5864 C271.0706,95.3184 270.7056,95.2204 270.3896,95.2204 C269.6966,95.2204 268.9786,95.6714 268.5656,96.1574 C268.5776,96.2914 268.5776,96.4364 268.5776,96.5834 L268.5776,100.3164 L267.4826,100.3164 L267.4826,96.7774 C267.4826,96.1324 267.4096,95.8404 267.2036,95.5974 C266.9596,95.3184 266.6316,95.2204 266.2916,95.2204 C265.5856,95.2204 264.8806,95.6584 264.4666,96.1574 L264.4666,100.3164 L263.3726,100.3164 L263.3726,94.3334 L264.4666,94.3334 L264.4666,95.0624 L264.4916,95.0754 C264.9896,94.5764 265.6956,94.1994 266.5226,94.1994 C267.2646,94.1994 267.9936,94.5154 268.3586,95.2334 C269.0766,94.5514 269.8056,94.1994 270.6326,94.1994 C271.2776,94.1994 271.8366,94.4184 272.2016,94.8324 C272.5666,95.2334 272.7006,95.7684 272.7006,96.5834 L272.7006,100.3164 L271.6056,100.3164 L271.6056,96.7774 Z" id="Fill-81" fill="#000000"></path>
                <path d="M282.8326,96.7774 C282.8326,96.2064 282.7476,95.8404 282.5286,95.5864 C282.2976,95.3184 281.9326,95.2204 281.6166,95.2204 C280.9236,95.2204 280.2056,95.6714 279.7926,96.1574 C279.8046,96.2914 279.8046,96.4364 279.8046,96.5834 L279.8046,100.3164 L278.7096,100.3164 L278.7096,96.7774 C278.7096,96.1324 278.6366,95.8404 278.4306,95.5974 C278.1866,95.3184 277.8586,95.2204 277.5186,95.2204 C276.8126,95.2204 276.1076,95.6584 275.6936,96.1574 L275.6936,100.3164 L274.5996,100.3164 L274.5996,94.3334 L275.6936,94.3334 L275.6936,95.0624 L275.7186,95.0754 C276.2166,94.5764 276.9226,94.1994 277.7496,94.1994 C278.4916,94.1994 279.2206,94.5154 279.5856,95.2334 C280.3036,94.5514 281.0326,94.1994 281.8596,94.1994 C282.5046,94.1994 283.0636,94.4184 283.4286,94.8324 C283.7936,95.2334 283.9276,95.7684 283.9276,96.5834 L283.9276,100.3164 L282.8326,100.3164 L282.8326,96.7774 Z" id="Fill-82" fill="#000000"></path>
                <polygon id="Fill-83" fill="#000000" points="289.171 91.0499 290.071 91.0499 285.984 100.7789 285.085 100.7789"></polygon>
                <path d="M292.8937,99.4776 C293.4897,99.4776 294.0247,99.2586 294.4507,98.9666 L294.4507,95.5486 C294.0487,95.3426 293.5137,95.1716 292.9787,95.1716 C291.7137,95.1716 290.9237,96.1326 290.9237,97.3616 C290.9237,98.5526 291.6647,99.4776 292.8937,99.4776 M292.9907,94.1996 C293.5867,94.1996 294.0367,94.3456 294.4257,94.5156 L294.4507,94.5026 L294.4507,91.0256 L295.5447,91.0256 L295.5447,100.3166 L294.4507,100.3166 L294.4507,99.9516 L294.4257,99.9396 C294.0247,100.2186 293.4647,100.4506 292.7477,100.4506 C291.1297,100.4506 289.8167,99.2706 289.8167,97.4216 C289.8167,95.5856 291.1057,94.1996 292.9907,94.1996" id="Fill-84" fill="#000000"></path>
                <path d="M300.1549,99.4776 C300.7509,99.4776 301.2859,99.2586 301.7119,98.9666 L301.7119,95.5486 C301.3099,95.3426 300.7749,95.1716 300.2399,95.1716 C298.9749,95.1716 298.1849,96.1326 298.1849,97.3616 C298.1849,98.5526 298.9259,99.4776 300.1549,99.4776 M300.2519,94.1996 C300.8479,94.1996 301.2979,94.3456 301.6869,94.5156 L301.7119,94.5026 L301.7119,91.0256 L302.8059,91.0256 L302.8059,100.3166 L301.7119,100.3166 L301.7119,99.9516 L301.6869,99.9396 C301.2859,100.2186 300.7259,100.4506 300.0089,100.4506 C298.3909,100.4506 297.0779,99.2706 297.0779,97.4216 C297.0779,95.5856 298.3669,94.1996 300.2519,94.1996" id="Fill-85" fill="#000000"></path>
                <polygon id="Fill-86" fill="#000000" points="308.0734 91.0499 308.9734 91.0499 304.8864 100.7789 303.9874 100.7789"></polygon>
                <path d="M310.3365,102.9923 L311.9545,99.6723 L309.4615,94.3333 L310.6775,94.3333 L311.7225,96.5953 C312.0025,97.2033 312.2945,97.8473 312.5375,98.3943 L312.5625,98.3943 C312.8295,97.7993 313.0975,97.2033 313.3775,96.5953 L314.4225,94.3333 L315.5785,94.3333 L311.5285,102.9923 L310.3365,102.9923 Z" id="Fill-87" fill="#000000"></path>
                <path d="M317.0265,102.9923 L318.6445,99.6723 L316.1515,94.3333 L317.3675,94.3333 L318.4135,96.5953 C318.6925,97.2033 318.9845,97.8473 319.2275,98.3943 L319.2525,98.3943 C319.5195,97.7993 319.7875,97.2033 320.0675,96.5953 L321.1125,94.3333 L322.2685,94.3333 L318.2185,102.9923 L317.0265,102.9923 Z" id="Fill-88" fill="#000000"></path>
            </g>
        </g>
    </g>
</svg>