<?xml version="1.0" encoding="UTF-8"?>
<svg width="313px" height="402px" viewBox="0 0 313 402" version="1.1" xmlns="http://www.w3.org/2000/svg" xmlns:xlink="http://www.w3.org/1999/xlink">
    <!-- Generator: Sketch 50.2 (55047) - http://www.bohemiancoding.com/sketch -->
    <title>Group</title>
    <desc>Created with Sketch.</desc>
    <defs>
        <polygon id="path-1" points="0.0429633294 0.0599947601 212.454813 0.0599947601 212.454813 34.8601896 0.0429633294 34.8601896"></polygon>
        <polygon id="path-3" points="0 0.162971386 20.3811211 0.162971386 20.3811211 10.4376414 0 10.4376414"></polygon>
    </defs>
    <g id="Page-1" stroke="none" stroke-width="1" fill="none" fill-rule="evenodd">
        <g id="Desktop-HD" transform="translate(-177.000000, -189.000000)">
            <g id="Group" transform="translate(177.000000, 189.000000)">
                <path d="M312.980271,200.70502 C312.980271,114.768904 243.315334,45.1039675 157.379404,45.1039675 C71.443103,45.1039675 1.77816635,114.768904 1.77816635,200.70502 C1.77816635,286.64095 71.443103,356.305886 157.379404,356.305886 C243.315334,356.305886 312.980271,286.64095 312.980271,200.70502" id="Fill-1" fill="#FF3939"></path>
                <g id="Group-5" transform="translate(49.508886, 366.549331)">
                    <mask id="mask-2" fill="white">
                        <use xlink:href="#path-1"></use>
                    </mask>
                    <g id="Clip-4"></g>
                    <path d="M212.454813,17.3889857 C212.461674,26.9970473 164.91423,34.8220473 106.260663,34.8600598 C47.607096,34.9021516 0.0526055095,27.1483554 0.0429633294,17.5352873 C0.0385130924,7.92815278 47.5833614,0.102411078 106.236743,0.060133827 C164.890681,0.0221213863 212.447211,7.78166582 212.454813,17.3889857" id="Fill-3" fill="#141414" mask="url(#mask-2)"></path>
                </g>
                <path d="M174.689379,381.772961 C192.481983,384.595524 202.642801,382.434748 202.642801,382.434748 C199.897932,374.713587 194.619024,369.342707 194.619024,369.342707 C194.619024,369.342707 196.723244,364.340085 197.338119,354.670832 L197.338119,354.646912 C197.585849,350.77465 197.600126,346.173846 197.129514,340.816688 C199.644825,342.192739 201.0142,343.062945 201.0142,343.062945 C195.820402,329.876152 184.441332,321.057636 184.441332,321.057636 C190.994862,323.601503 194.515185,325.355452 194.515185,325.355452 C191.136528,320.528058 187.053621,316.272333 182.708336,312.546373 L156.694105,325.44557 C173.001256,351.757967 174.689379,381.772961 174.689379,381.772961" id="Fill-6" fill="#282828"></path>
                <path d="M109.54364,228.563744 L110.444257,226.757319 C109.742417,226.445431 109.222296,226.303765 109.222296,226.303765 C109.222296,226.303765 109.73296,227.012837 109.54364,228.563744" id="Fill-8" fill="#191919"></path>
                <path d="M109.784657,246.966234 C109.784657,246.966234 107.964696,248.507314 106.009744,251.008718 C106.009744,251.008718 108.595888,241.864038 112.867744,235.126193 C116.047624,230.11467 112.480203,227.679278 110.444405,226.757337 L109.543603,228.563763 C109.4164,229.59937 108.990846,230.998784 107.860486,232.856758 C107.860486,232.856758 107.921491,232.445482 107.917597,231.820965 L100.919229,238.152725 L97.967053,296.432658 C97.967053,296.432658 98.2856158,294.707078 98.8938149,291.699645 C102.498878,273.444217 104.99064,263.552824 109.784657,246.966234" id="Fill-10" fill="#191919"></path>
                <path d="M107.860486,232.856795 C108.990846,230.998636 109.4164,229.599407 109.543603,228.5638 L107.917597,231.821002 C107.921491,232.445519 107.860486,232.856795 107.860486,232.856795" id="Fill-12" fill="#282828"></path>
                <path d="M171.524093,304.324059 C171.517232,304.319423 171.509629,304.314417 171.507775,304.309781 C170.661118,303.780759 169.824473,303.265274 168.991908,302.768887 C168.899565,302.716411 168.811859,302.659856 168.722854,302.608122 C166.155067,301.08577 163.658299,299.732712 161.308574,298.545983 C161.247198,298.517983 161.186007,298.484792 161.124074,298.456792 C158.767488,297.274698 156.566105,296.25819 154.603735,295.406897 C154.556823,295.383348 154.509168,295.364249 154.467076,295.344964 C153.830878,295.07146 153.218785,294.811121 152.639327,294.574517 C152.632651,294.569696 152.628016,294.565431 152.623009,294.565431 C151.424227,294.073309 150.352832,293.647755 149.426256,293.29767 C149.381382,293.279498 149.343926,293.264849 149.305914,293.250757 C148.892413,293.094628 148.513957,292.957227 148.164057,292.830024 C148.126416,292.815746 148.083767,292.796647 148.046126,292.78682 C147.310724,292.518137 146.734048,292.319359 146.326851,292.182515 C146.281978,292.168051 146.24174,292.153774 146.204284,292.139496 C146.055201,292.092583 145.918356,292.044743 145.830464,292.016929 C145.818968,292.016929 145.797829,292.007287 145.785591,292.002651 C145.705116,291.978731 145.64411,291.954996 145.64411,291.954996 L182.841231,288.971854 C193.990001,273.193539 189.129786,256.819448 189.129786,256.819448 C183.75835,255.004122 177.38932,252.006332 177.38932,252.006332 C180.1175,252.18601 187.758743,251.45339 187.758743,251.45339 C185.391587,248.635092 189.122184,245.90209 189.122184,245.90209 C173.952068,245.424617 158.547573,240.341704 158.547573,240.341704 C176.618687,240.932844 186.202458,237.348549 186.202458,237.348549 C182.275865,237.197426 178.516713,236.961193 174.888286,236.667848 C173.060722,236.516355 171.273396,236.35114 169.516665,236.16664 C167.661287,235.97732 165.84318,235.769642 164.06976,235.542309 C162.959055,235.400643 161.862257,235.249335 160.783631,235.098212 C159.632318,234.932627 158.495097,234.762405 157.3792,234.587548 C136.622738,231.292147 122.193958,225.854329 113.111209,221.41429 L110.444405,226.757356 C112.480203,227.679297 116.047624,230.114689 112.867744,235.126212 C108.595888,241.864056 106.009744,251.008737 106.009744,251.008737 C107.964696,248.507147 109.784657,246.966253 109.784657,246.966253 C104.342759,265.803179 100.54133,283.524764 98.8938149,291.699664 C98.5936093,293.222201 98.2856158,294.782751 97.967053,296.432491 L155.256808,325.199564 C156.197291,325.350687 156.694049,325.44544 156.694049,325.44544 L182.70828,312.546428 C179.940418,310.177604 177.072797,308.021835 174.202579,306.07875 C173.308452,305.473333 172.412471,304.887199 171.524093,304.324059" id="Fill-14" fill="#282828"></path>
                <path d="M109.784657,246.966234 C104.99064,263.552824 102.498878,273.444217 98.8938149,291.699645 C100.54133,283.524745 104.342759,265.80316 109.784657,246.966234" id="Fill-16" fill="#282828"></path>
                <path d="M212.475099,246.006151 L202.68773,199.44258 L156.601632,194.605358 L124.801908,197.986055 L113.111321,221.414327 C122.193883,225.854366 136.62285,231.291999 157.379126,234.587585 C158.495208,234.762442 159.632429,234.932664 160.783742,235.09825 C161.862183,235.249372 162.958981,235.40068 164.069686,235.542161 C165.843291,235.769679 167.661213,235.977357 169.516591,236.166677 C171.273507,236.351177 173.060834,236.516392 174.888212,236.667885 C178.516639,236.96123 182.275976,237.197463 186.202569,237.348586 C186.202569,237.348586 176.618613,240.932881 158.547498,240.341741 C158.547498,240.341741 173.951994,245.424654 189.122295,245.901942 C189.122295,245.901942 185.391699,248.635129 187.758668,251.453427 C187.758668,251.453427 180.117426,252.186047 177.389245,252.006183 C177.389245,252.006183 183.758276,255.003974 189.129898,256.8193 C189.129898,256.8193 193.990113,273.193576 182.841342,288.971891 L145.644036,291.955033 C145.644036,291.955033 145.705042,291.978768 145.785702,292.002688 C145.797755,292.007324 145.818894,292.016966 145.83039,292.016966 C145.918468,292.04478 146.055312,292.09262 146.204395,292.139533 C146.241851,292.153811 146.282089,292.168088 146.326962,292.182366 C146.733974,292.319397 147.31065,292.518174 148.046052,292.786857 C148.083693,292.796684 148.126527,292.815598 148.163983,292.830061 C148.514068,292.957264 148.892524,293.094665 149.30584,293.250794 C149.343852,293.264886 149.381308,293.27935 149.426367,293.297707 C150.352943,293.647792 151.424152,294.073346 152.62312,294.565468 C152.627942,294.565468 152.632763,294.569548 152.639438,294.574554 C153.218896,294.811158 153.830803,295.071312 154.467002,295.345001 C154.509279,295.364286 154.556748,295.383385 154.603661,295.406934 C156.56603,296.258227 158.7676,297.274735 161.124,298.45683 C161.185933,298.484829 161.247309,298.51802 161.308685,298.54602 C163.658225,299.73275 166.154993,301.085807 168.72278,302.608159 C168.811785,302.659893 168.899491,302.716448 168.991834,302.768924 C169.824399,303.265311 170.661043,303.780796 171.507886,304.309818 C171.509555,304.314454 171.517158,304.319275 171.524019,304.324096 C172.412397,304.887237 173.308378,305.47337 174.20269,306.078788 C177.072722,308.021872 179.940344,310.177641 182.708391,312.546465 L215.381104,296.347417 C213.222553,268.54586 212.475099,246.006151 212.475099,246.006151" id="Fill-18" fill="#191919"></path>
                <path d="M194.515148,325.35549 C194.515148,325.35549 190.995011,323.60154 184.441295,321.057673 C184.441295,321.057673 195.820365,329.876189 201.014163,343.062982 C201.014163,343.062982 199.644788,342.192776 197.129662,340.816725 C197.600089,346.173698 197.585997,350.774687 197.338267,354.646949 C197.876746,355.342113 198.40447,356.042099 198.907346,356.731885 C198.406139,356.050814 197.871739,355.356391 197.338267,354.670869 C196.723207,364.340122 194.619172,369.342744 194.619172,369.342744 C194.619172,369.342744 199.897895,374.713624 202.642764,382.434785 C202.642764,382.434785 192.481946,384.595375 174.689342,381.772998 C174.689342,381.772998 173.001405,351.758004 156.694067,325.445421 C156.797721,325.662556 156.909348,325.885068 157.017637,326.107209 C169.398938,351.734084 170.11524,384.004421 170.11524,384.004421 C170.11524,384.004421 183.587962,391.343047 213.884248,388.184491 C213.884248,388.184491 210.912417,378.827497 198.33271,369.24317 C198.33271,369.24317 199.644788,366.16509 201.607342,360.619167 C200.924231,359.578739 200.188829,358.519212 199.429693,357.460612 C200.188829,358.519212 200.924231,359.578739 201.607342,360.619167 C204.484791,352.486545 208.777787,339.025134 212.446822,322.106817 C213.697338,315.464096 214.454249,308.39508 214.883883,303.340724 C215.243425,299.156203 215.37823,296.347547 215.37823,296.347547 L215.381011,296.347547 L182.708298,312.54641 C187.053584,316.27237 191.136491,320.528095 194.515148,325.35549" id="Fill-20" fill="#191919"></path>
                <path d="M142.624884,359.3894 C145.227902,349.266594 149.554274,337.000814 156.694123,325.445403 L152.591746,323.417022 L152.582846,323.417022 C152.582846,323.417022 146.059911,334.003765 142.624884,359.3894" id="Fill-22" fill="#191919"></path>
                <path d="M137.18994,382.02846 C135.553736,382.259872 132.728763,382.6196 129.23236,382.945394 C131.662375,382.751438 134.326768,382.449378 137.18994,382.02846" id="Fill-24" fill="#282828"></path>
                <path d="M142.624884,359.3894 C141.842384,365.177119 141.218053,371.729907 140.867968,379.105989 C140.867968,379.105989 140.4146,380.524317 138.773575,381.796343 C138.773575,381.796343 138.192448,381.890911 137.189847,382.028497 C134.326676,382.44923 131.662467,382.751475 129.232267,382.945431 C122.839316,383.536571 114.213088,384.004402 106.421094,383.285874 C106.421094,383.285874 109.747275,375.904971 115.11389,369.304713 C102.54605,378.902947 99.5883114,388.264762 99.5883114,388.264762 C129.889419,391.380485 143.350644,384.023316 143.350644,384.023316 C143.350644,384.023316 144.026894,351.753164 156.372223,326.10719 C156.479028,325.885235 156.585278,325.662537 156.694123,325.445403 C149.554274,337.000814 145.227902,349.266594 142.624884,359.3894" id="Fill-26" fill="#191919"></path>
                <path d="M115.695481,305.189445 L101.468073,298.158627 C102.096669,301.960056 103.382973,308.305538 105.737334,314.674383 L115.695481,305.189445 Z" id="Fill-28" fill="#282828"></path>
                <path d="M130.660163,312.584774 L122.683484,308.645758 C119.775625,316.608159 115.605567,329.776596 113.988462,343.502796 C113.988462,343.502796 112.404734,341.227983 109.907781,338.811875 C109.907781,338.811875 111.14643,354.349136 115.113816,369.304713 C109.747387,375.904971 106.42102,383.285874 106.42102,383.285874 C114.213199,384.004402 122.839242,383.536571 129.232378,382.945431 C132.728781,382.619451 135.553754,382.259909 137.189958,382.028497 C137.719536,381.952843 138.230387,381.881268 138.773686,381.796343 C140.414526,380.524317 140.868079,379.105989 140.868079,379.105989 C141.217979,371.729907 141.842496,365.177119 142.62481,359.3894 C146.060022,334.003765 152.582957,323.417022 152.582957,323.417022 L152.591672,323.417022 L130.660163,312.584774 Z" id="Fill-30" fill="#282828"></path>
                <path d="M138.773668,381.796325 C138.230368,381.979232 137.719518,382.133385 137.18994,382.296325 C138.192356,381.999999 138.773668,381.796325 138.773668,381.796325" id="Fill-32" fill="#282828"></path>
                <path d="M122.683576,308.645721 C123.520406,306.352366 124.248947,304.503849 124.787611,303.18491 C126.09765,303.109441 128.766865,302.806454 131.213012,301.610082 L130.551225,298.882458 L126.560475,299.217894 C127.194448,297.071211 126.835091,294.5839 126.835091,294.5839 L115.695406,305.189371 L105.737259,314.674494 C103.382899,308.305464 102.09678,301.959982 101.468184,298.158552 L97.9641789,296.428523 L97.9641789,296.432602 L97.9669603,296.432602 C97.9669603,296.432602 98.1060302,299.236437 98.4702079,303.421143 C98.9072583,308.4755 99.6760367,315.54433 100.933785,322.182786 C104.625998,339.096097 108.938092,352.552501 111.827223,360.684938 C113.799235,366.221404 115.113909,369.304676 115.113909,369.304676 C111.146337,354.349284 109.907873,338.812023 109.907873,338.812023 C112.404642,341.227946 113.98837,343.502759 113.98837,343.502759 C115.605475,329.776559 119.775532,316.608122 122.683576,308.645721" id="Fill-36" fill="#191919"></path>
                <polygon id="Fill-38" fill="#191919" points="111.912538 315.3218 193.593115 315.629608 186.904779 304.551485 119.458842 304.20622"></polygon>
                <path d="M214.404685,282.801007 C214.404685,282.801007 196.786938,288.111438 156.665456,288.139066 C116.541749,288.167808 98.9195521,282.881482 98.9195521,282.881482 C98.9195521,282.881482 97.3447245,284.177058 97.3447245,288.182271 C97.3447245,288.182271 94.6925687,292.934011 98.0254253,295.652921 C98.0254253,295.652921 121.525458,301.147109 156.675098,301.123374 C191.829374,301.099454 215.378174,296.347528 215.378174,296.347528 C215.378174,296.347528 218.087441,292.768611 216.444377,287.311879 C216.444377,287.311879 217.401919,284.777654 214.404685,282.801007" id="Fill-40" fill="#141414"></path>
                <path d="M122.305473,289.865313 C122.305473,289.865313 108.969596,300.427951 100.976044,321.421202 C100.976044,321.421202 104.375654,322.873092 106.80641,327.724406 C106.80641,327.724406 110.50159,323.232634 108.385503,329.969922 C108.385503,329.969922 109.234015,331.057819 110.389778,334.149992 C110.389778,334.149992 115.832418,309.099794 130.376163,291.439585 L122.305473,289.865313 Z" id="Fill-42" fill="#141414"></path>
                <path d="M124.555939,294.257605 C124.555939,294.257605 130.380929,299.350159 133.033826,319.544778 C133.033826,319.544778 135.10912,316.087871 140.1212,313.175747 C140.1212,313.175747 136.573248,306.532285 142.944319,311.624654 C142.944319,311.624654 145.128458,310.986602 147.405496,310.617603 C147.405496,310.617603 144.121406,299.227036 130.376293,290.602662 L124.555939,294.257605 Z" id="Fill-44" fill="#141414"></path>
                <path d="M120.352876,286.782245 C120.352876,286.782245 121.180249,284.49371 125.728391,285.037937 C125.728391,285.037937 130.554117,282.380404 133.648701,287.297545 C133.648701,287.297545 135.376505,293.127541 132.834864,300.225113 C132.834864,300.225113 128.381289,302.173204 123.832961,300.385692 C123.832961,300.385692 121.822752,301.089757 119.643434,299.57204 C119.643434,299.57204 117.094746,292.74 120.352876,286.782245" id="Fill-46" fill="#141414"></path>
                <path d="M121.066156,285.903267 C121.066156,285.903267 119.842156,287.406335 118.986227,290.61236 C118.986227,290.61236 117.014401,286.896041 118.688246,283.132624 C120.359681,279.368836 121.066156,285.903267 121.066156,285.903267" id="Fill-48" fill="#282828"></path>
                <path d="M119.383188,308.986164 C119.383188,308.986164 123.028674,301.042862 126.461846,296.664756 C126.461846,296.664756 124.726068,301.823137 123.134923,307.421535 L119.383188,308.986164 Z" id="Fill-50" fill="#191919"></path>
                <path d="M247.015131,246.871537 C242.700256,223.840448 222.770611,205.627112 222.759115,205.617469 C222.037991,205.121083 221.6269,204.861115 221.6269,204.861115 L218.926904,205.309661 L219.676028,206.648441 C219.676028,206.648441 212.137141,215.399832 201.470479,220.487565 C201.470479,220.487565 224.236593,238.620612 229.820714,255.538003 C229.820714,255.538003 228.633984,254.323459 226.690714,253.003593 C226.690714,253.003593 225.444462,256.706375 213.645215,260.119707 L214.021074,258.403955 C207.960037,260.176818 202.354222,260.025139 202.354222,260.025139 L210.565094,281.070866 C222.348024,280.512547 233.054923,277.846113 240.889195,273.292965 C245.249314,267.637455 249.265653,258.871786 247.015131,246.871537" id="Fill-52" fill="#282828"></path>
                <path d="M226.690639,253.003648 C228.63391,254.323329 229.820825,255.538058 229.820825,255.538058 C224.236705,238.620668 201.470405,220.487621 201.470405,220.487621 C212.137252,215.399888 219.675953,206.648497 219.675953,206.648497 L218.927016,205.309717 L190.247834,210.076106 L202.538462,232.790672 C202.538462,232.790672 230.17536,247.835625 223.025869,253.840664 C220.366667,256.067636 217.135053,257.485964 214.021186,258.404011 L213.645141,260.119763 C225.444388,256.706431 226.690639,253.003648 226.690639,253.003648" id="Fill-54" fill="#191919"></path>
                <path d="M253.270737,247.774583 C247.4667,223.930213 227.700417,209.031561 222.758985,205.617302 C222.770667,205.62713 242.700311,223.840467 247.015187,246.871555 C249.265523,258.871805 245.249184,267.637474 240.88925,273.292983 C250.686632,267.600018 255.996321,258.95673 253.270737,247.774583" id="Fill-56" fill="#3C3C3C"></path>
                <path d="M221.196655,13.196881 C194.240643,0.927206872 166.230666,-0.0091971564 158.29237,0.000445023697 C157.391197,0.000445023697 156.760191,0.0100872038 156.5145,0.0195439573 C156.173872,0.0100872038 155.530627,0.000445023697 154.60368,0.000445023697 C146.305842,0.00526611374 117.08058,1.05440948 89.5293481,14.3272412 C53.1851899,31.8261293 33.9907616,63.5618816 34.0195027,106.107074 C34.0528795,152.084327 49.5990406,183.895733 80.2283528,200.676279 C105.844288,214.709545 135.66959,214.691187 153.482962,214.676909 L159.712552,214.671903 C184.285277,214.657811 230.019621,214.624248 257.618136,179.904983 C271.866682,161.980356 279.082,137.095743 279.061047,105.936667 C279.029524,62.4793615 259.020332,30.4126227 221.196655,13.196881" id="Fill-58" fill="#282828"></path>
                <path d="M217.194056,22.2984315 C217.217605,22.3175305 240.142445,42.171521 247.504435,62.5931021 C247.504435,62.5931021 242.27485,65.2593504 247.50907,70.0678314 C247.50907,70.0678314 236.071405,67.7512976 225.288666,68.7537135 C225.288666,68.7537135 243.809255,72.7253646 255.308667,84.6833367 C255.308667,84.6833367 237.924929,82.5036477 217.236519,87.018784 C217.236519,87.018784 259.776519,96.6459445 259.80044,132.362805 L206.392589,145.691264 C206.392589,145.691264 226.000333,151.162275 256.871442,145.653994 C256.871442,145.653994 257.261394,157.810001 249.998236,173.635415 C261.61354,159.020466 269.282597,137.545106 269.258676,105.941562 C269.226041,58.4512295 243.858578,34.4358966 217.194056,22.2984315" id="Fill-60" fill="#3C3C3C"></path>
                <path d="M256.871349,145.653994 C226.000426,151.16246 206.392682,145.691264 206.392682,145.691264 L259.800532,132.362805 C259.776612,96.6459445 217.236426,87.018784 217.236426,87.018784 C237.924836,82.5036477 255.308574,84.6835222 255.308574,84.6835222 C243.809347,72.7253646 225.288759,68.7537135 225.288759,68.7537135 C236.071312,67.7512976 247.509163,70.0678314 247.509163,70.0678314 C242.274757,65.2595358 247.504342,62.5931021 247.504342,62.5931021 C240.142352,42.171521 217.217513,22.3175305 217.193964,22.2984315 C187.630483,8.84184206 156.471407,9.99130118 156.471407,9.99130118 C156.471407,9.99130118 43.7548782,5.95771765 43.8236714,106.102142 C43.8945044,206.24601 120.998198,204.728293 156.608994,204.705115 C180.987763,204.686016 224.797193,205.333711 249.998329,173.635415 C257.261487,157.810001 256.871349,145.653994 256.871349,145.653994" id="Fill-62" fill="#282828"></path>
                <path d="M72.2828627,165.053875 C87.6380345,168.037573 116.721446,167.682852 116.721446,167.682852 C95.4817626,164.543395 77.0181002,155.086456 77.0181002,155.086456 C85.0233348,156.079786 97.5998899,155.904744 97.5998899,155.904744 C64.2681713,147.290198 53.3153964,132.509292 53.3153964,132.509292 C53.3085357,120.712084 58.1783929,111.898575 58.1783929,111.898575 L209.709332,93.1890376 C144.759422,76.0400494 97.4652703,79.5622265 97.4652703,79.5622265 C111.674321,74.3187348 136.586747,69.9827206 136.586747,69.9827206 C99.8302004,68.6782449 74.3468455,72.8486732 74.3468455,72.8486732 C91.4956482,66.5217342 73.3635286,64.7064084 73.3635286,64.7064084 C106.512973,49.4005601 164.012816,41.8828118 164.012816,41.8828118 C116.633739,39.4242414 84.9428597,43.2685044 84.9428597,43.2685044 C118.252883,16.3315909 156.471333,9.99130118 156.471333,9.99130118 C156.471333,9.99130118 43.754804,5.95771765 43.8237827,106.102142 C43.8944302,206.245824 120.998309,204.728293 156.609105,204.705115 C90.9336204,195.862865 72.2828627,165.053875 72.2828627,165.053875" id="Fill-64" fill="#191919"></path>
                <path d="M78.1196266,90.3190241 C78.1196266,90.3190241 78.7324613,90.1773582 79.8763576,89.9125691 C81.027671,89.6809714 82.7109732,89.2650597 84.8530206,88.8958754 C89.1439761,88.0686876 95.2693565,87.0618215 102.616883,86.1723304 C109.969231,85.2741242 118.546692,84.4892137 127.733464,83.9689068 C132.329076,83.7137599 137.076366,83.4775265 141.899125,83.3684957 C146.721698,83.2079163 151.622707,83.193453 156.523901,83.1559969 C161.424354,83.1888174 166.327403,83.217373 171.152943,83.3684957 C175.975331,83.49644 180.727628,83.694661 185.318789,83.9642711 C194.505376,84.4797569 203.082837,85.2550253 210.432589,86.1350597 C217.787347,87.0043393 223.912542,88.0024903 228.201643,88.8107646 C230.350366,89.1704921 232.033668,89.5864039 233.182385,89.8083594 C234.331474,90.0733339 234.943938,90.210735 234.943938,90.210735 C249.020037,93.4395674 257.857095,107.666975 254.681295,121.979308 C252.391092,132.29199 244.473564,139.838665 234.978983,142.045983 C234.978983,142.045983 234.367076,142.188205 233.217431,142.453179 C232.069085,142.679771 230.388008,143.095868 228.241695,143.455224 C223.952779,144.272955 217.827399,145.275371 210.473012,146.15522 C203.12771,147.04842 194.550249,147.833516 185.363662,148.363279 C180.772501,148.642346 176.02076,148.845203 171.197816,148.973147 C166.372276,149.138733 161.469227,149.171368 156.570814,149.209566 C151.669806,149.18101 146.769538,149.171368 141.943813,149.025067 C137.121054,148.921042 132.374134,148.689445 127.777967,148.438748 C118.58934,147.928269 110.011879,147.162086 102.659902,146.273708 C95.3094086,145.393859 89.1843991,144.396449 84.8904767,143.568335 C82.7489856,143.209349 81.0658689,142.793437 79.9145555,142.561283 C78.7680632,142.30113 78.1531888,142.159464 78.1531888,142.159464 C64.0769039,138.887798 55.2682161,124.636841 58.4812871,110.324508 C60.781318,100.054288 68.6701047,92.5461823 78.1196266,90.3190241" id="Fill-66" fill="#F8DBA8"></path>
                <path d="M175.304328,130.339282 C175.304328,130.339282 175.426709,130.093592 175.654228,129.625019 C175.876183,129.180366 176.188071,128.556777 176.632724,127.795415 C177.52648,126.28252 178.87416,124.187386 180.822251,121.927407 C182.748462,119.648515 185.294925,117.223136 188.422514,115.090545 C190.011249,114.064395 191.713835,113.067171 193.55475,112.277254 C195.385095,111.454701 197.35451,110.873204 199.352111,110.433372 C201.356386,110.017275 203.404051,109.80422 205.408698,109.865411 C207.418536,109.870046 209.366627,110.1302 211.212548,110.541661 C213.047715,110.967215 214.78238,111.496979 216.340519,112.177865 C217.915161,112.826116 219.347767,113.544273 220.600509,114.300813 C221.853621,115.061989 222.988617,115.757339 223.907776,116.504237 C224.858458,117.204037 225.669329,117.823176 226.281422,118.410051 C227.532309,119.530027 228.217831,120.196636 228.217831,120.196636 L224.390627,126.055187 C224.390627,126.055187 223.621663,125.705102 222.342962,125.038493 C221.709174,124.683773 220.907946,124.343886 220.021422,123.922597 C219.137493,123.488142 218.116164,123.090588 217.026041,122.636849 C216.484967,122.386523 215.893827,122.248937 215.304727,122.026981 C214.716554,121.823197 214.115957,121.586964 213.479759,121.445483 C212.219785,121.095584 210.900846,120.792411 209.54167,120.575277 C208.182122,120.40487 206.787344,120.258568 205.380698,120.281746 C204.678117,120.286382 203.964596,120.310302 203.262385,120.414697 C202.555539,120.461425 201.851104,120.589555 201.144073,120.702479 C199.742248,120.977096 198.35192,121.369829 197.00424,121.908493 C195.649884,122.381702 194.351898,123.043489 193.115103,123.743475 C191.876454,124.442718 190.689724,125.199258 189.604608,125.998447 C188.534141,126.820999 187.490746,127.592002 186.594765,128.409548 C184.767942,129.989197 183.346833,131.49282 182.372602,132.547341 C181.89995,133.066906 181.529097,133.488381 181.278586,133.766892 C181.055888,134.022039 180.938143,134.164446 180.938143,134.164446 L175.304328,130.339282 Z" id="Fill-68" fill="#141414"></path>
                <path d="M137.813752,130.362368 C137.813752,130.362368 137.690999,130.121313 137.464408,129.653482 C137.239671,129.209015 136.925002,128.584498 136.483131,127.823322 C135.584368,126.315248 134.234834,124.216034 132.281922,121.960876 C130.353115,119.68662 127.801831,117.260685 124.669606,115.132915 C123.0805,114.1114 121.380881,113.118626 119.534403,112.328895 C117.704985,111.510978 115.732974,110.929666 113.733149,110.49447 C111.730542,110.078558 109.681022,109.870139 107.680826,109.932257 C105.671359,109.941714 103.721228,110.201125 101.876605,110.617964 C100.044405,111.048154 98.3047333,111.577176 96.744369,112.262883 C95.179369,112.910949 93.7469489,113.634298 92.4940218,114.390653 C91.2405384,115.152014 90.1062842,115.851814 89.1889791,116.598897 C88.240337,117.298697 87.4276124,117.917836 86.815334,118.503784 C85.5664863,119.629509 84.881706,120.300753 84.881706,120.300753 L88.7204063,126.149847 C88.7204063,126.149847 89.4864033,125.799762 90.7632505,125.128333 C91.3970384,124.773612 92.1958559,124.433169 93.0849762,124.012436 C93.9689045,123.573346 94.9902339,123.175606 96.0775751,122.722052 C96.6216166,122.471541 97.2097896,122.329134 97.79685,122.111999 C98.3852084,121.908401 98.985805,121.667346 99.6236723,121.52568 C100.884202,121.171145 102.20277,120.868714 103.559907,120.646202 C104.919825,120.480616 106.312008,120.329494 107.72366,120.348593 C108.427539,120.353228 109.135127,120.376407 109.836966,120.480616 C110.548448,120.52345 111.250658,120.655659 111.959915,120.76469 C113.36211,121.038936 114.749657,121.430927 116.097337,121.965698 C117.459109,122.438164 118.749678,123.099952 119.995188,123.795116 C121.231612,124.49028 122.418713,125.24682 123.506054,126.045452 C124.579859,126.863925 125.619546,127.634743 126.513487,128.45266 C128.347912,130.031381 129.771061,131.53074 130.745292,132.580069 C131.22258,133.10019 131.591579,133.521109 131.844315,133.800361 C132.064045,134.060329 132.184758,134.197174 132.184758,134.197174 L137.813752,130.362368 Z" id="Fill-70" fill="#141414"></path>
                <path d="M156.570814,149.209511 C156.570814,149.209511 77.7791835,150.765425 53.3153037,132.50944 C53.3153037,132.50944 69.8312457,131.138025 96.430312,131.123748 L156.570814,149.209511 Z" id="Fill-72" fill="#F8DBA8"></path>
                <path d="M156.570814,149.209511 C157.847662,149.233245 235.520429,150.542727 259.800551,132.362768 C259.800551,132.362768 243.282013,131.02028 216.685542,131.038637 L156.570814,149.209511 Z" id="Fill-74" fill="#F8DBA8"></path>
                <path d="M214.740418,271.935976 L213.806054,270.238582 L214.830165,267.628703 L215.508269,265.604401 L214.23921,262.767746 L214.302626,261.812429 C214.302626,261.812429 215.316909,257.122435 210.831997,253.845207 C210.831997,253.845207 205.047246,250.020228 200.32573,249.348613 C200.214845,249.334891 200.129734,249.353434 200.020703,249.343792 C198.533768,250.351585 196.747183,252.478613 196.980449,256.899738 L198.742002,257.774766 C198.742002,257.774766 196.103567,260.663711 196.108388,265.694148 C196.110799,270.729962 198.801338,273.07023 198.801338,273.07023 C198.801338,273.07023 195.136568,276.18688 196.411375,281.080286 C196.872531,282.853335 197.732169,284.063984 198.633342,284.896179 C203.659328,284.777691 210.952154,280.981083 213.645289,278.352105 L215.427794,276.318903 L215.2674,274.01127 L214.740418,271.935976 Z" id="Fill-76" fill="#282828"></path>
                <path d="M198.801338,273.070267 C198.801338,273.070267 196.110799,270.729999 196.108388,265.694185 C196.103567,260.663748 198.742002,257.774803 198.742002,257.774803 L196.980449,256.899775 C196.747183,252.47865 198.533768,250.351622 200.020703,249.343829 C195.623313,248.914381 194.43955,252.866748 194.794085,255.462534 C195.197759,257.505193 196.068151,258.531158 196.068151,258.531158 C190.633114,265.112873 195.654835,272.30427 195.654835,272.30427 C193.477186,275.510666 191.685224,281.926795 195.507792,284.295619 C196.356675,284.748987 197.432705,284.928665 198.633342,284.89603 C197.732169,284.064022 196.872531,282.853372 196.411375,281.080323 C195.136568,276.186917 198.801338,273.070267 198.801338,273.070267" id="Fill-78" fill="#191919"></path>
                <path d="M213.645233,278.352031 C213.645233,278.352031 217.205608,274.366102 212.139014,270.129477 C212.139014,270.129477 216.314448,266.247757 211.914833,262.502883 C211.914833,262.502883 216.756505,259.542919 210.831942,253.845318 C210.831942,253.845318 218.009989,257.90208 214.838824,262.257007 C214.838824,262.257007 218.636174,266.323411 214.602776,269.746942 C214.602776,269.746942 219.2084,275.316784 213.645233,278.352031" id="Fill-80" fill="#191919"></path>
                <path d="M194.266361,274.957131 C194.266361,274.957131 201.633172,274.739811 208.184663,271.751477 C208.184663,271.751477 202.177028,272.810262 195.654835,272.304233 C195.654835,272.304233 194.732153,273.633556 194.266361,274.957131" id="Fill-82" fill="#191919"></path>
                <path d="M196.068095,258.531121 C196.068095,258.531121 202.045134,258.862107 208.196104,261.155277 C208.196104,261.155277 201.923865,257.140792 194.80089,255.5617 C194.80089,255.5617 194.921418,256.947393 196.068095,258.531121" id="Fill-84" fill="#191919"></path>
                <path d="M244.998618,239.244962 C244.998618,239.244962 245.305684,245.259457 243.47608,249.656291 C243.47608,249.656291 246.076317,248.408371 248.456823,245.622893 C250.835289,242.833336 248.456823,245.514604 248.456823,245.514604 L248.048328,240.086613 L244.998618,239.244962 Z" id="Fill-86" fill="#3C3C3C"></path>
                <path d="M107.061743,250.98007 C107.061743,250.98007 110.50363,246.157311 112.700193,242.786256 L107.491932,238.611007 L102.077477,253.623325 L107.061743,250.98007 Z" id="Fill-88" fill="#191919"></path>
                <path d="M47.2138805,206.29843 C47.2138805,206.29843 44.3533053,203.754563 42.8329931,202.497 C42.8329931,202.497 42.7009694,188.562567 43.2038461,179.824526 C43.2038461,179.824526 46.6277472,176.997513 50.0907733,175.555266 L47.2138805,206.29843 Z" id="Fill-90" fill="#3C3C3C"></path>
                <path d="M47.8118069,174.978719 C47.8118069,174.978719 44.906173,173.72505 43.362868,173.106282 C43.362868,173.106282 42.9608632,166.571665 43.2918496,162.476705 C43.2918496,162.476705 46.6630895,161.219143 50.0906991,160.609089 L47.8118069,174.978719 Z" id="Fill-92" fill="#3C3C3C"></path>
                <path d="M123.38345,268.763087 C123.38345,268.763087 89.871868,277.255066 46.6676695,268.763087 C46.6676695,268.763087 42.701025,199.148957 46.6676695,143.407514 C46.6676695,143.407514 89.4318508,138.027178 123.38345,143.407514 C123.38345,143.407514 126.023924,204.217592 123.38345,268.763087" id="Fill-94" fill="#141414"></path>
                <path d="M63.4435795,262.33255 C63.4435795,262.33255 66.1385688,261.595109 70.1812383,261.070166 C72.202573,260.791099 74.5619403,260.554866 77.0894895,260.394287 C79.6161115,260.228701 82.3140677,260.11967 85.0088716,260.124491 C87.7066423,260.11967 90.4016316,260.209602 92.9263994,260.384459 C95.4558028,260.535952 97.8131305,260.772557 99.8368757,261.060895 C103.879174,261.585838 106.578985,262.33255 106.578985,262.33255 C106.578985,262.33255 103.879174,263.079448 99.8368757,263.604576 C97.8131305,263.893285 95.4558028,264.13434 92.9263994,264.285463 C90.4016316,264.455684 87.7066423,264.545616 85.0088716,264.540795 C82.3140677,264.545616 79.6161115,264.436585 77.0894895,264.270999 C74.5619403,264.11042 72.202573,263.879008 70.1812383,263.595119 C66.1385688,263.070177 63.4435795,262.33255 63.4435795,262.33255" id="Fill-96" fill="#3C3C3C"></path>
                <path d="M63.1645496,149.842928 C63.1645496,149.842928 65.859539,149.105301 69.904619,148.580358 C71.9235431,148.297212 74.2855064,148.060237 76.8102742,147.899472 C79.3370816,147.733886 82.0348524,147.625782 84.7298417,147.630604 C87.424831,147.630604 90.1226018,147.715714 92.6471841,147.890015 C95.176773,148.04188 97.5366966,148.278113 99.5576604,148.56608 C103.599959,149.091023 106.297544,149.842928 106.297544,149.842928 C106.297544,149.842928 103.599959,150.585746 99.5576604,151.114583 C97.5366966,151.398656 95.176773,151.639525 92.6471841,151.790833 C90.1226018,151.961055 87.424831,152.050987 84.7298417,152.050987 C82.0348524,152.055808 79.3370816,151.947519 76.8102742,151.777297 C74.2855064,151.620426 71.9235431,151.384378 69.904619,151.105311 C65.859539,150.576104 63.1645496,149.842928 63.1645496,149.842928" id="Fill-98" fill="#3C3C3C"></path>
                <path d="M116.058917,163.483905 L52.0337282,163.271406 C50.0389095,207.442419 52.2443727,251.916233 52.2443727,251.916233 L59.1240682,242.966065 L109.22224,242.176148 L117.635969,251.916233 C118.082662,212.312832 116.631885,175.928437 116.058917,163.483905" id="Fill-100" fill="#6AD6E2"></path>
                <path d="M59.1240868,242.96599 L52.2442059,251.916344 C86.3919867,255.235665 117.635988,251.916344 117.635988,251.916344 L109.222259,242.176073 L59.1240868,242.96599 Z" id="Fill-102" fill="#36B0C1"></path>
                <path d="M115.839093,158.935522 C83.7654939,156.094231 52.24428,158.935522 52.24428,158.935522 C52.1714074,160.377584 52.1007599,161.824467 52.0336355,163.271351 L116.059009,163.48385 C115.924204,160.54762 115.839093,158.935522 115.839093,158.935522" id="Fill-104" fill="#36B0C1"></path>
                <path d="M101.640371,204.340937 C101.640371,204.340937 106.843811,208.142367 101.415634,212.52993 L103.243384,212.288875 C103.243384,212.288875 104.955056,208.161466 104.108769,206.033511 C103.262297,203.90092 101.709165,203.683786 101.709165,203.683786 L101.640371,204.340937 Z" id="Fill-106" fill="#F8DBA8"></path>
                <path d="M96.7964738,184.505731 C91.3686681,182.032697 85.7320722,181.848197 84.1368476,181.848197 C83.9519774,181.848197 83.8268145,181.848197 83.7771201,181.852833 C83.7062872,181.848197 83.5763032,181.848197 83.3918038,181.848197 C81.72519,181.848197 75.8406788,182.061253 70.2947564,184.727686 C62.9830171,188.255612 59.1194697,194.638178 59.1241053,203.200991 C59.128741,212.454517 62.2589264,218.856183 68.4243589,222.237436 C73.5808855,225.059813 79.5836989,225.055177 83.1672523,225.055177 L84.419994,225.050171 C89.3660615,225.045535 98.5697078,225.040714 104.125087,218.057365 C106.992894,214.445442 108.441817,209.437998 108.437181,203.16817 C108.43236,194.421044 104.406194,187.966717 96.7964738,184.505731" id="Fill-108" fill="#282828"></path>
                <path d="M95.9904803,186.335371 C95.9904803,186.340007 100.607416,190.335393 102.089901,194.44463 C102.089901,194.44463 101.037976,194.978473 102.089901,195.948254 C102.089901,195.948254 99.7870887,195.484502 97.6168565,195.68328 C97.6168565,195.68328 101.347638,196.482653 103.662133,198.888934 C103.662133,198.888934 100.158127,198.453738 95.999937,199.362142 C95.999937,199.362142 104.558114,201.300591 104.562749,208.487538 L93.8156124,211.16825 C93.8156124,211.16825 97.7585223,212.269869 103.971795,211.163243 C103.971795,211.163243 104.052085,213.603828 102.590923,216.790197 C104.929152,213.854339 106.472828,209.527781 106.468192,203.168207 C106.45855,193.617257 101.354499,188.775585 95.9904803,186.335371" id="Fill-110" fill="#282828"></path>
                <path d="M103.971795,211.163336 C97.7585223,212.269962 93.8156124,211.168157 93.8156124,211.168157 L104.562935,208.487446 C104.558114,201.300684 95.999937,199.362049 95.999937,199.362049 C100.158127,198.45383 103.662133,198.889026 103.662133,198.889026 C101.347638,196.482561 97.6170419,195.683372 97.6170419,195.683372 C99.7870887,195.48441 102.089901,195.948161 102.089901,195.948161 C101.037976,194.978566 102.089901,194.444723 102.089901,194.444723 C100.607416,190.335485 95.9904803,186.3401 95.9904803,186.335464 C90.0399572,183.626011 83.767719,183.858166 83.767719,183.858166 C83.767719,183.858166 61.0844903,183.044328 61.1008079,203.20112 C61.1150857,223.357727 76.6306515,223.05029 83.7934933,223.045654 C88.6993233,223.041019 97.519693,223.173599 102.590923,216.79029 C104.052085,213.603735 103.971795,211.163336 103.971795,211.163336" id="Fill-112" fill="#282828"></path>
                <path d="M66.8243689,215.064358 C69.916171,215.664769 75.7676764,215.593936 75.7676764,215.593936 C71.4932238,214.960149 67.7787593,213.059526 67.7787593,213.059526 C69.3864074,213.258489 71.9213736,213.220477 71.9213736,213.220477 C65.2139394,211.48952 63.0058802,208.516391 63.0058802,208.516391 C63.0058802,206.142746 63.9867866,204.369512 63.9867866,204.369512 L94.4842605,200.600717 C81.4111331,197.149188 71.8930034,197.858073 71.8930034,197.858073 C74.7532078,196.803923 79.7625057,195.929081 79.7625057,195.929081 C72.3701059,195.668928 67.2404661,196.505943 67.2404661,196.505943 C70.6918102,195.233917 67.0415034,194.870295 67.0415034,194.870295 C73.7129649,191.787394 85.2856207,190.279134 85.2856207,190.279134 C75.7508025,189.782562 69.3700899,190.558387 69.3700899,190.558387 C76.0767824,185.134846 83.767719,183.858184 83.767719,183.858184 C83.767719,183.858184 61.0844903,183.044347 61.1008079,203.200954 C61.1150857,223.357746 76.6306515,223.050308 83.7934933,223.045673 C70.5779584,221.263167 66.8243689,215.064358 66.8243689,215.064358" id="Fill-114" fill="#282828"></path>
                <path d="M104.314389,208.487501 C104.314389,208.487501 103.713792,208.439847 102.637948,208.383292 C103.056641,207.811436 103.366674,207.140007 103.534114,206.397744 C104.172723,203.51362 102.392257,200.652303 99.5622775,200.000343 C99.5622775,200.000343 99.4369292,199.976423 99.2075566,199.924504 C98.9739191,199.877405 98.638668,199.79248 98.2055116,199.721091 C97.3425364,199.555505 96.1062977,199.357469 94.6286336,199.182241 C93.1511549,199.002748 91.4250193,198.85144 89.5714956,198.747416 C88.6477005,198.690676 87.692383,198.648027 86.722973,198.628743 C85.7539339,198.595923 84.7650542,198.591287 83.779883,198.586466 C82.7913741,198.591287 81.8052758,198.595923 80.8364221,198.628743 C79.8668267,198.648027 78.9096549,198.695497 77.9847473,198.747416 C76.1362302,198.85144 74.4108362,199.01202 72.9285364,199.187062 C71.452912,199.371747 70.2192693,199.569783 69.3538836,199.740004 C68.9207272,199.810837 68.5830655,199.896133 68.3516531,199.943603 C68.1219097,199.995337 67.9971176,200.023892 67.9971176,200.023892 C66.0985352,200.473366 64.5072047,201.98144 64.05087,204.047463 C63.6941093,205.617284 64.0627373,207.177463 64.9258978,208.383292 C63.6750104,208.449303 63.0059914,208.516242 63.0059914,208.516242 C64.2279523,209.42372 66.1263492,210.052131 68.2852704,210.525339 C68.3084488,210.530346 68.3323688,210.534981 68.3611099,210.539617 C68.5925222,210.58208 68.9303694,210.667005 69.3635258,210.742659 C69.4291668,210.756937 69.4981454,210.766579 69.5710181,210.780671 C69.7557029,210.813492 69.9639369,210.851504 70.1812568,210.889702 L70.1975743,210.889702 L70.1953492,210.889702 C70.9541146,211.01709 71.8812473,211.158571 72.9379932,211.281694 C74.4156573,211.466379 76.1410512,211.622322 77.9921644,211.721711 C78.9163303,211.768809 79.8762835,211.816464 80.8432829,211.839457 C81.8147325,211.872834 82.8008309,211.872834 83.7865584,211.877655 C84.7724713,211.868013 85.7633907,211.863377 86.7302047,211.83 C87.7038794,211.802186 88.659197,211.763988 89.5839191,211.707433 C91.4300258,211.603409 93.1606117,211.442644 94.6353089,211.257959 C96.1157544,211.083102 97.347543,210.884881 98.2129286,210.71466 C98.3401312,210.695746 98.4560228,210.676647 98.5648682,210.652727 C98.555226,210.657548 98.5457693,210.662369 98.5363125,210.667005 C98.746957,210.624728 98.9475886,210.572437 99.1537829,210.530346 C99.1723255,210.525339 99.1958747,210.520703 99.2123777,210.520703 C99.2906277,210.501419 99.3499642,210.482691 99.3968771,210.472863 C99.4018836,210.472863 99.4083735,210.472863 99.415976,210.468969 C99.5105435,210.44987 99.5670986,210.435593 99.5670986,210.435593 C99.5834162,210.430586 99.6004754,210.421315 99.616793,210.421315 C99.6236537,210.416494 99.6331105,210.411858 99.6427527,210.411858 C101.543746,209.939206 103.207763,209.314689 104.314389,208.487501" id="Fill-116" fill="#F8DBA8"></path>
                <path d="M88.1955008,205.811685 C88.1955008,205.811685 88.3399481,205.730654 88.6308823,205.622365 C88.9166246,205.503877 89.3191857,205.38131 89.8126057,205.248545 C90.0562562,205.177712 90.3260518,205.130613 90.609569,205.068866 C90.8932716,205.002855 91.1914374,204.960577 91.5053646,204.917558 C91.8131726,204.875281 92.1363711,204.837269 92.4653178,204.808713 C92.7914831,204.771257 93.1298865,204.771257 93.4582769,204.756979 C93.7966803,204.752158 94.1274813,204.733059 94.4603219,204.733059 C94.789454,204.747337 95.1135796,204.756979 95.4250962,204.771257 C95.7371691,204.79017 96.0373746,204.808713 96.3281235,204.827626 C96.6121969,204.84209 96.8836614,204.898459 97.129537,204.927015 C98.127688,205.073687 98.7820583,205.243724 98.7820583,205.243724 L98.6882325,206.780724 C98.6882325,206.780724 98.0349748,206.898841 97.077803,206.974495 C96.5979191,207.002494 96.0373746,207.059606 95.4415992,207.101883 C95.1460293,207.120982 94.8389629,207.140081 94.5244795,207.154173 C94.2146318,207.182358 93.8979232,207.191815 93.5767645,207.215549 C93.2598705,207.229827 92.9407514,207.248926 92.628864,207.267469 C92.3188308,207.286382 92.0112082,207.30066 91.7108172,207.305667 C91.413393,207.30066 91.1274653,207.329587 90.853034,207.324395 C90.5813841,207.324395 90.3212307,207.334222 90.0801762,207.324395 C89.602332,207.329587 89.1938373,207.310302 88.9212603,207.295839 C88.638114,207.281747 88.4775346,207.267469 88.4775346,207.267469 L88.1955008,205.811685 Z" id="Fill-118" fill="#141414"></path>
                <path d="M79.5101402,207.286401 C79.5101402,207.286401 79.3464086,207.295858 79.0606663,207.314957 C78.7910561,207.32942 78.3825614,207.347777 77.9043464,207.342956 C77.6634773,207.352413 77.4035093,207.342956 77.1296343,207.342956 C76.8572427,207.342956 76.5711296,207.314957 76.27352,207.319778 C75.9755395,207.314957 75.6658772,207.300679 75.3539898,207.281765 C75.0439566,207.262481 74.7246521,207.244124 74.4109104,207.229846 C74.0934601,207.206111 73.7748973,207.196655 73.4648642,207.164019 C73.1503807,207.149556 72.8386787,207.130457 72.5431088,207.116179 C71.944552,207.069266 71.3867889,207.01197 70.9070905,206.979335 C69.9493624,206.908687 69.2994424,206.785378 69.2994424,206.785378 L69.2095105,205.248563 C69.2072854,205.248563 69.8596159,205.078342 70.8572107,204.936676 C71.107722,204.90812 71.3752925,204.85138 71.6660413,204.837287 C71.949373,204.818003 72.2521746,204.799089 72.5620223,204.775911 C72.8789163,204.771275 73.2021148,204.756812 73.5290217,204.747355 C73.8618624,204.742534 74.1908091,204.761633 74.5286562,204.771275 C74.8622386,204.785553 75.1952646,204.785553 75.526251,204.823009 C75.8529726,204.85138 76.1763565,204.888836 76.4889856,204.936676 C76.796052,204.978953 77.0981118,205.021601 77.3821852,205.087798 C77.6634773,205.149175 77.9310478,205.196644 78.1771088,205.267477 C78.6684892,205.399686 79.070123,205.522995 79.3588322,205.641297 C79.649581,205.749586 79.7940283,205.830061 79.7940283,205.830061 L79.5101402,207.286401 Z" id="Fill-120" fill="#141414"></path>
                <path d="M56.9561909,227.736371 C56.9561909,227.736371 64.1073509,225.769366 63.063214,215.579807 C62.0274214,205.390062 56.2137431,201.607917 56.2137431,201.607917 L58.8640446,200.719168 C64.0797223,188.988158 59.8709107,181.06859 59.8709107,181.06859 C51.5901323,177.791547 34.2414398,188.912318 29.024464,195.361824 L26.2884954,199.323833 L27.0476317,203.385601 L28.4210861,206.936334 L30.4264741,209.754632 L29.1542626,214.582212 L28.3789943,218.308173 L31.21806,223.06492 L31.3033562,224.762129 C31.3033562,224.762129 30.484698,233.277658 39.1049925,238.138429 C39.1049925,238.138429 50.1402822,243.698629 58.6370825,243.902228 C60.8149172,243.958597 62.4997028,243.471667 63.8052911,242.662837 C65.557201,229.476043 56.9561909,227.736371 56.9561909,227.736371" id="Fill-127" fill="#282828"></path>
                <path d="M67.1524812,231.934724 C66.0085848,228.402905 64.2518538,226.771522 64.2518538,226.771522 C72.5001826,213.996005 62.1190777,202.317099 62.1190777,202.317099 C65.3037786,196.179666 67.1339385,184.454034 59.8707809,181.068701 C59.8707809,181.068701 64.079778,188.988269 58.8641002,200.719094 L56.2137987,201.607843 C56.2137987,201.607843 62.0272916,205.390174 63.0630842,215.579918 C64.1074065,225.769292 56.9562466,227.736297 56.9562466,227.736297 C56.9562466,227.736297 65.5570712,229.475969 63.8051613,242.662762 C67.5263011,240.365698 68.0343698,235.36289 67.1524812,231.934724" id="Fill-129" fill="#191919"></path>
                <path d="M29.0245197,195.36188 C29.0245197,195.36188 23.5464634,203.15888 33.3911293,209.593923 C33.3911293,209.593923 26.8210961,217.338633 35.3840937,223.045691 C35.3840937,223.045691 27.4354142,229.291599 39.1048627,238.138299 C39.1048627,238.138299 25.5607519,232.459797 30.2629835,224.095576 C30.2629835,224.095576 22.7005475,217.683712 29.1183455,210.785474 C29.1183455,210.785474 19.8112312,201.896496 29.0245197,195.36188" id="Fill-131" fill="#191919"></path>
                <path d="M64.0158058,197.324249 C64.0158058,197.324249 51.0340937,199.243784 40.0596239,205.905604 C40.0596239,205.905604 50.4692845,202.775418 62.1190777,202.317229 C62.1190777,202.317229 63.4697246,199.763906 64.0158058,197.324249" id="Fill-133" fill="#191919"></path>
                <path d="M64.251928,226.771578 C64.251928,226.771578 53.6106697,227.42873 42.2466187,224.658086 C42.2466187,224.658086 54.1788166,230.450441 67.1150992,231.754916 C67.1150992,231.754916 66.6187123,229.334358 64.251928,226.771578" id="Fill-135" fill="#191919"></path>
                <g id="Group-139" transform="translate(0.000000, 152.937956)">
                    <mask id="mask-4" fill="white">
                        <use xlink:href="#path-3"></use>
                    </mask>
                    <g id="Clip-138"></g>
                    <polygon id="Fill-137" fill="#141414" mask="url(#mask-4)" points="19.9507461 8.12055136 -3.70853081e-05 10.4376414 0.191137678 0.162971386 20.3811211 3.16502707"></polygon>
                </g>
                <polygon id="Fill-140" fill="#141414" points="26.7780215 140.71755 7.79701914 132.552107 14.0332845 124.300997 29.279611 136.476103"></polygon>
                <polygon id="Fill-142" fill="#141414" points="28.8753069 172.127155 11.5084426 183.914721 18.3899924 191.040292 32.0294124 176.59575"></polygon>
            </g>
        </g>
    </g>
</svg>