<?xml version="1.0" encoding="UTF-8"?>
<svg width="89px" height="91px" viewBox="0 0 89 91" version="1.1" xmlns="http://www.w3.org/2000/svg" xmlns:xlink="http://www.w3.org/1999/xlink">
    <!-- Generator: Sketch 49.3 (51167) - http://www.bohemiancoding.com/sketch -->
    <title>Group 2</title>
    <desc>Created with Sketch.</desc>
    <defs>
        <linearGradient x1="100%" y1="50%" x2="0%" y2="50%" id="linearGradient-1">
            <stop stop-color="#546FF7" offset="0%"></stop>
            <stop stop-color="#6D54F7" offset="100%"></stop>
        </linearGradient>
        <circle id="path-2" cx="31.5" cy="31.5" r="31.5"></circle>
        <filter x="-46.0%" y="-22.2%" width="188.9%" height="188.9%" filterUnits="objectBoundingBox" id="filter-3">
            <feMorphology radius="3" operator="erode" in="SourceAlpha" result="shadowSpreadOuter1"></feMorphology>
            <feOffset dx="-1" dy="14" in="shadowSpreadOuter1" result="shadowOffsetOuter1"></feOffset>
            <feGaussianBlur stdDeviation="10" in="shadowOffsetOuter1" result="shadowBlurOuter1"></feGaussianBlur>
            <feColorMatrix values="0 0 0 0 0.388235294   0 0 0 0 0.37254902   0 0 0 0 0.968627451  0 0 0 0.69 0" type="matrix" in="shadowBlurOuter1"></feColorMatrix>
        </filter>
    </defs>
    <g id="Page-1" stroke="none" stroke-width="1" fill="none" fill-rule="evenodd">
        <g id="Home-Copy-2" transform="translate(-317.000000, -597.000000)">
            <g id="Group-2" transform="translate(331.000000, 597.000000)">
                <g id="Oval-3">
                    <use fill="black" fill-opacity="1" filter="url(#filter-3)" xlink:href="#path-2"></use>
                    <use fill="url(#linearGradient-1)" fill-rule="evenodd" xlink:href="#path-2"></use>
                </g>
                <g id="Group-8" transform="translate(13.000000, 13.000000)" fill-rule="nonzero">
                    <g id="icons8-portrait_mode_scanning" stroke="#FFFFFF" stroke-width="1.5">
                        <path d="M0.750024954,0.750035868 L0.749960876,5.15348857 C0.749414042,5.19215456 0.769728884,5.22811973 0.80312645,5.2476123 C0.836524015,5.26710488 0.87783002,5.26710488 0.911227585,5.2476123 C0.944625151,5.22811973 0.964939992,5.19215456 0.964318167,5.14288276 L0.964318167,0.964318167 L1.71431817,0.964318167 L5.15348857,0.964393159 C5.19215456,0.964939992 5.22811973,0.944625151 5.2476123,0.911227585 C5.26710488,0.87783002 5.26710488,0.836524015 5.2476123,0.80312645 C5.22811973,0.769728884 5.19215456,0.749414042 5.14288276,0.750035868 L0.750024954,0.750035868 Z M35.2499641,0.750035868 L30.8571172,0.750035868 L30.8465114,0.749960876 C30.8078454,0.749414042 30.7718803,0.769728884 30.7523877,0.80312645 C30.7328951,0.836524015 30.7328951,0.87783002 30.7523877,0.911227585 C30.7718803,0.944625151 30.8078454,0.964939992 30.8571172,0.964318167 L35.0356818,0.964318167 L35.0356818,1.71431817 L35.0356068,5.15348857 C35.03506,5.19215456 35.0553748,5.22811973 35.0887724,5.2476123 C35.12217,5.26710488 35.163476,5.26710488 35.1968736,5.2476123 C35.2302711,5.22811973 35.250586,5.19215456 35.2499641,5.14288276 L35.2499641,0.750035868 Z M0.750035868,35.249975 L5.15348857,35.2500391 C5.19215456,35.250586 5.22811973,35.2302711 5.2476123,35.1968736 C5.26710488,35.163476 5.26710488,35.12217 5.2476123,35.0887724 C5.22811973,35.0553748 5.19215456,35.03506 5.14288276,35.0356818 L0.964318167,35.0356818 L0.964318167,34.2856818 L0.964388478,30.8468478 C0.964785334,30.8178672 0.953433489,30.7899603 0.932919504,30.7694858 C0.912405518,30.7490113 0.884476825,30.7377131 0.855497084,30.7381658 C0.796375006,30.73909 0.749155782,30.7877145 0.750035868,30.8571172 L0.750035868,35.249975 Z M35.2499744,35.2499641 L35.2500344,30.8468478 C35.2504313,30.8178672 35.2390795,30.7899603 35.2185655,30.7694858 C35.1980515,30.7490113 35.1701228,30.7377131 35.141143,30.7381658 C35.082021,30.73909 35.0348017,30.7877145 35.0356818,30.8571172 L35.0356818,35.0356818 L34.2856818,35.0356818 L30.8465114,35.0356068 C30.8078454,35.03506 30.7718803,35.0553748 30.7523877,35.0887724 C30.7328951,35.12217 30.7328951,35.163476 30.7523877,35.1968736 C30.7718803,35.2302711 30.8078454,35.250586 30.8571172,35.2499641 L35.2499744,35.2499641 Z" id="Shape"></path>
                    </g>
                    <g id="icons8-qr_code-copy-4" transform="translate(7.000000, 7.000000)" fill="#00FFCD">
                        <path d="M1.22222222,0 C0.547555556,0 0,0.547555556 0,1.22222222 L0,6.11111111 C0,6.78577778 0.547555556,7.33333333 1.22222222,7.33333333 L6.11111111,7.33333333 C6.78577778,7.33333333 7.33333333,6.78577778 7.33333333,6.11111111 L7.33333333,1.22222222 C7.33333333,0.547555556 6.78577778,0 6.11111111,0 L1.22222222,0 Z M9.77777778,0 L9.77777778,2.44444444 L12.2222222,2.44444444 L12.2222222,0 L9.77777778,0 Z M15.8888889,0 C15.2142222,0 14.6666667,0.547555556 14.6666667,1.22222222 L14.6666667,6.11111111 C14.6666667,6.78577778 15.2142222,7.33333333 15.8888889,7.33333333 L20.7777778,7.33333333 C21.4524444,7.33333333 22,6.78577778 22,6.11111111 L22,1.22222222 C22,0.547555556 21.4524444,0 20.7777778,0 L15.8888889,0 Z M2.44444444,2.44444444 L4.88888889,2.44444444 L4.88888889,4.88888889 L2.44444444,4.88888889 L2.44444444,2.44444444 Z M17.1111111,2.44444444 L19.5555556,2.44444444 L19.5555556,4.88888889 L17.1111111,4.88888889 L17.1111111,2.44444444 Z M9.77777778,4.88888889 L9.77777778,7.33333333 L12.2222222,7.33333333 L12.2222222,4.88888889 L9.77777778,4.88888889 Z M0,9.77777778 L0,12.2222222 L2.44444444,12.2222222 L2.44444444,9.77777778 L0,9.77777778 Z M4.88888889,9.77777778 L4.88888889,12.2222222 L7.33333333,12.2222222 L7.33333333,9.77777778 L4.88888889,9.77777778 Z M9.77777778,9.77777778 L9.77777778,12.2222222 L12.2222222,12.2222222 L12.2222222,9.77777778 L9.77777778,9.77777778 Z M12.2222222,12.2222222 L12.2222222,14.6666667 L14.6666667,14.6666667 L14.6666667,12.2222222 L12.2222222,12.2222222 Z M14.6666667,12.2222222 L17.1111111,12.2222222 L17.1111111,9.77777778 L14.6666667,9.77777778 L14.6666667,12.2222222 Z M17.1111111,12.2222222 L17.1111111,14.6666667 L19.5555556,14.6666667 L19.5555556,12.2222222 L17.1111111,12.2222222 Z M19.5555556,12.2222222 L22,12.2222222 L22,9.77777778 L19.5555556,9.77777778 L19.5555556,12.2222222 Z M19.5555556,14.6666667 L19.5555556,17.1111111 L22,17.1111111 L22,14.6666667 L19.5555556,14.6666667 Z M19.5555556,17.1111111 L17.1111111,17.1111111 L17.1111111,19.5555556 L19.5555556,19.5555556 L19.5555556,17.1111111 Z M19.5555556,19.5555556 L19.5555556,22 L22,22 L22,19.5555556 L19.5555556,19.5555556 Z M17.1111111,19.5555556 L14.6666667,19.5555556 L14.6666667,22 L17.1111111,22 L17.1111111,19.5555556 Z M14.6666667,19.5555556 L14.6666667,17.1111111 L12.2222222,17.1111111 L12.2222222,19.5555556 L14.6666667,19.5555556 Z M12.2222222,19.5555556 L9.77777778,19.5555556 L9.77777778,22 L12.2222222,22 L12.2222222,19.5555556 Z M12.2222222,17.1111111 L12.2222222,14.6666667 L9.77777778,14.6666667 L9.77777778,17.1111111 L12.2222222,17.1111111 Z M14.6666667,17.1111111 L17.1111111,17.1111111 L17.1111111,14.6666667 L14.6666667,14.6666667 L14.6666667,17.1111111 Z M1.22222222,14.6666667 C0.547555556,14.6666667 0,15.2142222 0,15.8888889 L0,20.7777778 C0,21.4524444 0.547555556,22 1.22222222,22 L6.11111111,22 C6.78577778,22 7.33333333,21.4524444 7.33333333,20.7777778 L7.33333333,15.8888889 C7.33333333,15.2142222 6.78577778,14.6666667 6.11111111,14.6666667 L1.22222222,14.6666667 Z M2.44444444,17.1111111 L4.88888889,17.1111111 L4.88888889,19.5555556 L2.44444444,19.5555556 L2.44444444,17.1111111 Z" id="Shape"></path>
                    </g>
                </g>
            </g>
        </g>
    </g>
</svg>