<?xml version="1.0" encoding="UTF-8"?>
<svg width="30px" height="30px" viewBox="0 0 30 30" version="1.1" xmlns="http://www.w3.org/2000/svg" xmlns:xlink="http://www.w3.org/1999/xlink">
    <!-- Generator: Sketch 49.3 (51167) - http://www.bohemiancoding.com/sketch -->
    <title>Artboard</title>
    <desc>Created with Sketch.</desc>
    <defs></defs>
    <g id="Artboard" stroke="none" stroke-width="1" fill="none" fill-rule="evenodd">
        <g id="icon-lock" fill="#F63838" fill-rule="nonzero">
            <rect id="Rectangle" x="0" y="0" width="30" height="30" rx="4"></rect>
        </g>
        <g id="notification" transform="translate(6.000000, 4.000000)" fill="#FFFFFF" fill-rule="nonzero">
            <path d="M20,3.63636364 C20,1.63127273 18.3385185,0 16.2962963,0 C14.6411111,0 13.2366667,1.072 12.7633333,2.54545455 L1.93888889,2.54545455 C0.87,2.54545455 0,3.39963636 0,4.44909091 L0,18.096 C0,19.1458182 0.87,20 1.93888889,20 L15.8385185,20 C16.9077778,20 17.7774074,19.1458182 17.7774074,18.0963636 L17.7774074,6.96690909 C19.0840741,6.40436364 20,5.124 20,3.63636364 Z M17.037037,18.0963636 C17.037037,18.7450909 16.4996296,19.2727273 15.8388889,19.2727273 L1.93888889,19.2727273 C1.27814815,19.2727273 0.740740741,18.7450909 0.740740741,18.0963636 L0.740740741,4.44909091 C0.740740741,3.80036364 1.27814815,3.27272727 1.93888889,3.27272727 L12.6111111,3.27272727 C12.5992593,3.39236364 12.5925926,3.51345455 12.5925926,3.63636364 C12.5925926,5.64145455 14.2540741,7.27272727 16.2962963,7.27272727 C16.55,7.27272727 16.7977778,7.24727273 17.037037,7.19927273 L17.037037,18.0963636 Z M17.2792593,6.37745455 C17.2059259,6.40290909 17.1318519,6.42472727 17.0574074,6.44472727 C17.0440741,6.44836364 17.0303704,6.45163636 17.017037,6.45490909 C16.9514815,6.47127273 16.8855556,6.48545455 16.8192593,6.49745455 C16.7851852,6.50363636 16.7503704,6.508 16.7159259,6.51309091 C16.6662963,6.52036364 16.6162963,6.52763636 16.5666667,6.53236364 C16.4774074,6.54 16.3874074,6.54545455 16.2962963,6.54545455 C14.6625926,6.54545455 13.3333333,5.24036364 13.3333333,3.63636364 C13.3333333,3.42545455 13.3588889,3.20836364 13.4096296,2.99018182 C13.71,1.69636364 14.8888889,0.727272727 16.2962963,0.727272727 C17.93,0.727272727 19.2592593,2.03236364 19.2592593,3.63636364 C19.2592593,4.90181818 18.4303704,5.97818182 17.2792593,6.37745455 Z" id="Shape"></path>
        </g>
    </g>
</svg>