<?xml version="1.0" encoding="UTF-8"?>
<svg width="18px" height="18px" viewBox="0 0 18 18" version="1.1" xmlns="http://www.w3.org/2000/svg" xmlns:xlink="http://www.w3.org/1999/xlink">
    <!-- Generator: Sketch 49.3 (51167) - http://www.bohemiancoding.com/sketch -->
    <title>align-justify-solid</title>
    <desc>Created with Sketch.</desc>
    <defs></defs>
    <g id="Page-1" stroke="none" stroke-width="1" fill="none" fill-rule="evenodd">
        <g id="align-justify-solid" fill="#999999" fill-rule="nonzero">
            <path d="M0,2.21052632 L0,0.631578947 C0,0.28275 0.287799107,0 0.642857143,0 L17.3571429,0 C17.7122009,0 18,0.28275 18,0.631578947 L18,2.21052632 C18,2.55935526 17.7122009,2.84210526 17.3571429,2.84210526 L0.642857143,2.84210526 C0.287799107,2.84210526 0,2.55935526 0,2.21052632 Z M0.642857143,7.89473684 L17.3571429,7.89473684 C17.7122009,7.89473684 18,7.61198684 18,7.26315789 L18,5.68421053 C18,5.33538158 17.7122009,5.05263158 17.3571429,5.05263158 L0.642857143,5.05263158 C0.287799107,5.05263158 0,5.33538158 0,5.68421053 L0,7.26315789 C0,7.61198684 0.287799107,7.89473684 0.642857143,7.89473684 Z M0.642857143,18 L17.3571429,18 C17.7122009,18 18,17.71725 18,17.3684211 L18,15.7894737 C18,15.4406447 17.7122009,15.1578947 17.3571429,15.1578947 L0.642857143,15.1578947 C0.287799107,15.1578947 0,15.4406447 0,15.7894737 L0,17.3684211 C0,17.71725 0.287799107,18 0.642857143,18 Z M0.642857143,12.9473684 L17.3571429,12.9473684 C17.7122009,12.9473684 18,12.6646184 18,12.3157895 L18,10.7368421 C18,10.3880132 17.7122009,10.1052632 17.3571429,10.1052632 L0.642857143,10.1052632 C0.287799107,10.1052632 0,10.3880132 0,10.7368421 L0,12.3157895 C0,12.6646184 0.287799107,12.9473684 0.642857143,12.9473684 Z" id="Shape"></path>
        </g>
    </g>
</svg>