<?xml version="1.0" encoding="UTF-8"?>
<svg width="21px" height="21px" viewBox="0 0 21 21" version="1.1" xmlns="http://www.w3.org/2000/svg" xmlns:xlink="http://www.w3.org/1999/xlink">
    <!-- Generator: Sketch 51.2 (57519) - http://www.bohemiancoding.com/sketch -->
    <title>Setting</title>
    <desc>Created with Sketch.</desc>
    <defs></defs>
    <g id="Page-1" stroke="none" stroke-width="1" fill="none" fill-rule="evenodd">
        <g id="Home-Copy" transform="translate(-373.000000, -122.000000)" fill="#FFFFFF" fill-rule="nonzero">
            <g id="Setting" transform="translate(373.000000, 122.000000)">
                <path d="M9.12784091,-9.04323545e-15 C8.85688936,0.0497159091 8.65056818,0.265980273 8.61079545,0.536931818 L8.21306818,3.10227273 C7.75568182,3.24147727 7.31818182,3.42045455 6.90056818,3.63920455 L4.77272727,2.12784091 C4.52166209,1.946378 4.178622,1.97372191 3.95738636,2.1875 L2.20738636,3.9375 C1.99360827,4.15873564 1.96626436,4.50177573 2.14772727,4.75284091 L3.63920455,6.88068182 C3.42045455,7.29580982 3.24644918,7.73828109 3.10227273,8.19318182 L0.536931818,8.63068182 C0.231178818,8.67791209 0.00497159091,8.93892045 9.23889329e-16,9.24715909 L9.23889329e-16,11.7130682 C-0.00497159091,12.0237925 0.213778727,12.2922584 0.517045455,12.3494318 L3.08238636,12.7869318 C3.22656282,13.256747 3.41051136,13.6917614 3.63920455,14.1193182 L2.12784091,16.2272727 C1.946378,16.4783379 1.97372191,16.821378 2.1875,17.0426136 L3.9375,18.7926136 C4.15873564,19.0063924 4.50177573,19.0337356 4.75284091,18.8522727 L6.88068182,17.3607955 C7.29580982,17.5795455 7.73828109,17.7560371 8.19318182,17.8977273 L8.61079545,20.4630682 C8.66051136,20.7762787 8.93146291,21.0049719 9.24715909,21 L11.7130682,21 C12.0237925,21.0049719 12.2922584,20.7862219 12.3494318,20.4829545 L12.8068182,17.8778409 C13.256747,17.7361507 13.6892757,17.5596591 14.0994318,17.3409091 L16.2471591,18.8522727 C16.4982243,19.0337356 16.8412644,19.0063924 17.0625,18.7926136 L18.8125,17.0426136 C19.0262787,16.821378 19.053622,16.4783379 18.8721591,16.2272727 L17.3409091,14.0795455 C17.5571735,13.6644175 17.7386364,13.2418325 17.8778409,12.7869318 L20.4829545,12.3494318 C20.7862219,12.2922584 21.0049719,12.0237925 21,11.7130682 L21,9.24715909 C20.9950287,8.93892045 20.7688212,8.67791209 20.4630682,8.63068182 L17.8579545,8.19318182 C17.71875,7.74822427 17.5546878,7.32563936 17.3409091,6.92045455 L18.8522727,4.75284091 C19.0337356,4.50177573 19.0063924,4.15873564 18.7926136,3.9375 L17.0426136,2.1875 C16.821378,1.97372191 16.4783379,1.946378 16.2272727,2.12784091 L14.0994318,3.65909091 C13.6843038,3.44034091 13.2418325,3.26384927 12.7869318,3.12215909 L12.3494318,0.536931818 C12.2997159,0.223721909 12.0287644,-0.00497127273 11.7130682,-9.04323545e-15 L9.24715909,-9.04323545e-15 C9.22727273,-9.04323545e-15 9.20738636,-9.04323545e-15 9.1875,-9.04323545e-15 C9.16761364,-9.04323545e-15 9.14772727,-9.04323545e-15 9.12784091,-9.04323545e-15 Z M9.80397727,1.27272727 L11.1761364,1.27272727 L11.59375,3.65909091 C11.6335227,3.91264236 11.8224432,4.11647727 12.0710227,4.17613636 C12.7073864,4.33522727 13.3139205,4.58132118 13.8607955,4.91193182 C14.0770598,5.04367882 14.350497,5.03622191 14.5568182,4.89204545 L16.5255682,3.48011364 L17.5,4.45454545 L16.1079545,6.46306818 C15.9563212,6.66690373 15.9414061,6.94034091 16.0681818,7.15909091 C16.3963068,7.70596591 16.6448864,8.29509927 16.8039773,8.92897727 C16.8636364,9.17755682 17.0674719,9.36647727 17.3210227,9.40625 L19.7272727,9.80397727 L19.7272727,11.1761364 L17.3210227,11.59375 C17.0674719,11.6335227 16.8636364,11.8224432 16.8039773,12.0710227 C16.647372,12.7049007 16.3963068,13.2965197 16.0681818,13.8409091 C15.9339492,14.064631 15.9488636,14.3480114 16.1079545,14.5568182 L17.5198864,16.5255682 L16.5454545,17.5 L14.5568182,16.1079545 C14.350497,15.9637787 14.0770598,15.9563212 13.8607955,16.0880682 C13.3188924,16.4186788 12.7073864,16.6622871 12.0710227,16.8238636 C11.8299007,16.8909803 11.6509235,17.0948152 11.6136364,17.3409091 L11.1761364,19.7272727 L9.78409091,19.7272727 L9.38636364,17.3409091 C9.33913336,17.0948152 9.15269918,16.9009235 8.90909091,16.84375 C8.27024164,16.6871447 7.66867882,16.4186788 7.11931818,16.0880682 C6.90554009,15.9712356 6.64204545,15.9861507 6.44318182,16.1278409 L4.45454545,17.5 L3.48011364,16.5255682 L4.87215909,14.5767045 C5.02627873,14.3654121 5.03373564,14.0820311 4.89204545,13.8607955 C4.55894918,13.3089492 4.31534091,12.7123583 4.15625,12.0710227 C4.09659091,11.8224432 3.892756,11.6335227 3.63920455,11.59375 L1.27272727,11.1761364 L1.27272727,9.78409091 L3.63920455,9.38636364 C3.88529845,9.34907655 4.08913336,9.17009927 4.15625,8.92897727 C4.31782655,8.28515609 4.55894918,7.67116509 4.89204545,7.11931818 C5.02379245,6.90305382 5.01633555,6.62961664 4.87215909,6.42329545 L3.5,4.45454545 L4.47443182,3.46022727 L6.44318182,4.87215909 C6.649503,5.01633555 6.92294018,5.02379245 7.13920455,4.89204545 C7.68607955,4.56392045 8.290128,4.33274164 8.92897727,4.17613636 C9.17755682,4.11647727 9.36647727,3.91264236 9.40625,3.65909091 L9.80397727,1.27272727 Z M10.5,6.58238636 C8.33984391,6.58238636 6.58238636,8.33984391 6.58238636,10.5 C6.58238636,12.6601561 8.33984391,14.4176136 10.5,14.4176136 C12.6601561,14.4176136 14.4176136,12.6601561 14.4176136,10.5 C14.4176136,8.33984391 12.6601561,6.58238636 10.5,6.58238636 Z M10.5,7.85511364 C11.9715909,7.85511364 13.1448864,9.02840909 13.1448864,10.5 C13.1448864,11.9715909 11.9715909,13.1448864 10.5,13.1448864 C9.02840909,13.1448864 7.85511364,11.9715909 7.85511364,10.5 C7.85511364,9.02840909 9.02840909,7.85511364 10.5,7.85511364 Z" id="Shape"></path>
            </g>
        </g>
    </g>
</svg>