<?xml version="1.0" encoding="UTF-8"?>
<svg width="32px" height="32px" viewBox="0 0 32 32" version="1.1" xmlns="http://www.w3.org/2000/svg" xmlns:xlink="http://www.w3.org/1999/xlink">
    <!-- Generator: Sketch 49.3 (51167) - http://www.bohemiancoding.com/sketch -->
    <title>icon-options</title>
    <desc>Created with Sketch.</desc>
    <defs></defs>
    <g id="Page-1" stroke="none" stroke-width="1" fill="none" fill-rule="evenodd">
        <g id="icon-options" fill="#FFFFFF" fill-rule="nonzero">
            <g id="Group-2" transform="translate(0.000000, 20.571429)">
                <g id="Group">
                    <rect id="Rectangle-path" x="0" y="4.57142857" width="19.4285714" height="2.28571429"></rect>
                    <rect id="Rectangle-path" x="26.2857143" y="4.57142857" width="5.71428571" height="2.28571429"></rect>
                    <path d="M25.1428571,9.10714286 C25.1428571,10.3892143 24.1195,11.4285714 22.8571429,11.4285714 C21.5947857,11.4285714 20.5714286,10.3892143 20.5714286,9.10714286 L20.5714286,2.32142857 C20.5714286,1.03935714 21.5947857,0 22.8571429,0 C24.1195,0 25.1428571,1.03935714 25.1428571,2.32142857 L25.1428571,9.10714286 Z" id="Shape"></path>
                </g>
            </g>
            <g id="Group" transform="translate(0.000000, 10.285714)">
                <rect id="Rectangle-path" x="0" y="4.57142857" width="5.71428571" height="2.28571429"></rect>
                <rect id="Rectangle-path" x="12.5714286" y="4.57142857" width="19.4285714" height="2.28571429"></rect>
                <path d="M11.4285714,9.10714286 C11.4285714,10.3892143 10.4052143,11.4285714 9.14285714,11.4285714 C7.8805,11.4285714 6.85714286,10.3892143 6.85714286,9.10714286 L6.85714286,2.32142857 C6.85714286,1.03935714 7.8805,0 9.14285714,0 C10.4052143,0 11.4285714,1.03935714 11.4285714,2.32142857 L11.4285714,9.10714286 Z" id="Shape"></path>
            </g>
            <g id="Group">
                <rect id="Rectangle-path" x="0" y="4.57142857" width="19.4285714" height="2.28571429"></rect>
                <rect id="Rectangle-path" x="26.2857143" y="4.57142857" width="5.71428571" height="2.28571429"></rect>
                <path d="M25.1428571,9.10714286 C25.1428571,10.3892143 24.1195,11.4285714 22.8571429,11.4285714 C21.5947857,11.4285714 20.5714286,10.3892143 20.5714286,9.10714286 L20.5714286,2.32142857 C20.5714286,1.03935714 21.5947857,0 22.8571429,0 C24.1195,0 25.1428571,1.03935714 25.1428571,2.32142857 L25.1428571,9.10714286 Z" id="Shape"></path>
            </g>
        </g>
    </g>
</svg>