<?xml version="1.0" encoding="UTF-8"?>
<svg width="500px" height="500px" viewBox="0 0 500 500" version="1.1" xmlns="http://www.w3.org/2000/svg" xmlns:xlink="http://www.w3.org/1999/xlink">
    <!-- Generator: Sketch 49.3 (51167) - http://www.bohemiancoding.com/sketch -->
    <title>icon-lock</title>
    <desc>Created with Sketch.</desc>
    <defs></defs>
    <g id="Page-1" stroke="none" stroke-width="1" fill="none" fill-rule="evenodd">
        <g id="icon-lock" fill-rule="nonzero">
            <rect id="Rectangle" fill="#717070" x="0" y="0" width="500" height="500"></rect>
            <g transform="translate(139.000000, 101.000000)" fill="#FFFFFF" id="Shape">
                <path d="M216.805362,111.75 L198.222028,111.75 L198.222028,86.9164724 C198.222028,38.9902734 159.319562,0 111.5,0 C63.6804375,0 24.7779714,38.9902734 24.7779714,86.9164724 L24.7779714,111.75 L6.19463802,111.75 C2.77065885,111.75 0,114.526871 0,117.958528 L0,273.167055 C0,286.862832 11.1122526,298 24.7779714,298 L198.222609,298 C211.887747,298 223,286.862832 223,273.166472 L223,117.958528 C223,114.526871 220.229341,111.75 216.805362,111.75 Z M129.68379,241.067152 C129.876416,242.815148 129.31647,244.569532 128.147411,245.882561 C126.978351,247.19501 125.303141,247.945312 123.549841,247.945312 L98.8688514,247.945312 C97.1155506,247.945312 95.4403419,247.19501 94.2712815,245.882561 C93.1022218,244.570113 92.5416979,242.815729 92.7349023,241.067152 L96.6273339,205.927212 C90.3065434,201.311573 86.528646,194.010062 86.528646,186.000641 C86.528646,172.335495 97.5974049,161.222656 111.209635,161.222656 C124.821866,161.222656 135.890625,172.334915 135.890625,186.000641 C135.890625,194.010062 132.112728,201.311573 125.791937,205.927212 L129.68379,241.067152 Z M161.442708,111.75 L62.1380208,111.75 L62.1380208,86.9164724 C62.1380208,59.5307383 84.412421,37.25 111.790365,37.25 C139.168308,37.25 161.442708,59.5307383 161.442708,86.9164724 L161.442708,111.75 Z"></path>
            </g>
        </g>
    </g>
</svg>