<?xml version="1.0" encoding="UTF-8"?>
<svg width="18px" height="18px" viewBox="0 0 18 18" version="1.1" xmlns="http://www.w3.org/2000/svg" xmlns:xlink="http://www.w3.org/1999/xlink">
    <!-- Generator: Sketch 49.3 (51167) - http://www.bohemiancoding.com/sketch -->
    <title>icons8-move_filled</title>
    <desc>Created with Sketch.</desc>
    <defs></defs>
    <g id="Page-1" stroke="none" stroke-width="1" fill="none" fill-rule="evenodd">
        <g id="Home-Copy" transform="translate(-362.000000, -187.000000)" fill="#999999" fill-rule="nonzero">
            <g id="icons8-move_filled" transform="translate(362.000000, 187.000000)">
                <path d="M9,0.0990769091 L6.37926136,2.69105114 C6.16512805,2.89559659 6.07723732,3.19921895 6.15074564,3.486861 C6.22425436,3.77290473 6.44637805,3.99822464 6.73242177,4.07492918 C7.01846591,4.15163373 7.32368618,4.06693882 7.52982955,3.85440341 L8.18181818,3.20880682 L8.18181818,6.13636364 C8.17702405,6.43199564 8.33203145,6.70525568 8.58771327,6.85387064 C8.84179677,7.00408391 9.15820323,7.00408391 9.41228714,6.85387064 C9.66796895,6.70525568 9.82297595,6.43199564 9.81818182,6.13636364 L9.81818182,3.20880682 L10.4701705,3.85440341 C10.6763138,4.06693882 10.9815341,4.15163373 11.2675782,4.07492918 C11.5536224,3.99822464 11.7757456,3.77290473 11.8492544,3.486861 C11.9227627,3.19921895 11.8348724,2.89559659 11.6207386,2.69105114 L9,0.0990769091 Z M14.7336648,6.13955986 C14.4012784,6.13796155 14.1008523,6.33771327 13.9746093,6.64612936 C13.8467684,6.95294755 13.9202771,7.30770586 14.1567828,7.54101573 L14.8023794,8.19300436 L11.8748225,8.19300436 C11.5791905,8.18821023 11.3059305,8.34321723 11.1573155,8.59889905 C11.0071023,8.85298295 11.0071023,9.16938941 11.1573155,9.42347291 C11.3059305,9.67915473 11.5791905,9.83416214 11.8748225,9.829368 L14.8023794,9.829368 L14.1567828,10.4813566 C13.9442474,10.6875 13.8595525,10.9927203 13.936257,11.2787644 C14.0129615,11.5648081 14.2382815,11.7869318 14.5243252,11.8604405 C14.8119672,11.9339489 15.1155896,11.8460581 15.320135,11.6319248 L17.9121093,9.01118618 L15.320135,6.39044755 C15.166726,6.23064641 14.9557885,6.14115777 14.7336648,6.13955986 Z M3.24076705,6.14115777 C3.02823164,6.14754982 2.826882,6.23703845 2.67826705,6.39044755 L0.0894886364,9.01118618 L2.67826705,11.6319248 C2.99627141,11.953125 3.515625,11.9563212 3.83682518,11.6383169 C4.15802577,11.3203125 4.16122159,10.8025568 3.84321723,10.4813566 L3.19762064,9.829368 L6.12357955,9.829368 C6.41921155,9.83416214 6.6940695,9.67915473 6.84268486,9.42347291 C6.99129982,9.16938941 6.99129982,8.85298295 6.84268486,8.59889905 C6.6940695,8.34321723 6.41921155,8.18821023 6.12357955,8.19300436 L3.19762064,8.19300436 L3.84321723,7.54101573 C4.08291914,7.30451005 4.15323164,6.94495759 4.02059659,6.63494318 C3.88796155,6.32492918 3.57794755,6.12837368 3.24076705,6.14115777 Z M8.98721591,11.0582386 C8.53657691,11.0646307 8.17542614,11.4353693 8.18181818,11.8876066 L8.18181818,14.8135655 L7.52982955,14.1695669 C7.37482255,14.0113636 7.16228714,13.9234729 6.94176136,13.9234729 C6.60777709,13.9266691 6.31054677,14.1296167 6.18590209,14.4396307 C6.06285532,14.7480468 6.13955986,15.1012076 6.37926136,15.3329191 L8.35120759,17.282493 C8.39595191,17.3400214 8.44868618,17.3927557 8.5078125,17.4375 L9,17.9232955 L9.49058959,17.4375 C9.55131382,17.3927557 9.60564641,17.3384235 9.65198864,17.2776989 L11.6207386,15.3329191 C11.8652343,15.0996093 11.9419388,14.7400568 11.8140979,14.4284445 C11.686257,14.1168326 11.3794388,13.915483 11.0406604,13.921875 C10.8265271,13.9250712 10.6203837,14.0145599 10.4701705,14.1695669 L9.81818182,14.8135655 L9.81818182,11.8876066 C9.82137805,11.665483 9.73508523,11.4529475 9.57848032,11.2963422 C9.421875,11.1397373 9.20933959,11.0534445 8.98721591,11.0582386 Z" id="Shape"></path>
            </g>
        </g>
    </g>
</svg>