<?xml version="1.0" encoding="UTF-8"?>
<svg width="30px" height="30px" viewBox="0 0 30 30" version="1.1" xmlns="http://www.w3.org/2000/svg" xmlns:xlink="http://www.w3.org/1999/xlink">
    <!-- Generator: Sketch 49.3 (51167) - http://www.bohemiancoding.com/sketch -->
    <title>Artboard</title>
    <desc>Created with Sketch.</desc>
    <defs></defs>
    <g id="Artboard" stroke="none" stroke-width="1" fill="none" fill-rule="evenodd">
        <g id="icon-lock" fill="#399641" fill-rule="nonzero">
            <rect id="Rectangle" x="0" y="0" width="30" height="30" rx="4"></rect>
        </g>
        <g id="icon" transform="translate(5.000000, 5.000000)" fill="#FFFFFF" fill-rule="nonzero">
            <path d="M13.7772611,15.7820243 L13.7772611,14.7684858 L16.7775166,14.7684858 C16.9003066,14.7684858 17,14.6710369 17,14.5507882 L17,12.4493121 C17,12.3290134 16.9003066,12.2316145 16.7775166,12.2316145 L13.7772611,12.2316145 L13.7772611,11.217676 C13.7772611,11.129527 13.7230966,11.0501279 13.639908,11.0165783 C13.5567706,10.9828787 13.4610629,11.0015285 13.3974451,11.0636778 L11.0650996,13.3459519 C11.0233521,13.3868514 11,13.4423008 11,13.4999501 C11,13.5577495 11.0233521,13.6131989 11.0650996,13.6540484 L13.3974451,15.9362225 C13.4610629,15.9985218 13.5567706,16.0171716 13.639908,15.983322 C13.7231477,15.9495224 13.7772611,15.8702233 13.7772611,15.7820243 Z" id="Shape"></path>
            <path d="M18.4432961,9.76630206 C17.4644286,8.66613203 16.1361814,7.96270993 14.6957049,7.77983429 C14.646192,7.6827992 14.5678547,7.54112703 14.5461435,7.5029809 L14.4883552,7.39903153 C14.7116513,7.0535057 14.8245314,6.69462168 14.8245314,6.33103406 L14.8245314,4.21211316 C14.8245314,3.89908915 14.738895,3.58451295 14.5719459,3.28108427 L14.5541864,3.2462777 C14.618251,3.08263975 14.6495394,2.92836195 14.6495394,2.77643595 C14.6495394,1.91737201 13.8351105,1.19372447 12.2945854,0.683619978 C10.9823776,0.249196274 9.20293544,0 7.41219598,0 C5.62117757,0 3.84127051,0.249196274 2.52929513,0.683667014 C0.988584141,1.19386558 0.174341165,1.91765422 0.174341165,2.77704741 C0.174341165,2.92831491 0.205583101,3.08240457 0.269694159,3.24632473 L0.253189862,3.27760361 C0.0852179613,3.58568885 9.29819545e-05,3.90012394 9.29819545e-05,4.21216019 L9.29819545e-05,6.3310811 C9.29819545e-05,6.69650311 0.113066057,7.05482271 0.336176257,7.39747935 L0.277132715,7.501805 C0.0932609004,7.82465952 0,8.15395795 0,8.48052831 L0,10.5998255 C0,10.9556052 0.107208194,11.3058346 0.318835122,11.6414829 L0.277132715,11.7147178 C0.0932609004,12.0375253 0,12.3664004 0,12.691983 L0,14.8126442 C0,15.7813488 0.777050194,16.6735731 2.18800486,17.3252557 C3.56455621,17.9610402 5.42001111,18.3110814 7.41219598,18.3110814 C8.14368501,18.3110814 8.88219419,18.259389 9.60852273,18.1574151 C10.7594534,19.3461538 12.2936091,20 13.9366467,20 C17.2799989,20 20,17.2482109 20,13.8656701 C20.0000465,12.3503611 19.4471758,10.8944585 18.4432961,9.76630206 Z M2.82855755,1.69724393 C4.03564928,1.29207657 5.66353085,1.06893819 7.41228896,1.06893819 C9.16034971,1.06893819 10.7879988,1.29221767 11.9957879,1.69762022 C13.0983214,2.06774583 13.5917302,2.50649684 13.5917302,2.77709445 C13.5917302,3.04858575 13.0983214,3.48841858 11.9956949,3.85882641 C10.7885102,4.26437006 9.16076812,4.48769658 7.41228896,4.48769658 C5.66339138,4.48769658 4.03546332,4.26437006 2.82860404,3.85882641 C1.72648893,3.48851265 1.23326615,3.04863278 1.23326615,2.77709445 C1.23321966,2.50616758 1.72644244,2.0671814 2.82855755,1.69724393 Z M1.05813464,4.85161345 C2.26001939,5.69289781 4.69735536,6.22642619 7.41228896,6.22642619 C10.1252234,6.22642619 12.5632103,5.69270967 13.7674196,4.85119013 L13.7674196,6.33197478 C13.7674196,6.87782656 13.1218459,7.48035663 12.0404657,7.94361335 C10.8092452,8.47116816 9.16555669,8.76175604 7.41219598,8.76175604 C5.65902123,8.76175604 4.01551869,8.47116816 2.7844841,7.94366038 C1.70342941,7.48040366 1.05804166,6.87792064 1.05804166,6.33197478 L1.05813464,4.85161345 Z M7.41224247,17.2394622 C5.65953263,17.2394622 4.01593711,16.9490625 2.7844841,16.4216958 C1.7034759,15.9588624 1.05808815,15.357226 1.05808815,14.8125501 L1.05808815,13.1220794 C2.35927762,14.145816 4.75044806,14.7726166 7.41224247,14.7726166 C7.59179062,14.7726166 7.76715459,14.763915 7.93726508,14.7546019 C8.06107055,15.6113611 8.367911,16.4396635 8.83133306,17.1709309 C8.35954262,17.2164616 7.88333554,17.2394622 7.41224247,17.2394622 Z M7.93294141,13.0081584 C7.7645046,13.0184122 7.59100028,13.0279605 7.41224247,13.0279605 C5.65930017,13.0279605 4.01575114,12.7375137 2.78453059,12.210053 C1.70352239,11.7469374 1.05808815,11.1449247 1.05808815,10.5997314 L1.05808815,8.90817884 C2.35658115,9.93238587 4.74756562,10.5596568 7.41224247,10.5596568 C7.87798908,10.5596568 8.36107682,10.5345396 8.88126437,10.4831294 C8.38353197,11.2427124 8.05828109,12.1077499 7.93294141,13.0081584 Z M13.9366932,18.5013417 C11.4102341,18.5013417 9.35482146,16.4217428 9.35482146,13.8656701 C9.35482146,11.3096445 11.4102341,9.23018671 13.9366932,9.23018671 C16.4632919,9.23018671 18.5187045,11.3096445 18.5187045,13.8656701 C18.518658,16.4217428 16.4632454,18.5013417 13.9366932,18.5013417 Z" id="Shape"></path>
        </g>
    </g>
</svg>