<?xml version="1.0" encoding="UTF-8"?>
<svg width="30px" height="30px" viewBox="0 0 30 30" version="1.1" xmlns="http://www.w3.org/2000/svg" xmlns:xlink="http://www.w3.org/1999/xlink">
    <!-- Generator: Sketch 49.3 (51167) - http://www.bohemiancoding.com/sketch -->
    <title>Artboard</title>
    <desc>Created with Sketch.</desc>
    <defs></defs>
    <g id="Artboard" stroke="none" stroke-width="1" fill="none" fill-rule="evenodd">
        <g id="icon-lock" fill="#088AFA" fill-rule="nonzero">
            <rect id="Rectangle" x="0" y="0" width="30" height="30" rx="4"></rect>
        </g>
        <g id="dollar-coin-money" transform="translate(5.760000, 6.120000)" fill="#FFFEFE" fill-rule="nonzero">
            <path d="M9.21,0 C4.12381348,0 0,4.12381348 0,9.21 C0,14.2961865 4.12381348,18.42 9.21,18.42 C14.2973018,18.42 18.42,14.2961865 18.42,9.21 C18.42,4.12381348 14.2973018,0 9.21,0 Z M11.7215958,12.7660673 C11.268507,13.2742363 10.6142372,13.5733095 9.75864258,13.6632509 L9.75864258,14.96625 L8.66808504,14.96625 L8.66808504,13.6699785 C7.24139848,13.5238417 6.35882145,12.6941142 6.01819535,11.1830986 L7.70459672,10.743501 C7.86087891,11.6934981 8.37804199,12.167957 9.25608598,12.167957 C9.66643465,12.167957 9.97000488,12.0667909 10.1633789,11.8632715 C10.3567529,11.6597521 10.453422,11.4146797 10.453422,11.1268672 C10.453422,10.8289453 10.356717,10.6029405 10.1633789,10.4500402 C9.97000488,10.2960605 9.53940141,10.1014992 8.87271973,9.86542102 C8.2734941,9.65747648 7.80464754,9.45280582 7.46736727,9.24824309 C7.13008699,9.04587492 6.8557657,8.76144422 6.64551867,8.39603027 C6.43527164,8.02950105 6.32960848,7.60227938 6.32960848,7.11659578 C6.32960848,6.47912707 6.51848543,5.90461734 6.89400879,5.39421785 C7.26953215,4.88493363 7.86087891,4.57348453 8.66812102,4.4599425 L8.66812102,3.45375 L9.75867855,3.45375 L9.75867855,4.45997848 C10.9773846,4.60615125 11.7666384,5.29531828 12.1252528,6.52863082 L10.6232313,7.14472945 C10.3298065,6.29928023 9.87779695,5.87655562 9.26400082,5.87655562 C8.95593352,5.87655562 8.70859465,5.9709941 8.52309949,6.15987105 C8.33645309,6.34874801 8.24316586,6.57809859 8.24316586,6.84680754 C8.24316586,7.12112883 8.33310727,7.33137586 8.51299008,7.47866391 C8.69175762,7.62483668 9.07739039,7.80583477 9.6665066,8.02280941 C10.3140847,8.25892359 10.8222537,8.48262586 11.1898982,8.69287289 C11.5586579,8.90311992 11.8520828,9.19431422 12.0724392,9.56418926 C12.2916804,9.93521555 12.4018046,10.3680855 12.4018046,10.8638786 C12.4018046,11.6249268 12.1746846,12.2590137 11.7215958,12.7660673 Z" id="Shape"></path>
        </g>
    </g>
</svg>