<?xml version="1.0" encoding="UTF-8"?>
<svg width="22px" height="22px" viewBox="0 0 22 22" version="1.1" xmlns="http://www.w3.org/2000/svg" xmlns:xlink="http://www.w3.org/1999/xlink">
    <!-- Generator: Sketch 49.3 (51167) - http://www.bohemiancoding.com/sketch -->
    <title>icons8-qr_code copy 3</title>
    <desc>Created with Sketch.</desc>
    <defs></defs>
    <g id="Page-1" stroke="none" stroke-width="1" fill="none" fill-rule="evenodd">
        <g id="Home-Copy" transform="translate(-325.000000, -334.000000)" fill="#000000" fill-rule="nonzero">
            <g id="icons8-qr_code-copy-3" transform="translate(325.000000, 334.000000)">
                <path d="M1.22222222,0 C0.547555556,0 0,0.547555556 0,1.22222222 L0,6.11111111 C0,6.78577778 0.547555556,7.33333333 1.22222222,7.33333333 L6.11111111,7.33333333 C6.78577778,7.33333333 7.33333333,6.78577778 7.33333333,6.11111111 L7.33333333,1.22222222 C7.33333333,0.547555556 6.78577778,0 6.11111111,0 L1.22222222,0 Z M9.77777778,0 L9.77777778,2.44444444 L12.2222222,2.44444444 L12.2222222,0 L9.77777778,0 Z M15.8888889,0 C15.2142222,0 14.6666667,0.547555556 14.6666667,1.22222222 L14.6666667,6.11111111 C14.6666667,6.78577778 15.2142222,7.33333333 15.8888889,7.33333333 L20.7777778,7.33333333 C21.4524444,7.33333333 22,6.78577778 22,6.11111111 L22,1.22222222 C22,0.547555556 21.4524444,0 20.7777778,0 L15.8888889,0 Z M2.44444444,2.44444444 L4.88888889,2.44444444 L4.88888889,4.88888889 L2.44444444,4.88888889 L2.44444444,2.44444444 Z M17.1111111,2.44444444 L19.5555556,2.44444444 L19.5555556,4.88888889 L17.1111111,4.88888889 L17.1111111,2.44444444 Z M9.77777778,4.88888889 L9.77777778,7.33333333 L12.2222222,7.33333333 L12.2222222,4.88888889 L9.77777778,4.88888889 Z M0,9.77777778 L0,12.2222222 L2.44444444,12.2222222 L2.44444444,9.77777778 L0,9.77777778 Z M4.88888889,9.77777778 L4.88888889,12.2222222 L7.33333333,12.2222222 L7.33333333,9.77777778 L4.88888889,9.77777778 Z M9.77777778,9.77777778 L9.77777778,12.2222222 L12.2222222,12.2222222 L12.2222222,9.77777778 L9.77777778,9.77777778 Z M12.2222222,12.2222222 L12.2222222,14.6666667 L14.6666667,14.6666667 L14.6666667,12.2222222 L12.2222222,12.2222222 Z M14.6666667,12.2222222 L17.1111111,12.2222222 L17.1111111,9.77777778 L14.6666667,9.77777778 L14.6666667,12.2222222 Z M17.1111111,12.2222222 L17.1111111,14.6666667 L19.5555556,14.6666667 L19.5555556,12.2222222 L17.1111111,12.2222222 Z M19.5555556,12.2222222 L22,12.2222222 L22,9.77777778 L19.5555556,9.77777778 L19.5555556,12.2222222 Z M19.5555556,14.6666667 L19.5555556,17.1111111 L22,17.1111111 L22,14.6666667 L19.5555556,14.6666667 Z M19.5555556,17.1111111 L17.1111111,17.1111111 L17.1111111,19.5555556 L19.5555556,19.5555556 L19.5555556,17.1111111 Z M19.5555556,19.5555556 L19.5555556,22 L22,22 L22,19.5555556 L19.5555556,19.5555556 Z M17.1111111,19.5555556 L14.6666667,19.5555556 L14.6666667,22 L17.1111111,22 L17.1111111,19.5555556 Z M14.6666667,19.5555556 L14.6666667,17.1111111 L12.2222222,17.1111111 L12.2222222,19.5555556 L14.6666667,19.5555556 Z M12.2222222,19.5555556 L9.77777778,19.5555556 L9.77777778,22 L12.2222222,22 L12.2222222,19.5555556 Z M12.2222222,17.1111111 L12.2222222,14.6666667 L9.77777778,14.6666667 L9.77777778,17.1111111 L12.2222222,17.1111111 Z M14.6666667,17.1111111 L17.1111111,17.1111111 L17.1111111,14.6666667 L14.6666667,14.6666667 L14.6666667,17.1111111 Z M1.22222222,14.6666667 C0.547555556,14.6666667 0,15.2142222 0,15.8888889 L0,20.7777778 C0,21.4524444 0.547555556,22 1.22222222,22 L6.11111111,22 C6.78577778,22 7.33333333,21.4524444 7.33333333,20.7777778 L7.33333333,15.8888889 C7.33333333,15.2142222 6.78577778,14.6666667 6.11111111,14.6666667 L1.22222222,14.6666667 Z M2.44444444,17.1111111 L4.88888889,17.1111111 L4.88888889,19.5555556 L2.44444444,19.5555556 L2.44444444,17.1111111 Z" id="Shape"></path>
            </g>
        </g>
    </g>
</svg>