<?xml version="1.0" encoding="UTF-8"?>
<svg width="14px" height="14px" viewBox="0 0 14 14" version="1.1" xmlns="http://www.w3.org/2000/svg" xmlns:xlink="http://www.w3.org/1999/xlink">
    <!-- Generator: Sketch 49.3 (51167) - http://www.bohemiancoding.com/sketch -->
    <title>need-backup</title>
    <desc>Created with Sketch.</desc>
    <defs></defs>
    <g id="Page-1" stroke="none" stroke-width="1" fill="none" fill-rule="evenodd">
        <g id="need-backup" fill-rule="nonzero">
            <path d="M14,7 C14,10.86575 10.86575,14 7,14 C3.13425,14 0,10.86575 0,7 C0,3.13425 3.13425,0 7,0 C10.86575,0 14,3.13425 14,7 Z" id="Shape" fill="#F5A623"></path>
            <polygon id="Shape" fill="#FFFFFF" points="6.3 5.95 7.7 5.95 7.7 10.85 6.3 10.85"></polygon>
            <path d="M7.7,3.85 C7.7,4.23675 7.38675,4.55 7,4.55 C6.61325,4.55 6.3,4.23675 6.3,3.85 C6.3,3.46325 6.61325,3.15 7,3.15 C7.38675,3.15 7.7,3.46325 7.7,3.85 Z" id="Shape" fill="#FFFFFF"></path>
        </g>
    </g>
</svg>