<?xml version="1.0" encoding="UTF-8"?>
<svg width="42px" height="26px" viewBox="0 0 42 26" version="1.1" xmlns="http://www.w3.org/2000/svg" xmlns:xlink="http://www.w3.org/1999/xlink">
    <!-- Generator: Sketch 51.2 (57519) - http://www.bohemiancoding.com/sketch -->
    <title>Group 8</title>
    <desc>Created with Sketch.</desc>
    <defs></defs>
    <g id="Page-1" stroke="none" stroke-width="1" fill="none" fill-rule="evenodd">
        <g id="payment-method-copy" transform="translate(-38.000000, -411.000000)" fill="#F7941D" fill-rule="nonzero">
            <g id="Group-8" transform="translate(38.000000, 411.000000)">
                <g id="download-(5)">
                    <path d="M21.0307137,1.93414315e-05 C19.9636916,-0.00183780004 18.8790925,0.130019245 17.7974537,0.406919039 L17.7974537,0.406361896 C10.8757797,2.18011772 6.69798238,9.24394104 8.46660793,16.1840787 C10.2354185,23.1242164 17.2805022,27.312999 24.2025463,25.5394289 C31.1245903,23.7662302 35.3020176,16.7024069 33.5335771,9.76226922 C32.0410044,3.90670215 26.7924846,0.0096764771 21.0307137,1.93414315e-05 Z M0,0.0594478687 L0,26 L11.9396564,26 C7.86917181,23.1361021 5.208,18.3944485 5.208,13.0297239 C5.208,7.66518507 7.86898678,2.92353145 11.9396564,0.0594478687 L0,0.0594478687 Z M30.0603436,0.0594478687 C34.1308282,2.92353145 36.792,7.66518507 36.792,13.0297239 C36.792,18.3944485 34.1310132,23.1361021 30.0603436,26 L42,26 L42,0.0594478687 L30.0603436,0.0594478687 Z M20.655304,4.33774469 L21.2964053,6.85324281 C22.4675947,6.62945727 23.3821586,6.63001441 24.2728546,6.99327128 C25.4244317,7.46238522 25.6912335,8.72189857 25.74563,9.02461263 C25.7994714,9.32732669 25.8153833,9.93349767 25.6492335,10.3691831 C25.4834537,10.8056113 24.9417093,11.3384252 24.9417093,11.3384252 C24.9417093,11.3384252 25.7334185,11.3051824 26.3632335,11.5687107 C26.9917533,11.8324248 27.5619912,12.4348815 27.8023348,13.4696807 C28.0434185,14.5039228 28.0935595,15.5795792 27.3279383,16.4706357 C26.5806344,17.3395922 25.6418326,17.7147347 25.2005551,17.8911632 L25.1674361,17.9041632 C24.9572511,17.9886631 24.5923877,18.1145773 24.1984758,18.2403058 L24.8403172,20.7595182 L23.2937181,21.1560179 L22.6618678,18.6774769 L21.4838326,18.9792624 L22.1154978,21.4578034 L20.5688987,21.8543031 L19.9372335,19.3753906 L16.8941762,20.1548329 L16.7376476,18.2105915 L17.6627577,17.973806 C17.9735947,17.8937632 18.0960793,17.8319204 18.194696,17.6757348 C18.2933128,17.518992 18.2742555,17.3230636 18.2354009,17.1704066 L16.6003612,10.7534256 C16.497859,10.3513545 16.4375419,10.2510689 16.2007137,10.0917261 C15.9635154,9.93219767 15.522978,10.015769 15.2787489,10.0789118 L14.3847225,10.307526 L13.9741586,8.69701287 L17.0174009,7.91757059 L16.3833304,5.43215816 L17.9301145,5.03602988 L18.5634449,7.52181375 L19.7414802,7.22002826 L19.1079648,4.73424439 L20.655304,4.33774469 Z M21.3335947,8.80361279 C20.7850044,8.80138422 20.4029339,8.88662702 19.9773833,8.98895551 C19.4913304,9.10595542 19.0106432,9.27551244 19.0106432,9.27551244 L19.7731189,12.2684816 C19.7731189,12.2684816 20.5017357,12.1048675 21.0599471,11.9386533 C21.6183436,11.7722534 22.1852511,11.4888537 22.5575154,11.1385968 C22.9303348,10.7881542 23.0800176,10.3481974 22.9218238,9.78659778 C22.7627048,9.22499819 22.2655507,8.84316991 21.579674,8.81011279 C21.4977031,8.80618574 21.4156579,8.80401858 21.3335947,8.80361279 Z M22.9851013,13.2611238 C22.6264828,13.2638386 22.2688033,13.2983297 21.9162291,13.3641951 C21.1367313,13.509795 20.1666608,13.8121376 20.1666608,13.8121376 L21.0144317,17.138278 C21.0144317,17.138278 22.0466696,16.8975925 22.7201498,16.6706498 C23.393815,16.4440785 24.057674,16.0888074 24.3622203,15.8022504 C24.6662115,15.5158792 25.015163,15.1019224 24.8212599,14.3412372 C24.6273568,13.5801807 24.0402819,13.3911237 23.7142731,13.3201809 C23.5512687,13.2847095 23.2964934,13.2592666 22.9851013,13.2611238 Z" id="Shape"></path>
                </g>
            </g>
        </g>
    </g>
</svg>