<?xml version="1.0" encoding="UTF-8"?>
<svg width="28px" height="39px" viewBox="0 0 28 39" version="1.1" xmlns="http://www.w3.org/2000/svg" xmlns:xlink="http://www.w3.org/1999/xlink">
    <!-- Generator: Sketch 51.2 (57519) - http://www.bohemiancoding.com/sketch -->
    <title>Group 6</title>
    <desc>Created with Sketch.</desc>
    <defs></defs>
    <g id="Page-1" stroke="none" stroke-width="1" fill="none" fill-rule="evenodd">
        <g id="payment-method-copy" transform="translate(-47.000000, -210.000000)" fill="#F7AC31" fill-rule="nonzero">
            <g id="Group-6" transform="translate(41.000000, 207.000000)">
                <g id="download-(7)" transform="translate(18.673240, 22.520464) rotate(-11.000000) translate(-18.673240, -22.520464) translate(3.538105, 2.520464)">
                    <path d="M28.733362,27.901996 C30.0036674,21.5434525 25.6990311,19.3734127 25.6990311,19.3734127 C25.6990311,19.3734127 29.2201888,18.9546259 30.0206555,14.9478723 C30.8211222,10.9411186 28.0159397,8.24111622 24.9721683,7.66545613 C24.8826458,7.64852701 24.7036008,7.61466133 24.6140775,7.5977322 L25.6581648,2.37153079 L22.0772568,1.69428377 L21.0331703,6.92048414 C19.8693747,6.70037885 18.7055798,6.48027362 17.4522624,6.24323712 L18.4963489,1.01703675 L14.915441,0.339789775 L13.8713544,5.5659901 C12.8866053,5.37974729 5.81431271,4.04218438 5.81431271,4.04218438 L4.94424023,8.39735134 L8.52514741,9.07459881 L4.87084346,27.3663001 L1.28993582,26.6890526 L0.419863266,31.0442204 L8.47690553,32.5680259 L7.43281825,37.794226 L11.0137262,38.4714728 L12.0578127,33.2452734 L15.6387206,33.9225201 L14.5946341,39.1487202 L18.1755421,39.8259669 L19.2370302,34.5126636 C21.8505892,34.9165645 27.497859,34.0863339 28.733362,27.901996 Z M12.9117595,9.90422623 L22.3116418,11.6819991 C22.9383009,11.8005178 25.2285723,11.962487 24.5325139,15.4466209 C23.8886603,18.6694438 21.004018,17.7623017 21.004018,17.7623017 L11.6936581,16.0014595 L12.9117595,9.90422623 Z M19.3684885,29.2042546 L9.43146953,27.3248944 L10.6495709,21.2276604 L20.5865898,23.1070206 C21.3027714,23.2424699 23.7173686,23.2471641 22.9865076,26.9055044 C22.3799725,30.4065689 19.3684885,29.2042546 19.3684885,29.2042546 Z" id="Shape"></path>
                </g>
            </g>
        </g>
    </g>
</svg>