<?xml version="1.0" encoding="UTF-8"?>
<svg width="40px" height="39px" viewBox="0 0 40 39" version="1.1" xmlns="http://www.w3.org/2000/svg" xmlns:xlink="http://www.w3.org/1999/xlink">
    <!-- Generator: Sketch 51.2 (57519) - http://www.bohemiancoding.com/sketch -->
    <title>Group</title>
    <desc>Created with Sketch.</desc>
    <defs>
        <linearGradient x1="23.2429405%" y1="9.50670562%" x2="83.1758428%" y2="100.207313%" id="linearGradient-1">
            <stop stop-color="#F1D200" offset="0.5128205%"></stop>
            <stop stop-color="#D27D00" offset="100%"></stop>
        </linearGradient>
    </defs>
    <g id="Page-1" stroke="none" stroke-width="1" fill="none" fill-rule="evenodd">
        <g id="payment-method-copy" transform="translate(-41.000000, -116.000000)">
            <g id="Group" transform="translate(41.000000, 116.000000)">
                <g id="download-(3)">
                    <g>
                        <ellipse id="Oval" fill="#FFFFFF" fill-rule="nonzero" cx="20" cy="19.4594595" rx="17.8378378" ry="17.2972973"></ellipse>
                        <path d="M20,0 C8.95686296,0 0,8.71478559 0,19.4594595 C0,30.2041333 8.95686296,38.9189189 20,38.9189189 C31.043137,38.9189189 40,30.2041333 40,19.4594595 C40,8.71478559 31.043137,0 20,0 Z M20,34.4394277 C11.4980393,34.4394277 4.60392156,27.7316375 4.60392156,19.4594595 C4.60392156,11.1872814 11.4980393,4.47949124 20,4.47949124 C28.5019607,4.47949124 35.3960785,11.1872814 35.3960785,19.4594595 C35.3960785,27.7316375 28.5019607,34.4394277 20,34.4394277 Z" id="Shape" fill="url(#linearGradient-1)" fill-rule="nonzero"></path>
                        <g id="Group" transform="translate(5.405405, 5.405405)" fill="#132365" fill-rule="nonzero">
                            <path d="M7.08520265,20.2019924 L7.86537104,18.6860696 L17.2353525,18.6860696 C18.5250186,18.6860696 19.5758577,17.6651419 19.5758577,16.4121853 C19.5758577,15.1592286 18.5250186,14.138301 17.2353525,14.138301 L9.4257078,14.138301 L9.4257078,12.6223781 L17.2353525,12.6223781 C19.3927569,12.6223781 21.1361944,14.3239242 21.1361944,16.4121853 C21.1361944,18.5081806 19.384796,20.2019924 17.2353525,20.2019924 L7.08520265,20.2019924 Z" id="Shape"></path>
                            <path d="M17.2353525,20.6196446 L6.38464329,20.6196446 L7.60266127,18.260683 L17.2433134,18.260683 C18.2941525,18.260683 19.1539299,17.4253786 19.1539299,16.404451 C19.1539299,15.3835233 18.2941525,14.5482189 17.2433134,14.5482189 L8.9958191,14.5482189 L8.9958191,12.1892573 L17.2353525,12.1892573 C19.6236231,12.1892573 21.574044,14.0764266 21.574044,16.404451 C21.574044,18.7324754 19.6236231,20.6196446 17.2353525,20.6196446 Z M7.78576202,19.7766059 L17.2353525,19.7766059 C19.145969,19.7766059 20.7063057,18.260683 20.7063057,16.404451 C20.7063057,14.5482189 19.145969,13.032296 17.2353525,13.032296 L9.8635574,13.032296 L9.8635574,13.7051802 L17.2353525,13.7051802 C18.7638457,13.7051802 20.0137073,14.911731 20.0137073,16.404451 C20.0137073,17.8894366 18.7718066,19.1037218 17.2353525,19.1037218 L8.1360417,19.1037218 L7.78576202,19.7766059 Z" id="Shape"></path>
                            <path d="M7.08520265,6.46587506 L7.86537104,7.98179792 L16.1924744,7.98179792 C17.4821405,7.98179792 18.5329795,9.00272556 18.5329795,10.2556822 C18.5329795,11.5086389 17.4821405,12.5295665 16.1924744,12.5295665 L10.2058762,12.5295665 L10.2058762,14.0454894 L16.1924744,14.0454894 C18.3498788,14.0454894 20.0933163,12.3439433 20.0933163,10.2556822 C20.0933163,8.15968683 18.3419179,6.46587506 16.1924744,6.46587506 L7.08520265,6.46587506 Z" id="Shape"></path>
                            <path d="M16.1924744,14.4708759 L9.77598748,14.4708759 L9.77598748,12.1119143 L16.1924744,12.1119143 C17.2433134,12.1119143 18.1030908,11.2766099 18.1030908,10.2556822 C18.1030908,9.23475457 17.2433134,8.39945014 16.1924744,8.39945014 L7.59470037,8.39945014 L6.37668239,6.04048854 L16.1845135,6.04048854 C18.572784,6.04048854 20.523205,7.92765782 20.523205,10.2556822 C20.5311659,12.5759723 18.5887058,14.4708759 16.1924744,14.4708759 Z M10.6437258,13.6278371 L16.1924744,13.6278371 C18.1030908,13.6278371 19.6634276,12.1119143 19.6634276,10.2556822 C19.6634276,8.39945014 18.1110517,6.88352728 16.1924744,6.88352728 L7.78576202,6.88352728 L8.1360417,7.5564114 L16.1924744,7.5564114 C17.7209675,7.5564114 18.9708291,8.76296225 18.9708291,10.2556822 C18.9708291,11.7484022 17.7289284,12.954953 16.1924744,12.954953 L10.6437258,12.954953 L10.6437258,13.6278371 Z" id="Shape"></path>
                            <polygon id="Shape" points="9.4257078 6.54321806 10.9860446 6.54321806 10.9860446 20.1942581 9.4257078 20.1942581"></polygon>
                            <path d="M11.4238942,20.6196446 L8.9958191,20.6196446 L8.9958191,6.12556585 L11.4238942,6.12556585 L11.4238942,20.6196446 Z M9.8635574,19.7766059 L10.5561559,19.7766059 L10.5561559,6.96860458 L9.8635574,6.96860458 L9.8635574,19.7766059 Z" id="Shape"></path>
                            <polygon id="Shape" points="11.3363242 4.18425647 12.896661 4.18425647 12.896661 7.21610219 11.3363242 7.21610219"></polygon>
                            <path d="M13.1116054,7.4326626 L11.113419,7.4326626 L11.113419,3.97543036 L13.1116054,3.97543036 L13.1116054,7.4326626 Z M11.5512686,7.00727608 L12.6817167,7.00727608 L12.6817167,4.39308258 L11.5512686,4.39308258 L11.5512686,7.00727608 Z" id="Shape"></path>
                            <polygon id="Shape" points="14.7197075 4.18425647 16.2800443 4.18425647 16.2800443 7.21610219 14.7197075 7.21610219"></polygon>
                            <path d="M16.4949886,7.4326626 L14.4968023,7.4326626 L14.4968023,3.97543036 L16.4949886,3.97543036 L16.4949886,7.4326626 Z M14.9346519,7.00727608 L16.0650999,7.00727608 L16.0650999,4.39308258 L14.9346519,4.39308258 L14.9346519,7.00727608 Z" id="Shape"></path>
                            <polygon id="Shape" points="11.3363242 19.3589537 12.896661 19.3589537 12.896661 22.3907994 11.3363242 22.3907994"></polygon>
                            <path d="M13.1116054,22.5996255 L11.113419,22.5996255 L11.113419,19.1423933 L13.1116054,19.1423933 L13.1116054,22.5996255 Z M11.5512686,22.1819733 L12.6817167,22.1819733 L12.6817167,19.5677798 L11.5512686,19.5677798 L11.5512686,22.1819733 Z" id="Shape"></path>
                            <polygon id="Shape" points="14.7197075 19.3589537 16.2800443 19.3589537 16.2800443 22.3907994 14.7197075 22.3907994"></polygon>
                            <path d="M16.4949886,22.5996255 L14.4968023,22.5996255 L14.4968023,19.1423933 L16.4949886,19.1423933 L16.4949886,22.5996255 Z M14.9346519,22.1819733 L16.0650999,22.1819733 L16.0650999,19.5677798 L14.9346519,19.5677798 L14.9346519,22.1819733 Z" id="Shape"></path>
                            <path d="M13.8519692,26.8998965 C6.22542525,26.8998965 0.0159218037,20.8748765 0.0159218037,13.4576825 C0.0159218037,6.04822284 6.21746435,0.0154686006 13.8519692,0.0154686006 C21.4785132,0.0154686006 27.6880167,6.04048854 27.6880167,13.4576825 C27.6880167,20.8671422 21.4785132,26.8998965 13.8519692,26.8998965 Z M13.8519692,1.36123685 C6.98967183,1.36123685 1.40111873,6.79071567 1.40111873,13.4576825 C1.40111873,20.1246494 6.98967183,25.5541282 13.8519692,25.5541282 C20.7142666,25.5541282 26.3028197,20.1246494 26.3028197,13.4576825 C26.3028197,6.79071567 20.7142666,1.36123685 13.8519692,1.36123685 Z" id="Shape"></path>
                        </g>
                    </g>
                </g>
            </g>
        </g>
    </g>
</svg>