<?xml version="1.0" encoding="UTF-8"?>
<svg width="41px" height="23px" viewBox="0 0 41 23" version="1.1" xmlns="http://www.w3.org/2000/svg" xmlns:xlink="http://www.w3.org/1999/xlink">
    <!-- Generator: Sketch 51.2 (57519) - http://www.bohemiancoding.com/sketch -->
    <title>download (4)</title>
    <desc>Created with Sketch.</desc>
    <defs></defs>
    <g id="Page-1" stroke="none" stroke-width="1" fill="none" fill-rule="evenodd">
        <g id="payment-method-copy" transform="translate(-40.000000, -506.000000)" fill="#1E75BB" fill-rule="nonzero">
            <g id="download-(4)" transform="translate(40.000000, 506.000000)">
                <path d="M40.9446792,3.64334724 C41.0787773,4.43124193 40.9670318,5.24043092 40.6317831,5.964442 L36.9440799,17.0162598 C36.6088343,17.7828602 36.2065393,18.506872 35.714846,19.2095888 C35.1337531,19.9123056 34.4632611,20.551138 33.7257204,21.104794 C32.9658302,21.7010386 32.071842,22.1269274 31.2896022,22.5528162 C30.5087572,22.8280238 29.6857513,22.9790985 28.8534832,23 L0.916338298,23 L2.90546307,17.3143828 L28.0935923,17.3143828 L32.071842,5.687614 L6.88371224,5.687614 L8.87283724,0.00199680835 L36.675883,0.00199680835 C37.4134236,-0.01930038 38.1509643,0.1297633 38.8214563,0.44917989 C39.4695979,0.683419302 40.0283406,1.15189668 40.3412366,1.74814127 C40.6988318,2.32309157 40.8999801,2.98321904 40.9446792,3.64334724 Z M16.8069863,8.86048706 L14.9743091,14.1202155 L0,14.1202155 L1.9891247,8.86048706 L16.8069863,8.86048706 Z" id="Shape"></path>
            </g>
        </g>
    </g>
</svg>