<?xml version="1.0" encoding="UTF-8"?>
<svg width="40px" height="40px" viewBox="0 0 40 40" version="1.1" xmlns="http://www.w3.org/2000/svg" xmlns:xlink="http://www.w3.org/1999/xlink">
    <!-- Generator: Sketch 51.2 (57519) - http://www.bohemiancoding.com/sketch -->
    <title>Group 7</title>
    <desc>Created with Sketch.</desc>
    <defs></defs>
    <g id="Page-1" stroke="none" stroke-width="1" fill="none" fill-rule="evenodd">
        <g id="payment-method-copy" transform="translate(-40.000000, -306.000000)" fill-rule="nonzero">
            <g id="Group-7" transform="translate(40.000000, 306.000000)">
                <g id="download-(6)">
                    <path d="M39.8549062,20.3044254 C39.8549062,31.1875294 31.0325743,40.0100475 20.149524,40.0100475 C9.26635402,40.0100475 0.44390243,31.1875294 0.44390243,20.3044254 C0.44390243,9.42144052 9.26635402,0.599042077 20.149524,0.599042077 C31.0324546,0.599042077 39.8549062,9.42144052 39.8549062,20.3044254" id="Shape" fill="#BEBEBE"></path>
                    <path d="M35.6712263,20.3046648 C35.6712263,28.8765365 28.7219266,35.8263926 20.149524,35.8263926 C11.5772411,35.8263926 4.62746258,28.8765365 4.62746258,20.3046648 C4.62746258,11.7320744 11.5772411,4.78269704 20.149524,4.78269704 C28.7220463,4.78269704 35.6712263,11.7319547 35.6712263,20.3046648" id="Shape" fill="#BEBEBE"></path>
                    <polygon id="Shape" fill="#FFFFFF" points="18.9977913 25.5685865 20.2777202 20.7491003 23.3079916 19.6420214 24.0617296 16.8096276 24.0359941 16.7393654 21.0531233 17.8290883 23.2022985 9.73660313 17.1071632 9.73660313 14.2965371 20.297483 11.9498606 21.154754 11.174458 24.074766 13.5193391 23.2182132 11.8628402 29.4422252 28.0844156 29.4422252 29.1243506 25.5685865"></polygon>
                </g>
            </g>
        </g>
    </g>
</svg>