<?xml version="1.0" encoding="UTF-8"?>
<svg width="60px" height="55px" viewBox="0 0 60 55" version="1.1" xmlns="http://www.w3.org/2000/svg" xmlns:xlink="http://www.w3.org/1999/xlink">
    <!-- Generator: Sketch 50.2 (55047) - http://www.bohemiancoding.com/sketch -->
    <title>Group 7</title>
    <desc>Created with Sketch.</desc>
    <defs>
        <polygon id="path-1" points="0 54.9069374 60 54.9069374 60 0.0787309645 0 0.0787309645"></polygon>
    </defs>
    <g id="Page-1" stroke="none" stroke-width="1" fill="none" fill-rule="evenodd">
        <g id="5" transform="translate(-78.000000, -2036.000000)">
            <g id="Group-10" transform="translate(61.000000, 1750.000000)">
                <g id="Group-8" transform="translate(0.000000, 136.000000)">
                    <g id="Group-7" transform="translate(17.000000, 150.000000)">
                        <g id="Group-136">
                            <polygon id="Fill-1" fill="#748035" points="44.0364 44.848824 45.5757231 44.848824 45.5757231 27.3503553 44.0364 27.3503553"></polygon>
                            <g id="Group-135" transform="translate(0.000000, 0.014332)">
                                <path d="M34.0628862,23.9558968 C36.86664,30.0689002 43.9291938,30.2415313 44.7488862,27.3359306 C45.5814092,24.8195178 39.7511631,21.320643 34.0628862,23.9558968" id="Fill-2" fill="#B3D234"></path>
                                <path d="M50.0720585,24.6720415 C53.8698738,23.9229805 56.0019046,23.7886912 58.4238738,22.957456 C46.9616585,17.2022783 44.10612,25.3867623 44.7488585,27.3359585 C44.7488585,27.3359585 46.2744277,25.4206371 50.0720585,24.6720415" id="Fill-4" fill="#A6BA39"></path>
                                <path d="M58.4238277,22.9574746 C56.0019508,23.7887098 53.8698277,23.9229992 50.0720123,24.6720601 C46.4937046,25.3768232 44.7402277,26.90761 44.7488123,27.3359772 C46.55952,31.9977623 56.9112738,29.3191413 58.4238277,22.9574746" id="Fill-6" fill="#8AA53D"></path>
                                <polygon id="Fill-8" fill="#BF5A27" points="44.7088338 42.8147453 44.7088338 54.9069281 38.2019723 54.9069281 35.2799723 42.8147453"></polygon>
                                <polygon id="Fill-10" fill="#994722" points="54.0677908 42.8147453 51.1458831 54.9069281 44.7088062 54.9069281 44.7088062 42.8147453"></polygon>
                                <mask id="mask-2" fill="white">
                                    <use xlink:href="#path-1"></use>
                                </mask>
                                <g id="Clip-13"></g>
                                <polygon id="Fill-12" fill="#F89F39" mask="url(#mask-2)" points="34.1809846 42.8147547 55.2366462 42.8147547 55.2366462 40.3957783 34.1809846 40.3957783"></polygon>
                                <polygon id="Fill-14" fill="#773618" mask="url(#mask-2)" points="54.0677908 42.8147453 53.6172369 44.8300161 35.7312369 44.8300161 35.2799446 42.8147453"></polygon>
                                <polygon id="Fill-15" fill="#E32B26" mask="url(#mask-2)" points="1.24164923 39.7361878 1.84615385e-05 38.6951895 11.4067569 24.8705533 20.4199569 34.3175245 35.6025415 7.9564247 44.0540492 17.0458494 51.0144185 10.014132 52.1580185 11.1649442 44.01768 19.3887936 35.9098338 10.6678968 20.7409108 37.0033113 11.4947262 27.3107479"></polygon>
                                <path d="M35.3091323,15.7903325 C35.3091323,18.5464746 33.0917169,20.7820245 30.3564554,20.7820245 C27.6216554,20.7820245 25.4045169,18.5464746 25.4045169,15.7903325 C25.4045169,13.0278621 27.6267323,10.7974306 30.3564554,10.7974306 C33.08664,10.7974306 35.3091323,13.0286066 35.3091323,15.7903325" id="Fill-16" fill="#FAA819" mask="url(#mask-2)"></path>
                                <path d="M30.6899631,10.8091658 L30.6899631,11.6774399 L30.0235938,11.6774399 L30.0235938,10.8091658 C30.2423631,10.7933452 30.4701785,10.7933452 30.6899631,10.8091658" id="Fill-17" fill="#F58A1F" mask="url(#mask-2)"></path>
                                <path d="M29.1479077,10.9494391 L29.4132923,11.7752766 L28.7794154,11.9829924 L28.5121846,11.1571548 C28.7167385,11.074143 28.9325538,11.0026709 29.1479077,10.9494391" id="Fill-18" fill="#F58A1F" mask="url(#mask-2)"></path>
                                <path d="M27.7222338,11.5623029 L28.2298338,12.265577 L27.6898338,12.6615584 L27.1831569,11.957819 C27.3516185,11.8150609 27.5350338,11.6811438 27.7222338,11.5623029" id="Fill-19" fill="#F58A1F" mask="url(#mask-2)"></path>
                                <path d="M26.5558615,12.5901701 L27.2528769,13.1004323 L26.8607538,13.6447555 L26.1636462,13.1348655 C26.2806923,12.9459484 26.4138,12.7614052 26.5558615,12.5901701" id="Fill-20" fill="#F58A1F" mask="url(#mask-2)"></path>
                                <path d="M25.7615077,13.9309882 L26.5803692,14.1989154 L26.3743385,14.839 L25.5552923,14.5697699 C25.6084615,14.3554467 25.6779692,14.1390761 25.7615077,13.9309882" id="Fill-21" fill="#F58A1F" mask="url(#mask-2)"></path>
                                <path d="M25.4163877,15.453846 L26.2783569,15.453846 L26.2783569,16.1270609 L25.4163877,16.1270609 C25.4009723,15.905665 25.4009723,15.6769171 25.4163877,15.453846" id="Fill-22" fill="#F58A1F" mask="url(#mask-2)"></path>
                                <path d="M25.5552554,17.0093689 L26.3743015,16.7402318 L26.5803323,17.381154 L25.7614708,17.6494535 C25.6784862,17.4429475 25.6088862,17.2266701 25.5552554,17.0093689" id="Fill-23" fill="#F58A1F" mask="url(#mask-2)"></path>
                                <path d="M26.1628338,18.445297 L26.8607723,17.9347555 L27.2520646,18.4786134 L26.5554185,18.9895271 C26.4141877,18.8201531 26.2806185,18.6346794 26.1628338,18.445297" id="Fill-24" fill="#F58A1F" mask="url(#mask-2)"></path>
                                <path d="M27.1825846,19.6220364 L27.6891692,18.9187623 L28.2294462,19.3145575 L27.7222154,20.016808 C27.5354769,19.8997352 27.3526154,19.7650736 27.1825846,19.6220364" id="Fill-25" fill="#F58A1F" mask="url(#mask-2)"></path>
                                <path d="M28.5121662,20.4236963 L28.7789354,19.5976726 L29.4129046,19.8053883 L29.1467815,20.6310398 C28.9336431,20.5765051 28.7178277,20.5074526 28.5121662,20.4236963" id="Fill-26" fill="#F58A1F" mask="url(#mask-2)"></path>
                                <path d="M30.0228923,20.7713223 L30.0228923,19.9016523 L30.69,19.9016523 L30.69,20.7713223 C30.4706769,20.787143 30.2444308,20.787143 30.0228923,20.7713223" id="Fill-27" fill="#F58A1F" mask="url(#mask-2)"></path>
                                <path d="M31.5661662,20.6310025 L31.2993969,19.8054442 L31.9341046,19.5976354 L32.2001354,20.4236591 C31.9961354,20.5057403 31.7810585,20.5764679 31.5661662,20.6310025" id="Fill-28" fill="#F58A1F" mask="url(#mask-2)"></path>
                                <path d="M32.9900862,20.0181853 L32.4841477,19.3145389 L33.0237785,18.9197673 L33.5297169,19.6230415 C33.3619938,19.765055 33.17784,19.8997166 32.9900862,20.0181853" id="Fill-29" fill="#F58A1F" mask="url(#mask-2)"></path>
                                <path d="M34.1580831,18.9895457 L33.4597754,18.4799349 L33.8521754,17.9361701 L34.5493754,18.4460601 C34.4324215,18.6331159 34.2997754,18.8194272 34.1580831,18.9895457" id="Fill-30" fill="#F58A1F" mask="url(#mask-2)"></path>
                                <path d="M34.95216,17.6495 L34.13256,17.3812005 L34.3392369,16.7418604 L35.1583754,17.0094154 C35.1052062,17.2255068 35.0354215,17.4417843 34.95216,17.6495" id="Fill-31" fill="#F58A1F" mask="url(#mask-2)"></path>
                                <path d="M35.2975938,16.1270516 L34.4352554,16.1270516 L34.4352554,15.4538367 L35.29704,15.4538367 C35.3123631,15.6751396 35.3123631,15.9039805 35.2975938,16.1270516" id="Fill-32" fill="#F58A1F" mask="url(#mask-2)"></path>
                                <path d="M35.1584123,14.5705237 L34.3392738,14.8398469 L34.1325969,14.1996692 L34.9521969,13.9309975 C35.0341662,14.1365728 35.1052431,14.3542462 35.1584123,14.5705237" id="Fill-33" fill="#F58A1F" mask="url(#mask-2)"></path>
                                <path d="M34.5500308,13.134819 L33.8520923,13.6455465 L33.4608,13.1004788 L34.1580923,12.5901235 C34.2987692,12.7606142 34.4324308,12.9444129 34.5500308,13.134819" id="Fill-34" fill="#F58A1F" mask="url(#mask-2)"></path>
                                <path d="M33.5311292,11.9582284 L33.0238062,12.6615025 L32.4840831,12.2655212 L32.9911292,11.5623401 C33.1768523,11.6799712 33.3610062,11.8150051 33.5311292,11.9582284" id="Fill-35" fill="#F58A1F" mask="url(#mask-2)"></path>
                                <path d="M32.2008738,11.1572014 L31.9344738,11.9839695 L31.2999508,11.7753232 L31.5661662,10.9494856 C31.7797662,11.0026244 31.9952123,11.0733519 32.2008738,11.1572014" id="Fill-36" fill="#F58A1F" mask="url(#mask-2)"></path>
                                <path d="M34.7368062,15.7903325 C34.7368062,18.2283866 32.7757292,20.2064323 30.3564369,20.2064323 C27.9376062,20.2064323 25.97616,18.2283866 25.97616,15.7903325 C25.97616,13.3514408 27.9376062,11.3734882 30.3564369,11.3734882 C32.7757292,11.3734882 34.7368062,13.3514408 34.7368062,15.7903325" id="Fill-37" fill="#FFC708" mask="url(#mask-2)"></path>
                                <path d="M31.6814585,15.7809704 C31.5112431,15.6140161 31.2241662,15.4898706 30.8196738,15.408813 L30.4211815,15.3279416 C30.2308431,15.2874594 30.0993046,15.240835 30.0280431,15.1866726 C29.9555815,15.1313003 29.9192123,15.0548959 29.9192123,14.9570871 C29.9192123,14.8266134 29.9726585,14.7295491 30.0800123,14.6675694 C30.18672,14.6052174 30.3525969,14.5738553 30.5769046,14.5738553 C30.7452738,14.5738553 30.9242585,14.5970279 31.1144123,14.6428147 C31.3040123,14.6886015 31.4988738,14.7571887 31.6982585,14.8460635 L31.6982585,14.070945 C31.4724738,14.0107335 31.2548123,13.965319 31.0437046,13.9350736 C30.9801969,13.9258604 30.9179815,13.9210212 30.8545662,13.9144137 L30.8545662,13.4870702 L30.1526585,13.4870702 L30.1526585,13.9052936 C29.8469354,13.9384239 29.6020431,14.0317657 29.4202892,14.1837369 C29.1867508,14.3805643 29.0703508,14.6615203 29.0703508,15.0261396 C29.0703508,15.3164019 29.1536123,15.5479416 29.3220738,15.7202005 C29.4901662,15.8916218 29.7549969,16.0171633 30.1194277,16.0960804 L30.4815508,16.1762073 C30.7022585,16.2252513 30.8493046,16.281368 30.9230585,16.3421379 C30.9966277,16.4049552 31.03392,16.4928063 31.03392,16.6079247 C31.03392,16.7356066 30.9795508,16.8334154 30.8705354,16.9028401 C30.7626277,16.9709619 30.60552,17.0061396 30.4009662,17.0061396 C30.19992,17.0061396 29.9913969,16.9743122 29.7749354,16.9112157 C29.5580123,16.8483985 29.3338892,16.755522 29.1016431,16.6303528 L29.1016431,17.4269687 C29.3338892,17.5140753 29.5654892,17.5801497 29.7978277,17.6239822 C29.9159815,17.6461311 30.0345046,17.6631616 30.1526585,17.6733985 L30.1526585,18.0925525 L30.8545662,18.0925525 L30.8545662,17.6690245 C31.1636123,17.6305897 31.4064738,17.5388299 31.5803815,17.3934662 C31.8174277,17.1964526 31.9370585,16.8971633 31.9370585,16.4928063 C31.9370585,16.1855135 31.8517662,15.9477386 31.6814585,15.7809704" id="Fill-38" fill="#FCEE3B" mask="url(#mask-2)"></path>
                                <path d="M33.1277354,27.8786159 C34.4324123,31.1167293 32.8845046,34.8089882 29.6709969,36.124335 C26.4576738,37.439775 22.7960123,35.8789289 21.4920738,32.6394196 C20.1844431,29.3951641 21.7397354,25.7065347 24.94752,24.3923976 C28.1544738,23.0805871 31.8209354,24.6328714 33.1277354,27.8786159" id="Fill-39" fill="#FAA819" mask="url(#mask-2)"></path>
                                <path d="M25.3444985,24.2462614 L25.7557292,25.2679027 L24.9725908,25.5892479 L24.5608985,24.566769 C24.8120677,24.4440195 25.0777292,24.334764 25.3444985,24.2462614" id="Fill-40" fill="#F58A1F" mask="url(#mask-2)"></path>
                                <path d="M23.5977785,25.1527098 L24.3021785,25.9954848 L23.6544554,26.5447403 L22.9507015,25.7014069 C23.1504554,25.5061616 23.3708862,25.319478 23.5977785,25.1527098" id="Fill-41" fill="#F58A1F" mask="url(#mask-2)"></path>
                                <path d="M22.2144646,26.5588299 L23.1424338,27.1402851 L22.69548,27.8661734 L21.76668,27.2817403 C21.8973877,27.0341007 22.0495108,26.7879501 22.2144646,26.5588299" id="Fill-42" fill="#F58A1F" mask="url(#mask-2)"></path>
                                <path d="M21.3296585,28.3265635 L22.3910123,28.5912335 L22.1875662,29.4195838 L21.1264892,29.1545415 C21.1743046,28.8782386 21.2435354,28.5970964 21.3296585,28.3265635" id="Fill-43" fill="#F58A1F" mask="url(#mask-2)"></path>
                                <path d="M21.0298338,30.2843308 L22.1202646,30.2046692 L22.1807262,31.0558198 L21.09048,31.1354814 C21.0521723,30.8565728 21.0311262,30.5676134 21.0298338,30.2843308" id="Fill-44" fill="#F58A1F" mask="url(#mask-2)"></path>
                                <path d="M21.3458862,32.2395575 L22.3577631,31.825522 L22.67604,32.6137623 L21.6637015,33.0301244 C21.5412092,32.7777386 21.4324708,32.5080431 21.3458862,32.2395575" id="Fill-45" fill="#F58A1F" mask="url(#mask-2)"></path>
                                <path d="M22.2442615,34.0008883 L23.0808462,33.2902623 L23.6253692,33.9430034 L22.7896154,34.6536294 C22.5954,34.4510321 22.4097692,34.2288917 22.2442615,34.0008883" id="Fill-46" fill="#F58A1F" mask="url(#mask-2)"></path>
                                <path d="M23.6389754,35.3953291 L24.2164523,34.4599569 L24.9349754,34.9104729 L24.3568523,35.8454729 C24.11076,35.7154645 23.8664215,35.5613528 23.6389754,35.3953291" id="Fill-47" fill="#F58A1F" mask="url(#mask-2)"></path>
                                <path d="M25.3929969,36.286599 L25.6551508,35.2174027 L26.4765969,35.422978 L26.2149046,36.4929188 C25.9394585,36.4446193 25.6602277,36.3740778 25.3929969,36.286599" id="Fill-48" fill="#F58A1F" mask="url(#mask-2)"></path>
                                <path d="M27.3344308,36.5899645 L27.2561538,35.4900575 L28.1003077,35.4300321 L28.1785846,36.5276125 C27.9015692,36.5667919 27.6155077,36.5899645 27.3344308,36.5899645" id="Fill-49" fill="#F58A1F" mask="url(#mask-2)"></path>
                                <path d="M29.2735292,36.2707876 L28.8628523,35.2512868 L29.6458985,34.9299416 L30.0571292,35.9520482 C29.8069754,36.0737741 29.5403908,36.1845186 29.2735292,36.2707876" id="Fill-50" fill="#F58A1F" mask="url(#mask-2)"></path>
                                <path d="M31.0200738,35.365698 L30.3164123,34.5222716 L30.9641354,33.9732022 L31.6667815,34.8148604 C31.4666585,35.0117809 31.2476123,35.1975338 31.0200738,35.365698" id="Fill-51" fill="#F58A1F" mask="url(#mask-2)"></path>
                                <path d="M32.4041446,33.9591684 L31.4758985,33.3777132 L31.9236831,32.6521041 L32.8507292,33.2348621 C32.7203908,33.4825017 32.5679908,33.7300482 32.4041446,33.9591684" id="Fill-52" fill="#F58A1F" mask="url(#mask-2)"></path>
                                <path d="M33.2888215,32.1918443 L32.2270062,31.9266159 L32.4310062,31.0994755 L33.49236,31.363308 C33.4442677,31.6399831 33.3755908,31.9221489 33.2888215,32.1918443" id="Fill-53" fill="#F58A1F" mask="url(#mask-2)"></path>
                                <path d="M33.5885538,30.2334907 L32.4984923,30.3120355 L32.4377538,29.4618156 L33.5276308,29.3828985 C33.5676923,29.6611557 33.5885538,29.9503942 33.5885538,30.2334907" id="Fill-54" fill="#F58A1F" mask="url(#mask-2)"></path>
                                <path d="M33.2734985,28.2794459 L32.2601446,28.692923 L31.9420523,27.9026354 L32.9553138,27.4890651 C33.0775292,27.7403342 33.1849754,28.0085406 33.2734985,28.2794459" id="Fill-55" fill="#F58A1F" mask="url(#mask-2)"></path>
                                <path d="M32.3738585,26.5175288 L31.5381046,27.2277826 L30.9926585,26.57439 L31.82952,25.8649738 C32.0230892,26.0670127 32.20872,26.2891531 32.3738585,26.5175288" id="Fill-56" fill="#F58A1F" mask="url(#mask-2)"></path>
                                <path d="M30.9795046,25.1225389 L30.4022123,26.0590279 L29.6840585,25.6061853 L30.26172,24.6720228 C30.5073508,24.8037064 30.7523354,24.9565152 30.9795046,25.1225389" id="Fill-57" fill="#F58A1F" mask="url(#mask-2)"></path>
                                <path d="M29.2255292,24.2296777 L28.9627292,25.2997115 L28.1414677,25.095253 L28.4047292,24.0248469 C28.6796215,24.0732394 28.9582062,24.1429433 29.2255292,24.2296777" id="Fill-58" fill="#F58A1F" mask="url(#mask-2)"></path>
                                <path d="M27.28368,23.9282665 L27.3625108,25.0279873 L26.5182646,25.0886641 L26.44008,23.9894086 C26.7158031,23.9502293 27.0032492,23.9286387 27.28368,23.9282665" id="Fill-59" fill="#F58A1F" mask="url(#mask-2)"></path>
                                <path d="M32.4560677,28.1527597 C33.6090831,31.0163892 32.2399754,34.2841895 29.3986523,35.447379 C26.5558523,36.6101963 23.3166831,35.2311015 22.1630215,32.3656108 C21.0087138,29.498445 22.3771754,26.2338088 25.2199754,25.0708985 C28.0613908,23.9060338 31.3012062,25.2873621 32.4560677,28.1527597" id="Fill-60" fill="#FFC708" mask="url(#mask-2)"></path>
                                <path d="M28.1538403,31.8670126 L27.0552627,31.8670126 L27.0552627,30.7502614 L28.1538403,30.7502614 C28.464749,30.7502614 28.7168012,31.0003515 28.7168012,31.3087279 C28.7168012,31.6170588 28.464749,31.8670126 28.1538403,31.8670126 Z M28.1538403,28.7959466 C28.464749,28.7959466 28.7168012,29.0459961 28.7168012,29.3544131 C28.7168012,29.6626485 28.464749,29.9126979 28.1538403,29.9126979 L27.0552627,29.9126979 L27.0552627,28.7959466 L28.1538403,28.7959466 Z M29.7321858,29.32764 L29.7321858,28.9717152 C29.7321858,28.4327396 29.2852478,27.9957937 28.7340569,27.9957937 L28.1772827,27.9957937 L28.1772827,27.4930702 L27.5628434,27.4930702 L27.5628434,27.9957937 L27.03546,27.9957937 L27.03546,27.4930702 L26.4210207,27.4930702 L26.4210207,27.9957937 L25.3937243,27.9957937 L25.3937243,28.8281048 L25.9566625,28.8281048 L25.9566625,29.9019504 L25.3937243,29.9019504 L25.3937243,30.7052162 L25.9566625,30.7052162 L25.9566625,31.778887 L25.3937243,31.778887 L25.3937243,32.6113291 L26.4210207,32.6113291 L26.4210207,32.9837639 L27.03546,32.9837639 L27.03546,32.6113291 L27.5628434,32.6113291 L27.5628434,32.9837639 L28.1772827,32.9837639 L28.1772827,32.6113291 L28.7340569,32.6113291 C29.2852478,32.6113291 29.7321858,32.1744706 29.7321858,31.6354951 L29.7321858,31.2795266 C29.7321858,30.7405947 29.2852478,30.3034741 28.7340569,30.3034741 C29.2852478,30.3034741 29.7321858,29.8666156 29.7321858,29.32764 Z" id="Fill-1" fill="#FDE500" mask="url(#mask-2)" transform="translate(27.562955, 30.238417) rotate(-28.000000) translate(-27.562955, -30.238417) "></path>
                                <path d="M15.7655077,20.8200313 C15.7655077,22.902121 14.0918769,24.589346 12.0272308,24.589346 C9.96304615,24.589346 8.29006154,22.902121 8.29006154,20.8200313 C8.29006154,18.7363596 9.96701538,17.052857 12.0272308,17.052857 C14.0877231,17.052857 15.7655077,18.7371971 15.7655077,20.8200313" id="Fill-62" fill="#FAA819" mask="url(#mask-2)"></path>
                                <path d="M12.2795354,17.0618096 L12.2795354,17.7172496 L11.7762738,17.7172496 L11.7762738,17.0618096 C11.9409508,17.0498976 12.1127354,17.0486878 12.2795354,17.0618096" id="Fill-63" fill="#F58A1F" mask="url(#mask-2)"></path>
                                <path d="M11.1149631,17.167231 L11.3160092,17.7907504 L10.8361938,17.947654 L10.6351477,17.3241345 C10.7899477,17.260945 10.9522246,17.2075271 11.1149631,17.167231" id="Fill-64" fill="#F58A1F" mask="url(#mask-2)"></path>
                                <path d="M10.0389138,17.6305897 L10.4216215,18.1607673 L10.0138062,18.4593122 L9.63229846,17.9287623 C9.75894462,17.8199721 9.89851385,17.7196506 10.0389138,17.6305897" id="Fill-65" fill="#F58A1F" mask="url(#mask-2)"></path>
                                <path d="M9.15802154,18.4059501 L9.68472923,18.790764 L9.38897538,19.2017284 L8.86291385,18.8157047 C8.95014462,18.6740635 9.05076,18.5349349 9.15802154,18.4059501" id="Fill-66" fill="#F58A1F" mask="url(#mask-2)"></path>
                                <path d="M8.55888,19.417643 L9.17761846,19.6196819 L9.02161846,20.1023976 L8.40306462,19.8997073 C8.44294154,19.7374061 8.49564923,19.5743604 8.55888,19.417643" id="Fill-67" fill="#F58A1F" mask="url(#mask-2)"></path>
                                <path d="M8.29849846,20.5665195 L8.94843692,20.5665195 L8.94843692,21.0752927 L8.29849846,21.0752927 C8.28714462,20.9071286 8.28659077,20.7344975 8.29849846,20.5665195" id="Fill-68" fill="#F58A1F" mask="url(#mask-2)"></path>
                                <path d="M8.40306462,21.7413418 L9.02161846,21.5386514 L9.17761846,22.0209949 L8.55888,22.2246159 C8.49675692,22.0692944 8.44294154,21.9040152 8.40306462,21.7413418" id="Fill-69" fill="#F58A1F" mask="url(#mask-2)"></path>
                                <path d="M8.86288615,22.825335 L9.38894769,22.4401489 L9.68470154,22.8508342 L9.15799385,23.2362995 C9.05119385,23.1083384 8.95048615,22.9685584 8.86288615,22.825335" id="Fill-70" fill="#F58A1F" mask="url(#mask-2)"></path>
                                <path d="M9.63164308,23.7138782 L10.0137969,23.1824907 L10.4217046,23.4810355 L10.0389046,24.0108409 C9.89850462,23.9229898 9.75893538,23.822203 9.63164308,23.7138782" id="Fill-71" fill="#F58A1F" mask="url(#mask-2)"></path>
                                <path d="M10.6351292,24.3185152 L10.8362677,23.6946235 L11.3159908,23.8510618 L11.1142985,24.4750465 C10.9537754,24.434099 10.7899292,24.3808672 10.6351292,24.3185152" id="Fill-72" fill="#F58A1F" mask="url(#mask-2)"></path>
                                <path d="M11.7762646,24.5804306 L11.7762646,23.925456 L12.2795262,23.925456 L12.2795262,24.5804306 C12.11328,24.5919704 11.9417723,24.5923426 11.7762646,24.5804306" id="Fill-73" fill="#F58A1F" mask="url(#mask-2)"></path>
                                <path d="M12.9402923,24.4750093 L12.7392462,23.8510245 L13.2185077,23.6945863 L13.4195538,24.318478 C13.2648462,24.380923 13.1025692,24.4341548 12.9402923,24.4750093" id="Fill-74" fill="#F58A1F" mask="url(#mask-2)"></path>
                                <path d="M14.0160738,24.0122462 L13.6331815,23.4810448 L14.0410892,23.1828723 L14.4224123,23.7138875 C14.2964123,23.8214679 14.1575815,23.9226269 14.0160738,24.0122462" id="Fill-75" fill="#F58A1F" mask="url(#mask-2)"></path>
                                <path d="M14.8966523,23.2362995 L14.3694831,22.8508342 L14.6658831,22.4401489 L15.1925908,22.8257073 C15.1044369,22.9666041 15.0040985,23.1069425 14.8966523,23.2362995" id="Fill-76" fill="#F58A1F" mask="url(#mask-2)"></path>
                                <path d="M15.4962462,22.2246066 L14.8773231,22.0209856 L15.0331385,21.5386421 L15.6517846,21.7417978 C15.6115385,21.9040059 15.5592,22.06761 15.4962462,22.2246066" id="Fill-77" fill="#F58A1F" mask="url(#mask-2)"></path>
                                <path d="M15.7567569,21.0753206 L15.1063569,21.0753206 L15.1063569,20.5665474 L15.7561108,20.5676641 C15.7681108,20.7333156 15.7681108,20.9071565 15.7567569,21.0753206" id="Fill-78" fill="#F58A1F" mask="url(#mask-2)"></path>
                                <path d="M15.6517846,19.9008985 L15.0331385,20.1034958 L14.8773231,19.6197563 L15.4962462,19.4176244 C15.5588308,19.5729459 15.6115385,19.7364569 15.6517846,19.9008985" id="Fill-79" fill="#F58A1F" mask="url(#mask-2)"></path>
                                <path d="M15.1925446,18.8157327 L14.6658369,19.2021286 L14.3707292,18.7907919 L14.8966062,18.405978 C15.0034062,18.5335668 15.1040215,18.6740914 15.1925446,18.8157327" id="Fill-80" fill="#F58A1F" mask="url(#mask-2)"></path>
                                <path d="M14.4231692,17.928725 L14.0411077,18.459368 L13.6331077,18.1608232 L14.0164615,17.6305525 C14.1570462,17.7184966 14.2952308,17.8195626 14.4231692,17.928725" id="Fill-81" fill="#F58A1F" mask="url(#mask-2)"></path>
                                <path d="M13.4195908,17.3240973 L13.2184523,17.9476168 L12.7392831,17.7908063 L12.9403292,17.1671937 C13.1014985,17.2075829 13.2641446,17.2601633 13.4195908,17.3240973" id="Fill-82" fill="#F58A1F" mask="url(#mask-2)"></path>
                                <path d="M15.3335354,20.8200313 C15.3335354,22.6614611 13.8533815,24.1532547 12.0272585,24.1532547 C10.2010431,24.1532547 8.72116615,22.6614611 8.72116615,20.8200313 C8.72116615,18.9791599 10.2010431,17.4879247 12.0272585,17.4879247 C13.8533815,17.4879247 15.3335354,18.9791599 15.3335354,20.8200313" id="Fill-83" fill="#FFC708" mask="url(#mask-2)"></path>
                                <path d="M13.0271446,20.8133959 C12.8993908,20.688692 12.6820985,20.5942335 12.37656,20.5329983 L12.0756369,20.4710186 C11.9327446,20.441797 11.8334215,20.4063401 11.7786831,20.3650203 C11.72496,20.3233283 11.6968985,20.2659086 11.6968985,20.1920169 C11.6968985,20.0928122 11.73816,20.0201303 11.8192985,19.973599 C11.89896,19.9267885 12.0243138,19.9034298 12.1931446,19.9034298 C12.3212677,19.9034298 12.4560369,19.9207394 12.5999446,19.9545212 C12.7428369,19.9900711 12.8890523,20.0411624 13.0396985,20.1081675 L13.0396985,19.5241997 C12.8694831,19.4780406 12.7051754,19.4437936 12.5456677,19.4201557 C12.4978523,19.4135482 12.4515138,19.4098257 12.4034215,19.4049865 L12.4034215,19.0820592 L11.8728369,19.0820592 L11.8728369,19.3969831 C11.6434523,19.4238782 11.4577292,19.4928376 11.32056,19.6084213 C11.1440677,19.7570423 11.0566523,19.967736 11.0566523,20.2440389 C11.0566523,20.4636667 11.1196062,20.638066 11.2463446,20.7676091 C11.3729908,20.89678 11.5736677,20.9926345 11.8484677,21.051357 L12.1219754,21.1124992 C12.2881292,21.1491658 12.3995446,21.1916024 12.4548369,21.2376684 C12.5108677,21.2855956 12.5384677,21.3520423 12.5384677,21.4383113 C12.5384677,21.5336074 12.4978523,21.6080575 12.4160677,21.6604518 C12.3338215,21.7124738 12.2150215,21.7388105 12.0614215,21.7388105 C11.9088369,21.7388105 11.7510831,21.7140558 11.5877908,21.6675245 C11.4244062,21.6195973 11.2553908,21.5489628 11.0800985,21.455621 L11.0800985,22.0571777 C11.2553908,22.1221354 11.4302215,22.1720169 11.6048677,22.2050541 C11.6954215,22.2228291 11.7844985,22.2349272 11.8728369,22.2426514 L11.8728369,22.5589712 L12.4034215,22.5589712 L12.4034215,22.2385567 C12.6366831,22.2099865 12.8192677,22.1410271 12.9511754,22.0325161 C13.1306215,21.8834298 13.2202523,21.6557986 13.2202523,21.3506464 C13.2202523,21.1195719 13.1557292,20.9407056 13.0271446,20.8133959" id="Fill-84" fill="#FCEE3B" mask="url(#mask-2)"></path>
                                <path d="M60,9.16475888 C60,14.1815778 55.9647692,18.2501819 50.9877231,18.2501819 C46.0100308,18.2501819 41.9756308,14.1815778 41.9756308,9.16475888 C41.9756308,4.13872673 46.0190769,0.0790566836 50.9877231,0.0790566836 C55.9556308,0.0790566836 60,4.13919205 60,9.16475888" id="Fill-85" fill="#FAA819" mask="url(#mask-2)"></path>
                                <path d="M51.5947754,0.100107445 L51.5947754,1.68096193 L50.3804677,1.68096193 L50.3804677,0.100107445 C50.7796985,0.0724678511 51.1927754,0.0708857868 51.5947754,0.100107445" id="Fill-86" fill="#F58A1F" mask="url(#mask-2)"></path>
                                <path d="M48.78624,0.35498731 L49.2706708,1.85850677 L48.1169169,2.2367132 L47.6320246,0.732076988 C48.0029169,0.581222504 48.39504,0.452423858 48.78624,0.35498731" id="Fill-87" fill="#F58A1F" mask="url(#mask-2)"></path>
                                <path d="M46.1938708,1.4719154 L47.1156554,2.75096785 L46.1332246,3.46978342 L45.2119938,2.18980034 C45.5181785,1.93080711 45.8518708,1.68661083 46.1938708,1.4719154" id="Fill-88" fill="#F58A1F" mask="url(#mask-2)"></path>
                                <path d="M44.0702492,3.34175719 L45.3392954,4.27005668 L44.6253877,5.26080118 L43.3568031,4.33129188 C43.5686492,3.9892868 43.8109569,3.65240017 44.0702492,3.34175719" id="Fill-89" fill="#F58A1F" mask="url(#mask-2)"></path>
                                <path d="M42.6245169,5.78060237 L44.11584,6.26946024 L43.7406092,7.43358037 L42.2481785,6.94546701 C42.3459323,6.55404569 42.4731323,6.1580643 42.6245169,5.78060237" id="Fill-90" fill="#F58A1F" mask="url(#mask-2)"></path>
                                <path d="M41.9956708,8.55189509 L43.5646246,8.55189509 L43.5646246,9.77585448 L41.9956708,9.77585448 C41.9682554,9.3743824 41.9682554,8.95736887 41.9956708,8.55189509" id="Fill-91" fill="#F58A1F" mask="url(#mask-2)"></path>
                                <path d="M42.2481692,11.3843579 L43.7406,10.8948486 L44.1154615,12.0589687 L42.6245077,12.548478 C42.4743231,12.1737149 42.3463846,11.7785711 42.2481692,11.3843579" id="Fill-92" fill="#F58A1F" mask="url(#mask-2)"></path>
                                <path d="M43.3561292,13.9974255 L44.62536,13.0673579 L45.3387138,14.0572648 L44.0702215,14.986681 C43.8124985,14.6788299 43.5704677,14.3421294 43.3561292,13.9974255" id="Fill-93" fill="#F58A1F" mask="url(#mask-2)"></path>
                                <path d="M45.2115692,16.1381819 L46.1326154,14.8583849 L47.1149538,15.5777589 L46.1932615,16.8573697 C45.8539385,16.6440702 45.5192308,16.3986641 45.2115692,16.1381819" id="Fill-94" fill="#F58A1F" mask="url(#mask-2)"></path>
                                <path d="M47.6314892,17.5959239 L48.11592,16.0927766 L49.2706892,16.4702386 L48.7858892,17.9741303 C48.3985662,17.8761354 48.0050585,17.7480812 47.6314892,17.5959239" id="Fill-95" fill="#F58A1F" mask="url(#mask-2)"></path>
                                <path d="M50.3799877,18.2295964 L50.3799877,16.6480905 L51.5936492,16.6480905 L51.5936492,18.2295964 C51.1944185,18.2564915 50.7821723,18.2582597 50.3799877,18.2295964" id="Fill-96" fill="#F58A1F" mask="url(#mask-2)"></path>
                                <path d="M53.1882554,17.9753029 L52.7028092,16.4702014 L53.8576708,16.0927394 L54.3421938,17.5958866 C53.9712092,17.7472995 53.5794554,17.8760981 53.1882554,17.9753029" id="Fill-97" fill="#F58A1F" mask="url(#mask-2)"></path>
                                <path d="M55.7808923,16.8573697 L54.8591077,15.5781311 L55.8408,14.8593156 L56.7627692,16.1392986 C56.4564923,16.3975474 56.1225231,16.642209 55.7808923,16.8573697" id="Fill-98" fill="#F58A1F" mask="url(#mask-2)"></path>
                                <path d="M57.9045969,14.9888959 L56.6349969,14.0580838 L57.3491815,13.0691074 L58.6180431,13.9981514 C58.4054585,14.3406218 58.1632431,14.676764 57.9045969,14.9888959" id="Fill-99" fill="#F58A1F" mask="url(#mask-2)"></path>
                                <path d="M59.3500615,12.5484594 L57.8589231,12.0599738 L58.2334154,10.8952953 L59.7260308,11.3848046 C59.6287385,11.7752953 59.5016308,12.171835 59.3500615,12.5484594" id="Fill-100" fill="#F58A1F" mask="url(#mask-2)"></path>
                                <path d="M59.9794431,9.77680372 L58.41012,9.77680372 L58.41012,8.55312352 L59.9784277,8.55312352 C60.0063969,8.95524704 60.0063969,9.3717022 59.9794431,9.77680372" id="Fill-101" fill="#F58A1F" mask="url(#mask-2)"></path>
                                <path d="M59.7260492,6.94588579 L58.2334338,7.43502284 L57.8593108,6.27034433 L59.35008,5.78176565 C59.5004492,6.15652876 59.6282954,6.5506489 59.7260492,6.94588579" id="Fill-102" fill="#F58A1F" mask="url(#mask-2)"></path>
                                <path d="M58.6184492,4.33127327 L57.3492185,5.26152707 L56.6359569,4.27124788 L57.9046338,3.34173858 C58.16208,3.65163706 58.4042954,3.98768613 58.6184492,4.33127327" id="Fill-103" fill="#F58A1F" mask="url(#mask-2)"></path>
                                <path d="M56.7638215,2.1909264 L55.8414831,3.47053723 L54.8594215,2.75097716 L55.7821292,1.4719247 C56.1207138,1.68550338 56.4543138,1.92904822 56.7638215,2.1909264" id="Fill-104" fill="#F58A1F" mask="url(#mask-2)"></path>
                                <path d="M54.3432646,0.732049069 L53.8584646,2.23808122 L52.7040646,1.85847885 L53.1882185,0.355331641 C53.5772954,0.452395939 53.9697877,0.580822335 54.3432646,0.732049069" id="Fill-105" fill="#F58A1F" mask="url(#mask-2)"></path>
                                <path d="M58.9590185,9.16475888 C58.9590185,13.6033799 55.3896646,17.2005288 50.9877877,17.2005288 C46.5848954,17.2005288 43.0157262,13.6033799 43.0157262,9.16475888 C43.0157262,4.72502115 46.5848954,1.12759306 50.9877877,1.12759306 C55.3896646,1.12759306 58.9590185,4.72502115 58.9590185,9.16475888" id="Fill-106" fill="#FFC708" mask="url(#mask-2)"></path>
                                <path d="M51.976346,11.5592521 L50.3288969,11.5592521 L50.3288969,9.88454944 L51.976346,9.88454944 C52.4425909,9.88454944 52.8205734,10.2595896 52.8205734,10.722037 C52.8205734,11.1844163 52.4425909,11.5592521 51.976346,11.5592521 Z M51.976346,6.95381977 C52.4425909,6.95381977 52.8205734,7.32879896 52.8205734,7.79130734 C52.8205734,8.25354326 52.4425909,8.62852244 51.976346,8.62852244 L50.3288969,8.62852244 L50.3288969,6.95381977 L51.976346,6.95381977 Z M54.3432646,7.75115783 L54.3432646,7.21740583 C54.3432646,6.40914719 53.6730273,5.7538944 52.8464504,5.7538944 L52.0115006,5.7538944 L52.0115006,5 L51.0900751,5 L51.0900751,5.7538944 L50.2992004,5.7538944 L50.2992004,5 L49.3777749,5 L49.3777749,5.7538944 L47.8372204,5.7538944 L47.8372204,7.00204486 L48.681414,7.00204486 L48.681414,8.61240522 L47.8372204,8.61240522 L47.8372204,9.81699879 L48.681414,9.81699879 L48.681414,11.4270972 L47.8372204,11.4270972 L47.8372204,12.6754441 L49.3777749,12.6754441 L49.3777749,13.2339548 L50.2992004,13.2339548 L50.2992004,12.6754441 L51.0900751,12.6754441 L51.0900751,13.2339548 L52.0115006,13.2339548 L52.0115006,12.6754441 L52.8464504,12.6754441 C53.6730273,12.6754441 54.3432646,12.0203223 54.3432646,11.2120637 L54.3432646,10.6782462 C54.3432646,9.87005305 53.6730273,9.21453826 52.8464504,9.21453826 C53.6730273,9.21453826 54.3432646,8.55941647 54.3432646,7.75115783 Z" id="Fill-1" fill="#FDE500" mask="url(#mask-2)"></path>
                                <path d="M27.0682431,51.7458985 L27.0682431,54.906956 L22.4904277,54.906956 C22.0966431,54.906956 21.7810431,54.5870068 21.7810431,54.1943756 L21.7810431,51.789824 C21.7810431,51.7748409 21.7810431,51.7599509 21.7838123,51.7458985 L27.0682431,51.7458985 Z" id="Fill-108" fill="#FDCD08" mask="url(#mask-2)"></path>
                                <path d="M32.3560062,51.7458985 L21.7838215,51.7458985 C21.80376,51.3737411 22.11216,51.0765922 22.4904369,51.0765922 L31.64976,51.0765922 C32.0271138,51.0765922 32.3356062,51.3737411 32.3560062,51.7458985" id="Fill-109" fill="#F8EC30" mask="url(#mask-2)"></path>
                                <path d="M32.3589877,51.7897961 L32.3589877,54.1943477 C32.3589877,54.5869788 32.0420954,54.9069281 31.6496954,54.9069281 L27.06828,54.9069281 L27.06828,51.7458706 L32.3560338,51.7458706 C32.3589877,51.7600161 32.3589877,51.774813 32.3589877,51.7897961" id="Fill-110" fill="#F58A1F" mask="url(#mask-2)"></path>
                                <path d="M27.0682431,47.9161489 L27.0682431,51.076555 L22.4904277,51.076555 C22.0966431,51.076555 21.7810431,50.7578156 21.7810431,50.3663012 L21.7810431,47.9613773 C21.7810431,47.9463942 21.7810431,47.9315973 21.7838123,47.9161489 L27.0682431,47.9161489 Z" id="Fill-111" fill="#FDCD08" mask="url(#mask-2)"></path>
                                <path d="M32.3560062,47.9161489 L21.7838215,47.9161489 C21.80376,47.5433401 22.11216,47.2486108 22.4904369,47.2486108 L31.64976,47.2486108 C32.0271138,47.2486108 32.3356062,47.5433401 32.3560062,47.9161489" id="Fill-112" fill="#F8EC30" mask="url(#mask-2)"></path>
                                <path d="M32.3589877,47.961368 L32.3589877,50.3662919 C32.3589877,50.7578063 32.0420954,51.0766387 31.6496954,51.0766387 L27.06828,51.0766387 L27.06828,47.9161396 L32.3560338,47.9161396 C32.3589877,47.931588 32.3589877,47.9463849 32.3589877,47.961368" id="Fill-113" fill="#F58A1F" mask="url(#mask-2)"></path>
                                <path d="M27.0682431,44.0874044 L27.0682431,47.248555 L22.4904277,47.248555 C22.0966431,47.248555 21.7810431,46.9280474 21.7810431,46.5354162 L21.7810431,44.1308646 C21.7810431,44.1171844 21.7810431,44.1023875 21.7838123,44.0874044 L27.0682431,44.0874044 Z" id="Fill-114" fill="#FDCD08" mask="url(#mask-2)"></path>
                                <path d="M32.3560062,44.0874044 L21.7838215,44.0874044 C21.80376,43.7153401 22.11216,43.4192149 22.4904369,43.4192149 L31.64976,43.4192149 C32.0271138,43.4192149 32.3356062,43.7153401 32.3560062,44.0874044" id="Fill-115" fill="#F8EC30" mask="url(#mask-2)"></path>
                                <path d="M32.3589877,44.130846 L32.3589877,46.5353976 C32.3589877,46.9281218 32.0420954,47.2485364 31.6496954,47.2485364 L27.06828,47.2485364 L27.06828,44.0873858 L32.3560338,44.0873858 C32.3589877,44.1023689 32.3589877,44.1172589 32.3589877,44.130846" id="Fill-116" fill="#F58A1F" mask="url(#mask-2)"></path>
                                <path d="M27.0682431,40.2582132 L27.0682431,43.4191777 L22.4904277,43.4191777 C22.0966431,43.4191777 21.7810431,43.1004382 21.7810431,42.7065973 L21.7810431,40.3027902 C21.7810431,40.2879932 21.7810431,40.2737547 21.7838123,40.2582132 L27.0682431,40.2582132 Z" id="Fill-117" fill="#FDCD08" mask="url(#mask-2)"></path>
                                <path d="M32.3560062,40.2582132 L21.7838215,40.2582132 C21.80376,39.884846 22.11216,39.5900237 22.4904369,39.5900237 L31.64976,39.5900237 C32.0271138,39.5900237 32.3356062,39.884846 32.3560062,40.2582132" id="Fill-118" fill="#F8EC30" mask="url(#mask-2)"></path>
                                <path d="M32.3589877,40.3028367 L32.3589877,42.7066438 C32.3589877,43.1004848 32.0420954,43.4192242 31.6496954,43.4192242 L27.06828,43.4192242 L27.06828,40.2582597 L32.3560338,40.2582597 C32.3589877,40.2738012 32.3589877,40.2880398 32.3589877,40.3028367" id="Fill-119" fill="#F58A1F" mask="url(#mask-2)"></path>
                                <path d="M36.4553169,51.7458985 L36.4553169,54.906956 L41.0334092,54.906956 C41.4262708,54.906956 41.7427938,54.5881235 41.7427938,54.1943756 L41.7427938,51.7909408 C41.7427938,51.7748409 41.7427938,51.7603232 41.7403938,51.7458985 L36.4553169,51.7458985 Z" id="Fill-120" fill="#FDCD08" mask="url(#mask-2)"></path>
                                <path d="M31.1675446,51.7458985 L41.7403754,51.7458985 C41.7198831,51.3737411 41.4114831,51.077709 41.0333908,51.077709 L31.8746215,51.077709 C31.4964369,51.077709 31.1881292,51.3737411 31.1675446,51.7458985" id="Fill-121" fill="#F8EC30" mask="url(#mask-2)"></path>
                                <path d="M31.1646646,51.790978 L31.1646646,54.1943198 C31.1646646,54.5881607 31.4810954,54.9069002 31.8746031,54.9069002 L36.45528,54.9069002 L36.45528,51.7459357 L31.1675262,51.7459357 C31.1646646,51.7603604 31.1646646,51.7747851 31.1646646,51.790978" id="Fill-122" fill="#FBAE17" mask="url(#mask-2)"></path>
                                <path d="M36.4553169,47.9161489 L36.4553169,51.0777648 L41.0334092,51.0777648 C41.4262708,51.0777648 41.7427938,50.7585601 41.7427938,50.3663012 L41.7427938,47.9613773 C41.7427938,47.9463942 41.7427938,47.9315973 41.7403938,47.9161489 L36.4553169,47.9161489 Z" id="Fill-123" fill="#FDCD08" mask="url(#mask-2)"></path>
                                <path d="M31.1675446,47.9161489 L41.7403754,47.9161489 C41.7198831,47.5433401 41.4114831,47.2486108 41.0333908,47.2486108 L31.8746215,47.2486108 C31.4964369,47.2486108 31.1881292,47.5433401 31.1675446,47.9161489" id="Fill-124" fill="#F8EC30" mask="url(#mask-2)"></path>
                                <path d="M31.1646646,47.961368 L31.1646646,50.3662919 C31.1646646,50.7585508 31.4810954,51.0777555 31.8746031,51.0777555 L36.45528,51.0777555 L36.45528,47.9161396 L31.1675262,47.9161396 C31.1646646,47.931588 31.1646646,47.9463849 31.1646646,47.961368" id="Fill-125" fill="#FBAE17" mask="url(#mask-2)"></path>
                                <path d="M36.4553169,44.0874044 L36.4553169,47.248555 L41.0334092,47.248555 C41.4262708,47.248555 41.7427938,46.9280474 41.7427938,46.5354162 L41.7427938,44.1308646 C41.7427938,44.1171844 41.7427938,44.1023875 41.7403938,44.0874044 L36.4553169,44.0874044 Z" id="Fill-126" fill="#FDCD08" mask="url(#mask-2)"></path>
                                <path d="M31.1675446,44.0874044 L41.7403754,44.0874044 C41.7198831,43.7153401 41.4114831,43.4192149 41.0333908,43.4192149 L31.8746215,43.4192149 C31.4964369,43.4192149 31.1881292,43.7153401 31.1675446,44.0874044" id="Fill-127" fill="#F8EC30" mask="url(#mask-2)"></path>
                                <path d="M31.1646646,44.130846 L31.1646646,46.5353976 C31.1646646,46.9281218 31.4810954,47.2485364 31.8746031,47.2485364 L36.45528,47.2485364 L36.45528,44.0873858 L31.1675262,44.0873858 C31.1646646,44.1023689 31.1646646,44.1172589 31.1646646,44.130846" id="Fill-128" fill="#FBAE17" mask="url(#mask-2)"></path>
                                <path d="M36.4553169,40.2582132 L36.4553169,43.4191777 L41.0334092,43.4191777 C41.4262708,43.4191777 41.7427938,43.1004382 41.7427938,42.7065973 L41.7427938,40.3027902 C41.7427938,40.2879932 41.7427938,40.2737547 41.7403938,40.2582132 L36.4553169,40.2582132 Z" id="Fill-129" fill="#FDCD08" mask="url(#mask-2)"></path>
                                <path d="M31.1675446,40.2582132 L41.7403754,40.2582132 C41.7198831,39.886242 41.4114831,39.5900237 41.0333908,39.5900237 L31.8746215,39.5900237 C31.4964369,39.5900237 31.1881292,39.886242 31.1675446,40.2582132" id="Fill-130" fill="#F8EC30" mask="url(#mask-2)"></path>
                                <path d="M31.1646646,40.3028367 L31.1646646,42.7066438 C31.1646646,43.1004848 31.4810954,43.4192242 31.8746031,43.4192242 L36.45528,43.4192242 L36.45528,40.2582597 L31.1675262,40.2582597 C31.1646646,40.2738012 31.1646646,40.2880398 31.1646646,40.3028367" id="Fill-131" fill="#FBAE17" mask="url(#mask-2)"></path>
                                <path d="M36.4539692,36.4294222 L36.4539692,39.5900144 L41.0318769,39.5900144 C41.4243692,39.5900144 41.7405231,39.2709027 41.7405231,38.8768756 L41.7405231,36.4739992 C41.7405231,36.4582716 41.7405231,36.4446844 41.7384923,36.4294222 L36.4539692,36.4294222 Z" id="Fill-132" fill="#FDCD08" mask="url(#mask-2)"></path>
                                <path d="M31.1661046,36.4294222 L41.7384738,36.4294222 C41.7178892,36.0565203 41.4100431,35.7604882 41.0318585,35.7604882 L31.8731815,35.7604882 C31.4945354,35.7604882 31.1860431,36.0565203 31.1661046,36.4294222" id="Fill-133" fill="#F8EC30" mask="url(#mask-2)"></path>
                                <path d="M31.1631323,36.4740457 L31.1631323,38.8768291 C31.1631323,39.2708562 31.4802092,39.5900609 31.8731631,39.5900609 L36.4539323,39.5900609 L36.4539323,36.4294687 L31.1660862,36.4294687 C31.1631323,36.4446379 31.1631323,36.4583181 31.1631323,36.4740457" id="Fill-134" fill="#FBAE17" mask="url(#mask-2)"></path>
                            </g>
                        </g>
                    </g>
                </g>
            </g>
        </g>
    </g>
</svg>