<?xml version="1.0" encoding="UTF-8"?>
<svg width="60px" height="66px" viewBox="0 0 60 66" version="1.1" xmlns="http://www.w3.org/2000/svg" xmlns:xlink="http://www.w3.org/1999/xlink">
    <!-- Generator: Sketch 51.2 (57519) - http://www.bohemiancoding.com/sketch -->
    <title>Group 44</title>
    <desc>Created with Sketch.</desc>
    <defs>
        <polygon id="path-1" points="1.00840336e-05 0.00721995534 59.9068235 0.00721995534 59.9068235 46.0974258 1.00840336e-05 46.0974258"></polygon>
    </defs>
    <g id="Page-1" stroke="none" stroke-width="1" fill="none" fill-rule="evenodd">
        <g id="5" transform="translate(-565.000000, -2025.000000)">
            <g id="Group-10" transform="translate(90.000000, 1749.000000)">
                <g id="Group-22" transform="translate(439.000000, 136.000000)">
                    <g id="Group-44" transform="translate(36.000000, 140.000000)">
                        <path d="M45.9245042,53.6000114 C45.9245042,52.8670052 45.3351933,52.2724975 44.6075294,52.2724975 L41.510521,52.2724975 C41.4231933,52.2724975 41.2288739,52.2825498 40.9576134,52.2991006 C43.1120672,53.3282945 44.5735462,55.3190575 44.5735462,57.6072268 C44.5735462,60.9524114 41.4528403,63.6635898 37.603563,63.6635898 C37.2376134,63.6635898 36.8808403,63.6319098 36.5301176,63.5848975 L36.9411429,64.6736945 C36.9411429,65.4054822 37.5306555,65.9987714 38.2584202,65.9987714 L47.8606387,65.9999898 C48.5876975,65.9999898 49.1772101,65.4054822 49.1772101,64.6736945 L45.9245042,53.6000114 Z" id="Fill-1" fill="#F2D62E"></path>
                        <path d="M23.8785782,52.5798646 C24.0356874,53.2660615 24.1283597,53.97876 24.1283597,54.7155231 C24.1283597,59.6578062 20.3838555,63.6636 15.7642588,63.6636 C14.7136034,63.6636 13.7117546,63.4476277 12.7846286,63.0690923 L12.3134017,64.6736031 C12.3134017,65.4054923 12.9032168,66 13.630679,66 L23.2328975,66 C23.9603597,66 24.5498723,65.4054923 24.5498723,64.6736031 L28.7319227,53.6000215 C28.7319227,53.1897046 26.2190824,52.8226431 23.8785782,52.5798646" id="Fill-3" fill="#F2D62E"></path>
                        <path d="M13.1558723,16.1249778 C12.6336202,16.1364517 10.7071664,16.5927655 11.2929479,17.4703625 C11.8784269,18.3473502 14.0571832,19.8680917 15.2041412,22.7340148 C16.3503933,25.5996332 16.5828303,27.2372455 16.5828303,27.9976671 C16.5828303,28.7579871 17.047805,29.8690209 19.3709647,29.460024 C21.6941244,29.0502148 26.1087126,26.7694578 26.0504269,23.9623255 C25.9923429,21.1544825 21.2875361,15.9496209 13.1558723,16.1249778" id="Fill-5" fill="#F2D62E"></path>
                        <g id="Group-9" transform="translate(0.000000, 17.566154)">
                            <mask id="mask-2" fill="white">
                                <use xlink:href="#path-1"></use>
                            </mask>
                            <g id="Clip-8"></g>
                            <path d="M56.3108672,19.9699551 C55.6594387,18.8278505 55.9824303,17.3844812 56.1912706,16.7708843 C56.3098588,16.4214905 56.8363462,16.0809305 57.3846151,16.0809305 C57.4615563,16.0809305 57.5385983,16.0874289 57.6149345,16.1013397 C58.4029008,16.2474535 58.5391361,17.1228166 58.5139261,17.8291182 C58.4835731,18.6931089 58.1934555,19.3194997 57.6268336,19.7425089 C57.354363,19.9457889 56.9013882,20.1401335 56.543405,20.246952 C56.4644471,20.142672 56.3764134,20.0829674 56.3108672,19.9699551 M57.3807832,21.3686474 C57.7006487,21.2709674 58.2816908,21.0002658 58.455237,20.8707028 C59.3730857,20.1859274 59.9050185,19.1808997 59.9068336,17.8799889 C59.9112706,15.6859458 58.511405,15.0770197 58.0104303,14.9837058 C56.7619261,14.7498628 55.3171866,15.7011766 54.9440773,16.7989089 C54.6021277,17.8051551 54.4122454,18.9815797 55.1656235,20.4235274 C54.7604471,20.4387582 54.3551697,20.4223089 53.9687496,20.3905274 C51.948716,10.6305489 41.5800101,3.19610585 29.0845815,3.19610585 C26.3667328,3.19610585 23.7517412,3.55189662 21.2989008,4.20265662 C19.2126151,1.96373354 15.435237,-0.100137231 10.2655563,0.0115550769 C9.74320336,0.0228258462 7.81715294,0.479444308 8.40263193,1.35673662 C8.98770756,2.23402892 11.1670689,3.75446585 12.313321,6.62038892 C12.5212538,7.139352 12.689758,7.60500738 12.8414218,8.04548123 C8.94737143,10.7293458 6.05789244,14.359752 4.70128739,18.5038412 C4.00690084,18.4123551 3.52377479,18.3590474 3.37896807,18.3590474 L1.55315294,17.8547058 C0.695505882,17.8547058 1.00840336e-05,18.5546105 1.00840336e-05,19.4186012 L1.00840336e-05,28.2280782 C1.00840336e-05,29.0907489 0.695505882,29.7919735 1.55315294,29.7919735 L2.21214454,29.7919735 C3.26441345,29.7919735 4.15937143,29.6891151 4.78649748,29.4770012 C4.83157311,29.6077828 4.87443025,29.7386658 4.92263193,29.8695489 C4.5530521,30.2571212 4.04764034,30.6192074 3.35375798,30.8338597 C0.698430252,31.6507366 3.50764034,33.0978628 3.50764034,33.0978628 C3.50764034,33.0978628 5.21416134,32.6862258 6.44501849,33.0165305 C8.26195966,36.0251151 10.9459261,38.6181028 14.2312034,40.5785058 L12.7846487,45.5029182 C13.7117748,45.8814535 14.7136235,46.0974258 15.764279,46.0974258 C18.0115059,46.0974258 20.0472706,45.1445889 21.5499933,43.6008997 C23.9297244,44.2106382 26.4601109,44.5385058 29.0845815,44.5385058 C31.3739597,44.5385058 33.5899261,44.2844566 35.6986992,43.816872 L36.5301277,46.0187335 C36.8808504,46.0657458 37.2376235,46.0974258 37.6035731,46.0974258 C41.3947664,46.0974258 44.4725143,43.4661582 44.5646824,40.1909335 C50.5052874,36.4086258 54.3314723,30.5060935 54.3314723,23.8678135 C54.3314723,23.1742043 54.2880101,22.4905458 54.2069345,21.8159243 C54.8348672,21.8502443 55.5209849,21.8400905 56.192884,21.7371305 C56.9272034,22.3876874 57.8974891,22.8387212 59.0929513,23.0801797 C59.0929513,23.0801797 57.5152034,21.9824474 57.3807832,21.3686474" id="Fill-7" fill="#F8E157" mask="url(#mask-2)"></path>
                        </g>
                        <path d="M11.0239059,19.2080206 C10.6539227,19.1741068 9.25778824,19.3421529 9.60165378,20.0088545 C9.94572101,20.6748452 11.3645445,21.9234637 11.9481076,24.0391191 C12.5313681,26.154876 12.5663597,27.329676 12.506158,27.8667129 C12.4458555,28.4036483 12.6865613,29.2255006 14.3596034,29.1227437 C16.0330487,29.0197837 19.3303261,27.7619252 19.5110319,25.7749191 C19.6917378,23.7876083 16.7799731,19.7350052 11.0239059,19.2080206" id="Fill-10" fill="#F2D62E"></path>
                        <path d="M12.9373109,35.0358258 C12.9373109,37.0216135 11.6043025,38.6326228 9.95959664,38.6326228 C8.31489076,38.6326228 6.98188235,37.0216135 6.98188235,35.0358258 C6.98188235,33.0488197 8.31489076,31.4387243 9.95959664,31.4387243 C11.6043025,31.4387243 12.9373109,33.0488197 12.9373109,35.0358258" id="Fill-12" fill="#FFFFFF"></path>
                        <path d="M10.7835227,34.4362108 C10.7835227,35.4982015 10.1365311,36.3596538 9.33817815,36.3596538 C8.54043025,36.3596538 7.89323697,35.4982015 7.89323697,34.4362108 C7.89323697,33.3740169 8.54043025,32.5141892 9.33817815,32.5141892 C10.1365311,32.5141892 10.7835227,33.3740169 10.7835227,34.4362108" id="Fill-14" fill="#51636D"></path>
                        <path d="M47.8436168,31.0473646 C47.6896336,31.7518385 46.9108437,32.1781985 46.1049277,31.9996938 L23.5442218,26.9929338 C22.7386084,26.8139215 22.210205,26.0975677 22.3644908,25.3930938 L22.7572639,23.5979954 C22.9117513,22.8935215 23.6899361,22.4671615 24.4959529,22.6460723 L47.056558,27.6527308 C47.8624739,27.83154 48.3908773,28.5477923 48.2365916,29.2522662 L47.8436168,31.0473646 Z" id="Fill-16" fill="#F2D62E"></path>
                        <path d="M42.8410487,42.9039702 C42.8410487,47.2496132 38.0287462,50.7719825 32.0921748,50.7719825 C26.1557042,50.7719825 21.3434017,47.2496132 21.3434017,42.9039702 C21.3434017,38.5582255 26.1557042,35.0358563 32.0921748,35.0358563 C38.0287462,35.0358563 42.8410487,38.5582255 42.8410487,42.9039702" id="Fill-18" fill="#FDE976"></path>
                        <path d="M1.11407395,42.9039702 C0.877502521,42.9039702 0.685401681,41.8023794 0.685401681,40.4442009 C0.685401681,39.0856163 0.877502521,37.983924 1.11407395,37.983924 C1.35104874,37.983924 1.54314958,39.0856163 1.54314958,40.4442009 C1.54314958,41.8023794 1.35104874,42.9039702 1.11407395,42.9039702" id="Fill-20" fill="#F2D62E"></path>
                        <path d="M16.7102521,59.2899323 C16.7102521,59.2899323 21.5377815,61.2172338 22.7593613,61.4491477 C23.9811429,61.6810615 22.0399664,62.2280492 22.0399664,62.2280492 C22.0399664,62.2280492 18.9712941,61.0680738 16.7102521,59.2899323" id="Fill-22" fill="#F2D62E"></path>
                        <path d="M39.3703261,60.9022514 C39.3703261,60.9022514 43.9161076,58.3745529 44.8702588,57.5715868 C45.8244101,56.7693314 45.0103261,58.6261652 45.0103261,58.6261652 C45.0103261,58.6261652 42.170763,60.2745406 39.3703261,60.9022514" id="Fill-24" fill="#F2D62E"></path>
                        <path d="M2.26388571,37.0857351 C2.26388571,37.0857351 3.16691092,42.3003443 2.05252437,43.9965443 C2.53070924,43.6865474 4.47067563,40.6558274 2.26388571,37.0857351" id="Fill-26" fill="#FDE976"></path>
                        <path d="M47.1789983,30.1409612 C47.0789647,30.5963612 46.396679,30.8321335 45.6540908,30.6676412 L24.8728134,26.0557643 C24.1308303,25.8909674 23.6097882,25.388352 23.7098218,24.9328505 L23.9634353,23.772672 C24.0634689,23.3175766 24.7460571,23.0818043 25.4878387,23.2467028 L46.2693176,27.8582751 C47.0115025,28.0227674 47.532242,28.5255858 47.4325109,28.9809858 L47.1789983,30.1409612 Z" id="Fill-28" fill="#FDE976"></path>
                        <path d="M24.3832235,25.2479751 L45.571795,30.0436366 C45.8951899,29.9510335 46.1815765,29.8446212 46.4206689,29.7222674 L47.2436269,2.56895354 C47.2615765,1.96469815 46.7903496,1.46066123 46.1903496,1.44258738 L26.0194588,0.822999692 C25.4207697,0.804012 24.9191899,1.27850123 24.9009378,1.88123354 L24.2324672,23.9387382 C24.1899126,24.4691751 24.1798286,24.5606612 24.1798286,24.5606612 C24.1426185,24.7639412 24.1596605,25.0688612 24.3832235,25.2479751" id="Fill-30" fill="#2A8341"></path>
                        <path d="M52.0246588,4.96190031 L32.4468101,0.0330203077 C31.8657681,-0.113702769 31.2749445,0.242392615 31.1298353,0.827761846 L25.030205,25.3943834 L45.6718185,30.0662695 C46.5205916,29.7816572 47.0530286,29.3831188 47.1468101,28.8720757 C47.1490286,28.8593834 47.1493311,28.8468942 47.1512471,28.8335926 L47.3878185,27.9909249 C47.3972975,28.0093034 47.4035496,28.0277834 47.4124235,28.046568 L52.8148437,6.28829723 C52.9609613,5.70221723 52.6066084,5.10770954 52.0246588,4.96190031" id="Fill-32" fill="#2C9646"></path>
                        <path d="M50.2891966,5.32968277 L29.9056336,1.53955662 C29.3008941,1.427052 28.7179361,1.83015969 28.6061042,2.43989815 L24.4217345,25.2566058 L45.6786756,30.0679043 C46.7095664,30.1711689 46.9518857,29.7239935 47.0619025,29.116692 L51.1843563,6.63770123 C51.2959866,6.02806431 50.8951462,5.44198431 50.2891966,5.32968277" id="Fill-34" fill="#4EB64A"></path>
                        <path d="M44.5579361,29.8144338 L48.1227429,10.3763169 C47.7290622,10.5479169 47.2827429,10.6082308 46.8293647,10.5237508 C45.6108101,10.2972185 44.8065076,9.11795077 45.0313815,7.89065538 C45.1210286,7.40063077 45.3629445,6.98036308 45.6967261,6.66173538 L34.072558,4.50038769 C34.2716168,4.91771077 34.3476504,5.39737846 34.2577008,5.88740308 C34.0328269,7.11459692 32.8619697,7.9266 31.6430118,7.69966154 C31.027684,7.58502462 30.5185412,7.22547692 30.1930286,6.74245846 L26.7029445,25.773 L44.5579361,29.8144338 Z" id="Fill-36" fill="#ABD167"></path>
                        <path d="M38.3192773,13.5821603 C42.6741681,14.3921326 45.6825378,17.8976465 45.0374622,21.4133142 C44.3927899,24.9290834 40.3396134,27.1223142 35.9841176,26.3126465 C31.6298319,25.5026742 28.6220672,21.9967542 29.2671429,18.4803757 C29.9117143,14.964708 33.9646891,12.7724926 38.3192773,13.5821603" id="Fill-38" fill="#4EB64A"></path>
                        <path d="M39.3457109,7.53655015 C40.4642319,7.74490708 41.2042992,8.82791631 40.9976773,9.95428246 C40.7907529,11.0817655 39.7153916,11.8262455 38.5971731,11.6181932 C37.4777445,11.4099378 36.7380807,10.3281471 36.9446017,9.20096862 C37.1515261,8.07389169 38.2259798,7.32900554 39.3457109,7.53655015" id="Fill-40" fill="#4EB64A"></path>
                        <path d="M36.3830824,19.8319338 L35.4649311,20.3686662 C35.1257042,20.5684938 34.8459731,20.5526538 34.5945782,20.5053369 C34.3274521,20.4557862 34.0858387,20.3023615 33.9116874,20.0747123 L33.2919227,19.2574292 L36.3830824,19.8319338 Z M41.1651328,20.4459369 L37.6559899,19.7934508 L38.736595,19.2665677 C39.0431496,19.1176108 39.344763,19.0810569 39.7170655,19.1500015 C40.0425782,19.2113308 40.3169647,19.3726754 40.5102756,19.6178908 L41.1651328,20.4459369 Z M41.9606622,20.8692508 L42.9823765,21.0591277 C43.0549815,21.0725308 43.1265782,21.0235892 43.1394857,20.9502785 C43.1533008,20.8766631 43.1037882,20.8068046 43.031284,20.7927923 L41.9780067,20.5970262 L41.9704437,20.2753523 C41.9307126,18.6884077 41.1336706,17.6349462 39.7813008,17.3831308 C38.3883933,17.1242077 37.314242,18.2737246 36.5355529,19.3022077 L36.3575697,19.5190938 L36.1067798,19.5056908 L33.5991832,19.0388169 L33.6763261,18.6455585 C33.7763597,18.1240569 33.9958891,17.6482477 34.3441916,17.1935585 L33.387721,16.5152815 C32.9719563,17.1067431 32.7013008,17.7395308 32.5606286,18.4483708 L32.4846958,18.8319831 L31.4421076,18.6380446 C31.3696034,18.6243369 31.2992168,18.6725677 31.2856034,18.7466908 C31.2720908,18.8192908 31.3206958,18.8906723 31.3932,18.9037708 L32.4648303,19.1032938 L32.4707798,19.4246631 C32.5054689,20.9128108 33.2987798,22.0177523 34.4955529,22.2405277 C35.7475866,22.4733554 36.7462084,21.4210108 37.5565613,20.3598323 L37.7489647,20.1190846 L38.0044941,20.1337062 L40.8525277,20.6629246 L40.7982756,21.0795369 C40.7935361,21.1199492 40.7894017,21.1612754 40.7819395,21.2041246 C40.6226118,22.0705523 40.1465445,22.7775646 39.9646286,23.02146 L40.9316874,23.6556692 C41.3351496,23.20098 41.7117882,22.3157677 41.873637,21.4324846 L41.9606622,20.8692508 Z M43.9126286,21.0941585 C43.820158,21.5969769 43.3394521,21.93114 42.8397882,21.8380292 L42.6044269,21.7941646 C42.3900403,22.7810169 41.9698387,23.6967923 41.4849983,24.2223554 C41.2367294,24.4898077 40.8367966,24.5389523 40.5317546,24.3393277 L39.4986454,23.6621677 C39.324595,23.5489523 39.2040908,23.3663862 39.1697042,23.1602631 C39.1353176,22.9544446 39.1882588,22.7410108 39.3118891,22.5768231 C39.3939731,22.4691923 39.7721244,21.9505338 39.9514185,21.3008908 L38.0941412,20.95566 C37.1547126,22.1642723 35.9736706,23.3202877 34.3526622,23.0196323 C32.8902756,22.7476108 31.8553513,21.4596969 31.7029815,19.7677615 L31.2507126,19.6832815 C30.7513513,19.5905769 30.4197882,19.1049185 30.5115529,18.6028108 C30.6039227,18.0998908 31.0859395,17.7667431 31.5846958,17.8591431 L31.8759227,17.9134662 C32.0581412,17.2289954 32.3530992,16.6067677 32.7739059,16.0182508 C33.0104773,15.6869308 33.4751496,15.6079338 33.8079227,15.8436046 L34.8330655,16.5700108 C34.9995529,16.6888108 35.1115866,16.8730015 35.1415361,17.0755708 C35.1699731,17.2756015 35.1141076,17.4878169 34.9895697,17.6482477 C34.7973681,17.8943769 34.6541748,18.1472077 34.5560571,18.4116138 L36.0153176,18.6831277 C36.9325613,17.5034538 38.1838891,16.2808292 39.9241916,16.6045338 C41.5528639,16.90722 42.5880908,18.1416231 42.7395529,19.9332692 L43.1738723,20.0141954 C43.6735361,20.1070015 44.0046958,20.5911369 43.9126286,21.0941585 Z" id="Fill-42" fill="#ABD167"></path>
                    </g>
                </g>
            </g>
        </g>
    </g>
</svg>