<?xml version="1.0" encoding="UTF-8"?>
<svg width="53px" height="59px" viewBox="0 0 53 59" version="1.1" xmlns="http://www.w3.org/2000/svg" xmlns:xlink="http://www.w3.org/1999/xlink">
    <!-- Generator: Sketch 51.2 (57519) - http://www.bohemiancoding.com/sketch -->
    <title>Group 15</title>
    <desc>Created with Sketch.</desc>
    <defs>
        <polygon id="path-1" points="0 0.0181481481 43.9092554 0.0181481481 43.9092554 44.062213 0 44.062213"></polygon>
    </defs>
    <g id="Page-1" stroke="none" stroke-width="1" fill="none" fill-rule="evenodd">
        <g id="5" transform="translate(-1005.000000, -2037.000000)">
            <g id="Group-10" transform="translate(90.000000, 1749.000000)">
                <g id="Group-8" transform="translate(879.000000, 136.000000)">
                    <g id="Group-15" transform="translate(36.000000, 152.000000)">
                        <g id="Group-3" transform="translate(0.000000, 0.074444)">
                            <mask id="mask-2" fill="white">
                                <use xlink:href="#path-1"></use>
                            </mask>
                            <g id="Clip-2"></g>
                            <path d="M43.9092554,22.0414722 C43.9092554,34.2058241 34.0787631,44.062213 21.9555323,44.062213 C9.83045538,44.062213 -3.69230769e-05,34.2058241 -3.69230769e-05,22.0414722 C-3.69230769e-05,9.87582407 9.83045538,0.0181388889 21.9555323,0.0181388889 C34.0787631,0.0181388889 43.9092554,9.87582407 43.9092554,22.0414722" id="Fill-1" fill="#F8E157" mask="url(#mask-2)"></path>
                        </g>
                        <path d="M40.7105723,22.1159167 C40.7105723,32.5080463 32.3132492,40.9286944 21.9554954,40.9286944 C11.5969108,40.9286944 3.19820308,32.5080463 3.19820308,22.1159167 C3.19820308,11.7226759 11.5969108,3.30073148 21.9554954,3.30073148 C32.3132492,3.30073148 40.7105723,11.7226759 40.7105723,22.1159167" id="Fill-4" fill="#FFC708"></path>
                        <g id="Group-3" transform="translate(15.000000, 13.000000)" fill="#FDE500">
                            <path d="M9.29693878,14.796627 L5.62576531,14.796627 L5.62576531,11.0898175 L9.29693878,11.0898175 C10.3359184,11.0898175 11.1782143,11.9199365 11.1782143,12.9435238 C11.1782143,13.9669603 10.3359184,14.796627 9.29693878,14.796627 Z M9.29693878,4.60915873 C10.3359184,4.60915873 11.1782143,5.43927778 11.1782143,6.46316667 C11.1782143,7.48645238 10.3359184,8.31657143 9.29693878,8.31657143 L5.62576531,8.31657143 L5.62576531,4.60915873 L9.29693878,4.60915873 Z M14.8666837,6.33378571 L14.8666837,5.10496825 C14.8666837,3.2441746 13.3351531,1.73563492 11.4463776,1.73563492 L9.53846939,1.73563492 L9.53846939,0 L7.43295918,0 L7.43295918,1.73563492 L5.62576531,1.73563492 L5.62576531,0 L3.5202551,0 L3.5202551,1.73563492 L0,1.73563492 L0,4.60915873 L1.92903061,4.60915873 L1.92903061,8.31657143 L0,8.31657143 L0,11.0898175 L1.92903061,11.0898175 L1.92903061,14.796627 L0,14.796627 L0,17.6706032 L3.5202551,17.6706032 L3.5202551,18.9564206 L5.62576531,18.9564206 L5.62576531,17.6706032 L7.43295918,17.6706032 L7.43295918,18.9564206 L9.53846939,18.9564206 L9.53846939,17.6706032 L11.4463776,17.6706032 C13.3351531,17.6706032 14.8666837,16.1623651 14.8666837,14.3015714 L14.8666837,13.0726032 C14.8666837,11.2119603 13.3351531,9.70281746 11.4463776,9.70281746 C13.3351531,9.70281746 14.8666837,8.19457937 14.8666837,6.33378571 Z" id="Fill-1"></path>
                        </g>
                        <polygon id="Fill-8" stroke="#000000" fill="#04927F" points="52.3025538 46.2039815 33 30 39.4764923 54.3976852 44.4151385 51.2434259 48.9591692 58.3999074 51.9107077 56.5155556 47.3662154 49.357963"></polygon>
                        <path d="M8.82323077,14.0920093 C8.82323077,15.305713 7.84153846,16.289787 6.63184615,16.289787 C5.4216,16.289787 4.44036923,15.305713 4.44036923,14.0920093 C4.44036923,12.8778426 5.4216,11.8936759 6.63184615,11.8936759 C7.84153846,11.8936759 8.82323077,12.8778426 8.82323077,14.0920093" id="Fill-13" fill="#FFFFFF"></path>
                    </g>
                </g>
            </g>
        </g>
    </g>
</svg>