<?xml version="1.0" encoding="UTF-8"?>
<svg width="234px" height="184px" viewBox="0 0 234 184" version="1.1" xmlns="http://www.w3.org/2000/svg" xmlns:xlink="http://www.w3.org/1999/xlink">
    <!-- Generator: Sketch 50.2 (55047) - http://www.bohemiancoding.com/sketch -->
    <title>Group 11</title>
    <desc>Created with Sketch.</desc>
    <defs>
        <polygon id="path-1" points="0.142214192 0.306303394 86.2414534 0.306303394 86.2414534 74.7865537 0.142214192 74.7865537"></polygon>
        <polygon id="path-3" points="0 0.0592502897 5.52030115 0.0592502897 5.52030115 5.57950398 0 5.57950398"></polygon>
    </defs>
    <g id="Page-1" stroke="none" stroke-width="1" fill="none" fill-rule="evenodd">
        <g id="4" transform="translate(-80.000000, -155.000000)">
            <g id="Group-537" transform="translate(27.000000, 133.000000)">
                <g id="Group-11" transform="translate(53.000000, 22.000000)">
                    <g id="Group-537" transform="translate(117.000000, 108.464789) scale(-1, 1) translate(-117.000000, -108.464789) translate(0.000000, 3.000000)">
                        <g id="Group-3" transform="translate(147.595269, 27.949317)">
                            <mask id="mask-2" fill="white">
                                <use xlink:href="#path-1"></use>
                            </mask>
                            <g id="Clip-2"></g>
                            <path d="M31.643657,47.3725774 C37.9063088,41.9792003 54.3198252,26.7854972 59.0361091,22.410835 C57.2062352,19.3940491 57.1779461,15.9689164 59.1907766,14.1332003 C61.2011472,12.2996365 64.6044481,12.6341858 67.4385848,14.7260413 L82.9625322,0.567350066 C83.3708791,0.195286991 84.0027714,0.224498555 84.3745269,0.632230486 L85.980548,2.39322654 C86.352611,2.80095848 86.3233995,3.43315821 85.9156675,3.8049138 L70.3769606,17.9765196 C72.1585585,20.9739335 72.1674757,24.3550951 70.1724796,26.1745143 C68.1688739,28.0019283 64.7806399,27.6753737 61.9520381,25.6016602 C56.1613837,30.6251267 33.0316675,50.6860912 26.6601643,56.1489611 C19.8710894,61.970057 5.76959133,72.9308507 5.76959133,72.9308507 L0.142214192,74.7865537 C0.142214192,74.7865537 24.9871104,53.1060386 31.643657,47.3725774" id="Fill-1" fill="#000000" mask="url(#mask-2)"></path>
                        </g>
                        <path d="M104.065396,54.4332891 C104.065396,81.6609264 126.137654,103.732569 153.364984,103.732569 C180.592621,103.732569 202.664571,81.6609264 202.664571,54.4332891 C202.664571,27.2059593 180.592621,5.1340092 153.364984,5.1340092 C126.137654,5.1340092 104.065396,27.2059593 104.065396,54.4332891" id="Fill-4" fill="#000000"></path>
                        <path d="M105.385144,45.1076972 C106.867247,36.9961072 109.900637,26.1340179 124.676153,23.9483779 C138.763199,21.8648247 156.113331,33.0374791 159.477888,45.3284752 C159.789375,46.3050639 160.011076,47.3449955 160.129459,48.4307432 C160.321641,49.7203569 160.096558,52.3755343 160.096558,52.3755343 C159.350894,58.2953346 153.203859,64.0995185 148.56906,62.8046775 C123.599938,55.8289561 114.712858,55.7585409 108.914516,62.8046775 C105.786111,66.6058707 103.891357,53.2860126 105.385144,45.1076972" id="Fill-6" fill="#FFFFFF"></path>
                        <path d="M185.278217,13.9884339 C185.278217,13.9884339 189.411807,17.4882867 193.516801,22.3208018 C200.090633,20.1597611 212.43298,13.9884339 212.43298,13.9884339 L198.856367,9.22470434e-05 L185.278217,13.9884339 Z" id="Fill-8" fill="#000000"></path>
                        <polygon id="Fill-10" fill="#000000" points="195.976107 25.0970996 208.730183 20.1597304 208.730183 30.857005 198.856367 30.857005"></polygon>
                        <path d="M147.101994,42.1189853 C147.031578,42.3702047 133.713873,49.2432244 133.713873,49.2432244 L132.536186,47.728528 L143.841368,37.9254347 L147.101994,42.1189853 Z" id="Fill-12" fill="#000000"></path>
                        <path d="M110.492648,40.1533238 C110.693131,40.1597811 118.251854,48.8334631 118.251854,48.8334631 L117.338301,49.9883961 L107.962311,43.3509138 L110.492648,40.1533238 Z" id="Fill-14" fill="#000000"></path>
                        <path d="M133.791637,95.7156552 C133.791637,95.7156552 123.750854,134.327193 142.798638,153.798084 C145.974397,155.193166 171.003479,152.056459 171.003479,152.056459 C171.003479,152.056459 162.221561,102.772554 178.996378,94.0004752 C179.236835,92.7803543 133.791637,95.7156552 133.791637,95.7156552" id="Fill-16" fill="#000000"></path>
                        <path d="M137.534376,146.785125 C137.534376,146.785125 123.093717,167.826061 138.725901,190.680881 C138.442395,191.011125 127.73282,195.842103 127.73282,195.842103 L149.172571,194.196416 C149.172571,194.196416 130.112487,179.209038 148.244258,154.123992 C150.385927,154.031438 137.534376,146.785125 137.534376,146.785125" id="Fill-18" fill="#000000"></path>
                        <path d="M158.425072,143.331273 C158.425072,143.331273 141.772021,167.595935 159.799246,193.953068 C159.472691,194.333741 147.121735,199.905155 147.121735,199.905155 L171.846402,198.007325 C171.846402,198.007325 149.866392,180.723612 170.776336,151.794324 C173.24579,151.68824 158.425072,143.331273 158.425072,143.331273" id="Fill-20" fill="#000000"></path>
                        <path d="M166.076288,112.587055 C166.076288,112.587055 154.289268,134.623644 124.565119,134.21376 C124.770214,134.21376 124.565119,131.343954 124.565119,131.343954 C124.565119,131.343954 142.297153,130.421484 157.261776,109.409452" id="Fill-22" fill="#000000"></path>
                        <path d="M166.076288,112.587055 C165.094472,114.379415 163.889418,116.043859 162.597652,117.628664 C161.299429,119.210085 159.896966,120.7091 158.393954,122.101415 C155.382703,124.881126 152.000004,127.264175 148.359628,129.165386 C144.712795,131.056143 140.805518,132.435237 136.794309,133.314658 C132.7831,134.203305 128.663655,134.577213 124.560814,134.51018 L124.564811,133.917339 C124.462417,133.917339 124.394769,133.971765 124.37017,133.999131 C124.359715,134.009279 124.348953,134.024038 124.342496,134.034185 L124.332656,134.05079 C124.324354,134.068624 124.326199,134.066472 124.326814,134.064627 C124.329274,134.05571 124.333578,134.033878 124.336961,134.012046 C124.343418,133.965615 124.34803,133.911497 124.351413,133.856148 C124.358178,133.745145 124.360638,133.628298 124.36156,133.510837 C124.36279,133.275915 124.357255,133.03761 124.349568,132.798997 C124.333271,132.32208 124.307749,131.841166 124.276385,131.364248 L124.257013,131.07613 L124.550052,131.054606 C125.358751,130.994953 126.195739,130.85812 127.01151,130.696995 C127.831279,130.535562 128.645205,130.337231 129.450829,130.109996 C131.063923,129.660445 132.647497,129.102043 134.192327,128.449549 C137.284141,127.147636 140.228052,125.498566 142.993003,123.588438 C144.368406,122.623534 145.701991,121.597746 146.989145,120.514151 C148.262769,119.417026 149.512409,118.287307 150.695324,117.089018 C153.077142,114.707507 155.255402,112.122745 157.261776,109.409452 C155.349494,112.191008 153.211208,114.820049 150.878895,117.268285 C148.5555,119.727284 145.97904,121.944903 143.233768,123.930367 C140.471276,125.888156 137.531055,127.620556 134.399883,128.939996 C132.839063,129.607865 131.236732,130.181334 129.6015,130.645336 C128.784498,130.879644 127.958272,131.085047 127.123437,131.253552 C126.285218,131.422057 125.454688,131.564732 124.580186,131.632995 L124.854159,131.323352 C124.888598,131.809187 124.91658,132.291331 124.935337,132.778396 C124.944254,133.021928 124.951326,133.265767 124.951019,133.513297 C124.950711,133.637216 124.948866,133.761442 124.941794,133.891202 C124.938104,133.95639 124.932877,134.022193 124.923037,134.095376 C124.917502,134.133197 124.91166,134.170711 124.898438,134.220217 C124.890751,134.246968 124.883371,134.27372 124.861539,134.318921 L124.84063,134.355512 C124.830483,134.371502 124.814493,134.391796 124.799426,134.408093 C124.764372,134.446837 124.683502,134.508643 124.565734,134.51018 L124.569423,133.917339 C128.630446,133.945321 132.70223,133.612924 136.672543,132.752259 C140.643471,131.906661 144.505854,130.551244 148.129626,128.715836 C151.758317,126.890574 155.146551,124.580401 158.178404,121.864955 C159.694945,120.508309 161.133691,119.060953 162.462664,117.5152 C163.12715,116.743092 163.765807,115.947615 164.371255,115.127231 C164.977318,114.307463 165.562165,113.469244 166.076288,112.587055" id="Fill-24" fill="#58595B"></path>
                        <path d="M133.109685,98.7983669 C133.109685,98.7983669 110.010718,106.027153 122.105228,118.941739 C122.720208,118.531854 123.847775,117.81448 123.847775,117.81448 C123.847775,117.81448 116.673107,109.102054 133.789854,106.129854 C133.687459,105.719663 133.109685,98.7983669 133.109685,98.7983669" id="Fill-26" fill="#000000"></path>
                        <path d="M123.771179,117.715314 C123.771179,117.715314 126.342719,119.41758 128.679952,117.54312 C128.8749,117.721772 129.443757,119.149756 129.443757,119.149756 C129.443757,119.149756 127.469055,120.098055 126.4651,119.696473 C126.565649,119.96399 128.238703,121.771417 129.075691,121.738208 C129.042483,121.872274 126.364551,125.520337 126.364551,125.520337 C126.364551,125.520337 123.455387,123.583149 122.105197,118.941585 C122.3475,118.781075 123.771179,117.715314 123.771179,117.715314" id="Fill-28" fill="#000000"></path>
                        <path d="M125.903808,131.511813 C125.903808,131.511813 122.123524,130.981085 121.493476,127.326872 C121.166307,127.332407 119.467731,128.189997 119.467731,128.189997 C119.467731,128.189997 120.521193,130.688662 121.781595,131.13975 C121.468877,131.305487 118.43518,131.60898 117.686748,130.891913 C117.608031,131.043813 117.098827,136.621684 117.098827,136.621684 C117.098827,136.621684 121.38524,137.211143 126.44253,134.014783 C126.349361,133.667011 125.903808,131.511813 125.903808,131.511813" id="Fill-30" fill="#000000"></path>
                        <path d="M118.257973,134.695412 C117.130099,134.21173 116.607981,132.905204 117.091663,131.777331 C117.575652,130.649457 118.88187,130.127339 120.009744,130.611328 C121.137618,131.09501 121.659736,132.401536 121.176054,133.529409 C120.692065,134.657283 119.385847,135.179402 118.257973,134.695412 M120.221912,130.116884 C118.821295,129.516048 117.198669,130.164545 116.597834,131.565162 C115.99669,132.966088 116.645187,134.588406 118.046112,135.189241 C119.446422,135.790692 121.069355,135.141888 121.670191,133.74127 C122.271027,132.340653 121.62253,130.718027 120.221912,130.116884" id="Fill-32" fill="#F8931F"></path>
                        <path d="M121.376138,133.660339 C120.849715,134.887224 119.428803,135.455159 118.201917,134.928736 C116.975032,134.402312 116.407098,132.981093 116.933521,131.754515 C117.459944,130.527937 118.880856,129.959695 120.107741,130.486118 C121.334627,131.012541 121.902561,132.433761 121.376138,133.660339" id="Fill-34" fill="#FDDA64"></path>
                        <path d="M118.142972,134.480415 C117.015098,133.996733 116.49298,132.690207 116.976969,131.562334 C117.460651,130.43446 118.767177,129.912649 119.89505,130.396331 C121.022924,130.880013 121.544735,132.186539 121.061053,133.314412 C120.577371,134.442286 119.270845,134.964404 118.142972,134.480415 M120.107219,129.902194 C118.706294,129.301358 117.083976,129.949855 116.482832,131.350165 C115.881689,132.75109 116.530186,134.373716 117.931111,134.974552 C119.331729,135.575695 120.954354,134.927198 121.555497,133.526273 C122.156025,132.125655 121.507529,130.50303 120.107219,129.902194" id="Fill-36" fill="#FFE092"></path>
                        <polygon id="Fill-38" fill="#F8931F" points="119.64061 131.319202 119.59861 131.154202 119.51161 131.356202"></polygon>
                        <polygon id="Fill-40" fill="#FFF7A9" points="119.68073 130.884533 118.140819 132.00103 118.902472 132.698725"></polygon>
                        <polygon id="Fill-42" fill="#F8931F" points="119.68073 130.884533 119.932564 132.769755 118.902472 132.698725"></polygon>
                        <polygon id="Fill-44" fill="#FFF7A9" points="118.310523 134.078648 118.058381 132.193426 118.799432 132.938782"></polygon>
                        <polygon id="Fill-46" fill="#F8931F" points="118.310523 134.078648 119.850126 132.962152 118.799432 132.938782"></polygon>
                        <path d="M118.091928,133.427938 C116.964362,132.944256 116.442244,131.63773 116.925926,130.509856 C117.409915,129.381982 118.716441,128.860172 119.844007,129.343854 C120.971881,129.827536 121.493999,131.134061 121.010317,132.261935 C120.526328,133.389809 119.219802,133.911927 118.091928,133.427938 M120.056175,128.849717 C118.655558,128.248574 117.032932,128.897378 116.432096,130.297688 C115.830953,131.698613 116.47945,133.320931 117.880375,133.922074 C119.280685,134.523218 120.903618,133.874721 121.504454,132.473796 C122.105597,131.073178 121.456793,129.450553 120.056175,128.849717" id="Fill-48" fill="#F8931F"></path>
                        <path d="M121.21037,132.393141 C120.684255,133.619719 119.263035,134.187654 118.03615,133.66123 C116.809264,133.135115 116.241637,131.713895 116.767753,130.48701 C117.294176,129.260432 118.715395,128.692497 119.941973,129.218613 C121.168859,129.745036 121.737101,131.166255 121.21037,132.393141" id="Fill-50" fill="#FDDA64"></path>
                        <path d="M117.977511,133.213217 C116.849637,132.729228 116.327212,131.422702 116.811201,130.294828 C117.294883,129.166955 118.601409,128.645144 119.729283,129.128826 C120.857156,129.612508 121.379275,130.919341 120.895285,132.046907 C120.411603,133.174781 119.105078,133.696899 117.977511,133.213217 M119.941451,128.634689 C118.540833,128.033853 116.918208,128.68235 116.317372,130.08266 C115.716229,131.483585 116.364418,133.106211 117.76565,133.707047 C119.165961,134.30819 120.788586,133.659693 121.389729,132.258768 C121.990565,130.858458 121.341761,129.235525 119.941451,128.634689" id="Fill-52" fill="#FFE092"></path>
                        <polygon id="Fill-54" fill="#F8931F" points="119.47465 130.052004 119.43265 129.887004 119.34615 130.088504"></polygon>
                        <polygon id="Fill-56" fill="#FFF7A9" points="119.514962 129.617335 117.975051 130.733525 118.736704 131.431527"></polygon>
                        <polygon id="Fill-58" fill="#F8931F" points="119.514962 129.617335 119.766796 131.50225 118.736704 131.431527"></polygon>
                        <polygon id="Fill-60" fill="#FFF7A9" points="118.144478 132.811143 117.892644 130.925921 118.633695 131.671277"></polygon>
                        <polygon id="Fill-62" fill="#F8931F" points="118.144478 132.811143 119.684389 131.694647 118.633695 131.671277"></polygon>
                        <path d="M117.815064,132.16074 C116.68719,131.676751 116.165072,130.370225 116.649061,129.242659 C117.132743,128.114785 118.439269,127.592666 119.567143,128.076348 C120.695017,128.560338 121.216828,129.866556 120.733146,130.99443 C120.249464,132.122304 118.942938,132.644422 117.815064,132.16074 M119.779311,127.582212 C118.378386,126.981376 116.756068,127.629873 116.154925,129.03049 C115.553782,130.431108 116.202278,132.053734 117.603203,132.654569 C119.003821,133.255712 120.626754,132.607216 121.227282,131.206291 C121.828425,129.805981 121.179929,128.183048 119.779311,127.582212" id="Fill-64" fill="#F8931F"></path>
                        <path d="M120.933506,131.125667 C120.407083,132.352245 118.985864,132.920179 117.758978,132.394064 C116.5324,131.86764 115.964465,130.446421 116.490889,129.219843 C117.017312,127.992957 118.438224,127.425023 119.665109,127.951446 C120.891995,128.477562 121.459622,129.898781 120.933506,131.125667" id="Fill-66" fill="#FDDA64"></path>
                        <path d="M117.700063,131.945743 C116.572496,131.461753 116.050378,130.155535 116.53406,129.027661 C117.01805,127.899788 118.324575,127.377669 119.452449,127.861351 C120.580323,128.345341 121.102134,129.651866 120.618144,130.77974 C120.134462,131.907614 118.827937,132.429425 117.700063,131.945743 M119.664617,127.367215 C118.263692,126.766379 116.641067,127.414876 116.040231,128.815493 C115.439088,130.216111 116.087584,131.838736 117.488202,132.439572 C118.88882,133.040715 120.511753,132.392219 121.112588,130.991601 C121.713424,129.590983 121.064927,127.96805 119.664617,127.367215" id="Fill-68" fill="#FFE092"></path>
                        <polygon id="Fill-70" fill="#F8931F" points="119.197978 128.78453 119.155478 128.61953 119.068978 128.82103"></polygon>
                        <polygon id="Fill-72" fill="#FFF7A9" points="119.23779 128.34983 117.698187 129.466019 118.459533 130.164022"></polygon>
                        <polygon id="Fill-74" fill="#F8931F" points="119.23779 128.34983 119.489932 130.234745 118.459533 130.164022"></polygon>
                        <polygon id="Fill-76" fill="#FFF7A9" points="117.867614 131.543669 117.615472 129.658447 118.356831 130.40411"></polygon>
                        <polygon id="Fill-78" fill="#F8931F" points="117.867614 131.543669 119.407525 130.427172 118.356831 130.40411"></polygon>
                        <path d="M117.491646,130.560223 C116.363772,130.076234 115.841961,128.770016 116.325951,127.642142 C116.809325,126.514268 118.116158,125.99215 119.243725,126.475832 C120.371599,126.959821 120.893717,128.266347 120.409727,129.393913 C119.926045,130.521787 118.61952,131.043905 117.491646,130.560223 M119.455893,125.981695 C118.054968,125.380859 116.43265,126.029356 115.831814,127.429973 C115.230671,128.830591 115.879168,130.453217 117.279785,131.054052 C118.680403,131.655196 120.303336,131.006699 120.904172,129.605774 C121.505007,128.205464 120.856511,126.582531 119.455893,125.981695" id="Fill-80" fill="#F8931F"></path>
                        <path d="M120.610088,129.52515 C120.083665,130.751728 118.662753,131.319662 117.435867,130.793547 C116.208982,130.267124 115.641047,128.845904 116.16747,127.619326 C116.693586,126.39244 118.115113,125.824506 119.341691,126.350929 C120.568269,126.877045 121.136511,128.298264 120.610088,129.52515" id="Fill-82" fill="#FDDA64"></path>
                        <path d="M117.376952,130.345226 C116.249078,129.861544 115.727268,128.555018 116.21095,127.427145 C116.694632,126.299271 118.001157,125.777152 119.129031,126.260834 C120.256905,126.744824 120.779023,128.05135 120.295034,129.179223 C119.811352,130.307097 118.504826,130.828908 117.376952,130.345226 M119.341199,125.766698 C117.940274,125.165862 116.317649,125.814359 115.716813,127.214976 C115.11567,128.615594 115.764166,130.238219 117.165091,130.839055 C118.565709,131.440198 120.188335,130.791702 120.789478,129.391084 C121.390314,127.990466 120.741509,126.367534 119.341199,125.766698" id="Fill-84" fill="#FFE092"></path>
                        <polygon id="Fill-86" fill="#F8931F" points="118.874591 127.184013 118.832591 127.019013 118.745591 127.220513"></polygon>
                        <polygon id="Fill-88" fill="#FFF7A9" points="118.91471 126.749344 117.3748 127.865841 118.136453 128.563536"></polygon>
                        <polygon id="Fill-90" fill="#F8931F" points="118.91471 126.749344 119.166545 128.634566 118.136453 128.563536"></polygon>
                        <polygon id="Fill-92" fill="#FFF7A9" points="117.544504 129.943152 117.292362 128.058237 118.033413 128.803593"></polygon>
                        <polygon id="Fill-94" fill="#F8931F" points="117.544504 129.943152 119.084107 128.826655 118.033413 128.803593"></polygon>
                        <path d="M101.809956,124.849424 C101.619312,123.637298 102.446768,122.499584 103.659509,122.308325 C104.871635,122.117374 106.009042,122.945445 106.199993,124.157571 C106.390944,125.370005 105.563488,126.507718 104.351055,126.69867 C103.138621,126.889621 102.001215,126.06155 101.809956,124.849424 M106.731336,124.074241 C106.493953,122.568462 105.081344,121.540215 103.575565,121.777597 C102.070093,122.014672 101.041846,123.427589 101.278921,124.933061 C101.516303,126.43884 102.92922,127.467088 104.434692,127.229705 C105.940471,126.99263 106.968411,125.579713 106.731336,124.074241" id="Fill-96" fill="#F8931F"></path>
                        <path d="M104.34675,126.937897 C103.028232,127.14576 101.790584,126.245122 101.583028,124.926296 C101.374858,123.607779 102.275804,122.370438 103.594321,122.162575 C104.913147,121.954712 106.150487,122.85535 106.35835,124.173868 C106.566214,125.492693 105.665268,126.730034 104.34675,126.937897" id="Fill-98" fill="#FDDA64"></path>
                        <path d="M101.930984,124.637748 C101.740033,123.425622 102.567489,122.287908 103.78023,122.096957 C104.992356,121.905698 106.129762,122.733769 106.320714,123.946202 C106.511972,125.158021 105.684209,126.296042 104.472083,126.486993 C103.259342,126.677945 102.121936,125.849874 101.930984,124.637748 M106.852057,123.862565 C106.614674,122.356786 105.202064,121.328539 103.696285,121.565921 C102.191121,121.802996 101.162566,123.215913 101.399641,124.721385 C101.637331,126.227164 103.049941,127.255411 104.555413,127.018029 C106.061192,126.780954 107.089131,125.368037 106.852057,123.862565" id="Fill-100" fill="#FFE092"></path>
                        <polygon id="Fill-102" fill="#F8931F" points="105.470169 124.193713 105.587169 124.070213 105.370169 124.104213"></polygon>
                        <polygon id="Fill-104" fill="#FFF7A9" points="105.793214 124.024551 104.028528 123.315479 103.843112 124.331734"></polygon>
                        <polygon id="Fill-106" fill="#F8931F" points="105.793214 124.024551 104.332021 125.241597 103.843112 124.331734"></polygon>
                        <polygon id="Fill-108" fill="#FFF7A9" points="102.360394 124.565365 103.821895 123.348319 103.585435 124.372568"></polygon>
                        <polygon id="Fill-110" fill="#F8931F" points="102.360394 124.565365 104.12508 125.274437 103.585435 124.372568"></polygon>
                        <path d="M85.4345992,129.825137 C85.2436478,128.613011 86.0714113,127.47499 87.2838449,127.284039 C88.4959711,127.093087 89.6336846,127.921158 89.824636,129.133284 C90.0155874,130.345411 89.1878239,131.483432 87.9756978,131.674383 C86.7629566,131.865334 85.6255506,131.037263 85.4345992,129.825137 M90.3556715,129.049647 C90.1182891,127.544175 88.7056794,126.515621 87.1999001,126.753311 C85.6947359,126.990386 84.6661813,128.403303 84.9032562,129.908467 C85.1409461,131.414246 86.5538633,132.442493 88.0590276,132.205111 C89.5648068,131.968036 90.5927464,130.555119 90.3556715,129.049647" id="Fill-112" fill="#F8931F"></path>
                        <path d="M87.9713929,131.913303 C86.6525677,132.121166 85.4152273,131.220527 85.207364,129.90201 C84.9995007,128.583184 85.9001393,127.345844 87.2189645,127.137981 C88.5374823,126.930117 89.7748226,127.830756 89.9826859,129.149581 C90.1905493,130.468099 89.2899106,131.705439 87.9713929,131.913303" id="Fill-114" fill="#FDDA64"></path>
                        <path d="M85.5553198,129.61343 C85.3643685,128.401304 86.1921319,127.263283 87.4045656,127.072332 C88.6166917,126.88138 89.7544053,127.709451 89.9453566,128.921577 C90.136308,130.133704 89.3085445,131.271417 88.0964184,131.462676 C86.8839848,131.653627 85.7462712,130.825556 85.5553198,129.61343 M90.4763921,128.83794 C90.2390097,127.332161 88.8267075,126.303914 87.3209283,126.541296 C85.8154565,126.778679 84.7872095,128.191596 85.0242844,129.697068 C85.2616668,131.202539 86.674584,132.230786 88.1800557,131.993404 C89.6855275,131.756329 90.7137745,130.343412 90.4763921,128.83794" id="Fill-116" fill="#FFE092"></path>
                        <polygon id="Fill-118" fill="#F8931F" points="89.0943431 129.169426 89.2113431 129.045926 88.9948431 129.079926"></polygon>
                        <polygon id="Fill-120" fill="#FFF7A9" points="89.4178573 128.999957 87.6531714 128.291192 87.4677548 129.307447"></polygon>
                        <polygon id="Fill-122" fill="#F8931F" points="89.4178573 128.999957 87.9563566 130.21731 87.4677548 129.307447"></polygon>
                        <polygon id="Fill-124" fill="#FFF7A9" points="85.9847298 129.541078 87.4462305 128.324032 87.2097706 129.347974"></polygon>
                        <polygon id="Fill-126" fill="#F8931F" points="85.9847298 129.541078 87.7497233 130.249843 87.2097706 129.347974"></polygon>
                        <path d="M34.9690092,156.548552 C34.7780578,155.336426 35.6058213,154.198712 36.8182549,154.007454 C38.0303811,153.816502 39.1680946,154.644573 39.359046,155.856699 C39.5499974,157.069133 38.7225414,158.206847 37.5101078,158.397798 C36.2976741,158.588749 35.1599606,157.760678 34.9690092,156.548552 M39.890389,155.77337 C39.6530066,154.26759 38.2403968,153.239343 36.7346176,153.476726 C35.2291459,153.713801 34.2008988,155.126718 34.4379737,156.632189 C34.6753561,158.137969 36.0882733,159.166216 37.5937451,158.928833 C39.0992168,158.691758 40.1274639,157.278841 39.890389,155.77337" id="Fill-128" fill="#F8931F"></path>
                        <path d="M37.5058029,158.637025 C36.1869777,158.844889 34.9496373,157.94425 34.741774,156.625425 C34.5342181,155.306907 35.4348568,154.069567 36.7533745,153.861703 C38.0718922,153.65384 39.3092326,154.554479 39.5170959,155.872996 C39.7249593,157.191822 38.8243206,158.429162 37.5058029,158.637025" id="Fill-130" fill="#FDDA64"></path>
                        <path d="M35.0896991,156.336845 C34.8987477,155.124719 35.7268187,153.987006 36.9389448,153.796054 C38.1513784,153.604795 39.2887845,154.432866 39.4797359,155.6453 C39.6706873,156.857426 38.8432313,157.99514 37.6307976,158.186091 C36.418364,158.377042 35.2806505,157.548971 35.0896991,156.336845 M40.0110788,155.561663 C39.7736965,154.055883 38.3610867,153.027636 36.8553075,153.265019 C35.3498357,153.502094 34.3215887,154.915011 34.5586636,156.420483 C34.796046,157.926262 36.2089632,158.954509 37.714435,158.717126 C39.2202142,158.480052 40.2481537,157.067134 40.0110788,155.561663" id="Fill-132" fill="#FFE092"></path>
                        <polygon id="Fill-134" fill="#F8931F" points="38.6287223 155.892841 38.7457223 155.769341 38.5292223 155.803341"></polygon>
                        <polygon id="Fill-136" fill="#FFF7A9" points="38.952544 155.723679 37.1875506 155.014914 37.002134 156.030862"></polygon>
                        <polygon id="Fill-138" fill="#F8931F" points="38.952544 155.723679 37.4910434 156.940725 37.002134 156.030862"></polygon>
                        <polygon id="Fill-140" fill="#FFF7A9" points="35.5191091 156.26477 36.9806097 155.047416 36.7441498 156.071666"></polygon>
                        <polygon id="Fill-142" fill="#F8931F" points="35.5191091 156.26477 37.2841025 156.973534 36.7441498 156.071666"></polygon>
                        <path d="M19.8761629,170.309044 C19.6852116,169.096917 20.512975,167.959204 21.7254087,167.768253 C22.9375348,167.577301 24.0749409,168.405065 24.2661997,169.617498 C24.4571511,170.829624 23.6293876,171.967338 22.4172615,172.158289 C21.2045204,172.349548 20.0671143,171.521477 19.8761629,170.309044 M24.7972352,169.533861 C24.5598528,168.028082 23.1472431,166.999835 21.6414639,167.237217 C20.1359921,167.474292 19.1080526,168.887209 19.3451275,170.392681 C19.5822024,171.89846 20.9951196,172.926707 22.5005913,172.689325 C24.0063706,172.45225 25.0343101,171.039333 24.7972352,169.533861" id="Fill-144" fill="#F8931F"></path>
                        <path d="M22.4129566,172.397486 C21.0941314,172.605349 19.8567911,171.704711 19.6489277,170.385885 C19.4410644,169.067368 20.341703,167.830027 21.6605283,167.622164 C22.979046,167.414301 24.2163863,168.314939 24.4242497,169.633765 C24.632113,170.952282 23.7314744,172.189623 22.4129566,172.397486" id="Fill-146" fill="#FDDA64"></path>
                        <path d="M19.9968528,170.097644 C19.8059014,168.885211 20.6336649,167.747497 21.8460986,167.556546 C23.0585322,167.365594 24.1959382,168.193665 24.3868896,169.405791 C24.577841,170.617917 23.7500775,171.755631 22.5379514,171.946582 C21.3252102,172.137534 20.1878042,171.30977 19.9968528,170.097644 M24.9179251,169.322154 C24.6805427,167.816375 23.267933,166.788128 21.7624612,167.02551 C20.2569895,167.262585 19.228435,168.675502 19.4658173,170.180974 C19.7031997,171.686753 21.1158095,172.715 22.6215887,172.477618 C24.1270604,172.240543 25.155,170.827626 24.9179251,169.322154" id="Fill-148" fill="#FFE092"></path>
                        <polygon id="Fill-150" fill="#F8931F" points="23.5360686 169.653802 23.6530686 169.529802 23.4360686 169.563802"></polygon>
                        <polygon id="Fill-152" fill="#FFF7A9" points="23.859421 169.48414 22.0947351 168.775375 21.909011 169.79163"></polygon>
                        <polygon id="Fill-154" fill="#F8931F" points="23.859421 169.48414 22.3979204 170.701493 21.909011 169.79163"></polygon>
                        <polygon id="Fill-156" fill="#FFF7A9" points="20.4262628 170.025261 21.8877635 168.807907 21.6513035 169.832157"></polygon>
                        <polygon id="Fill-158" fill="#F8931F" points="20.4262628 170.025261 22.1912562 170.734026 21.6513035 169.832157"></polygon>
                        <g id="Group-162" transform="translate(0.000000, 170.009763)">
                            <mask id="mask-4" fill="white">
                                <use xlink:href="#path-3"></use>
                            </mask>
                            <g id="Clip-161"></g>
                            <path d="M0.564920894,3.16545729 C0.373969514,1.95333114 1.20204047,0.815310118 2.41416662,0.624358739 C3.62660026,0.433407359 4.76400631,1.26147832 4.95495769,2.47360447 C5.14590907,3.68573062 4.31845309,4.82375164 3.10601945,5.01470302 C1.89358581,5.2056544 0.756179763,4.37758344 0.564920894,3.16545729 M5.48630066,2.38996715 C5.24891827,0.884187911 3.83630854,-0.144059133 2.3305293,0.0933232589 C0.825057556,0.33070565 -0.203189488,1.74331537 0.0338854139,3.24878712 C0.271267806,4.75456636 1.68449251,5.7828134 3.18996426,5.54543101 C4.69543601,5.30835611 5.72337556,3.8954389 5.48630066,2.38996715" id="Fill-160" fill="#F8931F" mask="url(#mask-4)"></path>
                        </g>
                        <path d="M3.10171459,175.263417 C1.78319685,175.47128 0.545549014,174.570642 0.337993167,173.252124 C0.130129829,171.933299 1.03076846,170.695958 2.3492862,170.488095 C3.66811143,170.280232 4.90545177,171.18087 5.11331511,172.499696 C5.32117845,173.818213 4.42053982,175.055554 3.10171459,175.263417" id="Fill-163" fill="#FDDA64"></path>
                        <path d="M0.685949014,172.963545 C0.494997635,171.751418 1.3227611,170.613397 2.53519474,170.422446 C3.74732089,170.231495 4.88472694,171.059566 5.07598581,172.271692 C5.26693719,173.483818 4.43917372,174.621531 3.22704757,174.81279 C2.01430644,175.003742 0.876900394,174.175671 0.685949014,172.963545 M5.60702129,172.188054 C5.3696389,170.682275 3.95702917,169.654028 2.45124993,169.891411 C0.946085677,170.128485 -0.0821613666,171.54171 0.154606045,173.047182 C0.392295926,174.552654 1.80521314,175.580901 3.31068489,175.343518 C4.81615664,175.106443 5.84440368,173.693526 5.60702129,172.188054" id="Fill-165" fill="#FFE092"></path>
                        <polygon id="Fill-167" fill="#F8931F" points="4.22516478 172.51951 4.34216478 172.39601 4.12516478 172.43001"></polygon>
                        <polygon id="Fill-169" fill="#FFF7A9" points="4.54848647 172.35004 2.78349304 171.641275 2.59838397 172.65753"></polygon>
                        <polygon id="Fill-171" fill="#F8931F" points="4.54848647 172.35004 3.0872933 173.567394 2.59838397 172.65753"></polygon>
                        <polygon id="Fill-173" fill="#FFF7A9" points="1.115359 172.891161 2.57685966 171.674115 2.34039974 172.698058"></polygon>
                        <polygon id="Fill-175" fill="#F8931F" points="1.115359 172.891161 2.88004494 173.599926 2.34039974 172.698058"></polygon>
                        <path d="M73.2674294,121.983524 C73.0764781,120.771397 73.9042415,119.633376 75.1163677,119.442425 C76.3288013,119.251474 77.4662074,120.079545 77.6571587,121.291671 C77.8484176,122.503797 77.0206541,123.641818 75.8082205,123.832769 C74.5957869,124.023721 73.4583808,123.19565 73.2674294,121.983524 M78.1885017,121.208033 C77.9511193,119.702562 76.5385096,118.674315 75.0327304,118.911697 C73.5272586,119.148772 72.4990116,120.561689 72.7360865,122.066853 C72.9734689,123.572633 74.3863861,124.60088 75.8918578,124.363497 C77.3976371,124.126422 78.4255766,122.713505 78.1885017,121.208033" id="Fill-177" fill="#F8931F"></path>
                        <path d="M75.8039156,124.071689 C74.4853979,124.279552 73.2477501,123.378914 73.0401942,122.060396 C72.8323309,120.741878 73.7329695,119.50423 75.0514873,119.296675 C76.3703125,119.088811 77.6076528,119.989142 77.8155162,121.307968 C78.0233795,122.626485 77.1227409,123.863826 75.8039156,124.071689" id="Fill-179" fill="#FDDA64"></path>
                        <path d="M73.3881501,121.771847 C73.1971987,120.559721 74.0249622,119.4217 75.2373958,119.230749 C76.4495219,119.039797 77.5872355,119.867868 77.7781869,121.079994 C77.9691382,122.292121 77.1413748,123.430142 75.9292486,123.621093 C74.716815,123.812044 73.5791014,122.983973 73.3881501,121.771847 M78.3095298,120.996357 C78.0718399,119.490578 76.6592302,118.462331 75.153451,118.699713 C73.6479792,118.937096 72.6197322,120.350013 72.8571146,121.855485 C73.094497,123.361264 74.5074142,124.389511 76.0125784,124.152129 C77.5183577,123.914746 78.5466047,122.501829 78.3095298,120.996357" id="Fill-181" fill="#FFE092"></path>
                        <polygon id="Fill-183" fill="#F8931F" points="76.9271733 121.327813 77.0436733 121.204313 76.8276733 121.238313"></polygon>
                        <polygon id="Fill-185" fill="#FFF7A9" points="77.2506875 121.15865 75.4860016 120.449578 75.3002775 121.465833"></polygon>
                        <polygon id="Fill-187" fill="#F8931F" points="77.2506875 121.15865 75.7894943 122.375696 75.3002775 121.465833"></polygon>
                        <polygon id="Fill-189" fill="#FFF7A9" points="73.8175601 121.699464 75.2790607 120.482418 75.0426008 121.50636"></polygon>
                        <polygon id="Fill-191" fill="#F8931F" points="73.8175601 121.699464 75.582246 122.408536 75.0426008 121.50636"></polygon>
                        <path d="M33.5979106,141.074633 C33.4069593,139.862507 34.2344152,138.724794 35.4471564,138.533535 C36.6592825,138.342583 37.7966886,139.170654 37.9879474,140.382781 C38.1788988,141.594907 37.3508279,142.732928 36.1390092,142.923879 C34.9262681,143.11483 33.788862,142.28676 33.5979106,141.074633 M38.5189829,140.299451 C38.2816005,138.793671 36.8689908,137.765424 35.3632116,138.002807 C33.8577398,138.239882 32.8294928,139.652799 33.0668752,141.158271 C33.3039501,142.66405 34.7168673,143.692297 36.222339,143.454915 C37.7281183,143.21784 38.7560578,141.804922 38.5189829,140.299451" id="Fill-193" fill="#F8931F"></path>
                        <path d="M36.1343968,143.163106 C34.8158791,143.37097 33.5782313,142.470024 33.3706754,141.151506 C33.1628121,139.832988 34.0634507,138.595648 35.3819685,138.387784 C36.7004862,138.179921 37.938134,139.08056 38.1459974,140.399078 C38.3538607,141.717595 37.4529146,142.955243 36.1343968,143.163106" id="Fill-195" fill="#FDDA64"></path>
                        <path d="M33.7186005,140.862957 C33.5276491,139.650831 34.3554126,138.513117 35.5678463,138.321859 C36.7799724,138.130907 37.9176859,138.958978 38.1086373,140.171104 C38.2995887,141.383538 37.4718252,142.521252 36.2596991,142.712203 C35.0472654,142.903154 33.9095519,142.075083 33.7186005,140.862957 M38.6396728,140.087775 C38.4022904,138.581995 36.9896807,137.553748 35.4839014,137.791131 C33.9784297,138.028206 32.9501827,139.441123 33.187565,140.946594 C33.4246399,142.452374 34.8375572,143.480621 36.3430289,143.243238 C37.8488081,143.005856 38.8767477,141.593246 38.6396728,140.087775" id="Fill-197" fill="#FFE092"></path>
                        <polygon id="Fill-199" fill="#F8931F" points="37.2578163 140.418923 37.3748163 140.295423 37.1578163 140.329423"></polygon>
                        <polygon id="Fill-201" fill="#FFF7A9" points="37.5808612 140.24976 35.8164828 139.540688 35.6307587 140.556943"></polygon>
                        <polygon id="Fill-203" fill="#F8931F" points="37.5808612 140.24976 36.1196681 141.466806 35.6307587 140.556943"></polygon>
                        <polygon id="Fill-205" fill="#FFF7A9" points="34.1480105 140.790881 35.6095112 139.573528 35.3730512 140.59747"></polygon>
                        <polygon id="Fill-207" fill="#F8931F" points="34.1480105 140.790881 35.9130039 141.499646 35.3730512 140.59747"></polygon>
                        <path d="M88.2551756,117.398507 C88.0639167,116.186381 88.8919876,115.048668 90.1044213,114.857716 C91.3165474,114.666457 92.4539535,115.494528 92.6449049,116.706654 C92.8361637,117.919088 92.0084003,119.056802 90.7959666,119.247753 C89.5838405,119.438704 88.4461269,118.610633 88.2551756,117.398507 M93.1762478,116.623325 C92.9388654,115.117545 91.5262557,114.089298 90.0204765,114.326681 C88.5150047,114.563756 87.4867577,115.976673 87.7238326,117.482145 C87.9615225,118.987924 89.3744397,120.016171 90.8796039,119.778788 C92.3853832,119.541714 93.4133227,118.128796 93.1762478,116.623325" id="Fill-225" fill="#F8931F"></path>
                        <path d="M90.7916618,119.48698 C89.473144,119.694844 88.2354962,118.794205 88.0279403,117.47538 C87.820077,116.156862 88.7207156,114.919522 90.0392334,114.711658 C91.3580586,114.503795 92.5953989,115.404434 92.8032623,116.722951 C93.0111256,118.041469 92.110487,119.279117 90.7916618,119.48698" id="Fill-227" fill="#FDDA64"></path>
                        <path d="M88.3758962,117.1868 C88.1849448,115.974674 89.0127083,114.836961 90.2251419,114.645702 C91.4372681,114.45475 92.5746741,115.282821 92.7656255,116.494947 C92.9568844,117.707381 92.1291209,118.845095 90.9169947,119.036046 C89.7045611,119.226997 88.5668476,118.398926 88.3758962,117.1868 M93.2969685,116.411618 C93.0598936,114.905838 91.6469763,113.877591 90.1411971,114.114974 C88.6357254,114.352049 87.6074783,115.764966 87.8445532,117.270438 C88.0819356,118.776217 89.4951603,119.804464 91.0006321,119.567081 C92.5064113,119.330007 93.5340434,117.917089 93.2969685,116.411618" id="Fill-229" fill="#FFE092"></path>
                        <polygon id="Fill-231" fill="#F8931F" points="91.9150812 116.742796 92.0320812 116.619296 91.8150812 116.653296"></polygon>
                        <polygon id="Fill-233" fill="#FFF7A9" points="92.2384336 116.573634 90.4734402 115.864869 90.2883311 116.880817"></polygon>
                        <polygon id="Fill-235" fill="#F8931F" points="92.2384336 116.573634 90.776933 117.79068 90.2883311 116.880817"></polygon>
                        <polygon id="Fill-237" fill="#FFF7A9" points="88.8052754 117.114725 90.2667761 115.897371 90.0303162 116.921621"></polygon>
                        <polygon id="Fill-239" fill="#F8931F" points="88.8052754 117.114725 90.5699614 117.823489 90.0303162 116.921621"></polygon>
                        <path d="M63.1625961,139.982213 C62.289324,139.120011 62.2800993,137.713243 63.1423017,136.839664 C64.0041966,135.966392 65.4112715,135.957167 66.2845435,136.81937 C67.158123,137.681572 67.1670402,139.088339 66.3054528,139.961919 C65.442943,140.835191 64.036483,140.844416 63.1625961,139.982213 M66.6624489,136.436852 C65.5776237,135.365864 63.8304647,135.377241 62.7594765,136.462373 C61.6887958,137.546891 61.7001729,139.294358 62.7849982,140.365038 C63.8698234,141.435719 65.6169824,141.424034 66.6879706,140.339517 C67.7586512,139.254691 67.7472741,137.507225 66.6624489,136.436852" id="Fill-241" fill="#F8931F"></path>
                        <path d="M66.4437926,140.156683 C65.5059477,141.106828 63.9758767,141.116975 63.0254247,140.17913 C62.0755876,139.241285 62.0654405,137.710906 63.0032854,136.760762 C63.9408229,135.810617 65.4712013,135.800778 66.4213459,136.738623 C67.3714904,137.676468 67.3816376,139.206539 66.4437926,140.156683" id="Fill-243" fill="#FDDA64"></path>
                        <path d="M63.1343685,139.740188 C62.260789,138.877985 62.2515643,137.471218 63.1140741,136.597638 C63.9756615,135.724366 65.3827364,135.715142 66.2560084,136.577344 C67.1295879,137.439546 67.1388126,138.846314 66.2769177,139.719893 C65.4147154,140.593165 64.0076405,140.60239 63.1343685,139.740188 M66.6339138,136.194826 C65.5493961,135.123838 63.8019296,135.135215 62.7309414,136.22004 C61.6605682,137.304866 61.6719453,139.052332 62.7564631,140.123013 C63.8412883,141.193694 65.5884473,141.182009 66.6594355,140.097491 C67.7298087,139.012666 67.7184315,137.265199 66.6339138,136.194826" id="Fill-245" fill="#FFE092"></path>
                        <polygon id="Fill-247" fill="#F8931F" points="65.7108469 137.331529 65.7318469 137.162529 65.5773469 137.319029"></polygon>
                        <polygon id="Fill-249" fill="#FFF7A9" points="65.878349 136.953558 64.0374055 137.43109 64.491261 138.358481"></polygon>
                        <polygon id="Fill-251" fill="#F8931F" points="65.878349 136.953558 65.4248011 138.800652 64.491261 138.358481"></polygon>
                        <polygon id="Fill-253" fill="#FFF7A9" points="63.4370618 139.427286 63.8903022 137.580192 64.3078739 138.544481"></polygon>
                        <polygon id="Fill-255" fill="#F8931F" points="63.4370618 139.427286 65.2776978 138.949753 64.3078739 138.544481"></polygon>
                        <path d="M51.0371527,163.144277 C50.1638807,162.282075 50.154656,160.875307 51.0168583,160.001728 C51.8787532,159.128456 53.2855206,159.119231 54.1591001,159.981434 C55.0326796,160.843636 55.0415968,162.250403 54.179702,163.123983 C53.3174996,163.997255 51.9104247,164.00648 51.0371527,163.144277 M54.5370055,159.598916 C53.4521803,158.527928 51.7047138,158.539305 50.6340331,159.62413 C49.5633524,160.708955 49.5747296,162.456422 50.6592473,163.526795 C51.74438,164.597783 53.491539,164.586099 54.5625272,163.501581 C55.6329004,162.416756 55.6215233,160.669289 54.5370055,159.598916" id="Fill-257" fill="#F8931F"></path>
                        <path d="M54.3180418,163.318747 C53.3805043,164.268892 51.8501259,164.279039 50.8999813,163.340886 C49.9498368,162.403349 49.9399971,160.872971 50.877842,159.922826 C51.8153795,158.972681 53.345758,158.962842 54.2959025,159.900687 C55.246047,160.838532 55.2561942,162.368603 54.3180418,163.318747" id="Fill-259" fill="#FDDA64"></path>
                        <path d="M51.0086176,162.902252 C50.1350381,162.040049 50.1261209,160.633282 50.9883233,159.759702 C51.8502181,158.886123 53.2569855,158.877206 54.130565,159.739408 C55.0041445,160.601611 55.0130618,162.008378 54.1511669,162.881957 C53.289272,163.755229 51.8821971,163.764454 51.0086176,162.902252 M54.5084704,159.35689 C53.4236452,158.285902 51.6761787,158.297279 50.605498,159.382105 C49.5351248,160.46693 49.5461945,162.214396 50.6310197,163.28477 C51.7158449,164.355758 53.4630039,164.344073 54.5336846,163.259248 C55.6043653,162.17473 55.5929882,160.427264 54.5084704,159.35689" id="Fill-261" fill="#FFE092"></path>
                        <polygon id="Fill-263" fill="#F8931F" points="53.5851268 160.493562 53.6061268 160.324562 53.4516268 160.481062"></polygon>
                        <polygon id="Fill-265" fill="#FFF7A9" points="53.7529057 160.115622 51.9119622 160.593155 52.3661251 161.520545"></polygon>
                        <polygon id="Fill-267" fill="#F8931F" points="53.7529057 160.115622 53.2993577 161.962716 52.3661251 161.520545"></polygon>
                        <polygon id="Fill-269" fill="#FFF7A9" points="51.3113109 162.589042 51.7648589 160.741949 52.1824305 161.706546"></polygon>
                        <polygon id="Fill-271" fill="#F8931F" points="51.3113109 162.589042 53.1522544 162.111818 52.1824305 161.706546"></polygon>
                        <path d="M4.04792326,152.899198 C3.17434376,152.036995 3.16542654,150.630228 4.02732142,149.756648 C4.88952378,148.883069 6.2962912,148.874152 7.1698707,149.736354 C8.04314271,150.598556 8.05205992,152.005324 7.19047254,152.878903 C6.32827017,153.752175 4.92150276,153.7614 4.04792326,152.899198 M7.54746859,149.353529 C6.46295085,148.282848 4.71548436,148.294225 3.64449619,149.37905 C2.57381551,150.463876 2.58550013,152.211342 3.67001787,153.281715 C4.75515059,154.352704 6.5020021,154.341019 7.57299028,153.256194 C8.64367096,152.171676 8.63229382,150.424209 7.54746859,149.353529" id="Fill-273" fill="#F8931F"></path>
                        <path d="M7.32881235,153.073668 C6.39096741,154.023812 4.86089645,154.033652 3.91075191,153.095807 C2.96060736,152.158269 2.95046018,150.627891 3.88861261,149.677746 C4.82584258,148.727602 6.35652852,148.717762 7.30667306,149.655607 C8.25681761,150.593452 8.26665729,152.123523 7.32881235,153.073668" id="Fill-275" fill="#FDDA64"></path>
                        <path d="M4.01938817,152.657172 C3.14580867,151.79497 3.13658397,150.388202 3.99909382,149.514623 C4.8609887,148.641043 6.26775611,148.632126 7.14133561,149.494329 C8.01460762,150.356531 8.02383233,151.763298 7.16193745,152.636878 C6.29973509,153.509842 4.89296767,153.519375 4.01938817,152.657172 M7.51893351,149.111503 C6.43441577,148.040823 4.68694928,148.0522 3.6159611,149.137025 C2.54558791,150.22185 2.55696505,151.969317 3.64148279,153.03969 C4.72630802,154.110678 6.47377451,154.098993 7.54445519,153.014168 C8.61513587,151.92965 8.60375874,150.182184 7.51893351,149.111503" id="Fill-277" fill="#FFE092"></path>
                        <polygon id="Fill-279" fill="#F8931F" points="6.59586662 150.248513 6.61686662 150.079513 6.46236662 150.236013"></polygon>
                        <polygon id="Fill-281" fill="#FFF7A9" points="6.76336873 149.870543 4.92273272 150.348075 5.37658817 151.275465"></polygon>
                        <polygon id="Fill-283" fill="#F8931F" points="6.76336873 149.870543 6.30982076 151.717636 5.37658817 151.275465"></polygon>
                        <polygon id="Fill-285" fill="#FFF7A9" points="4.32208147 152.343963 4.77562943 150.496869 5.19320105 151.461466"></polygon>
                        <polygon id="Fill-287" fill="#F8931F" points="4.32208147 152.343963 6.16302497 151.86643 5.19320105 151.461466"></polygon>
                        <path d="M74.7288993,157.920542 C73.8553198,157.05834 73.8460951,155.651265 74.708605,154.777993 C75.5701924,153.904414 76.9772673,153.895189 77.8505393,154.757391 C78.7241188,155.619594 78.7333435,157.026669 77.8714486,157.899941 C77.0092463,158.773213 75.6021714,158.782745 74.7288993,157.920542 M78.2284447,154.374874 C77.1439269,153.303885 75.3964604,153.315263 74.3254723,154.400395 C73.2550991,155.484913 73.2664762,157.23238 74.350994,158.30306 C75.4361267,159.373741 77.1832857,159.362056 78.2539664,158.277539 C79.324647,157.193021 79.3129624,155.445554 78.2284447,154.374874" id="Fill-289" fill="#F8931F"></path>
                        <path d="M78.0098192,158.095012 C77.0722817,159.045157 75.5415958,159.054997 74.5914512,158.117152 C73.6416142,157.179307 73.6317745,155.648928 74.569312,154.698784 C75.5071569,153.748639 77.0375353,153.738799 77.9876799,154.676644 C78.9378244,155.614489 78.9476641,157.144868 78.0098192,158.095012" id="Fill-291" fill="#FDDA64"></path>
                        <path d="M74.700395,157.678517 C73.8268155,156.816315 73.8178983,155.40924 74.6797932,154.535968 C75.5419955,153.662388 76.9487629,153.653163 77.8223424,154.515366 C78.6956145,155.377568 78.7048392,156.784643 77.8429443,157.657915 C76.9807419,158.531187 75.5739745,158.540719 74.700395,157.678517 M78.1999403,154.132848 C77.1154226,153.06186 75.3679561,153.073237 74.2969679,154.15837 C73.2265947,155.242888 73.2379719,156.990354 74.3224896,158.061035 C75.4076223,159.131715 77.1544739,159.120031 78.225462,158.035513 C79.2961427,156.950995 79.2847656,155.203221 78.1999403,154.132848" id="Fill-293" fill="#FFE092"></path>
                        <polygon id="Fill-295" fill="#F8931F" points="77.2768735 155.26955 77.2978735 155.10055 77.1433735 155.25705"></polygon>
                        <polygon id="Fill-297" fill="#FFF7A9" points="77.4443756 154.891888 75.6034321 155.369112 76.057595 156.29681"></polygon>
                        <polygon id="Fill-299" fill="#F8931F" points="77.4443756 154.891888 76.9908276 156.738981 76.057595 156.29681"></polygon>
                        <polygon id="Fill-301" fill="#FFF7A9" points="75.0030576 157.365307 75.456298 155.518214 75.8741771 156.482503"></polygon>
                        <polygon id="Fill-303" fill="#F8931F" points="75.0030576 157.365307 76.8440011 156.887775 75.8741771 156.482503"></polygon>
                        <path d="M44.6522428,177.143473 C43.7786633,176.281271 43.7697461,174.874504 44.6319485,174.000924 C45.4938434,173.127652 46.9006108,173.118427 47.7741903,173.98063 C48.6477698,174.842832 48.656687,176.249599 47.7947921,177.123179 C46.9325898,177.996451 45.5258223,178.005676 44.6522428,177.143473 M48.1517882,173.598112 C47.0672704,172.527124 45.3198039,172.538501 44.2488158,173.623634 C43.1784426,174.708151 43.1898197,176.455618 44.2743375,177.526299 C45.3594702,178.596979 47.1066292,178.585295 48.1773099,177.500777 C49.2479905,176.415952 49.2366134,174.668485 48.1517882,173.598112" id="Fill-321" fill="#F8931F"></path>
                        <path d="M47.9334394,177.317943 C46.995287,178.268088 45.465216,178.278235 44.5150715,177.34039 C43.5649269,176.402545 43.5550873,174.872167 44.4929322,173.922022 C45.4301622,172.971878 46.9608481,172.962038 47.9109926,173.899883 C48.8611372,174.837728 48.8709769,176.367799 47.9334394,177.317943" id="Fill-323" fill="#FDDA64"></path>
                        <path d="M44.6237078,176.901448 C43.7501283,176.039245 43.741211,174.632478 44.6034134,173.758899 C45.4653083,172.885627 46.8720757,172.876402 47.7456552,173.738604 C48.6192347,174.600807 48.6281519,176.007574 47.766257,176.881153 C46.9040547,177.754425 45.4972873,177.76365 44.6237078,176.901448 M48.1232531,173.356086 C47.0387353,172.285098 45.2912689,172.296475 44.2205882,173.381301 C43.1499075,174.466126 43.1612846,176.213592 44.2461099,177.284273 C45.3309351,178.354954 47.0780941,178.343269 48.1487748,177.258751 C49.2194555,176.173926 49.2080783,174.42646 48.1232531,173.356086" id="Fill-325" fill="#FFE092"></path>
                        <polygon id="Fill-327" fill="#F8931F" points="47.2001862 174.492789 47.2211862 174.323789 47.0666862 174.480289"></polygon>
                        <polygon id="Fill-329" fill="#FFF7A9" points="47.3676883 174.114818 45.5270523 174.592351 45.9809078 175.519741"></polygon>
                        <polygon id="Fill-331" fill="#F8931F" points="47.3676883 174.114818 46.9141403 175.961912 45.9809078 175.519741"></polygon>
                        <polygon id="Fill-333" fill="#FFF7A9" points="44.9264011 176.588546 45.379949 174.741145 45.7978281 175.705742"></polygon>
                        <polygon id="Fill-335" fill="#F8931F" points="44.9264011 176.588546 46.7673445 176.111014 45.7978281 175.705742"></polygon>
                        <path d="M106.41542,134.04381 C105.541841,133.181607 105.532924,131.774532 106.395126,130.90126 C107.257021,130.027681 108.663788,130.018456 109.537368,130.880659 C110.41064,131.742861 110.419865,133.149936 109.55797,134.023208 C108.695767,134.89648 107.288693,134.906012 106.41542,134.04381 M109.914966,130.498141 C108.830448,129.42746 107.082982,129.438837 106.011993,130.523663 C104.94162,131.60818 104.952997,133.355647 106.037515,134.426327 C107.122648,135.497008 108.869807,135.485324 109.940488,134.400806 C111.011168,133.316288 110.999791,131.568822 109.914966,130.498141" id="Fill-337" fill="#F8931F"></path>
                        <path d="M109.69631,134.21828 C108.758772,135.168424 107.228394,135.178264 106.278249,134.240419 C105.328105,133.302574 105.318265,131.772196 106.25611,130.822358 C107.193647,129.871906 108.724026,129.862067 109.67417,130.799912 C110.624315,131.737757 110.634462,133.268135 109.69631,134.21828" id="Fill-339" fill="#FDDA64"></path>
                        <path d="M106.386885,133.801784 C105.513306,132.939582 105.504389,131.532507 106.366284,130.659235 C107.228486,129.785655 108.635253,129.776431 109.508833,130.638633 C110.382105,131.500835 110.39133,132.90791 109.529435,133.781182 C108.667232,134.654454 107.260465,134.663987 106.386885,133.801784 M109.886738,130.256115 C108.801913,129.185127 107.054447,129.196504 105.983766,130.281637 C104.913085,131.366155 104.924462,133.113621 106.009288,134.184302 C107.094113,135.254983 108.841272,135.243298 109.911952,134.15878 C110.982633,133.074263 110.971256,131.326796 109.886738,130.256115" id="Fill-341" fill="#FFE092"></path>
                        <polygon id="Fill-343" fill="#F8931F" points="108.963364 131.392818 108.984364 131.223818 108.829864 131.380318"></polygon>
                        <polygon id="Fill-345" fill="#FFF7A9" points="109.131173 131.015155 107.289922 131.49238 107.744085 132.420077"></polygon>
                        <polygon id="Fill-347" fill="#F8931F" points="109.131173 131.015155 108.677625 132.862248 107.744085 132.420077"></polygon>
                        <polygon id="Fill-349" fill="#FFF7A9" points="106.689579 133.488575 107.143127 131.641481 107.560698 132.605771"></polygon>
                        <polygon id="Fill-351" fill="#F8931F" points="106.689579 133.488575 108.530522 133.011043 107.560698 132.605771"></polygon>
                        <path d="M94.5043593,133.142648 C93.6310873,132.280446 93.6218625,130.873371 94.4840649,130.000099 C95.3459598,129.12652 96.7527272,129.117295 97.6263067,129.979497 C98.4998862,130.8417 98.5088034,132.248467 97.6469085,133.122047 C96.7847062,133.995319 95.3779388,134.004851 94.5043593,133.142648 M98.0039046,129.59698 C96.9193869,128.525991 95.1719204,128.537368 94.1012397,129.622501 C93.030559,130.707019 93.0419361,132.454485 94.1264539,133.525166 C95.2115866,134.595847 96.9587456,134.58447 98.0297338,133.499644 C99.100107,132.414819 99.0887298,130.66766 98.0039046,129.59698" id="Fill-353" fill="#F8931F"></path>
                        <path d="M97.7855558,133.317118 C96.8477109,134.267263 95.3173325,134.277102 94.3671879,133.339258 C93.4170434,132.401413 93.4072037,130.871034 94.3450486,129.921197 C95.2825861,128.971053 96.8129645,128.960905 97.7631091,129.89875 C98.7132536,130.836595 98.7234008,132.366974 97.7855558,133.317118" id="Fill-355" fill="#FDDA64"></path>
                        <path d="M94.4758549,132.900623 C93.6025829,132.038113 93.5933582,130.631346 94.4555606,129.757766 C95.3174555,128.884494 96.7245304,128.875269 97.5978024,129.737472 C98.4713819,130.599674 98.4806066,132.006442 97.6184042,132.880021 C96.7562018,133.753293 95.3494344,133.762518 94.4758549,132.900623 M97.9757078,129.354954 C96.8908825,128.283966 95.143416,128.295343 94.0727353,129.380476 C93.0020547,130.464993 93.0134318,132.21246 94.098257,133.283141 C95.1830823,134.353821 96.9302413,134.342137 98.0012294,133.257619 C99.0716026,132.172794 99.0602255,130.425327 97.9757078,129.354954" id="Fill-357" fill="#FFE092"></path>
                        <polygon id="Fill-359" fill="#F8931F" points="97.0528026 130.491656 97.0733026 130.322656 96.9188026 130.479156"></polygon>
                        <polygon id="Fill-361" fill="#FFF7A9" points="97.220143 130.113993 95.3791995 130.591526 95.8330549 131.518916"></polygon>
                        <polygon id="Fill-363" fill="#F8931F" points="97.220143 130.113993 96.766595 131.961087 95.8330549 131.518916"></polygon>
                        <polygon id="Fill-365" fill="#FFF7A9" points="94.7785175 132.587444 95.2320654 130.740351 95.6496371 131.70464"></polygon>
                        <polygon id="Fill-367" fill="#F8931F" points="94.7785175 132.587444 96.619461 132.109912 95.6496371 131.70464"></polygon>
                        <path d="M93.2317806,145.848848 C92.3585085,144.986646 92.3492838,143.579879 93.2114862,142.706299 C94.0730736,141.83272 95.4801485,141.823802 96.353728,142.686005 C97.2273075,143.548207 97.2362247,144.954975 96.3746373,145.828554 C95.5121275,146.701519 94.1053601,146.711051 93.2317806,145.848848 M96.7313259,142.30318 C95.6468081,141.232499 93.8996491,141.243876 92.828661,142.328701 C91.7579803,143.413526 91.7693574,145.160993 92.8541827,146.231366 C93.9390079,147.302354 95.6861669,147.29067 96.7568476,146.205844 C97.8275283,145.121327 97.8161511,143.37386 96.7313259,142.30318" id="Fill-369" fill="#F8931F"></path>
                        <path d="M96.5126696,146.023318 C95.5751322,146.973463 94.0447537,146.983302 93.0946092,146.045458 C92.1444647,145.107613 92.134625,143.577542 93.0724699,142.627397 C94.0100074,141.677253 95.5403858,141.667413 96.4905304,142.605258 C97.4406749,143.542795 97.4508221,145.073174 96.5126696,146.023318" id="Fill-371" fill="#FDDA64"></path>
                        <path d="M93.2032455,145.606823 C92.329666,144.74462 92.3207488,143.337853 93.1829511,142.464274 C94.044846,141.590694 95.4519209,141.581777 96.3251929,142.443979 C97.1984649,143.306182 97.2076896,144.712949 96.3457947,145.586529 C95.4835924,146.459493 94.076825,146.469025 93.2032455,145.606823 M96.7030983,142.061154 C95.6182731,140.990473 93.8708066,141.00185 92.8001259,142.086676 C91.7294452,143.171501 91.7408223,144.918967 92.8256476,145.989341 C93.9104728,147.060329 95.6576318,147.048644 96.72862,145.963819 C97.7989932,144.879301 97.787616,143.131835 96.7030983,142.061154" id="Fill-373" fill="#FFE092"></path>
                        <polygon id="Fill-375" fill="#F8931F" points="95.7795314 143.198164 95.8005314 143.029164 95.6465314 143.185664"></polygon>
                        <polygon id="Fill-377" fill="#FFF7A9" points="95.947226 142.820193 94.10659 143.297726 94.5604455 144.225116"></polygon>
                        <polygon id="Fill-379" fill="#F8931F" points="95.947226 142.820193 95.4939855 144.667287 94.5604455 144.225116"></polygon>
                        <polygon id="Fill-381" fill="#FFF7A9" points="93.5062155 145.293613 93.959456 143.44652 94.3770276 144.411117"></polygon>
                        <polygon id="Fill-383" fill="#F8931F" points="93.5062155 145.293613 95.3468515 144.816081 94.3770276 144.411117"></polygon>
                        <path d="M79.5706699,140.503194 C78.6970904,139.640991 78.6878657,138.234224 79.5503756,137.360644 C80.4119629,136.487065 81.8190378,136.478148 82.6923099,137.34035 C83.5658894,138.202552 83.5751141,139.60932 82.7132192,140.482899 C81.8510168,141.355864 80.4439419,141.365396 79.5706699,140.503194 M83.0702152,136.957525 C81.9856975,135.886844 80.238231,135.898221 79.1672428,136.983047 C78.0968696,138.067872 78.1082468,139.815338 79.1927645,140.885711 C80.2775898,141.9567 82.0250562,141.945015 83.0957369,140.860497 C84.1661101,139.775672 84.154733,138.028206 83.0702152,136.957525" id="Fill-385" fill="#F8931F"></path>
                        <path d="M82.851559,140.677664 C81.9140216,141.627808 80.3833356,141.637648 79.4334986,140.70011 C78.483354,139.762265 78.4735143,138.231887 79.4110518,137.281742 C80.3488967,136.331598 81.8792752,136.321758 82.8294197,137.259603 C83.7795643,138.197141 83.7894039,139.727519 82.851559,140.677664" id="Fill-387" fill="#FDDA64"></path>
                        <path d="M79.5421348,140.261168 C78.6685553,139.398966 78.6596381,137.992198 79.521533,137.118619 C80.3834279,136.245039 81.7905028,136.236122 82.6637748,137.098325 C83.5373543,137.960527 83.546579,139.367294 82.6846841,140.240874 C81.8224817,141.113838 80.4157143,141.123371 79.5421348,140.261168 M83.0416802,136.715499 C81.9571624,135.644819 80.2096959,135.656196 79.1387078,136.741021 C78.0680271,137.825846 78.0797117,139.573313 79.1642294,140.643686 C80.2493622,141.714674 81.9962137,141.702989 83.0672018,140.618164 C84.1378825,139.533647 84.1265054,137.78618 83.0416802,136.715499" id="Fill-389" fill="#FFE092"></path>
                        <polygon id="Fill-391" fill="#F8931F" points="82.118644 137.852509 82.139144 137.683509 81.985144 137.840009"></polygon>
                        <polygon id="Fill-393" fill="#FFF7A9" points="82.2861461 137.474539 80.4452026 137.952071 80.8993656 138.879461"></polygon>
                        <polygon id="Fill-395" fill="#F8931F" points="82.2861461 137.474539 81.8325982 139.321632 80.8993656 138.879461"></polygon>
                        <polygon id="Fill-397" fill="#FFF7A9" points="79.8445206 139.947989 80.2980686 138.100896 80.7159477 139.065493"></polygon>
                        <polygon id="Fill-399" fill="#F8931F" points="79.8445206 139.947989 81.6854641 139.470457 80.7159477 139.065493"></polygon>
                        <path d="M64.3316121,153.96462 C63.4580326,153.102418 63.4491154,151.695343 64.3110102,150.822071 C65.1732126,149.948491 66.57998,149.939267 67.4535595,150.801469 C68.3268315,151.663671 68.3360562,153.070746 67.4741614,153.944018 C66.611959,154.81729 65.2051916,154.826823 64.3316121,153.96462 M67.8311574,150.418951 C66.7466397,149.348271 64.9991732,149.359648 63.928185,150.444473 C62.8575043,151.528991 62.869189,153.276457 63.9537067,154.347138 C65.0388394,155.417819 66.7859984,155.406134 67.8566791,154.321616 C68.9273598,153.237099 68.9159827,151.489632 67.8311574,150.418951" id="Fill-401" fill="#F8931F"></path>
                        <path d="M67.6125012,154.139059 C66.6746562,155.089204 65.1445853,155.099044 64.1944407,154.161199 C63.2442962,153.223354 63.2344565,151.692975 64.1723014,150.742831 C65.1095314,149.792686 66.6402173,149.782847 67.5903619,150.720691 C68.5405064,151.658536 68.5503461,153.188915 67.6125012,154.139059" id="Fill-403" fill="#FDDA64"></path>
                        <path d="M64.303077,153.722564 C63.4294975,152.860362 63.4202728,151.453287 64.2827827,150.580015 C65.1446775,149.706435 66.5514449,149.697211 67.4250244,150.559413 C68.2986039,151.421615 68.3075212,152.82869 67.4456263,153.701962 C66.5834239,154.575234 65.1766565,154.584766 64.303077,153.722564 M67.8026223,150.176895 C66.7181046,149.106214 64.9706381,149.117284 63.8999574,150.202417 C62.8292767,151.286935 62.8406539,153.034401 63.9251716,154.105082 C65.0099968,155.175762 66.7574633,155.164078 67.828144,154.07956 C68.8988247,152.995042 68.8874476,151.247576 67.8026223,150.176895" id="Fill-405" fill="#FFE092"></path>
                        <polygon id="Fill-407" fill="#F8931F" points="66.8795555 151.313597 66.9005555 151.144597 66.7460555 151.301097"></polygon>
                        <polygon id="Fill-409" fill="#FFF7A9" points="67.0470576 150.935935 65.2064216 151.413159 65.660277 152.340857"></polygon>
                        <polygon id="Fill-411" fill="#F8931F" points="67.0470576 150.935935 66.5938171 152.783028 65.660277 152.340857"></polygon>
                        <polygon id="Fill-413" fill="#FFF7A9" points="64.6057703 153.409385 65.0593183 151.562292 65.4771974 152.526581"></polygon>
                        <polygon id="Fill-415" fill="#F8931F" points="64.6057703 153.409385 66.4467138 152.931853 65.4771974 152.526581"></polygon>
                        <path d="M58.3406586,177.06451 C57.4673866,176.202615 57.4581619,174.79554 58.3203643,173.922268 C59.1825666,173.048689 60.5890265,173.039464 61.4629135,173.901666 C62.3361855,174.763869 62.3451028,176.170943 61.4832079,177.044216 C60.621313,177.917488 59.2142381,177.92702 58.3406586,177.06451 M61.8405114,173.519148 C60.7556862,172.44816 59.0085272,172.459537 57.937539,173.54467 C56.8671658,174.629188 56.8782355,176.376654 57.9630607,177.447335 C59.0478859,178.518016 60.7950449,178.506331 61.8660331,177.421813 C62.9367138,176.337296 62.9253367,174.589522 61.8405114,173.519148" id="Fill-417" fill="#F8931F"></path>
                        <path d="M61.6218552,177.239257 C60.6840102,178.189401 59.1536318,178.199241 58.2034873,177.261396 C57.2536502,176.323551 57.243503,174.793172 58.181348,173.843028 C59.1188854,172.892883 60.6495714,172.883044 61.5994084,173.820889 C62.549553,174.758734 62.5597001,176.289112 61.6218552,177.239257" id="Fill-419" fill="#FDDA64"></path>
                        <path d="M58.312431,176.822484 C57.4388515,175.960589 57.4296268,174.553515 58.2921367,173.680243 C59.153724,172.806663 60.5607989,172.797438 61.434071,173.659641 C62.3076505,174.521843 62.3168752,175.928611 61.4549803,176.80219 C60.5927779,177.675462 59.185703,177.684994 58.312431,176.822484 M61.8119763,173.277123 C60.7274586,172.206135 58.9799921,172.217512 57.9090039,173.302645 C56.8386307,174.387162 56.8497004,176.134629 57.9345256,177.20531 C59.0196583,178.27599 60.7668173,178.264306 61.837498,177.179788 C62.9078712,176.094963 62.8964941,174.347496 61.8119763,173.277123" id="Fill-421" fill="#FFE092"></path>
                        <polygon id="Fill-423" fill="#F8931F" points="60.8889095 174.413794 60.9099095 174.244794 60.7554095 174.401294"></polygon>
                        <polygon id="Fill-425" fill="#FFF7A9" points="61.0564116 174.035855 59.2154681 174.513387 59.6693235 175.441085"></polygon>
                        <polygon id="Fill-427" fill="#F8931F" points="61.0564116 174.035855 60.6028636 175.883256 59.6693235 175.441085"></polygon>
                        <polygon id="Fill-429" fill="#FFF7A9" points="58.6150936 176.509582 59.068334 174.662489 59.4862131 175.626778"></polygon>
                        <polygon id="Fill-431" fill="#F8931F" points="58.6150936 176.509582 60.4557296 176.03205 59.4862131 175.626778"></polygon>
                        <path d="M50.2002568,148.487452 C49.3266773,147.62525 49.3174526,146.218482 50.1799624,145.344903 C51.0418573,144.471631 52.4486247,144.462406 53.3222042,145.324608 C54.1954762,146.186811 54.2047009,147.593578 53.342806,148.467158 C52.4806037,149.34043 51.0738363,149.349654 50.2002568,148.487452 M53.7001096,144.942091 C52.6152844,143.871102 50.8678179,143.88248 49.7968297,144.967612 C48.7264565,146.05213 48.7375261,147.799597 49.8223514,148.870277 C50.9074841,149.940958 52.6546431,149.929273 53.7253238,148.844756 C54.7960045,147.75993 54.7846273,146.012464 53.7001096,144.942091" id="Fill-465" fill="#F8931F"></path>
                        <path d="M53.4811766,148.662199 C52.5433317,149.612036 51.0132607,149.622183 50.0631162,148.684338 C49.1129716,147.746493 49.1028244,146.216115 50.0409769,145.26597 C50.9782068,144.315825 52.5088928,144.305986 53.4590373,145.243831 C54.4091819,146.181676 54.4190216,147.712054 53.4811766,148.662199" id="Fill-467" fill="#FDDA64"></path>
                        <path d="M50.1717524,148.245396 C49.2981729,147.383193 49.2889482,145.976426 50.1514581,145.102847 C51.0130455,144.229575 52.4201204,144.22035 53.2936999,145.082552 C54.1672794,145.944755 54.1761966,147.351522 53.3143017,148.225101 C52.4520993,149.098373 51.0450244,149.107598 50.1717524,148.245396 M53.6712978,144.700034 C52.58678,143.629046 50.8393135,143.640423 49.7686329,144.725556 C48.6979522,145.810074 48.7093293,147.55754 49.793847,148.628221 C50.8789798,149.698902 52.6261388,149.687217 53.6968194,148.602699 C54.7675001,147.517874 54.756123,145.770408 53.6712978,144.700034" id="Fill-469" fill="#FFE092"></path>
                        <polygon id="Fill-471" fill="#F8931F" points="52.7482309 145.836737 52.7692309 145.667737 52.6147309 145.824237"></polygon>
                        <polygon id="Fill-473" fill="#FFF7A9" points="52.915733 145.458766 51.075097 145.936299 51.5289524 146.863689"></polygon>
                        <polygon id="Fill-475" fill="#F8931F" points="52.915733 145.458766 52.462185 147.30586 51.5289524 146.863689"></polygon>
                        <polygon id="Fill-477" fill="#FFF7A9" points="50.474415 147.932525 50.9279629 146.085431 51.3455346 147.04972"></polygon>
                        <polygon id="Fill-479" fill="#F8931F" points="50.474415 147.932525 52.315051 147.454992 51.3455346 147.04972"></polygon>
                        <path d="M55.5666363,130.748499 C54.6933643,129.886297 54.6841396,128.479222 55.5463419,127.60595 C56.4082368,126.732371 57.8153117,126.723146 58.6885837,127.585348 C59.5621632,128.447551 59.5710804,129.854625 58.709493,130.727898 C57.8469832,131.60117 56.4402158,131.610702 55.5666363,130.748499 M59.0664891,127.20283 C57.9816639,126.131842 56.2345049,126.143219 55.1635167,127.228352 C54.092836,128.31287 54.1042131,130.060336 55.1890384,131.131017 C56.2741711,132.201698 58.0210226,132.190013 59.0920108,131.105495 C60.1626915,130.020978 60.1510068,128.273204 59.0664891,127.20283" id="Fill-481" fill="#F8931F"></path>
                        <path d="M58.8478329,130.922969 C57.9099879,131.873114 56.379917,131.882953 55.4294649,130.945109 C54.4796279,130.007264 54.4694807,128.476885 55.4073256,127.526741 C56.3448631,126.576596 57.8752415,126.566756 58.8256936,127.504601 C59.7758381,128.442446 59.7856778,129.972825 58.8478329,130.922969" id="Fill-483" fill="#FDDA64"></path>
                        <path d="M55.5384087,130.506166 C54.6648292,129.644271 54.6556045,128.237197 55.5178068,127.363925 C56.3800092,126.490345 57.7867766,126.48112 58.6600486,127.343323 C59.5336281,128.205525 59.5428528,129.6126 58.6806505,130.485872 C57.8187556,131.359144 56.4116807,131.368676 55.5384087,130.506166 M59.037954,126.960805 C57.9534363,125.889817 56.2056623,125.901194 55.1349816,126.986327 C54.0646084,128.070844 54.0759855,129.818311 55.1605033,130.888992 C56.2453285,131.959672 57.9924875,131.947988 59.0634757,130.86347 C60.1338489,129.778645 60.1227792,128.031178 59.037954,126.960805" id="Fill-485" fill="#FFE092"></path>
                        <polygon id="Fill-487" fill="#F8931F" points="58.1148871 128.097507 58.1358871 127.928507 57.9813871 128.085007"></polygon>
                        <polygon id="Fill-489" fill="#FFF7A9" points="58.2823892 127.719537 56.4414457 128.197069 56.8956087 129.124767"></polygon>
                        <polygon id="Fill-491" fill="#F8931F" points="58.2823892 127.719537 57.8288413 129.566938 56.8956087 129.124767"></polygon>
                        <polygon id="Fill-493" fill="#FFF7A9" points="55.841102 130.193295 56.2943424 128.346202 56.7122216 129.310491"></polygon>
                        <polygon id="Fill-495" fill="#F8931F" points="55.841102 130.193295 57.6820455 129.715763 56.7122216 129.310491"></polygon>
                        <path d="M131.67795,100.579042 C131.443335,100.239266 131.529432,99.7688058 131.869516,99.5341908 L131.99528,99.4471711 C132.335364,99.2125561 132.805516,99.2986534 133.040439,99.63843 L134.287619,101.445242 C134.522541,101.785326 134.436751,102.255479 134.09636,102.490401 L133.970596,102.577113 C133.63082,102.812036 133.16036,102.725631 132.925745,102.385854 L131.67795,100.579042 Z M134.148018,103.036811 L134.463503,102.819108 C134.949645,102.483329 135.072948,101.810848 134.736862,101.324398 L133.31226,99.261447 C132.976788,98.7749976 132.304,98.6516941 131.81755,98.9874733 L131.50268,99.2051763 C131.016231,99.5409556 130.892927,100.213744 131.229014,100.700193 L132.653616,102.763145 C132.989395,103.249594 133.661876,103.37259 134.148018,103.036811 Z" id="Fill-497" fill="#FFDE17"></path>
                        <path d="M135.48434,105.693772 C135.16455,105.432405 135.116274,104.957025 135.377333,104.636621 L135.474192,104.518545 C135.735559,104.198447 136.211246,104.150171 136.531036,104.411538 L138.232379,105.800163 C138.552476,106.061223 138.600445,106.53691 138.339078,106.857007 L138.242526,106.975391 C137.98116,107.295488 137.505472,107.343457 137.185375,107.082397 L135.48434,105.693772 Z M138.540792,107.367441 L138.783094,107.07102 C139.156387,106.61286 139.087817,105.932384 138.629964,105.559091 L136.687856,103.973365 C136.230003,103.599457 135.549527,103.668334 135.175927,104.126187 L134.933932,104.422915 C134.560024,104.880768 134.628902,105.560936 135.086447,105.934844 L137.028555,107.520263 C137.486715,107.893864 138.166884,107.825294 138.540792,107.367441 Z" id="Fill-499" fill="#FFDE17"></path>
                        <path d="M148.742454,110.742114 C148.335029,110.810992 147.945132,110.533636 147.876869,110.126212 L147.851655,109.975541 C147.782777,109.568117 148.059825,109.178527 148.46725,109.109649 L150.632596,108.745273 C151.04002,108.676396 151.42961,108.953752 151.49818,109.361176 L151.523394,109.511846 C151.592272,109.919271 151.314916,110.308861 150.907799,110.377124 L148.742454,110.742114 Z M152.015379,109.54567 L151.951728,109.168072 C151.853024,108.585071 151.296159,108.188716 150.713158,108.287113 L148.240937,108.703455 C147.658243,108.801544 147.261889,109.358716 147.359978,109.94141 L147.423628,110.319315 C147.521718,110.902317 148.079197,111.298671 148.661584,111.200275 L151.133804,110.783933 C151.716806,110.685536 152.113161,110.128364 152.015379,109.54567 Z" id="Fill-501" fill="#FFDE17"></path>
                        <path d="M154.663146,109.300754 C154.275708,109.444352 153.841224,109.244791 153.697627,108.857661 L153.644431,108.714063 C153.50114,108.326625 153.700394,107.892449 154.087832,107.748852 L156.146786,106.985968 C156.534531,106.842371 156.968707,107.041624 157.112305,107.429062 L157.1655,107.57266 C157.308791,107.960097 157.109537,108.394581 156.721792,108.538179 L154.663146,109.300754 Z M157.654717,107.513929 L157.521574,107.154781 C157.316171,106.600683 156.694733,106.315332 156.140636,106.520736 L153.789259,107.391855 C153.235469,107.596951 152.950118,108.218389 153.155521,108.772486 L153.288357,109.131942 C153.493761,109.686039 154.115198,109.97139 154.669295,109.766294 L157.020365,108.895175 C157.57477,108.689771 157.859813,108.068026 157.654717,107.513929 Z" id="Fill-503" fill="#FFDE17"></path>
                        <path d="M161.034249,106.995193 C160.657881,107.166465 160.210483,106.998576 160.039519,106.622515 L159.976176,106.483222 C159.804904,106.107162 159.972793,105.659456 160.348854,105.488491 L162.34754,104.579243 C162.723293,104.407971 163.170998,104.575861 163.341963,104.951614 L163.405613,105.090907 C163.576885,105.466967 163.408688,105.914673 163.032628,106.085637 L161.034249,106.995193 Z M163.888988,104.997122 L163.73063,104.648736 C163.485561,104.110628 162.845366,103.870786 162.307566,104.115548 L160.025374,105.153942 C159.487574,105.398704 159.247424,106.039206 159.492186,106.577007 L159.650851,106.925393 C159.895921,107.463501 160.536115,107.703343 161.074223,107.458581 L163.356107,106.420494 C163.893907,106.175424 164.134057,105.53523 163.888988,104.997122 Z" id="Fill-505" fill="#FFDE17"></path>
                        <path d="M166.120136,104.426882 C165.742231,104.593849 165.296063,104.421039 165.129095,104.043442 L165.06729,103.903534 C164.900323,103.525628 165.073132,103.079767 165.451038,102.9128 L167.459256,102.025076 C167.837161,101.858109 168.283022,102.030919 168.449989,102.408824 L168.511487,102.548732 C168.678762,102.92633 168.50626,103.372191 168.128354,103.539158 L166.120136,104.426882 Z M168.996399,102.460175 L168.841731,102.109943 C168.602812,101.569376 167.965077,101.322461 167.424509,101.561381 L165.131248,102.574869 C164.590373,102.813788 164.344073,103.451216 164.582685,103.991783 L164.73766,104.342322 C164.97658,104.882582 165.614315,105.129497 166.154575,104.890884 L168.447837,103.877397 C168.988404,103.638477 169.235319,103.000742 168.996399,102.460175 Z" id="Fill-507" fill="#FFDE17"></path>
                        <path d="M171.35408,102.212891 C170.976174,102.379858 170.530621,102.207356 170.363346,101.829451 L170.301848,101.68985 C170.134881,101.311638 170.307383,100.865777 170.684981,100.69881 L172.693199,99.8113932 C173.07172,99.6441185 173.517273,99.816928 173.68424,100.195141 L173.746045,100.334741 C173.913013,100.712647 173.740818,101.1582 173.362605,101.325475 L171.35408,102.212891 Z M174.23065,100.246184 L174.075982,99.895953 C173.836755,99.3553853 173.199635,99.1084707 172.658453,99.347698 L170.365499,100.360878 C169.824931,100.599798 169.578324,101.237532 169.817244,101.7781 L169.971911,102.128639 C170.210831,102.668899 170.848258,102.915814 171.388826,102.676894 L173.682395,101.663406 C174.222963,101.424794 174.469877,100.786752 174.23065,100.246184 Z" id="Fill-509" fill="#FFDE17"></path>
                        <path d="M136.148857,104.834644 C135.95975,105.024058 135.6498,105.024058 135.460694,104.834644 L133.703387,103.077646 C133.514281,102.888539 133.514281,102.578589 133.703387,102.389175 C133.892801,102.200069 134.202751,102.200069 134.392165,102.389175 L136.148857,104.146174 C136.33827,104.335588 136.33827,104.64523 136.148857,104.834644" id="Fill-511" fill="#FFDE17"></path>
                        <path d="M154.347845,108.682176 C154.405038,108.94385 154.237456,109.204602 153.975782,109.261795 L151.548147,109.791293 C151.286781,109.848486 151.025722,109.681212 150.968836,109.419538 C150.911643,109.157864 151.078917,108.897112 151.340899,108.840226 L153.768226,108.310421 C154.029593,108.253228 154.290345,108.420502 154.347845,108.682176" id="Fill-513" fill="#FFDE17"></path>
                        <path d="M160.233699,106.48682 C160.322871,106.739269 160.188805,107.018778 159.936663,107.108257 L157.593281,107.934483 C157.340831,108.023655 157.061323,107.889897 156.972458,107.637448 C156.883286,107.384998 157.016737,107.10549 157.269494,107.016318 L159.612568,106.189784 C159.865325,106.100612 160.144526,106.23437 160.233699,106.48682" id="Fill-515" fill="#FFDE17"></path>
                        <path d="M171.021375,101.541456 C171.110547,101.793905 170.976789,102.073414 170.72434,102.162586 L168.381265,102.989119 C168.128816,103.078291 167.849307,102.944226 167.760135,102.692084 C167.670963,102.439634 167.804721,102.160126 168.056863,102.070954 L170.400245,101.244113 C170.653002,101.155248 170.932511,101.289006 171.021375,101.541456" id="Fill-517" fill="#FFDE17"></path>
                        <path d="M165.819872,103.936804 C165.908737,104.189253 165.774978,104.468762 165.522529,104.557934 L163.179454,105.384468 C162.927005,105.47364 162.647496,105.339574 162.558324,105.087125 C162.469459,104.834675 162.60291,104.555474 162.85536,104.466302 L165.198742,103.639461 C165.451191,103.550596 165.7307,103.684355 165.819872,103.936804" id="Fill-519" fill="#FFDE17"></path>
                        <path d="M140.238721,117.033055 C137.407352,115.818469 136.096829,112.538779 137.311415,109.70741 C138.526309,106.876041 141.806306,105.56521 144.637368,106.779796 C147.469045,107.994382 148.77926,111.27438 147.564674,114.105749 C146.350088,116.937118 143.070091,118.247641 140.238721,117.033055 M145.169633,105.539689 C141.653484,104.031142 137.579854,105.658995 136.071307,109.175145 C134.562761,112.691602 136.190306,116.764924 139.706763,118.27347 C143.222913,119.78171 147.296543,118.154164 148.805089,114.638014 C150.313636,111.121557 148.686091,107.047928 145.169633,105.539689" id="Fill-521" fill="#F8931F"></path>
                        <path d="M148.067113,114.434702 C146.746135,117.514523 143.17802,118.940048 140.098198,117.618762 C137.018377,116.297785 135.592853,112.729669 136.914138,109.649848 C138.235423,106.570334 141.803231,105.144502 144.883053,106.465787 C147.962874,107.787073 149.388398,111.354881 148.067113,114.434702" id="Fill-523" fill="#FDDA64"></path>
                        <path d="M139.950449,116.493441 C137.11908,115.278855 135.808557,111.999165 137.023143,109.167796 C138.238037,106.336426 141.517727,105.025596 144.349096,106.240182 C147.180465,107.454768 148.490988,110.734765 147.276095,113.566135 C146.061509,116.397504 142.781819,117.708027 139.950449,116.493441 M144.881054,105.000074 C141.364904,103.491527 137.291582,105.119073 135.782728,108.63553 C134.274489,112.15168 135.902034,116.225309 139.418491,117.733856 C142.934641,119.242095 147.008271,117.61455 148.51651,114.0984 C150.025364,110.581943 148.397511,106.508313 144.881054,105.000074" id="Fill-525" fill="#FFE092"></path>
                        <polygon id="Fill-527" fill="#F8931F" points="143.710052 108.552202 143.604052 108.143515 143.387052 108.643515"></polygon>
                        <polygon id="Fill-529" fill="#FFF7A9" points="143.810896 107.46633 139.945437 110.268795 141.856796 112.021181"></polygon>
                        <polygon id="Fill-531" fill="#F8931F" points="143.810896 107.46633 144.443711 112.198603 141.856796 112.021181"></polygon>
                        <polygon id="Fill-533" fill="#FFF7A9" points="140.37085 115.484504 139.738035 110.751923 141.598351 112.623001"></polygon>
                        <polygon id="Fill-535" fill="#F8931F" points="140.37085 115.484504 144.236001 112.682039 141.598351 112.623001"></polygon>
                    </g>
                    <polygon id="Fill-7" fill="#F4F921" points="147.88084 0 151.3128 11.4519373 162.763326 14.882486 151.3128 18.3146809 147.88084 29.7633259 144.450291 18.3146809 133 14.882486 144.450291 11.4519373"></polygon>
                    <polygon id="Fill-7-Copy-2" fill="#F4F921" points="10.3810888 57.332 12.7752735 65.3210369 20.763326 67.7142372 12.7752735 70.1085859 10.3810888 78.095326 7.98788849 70.1085859 0 67.7142372 7.98788849 65.3210369"></polygon>
                    <polygon id="Fill-7-Copy" fill="#F4F921" opacity="0.799999952" points="26.3812547 109 28.0835893 114.680437 33.763326 116.382071 28.0835893 118.084523 26.3812547 123.763326 24.67962 118.084523 19 116.382071 24.67962 114.680437"></polygon>
                    <polygon id="Fill-7-Copy-3" fill="#F4F921" opacity="0.699999988" points="147.881061 67 150.390554 75.3738036 158.763326 77.8822648 150.390554 80.3919298 147.881061 88.763326 145.3726 80.3919298 137 77.8822648 145.3726 75.3738036"></polygon>
                </g>
            </g>
        </g>
    </g>
</svg>