<?xml version="1.0" encoding="UTF-8"?>
<svg width="255px" height="138px" viewBox="0 0 255 138" version="1.1" xmlns="http://www.w3.org/2000/svg" xmlns:xlink="http://www.w3.org/1999/xlink">
    <!-- Generator: Sketch 50.2 (55047) - http://www.bohemiancoding.com/sketch -->
    <title>Group 11</title>
    <desc>Created with Sketch.</desc>
    <defs>
        <polygon id="path-1" points="0.0957322907 0.220516193 22.419464 0.220516193 22.419464 28.7067389 0.0957322907 28.7067389"></polygon>
        <polygon id="path-3" points="0.0912299481 0.268563089 106.17858 0.268563089 106.17858 20.0469266 0.0912299481 20.0469266"></polygon>
        <polygon id="path-5" points="0 0.0510375034 68.520954 0.0510375034 68.520954 8.26699105 0 8.26699105"></polygon>
    </defs>
    <g id="Page-1" stroke="none" stroke-width="1" fill="none" fill-rule="evenodd">
        <g id="2" transform="translate(-77.000000, -161.000000)">
            <g id="Group-18" transform="translate(27.000000, 134.000000)">
                <g id="Group-11" transform="translate(50.000000, 28.000000)">
                    <g id="Group-20" transform="translate(0.000000, 36.428571)">
                        <path d="M78.6686096,69.3162911 C77.351428,68.6557285 76.8193628,67.0526316 77.4799255,65.7357786 C78.1404881,64.4192542 79.7432564,63.8868604 81.0601094,64.5474231 C82.3766338,65.2079857 82.9086989,66.8107539 82.2484649,68.127607 C81.5882309,69.44446 79.985134,69.9765252 78.6686096,69.3162911 Z M85.0790252,65.1757792 L85.0954571,65.143244 L84.9515136,65.0709436 L86.3626858,62.2574725 L82.0663994,53.8055568 L78.1316149,61.6504778 L75.3086133,60.2347047 L66.8570262,64.5309911 L74.7108205,68.4703766 L74.6345764,68.6235219 L73.1839677,71.5148803 L77.4805828,79.9671247 L81.4544752,72.0439877 L81.5146159,71.9240348 L84.5193545,73.4308407 L92.9712702,69.1342256 L85.0790252,65.1757792 Z" id="Fill-1" fill="#000000"></path>
                        <g id="Group-5" transform="translate(192.910589, 0.108122)">
                            <mask id="mask-2" fill="white">
                                <use xlink:href="#path-1"></use>
                            </mask>
                            <g id="Clip-4"></g>
                            <path d="M10.5211201,28.7067389 C10.5211201,28.7067389 6.00464608,25.0858038 0.0957322907,21.7678731 C1.01887683,14.4300407 4.96943593,0.220384738 4.96943593,0.220384738 L22.419464,11.6027668 L10.5211201,28.7067389 Z" id="Fill-3" fill="#000000" mask="url(#mask-2)"></path>
                        </g>
                        <polygon id="Fill-6" fill="#000000" points="189.591048 19.8639738 192.163299 5.47488139 180.941292 7.66196823 182.959788 18.0196565"></polygon>
                        <g id="Group-10" transform="translate(114.694711, 79.967190)">
                            <mask id="mask-4" fill="white">
                                <use xlink:href="#path-3"></use>
                            </mask>
                            <g id="Clip-9"></g>
                            <path d="M106.17858,10.1576134 C106.17858,15.6192507 82.4298732,20.0469924 53.1350692,20.0469924 C23.839608,20.0469924 0.0912299481,15.6192507 0.0912299481,10.1576134 C0.0912299481,4.69597613 23.839608,0.268563089 53.1350692,0.268563089 C82.4298732,0.268563089 106.17858,4.69597613 106.17858,10.1576134" id="Fill-8" fill="#000000" mask="url(#mask-4)"></path>
                        </g>
                        <path d="M218.635726,87.4870226 C220.088964,82.6225208 220.873423,77.4701321 220.873423,72.1330486 C220.873423,42.5556159 196.895984,18.5781771 167.318551,18.5781771 C137.74079,18.5781771 113.76368,42.5556159 113.76368,72.1330486 C113.76368,77.6857187 114.608608,83.0408772 116.176869,88.0769281 C121.65691,83.7034117 142.70224,80.4459504 167.829583,80.4459504 C191.812938,80.4459504 212.075122,83.4135529 218.635726,87.4870226" id="Fill-11" fill="#000000"></path>
                        <path d="M114.786073,66.8727022 C114.786073,66.8727022 93.1689132,77.7177609 68.5210526,77.7177609 C67.2065,78.7036753 68.5210526,93.4923917 68.5210526,93.4923917 L125.394841,96.0593842 L114.786073,66.8727022 Z" id="Fill-13" fill="#000000"></path>
                        <g id="Group-17" transform="translate(0.000000, 85.225401)">
                            <mask id="mask-6" fill="white">
                                <use xlink:href="#path-5"></use>
                            </mask>
                            <g id="Clip-16"></g>
                            <polygon id="Fill-15" fill="#000000" mask="url(#mask-6)" points="68.520954 8.26699105 -9.85914425e-05 8.26699105 17.9106801 0.872632858 17.7463611 2.85136311 68.520954 0.0510375034"></polygon>
                        </g>
                        <polygon id="Fill-18" fill="#000000" points="68.520954 84.9888798 13.2453331 84.9888798 29.1425459 78.4256475 28.9963019 80.1822183 68.520954 77.6967281"></polygon>
                    </g>
                    <path d="M106.499422,22.8015095 C102.726582,27.6002671 95.7780087,28.4319518 90.9792512,24.6585353 C87.1407062,21.6401479 86.4750126,16.0811741 89.4939763,12.2426291 C91.9083404,9.17179314 96.3555195,8.63923826 99.4263555,11.0541787 C101.88337,12.9855547 102.308722,16.5434133 100.377346,19.0004278 C98.8321303,20.965809 95.9854976,21.3064366 94.0201165,19.7612205 C92.4478116,18.5249324 92.1751942,16.2477415 93.4114823,14.6754366 C94.4005128,13.4172469 96.2223808,13.1993836 97.4805705,14.1884141 C98.4868918,14.9797537 98.6609519,16.4373634 97.8696122,17.4431082 C97.2367711,18.2482805 96.0707986,18.3877592 95.2656263,17.754918 C94.6218343,17.2482992 94.5100209,16.3157518 95.0166396,15.6719598" id="Stroke-1" stroke="#FFFFFF" stroke-width="2" opacity="0.399999976"></path>
                    <path d="M90.8871772,58.362734 C87.1143371,63.1614916 80.1657638,63.9931763 75.3670063,60.2197598 C71.5284613,57.2013724 70.8627677,51.6423985 73.8817314,47.8038536 C76.2960955,44.7330176 80.7432746,44.2004627 83.8141106,46.6154032 C86.2711252,48.5467792 86.6964774,52.1046377 84.7651014,54.5616523 C83.2198854,56.5270335 80.3732527,56.8676611 78.4078716,55.322445 C76.8355667,54.0861569 76.5629493,51.808966 77.7992374,50.2366611 C78.7882679,48.9784714 80.6101359,48.760608 81.8683256,49.7496385 C82.8746469,50.5409782 83.048707,51.9985879 82.2573673,53.0043327 C81.6245262,53.809505 80.4585537,53.9489837 79.6533814,53.3161425 C79.0095895,52.8095237 78.897776,51.8769763 79.4043947,51.2331843" id="Stroke-1-Copy-3" stroke="#FFFFFF" stroke-width="2" opacity="0.599999964"></path>
                    <path d="M169.815749,20.8230336 C164.138096,28.0445642 153.681361,29.2961458 146.459831,23.6176254 C140.6833,19.0753295 139.681514,10.7097683 144.224678,4.93323764 C147.857994,0.31201315 154.550443,-0.489415422 159.171667,3.14476825 C162.869167,6.05124784 163.509269,11.4053805 160.60279,15.1028805 C158.277433,18.0605336 153.993606,18.5731356 151.035953,16.2477785 C148.669831,14.3873193 148.259576,10.9604315 150.120035,8.59430907 C151.608402,6.7008907 154.350086,6.37303356 156.243504,7.8614009 C157.757892,9.05226825 158.019831,11.2457887 156.828963,12.7593091 C155.876616,13.9709927 154.121974,14.1808907 152.91029,13.2285438 C151.941463,12.4661458 151.773198,11.0627785 152.535596,10.0939519" id="Stroke-1-Copy" stroke="#FFFFFF" stroke-width="2"></path>
                    <path d="M249.611667,50.9065361 C245.492497,56.1457978 237.906076,57.0538274 232.666815,52.9340284 C228.475909,49.6385668 227.749108,43.5693043 231.045198,39.3783984 C233.68119,36.0256736 238.5366,35.4442326 241.889325,38.0808536 C244.571882,40.1895212 245.03628,44.073975 242.927612,46.7565324 C241.240553,48.9023266 238.132612,49.2742223 235.986818,47.5871624 C234.270182,46.2373886 233.97254,43.751162 235.322314,42.0345266 C236.402133,40.6608408 238.39124,40.4229785 239.764926,41.5027975 C240.863623,42.3667786 241.053661,43.9581902 240.18968,45.0562579 C239.498747,45.9353413 238.225743,46.0876235 237.34666,45.3966904 C236.643771,44.8435663 236.521693,43.8254153 237.074817,43.1225261" id="Stroke-1-Copy-2" stroke="#FFFFFF" stroke-width="2" opacity="0.788950857"></path>
                    <polygon id="Star" fill="#FFFFFF" points="127.5 50.3061224 121.382235 53.5224218 122.550624 46.7101905 117.601249 41.8857415 124.441118 40.8918503 127.5 34.6938776 130.558882 40.8918503 137.398751 41.8857415 132.449376 46.7101905 133.617765 53.5224218"></polygon>
                    <polygon id="Star-Copy-2" fill="#FFFFFF" opacity="0.399999976" points="244.591837 89.3367347 238.474072 92.553034 239.642461 85.7408027 234.693085 80.9163537 241.532954 79.9224626 244.591837 73.7244898 247.650719 79.9224626 254.490588 80.9163537 249.541212 85.7408027 250.709602 92.553034"></polygon>
                    <polygon id="Star-Copy" fill="#FFFFFF" opacity="0.599999964" points="205.127551 11.0586735 200.794134 13.3368855 201.621743 8.51155499 198.115935 5.09423695 202.960843 4.39023072 205.127551 0 207.294259 4.39023072 212.139167 5.09423695 208.633359 8.51155499 209.460968 13.3368855"></polygon>
                </g>
            </g>
        </g>
    </g>
</svg>