<?xml version="1.0" encoding="UTF-8"?>
<svg width="414px" height="439px" viewBox="0 0 414 439" version="1.1" xmlns="http://www.w3.org/2000/svg" xmlns:xlink="http://www.w3.org/1999/xlink">
    <!-- Generator: Sketch 50.2 (55047) - http://www.bohemiancoding.com/sketch -->
    <title>Background</title>
    <desc>Created with Sketch.</desc>
    <defs>
        <linearGradient x1="50%" y1="0%" x2="50%" y2="92.9064353%" id="linearGradient-1">
            <stop stop-color="#DFE7FF" offset="0%"></stop>
            <stop stop-color="#BBCBFF" stop-opacity="0" offset="100%"></stop>
        </linearGradient>
        <rect id="path-2" x="0" y="0" width="414" height="439"></rect>
        <linearGradient x1="50%" y1="1.05258627%" x2="50%" y2="59.0848356%" id="linearGradient-4">
            <stop stop-color="#2456FB" offset="0%"></stop>
            <stop stop-color="#2456FB" stop-opacity="0" offset="100%"></stop>
        </linearGradient>
    </defs>
    <g id="Trong---Exchange-" stroke="none" stroke-width="1" fill="none" fill-rule="evenodd">
        <g id="Background">
            <g id="Asset-1" opacity="0.687912944">
                <g id="Mask" fill="#FFFFFF" fill-rule="nonzero">
                    <rect id="path-2" x="0" y="0" width="414" height="439"></rect>
                </g>
                <g id="Group-Clipped">
                    <mask id="mask-3" fill="white">
                        <use xlink:href="#path-2"></use>
                    </mask>
                    <g id="path-2"></g>
                    <g id="Group" opacity="0.1875" mask="url(#mask-3)">
                        <g transform="translate(-108.000000, -5.000000)" id="Fill-1">
                            <g>
                                <path d="M630.365582,0 L335.081296,333.8225 L594.67375,0 L550.22,0 L335.081296,331.724954 L514.654316,0 L473.838728,0 L334.66125,329.62875 L436.218442,0 L395.307572,0 L333.403796,326.27375 L357.605424,0 L316.603298,0 L330.4675,325.435 L278.81392,0 L237.720538,0 L329.208704,328.369954 L199.846614,0 L158.660634,0 L327.305748,327.304406 L123.29625,0 L79.41956,0 L318.683398,318.683398 L308.419782,308.419782 L43.615,0 L0,0 L0,40.634418 L290.721486,297.795168 L309.402126,316.928062 L0,76.32625 L0,120.78 L321.410342,329.228834 L323.699794,331.57465 L0,156.345684 L0,197.162614 L327.45471,335.41948 L0,234.7829 L0,275.692428 L325.608118,337.471398 L0,313.394576 L0,354.396702 L322.497362,340.658648 L0,392.18608 L0,433.279462 L318.782706,344.461876 L317.030054,346.258814 L0,471.153386 L0,512.339366 L311.664738,351.754304 L306.72752,356.81096 L0,547.70375 L0,591.58044 L290.339016,373.596696 L263.148754,401.448564 L0,627.385 L0,671 L43.615,671 L269.551436,407.851246 L297.403304,380.660984 L79.41956,671 L123.29625,671 L314.18904,364.27248 L319.245696,359.336604 L158.660634,671 L199.846614,671 L324.741186,353.969946 L326.538124,352.217294 L237.720538,671 L278.81392,671 L329.938752,348.897186 L316.603298,671 L357.605424,671 L333.457476,345.461666 L395.307572,671 L436.218442,671 L335.351038,343.613732 L473.838728,671 L514.654316,671 L339.42535,347.300206 L341.771166,349.589658 L550.22,671 L594.67375,671 L354.071938,361.597874 L373.204832,380.278514 L630.365582,671 L671,671 L671,627.385 L362.580218,362.580218 L352.316602,352.316602 L671,591.58044 L671,547.70375 L344.514214,344.512872 L671,512.339366 L671,471.153386 L342.630046,341.791296 L671,433.279462 L671,392.18608 L345.565,340.5325 L671,354.396702 L671,313.394576 L344.72625,337.596204 L671,275.692428 L671,234.7829 L341.37125,336.33875 L671,197.162614 L671,156.345684 L339.275046,335.918704 L671,120.78 L671,76.32625 L337.1775,335.918704 L671,40.634418 L671,0 L630.365582,0 Z M328.431686,331.726296 L326.373058,329.330826 L327.276224,330.129316 L328.540388,331.810842 L328.431686,331.726296 Z M328.141814,341.855712 L328.27333,341.818136 L328.263936,341.832898 L328.120342,341.890604 L328.141814,341.855712 Z M325.608118,342.560262 L326.114052,342.419352 L325.834916,342.788402 L325.196124,343.040698 L325.608118,342.560262 Z M339.273704,342.568314 L339.189158,342.459612 L340.870684,343.723776 L341.669174,344.626942 L339.273704,342.568314 Z M329.167102,342.736064 L329.181864,342.72667 L329.144288,342.858186 L329.109396,342.879658 L329.167102,342.736064 Z M326.849468,343.929102 L327.305748,343.694252 L327.070898,344.150532 L326.487128,344.512872 L326.849468,343.929102 Z M328.211598,345.165084 L328.580648,344.88729 L328.44108,345.391882 L327.959302,345.803876 L328.211598,345.165084 Z M322.514808,346.16219 L323.799102,345.500584 L322.836888,346.784878 L321.001032,347.92692 L322.514808,346.16219 Z M324.215122,348.163112 L325.499416,347.200898 L324.83781,348.485192 L323.07308,349.998968 L324.215122,348.163112 Z M314.599692,355.383072 L318.683398,352.316602 L315.616928,356.400308 L308.419782,362.580218 L314.599692,355.383072 Z" id="Shape" fill="url(#linearGradient-4)" fill-rule="nonzero"></path>
                            </g>
                        </g>
                    </g>
                </g>
            </g>
            <g id="Group-2" transform="translate(86.000000, 40.000000)" fill-rule="nonzero">
                <circle id="Oval-3-Copy" stroke="#FFFFFF" stroke-width="2" fill="#688BFF" cx="21" cy="21" r="21"></circle>
                <g id="icons8-ethereum-copy" transform="translate(20.847081, 20.130474) rotate(8.000000) translate(-20.847081, -20.130474) translate(11.847081, 6.630474)" fill="#FFFFFF">
                    <polygon id="Shape" points="0 13.40625 8.53125 0 17.0625 13.40625 8.53125 18.28125"></polygon>
                    <polygon id="Shape" points="8.53125 0 17.0625 13.40625 8.53125 18.28125"></polygon>
                    <polygon id="Shape" points="0 15.234375 8.53125 20.109375 17.0625 15.234375 8.53125 26.8125"></polygon>
                    <polygon id="Shape" points="8.53125 20.109375 17.0625 15.234375 8.53125 26.8125"></polygon>
                    <polygon id="Shape" points="0 13.40625 8.53125 9.75 17.0625 13.40625 8.53125 18.28125"></polygon>
                    <polygon id="Shape" points="8.53125 9.75 17.0625 13.40625 8.53125 18.28125"></polygon>
                </g>
            </g>
            <g id="Group-2-Copy-4" transform="translate(281.000000, 44.000000)" fill-rule="nonzero">
                <circle id="Oval-3-Copy" stroke="#FFFFFF" stroke-width="2" fill="#688BFF" cx="16" cy="16" r="16"></circle>
                <g id="icons8-ethereum-copy" transform="translate(15.500000, 15.500000) rotate(-14.000000) translate(-15.500000, -15.500000) translate(9.000000, 5.000000)" fill="#FFFFFF">
                    <polygon id="Shape" points="0 10.2142857 6.5 0 13 10.2142857 6.5 13.9285714"></polygon>
                    <polygon id="Shape" points="6.5 0 13 10.2142857 6.5 13.9285714"></polygon>
                    <polygon id="Shape" points="0 11.6071429 6.5 15.3214286 13 11.6071429 6.5 20.4285714"></polygon>
                    <polygon id="Shape" points="6.5 15.3214286 13 11.6071429 6.5 20.4285714"></polygon>
                    <polygon id="Shape" points="0 10.2142857 6.5 7.42857143 13 10.2142857 6.5 13.9285714"></polygon>
                    <polygon id="Shape" points="6.5 7.42857143 13 10.2142857 6.5 13.9285714"></polygon>
                </g>
            </g>
            <g id="Group-2-Copy-2" transform="translate(207.000000, 78.000000)" fill-rule="nonzero">
                <circle id="Oval-3-Copy" stroke="#FFFFFF" stroke-width="2" fill="#688BFF" cx="11.5" cy="11.5" r="11.5"></circle>
                <g id="icons8-ethereum-copy" transform="translate(6.468750, 3.593750)" fill="#FFFFFF">
                    <polygon id="Shape" points="0 7.34151786 4.671875 0 9.34375 7.34151786 4.671875 10.0111607"></polygon>
                    <polygon id="Shape" points="4.671875 0 9.34375 7.34151786 4.671875 10.0111607"></polygon>
                    <polygon id="Shape" points="0 8.34263393 4.671875 11.0122768 9.34375 8.34263393 4.671875 14.6830357"></polygon>
                    <polygon id="Shape" points="4.671875 11.0122768 9.34375 8.34263393 4.671875 14.6830357"></polygon>
                    <polygon id="Shape" points="0 7.34151786 4.671875 5.33928571 9.34375 7.34151786 4.671875 10.0111607"></polygon>
                    <polygon id="Shape" points="4.671875 5.33928571 9.34375 7.34151786 4.671875 10.0111607"></polygon>
                </g>
            </g>
            <g id="Group-2-Copy-3" transform="translate(374.000000, 55.000000)" fill-rule="nonzero">
                <circle id="Oval-3-Copy" stroke="#FFFFFF" stroke-width="2" fill="#688BFF" cx="11.5" cy="11.5" r="11.5"></circle>
                <g id="icons8-ethereum-copy" transform="translate(11.468959, 11.186009) rotate(16.000000) translate(-11.468959, -11.186009) translate(6.468959, 3.686009)" fill="#FFFFFF">
                    <polygon id="Shape" points="0 7.34151786 4.671875 0 9.34375 7.34151786 4.671875 10.0111607"></polygon>
                    <polygon id="Shape" points="4.671875 0 9.34375 7.34151786 4.671875 10.0111607"></polygon>
                    <polygon id="Shape" points="0 8.34263393 4.671875 11.0122768 9.34375 8.34263393 4.671875 14.6830357"></polygon>
                    <polygon id="Shape" points="4.671875 11.0122768 9.34375 8.34263393 4.671875 14.6830357"></polygon>
                    <polygon id="Shape" points="0 7.34151786 4.671875 5.33928571 9.34375 7.34151786 4.671875 10.0111607"></polygon>
                    <polygon id="Shape" points="4.671875 5.33928571 9.34375 7.34151786 4.671875 10.0111607"></polygon>
                </g>
            </g>
            <g id="Group-2-Copy" transform="translate(37.010663, 98.010663) rotate(-10.000000) translate(-37.010663, -98.010663) translate(18.010663, 79.010663)" fill-rule="nonzero">
                <circle id="Oval-3-Copy" stroke="#FFFFFF" stroke-width="2" fill="#688BFF" cx="19" cy="19" r="19"></circle>
                <g id="icons8-ethereum-copy" transform="translate(10.687500, 5.937500)" fill="#FFFFFF">
                    <polygon id="Shape" points="0 12.1294643 7.71875 0 15.4375 12.1294643 7.71875 16.5401786"></polygon>
                    <polygon id="Shape" points="7.71875 0 15.4375 12.1294643 7.71875 16.5401786"></polygon>
                    <polygon id="Shape" points="0 13.7834821 7.71875 18.1941964 15.4375 13.7834821 7.71875 24.2589286"></polygon>
                    <polygon id="Shape" points="7.71875 18.1941964 15.4375 13.7834821 7.71875 24.2589286"></polygon>
                    <polygon id="Shape" points="0 12.1294643 7.71875 8.82142857 15.4375 12.1294643 7.71875 16.5401786"></polygon>
                    <polygon id="Shape" points="7.71875 8.82142857 15.4375 12.1294643 7.71875 16.5401786"></polygon>
                </g>
            </g>
        </g>
    </g>
</svg>