<?xml version="1.0" encoding="UTF-8"?>
<svg width="101px" height="103px" viewBox="0 0 101 103" version="1.1" xmlns="http://www.w3.org/2000/svg" xmlns:xlink="http://www.w3.org/1999/xlink">
    <!-- Generator: Sketch 50.2 (55047) - http://www.bohemiancoding.com/sketch -->
    <title>Group 27</title>
    <desc>Created with Sketch.</desc>
    <defs>
        <polygon id="path-1" points="0.162135918 0.00989387755 18.3650155 0.00989387755 18.3650155 14.9725286 0.162135918 14.9725286"></polygon>
    </defs>
    <g id="Page-1" stroke="none" stroke-width="1" fill="none" fill-rule="evenodd">
        <g id="1" transform="translate(-94.000000, -275.000000)">
            <g id="Group-27" transform="translate(94.000000, 275.000000)">
                <polygon id="Fill-1" fill="#000000" points="93.0051698 28.5785271 94.1291555 38.6777027 79.523731 40.7921067 79.523731 55.030221 100.862558 40.4641659 94.6541494 26.5539924"></polygon>
                <polygon id="Fill-2" fill="#000000" points="0 61.9009831 5.25612245 78.390779 4.74081633 79.83343 6.28673469 80.5548586 7.31734694 82.3071055 10.2030612 81.0703708 8.96632653 78.905879 7.00816327 77.8754729 6.80204082 65.4048586 23.8071429 65.7142484 25.9054694 56.2618851"></polygon>
                <g id="Group-26" transform="translate(0.824490, 0.196229)">
                    <path d="M49.3544539,81.8255829 C47.0850457,88.0494502 41.5718886,91.7555318 37.0402865,90.1032543 L23.7350824,85.2517502 C19.2034804,83.5992665 17.369609,77.2144176 19.6390171,70.9905502 L32.1945539,36.5563522 C34.463962,30.332691 39.9771192,26.6266094 44.5087212,28.2790931 L57.8141314,33.1305971 C62.3455273,34.7826686 64.1793988,41.1677237 61.9101967,47.3913849 L49.3544539,81.8255829 Z" id="Fill-3" fill="#000000"></path>
                    <path d="M84.76021,36.4985555 C84.76021,54.7502861 69.9643284,69.5457555 51.7128039,69.5457555 C33.4612794,69.5457555 18.6656039,54.7502861 18.6656039,36.4985555 C18.6656039,18.247031 33.4612794,3.45135551 51.7128039,3.45135551 C69.9643284,3.45135551 84.76021,18.247031 84.76021,36.4985555" id="Fill-5" fill="#000000"></path>
                    <path d="M83.8755324,30.2472533 C82.8820222,24.8099492 80.8488304,17.5284676 70.9440284,16.0633492 C61.5009406,14.6666635 49.8706876,22.1561227 47.6150896,30.3952492 C47.4064937,31.0498941 47.2576733,31.7472063 47.1783161,32.4748186 C47.0494896,33.3392961 47.2005773,35.1191635 47.2005773,35.1191635 C47.7004243,39.0874329 51.8210182,42.9784063 54.9276957,42.1102186 C71.6654569,37.4341247 77.6230141,37.3869227 81.5098651,42.1102186 C83.6067488,44.6583043 84.8770814,35.729492 83.8755324,30.2472533" id="Fill-7" fill="#FFFFFF"></path>
                    <g id="Group-11" transform="translate(11.955102, 0.000000)">
                        <mask id="mask-2" fill="white">
                            <use xlink:href="#path-1"></use>
                        </mask>
                        <g id="Clip-10"></g>
                        <path d="M18.3650155,9.38681633 C18.3650155,9.38681633 15.5941114,11.732902 12.8425829,14.9725286 C8.43589102,13.5236939 0.162135918,9.38681633 0.162135918,9.38681633 L9.26306041,0.00989387755 L18.3650155,9.38681633 Z" id="Fill-9" fill="#000000" mask="url(#mask-2)"></path>
                    </g>
                    <polygon id="Fill-12" fill="#000000" points="23.1492206 16.8335876 14.5996737 13.5236733 14.5996737 20.6946733 21.2182655 20.6946733"></polygon>
                    <polygon id="Fill-14" fill="#000000" points="17.1988365 79.1685202 1.05388347 79.1685202 13.0945263 99.1448773 5.82108347 101.824469 19.0129202 101.824469 14.4782263 86.571408 38.9639243 90.4963916 40.7745039 81.102361"></polygon>
                    <path d="M38.6041788,65.7266776 C34.1809971,62.3905857 22.5418808,52.9398714 19.1971318,50.2182306 C20.2899931,48.1207286 20.160342,45.8284408 18.7341808,44.6879653 C17.3098747,43.5487265 15.0474747,43.9201592 13.2426665,45.4425796 L2.24314816,36.6452735 C1.95416449,36.4142102 1.53264408,36.4612061 1.30158082,36.7499837 L0.303948163,37.9976429 C0.0726787755,38.2864204 0.119674694,38.7081469 0.408658367,38.9392102 L11.4182767,47.7445551 C10.35654,49.8268041 10.4973216,52.0887918 11.9109094,53.2193735 C13.3304747,54.354902 15.5827747,53.9894469 17.3849033,52.4791878 C21.4764339,55.5881327 37.8196767,68.0035061 42.3189176,71.3812347 C47.1133257,74.9803388 77.5466869,97.6206224 77.5466869,97.6206224 L81.3919012,98.6178429 C81.3919012,98.6178429 43.3062441,69.2728082 38.6041788,65.7266776" id="Fill-16" fill="#000000"></path>
                    <path d="M55.9111265,28.2438049 C55.9583286,28.4122069 64.8859041,33.0194559 64.8859041,33.0194559 L65.6753531,32.0040967 L58.096849,25.4327069 L55.9111265,28.2438049 Z" id="Fill-18" fill="#000000"></path>
                    <path d="M80.4516737,26.9261465 C80.317488,26.9304751 75.2503798,32.7447771 75.2503798,32.7447771 L75.8629757,33.5189731 L82.1480614,29.0696139 L80.4516737,26.9261465 Z" id="Fill-20" fill="#000000"></path>
                    <polygon id="Fill-22" fill="#000000" points="48.4387755 83.8835712 56.8897959 101.824469 50.9808837 101.824469 42.1864633 96.6767671 42.1864633 99.5624814 44.2476878 101.824469 40.1252388 101.824469 36.5523122 94.0658141 38.6135367 93.7910529 44.6599327 92.8540202 38.9639449 90.4963916"></polygon>
                    <path d="M91.1500059,23.4895082 L75.6908222,23.4895082 L77.3398018,25.0857204 L83.4204141,25.5779408 C83.4204141,25.5779408 84.5540876,25.681002 84.3479651,26.4024306 C84.1418427,27.1238592 81.9775569,27.2827796 81.9775569,27.2827796 L82.4928631,28.3822367 C82.4928631,28.3822367 84.1418427,29.1582878 85.3785773,29.2232163 C86.615312,29.2881449 88.5734753,28.2426918 88.5734753,28.2426918 L92.1806182,28.3822367 C92.1806182,28.3822367 93.8295978,27.2407306 93.8295978,26.3579082 C93.8295978,25.4748796 93.6234753,23.4895082 91.1500059,23.4895082" id="Fill-24" fill="#000000"></path>
                </g>
            </g>
        </g>
    </g>
</svg>