<?xml version="1.0" encoding="UTF-8"?>
<svg width="335px" height="99px" viewBox="0 0 335 99" version="1.1" xmlns="http://www.w3.org/2000/svg" xmlns:xlink="http://www.w3.org/1999/xlink">
    <!-- Generator: Sketch 50.2 (55047) - http://www.bohemiancoding.com/sketch -->
    <title>Group</title>
    <desc>Created with Sketch.</desc>
    <defs>
        <path d="M218,77.6 C216.676872,77.6 215.6,78.6768072 215.6,79.9998565 C215.6,81.3231928 216.676872,82.4 218,82.4 C219.323415,82.4 220.4,81.3231928 220.4,79.9998565 C220.4,78.6768072 219.323415,77.6 218,77.6 M218,84 C215.79449,84 214,82.2054478 214,79.9998623 C214,77.7942767 215.79449,76 218,76 C220.205785,76 222,77.7942767 222,79.9998623 C222,82.2054478 220.205785,84 218,84" id="path-1"></path>
        <filter x="-206.2%" y="-131.2%" width="512.5%" height="512.5%" filterUnits="objectBoundingBox" id="filter-2">
            <feOffset dx="0" dy="6" in="SourceAlpha" result="shadowOffsetOuter1"></feOffset>
            <feGaussianBlur stdDeviation="4.5" in="shadowOffsetOuter1" result="shadowBlurOuter1"></feGaussianBlur>
            <feColorMatrix values="0 0 0 0 0.803309779   0 0 0 0 0.800965339   0 0 0 0 0.847443665  0 0 0 0.5 0" type="matrix" in="shadowBlurOuter1"></feColorMatrix>
        </filter>
        <polygon id="path-3" points="0 0.0122157104 16.6070726 0.0122157104 16.6070726 5.44863641 0 5.44863641"></polygon>
        <polygon id="path-5" points="0.160568133 0.169677557 14.3789151 0.169677557 14.3789151 11.6345565 0.160568133 11.6345565"></polygon>
        <path d="M303.325366,24.4327815 C302.810148,23.7841106 302.918529,22.840515 303.567452,22.3252818 C304.216103,21.810321 305.159397,21.9184328 305.674614,22.5671037 C306.189831,23.216047 306.08145,24.1596426 305.432799,24.6746034 C304.783876,25.1898365 303.840583,25.0814524 303.325366,24.4327815 Z M307.717286,23.9078386 L307.734656,23.8939744 L307.675018,23.8191655 L309.148606,22.6516841 L308.947399,17 L304.838433,20.2551991 L303.664484,18.7803946 L298,18.9808478 L301.266502,23.0852293 L301.186598,23.1484847 L299.6719,24.3486047 L299.873107,30 L304.022893,26.7121623 L304.086006,26.6624822 L305.335516,28.2326031 L311,28.031861 L307.717286,23.9078386 Z" id="path-7"></path>
        <filter x="-200.0%" y="-123.1%" width="500.0%" height="500.0%" filterUnits="objectBoundingBox" id="filter-8">
            <feOffset dx="0" dy="10" in="SourceAlpha" result="shadowOffsetOuter1"></feOffset>
            <feGaussianBlur stdDeviation="7" in="shadowOffsetOuter1" result="shadowBlurOuter1"></feGaussianBlur>
            <feColorMatrix values="0 0 0 0 0.803309779   0 0 0 0 0.800965339   0 0 0 0 0.847443665  0 0 0 0.5 0" type="matrix" in="shadowBlurOuter1"></feColorMatrix>
        </filter>
        <path d="M5.32536551,12.4327815 C4.81014849,11.7841106 4.91852923,10.840515 5.56745216,10.3252818 C6.21610278,9.81032103 7.15939653,9.91843284 7.67461356,10.5671037 C8.18983059,11.216047 8.08144984,12.1596426 7.43279922,12.6746034 C6.7838763,13.1898365 5.84058254,13.0814524 5.32536551,12.4327815 Z M9.71728577,11.9078386 L9.73465616,11.8939744 L9.67501782,11.8191655 L11.1486059,10.6516841 L10.9473989,5 L6.8384331,8.25519908 L5.66448423,6.7803946 L0,6.98084785 L3.26650187,11.0852293 L3.18659808,11.1484847 L1.67190005,12.3486047 L1.87310707,18 L6.02289328,14.7121623 L6.0860057,14.6624822 L7.33551577,16.2326031 L13,16.031861 L9.71728577,11.9078386 Z" id="path-9"></path>
        <filter x="-200.0%" y="-123.1%" width="500.0%" height="500.0%" filterUnits="objectBoundingBox" id="filter-10">
            <feOffset dx="0" dy="10" in="SourceAlpha" result="shadowOffsetOuter1"></feOffset>
            <feGaussianBlur stdDeviation="7" in="shadowOffsetOuter1" result="shadowBlurOuter1"></feGaussianBlur>
            <feColorMatrix values="0 0 0 0 0.803309779   0 0 0 0 0.800965339   0 0 0 0 0.847443665  0 0 0 0.5 0" type="matrix" in="shadowBlurOuter1"></feColorMatrix>
        </filter>
    </defs>
    <g id="Page-1" stroke="none" stroke-width="1" fill="none" fill-rule="evenodd">
        <g id="ADVANCED" transform="translate(-33.000000, -151.000000)">
            <g id="Fill-46" transform="translate(15.000000, 117.000000)">
                <g id="Group" transform="translate(30.000000, 34.000000)">
                    <g id="Fill-1263" fill-rule="nonzero">
                        <use fill="black" fill-opacity="1" filter="url(#filter-2)" xlink:href="#path-1"></use>
                        <use fill="#000000" fill-rule="evenodd" xlink:href="#path-1"></use>
                    </g>
                    <g id="Group-2" transform="translate(43.000000, 0.000000)">
                        <path d="M64,55.5 C64,69.0310804 55.0456623,80 44,80 C32.9541504,80 24,69.0310804 24,55.5 C24,41.9691056 32.9541504,31 44,31 C55.0456623,31 64,41.9691056 64,55.5" id="Fill-1" fill="#000000"></path>
                        <path d="M15.812567,65.972178 C17.7073791,66.2609331 19.5514535,64.2692244 19.9311743,61.5231122 C20.3107145,58.777 19.0823548,56.3167989 17.1873621,56.0278542 C15.2923694,55.7389095 13.4484756,57.7308078 13.0689353,60.47692 C12.689034,63.2230322 13.9175743,65.6834229 15.812567,65.972178" id="Fill-3" fill="#000000"></path>
                        <g id="Group-7" transform="translate(0.000000, 57.000000)">
                            <mask id="mask-4" fill="white">
                                <use xlink:href="#path-3"></use>
                            </mask>
                            <g id="Clip-6"></g>
                            <path d="M16.3962089,4.87058542 L16.6007921,3.27820278 C16.6482156,2.90922847 16.4219426,2.56683194 16.0954919,2.51326111 L0.887960713,0.0193104167 C0.561509975,-0.0342604167 0.258403405,0.221343056 0.210979818,0.590109722 L0.00621285752,2.1827 C-0.0412107295,2.55146667 0.185246089,2.89386319 0.511696827,2.94743403 L15.7190442,5.44159236 C16.0456787,5.49495556 16.3487853,5.23935208 16.3962089,4.87058542" id="Fill-5" fill="#000000" mask="url(#mask-4)"></path>
                        </g>
                        <path d="M91,73 L87.9425695,71.0696428 C87.9425695,71.0696428 53.9251558,64.9339916 48.5448295,63.9876134 C42.7581608,62.9697751 19.3845506,59 19.3845506,59 L19,61.6380363 C19,61.6380363 36.6312767,64.0173573 42.468292,65.030893 C47.7561909,65.9490239 91,73 91,73" id="Fill-8" fill="#000000"></path>
                        <polygon id="Fill-10" fill="#000000" points="26.9485923 70 12 70 23.1486074 88.51624 16.4139447 91 28.6282502 91 24.4295827 76.8616737 43.3235866 80.98376 45 72.2762705"></polygon>
                        <polygon id="Fill-12" fill="#000000" points="57.0204167 74 101 91 82.1438269 91 81.900641 87.797713 42 81.1247119"></polygon>
                        <polygon id="Fill-14" fill="#000000" points="22 57 30.6522139 87.0301961 28.4914275 90 35.227154 90 35.227154 87.0301961 37 87.8221312 35.227154 84.4562654 32.907673 83.0703318 30.6522139 63.7967679"></polygon>
                        <polygon id="Fill-16" fill="#000000" points="63 55.3499711 85 50 85 51.4590996 63 62"></polygon>
                        <path d="M85,50.0951732 L85.7975581,48.2554093 C85.7975581,48.2554093 86.0123631,47.7480326 85.8663987,47.3101205 C85.7844894,47.064235 85.0806209,46.6601987 85.0806209,46.6601987 L86.2634291,46 C86.2634291,46 86.78452,46.9095098 86.8712151,47.272248 C86.9301163,47.5187044 86.7178881,48.1286603 86.7178881,48.1286603 L87.3928582,48.0650955 C87.3928582,48.0650955 87.9700893,47.9322564 88.1162377,47.8041752 C88.393073,47.5613347 88.811271,46.4862519 88.811271,46.4862519 L89.7634445,47.2102057 C89.7634445,47.2102057 89.0437464,48.1417919 88.6977022,48.4556194 C88.5138203,48.6223344 87.8835782,49.0166646 87.8835782,49.0166646 L89.2335184,48.7629763 C89.2335184,48.7629763 90.2764365,48.414131 90.3992085,47.9699385 C90.72114,48.4552388 91,49.2705433 91,49.2705433 L89.5096174,49.8414848 L88.0063503,50.0951732 C88.0063503,50.0951732 89.3100899,51.229063 90.782618,50.7850608 C90.8492499,51.2663645 90.5832745,51.9983115 90.5832745,51.9983115 C90.5832745,51.9983115 89.2143756,51.5261429 88.7426144,51.5543094 C88.3450318,51.5780986 87.6063748,51.9760448 87.2087922,51.9983115 C86.6497837,52.029523 85,51.6176839 85,51.6176839 L85,50.0951732 Z" id="Fill-18" fill="#000000"></path>
                        <polygon id="Fill-20" fill="#58595B" points="22.3409273 57 32 86.8699813 31.5335731 87 22 57.4531179"></polygon>
                        <path d="M44.5,67 C26.5506818,67 12,52.4493182 12,34.5 C12,16.5506818 26.5506818,2 44.5,2 C62.4495061,2 77,16.5506818 77,34.5 C77,52.4493182 62.4495061,67 44.5,67 Z" id="Fill-22" fill="#000000"></path>
                        <g id="Group-26" transform="translate(65.000000, 0.000000)">
                            <mask id="mask-6" fill="white">
                                <use xlink:href="#path-5"></use>
                            </mask>
                            <g id="Clip-25"></g>
                            <path d="M0.160568133,7.35458948 C0.160568133,7.35458948 2.32467509,9.15222994 4.47401376,11.6345565 C7.91613082,10.5244994 14.3789151,7.35458948 14.3789151,7.35458948 L7.26983393,0.169641339 L0.160568133,7.35458948 Z" id="Fill-24" fill="#000000" mask="url(#mask-6)"></path>
                        </g>
                        <polygon id="Fill-27" fill="#000000" points="72 13.7691243 79 11 79 17 73.5806452 17"></polygon>
                        <path d="M70.9310469,31.1584786 C70.82544,30.4410306 70.6276397,29.753688 70.3495478,29.1084928 C67.3500476,20.997737 56.6905529,15 43.9999674,15 C31.3086263,15 20.6487537,20.9983015 17.6500092,29.1096218 C17.3724841,29.7540643 17.1746837,30.4406543 17.0690768,31.1569733 C16.8979143,32.0080137 17.0987374,33.7601447 17.0987374,33.7601447 C17.7631729,37.6668775 21.4048159,41.9916982 25.2871443,40.6429788 C36.0161621,36.9161255 54.8019087,37.0649588 62.7127905,40.6429788 C66.4568287,42.3364044 70.2367619,37.6668775 70.9011974,33.7601447 C70.9011974,33.7601447 71.1020205,32.0089545 70.9310469,31.1584786" id="Fill-29" fill="#FFFFFF"></path>
                        <path d="M34,30 C34,32.2092553 32.8806982,34 31.5,34 C30.1195072,34 29,32.2092553 29,30 C29,27.7909418 30.1195072,26 31.5,26 C32.8806982,26 34,27.7909418 34,30" id="Fill-31" fill="#000000"></path>
                        <path d="M54.6257968,28.5679353 C55.987338,26.9333738 58.3579732,26.5779443 60,26.8634934 C58.2645462,25.5118441 55.1156245,25.822633 53.9840735,27.2697793 C53.0211818,28.5010686 52.8091821,29.8909544 53.1563137,31 C53.5537365,30.1836611 53.8479194,29.5014322 54.6257968,28.5679353" id="Fill-33" fill="#000000"></path>
                        <path d="M55.9936097,29.3447115 C57.8391495,29.1106678 59.5807341,29.178741 61,29.4811948 C60.208077,28.4201632 58.4577503,27.8113801 56.5553866,28.0525007 C54.9367621,28.2577312 53.6189809,29.0267558 53,30 C53.9069011,29.7076561 54.9169973,29.4813633 55.9936097,29.3447115" id="Fill-35" fill="#000000"></path>
                    </g>
                    <g id="Fill-46" fill-rule="nonzero">
                        <use fill="black" fill-opacity="1" filter="url(#filter-8)" xlink:href="#path-7"></use>
                        <use fill="#000000" fill-rule="evenodd" xlink:href="#path-7"></use>
                    </g>
                    <path d="M164.199537,34.6381088 C163.862462,34.2147174 163.933369,33.5988269 164.357919,33.2625311 C164.782291,32.9264131 165.39943,32.9969783 165.736505,33.4203697 C166.073579,33.8439389 166.002672,34.4598294 165.5783,34.7959474 C165.15375,35.1322432 164.536611,35.0615002 164.199537,34.6381088 Z M166.979868,34.2509776 L166.990558,34.2424458 L166.953857,34.1964095 L167.860681,33.4779595 L167.736861,30 L165.208267,32.0031994 L164.485836,31.0956274 L161,31.2189833 L163.010155,33.7447565 L162.960983,33.7836829 L162.028862,34.5222183 L162.152681,38 L164.706396,35.9767153 L164.745234,35.9461429 L165.514164,36.9123711 L169,36.7888375 L166.979868,34.2509776 Z" id="Fill-46" fill="#000000"></path>
                    <g id="Fill-46" fill-rule="nonzero">
                        <use fill="black" fill-opacity="1" filter="url(#filter-10)" xlink:href="#path-9"></use>
                        <use fill="#000000" fill-rule="evenodd" xlink:href="#path-9"></use>
                    </g>
                </g>
            </g>
        </g>
    </g>
</svg>