<?xml version="1.0" encoding="UTF-8"?>
<svg width="141px" height="214px" viewBox="0 0 141 214" version="1.1" xmlns="http://www.w3.org/2000/svg" xmlns:xlink="http://www.w3.org/1999/xlink">
    <!-- Generator: Sketch 50.2 (55047) - http://www.bohemiancoding.com/sketch -->
    <title>Group</title>
    <desc>Created with Sketch.</desc>
    <defs>
        <polygon id="path-1" points="0 0.00910390228 25.4777576 0.00910390228 25.4777576 20.5133252 0 20.5133252"></polygon>
        <polygon id="path-3" points="0.246913194 0.0855138889 25.3855486 0.0855138889 25.3855486 20.7500431 0.246913194 20.7500431"></polygon>
    </defs>
    <g id="Trong---Exchange-" stroke="none" stroke-width="1" fill="none" fill-rule="evenodd">
        <g id="Lucky-dip-page" transform="translate(-7.000000, -250.000000)">
            <g id="Group" transform="translate(7.000000, 250.000000)">
                <path d="M30.9762313,130.550105 C35.085141,122.344035 41.0378215,115.893938 47.6533979,111.773605 C50.6627035,109.898827 49.4527799,105.264105 45.9153771,105.021598 C34.2923424,104.224883 23.0492243,109.932119 17.7721688,120.47089 C13.2618007,129.478897 14.1890715,139.861653 19.3006479,148.201216 C21.1241826,151.176903 25.6769813,150.198716 26.0781132,146.731813 C26.6962938,141.394702 28.3057174,135.882973 30.9762313,130.550105" id="Fill-1" fill="#000000"></path>
                <path d="M124.80318,130.550105 C120.693944,122.344035 114.74159,115.893938 108.126013,111.773605 C105.116381,109.898827 106.326631,105.264105 109.864034,105.021598 C121.487069,104.224883 132.730187,109.932119 138.007242,120.47089 C142.51761,129.478897 141.59034,139.861653 136.478437,148.201216 C134.654902,151.176903 130.10243,150.198716 129.701298,146.731813 C129.083117,141.394702 127.473367,135.882973 124.80318,130.550105" id="Fill-3" fill="#000000"></path>
                <path d="M29.7172188,93.3060646 C32.4876076,95.3809187 32.4122118,100.162516 29.5481493,103.985835 C26.6847396,107.809481 22.1175799,109.226335 19.347191,107.151481 C16.5764757,105.076627 16.6521979,100.29503 19.515934,96.471384 C22.3796701,92.6480646 26.9471563,91.2312104 29.7172188,93.3060646" id="Fill-5" fill="#000000"></path>
                <g id="Group-9" transform="translate(0.000000, 81.185319)">
                    <mask id="mask-2" fill="white">
                        <use xlink:href="#path-1"></use>
                    </mask>
                    <g id="Clip-8"></g>
                    <path d="M25.266025,18.063634 L23.7496222,20.0882243 C23.3981014,20.5572451 22.7332472,20.6528771 22.2645528,20.3013563 L0.424893056,3.94339792 C-0.0441277778,3.59220347 -0.139433333,2.92767569 0.211761111,2.45832847 L1.72816389,0.434064583 C2.07935833,-0.03495625 2.7442125,-0.130261806 3.21323333,0.220932639 L25.0528931,16.578891 C25.5215875,16.929759 25.6172194,17.5946132 25.266025,18.063634" id="Fill-7" fill="#000000" mask="url(#mask-2)"></path>
                </g>
                <path d="M131.595496,175.509228 L125.459711,174.12436 C125.459711,174.12436 76.1550792,139.821867 68.3863708,134.366603 C60.0311417,128.500089 26.4578014,104.627353 26.4578014,104.627353 L29.2461417,100.904887 C29.2461417,100.904887 53.8111486,119.669964 62.2228431,125.604693 C69.8430444,130.980318 131.595496,175.509228 131.595496,175.509228" id="Fill-10" fill="#000000"></path>
                <path d="M112.452037,148.289537 C112.452037,158.779676 103.947974,167.283412 93.4581618,167.283412 L62.6574951,167.283412 C52.1670299,167.283412 43.6629674,158.779676 43.6629674,148.289537 L43.6629674,90.2526965 C43.6629674,79.762884 52.1670299,71.2588215 62.6574951,71.2588215 L93.4581618,71.2588215 C103.947974,71.2588215 112.452037,79.762884 112.452037,90.2526965 L112.452037,148.289537 Z" id="Fill-12" fill="#000000"></path>
                <path d="M134.55914,60.0338507 C134.55914,91.2030104 109.29207,116.470406 78.122584,116.470406 C46.9534243,116.470406 21.6860285,91.2030104 21.6860285,60.0338507 C21.6860285,28.8650174 46.9534243,3.59729514 78.122584,3.59729514 C109.29207,3.59729514 134.55914,28.8650174 134.55914,60.0338507" id="Fill-14" fill="#000000"></path>
                <g id="Group-18" transform="translate(115.541667, -0.085514)">
                    <mask id="mask-4" fill="white">
                        <use xlink:href="#path-3"></use>
                    </mask>
                    <g id="Clip-17"></g>
                    <path d="M0.246913194,13.0358417 C0.246913194,13.0358417 4.07284375,16.2759042 7.87298958,20.7500431 C13.9588368,18.7492792 25.3857118,13.0358417 25.3857118,13.0358417 L12.8161493,0.0853833333 L0.246913194,13.0358417 Z" id="Fill-16" fill="#000000" mask="url(#mask-4)"></path>
                </g>
                <polygon id="Fill-19" fill="#000000" points="125.691512 23.2341236 137.499283 18.6637 137.499283 28.5666653 128.357783 28.5666653"></polygon>
                <path d="M124.649842,53.4780361 C124.467391,52.2335153 124.125662,51.0412167 123.645217,49.9217028 C118.463141,35.8527097 100.047301,25.4487375 78.1224535,25.4487375 C56.1966271,25.4487375 37.7798076,35.8536889 32.5990368,49.9236611 C32.1195715,51.0418694 31.7778424,52.2328625 31.595391,53.4750986 C31.2996826,54.9516819 31.646634,57.9906889 31.646634,57.9906889 C32.7945437,64.7678278 39.086016,72.26955 45.7933076,69.9299944 C64.329259,63.4655361 96.784391,63.7237097 110.451599,69.9299944 C116.919974,72.8674944 123.450363,64.7678278 124.598273,57.9906889 C124.598273,57.9906889 124.945224,54.9533139 124.649842,53.4780361" id="Fill-21" fill="#FFFFFF"></path>
                <polygon id="Fill-23" fill="#D1D3D4" points="43.7280493 109.319846 112.517119 135.450214 112.517119 133.297353 43.7280493 107.501533"></polygon>
                <polygon id="Fill-25" fill="#D1D3D4" points="43.7280493 118.289176 112.517119 144.419544 112.517119 142.266356 43.7280493 116.470537"></polygon>
                <polygon id="Fill-27" fill="#000000" points="47.9615417 160.161606 71.4889583 205.539453 54.5167361 213.372787 77.5816597 213.372787 77.5816597 160.161606"></polygon>
                <polygon id="Fill-29" fill="#000000" points="108.153201 160.161606 84.6261111 205.539453 101.598333 213.372787 78.5334097 213.372787 78.5334097 160.161606"></polygon>
                <path d="M60.7101611,51.2627694 C60.7101611,54.9206097 58.9310153,57.8855264 56.7363764,57.8855264 C54.5420639,57.8855264 52.7625917,54.9206097 52.7625917,51.2627694 C52.7625917,47.6052556 54.5420639,44.6403389 56.7363764,44.6403389 C58.9310153,44.6403389 60.7101611,47.6052556 60.7101611,51.2627694" id="Fill-31" fill="#000000"></path>
                <path d="M96.6837,48.1168375 C98.85745,45.2844347 102.642256,44.6685389 105.263811,45.1633444 C102.493096,42.8211778 97.4657278,43.3597194 95.6591653,45.8670389 C94.1218736,48.0009694 93.7834083,50.4090667 94.3376167,52.3311708 C94.9721167,50.9166014 95.4421167,49.7344208 96.6837,48.1168375" id="Fill-33" fill="#000000"></path>
                <path d="M99.4041187,50.5402097 C102.573681,50.0868556 105.564709,50.2187167 108.002181,50.8045847 C106.642119,48.7493139 103.636077,47.5697444 100.368924,48.0371333 C97.5890701,48.434675 95.3258896,49.9239875 94.262841,51.8095361 C95.8203687,51.242925 97.5551257,50.8049111 99.4041187,50.5402097" id="Fill-35" fill="#000000"></path>
            </g>
        </g>
    </g>
</svg>