<?xml version="1.0" encoding="iso-8859-1"?>
<!-- Generator: Adobe Illustrator 19.0.0, SVG Export Plug-In . SVG Version: 6.00 Build 0)  -->
<svg xmlns="http://www.w3.org/2000/svg" xmlns:xlink="http://www.w3.org/1999/xlink" version="1.1" id="Capa_1" x="0px" y="0px" viewBox="0 0 480 480" style="enable-background:new 0 0 480 480;" xml:space="preserve" width="512px" height="512px">
<g>
	<g>
		<path d="M336.168,343.833c-3.126-3.126-8.194-3.126-11.32,0L248,420.689V200.001c0-4.418-3.582-8-8-8s-8,3.582-8,8v220.688    l-76.848-76.856c-3.126-3.126-8.194-3.126-11.32,0c-3.126,3.126-3.126,8.194,0,11.32l90.504,90.496    c3.12,3.128,8.186,3.135,11.314,0.014c0.005-0.005,0.01-0.01,0.014-0.014l90.504-90.496    C339.294,352.027,339.294,346.959,336.168,343.833z" fill="#006DF0"/>
	</g>
</g>
<g>
	<g>
		<path d="M456,32.001H24c-13.255,0-24,10.745-24,24v288c0,13.255,10.745,24,24,24h80c4.418,0,8-3.582,8-8s-3.582-8-8-8H24    c-4.418,0-8-3.582-8-8v-216h448v216c0,4.418-3.582,8-8,8h-80c-4.418,0-8,3.582-8,8s3.582,8,8,8h80c13.255,0,24-10.745,24-24v-288    C480,42.746,469.255,32.001,456,32.001z M464,96.001H16v-40c0-4.418,3.582-8,8-8h432c4.418,0,8,3.582,8,8V96.001z" fill="#006DF0"/>
	</g>
</g>
<g>
	<g>
		<path d="M232,144.001H56c-4.418,0-8,3.582-8,8s3.582,8,8,8h176c4.418,0,8-3.582,8-8S236.418,144.001,232,144.001z" fill="#006DF0"/>
	</g>
</g>
<g>
</g>
<g>
</g>
<g>
</g>
<g>
</g>
<g>
</g>
<g>
</g>
<g>
</g>
<g>
</g>
<g>
</g>
<g>
</g>
<g>
</g>
<g>
</g>
<g>
</g>
<g>
</g>
<g>
</g>
</svg>
