<?xml version="1.0" encoding="UTF-8"?>
<svg width="414px" height="259px" viewBox="0 0 414 259" version="1.1" xmlns="http://www.w3.org/2000/svg" xmlns:xlink="http://www.w3.org/1999/xlink">
    <!-- Generator: Sketch 51.2 (57519) - http://www.bohemiancoding.com/sketch -->
    <title>Group 2</title>
    <desc>Created with Sketch.</desc>
    <defs>
        <linearGradient x1="100%" y1="50%" x2="0%" y2="50%" id="linearGradient-1">
            <stop stop-color="#546FF7" offset="0%"></stop>
            <stop stop-color="#6D54F7" offset="100%"></stop>
        </linearGradient>
        <rect id="path-2" x="0" y="0" width="414" height="259"></rect>
    </defs>
    <g id="Page-1" stroke="none" stroke-width="1" fill="none" fill-rule="evenodd">
        <g id="Home-Copy" transform="translate(0.000000, -85.000000)">
            <g id="Group-2" transform="translate(0.000000, 85.000000)">
                <mask id="mask-3" fill="white">
                    <use xlink:href="#path-2"></use>
                </mask>
                <use id="Mask" fill="url(#linearGradient-1)" xlink:href="#path-2"></use>
                <g mask="url(#mask-3)" fill="#FFFFFF" opacity="0.199999988">
                    <g transform="translate(-289.000000, -53.000000)">
                        <rect id="Rectangle-54" style="mix-blend-mode: soft-light;" transform="translate(803.677650, 167.356786) rotate(20.000000) translate(-803.677650, -167.356786) " x="648.17765" y="45.8567857" width="311" height="243" rx="28"></rect>
                        <rect id="Rectangle-54-Copy-2" style="mix-blend-mode: soft-light;" transform="translate(188.500000, 167.356786) scale(-1, 1) rotate(20.000000) translate(-188.500000, -167.356786) " x="33" y="45.8567857" width="311" height="243" rx="28"></rect>
                        <rect id="Rectangle-54-Copy" style="mix-blend-mode: soft-light;" transform="translate(803.677650, 341.356786) rotate(20.000000) translate(-803.677650, -341.356786) " x="648.17765" y="219.856786" width="311" height="243" rx="28"></rect>
                        <rect id="Rectangle-54-Copy-3" style="mix-blend-mode: soft-light;" transform="translate(188.500000, 341.356786) scale(-1, 1) rotate(20.000000) translate(-188.500000, -341.356786) " x="33" y="219.856786" width="311" height="243" rx="28"></rect>
                    </g>
                </g>
            </g>
        </g>
    </g>
</svg>