<?xml version="1.0" encoding="iso-8859-1"?>
<!-- Generator: Adobe Illustrator 19.0.0, SVG Export Plug-In . SVG Version: 6.00 Build 0)  -->
<svg version="1.1" id="Layer_1" xmlns="http://www.w3.org/2000/svg" xmlns:xlink="http://www.w3.org/1999/xlink" x="0px" y="0px"
	 viewBox="0 0 512 512" style="enable-background:new 0 0 512 512;" xml:space="preserve">
<g>
	<path style="fill:#FCC447;" d="M255.116,96.669H29.722l17.909-26.624l28.96-43.071c5.997-8.92,17.717-11.966,27.293-7.103
		l98.805,50.174L255.116,96.669z"/>
	<path style="fill:#FCC447;" d="M480.497,96.669H255.116l52.428-26.624l98.791-50.174c9.589-4.863,21.296-1.817,27.293,7.103
		l28.96,43.071L480.497,96.669z"/>
</g>
<g>
	<polygon style="fill:#F2B844;" points="202.688,70.046 255.116,96.669 29.722,96.669 47.631,70.046 	"/>
	<polygon style="fill:#F2B844;" points="480.497,96.669 255.116,96.669 307.544,70.046 462.588,70.046 	"/>
</g>
<rect x="16.28" y="174.402" style="fill:#E6E6E6;" width="479.448" height="320.032"/>
<polygon style="fill:#CCCCCC;" points="495.728,174.403 495.728,220.59 305.304,220.59 305.304,248.238 257.343,226.175 
	207.141,248.238 207.141,220.59 16.28,220.59 16.28,174.403 "/>
<polygon style="fill:#E6E6E6;" points="306.987,196.007 512,196.007 512,91.212 305.307,91.212 204.917,91.212 0,91.212 0,196.007 
	206.584,196.007 "/>
<polygon style="fill:#FCC447;" points="305.311,91.207 207.144,91.207 207.144,223.648 257.343,201.583 305.311,223.648 "/>
<polygon style="fill:#73D8D0;" points="315.761,311.383 271.709,311.383 271.709,260.159 240.291,260.159 240.291,311.383 
	196.238,311.383 196.238,342.801 240.291,342.801 240.291,455.493 271.709,455.493 271.709,342.801 315.761,342.801 "/>
<g>
</g>
<g>
</g>
<g>
</g>
<g>
</g>
<g>
</g>
<g>
</g>
<g>
</g>
<g>
</g>
<g>
</g>
<g>
</g>
<g>
</g>
<g>
</g>
<g>
</g>
<g>
</g>
<g>
</g>
</svg>
