<?xml version="1.0" encoding="UTF-8"?>
<svg width="133px" height="27px" viewBox="0 0 133 27" version="1.1" xmlns="http://www.w3.org/2000/svg" xmlns:xlink="http://www.w3.org/1999/xlink">
    <!-- Generator: Sketch 49.3 (51167) - http://www.bohemiancoding.com/sketch -->
    <title>logo</title>
    <desc>Created with Sketch.</desc>
    <defs>
        <polygon id="path-1" points="0 26.716256 55.865152 26.716256 55.865152 0 0 0"></polygon>
    </defs>
    <g id="Page-1" stroke="none" stroke-width="1" fill="none" fill-rule="evenodd">
        <g id="Home-Copy" transform="translate(-141.000000, -118.000000)">
            <g id="logo" transform="translate(141.000000, 118.000000)">
                <path d="M80.0257999,22 L77.3160596,22 L74.0618196,12.7863999 L70.7981195,22 L68.0705596,22 L63.0191396,6.6 L67.0974997,6.6 L69.7746797,15.8191001 L72.7525997,6.6 L75.5428598,6.6 L78.6107597,15.9216201 L81.1717798,6.6 L85.0499398,6.6 L80.0257999,22 Z M91.2090599,10.1012999 L91.2095003,10.1012999 C94.7543604,10.1012999 96.3108604,11.7215997 96.3108604,14.4654398 L96.3108604,18.6524799 C96.3108604,19.25176 96.5403203,19.4603199 96.8808802,19.4603199 L97.4955602,19.4561399 L97.2485003,21.8272999 C96.8168604,22.2177999 96.0429006,22.33308 95.4396606,22.33308 C94.4824408,22.33308 93.6682209,22.00308 93.271341,21.0936001 C92.5966011,21.7214799 91.6536811,22.37092 89.9984009,22.37092 C87.7962008,22.37092 85.9556807,21.2071201 85.9556807,18.6080402 C85.9556807,16.2771402 87.8802406,15.1918802 90.4740405,15.1918802 C91.2559203,15.1918802 92.2534003,15.2957202 92.6806402,15.3846001 L92.6806402,14.8005 C92.6806402,13.4321001 91.9775201,13.0118999 90.7023999,13.0118999 C89.6211001,13.0118999 88.4665402,13.41626 87.77926,13.9548199 L86.4291201,11.7218199 C87.70292,10.6281998 89.6103199,10.1012999 91.2090599,10.1012999 Z M90.9224009,17.2836402 C89.9748608,17.2836402 89.3093608,17.5980201 89.3093608,18.49716 C89.3093608,19.4530599 90.0325007,19.7454398 90.7191208,19.7454398 C91.5333407,19.7454398 92.3152206,19.4361198 92.7343206,18.6617199 L92.7343206,17.5161797 C92.2921205,17.3705398 91.6550003,17.2836399 90.9224003,17.2836399 L90.9224009,17.2836402 Z M103.13548,22 L99.5054799,22 L99.5054799,5.456 L103.13548,5.456 L103.13548,22 Z M109.73548,22 L106.10548,22 L106.10548,5.456 L109.73548,5.456 L109.73548,22 Z M123.13106,15.4715 L123.13106,15.4717202 C123.13106,16.0635201 123.07342,16.7442001 122.94054,17.3412801 L115.7109,17.3412801 C116.04486,18.9959003 117.1299,19.4781402 118.3476,19.4781402 C119.44474,19.4781402 120.46312,19.0852202 121.2593,18.4522801 L122.5991,20.81926 C121.33894,21.8585402 119.7215,22.37092 117.8251,22.37092 C114.61222,22.37092 112.07804,20.3898199 112.07804,16.2841801 C112.07804,12.6667202 114.35438,10.1013002 117.72346,10.1013002 C121.39196,10.1013002 123.13106,12.7402001 123.13106,15.4715 Z M115.6746,15.0935402 L119.78904,15.0935402 C119.7325,13.6452801 118.98318,12.8695602 117.8031,12.8695602 C116.67076,12.8695602 115.90098,13.4730201 115.6746,15.0935402 Z M129.71676,10.472 L132.5189,10.4722202 L132.5189,13.5658601 L129.71654,13.5658601 L129.71654,18.2054401 C129.71654,18.854 130.02256,19.1221801 130.57784,19.1221801 C131.07966,19.1221801 131.60766,19.0038199 132.04656,18.8506998 L132.90544,21.3978598 C132.08418,21.9372999 130.9613,22.37092 129.48774,22.37092 C127.2609,22.37092 126.05112,21.41766 126.05112,18.98666 L126.05112,13.5658601 L124.4009,13.5658601 L124.4009,10.4722202 L126.05112,10.4722202 L126.05112,9.29214023 L127.59178,7.45294009 L129.71676,7.45294009 L129.71676,10.472 Z" id="Wallet" fill="#FFFFFF"></path>
                <g id="Group-13">
                    <path d="M8.1363072,21.9020032 L8.1363072,15.3435072 C8.1363072,14.1157632 7.4728192,13.6489472 6.4168832,13.6489472 C5.4097792,13.6489472 4.8939072,14.1648192 4.5254272,14.5821312 L4.5254272,21.9020032 L0.1041152,21.9020032 L0.1041152,10.0387392 L4.5254272,10.0387392 L4.5254272,11.3892352 C5.2131072,10.6032192 6.5149952,9.7435072 8.6028992,9.7435072 C11.3538432,9.7435072 12.5573952,11.4143232 12.5573952,13.4771392 L12.5573952,21.9020032 L8.1363072,21.9020032 Z" id="Fill-1" fill="#FFFFFF"></path>
                    <path d="M14.7432096,5.179888 C14.7432096,3.804304 15.8484256,2.699312 17.2242336,2.699312 C18.5995936,2.699312 19.7050336,3.804304 19.7050336,5.179888 C19.7050336,6.555472 18.5995936,7.66136 17.2242336,7.66136 C15.8484256,7.66136 14.7432096,6.555472 14.7432096,5.179888" id="Fill-3" fill="#FFFFFF"></path>
                    <mask id="mask-2" fill="white">
                        <use xlink:href="#path-1"></use>
                    </mask>
                    <g id="Clip-6"></g>
                    <polygon id="Fill-5" fill="#FFFFFF" mask="url(#mask-2)" points="15.0136 21.902048 19.434688 21.902048 19.434688 10.038784 15.0136 10.038784"></polygon>
                    <path d="M29.9226144,21.9020032 L29.9226144,15.3435072 C29.9226144,14.1157632 29.2597984,13.6489472 28.2031904,13.6489472 C27.1965344,13.6489472 26.6806624,14.1648192 26.3119584,14.5821312 L26.3119584,21.9020032 L21.8910944,21.9020032 L21.8910944,10.0387392 L26.3119584,10.0387392 L26.3119584,11.3892352 C26.9998624,10.6032192 28.3017504,9.7435072 30.3896544,9.7435072 C33.1405984,9.7435072 34.3441504,11.4143232 34.3441504,13.4771392 L34.3441504,21.9020032 L29.9226144,21.9020032 Z" id="Fill-7" fill="#FFFFFF" mask="url(#mask-2)"></path>
                    <path d="M32.9682528,25.9055776 L34.0248608,22.6387616 C34.5156448,23.0074656 34.8111008,23.1055776 35.4985568,23.1055776 C36.3089888,23.1055776 36.7997728,22.5162336 36.7997728,21.3861536 L36.7997728,10.0387616 L41.2217568,10.0387616 L41.2217568,21.3861536 C41.2217568,24.4325536 39.7227488,26.7162336 36.2841248,26.7162336 C34.4912288,26.7162336 33.9263008,26.4958176 32.9682528,25.9055776" id="Fill-8" fill="#FFFFFF" mask="url(#mask-2)"></path>
                    <path d="M36.5301664,5.179888 C36.5301664,3.804304 37.6353824,2.699312 39.0107424,2.699312 C40.3861024,2.699312 41.4910944,3.804304 41.4910944,5.179888 C41.4910944,6.555472 40.3861024,7.66136 39.0107424,7.66136 C37.6353824,7.66136 36.5301664,6.555472 36.5301664,5.179888" id="Fill-9" fill="#FFFFFF" mask="url(#mask-2)"></path>
                    <path d="M51.4390688,17.481072 L51.4390688,14.45976 C51.0217568,13.943888 50.1864608,13.67352 49.5971168,13.67352 C48.3935648,13.67352 47.3860128,14.483728 47.3860128,15.957648 C47.3860128,17.431568 48.3935648,18.29128 49.5971168,18.29128 C50.1864608,18.29128 51.0217568,17.996944 51.4390688,17.481072 Z M51.4390688,21.901936 L51.4390688,20.649552 C50.4324128,21.77896 49.3023328,22.196496 48.0987808,22.196496 C45.2253088,22.196496 42.8665888,20.035568 42.8665888,15.957648 C42.8665888,12.027568 45.1762528,9.74344 48.0987808,9.74344 C49.3023328,9.74344 50.4819168,10.1612 51.4151008,11.29128 L51.4151008,10.038672 L55.8608288,10.038672 L55.8608288,21.901936 L51.4390688,21.901936 Z" id="Fill-10" fill="#FFFFFF" mask="url(#mask-2)"></path>
                    <polygon id="Fill-11" fill="#F5EA16" mask="url(#mask-2)" points="0.000448 4.452 55.864928 4.452 55.864928 0 0.000448 0"></polygon>
                    <polygon id="Fill-12" fill="#F5EA16" mask="url(#mask-2)" points="0 11.333056 55.865152 11.333056 55.865152 6.881056 0 6.881056"></polygon>
                </g>
            </g>
        </g>
    </g>
</svg>