<?xml version="1.0" encoding="UTF-8"?>
<svg width="97px" height="167px" viewBox="0 0 97 167" version="1.1" xmlns="http://www.w3.org/2000/svg" xmlns:xlink="http://www.w3.org/1999/xlink">
    <!-- Generator: Sketch 49.3 (51167) - http://www.bohemiancoding.com/sketch -->
    <title>Group</title>
    <desc>Created with Sketch.</desc>
    <defs>
        <linearGradient x1="73.9979778%" y1="-5.25682386%" x2="50%" y2="37.6074692%" id="linearGradient-1">
            <stop stop-color="#B03838" offset="0%"></stop>
            <stop stop-color="#7D3535" offset="100%"></stop>
        </linearGradient>
        <linearGradient x1="-7.42224011%" y1="68.9534068%" x2="21.1907761%" y2="68.9534068%" id="linearGradient-2">
            <stop stop-color="#F8966F" offset="0%"></stop>
            <stop stop-color="#D05950" offset="100%"></stop>
        </linearGradient>
        <linearGradient x1="100%" y1="59.5144451%" x2="71.372447%" y2="59.5144451%" id="linearGradient-3">
            <stop stop-color="#FEA684" offset="0%"></stop>
            <stop stop-color="#E0756D" offset="100%"></stop>
        </linearGradient>
        <linearGradient x1="150.567956%" y1="-28.9143584%" x2="50%" y2="50%" id="linearGradient-4">
            <stop stop-color="#FFFFFF" offset="0%"></stop>
            <stop stop-color="#FFAF54" offset="100%"></stop>
        </linearGradient>
        <linearGradient x1="50%" y1="13.0708554%" x2="0%" y2="67.7413175%" id="linearGradient-5">
            <stop stop-color="#C8D5E5" offset="0%"></stop>
            <stop stop-color="#E9E9E9" stop-opacity="0.645663496" offset="100%"></stop>
        </linearGradient>
        <path d="M8.1,0 L11.0552268,0 L11.0552268,2.93766026 C11.0552268,7.41116673 7.4287333,11.0376603 2.95522682,11.0376603 L0,11.0376603 L0,8.1 C-5.47846538e-16,3.62649353 3.62649353,8.21769808e-16 8.1,0 Z" id="path-6"></path>
    </defs>
    <g id="Page-1" stroke="none" stroke-width="1" fill="none" fill-rule="evenodd">
        <g id="empty" transform="translate(-157.000000, -337.000000)">
            <g id="Group-6" transform="translate(15.000000, 275.000000)">
                <g id="Group" transform="translate(142.000000, 59.000000)">
                    <g id="Artwork">
                        <g id="wallet" transform="translate(0.000000, 87.179487)">
                            <path d="M12.421372,7.20489323 L58.7113011,0.038912886 C66.5065802,-0.247240677 71.7199205,5.82086528 71.7199205,14.2101724 L71.7199205,53.900654 C71.7199205,62.2899611 66.3326353,68.8540333 59.6870823,68.5619195 L13.49651,66.5315536 C6.850957,66.2394398 1.46367185,59.8184729 1.46367185,52.1899226 L1.46367185,21.3109693 C1.46367185,13.6824189 5.17395078,8.6172454 12.421372,7.20489323 Z" id="Rectangle-54-Copy" fill="url(#linearGradient-1)"></path>
                            <path d="M14.1955385,11.0784236 L56.9703312,4.63487542 C63.979736,4.37757019 67.5159548,8.09912159 67.5159548,15.6426679 L67.5159548,51.3317877 C67.5159548,58.875334 62.6717841,64.7776549 56.6961968,64.5149903 L15.1622874,64.4241177 C9.18670014,64.1614531 4.34252952,58.3878104 4.34252952,51.5283258 L4.34252952,23.7624077 C4.34252952,16.9029231 7.67875986,12.3483907 14.1955385,11.0784236 Z" id="Rectangle-54-Copy-2" fill="url(#linearGradient-1)" style="mix-blend-mode: multiply;" opacity="0.269474638"></path>
                            <path d="M71.5236487,19.4266633 L89.1872453,31.248234 C93.1808995,33.9210343 95.5780746,38.4098734 95.5780746,43.2154052 L95.5780746,48.8255334 L72.4503114,33.3566173 L71.5236487,19.4266633 Z" id="Rectangle-56" fill="#7D3535"></path>
                            <path d="M25.1105153,17.4173163 L73.6714829,15.7191031 C82.0245739,15.4269893 88.796092,21.9910615 88.796092,30.3803686 L88.2203205,68.1108264 C88.2203205,76.5001336 80.2972593,82.4859378 71.9441683,82.193824 L15.6124997,80.7417261 C7.25940875,80.4496123 0.487890616,74.0286453 0.487890616,66.400095 L0.487890616,32.0911001 C0.487890616,31.6534361 0.510179255,31.2197469 0.553776461,30.7909619 C-0.00743545925,17.6441803 2.86889667,10.1016824 9.18277285,8.16346845 C5.64429868,10.1408662 4.59418763,12.1514453 6.0324397,14.195206 C8.449432,17.6297595 17.5450317,17.5687896 25.1105153,17.4173163 Z" id="Combined-Shape" fill="url(#linearGradient-2)"></path>
                            <path d="M75.6670087,42.3693399 C80.2606311,40.8992189 83.5630123,39.2954911 85.5741523,37.5581565 C87.5852922,35.8208219 88.6495939,33.6523661 88.7670573,31.052789 L88.7670573,42.3693399 L75.6670087,42.3693399 Z" id="Path-3" fill="#565656" style="mix-blend-mode: multiply;" opacity="0.200000003"></path>
                            <path d="M88.7817127,40.4810358 C88.7712731,40.4739757 88.7609417,40.4668502 88.7507202,40.4596592 C95.5710417,38.8060871 93.481142,34.4085106 92.3791537,33.5226634 C94.3164266,34.7652073 95.5710417,37.7205921 95.5710417,39.353239 C95.5710417,39.3571368 95.5710129,39.3610294 95.5709555,39.3649167 C95.57333,39.3643594 95.575703,39.3638021 95.5780746,39.3632447 C95.6941372,41.2793597 95.7737693,43.2406343 95.8169708,45.2470685 L95.8169582,45.2470688 C95.9836286,52.9878384 90.117923,59.5311219 82.405028,60.2082802 L78.7504831,60.5291333 C73.9348731,60.9519227 69.6883113,57.3908381 69.2655219,52.5752281 C69.2431723,52.3206641 69.2319814,52.0652434 69.2319814,51.8097001 C69.2319814,46.4516208 73.3297764,41.9834755 78.6678616,41.5210245 C82.6358492,41.1772662 86.007133,40.830604 88.7817127,40.4810358 Z" id="Combined-Shape" fill="url(#linearGradient-3)"></path>
                            <ellipse id="Oval-31" fill="url(#linearGradient-4)" cx="79.233739" cy="51.2314322" rx="5.12285146" ry="5.14506243"></ellipse>
                            <path d="M2.06283516,21.5590866 C3.96463453,26.9661929 13.3746791,27.96358 16.8784719,28.2482442 C20.3822647,28.5329084 81.519887,29.3740192 87.586189,24.4020904" id="Path-4" stroke="#DA6A6A" stroke-width="3" stroke-linecap="round" stroke-dasharray="9"></path>
                            <path d="M1.42508245,65.7884932 C3.32688181,71.1955996 12.725739,70.9110329 16.2295317,71.1956972 C19.7333245,71.4803614 80.8821343,73.6034258 86.9484363,68.631497" id="Path-4-Copy" stroke="#DA6A6A" stroke-width="3" stroke-linecap="round" stroke-dasharray="9" transform="translate(44.186759, 68.838435) rotate(1.000000) translate(-44.186759, -68.838435) "></path>
                        </g>
                        <g id="fly" transform="translate(22.435897, 0.000000)">
                            <path d="M1.71386167,98.2678095 C-7.25782278,74.9962034 25.837779,52.5985147 35.0970975,62.4045129 C41.6582495,69.3530421 33.2483764,79.3737755 21.5781485,78.248078 C8.44240625,76.9810186 0.678036758,65.2337739 3.26806479,52.5985147 C8.40572507,27.5348209 47.9059643,26.3366941 49.5712386,25.1815539" id="path" stroke="url(#linearGradient-5)" stroke-width="5" stroke-linecap="round" stroke-linejoin="round" stroke-dasharray="6,15"></path>
                            <g id="bee" transform="translate(39.743590, 0.000000)">
                                <path d="M10.49154,19.5393723 C14.7584696,14.9210341 16.8919344,11.4354572 16.8919344,9.08264152 C16.8919344,5.55341806 14.0263802,2.69241716 10.49154,2.69241716 C6.9566997,2.69241716 4.09114549,5.55341806 4.09114549,9.08264152 C4.09114549,11.4354572 6.22461031,14.9210341 10.49154,19.5393723 Z" id="Oval" fill="#CED8E5" opacity="0.400000006" transform="translate(10.491540, 11.115895) rotate(-45.000000) translate(-10.491540, -11.115895) "></path>
                                <path d="M26.7834532,35.2244684 C31.0503828,30.6061302 33.1838477,27.1205533 33.1838477,24.7677377 C33.1838477,21.2385142 30.3182934,18.3775133 26.7834532,18.3775133 C23.2486129,18.3775133 20.3830587,21.2385142 20.3830587,24.7677377 C20.3830587,27.1205533 22.5165235,30.6061302 26.7834532,35.2244684 Z" id="Oval-Copy" fill="#CED8E5" opacity="0.400000006" transform="translate(26.783453, 26.800991) scale(-1, -1) rotate(-45.000000) translate(-26.783453, -26.800991) "></path>
                                <g id="Rectangle-4" transform="translate(13.382643, 12.840545)">
                                    <mask id="mask-7" fill="white">
                                        <use xlink:href="#path-6"></use>
                                    </mask>
                                    <use id="Mask" fill="#A8B7C5" xlink:href="#path-6"></use>
                                    <rect fill="#DDE5F2" mask="url(#mask-7)" transform="translate(3.200197, 6.971154) rotate(-45.000000) translate(-3.200197, -6.971154) " x="2.32741617" y="0.580929487" width="1.74556213" height="12.7804487"></rect>
                                    <polygon id="Rectangle-4-Copy" fill="#DDE5F2" mask="url(#mask-7)" points="1.55560111 0.165084842 2.78989993 -1.06921398 11.8270419 7.96792798 10.5927431 9.2022268"></polygon>
                                </g>
                                <path d="M30.3738751,10.0750975 L34.6203156,9.06450321" id="Path-7-Copy" stroke="#8696C5" stroke-width="0.9"></path>
                                <path d="M28.628313,8.33230909 L30.2621298,4.1289851" id="Path-7" stroke="#8696C5" stroke-width="0.9"></path>
                                <ellipse id="Oval-4" fill="#8B9AA8" cx="26.183432" cy="11.6786859" rx="4.65483235" ry="4.6474359"></ellipse>
                            </g>
                        </g>
                    </g>
                </g>
            </g>
        </g>
    </g>
</svg>