<?xml version="1.0" encoding="UTF-8"?>
<svg width="185px" height="134px" viewBox="0 0 185 134" version="1.1" xmlns="http://www.w3.org/2000/svg" xmlns:xlink="http://www.w3.org/1999/xlink">
    <!-- Generator: Sketch 50.2 (55047) - http://www.bohemiancoding.com/sketch -->
    <title>Group 52</title>
    <desc>Created with Sketch.</desc>
    <defs>
        <linearGradient x1="3.45708877%" y1="97.6571494%" x2="97.3242739%" y2="2.67572612%" id="linearGradient-1">
            <stop stop-color="#489540" offset="0%"></stop>
            <stop stop-color="#8BC832" offset="59.1966221%"></stop>
            <stop stop-color="#57B433" offset="100%"></stop>
        </linearGradient>
        <rect id="path-2" x="0" y="0" width="184.5" height="134" rx="6"></rect>
        <polygon id="path-4" points="0 0.0301476402 88.8096064 0.0301476402 88.8096064 88.8397053 0 88.8397053"></polygon>
        <polygon id="path-6" points="0.0672851744 0.021476535 40.6397843 0.021476535 40.6397843 88.9062691 0.0672851744 88.9062691"></polygon>
    </defs>
    <g id="App-Wallet" stroke="none" stroke-width="1" fill="none" fill-rule="evenodd">
        <g id="Group-52">
            <g id="Group-Copy-4">
                <mask id="mask-3" fill="white">
                    <use xlink:href="#path-2"></use>
                </mask>
                <use id="Mask" fill="url(#linearGradient-1)" xlink:href="#path-2"></use>
                <g id="Group-53" opacity="0.2" style="mix-blend-mode: overlay;" mask="url(#mask-3)">
                    <g transform="translate(139.507071, 72.254023) rotate(-15.000000) translate(-139.507071, -72.254023) translate(80.507071, 27.754023)">
                        <g id="Group-6" stroke-width="1" fill="none">
                            <mask id="mask-5" fill="white">
                                <use xlink:href="#path-4"></use>
                            </mask>
                            <g id="Clip-5"></g>
                            <path d="M44.4047666,0.0301476402 C68.9288719,0.0301476402 88.8096064,19.9108822 88.8096064,44.4349874 C88.8096064,68.9589708 68.9288719,88.8397053 44.4047666,88.8397053 C19.8806613,88.8397053 -7.31738841e-05,68.9589708 -7.31738841e-05,44.4349874 C-7.31738841e-05,19.9108822 19.8806613,0.0301476402 44.4047666,0.0301476402" id="Fill-4" fill="#B4B4B4" mask="url(#mask-5)"></path>
                        </g>
                        <path d="M56.3823584,48.6388308 L56.3948033,48.6617394 L56.3968774,48.6656388 C56.4015138,48.6925686 56.4081022,48.7138931 56.4127386,48.7403355 L56.4148127,48.7442348 L56.4168869,48.7480123 L56.418961,48.7519116 L56.4210352,48.755811 C56.6075868,49.6853158 56.473499,50.6504021 56.0408554,51.4941215 L55.9985183,51.5710116 L55.9781428,51.606593 L55.9632577,51.634254 L55.9558152,51.6480235 L55.9428822,51.6698354 L55.9355617,51.683605 L55.9225067,51.7054169 L55.9151862,51.7190646 L55.898471,51.742948 L55.8911505,51.7565957 L55.8743132,51.7803573 L55.8669927,51.7941268 L55.8502775,51.8178884 L55.8429569,51.831658 L55.8261197,51.8554196 L55.8187992,51.8691891 L55.8020839,51.8929507 L55.7947634,51.9065984 L55.7779262,51.9304818 L55.7706056,51.9441295 L55.7538904,51.9678911 L55.7465699,51.9816607 L55.7297327,52.0054223 L55.7224121,52.0191918 L55.7056969,52.0429534 L55.6983764,52.0567229 L55.6777569,52.082556 L55.6704363,52.0963256 L55.6498168,52.1221587 L55.6424963,52.1359282 L55.6238289,52.1657826 L55.6165084,52.1795521 L55.597963,52.2094064 L55.5906425,52.2231759 L55.5720971,52.2530303 L55.5608723,52.2689932 L55.5423269,52.2988475 L55.5311021,52.3146885 L55.5086525,52.3463707 L55.4974277,52.3622117 L55.474978,52.393772 L55.4637532,52.4096131 L55.4413036,52.441417 L55.4300787,52.4571363 L55.4075071,52.4889402 L55.3961603,52.5047813 L55.3738326,52.5363416 L55.3549212,52.5564475 L55.3194167,52.6001932 C54.2634294,53.9469273 52.5603069,55.0545832 50.4917677,55.5850151 C49.1871263,55.921333 45.2455061,56.9510021 44.286394,57.1954419 L41.6030518,46.7671483 C42.5605778,46.5188092 46.5126908,45.5277679 47.8170881,45.1913281 C49.8858714,44.6610181 51.9168319,44.8115082 53.4864766,45.4809758 L53.5377204,45.5027878 L53.5633423,45.5137547 L53.600677,45.5287427 L53.6183683,45.5339825 L53.6519207,45.550311 L53.66949,45.5555507 L53.7030425,45.572001 L53.7207338,45.5772408 L53.7541642,45.5936911 L53.7678292,45.6010024 L53.8013817,45.6174527 L53.8150467,45.624764 L53.8485991,45.6412143 L53.8623861,45.6485256 L53.8959386,45.6649759 L53.9096036,45.6722871 L53.9372996,45.6871534 L53.9510866,45.6945865 L53.9787826,45.7094527 L53.9925696,45.7168858 L54.0202657,45.7317521 L54.0339307,45.7390633 L54.0616267,45.7540514 L54.0754137,45.7613627 L54.1031097,45.7762289 L54.1168967,45.783662 L54.1445928,45.7985282 L54.1582578,45.8058395 L54.1859538,45.8208276 L54.1997408,45.8281388 L54.2274368,45.8431269 L54.2412238,45.8504382 L54.2687978,45.8654263 L54.2825848,45.8727375 L54.3063766,45.8894316 L54.3201636,45.8967428 L54.3439553,45.9134369 L54.3577423,45.9207481 L54.3815341,45.937564 L54.3951991,45.9448753 L54.4191128,45.9615693 L54.4327778,45.9688806 L54.4565696,45.9856965 L54.4703566,45.9930077 L54.4921962,46.0060462 L54.5059832,46.0133574 L54.5297749,46.0300515 L54.5614972,46.0524727 C54.585289,46.0691667 54.612985,46.0840329 54.6362887,46.100727 C55.4215381,46.6326211 56.0042527,47.4135855 56.2899976,48.3172572 L56.2982942,48.3322453 C56.3067128,48.3571036 56.3131793,48.3784281 56.3217199,48.4032864 L56.3237941,48.4071857 L56.336239,48.4300943 C56.3450236,48.464701 56.3539303,48.4994295 56.3647891,48.5379354 C56.3841885,48.5464652 56.3872387,48.5891142 56.3811383,48.6416335 L56.3823584,48.6388308 Z M37.9020332,32.391993 C38.7087562,32.1852062 42.043748,31.3485543 43.1435364,31.0630496 C44.8919243,30.616088 46.6148122,30.7896085 47.9598386,31.436655 L48.0047379,31.4566391 L48.0245033,31.4657782 L48.0521993,31.4806444 L48.0659863,31.4879557 L48.0936824,31.5030656 L48.1074694,31.5103769 L48.1350434,31.5252431 L48.1488304,31.5325544 L48.1765264,31.5475425 L48.1903134,31.5548537 L48.2180095,31.5697199 L48.2317965,31.5770312 L48.2593705,31.5920193 L48.2732795,31.5994524 L48.3008535,31.6143186 L48.3146405,31.6216299 L48.3423365,31.636618 L48.3561236,31.6439292 L48.3838196,31.6587955 L48.3976066,31.6661067 L48.4212763,31.6829226 L48.4350633,31.6902339 L48.4588551,31.7069279 L48.4726421,31.7142392 L48.4964338,31.7310551 L48.5102208,31.7383663 L48.5320604,31.7514047 L48.5458474,31.758716 L48.567687,31.7716326 L48.581352,31.7789438 L48.6033136,31.7919822 L48.6169786,31.7992935 L48.6389402,31.8123319 L48.6526052,31.8196432 L48.6745668,31.8326816 L48.6845716,31.8420644 L48.7064112,31.8551028 L48.7143417,31.8605862 L48.7361813,31.8736246 L48.7441119,31.8791081 L48.7659515,31.8921465 L48.7738821,31.8976299 L48.7957217,31.9106684 L48.8036523,31.9161518 L48.8215876,31.9311399 L48.8295182,31.9366233 L48.8513578,31.9496617 L48.881372,31.9681836 C48.9030895,31.981222 48.922977,31.9999876 48.9449386,32.013026 C49.6335569,32.5321254 50.1395279,33.256062 50.3898902,34.0805284 L50.3961127,34.0921046 C50.4024572,34.1133072 50.4109978,34.1382874 50.4174643,34.15949 L50.4195384,34.1633894 L50.4319833,34.186298 C50.440768,34.2209046 50.4515047,34.2497841 50.4602894,34.2843907 C50.4700501,34.3197285 50.4762726,34.3560411 50.4790788,34.3925974 L50.4915237,34.4153841 L50.4935978,34.4194053 C50.4968921,34.443045 50.5028705,34.4663192 50.5112891,34.4886186 L50.5173896,34.5001947 C50.6943025,35.3429393 50.5999896,36.219803 50.2481159,37.0058853 L50.2171256,37.0766827 L50.2006544,37.1101926 L50.1877215,37.1320046 L50.1840612,37.1438244 L50.1750325,37.1635648 L50.1713723,37.1753847 L50.1583173,37.1971966 L50.1547791,37.2090165 L50.1417241,37.2307066 L50.1381858,37.2426483 L50.1251309,37.2644602 L50.1215926,37.2761582 L50.1085377,37.298092 L50.1049994,37.30979 L50.0919445,37.3317238 L50.0884062,37.3434218 L50.0753512,37.3652337 L50.0680307,37.3790033 L50.0549758,37.4008152 L50.0476552,37.4145847 L50.0348443,37.4363967 L50.0272797,37.4501662 L50.0144688,37.4719781 L50.0071483,37.4857477 L49.990311,37.5095093 L49.9828685,37.523157 L49.9661533,37.5470404 L49.9588327,37.5606881 L49.9419955,37.5844497 L49.934675,37.5982192 L49.9179597,37.6219808 L49.9106392,37.6357504 L49.893802,37.6595119 L49.8864814,37.6732815 L49.8697662,37.6970431 L49.8624457,37.7106908 L49.8456085,37.7345742 L49.8382879,37.7482219 L49.8215727,37.7719835 L49.8142522,37.785753 L49.7936327,37.8115862 L49.7861901,37.8253557 L49.7655706,37.8511888 L49.7582501,37.8649583 L49.7376306,37.8907915 L49.73031,37.904561 L49.7096905,37.9303941 L49.6946834,37.9483067 L49.6667434,37.9881531 C48.7973078,39.2047467 47.3723656,40.1877456 45.6239778,40.6347073 C44.5221152,40.9165563 41.195176,41.7876929 40.3893071,41.9946016 L37.9020332,32.391993 Z M65.6812682,46.5688913 L65.6566224,46.5229522 L65.6524741,46.5153973 C65.637345,46.4692145 65.6262422,46.4209601 65.609161,46.3709999 L65.6070868,46.3671005 L65.6050127,46.3633231 L65.6028165,46.3593019 L65.6007423,46.3555244 L65.5986682,46.351625 L65.596594,46.3477257 L65.5924457,46.3400489 C65.0708576,44.5985068 64.037076,43.0537594 62.6251888,41.9065009 L62.6231146,41.9027234 C62.5813876,41.8707976 62.5375864,41.835338 62.4956153,41.8036559 L62.4379051,41.7607631 L62.396178,41.7289592 L62.3782427,41.7140929 L62.3383458,41.6860664 L62.3204105,41.6712002 L62.2806356,41.6432956 L62.2627003,41.6283075 L62.2209732,41.5966254 L62.1991336,41.5835869 L62.1574066,41.5519048 L62.135445,41.5389883 L62.0906677,41.5090121 L62.0687061,41.4960955 L62.0423522,41.4560055 L62.0184384,41.4393114 L61.9736612,41.4093353 L61.9498694,41.3926412 L61.9049701,41.3627869 L61.8811784,41.345971 L61.8362791,41.3161167 L61.8124874,41.2994226 L61.7647819,41.2659127 L61.7409901,41.2492187 L61.6895024,41.2176584 L61.6657106,41.2008425 L61.6142229,41.1694041 L61.5904311,41.1525882 L61.5389434,41.1211498 L61.5151516,41.1043339 L61.4636639,41.0728954 L61.4359678,41.0579074 L61.3846021,41.0263471 L61.3569061,41.0114809 L61.301514,40.9815047 L61.273818,40.9666385 L61.2164738,40.9334941 L61.1887778,40.918506 L61.1313116,40.8853616 L61.1036155,40.8703736 L61.0461493,40.8372292 L61.0161352,40.8187073 L60.958791,40.7854411 L60.9288988,40.7669192 L60.8676503,40.7357245 L60.8377581,40.7172027 L60.7765096,40.6860079 L60.7350266,40.6638305 L60.7331965,40.6599311 C60.7031823,40.6414093 60.671948,40.6287364 60.6421778,40.6102146 C59.3719429,39.9582939 58.0005627,39.5254673 56.5858692,39.3301348 C56.9825202,38.9042539 57.3458628,38.4485187 57.6726027,37.9669504 L57.7247005,37.8898166 L57.7286048,37.8877451 L57.7526405,37.8499703 L57.7842409,37.7986696 L57.8009561,37.774908 L57.8325564,37.7234855 L57.8492716,37.6997239 L57.8808719,37.6483014 L57.8975871,37.6245398 L57.9291875,37.5731172 L57.9459027,37.5493556 L57.977503,37.4979331 L57.9942182,37.4741715 L58.0219142,37.4246987 L58.0387515,37.4009371 L58.0664475,37.3515861 L58.0793804,37.3296523 L58.1070765,37.2803013 L58.1201314,37.2583675 L58.1478274,37.2090165 L58.1606384,37.1870827 L58.1844301,37.1398032 L58.1974851,37.1179913 L58.2212768,37.07059 L58.2342098,37.048778 L58.2581235,37.0013767 L58.2710565,36.9795648 L58.2968003,36.9360628 L58.3098553,36.9142509 L58.3357212,36.8707489 L58.3487761,36.8489369 L58.3708597,36.8076283 L58.3839147,36.7858164 L58.4059983,36.7443859 L58.415149,36.7246455 L58.4372326,36.6832151 L58.4463833,36.6635965 L58.4685889,36.622166 L58.4776176,36.6024256 L58.4998232,36.5609952 L58.5089738,36.5412548 L58.5272752,36.501774 L58.5363038,36.4821554 L58.5546052,36.4426746 L58.5636338,36.4229342 L58.5819352,36.3834534 L58.5910859,36.363713 L58.6110953,36.3188706 L58.6385473,36.259162 C58.6585568,36.2143196 58.674784,36.1706957 58.6947934,36.1246348 L58.6985757,36.1225633 C59.3074002,34.6241206 59.4500286,32.9772593 59.1081597,31.3965649 L59.1060855,31.3926656 L59.1019372,31.3851106 L59.099741,31.3812113 L59.0976669,31.377312 L59.0955927,31.3734126 L59.0935186,31.3695133 L59.0914444,31.3656139 L59.0893703,31.3617146 C59.0802196,31.3169941 59.0710689,31.2730046 59.058258,31.2305993 L59.058258,31.2220695 L59.0561839,31.2181702 L59.0539877,31.2142709 L59.0519135,31.2103715 L59.0539877,31.2142709 L59.0354423,31.1799079 C59.0220214,31.1181278 59.0083564,31.0564695 58.9889569,30.9929834 C58.9754139,30.9313251 58.9560145,30.8677171 58.9386893,30.8080085 L58.9161176,30.7659688 L58.9118473,30.7584138 C58.8987923,30.7161304 58.8859814,30.6736032 58.8730485,30.6313197 L58.8708523,30.6274204 L58.8687782,30.6235211 L58.866704,30.6196217 L58.8646298,30.6158442 L58.8625557,30.6119449 L58.8604815,30.6080456 L58.8585294,30.6041462 C58.3955056,29.0541591 57.4755583,27.6795204 56.2189884,26.6591123 L56.2170363,26.6552129 C56.1811657,26.6253586 56.1412687,26.5972103 56.1053981,26.567356 L56.0558625,26.5299467 L56.0160876,26.5020421 L55.9981523,26.487054 L55.9643558,26.4609771 L55.9464205,26.4459891 L55.91238,26.4199122 L55.8945667,26.4049242 L55.8567439,26.380797 L55.8388086,26.3659308 L55.7991557,26.3379043 L55.7812204,26.323038 L55.7414455,26.2950115 L55.7235102,26.2801453 L55.6836133,26.2522407 L55.6617737,26.2392023 L55.6219988,26.2111758 L55.6001592,26.1982592 L55.5603843,26.1702327 L55.5385447,26.1573162 L55.4949875,26.1313612 L55.4731479,26.1184446 L55.4295907,26.0926115 L55.4077511,26.0795731 L55.3641939,26.05374 L55.3423543,26.0407016 L55.2987971,26.0148684 L55.2769575,26.00183 L55.2313262,25.9719757 L55.2094866,25.9589373 L55.1638553,25.929083 L55.1420157,25.9160446 L55.0924801,25.8883836 L55.0706405,25.8754671 L55.0212269,25.8478062 L54.9974351,25.8311121 L54.9480215,25.8034512 L54.9241078,25.7866353 L54.8748161,25.7589743 L54.8510244,25.7422803 L54.7995366,25.71072 L54.7718406,25.6958538 L54.7190108,25.663075 L54.6913147,25.6482088 L54.6359227,25.6183544 L54.6082267,25.6033664 L54.5528346,25.5733902 L54.5134257,25.5552339 L54.5113516,25.5513346 L54.4282635,25.5064922 C52.0022381,24.2472495 48.9201708,23.8681607 45.8191921,24.6626509 L45.0125911,24.8694377 L42.9723579,16.9345275 L38.2442683,18.1449065 L40.2777909,26.0485002 L36.4949044,27.0229693 L34.4599176,19.1447213 L29.7318279,20.3551004 L31.7653506,28.2586941 L22.0148857,30.7645065 L23.3123286,35.8003804 L27.2411378,34.7926451 C28.5413869,34.4579113 29.8672578,35.2392412 30.2024163,36.5378428 L30.2036364,36.5425952 L35.6569471,57.734891 C35.8792473,58.601519 35.3571712,59.4843536 34.4899318,59.7083219 L31.0474501,60.5928625 L31.2496189,66.5820028 L40.9886149,64.0825268 L43.0483695,71.9717417 L47.774019,70.7572196 L45.7391542,62.8498484 L49.5213087,61.8813502 L51.5570276,69.7885995 L56.2826771,68.5741992 L54.2401257,60.6359989 C55.0409923,60.426775 55.7298547,60.2492333 56.2064215,60.1260385 C59.701001,59.2284595 62.5268496,57.1822816 64.2369266,54.6306519 L64.2947589,54.5454758 L64.2985411,54.5434042 L64.3266032,54.5036797 L64.3636939,54.4438493 L64.3822393,54.4139949 L64.41933,54.3542863 L64.4378753,54.3243102 L64.4710617,54.2670386 L64.4897291,54.2370625 L64.5229155,54.1796691 L64.5378006,54.1520081 L64.5711091,54.0946147 L64.5859941,54.0669538 L64.6191806,54.0096823 L64.6341877,53.9820213 L64.6640799,53.9266995 L64.679087,53.8990385 L64.7089791,53.8437167 L64.7239862,53.8160557 L64.7554645,53.7647551 L64.7704716,53.7370941 L64.8020719,53.6856716 L64.816957,53.6580107 L64.8446531,53.6085378 L64.8596602,53.5808769 L64.8873562,53.5316477 L64.9023633,53.5039868 L64.9299373,53.4546358 L64.9409181,53.4291682 L64.9686141,53.3798172 L64.9794729,53.3542278 L65.0032647,53.3068265 L65.0163196,53.2850146 L65.0401114,53.2377351 L65.0530443,53.2159232 L65.076836,53.1685218 L65.089891,53.1467099 L65.1136827,53.0993086 L65.1267377,53.0774966 L65.1505294,53.0300953 L65.1634624,53.0082834 L65.1873761,52.9608821 L65.2003091,52.939192 L65.2204405,52.8942277 L65.2333735,52.8725377 L65.2532609,52.8275734 L65.2624116,52.8079549 L65.2842512,52.7567761 L65.3141434,52.6918277 C65.335983,52.6406489 65.3590427,52.5933694 65.377832,52.5441402 L65.3795402,52.5382912 C66.0636442,50.8526803 66.2245739,49.0004945 65.8412219,47.2223961 L65.8393918,47.2184967 L65.8373176,47.2145974 L65.8352435,47.2106981 L65.8330473,47.2069206 L65.8309732,47.2028994 L65.828899,47.1991219 L65.8268249,47.1952226 L65.8247507,47.1913232 C65.8135259,47.1430689 65.8024231,47.0949365 65.7911983,47.0466821 L65.7911983,47.0369338 L65.7891241,47.0330345 L65.78705,47.029257 L65.7848538,47.0252358 L65.7827796,47.0214583 L65.7807055,47.017559 L65.7786313,47.0136596 L65.7765572,47.0097603 L65.774483,47.0058609 L65.7722869,47.0019616 L65.7702127,46.9980623 L65.7681386,46.9941629 L65.7660644,46.9903854 L65.7639903,46.9863642 L65.7558157,46.971498 C65.7381244,46.9021629 65.7243374,46.8307563 65.7028638,46.7633708 C65.691883,46.6990317 65.6848065,46.6340834 65.6812682,46.5688913 Z" id="Fill-7" fill="#FFFFFF"></path>
                        <g id="Group-3" stroke-width="1" fill="none" transform="translate(76.205374, 0.000000)">
                            <mask id="mask-7" fill="white">
                                <use xlink:href="#path-6"></use>
                            </mask>
                            <g id="Clip-2"></g>
                            <path d="M0.0672851744,88.9062813 C13.9783069,79.0952489 23.0687208,62.8530858 23.0687208,44.4714402 C23.0687208,26.0896727 13.9785496,9.83250895 0.0672851744,0.021476535 L40.6397843,0.021476535 L40.6397843,88.9062813 L0.0672851744,88.9062813 Z" id="Fill-1" fill="#B4B4B4" mask="url(#mask-7)"></path>
                        </g>
                    </g>
                </g>
            </g>
        </g>
    </g>
</svg>