<?xml version="1.0" encoding="UTF-8"?>
<svg width="185px" height="134px" viewBox="0 0 185 134" version="1.1" xmlns="http://www.w3.org/2000/svg" xmlns:xlink="http://www.w3.org/1999/xlink">
    <!-- Generator: Sketch 50.2 (55047) - http://www.bohemiancoding.com/sketch -->
    <title>icons8-ethereum copy 8</title>
    <desc>Created with Sketch.</desc>
    <defs>
        <linearGradient x1="0%" y1="0%" x2="101.999998%" y2="100.999999%" id="linearGradient-1">
            <stop stop-color="#E64E81" offset="0%"></stop>
            <stop stop-color="#993CFF" offset="100%"></stop>
        </linearGradient>
        <linearGradient x1="4.04651125%" y1="95.9534887%" x2="94.8136704%" y2="5.18632958%" id="linearGradient-2">
            <stop stop-color="#3FA57A" offset="0%"></stop>
            <stop stop-color="#68D9A0" offset="59.7769147%"></stop>
            <stop stop-color="#58C2A8" offset="100%"></stop>
        </linearGradient>
        <rect id="path-3" x="0" y="0" width="184.5" height="134" rx="6"></rect>
    </defs>
    <g id="App-Wallet" stroke="none" stroke-width="1" fill="none" fill-rule="evenodd">
        <g id="icons8-ethereum-copy-8">
            <g id="logo">
                <mask id="mask-4" fill="white">
                    <use xlink:href="#path-3"></use>
                </mask>
                <use id="Mask" fill="url(#linearGradient-2)" xlink:href="#path-3"></use>
                <g opacity="0.2" style="mix-blend-mode: soft-light;" mask="url(#mask-4)">
                    <g transform="translate(164.160437, 67.479229) rotate(27.000000) translate(-164.160437, -67.479229) translate(101.660437, 17.979229)">
                        <path d="M92.2013514,89.8523955 C97.9712429,84.6137505 103.292527,78.8964583 108.108918,72.7609937 C111.337468,73.6622409 114.781667,73.3550996 117.801981,71.896601 C115.099936,69.6470617 112.754057,66.997375 110.844863,64.0384853 C115.209827,65.7239812 120.106193,65.273875 124.094655,62.8204773 C124.094655,62.8204773 111.470222,55.7481732 109.672315,50.0510393 C102.988792,29.0305797 103.496896,27.1446319 103.496896,27.1446319 C107.405389,16.968372 110.454014,5.33836074 107.405389,1.52717461 C103.496896,-3.34485714 98.9239595,4.3168057 87.3157351,12.1749214 C87.3157351,12.1749214 80.3586174,5.53481364 61.6760206,5.53481364 C53.0182709,5.98230442 44.5559325,8.28652573 36.8570896,12.2927932 C31.541539,8.3637353 28.1020651,4.74900206 23.8808926,2.31298619 C17.470964,-1.61607168 14.4223394,1.95937098 16.8065202,10.1711019 C17.7836435,13.4715105 19.2688708,20.7402676 20.7150132,27.2232131 C21.7703064,31.8595013 20.7150132,30.7986557 16.8065202,45.0611358 C15.4778886,48.5258852 13.7739497,51.8331082 11.7254792,54.923071 C8.88164979,58.8720258 4.71989056,61.6611302 0,62.7811868 C3.98846149,65.2345844 8.8848281,65.6846906 13.2497915,63.9991947 C11.3405975,66.9580845 8.99471928,69.6077712 6.29267384,71.8573104 C9.31298742,73.315809 12.7571864,73.6229503 15.9857366,72.7217032 C19.2408055,79.7291348 24.6913702,85.4706088 31.5024541,89.0665839 C31.5024541,89.0665839 39.3194402,98.3391604 61.8323603,98.3391604 C82.1174393,98.3391604 92.2013514,89.8523955 92.2013514,89.8523955 Z" id="Shape" stroke="none" fill="#FFE888" fill-rule="nonzero"></path>
                        <path d="M43.8073829,8.19493004 C43.8073829,8.19493004 20.840023,30.0876658 23.8734479,59.8982084 C27.2220338,92.7175176 62.0473274,98.3391604 62.0473274,98.3391604 C43.3958014,98.0628865 26.1333856,88.3775126 16.1126076,72.5666993 C16.1126076,72.5666993 9.49422597,74.9420414 6.34261569,71.6957406 C6.34261569,71.6957406 12.2912801,67.7368372 13.3549486,63.7779338 C8.97439501,65.6077306 3.97764608,65.1485517 -2.27373675e-13,62.5506737 C5.72246113,61.0375144 10.5862443,57.2502436 13.473134,52.0595797 C20.9582084,39.3119108 21.155184,18.2109556 43.8073829,8.19493004 Z" id="Shape" stroke="none" fill="#EABA5C" fill-rule="nonzero"></path>
                        <path d="M33.0317328,15.0186355 C33.0317328,15.0186355 28.4894805,11.006897 23.3207106,6.99515854 C19.4049758,3.90611991 17.4079511,3.82588514 16.3898601,7.27598024 L21.2062138,27.8963161 L25.7484662,25.1282165 L29.3509421,19.030374 L33.0317328,15.0186355 Z M91.062922,15.0186355 C91.062922,15.0186355 95.6051743,11.006897 100.773944,6.99515854 C104.689679,3.90611991 106.686704,3.82588514 107.704795,7.27598024 L102.888441,28.096903 L98.5028181,25.1282165 L94.9003421,19.030374 L91.062922,15.0186355 Z" id="Shape" stroke="none" fill="#EABA5C" fill-rule="nonzero"></path>
                        <path d="M16.0487423,72.5443756 C12.7990213,73.473277 9.32663486,73.1632051 6.28673362,71.6726624 C8.98622836,69.4040721 11.329892,66.7319455 13.2372838,63.7479973 C8.87644091,65.4477675 3.98469643,64.9938494 -2.27373675e-13,62.5196742 C5.7500956,61.1688323 10.6296295,57.332203 13.3544279,52.019493 C16.5173188,45.7590075 20.6954585,33.4361533 24.0926375,27.1756679 C32.7613013,11.0885978 44.0852314,4.74886569 61.5006549,4.74886569 C77.622224,3.82297933 92.7475009,12.6956225 100.002017,27.3341612 C103.399196,33.5946466 107.577336,45.9175008 110.740227,52.1779863 C113.465025,57.4906963 118.344559,61.3273256 124.094655,62.6781675 C120.108034,65.146446 115.219053,65.6001076 110.857371,63.9064906 C112.764763,66.8904388 115.108426,69.5625654 117.807921,71.8311557 C114.790459,73.3020061 111.349511,73.6117486 108.124009,72.7028689 C108.124009,72.7028689 92.1924103,98.3391604 62.0082794,98.3391604 C31.8241484,98.3391604 16.0487423,72.5443756 16.0487423,72.5443756 Z" id="Shape" stroke="#44392E" stroke-width="0.631" fill="none" stroke-linecap="round" stroke-linejoin="round"></path>
                        <path d="M36.9750574,11.5542509 L24.6347289,2.15777519 C19.8884487,-1.56083009 15.0630639,0.198510042 16.7242619,7.83564563 C17.9503843,12.873756 21.8660655,29.2676073 21.8660655,29.2676073 M88.8281686,12.034071 L101.801334,1.87788017 C106.547615,-1.84072511 111.373,-0.0813849795 109.711801,7.55575061 C108.485679,12.593861 104.60955,29.1076673 104.60955,29.1076673" id="Shape" stroke="#44392E" stroke-width="0.534" fill="none" stroke-linecap="round" stroke-linejoin="round"></path>
                        <circle id="Oval" stroke="#44392E" stroke-width="0.534" fill="#FFFFFF" fill-rule="nonzero" cx="32.7797201" cy="40.9746502" r="16.3898601"></circle>
                        <circle id="Oval" stroke="#F930E7" stroke-width="0.548" fill="#44392E" fill-rule="nonzero" cx="33.3650723" cy="39.2185937" r="9.95098647"></circle>
                        <circle id="Oval" stroke="none" fill="#FFFFFF" fill-rule="nonzero" transform="translate(32.779720, 32.779720) rotate(-45.030000) translate(-32.779720, -32.779720) " cx="32.7797201" cy="32.7797201" r="4.68281716"></circle>
                        <circle id="Oval" stroke="#44392E" stroke-width="0.534" fill="#FFFFFF" fill-rule="nonzero" cx="93.6563433" cy="40.9746502" r="16.3898601"></circle>
                        <circle id="Oval" stroke="#F930E7" stroke-width="0.548" fill="#44392E" fill-rule="nonzero" cx="93.0709911" cy="41.5600023" r="9.95098647"></circle>
                        <path d="M71.4107433,69.8385663 C71.5175795,75.3217188 67.7539602,80.0226105 62.6519568,80.7785961 C57.5260173,80.058528 53.7333694,75.3417973 53.8552535,69.8385663 L62.5761231,64.388736 L71.4107433,69.8385663 Z" id="Shape" stroke="none" fill="#44392E" fill-rule="nonzero"></path>
                        <path d="M71.4129617,76.0399043 C69.4273331,73.8324429 66.677909,72.583666 63.8033839,72.583666 C60.9288587,72.583666 58.1794346,73.8324429 56.193806,76.0399043 L63.8843368,79.6078918 L71.4129617,76.0399043 Z" id="Shape" stroke="none" fill="#F930E7" fill-rule="nonzero"></path>
                        <path d="M56.193806,74.9250746 C57.8297854,73.3073518 60.0864602,72.4604303 62.3939175,72.598196 C64.3678992,72.5281691 66.3080552,73.1194905 67.9008489,74.2766003" id="Shape" stroke="#44392E" stroke-width="0.449" fill="none" stroke-linecap="round"></path>
                        <path d="M62.0473274,65.5594403 L63.2414458,65.5594403" id="Shape" stroke="#FFFFFF" stroke-width="1.71" fill="none" stroke-linecap="round" stroke-linejoin="round"></path>
                        <path d="M84.9884343,67.9552073 C82.9467965,69.7964706 80.4527966,70.9482138 77.8146212,71.2681144 C75.1852134,71.6112597 72.5186187,71.3430443 69.9921121,70.481299 C67.3627506,69.7784882 64.9446194,68.3522597 62.9709333,66.340165 C61.9398626,65.1967793 61.2258322,63.7617857 60.9103699,62.199031 C60.8653742,61.4406083 60.8653742,60.67983 60.9103699,59.9214073 L60.9103699,57.8922517 C60.889602,57.4637723 61.0267987,57.0439358 61.291682,56.7253959 C61.5565654,56.406856 61.9273608,56.2157981 62.3222374,56.1943868 C63.1509901,56.1707842 63.8455727,56.8694197 63.8867392,57.7680177 L63.8867392,59.7971733 C63.8277724,60.389011 63.8277724,60.9860232 63.8867392,61.5778609 C64.0381982,62.6767924 64.4901698,63.7010697 65.184131,64.5180661 C66.7515283,66.4045987 68.733875,67.8293194 70.9460766,68.6592 C75.4584881,70.5883877 80.5533827,70.0169341 84.6068485,67.1269805 C84.8365905,66.9101339 85.1784367,66.9101339 85.4081787,67.1269805 C85.4834627,67.2960203 85.4786578,67.4941588 85.3952851,67.6586672 C85.3119125,67.8231756 85.1602953,67.9336843 84.9884343,67.9552073 Z" id="Shape" stroke="none" fill="#44392E" fill-rule="nonzero"></path>
                        <path d="M40.5968073,64.9065567 C42.5321689,66.4225019 44.9368911,67.2517203 47.4174277,67.2585055 C49.9008816,67.3363948 52.3738064,66.9092413 54.6793823,66.0041329 C56.8993735,65.2329094 58.8574227,63.8761396 60.3364851,62.0842182 C60.9334584,61.2879873 61.2565474,60.3272733 61.2592749,59.3402779 L61.2592749,55.4203633 C61.2484966,55.0148717 61.4031008,54.6218176 61.6890493,54.3277373 C61.9749978,54.0336571 62.3688465,53.8626614 62.7838842,53.8523974 C63.6463911,53.8719638 64.3468836,54.5392463 64.388736,55.3811641 L64.388736,59.3010788 C64.2856557,60.8736815 63.6666159,62.3719652 62.623399,63.5737858 C60.7211976,65.7448048 58.2110094,67.3253009 55.4015656,68.1208868 C52.8156888,68.9431329 50.0842893,69.2366812 47.3773064,68.983268 C44.59947,68.7578821 41.975822,67.6415863 39.9147453,65.8081371 C39.751892,65.5939463 39.7703207,65.2963535 39.9584171,65.102908 C40.1465136,64.9094625 40.4497625,64.87623 40.6770499,65.0241542 L40.5968073,64.9065567 Z" id="Shape" stroke="none" fill="#44392E" fill-rule="nonzero"></path>
                        <path d="M71.4129617,70.2422575 C70.9906506,74.8861977 67.1860187,78.4371875 62.6326796,78.4371875 C58.0793404,78.4371875 54.2747085,74.8861977 53.8523974,70.2422575" id="Shape" stroke="#44392E" stroke-width="0.679" fill="none" stroke-linecap="round"></path>
                        <g id="Group" stroke="none" stroke-width="1" fill="none" fill-rule="evenodd" transform="translate(18.731269, 50.340285)">
                            <path d="M37.5641377,5.28690058 C37.3238287,4.60675463 37.4925424,3.8476367 37.9976119,3.33650723 C40.028435,1.44890345 42.7294874,0.472467147 45.484893,0.629838909 C48.1190945,0.366091174 50.7329364,1.29963841 52.6175134,3.17729145 C53.0886484,3.72619947 53.2108253,4.4975016 52.9327674,5.16748874 C52.5643296,6.05560094 51.7181296,6.64614125 50.7653965,6.68003868 C49.2131375,6.63095434 47.7375027,7.36130354 46.8247222,8.63043203 L46.5882818,8.90905965 C46.2077793,9.32603065 45.6719506,9.5632313 45.1105289,9.5632313 C44.5491073,9.5632313 44.0132786,9.32603065 43.6327761,8.90905965 C43.6327761,8.90905965 42.7658277,7.35670576 39.6921018,7.11788209 C38.737489,7.0079587 37.927635,6.35971883 37.6035445,5.44611636 L37.5641377,5.28690058 Z M33.1899893,8.78964782 C27.2264602,7.42714665 21.019115,7.6051136 15.1417012,9.30709911 C9.21532848,11.1360547 4.04987974,14.8848317 0.442986142,19.9745566 C3.81936817,14.5768584 8.85972873,10.4507766 14.7870405,8.23239257 C20.8081312,6.12222969 27.2550064,5.56133444 33.54465,6.60043079 C34.1457342,6.70232889 34.5618694,7.26276845 34.4904118,7.87415706 C34.4523877,8.168856 34.2952461,8.43449476 34.0563305,8.60794624 C33.8174149,8.78139772 33.5180566,8.84717544 33.229396,8.78964782 L33.1899893,8.78964782 Z" id="Shape" fill="#44392E" fill-rule="nonzero"></path>
                            <path d="M33.387023,11.4963161 C29.3276424,11.0411518 25.2242538,11.7733908 21.5650002,13.6059253 C18.0803274,15.9475188 15.7895131,19.7167095 15.2993281,23.9151473 C15.4925235,21.7734991 16.0247125,19.6770416 16.8755978,17.7057317 C17.7523367,15.7268381 19.1074002,14.0022483 20.8162721,12.6904345 C24.5595805,10.3787743 28.8825011,9.20424278 33.2688028,9.30709911 C33.553914,9.28487931 33.8352455,9.38402291 34.0447941,9.58056509 C34.2543428,9.77710726 34.3730389,10.053162 34.3721916,10.3420017 C34.3949462,10.9429777 33.9415402,11.4537972 33.3476163,11.4963161 L33.387023,11.4963161 Z M56.8734416,6.60043079 C63.1630852,5.56133444 69.6099604,6.12222969 75.6310511,8.23239257 C81.5642652,10.4403032 86.6076448,14.5688563 89.9751054,19.9745566 C86.3852544,14.8676808 81.213418,11.1142679 75.2763904,9.30709911 C69.4124258,7.60505967 63.2177811,7.42706822 57.267509,8.78964782 C56.8574,8.95489944 56.3892477,8.85728918 56.0774409,8.54151733 C55.7656341,8.22574548 55.6702188,7.75262153 55.83489,7.33881101 C55.9995612,6.9250005 56.3926076,6.65019262 56.8340349,6.64023474 L56.8734416,6.60043079 Z" id="Shape" fill="#44392E" fill-rule="nonzero"></path>
                            <path d="M57.0704753,9.30709911 C61.4562408,9.20873323 65.7779312,10.3829305 69.523006,12.6904345 C71.2454169,13.9882199 72.6035415,15.7167054 73.4636803,17.7057317 C74.3145656,19.6770416 74.8467546,21.7734991 75.03995,23.9151473 C74.549765,19.7167095 72.2589507,15.9475188 68.7742779,13.6059253 C65.1171361,11.7669105 61.01185,11.0343329 56.9522551,11.4963161 C56.6491055,11.4859396 56.362476,11.3542552 56.1555127,11.1302737 C55.9485494,10.9062923 55.8382329,10.6083905 55.8488663,10.3021978 C55.8381571,10.0103358 55.9455091,9.72664098 56.1462169,9.51640152 C56.3469248,9.30616207 56.6237005,9.18748689 56.9128484,9.18768728 L57.0704753,9.30709911 Z" id="Shape" fill="#44392E" fill-rule="nonzero"></path>
                        </g>
                    </g>
                </g>
            </g>
        </g>
    </g>
</svg>