<?xml version="1.0" encoding="UTF-8"?>
<svg width="185px" height="134px" viewBox="0 0 185 134" version="1.1" xmlns="http://www.w3.org/2000/svg" xmlns:xlink="http://www.w3.org/1999/xlink">
    <!-- Generator: Sketch 50.2 (55047) - http://www.bohemiancoding.com/sketch -->
    <title>Group 25</title>
    <desc>Created with Sketch.</desc>
    <defs>
        <linearGradient x1="0%" y1="0%" x2="101.999998%" y2="100.999999%" id="linearGradient-1">
            <stop stop-color="#E64E81" offset="0%"></stop>
            <stop stop-color="#993CFF" offset="100%"></stop>
        </linearGradient>
        <linearGradient x1="3.45708877%" y1="97.6571494%" x2="97.3242739%" y2="2.67572612%" id="linearGradient-2">
            <stop stop-color="#4690C2" offset="0%"></stop>
            <stop stop-color="#6DC2FF" offset="59.1966221%"></stop>
            <stop stop-color="#50A5D9" offset="100%"></stop>
        </linearGradient>
        <linearGradient x1="0%" y1="3.70133968%" x2="97.9475253%" y2="98.0234943%" id="linearGradient-3">
            <stop stop-color="#838383" offset="0%"></stop>
            <stop stop-color="#3B3B3B" offset="100%"></stop>
        </linearGradient>
        <rect id="path-4" x="0" y="0" width="184.5" height="134" rx="6"></rect>
        <polygon id="path-6" points="3.63797881e-12 0 46.9174889 0 46.9174889 31.5559226 3.63797881e-12 31.5559226"></polygon>
        <polygon id="path-8" points="4.54747351e-12 0 45.0758182 0 45.0758182 31.7734446 4.54747351e-12 31.7734446"></polygon>
        <polygon id="path-10" points="3.18323146e-12 0 28.3834393 0 28.3834393 27.4761959 3.18323146e-12 27.4761959"></polygon>
    </defs>
    <g id="App-Wallet" stroke="none" stroke-width="1" fill="none" fill-rule="evenodd">
        <g id="Group-25">
            <g id="Group-24">
                <g id="Group-23">
                    <g id="icons8-ethereum-copy-23">
                        <g id="logo">
                            <mask id="mask-5" fill="white">
                                <use xlink:href="#path-4"></use>
                            </mask>
                            <use id="Mask" fill="url(#linearGradient-3)" xlink:href="#path-4"></use>
                        </g>
                    </g>
                    <g id="Group-21-Copy" opacity="0.1" style="mix-blend-mode: soft-light;" transform="translate(70.000000, 16.000000)">
                        <g id="Group-3" transform="translate(27.000000, 70.000000)">
                            <mask id="mask-7" fill="white">
                                <use xlink:href="#path-6"></use>
                            </mask>
                            <g id="Clip-2"></g>
                            <path d="M3.63797881e-12,31.556129 C1.51235556,30.3163871 3.09364444,29.1489032 4.52453333,27.8245161 C9.01564444,23.6645161 13.4221556,19.4147097 17.9341556,15.2774194 C18.7895556,14.4939355 19.0141111,13.7083871 19.0287333,12.6461935 C19.0778222,8.86916129 19.1937556,5.09419355 19.3096889,1.31922581 C19.3211778,0.935225806 19.4987333,0.556387097 19.646,0 C28.7378889,5.39148387 37.7389111,10.7282581 46.9174889,16.1713548 C46.5425333,16.3891613 46.2887333,16.5956129 45.9983778,16.6947097 C41.3244889,18.2833548 36.6631333,19.908129 31.9652222,21.4234839 C25.9847333,23.3517419 19.9624667,25.1550968 13.9809333,27.076129 C9.79166667,28.4221935 5.63895556,29.8797419 1.46326667,31.2701935 C1.00162222,31.424 0.499244444,31.4580645 0.0156666667,31.547871 L3.63797881e-12,31.556129 Z" id="Fill-1" fill="#000000" mask="url(#mask-7)"></path>
                        </g>
                        <path d="M25.875204,100.99513 C25.1353062,96.5775368 24.4266716,92.1547002 23.6461315,87.745495 C22.653001,82.1262486 21.6296494,76.5111966 20.5677396,70.9055815 C19.4078716,64.7735881 18.1875612,58.6541775 17.0037247,52.5263784 C16.9797562,52.3974052 17.0766724,52.2432665 17.1454516,52 C26.3775008,57.5018073 35.5636973,62.9763521 45,68.5987441 C41.9216081,70.3225808 39.1183332,71.903813 36.3035951,73.4651225 C35.1468534,74.1057942 33.9182062,74.6279783 32.8250332,75.359875 C32.3039783,75.7090463 31.8131447,76.3727863 31.6693336,76.979904 C29.8560628,84.5956133 28.1126134,92.2301967 26.3379007,99.8553431 C26.246195,100.249603 26.0283941,100.614502 25.8647829,100.998276 C25.8595724,101.003519 25.875204,100.99513 25.875204,100.99513" id="Fill-4" fill="#000000"></path>
                        <path d="M65,31.0143355 C69.4559426,28.8611649 73.9231557,26.7348573 78.3473361,24.518662 C78.8473361,24.2686297 79.3381148,23.5598605 79.432377,22.9947049 C80.7038934,15.3439235 81.9057377,7.68177709 83.4282787,0 C86.9528689,15.9318094 90.4764344,31.8636188 94,47.7954281 C93.8780738,47.8625856 93.7540984,47.9318094 93.6321721,48 C91.3452869,46.6196565 89.0584016,45.2413793 86.7715164,43.8610358 C80.2612705,39.9328426 73.7540984,35.9984502 67.2356557,32.0836885 C66.5286885,31.6600801 65.7520492,31.3563218 65.0081967,30.9957381 L65,31.0143355 Z" id="Fill-6" fill="#000000"></path>
                        <g id="Group-10" transform="translate(39.000000, 0.000000)">
                            <mask id="mask-9" fill="white">
                                <use xlink:href="#path-8"></use>
                            </mask>
                            <g id="Clip-9"></g>
                            <path d="M27.1159545,31.7605161 C25.9011364,30.912 24.7323182,29.9870968 23.4620909,29.2263226 C15.9107727,24.7060645 8.33645455,20.2229677 0.774681818,15.7212903 C0.569772727,15.6005161 0.410863636,15.4043871 4.54747351e-12,15.0369032 C15.1225,9.97883871 30.038,4.98993548 44.9535,0 C44.9942727,0.0898064516 45.0350455,0.179612903 45.0758182,0.270451613 C41.4606364,3.4363871 37.8538182,6.6116129 34.2281818,9.76412903 C32.0139091,11.6903226 29.8059091,13.6309677 27.5142727,15.4642581 C26.6528182,16.1527742 26.5827727,16.9063226 26.634,17.8549677 C26.8577273,21.988129 27.0448636,26.1233548 27.2257273,30.2575484 C27.2476818,30.7581935 27.1535909,31.264 27.1107273,31.7729032 C27.1075909,31.7790968 27.1159545,31.7605161 27.1159545,31.7605161" id="Fill-8" fill="#000000" mask="url(#mask-9)"></path>
                        </g>
                        <g id="Group-13" transform="translate(0.000000, 10.000000)">
                            <mask id="mask-11" fill="white">
                                <use xlink:href="#path-10"></use>
                            </mask>
                            <g id="Clip-12"></g>
                            <path d="M11.6960716,5.52673242 C9.56871451,8.5725102 9.57389308,8.56421391 12.4376431,10.2659917 C15.5541074,12.1181398 18.6612502,13.9868806 21.7683931,15.8535472 C21.9745002,15.9779917 22.1516074,16.1501398 22.3401074,16.2984361 C20.6456788,18.6037695 17.4618931,19.8492509 14.8011431,18.0385843 C12.3102502,16.3451028 9.62257165,14.9388806 7.03846451,13.4154732 C4.66978593,16.2611028 4.69257165,16.3409546 7.66610736,18.0883621 C11.4309288,20.3013991 15.1802145,22.5403621 18.9398574,24.7699917 C17.9797502,27.0545843 13.8855716,28.3591769 11.4485359,26.7859917 C8.67075022,24.9919176 5.82667879,23.2901398 2.93703593,21.6858435 C-0.177356923,19.9571028 -0.773928352,17.4837695 0.952607362,14.4856954 C3.26639308,10.4682139 5.68375022,6.50569539 8.17360736,2.59502872 C9.97678593,-0.237119427 11.8017145,-0.691341649 14.6209288,0.940954647 C19.1853216,3.58332502 23.6886074,6.3325102 28.2136431,9.04228798 C28.2913216,9.08895465 28.3296431,9.20510279 28.3835002,9.28910279 C26.8175002,11.6411028 23.0185002,12.8430287 20.3908931,10.8311769 C17.7353216,8.79962131 14.6685716,7.30732502 11.6960716,5.52673242" id="Fill-11" fill="#000000" mask="url(#mask-11)"></path>
                        </g>
                        <path d="M73.0151886,47 C77.2596491,49.5022424 81.4695508,51.8581549 85.5433113,54.4304267 C88.1352284,56.0672319 88.5195652,58.8245066 87.4252002,61.9549227 C86.6554794,64.1530079 85.2040058,66.0218506 82.9576777,67.1120088 C81.2161189,67.957587 79.5562447,67.9701296 77.8743786,67.0033066 C76.1569063,66.0145341 74.4624732,64.9755913 72.68845,64.1007472 C70.7500102,63.1443763 69.5907164,63.4767544 67.8219294,65.3894961 C72.4936635,68.1833533 77.1161774,70.945854 81.882163,73.7961527 C81.2150717,74.5487068 80.6600349,75.2615428 80.01703,75.8844904 C78.7844294,77.0770796 77.3036332,77.3540614 75.8165535,76.5178901 C72.4559629,74.6302335 69.1529704,72.6411912 65.8269387,70.6929122 C64.4330633,69.8755548 63.0119596,69.0958251 61.6641628,68.206348 C61.3154321,67.9753557 60.8986309,67.244751 61.0222051,66.9970353 C62.641237,63.7453744 64.5430234,60.6734903 67.9475981,58.98756 C71.0139145,57.468864 73.9126726,58.3468438 76.6826203,59.9282526 C77.8262056,60.5804662 78.9279012,61.3058448 80.0589196,61.9820983 C81.3407404,62.7492854 81.9397612,62.5475591 82.7534661,61.175193 C83.4111323,60.0651757 83.1346611,59.3701083 82.0078317,58.7367086 C79.4420957,57.2984941 76.935005,55.7536677 74.4080168,54.2454238 C71.4328102,52.4675147 70.9259464,49.9746792 73.0151886,47" id="Fill-14" fill="#000000"></path>
                        <path d="M19,42.7165557 C21.3408232,38.7890816 23.5909659,35.0135162 25.9254626,31.0944814 C28.9326823,32.8952331 31.8460583,34.6369091 34.7552165,36.3838597 C36.0669211,37.1708314 37.3311765,38.0516912 38.7019288,38.7162919 C39.1563859,38.9367706 40.07479,38.8281137 40.4269679,38.4947584 C41.0691127,37.8881783 41.506699,37.0326366 41.9158159,36.2245665 C42.3470756,35.3753544 42.1361907,34.7244676 41.2167322,34.2022813 C38.5068602,32.6620953 35.8971587,30.9372981 33.1535451,29.4625173 C29.9090798,27.7166216 29.3196563,25.119404 31.5318397,22 C33.8273226,23.3566295 36.1438941,24.7185337 38.4520301,26.0920419 C40.2477157,27.1596229 42.0159862,28.2736204 43.829597,29.3095536 C46.2748083,30.7052153 47.4188593,32.8414321 46.8610685,35.5726248 C46.0860662,39.3597943 44.1691218,42.4169579 40.5260839,44.0320433 C39.5644484,44.4571768 38.3539686,44.3253115 36.9326039,44.4856597 C37.2109721,47.3930243 37.5041022,50.4470231 37.8457358,54 C35.892941,52.7931694 34.1826638,51.9196941 32.7254486,50.7350168 C32.2235424,50.326762 32.3026242,49.1473594 32.2056172,48.3108064 C31.9609906,46.1798642 31.8218065,44.035208 31.5118056,41.9148151 C31.4348326,41.388409 30.9656135,40.8008176 30.5090475,40.4727369 C29.4388063,39.701589 28.2683947,39.0707457 27.0115202,38.3069823 C25.6776727,40.5223182 24.3944377,42.6532604 22.9751818,45.0120657 C21.7151441,44.2841696 20.4213647,43.5372849 19,42.7165557" id="Fill-16" fill="#000000"></path>
                        <path d="M91.2522711,78.3673687 C91.5936687,78.8385581 91.862585,79.5151649 92.3583993,79.838115 C94.1042542,80.9763815 95.9131364,82.0204102 97.7272708,83.049615 C99.2441267,83.9104622 99.8912065,83.7008094 100.789345,82.1834736 C102.244224,79.7332886 103.699103,77.2820447 105.151881,74.829742 C105.955479,73.4754695 105.815768,72.7787444 104.45543,71.905191 C102.819873,70.8569269 101.158054,69.8457226 99.4867816,68.8546366 C97.8984949,67.9122577 97.1474201,68.1208517 96.1421354,69.7673675 C94.7271736,72.085196 93.3279686,74.4146718 91.9434699,76.7526184 C91.6871591,77.186748 91.5390451,77.6854676 91.2522711,78.3673687 M97.7218707,89 C96.7323428,88.6834031 95.6650814,88.5097512 94.7690439,88.0195025 C92.759525,86.9182957 90.8224874,85.6815558 88.8780967,84.4596399 C86.0429208,82.6797086 85.2613828,78.9027813 86.7162619,76.0343495 C88.4789241,72.5623717 90.5262593,69.2216916 92.6586814,65.9604255 C94.651393,62.9109299 98.48345,62.1644388 101.655822,63.9676648 C103.38592,64.9513389 105.085555,65.9921911 106.795694,67.012925 C110.437619,69.1878083 110.590985,73.3702762 109.155014,76.0978806 C107.522608,79.1982011 105.76835,82.2466379 103.851271,85.1754243 C102.472025,87.2814822 100.531836,88.7871706 97.7218707,89" id="Fill-18" fill="#000000"></path>
                        <path d="M60.7435252,60.4428128 C58.9782496,62.9324813 55.7493924,63.7333537 53.183427,62.2698669 C50.7291615,60.8709006 48.3187408,59.3971725 45.8801342,57.9726028 C43.6075114,56.6453258 42.2629372,53.1264031 43.4279565,50.938854 C45.6243728,46.8136443 47.8604581,42.5880695 50.8575642,39.0384228 C52.8879965,36.6347815 55.6220337,36.2568762 59.2632409,38.441353 C62.6340717,40.4629925 66.0456156,42.4190874 69.4341931,44.4110271 C69.6440219,44.5339231 69.8141815,44.7203154 70,44.8739354 C67.6751811,47.9862771 64.4839052,48.330386 61.2404331,46.0783164 C59.3864239,44.7909806 57.3528598,43.7555817 55.4142928,42.5860212 C54.5060788,42.0391339 53.7419264,42.1651023 53.1886466,43.0345917 C51.4755672,45.7270386 49.7238626,48.4010512 48.1423176,51.1662116 C47.5900818,52.1288971 48.1078682,53.0680275 49.1403091,53.6558801 C52.9057432,55.8055363 56.6586503,57.9756752 60.4146891,60.1427417 C60.5410039,60.2154551 60.6349571,60.3424477 60.7435252,60.4428128" id="Fill-20" fill="#000000"></path>
                    </g>
                </g>
            </g>
        </g>
    </g>
</svg>