<?xml version="1.0" encoding="UTF-8"?>
<svg width="185px" height="134px" viewBox="0 0 185 134" version="1.1" xmlns="http://www.w3.org/2000/svg" xmlns:xlink="http://www.w3.org/1999/xlink">
    <!-- Generator: Sketch 49 (51002) - http://www.bohemiancoding.com/sketch -->
    <title>icons8-ethereum copy 5</title>
    <desc>Created with Sketch.</desc>
    <defs>
        <radialGradient cx="38.5852027%" cy="-44.2300107%" fx="38.5852027%" fy="-44.2300107%" r="158.340644%" gradientTransform="translate(0.385852,-0.442300),scale(0.726287,1.000000),rotate(143.740764),translate(-0.385852,0.442300)" id="radialGradient-1">
            <stop stop-color="#2693C2" offset="0%"></stop>
            <stop stop-color="#001982" offset="100%"></stop>
        </radialGradient>
        <rect id="path-2" x="0" y="0" width="184.5" height="134" rx="6"></rect>
    </defs>
    <g id="App--Wallet" stroke="none" stroke-width="1" fill="none" fill-rule="evenodd">
        <g id="Discover-first-sight-CuongDao-edit" transform="translate(-214.000000, -135.000000)">
            <g id="icons8-ethereum-copy-5" transform="translate(214.000000, 135.000000)">
                <mask id="mask-3" fill="white">
                    <use xlink:href="#path-2"></use>
                </mask>
                <use id="Mask" fill="url(#radialGradient-1)" xlink:href="#path-2"></use>
                <g id="icons8-ethereum" opacity="0.199999988" style="mix-blend-mode: overlay;" mask="url(#mask-3)" fill="#FFFFFF" fill-rule="nonzero">
                    <g transform="translate(148.746184, 71.510894) rotate(-346.000000) translate(-148.746184, -71.510894) translate(89.746184, -21.489106)" id="Shape">
                        <polygon points="0 92.6567602 58.9633929 0 117.926786 92.6567602 58.9633929 126.350128"></polygon>
                        <polygon points="58.9633929 0 117.926786 92.6567602 58.9633929 126.350128"></polygon>
                        <polygon points="0 105.291773 58.9633929 138.98514 117.926786 105.291773 58.9633929 185.31352"></polygon>
                        <polygon points="58.9633929 138.98514 117.926786 105.291773 58.9633929 185.31352"></polygon>
                        <polygon points="0 92.6567602 58.9633929 67.3867347 117.926786 92.6567602 58.9633929 126.350128"></polygon>
                        <polygon points="58.9633929 67.3867347 117.926786 92.6567602 58.9633929 126.350128"></polygon>
                    </g>
                </g>
            </g>
        </g>
    </g>
</svg>