<?xml version="1.0" encoding="UTF-8"?>
<svg width="186px" height="134px" viewBox="0 0 186 134" version="1.1" xmlns="http://www.w3.org/2000/svg" xmlns:xlink="http://www.w3.org/1999/xlink">
    <!-- Generator: Sketch 50.2 (55047) - http://www.bohemiancoding.com/sketch -->
    <title>Group 60</title>
    <desc>Created with Sketch.</desc>
    <defs>
        <linearGradient x1="2.88339957%" y1="2.88339957%" x2="100%" y2="100%" id="linearGradient-1">
            <stop stop-color="#4891B2" offset="0%"></stop>
            <stop stop-color="#3B71A6" offset="100%"></stop>
        </linearGradient>
        <rect id="path-2" x="0" y="0" width="184.5" height="134" rx="6"></rect>
    </defs>
    <g id="App-Wallet" stroke="none" stroke-width="1" fill="none" fill-rule="evenodd">
        <g id="Group-60">
            <mask id="mask-3" fill="white">
                <use xlink:href="#path-2"></use>
            </mask>
            <use id="Mask" fill="url(#linearGradient-1)" xlink:href="#path-2"></use>
            <path d="M185.478145,101.215061 C185.119145,100.814061 184.760145,100.411061 184.378145,100.025061 C179.978145,95.7250614 174.478145,93.0250614 168.078145,91.3250614 C162.878145,89.9250614 156.878145,84.6250614 159.178145,76.0250614 C161.078145,69.1250614 167.678145,65.3250614 174.578145,67.2250614 C178.027145,68.1170614 181.758145,68.6770614 185.478145,68.6800614 L185.478145,5.82506141 C185.478145,5.20006141 185.380145,4.59706141 185.201145,4.02906141 C182.188145,3.90306141 179.136145,4.17806141 176.278145,5.02506141 C164.878145,8.22506141 156.278145,17.0250614 153.378145,27.9250614 C151.878145,33.6250614 152.578145,40.1250614 154.078145,46.0250614 C155.178145,51.2250614 154.178145,59.6250614 144.978145,61.5250614 C138.278145,63.4250614 131.378145,59.1250614 129.478145,52.4250614 C127.278145,46.9250614 124.478145,41.2250614 120.178145,36.3250614 C111.878145,27.9250614 100.378145,24.8250614 88.9781454,27.9250614 C77.5781454,31.0250614 69.0781454,39.9250614 66.0781454,50.8250614 C63.1781454,61.8250614 66.1781454,73.8250614 74.4781454,82.2250614 C82.7781454,90.6250614 94.2781454,93.7250614 105.678145,90.6250614 C111.678145,89.1250614 116.978145,85.6250614 121.178145,81.2250614 C124.578145,77.8250614 132.278145,74.3250614 139.178145,81.1250614 C143.978145,86.1250614 143.778145,94.1250614 139.378145,99.0250614 C135.078145,103.425061 131.778145,108.725061 130.278145,114.525061 C128.585145,120.944061 128.883145,127.667061 131.082145,133.825061 L179.478145,133.825061 C182.778145,133.825061 185.478145,131.125061 185.478145,127.825061 L185.478145,101.215061 Z" id="Fill-1-Copy" fill-opacity="0.1" fill="#FFFFFF" style="mix-blend-mode: soft-light;"></path>
        </g>
    </g>
</svg>