<?xml version="1.0" encoding="UTF-8"?>
<svg width="185px" height="134px" viewBox="0 0 185 134" version="1.1" xmlns="http://www.w3.org/2000/svg" xmlns:xlink="http://www.w3.org/1999/xlink">
    <!-- Generator: Sketch 50.2 (55047) - http://www.bohemiancoding.com/sketch -->
    <title>icons8-bitcoin copy 13</title>
    <desc>Created with Sketch.</desc>
    <defs>
        <linearGradient x1="21.9245143%" y1="-105.455551%" x2="122.850989%" y2="178.593447%" id="linearGradient-1">
            <stop stop-color="#26A4DE" offset="0%"></stop>
            <stop stop-color="#843CF6" offset="100%"></stop>
        </linearGradient>
        <linearGradient x1="0%" y1="3.70133968%" x2="100%" y2="100%" id="linearGradient-2">
            <stop stop-color="#838383" offset="0%"></stop>
            <stop stop-color="#505050" offset="100%"></stop>
        </linearGradient>
        <rect id="path-3" x="0" y="0" width="184.5" height="134" rx="6"></rect>
    </defs>
    <g id="App-Wallet" stroke="none" stroke-width="1" fill="none" fill-rule="evenodd">
        <g id="icons8-bitcoin-copy-13">
            <mask id="mask-4" fill="white">
                <use xlink:href="#path-3"></use>
            </mask>
            <use id="Mask" fill="url(#linearGradient-2)" xlink:href="#path-3"></use>
            <path d="M159.318388,74.46998 C154.916508,78.2372598 148.295282,77.7192369 144.529755,73.3199867 C144.067829,72.7791743 143.66989,72.2033011 143.336812,71.6037619 C140.951803,67.3307304 141.82131,61.8349546 145.680625,58.5304769 C150.082505,54.7667031 156.704608,55.282973 160.468381,59.6839763 C160.814607,60.0880517 161.087204,60.5228052 161.357172,60.9628179 C164.068246,65.289317 163.31444,71.0515548 159.318388,74.46998 M184.100218,47.5354191 C183.062419,45.7937753 181.892266,44.1117348 180.529278,42.5182227 C180.42059,42.3876214 180.290865,42.2745504 180.177794,42.143949 C180.550315,32.9773104 183.727697,17.0036231 201.464065,17.4681783 C201.464065,17.4681783 158.110545,-16.1708785 140.134011,31.776479 C136.000346,33.2472784 132.05075,35.4464652 128.514871,38.4695802 C128.386023,38.5817747 128.272075,38.70887 128.143227,38.8228175 C118.974835,38.4538029 103.003778,35.2711614 103.467456,17.5374233 C103.467456,17.5374233 69.8292761,60.8883138 117.77751,78.8683537 C118.529564,80.9790121 119.472698,83.0379559 120.614803,85.0162599 C121.707823,86.9209363 122.988417,88.7528616 124.469735,90.4848637 C124.581053,90.615465 124.705518,90.7259065 124.822095,90.8582609 C124.451328,100.025776 121.271316,115.996834 103.536701,115.534032 C103.536701,115.534032 146.887592,149.173088 164.868508,101.223978 C169.002173,99.754055 172.950016,97.5548682 176.484142,94.5326297 C176.613867,94.4186822 176.725184,94.2942164 176.856662,94.1793924 C186.024177,94.5492836 201.996988,97.730172 201.534186,115.463034 C201.534186,115.463034 235.169737,72.1121431 187.221503,54.1329797 C186.412476,51.8610417 185.363282,49.6557192 184.100218,47.5354191 Z" id="Fill-1" fill="#FEFEFE" opacity="0.2" style="mix-blend-mode: overlay;" mask="url(#mask-4)"></path>
        </g>
    </g>
</svg>