<?xml version="1.0" encoding="UTF-8"?>
<svg width="185px" height="134px" viewBox="0 0 185 134" version="1.1" xmlns="http://www.w3.org/2000/svg" xmlns:xlink="http://www.w3.org/1999/xlink">
    <!-- Generator: Sketch 49.3 (51167) - http://www.bohemiancoding.com/sketch -->
    <title>Group 2</title>
    <desc>Created with Sketch.</desc>
    <defs>
        <linearGradient x1="25.5814605%" y1="97.6571494%" x2="74.8284781%" y2="2.67572612%" id="linearGradient-1">
            <stop stop-color="#7272D4" offset="0%"></stop>
            <stop stop-color="#8DA2FF" offset="58.9188945%"></stop>
            <stop stop-color="#6765DA" offset="100%"></stop>
        </linearGradient>
        <linearGradient x1="25.4489314%" y1="97.6571494%" x2="74.9632321%" y2="2.67572612%" id="linearGradient-2">
            <stop stop-color="#7272D4" offset="0%"></stop>
            <stop stop-color="#8DA2FF" offset="58.9188945%"></stop>
            <stop stop-color="#6765DA" offset="100%"></stop>
        </linearGradient>
    </defs>
    <g id="Page-1" stroke="none" stroke-width="1" fill="none" fill-rule="evenodd">
        <g id="Group-2">
            <g id="Group">
                <g id="Mask" fill="url(#linearGradient-2)" fill-rule="nonzero">
                    <rect id="path-2" x="0" y="0" width="184.5" height="134" rx="6"></rect>
                </g>
                <g id="Group-30" transform="translate(65.000000, 15.000000)" fill="#000000">
                    <g id="Group-21-Copy-2" opacity="0.188671875" style="mix-blend-mode: soft-light;" fill-rule="nonzero">
                        <path d="M27,101.556129 C28.5123556,100.316387 30.0936444,99.1489032 31.5245333,97.8245161 C36.0156444,93.6645161 40.4221556,89.4147097 44.9341556,85.2774194 C45.7895556,84.4939355 46.0141111,83.7083871 46.0287333,82.6461935 C46.0778222,78.8691613 46.1937556,75.0941935 46.3096889,71.3192258 C46.3211778,70.9352258 46.4987333,70.5563871 46.646,70 C55.7378889,75.3914839 64.7389111,80.7282581 73.9174889,86.1713548 C73.5425333,86.3891613 73.2887333,86.5956129 72.9983778,86.6947097 C68.3244889,88.2833548 63.6631333,89.908129 58.9652222,91.4234839 C52.9847333,93.3517419 46.9624667,95.1550968 40.9809333,97.076129 C36.7916667,98.4221935 32.6389556,99.8797419 28.4632667,101.270194 C28.0016222,101.424 27.4992444,101.458065 27.0156667,101.547871 L27,101.556129 Z" id="Fill-1"></path>
                        <path d="M66.1159545,31.7605161 C64.9011364,30.912 63.7323182,29.9870968 62.4620909,29.2263226 C54.9107727,24.7060645 47.3364545,20.2229677 39.7746818,15.7212903 C39.5697727,15.6005161 39.4108636,15.4043871 39,15.0369032 C54.1225,9.97883871 69.038,4.98993548 83.9535,0 C83.9942727,0.0898064516 84.0350455,0.179612903 84.0758182,0.270451613 C80.4606364,3.4363871 76.8538182,6.6116129 73.2281818,9.76412903 C71.0139091,11.6903226 68.8059091,13.6309677 66.5142727,15.4642581 C65.6528182,16.1527742 65.5827727,16.9063226 65.634,17.8549677 C65.8577273,21.988129 66.0448636,26.1233548 66.2257273,30.2575484 C66.2476818,30.7581935 66.1535909,31.264 66.1107273,31.7729032 C66.1075909,31.7790968 66.1159545,31.7605161 66.1159545,31.7605161" id="Fill-8"></path>
                        <path d="M25.875204,100.99513 C25.1353062,96.5775369 24.4266716,92.1547003 23.6461315,87.7454951 C22.653001,82.1262487 21.6296494,76.5111967 20.5677396,70.9055816 C19.4078716,64.7735881 18.1875612,58.6541775 17.0037247,52.5263784 C16.9797562,52.3974052 17.0766724,52.2432665 17.1454516,52 C26.3775008,57.5018073 35.5636973,62.9763521 45,68.5987441 C41.9216081,70.3225809 39.1183332,71.9038131 36.3035951,73.4651226 C35.1468534,74.1057943 33.9182062,74.6279784 32.8250332,75.3598751 C32.3039783,75.7090464 31.8131447,76.3727864 31.6693336,76.9799041 C29.8560628,84.5956134 28.1126134,92.2301968 26.3379007,99.8553432 C26.246195,100.249603 26.0283941,100.614502 25.8647829,100.998276 C25.8595724,101.003519 25.875204,100.99513 25.875204,100.99513" id="Fill-4"></path>
                        <path d="M65,31.0143355 C69.4559426,28.8611649 73.9231557,26.7348573 78.3473361,24.518662 C78.8473361,24.2686297 79.3381148,23.5598605 79.432377,22.9947049 C80.7038934,15.3439235 81.9057377,7.68177709 83.4282787,0 C86.9528689,15.9318094 90.4764344,31.8636188 94,47.7954281 C93.8780738,47.8625856 93.7540984,47.9318094 93.6321721,48 C91.3452869,46.6196565 89.0584016,45.2413793 86.7715164,43.8610358 C80.2612705,39.9328426 73.7540984,35.9984502 67.2356557,32.0836885 C66.5286885,31.6600801 65.7520492,31.3563218 65.0081967,30.9957381 L65,31.0143355 Z" id="Fill-6"></path>
                        <path d="M11.6960716,15.5267324 C9.56871451,18.5725102 9.57389308,18.5642139 12.4376431,20.2659917 C15.5541074,22.1181398 18.6612502,23.9868806 21.7683931,25.8535472 C21.9745002,25.9779917 22.1516074,26.1501398 22.3401074,26.2984361 C20.6456788,28.6037695 17.4618931,29.8492509 14.8011431,28.0385843 C12.3102502,26.3451028 9.62257165,24.9388806 7.03846451,23.4154732 C4.66978593,26.2611028 4.69257165,26.3409546 7.66610736,28.0883621 C11.4309288,30.3013991 15.1802145,32.5403621 18.9398574,34.7699917 C17.9797502,37.0545843 13.8855716,38.3591769 11.4485359,36.7859917 C8.67075022,34.9919176 5.82667879,33.2901398 2.93703593,31.6858435 C-0.177356923,29.9571028 -0.773928352,27.4837695 0.952607362,24.4856954 C3.26639308,20.4682139 5.68375022,16.5056954 8.17360736,12.5950287 C9.97678593,9.76288057 11.8017145,9.30865835 14.6209288,10.9409546 C19.1853216,13.583325 23.6886074,16.3325102 28.2136431,19.042288 C28.2913216,19.0889546 28.3296431,19.2051028 28.3835002,19.2891028 C26.8175002,21.6411028 23.0185002,22.8430287 20.3908931,20.8311769 C17.7353216,18.7996213 14.6685716,17.307325 11.6960716,15.5267324" id="Fill-11"></path>
                        <path d="M19,42.7165557 C21.3408232,38.7890816 23.5909659,35.0135162 25.9254626,31.0944814 C28.9326823,32.8952331 31.8460583,34.6369091 34.7552165,36.3838597 C36.0669211,37.1708314 37.3311765,38.0516912 38.7019288,38.7162919 C39.1563859,38.9367706 40.07479,38.8281137 40.4269679,38.4947584 C41.0691127,37.8881783 41.506699,37.0326366 41.9158159,36.2245665 C42.3470756,35.3753544 42.1361907,34.7244676 41.2167322,34.2022813 C38.5068602,32.6620953 35.8971587,30.9372981 33.1535451,29.4625173 C29.9090798,27.7166216 29.3196563,25.119404 31.5318397,22 C33.8273226,23.3566295 36.1438941,24.7185337 38.4520301,26.0920419 C40.2477157,27.1596229 42.0159862,28.2736204 43.829597,29.3095536 C46.2748083,30.7052153 47.4188593,32.8414321 46.8610685,35.5726248 C46.0860662,39.3597943 44.1691218,42.4169579 40.5260839,44.0320433 C39.5644484,44.4571768 38.3539686,44.3253115 36.9326039,44.4856597 C37.2109721,47.3930243 37.5041022,50.4470231 37.8457358,54 C35.892941,52.7931694 34.1826638,51.9196941 32.7254486,50.7350168 C32.2235424,50.326762 32.3026242,49.1473594 32.2056172,48.3108064 C31.9609906,46.1798642 31.8218065,44.035208 31.5118056,41.9148151 C31.4348326,41.388409 30.9656135,40.8008176 30.5090475,40.4727369 C29.4388063,39.701589 28.2683947,39.0707457 27.0115202,38.3069823 C25.6776727,40.5223182 24.3944377,42.6532604 22.9751818,45.0120657 C21.7151441,44.2841696 20.4213647,43.5372849 19,42.7165557" id="Fill-16"></path>
                        <path d="M60.7435252,60.4428128 C58.9782496,62.9324813 55.7493924,63.7333537 53.183427,62.2698669 C50.7291615,60.8709006 48.3187408,59.3971725 45.8801342,57.9726028 C43.6075114,56.6453258 42.2629372,53.1264031 43.4279565,50.938854 C45.6243728,46.8136443 47.8604581,42.5880695 50.8575642,39.0384228 C52.8879965,36.6347815 55.6220337,36.2568762 59.2632409,38.441353 C62.6340717,40.4629925 66.0456156,42.4190874 69.4341931,44.4110271 C69.6440219,44.5339231 69.8141815,44.7203154 70,44.8739354 C67.6751811,47.9862771 64.4839052,48.330386 61.2404331,46.0783164 C59.3864239,44.7909806 57.3528598,43.7555817 55.4142928,42.5860212 C54.5060788,42.0391339 53.7419264,42.1651023 53.1886466,43.0345917 C51.4755672,45.7270386 49.7238626,48.4010512 48.1423176,51.1662116 C47.5900818,52.1288971 48.1078682,53.0680275 49.1403091,53.6558801 C52.9057432,55.8055363 56.6586503,57.9756752 60.4146891,60.1427417 C60.5410039,60.2154551 60.6349571,60.3424477 60.7435252,60.4428128" id="Fill-20"></path>
                    </g>
                    <g id="Realms-of-Ether" opacity="0.08" style="mix-blend-mode: overlay;" transform="translate(90.512986, 69.779845) rotate(32.000000) translate(-90.512986, -69.779845) translate(63.012986, 50.279845)" font-family="Helvetica-Bold, Helvetica" font-size="32" font-weight="bold">
                        <text id="721">
                            <tspan x="0.9295713" y="31.8559314">721</tspan>
                        </text>
                    </g>
                </g>
            </g>
        </g>
    </g>
</svg>