<?xml version="1.0" encoding="UTF-8"?>
<svg width="185px" height="134px" viewBox="0 0 185 134" version="1.1" xmlns="http://www.w3.org/2000/svg" xmlns:xlink="http://www.w3.org/1999/xlink">
    <!-- Generator: Sketch 50.2 (55047) - http://www.bohemiancoding.com/sketch -->
    <title>Shape</title>
    <desc>Created with Sketch.</desc>
    <defs>
        <linearGradient x1="2.88339957%" y1="2.88339957%" x2="100%" y2="100%" id="linearGradient-1">
            <stop stop-color="#4891B2" offset="0%"></stop>
            <stop stop-color="#3B71A6" offset="100%"></stop>
        </linearGradient>
        <rect id="path-2" x="0" y="0" width="184.5" height="134" rx="6"></rect>
    </defs>
    <g id="App--Wallet" stroke="none" stroke-width="1" fill="none" fill-rule="evenodd">
        <g id="Discover-first-sight-Copy-14" transform="translate(-15.000000, -291.000000)">
            <g id="icons8-bitcoin-copy-6" transform="translate(15.000000, 291.000000)">
                <g id="Group-9">
                    <g id="Shape">
                        <mask id="mask-3" fill="white">
                            <use xlink:href="#path-2"></use>
                        </mask>
                        <use id="Mask" fill="url(#linearGradient-1)" xlink:href="#path-2"></use>
                        <path d="M165.750049,-19.2708143 C154.171762,-12.4859577 147.31607,-0.233666718 147.31607,12.6865635 C147.31607,19.4714201 150.047422,26.3090088 153.466897,32.4092277 C156.198249,37.8582058 157.537492,47.3684304 148.004195,52.1318919 C141.201368,56.1922595 132.301568,53.4853477 128.230973,46.6829138 C124.159497,41.2339356 119.384038,35.7849575 113.233211,31.7237111 C101.654924,24.9388545 87.9964054,24.9388545 76.4172378,31.7237111 C64.8380703,38.5085677 58,50.791619 58,63.7153647 C58,76.6391104 64.802827,88.8870071 76.4145946,95.6903199 C87.9928811,102.475177 101.6514,102.475177 113.230568,95.6903199 C119.381395,92.2803142 124.155973,86.8664908 127.541086,80.7311172 C130.272438,75.9676557 137.78013,69.833161 147.314308,75.2821391 C154.117135,79.3425067 156.161243,88.2199467 152.777011,95.0048033 C149.358416,101.139298 147.314308,107.942611 147.314308,114.727467 C147.314308,127.665275 154.117135,139.89911 165.748286,146.684845 C177.326573,153.469702 190.985092,153.469702 202.564259,146.684845 C214.143427,139.899989 221,127.647698 221,114.727467 C221,101.807237 214.179551,89.5558252 202.566022,82.7525123 C196.415195,79.3425067 189.594746,77.9890508 182.104676,77.9890508 C175.953849,77.9890508 167.794157,73.9286832 167.794157,63.7153647 C167.794157,55.5418976 173.944984,49.4416787 182.104676,49.4416787 C188.907503,49.4416787 196.415195,48.0882228 202.566022,44.6782171 C214.144308,37.8933605 221,25.6410695 221,12.7217182 C221,-0.197633153 214.179551,-12.4499241 202.566022,-19.2356596 C197.103319,-22.6456653 190.299611,-23.9991211 184.151427,-23.9991211 C178.035843,-24.0342758 171.180151,-22.6456653 165.752692,-19.2708143" fill="#FFFFFF" fill-rule="nonzero" opacity="0.099999994" mask="url(#mask-3)"></path>
                    </g>
                </g>
            </g>
        </g>
    </g>
</svg>