<?xml version="1.0" encoding="UTF-8"?>
<svg width="510px" height="290px" viewBox="0 0 510 290" version="1.1" xmlns="http://www.w3.org/2000/svg" xmlns:xlink="http://www.w3.org/1999/xlink">
    <!-- Generator: Sketch 50.2 (55047) - http://www.bohemiancoding.com/sketch -->
    <title>Group 12</title>
    <desc>Created with Sketch.</desc>
    <defs>
        <rect id="path-1" x="0" y="0" width="480" height="260" rx="6"></rect>
        <filter x="-5.1%" y="-7.9%" width="110.2%" height="118.8%" filterUnits="objectBoundingBox" id="filter-3">
            <feOffset dx="0" dy="4" in="SourceAlpha" result="shadowOffsetOuter1"></feOffset>
            <feGaussianBlur stdDeviation="7.5" in="shadowOffsetOuter1" result="shadowBlurOuter1"></feGaussianBlur>
            <feColorMatrix values="0 0 0 0 0.0274509804   0 0 0 0 0.164705882   0 0 0 0 0.266666667  0 0 0 0.1 0" type="matrix" in="shadowBlurOuter1"></feColorMatrix>
        </filter>
    </defs>
    <g id="Page-1" stroke="none" stroke-width="1" fill="none" fill-rule="evenodd">
        <g id="Cash" transform="translate(-471.000000, -3085.000000)">
            <g id="Group-12" transform="translate(486.000000, 3096.000000)">
                <g id="Oval">
                    <mask id="mask-2" fill="white">
                        <use xlink:href="#path-1"></use>
                    </mask>
                    <g id="Mask">
                        <use fill="black" fill-opacity="1" filter="url(#filter-3)" xlink:href="#path-1"></use>
                        <use fill="#F5D516" fill-rule="evenodd" xlink:href="#path-1"></use>
                    </g>
                    <circle fill="#FFAA64" opacity="0.5" mask="url(#mask-2)" cx="29" cy="6" r="100"></circle>
                    <circle fill="#C00000" opacity="0.223716524" mask="url(#mask-2)" cx="545" cy="51" r="140"></circle>
                </g>
                <g id="Group-10" transform="translate(30.000000, 150.000000)" fill="#000000" font-family="AzoSans-Bold, Azo Sans" font-size="72" font-weight="bold" line-spacing="41">
                    <text id="1%-per-transaction">
                        <tspan x="0" y="73">1%</tspan>
                        <tspan x="111.528" y="105.512" font-family="AzoSans-Medium, Azo Sans" font-size="18" font-weight="400"></tspan>
                        <tspan x="7.272" y="146.512" font-family="AzoSans-Medium, Azo Sans" font-size="24" font-weight="400">per transaction</tspan>
                    </text>
                </g>
                <g id="Group-15" transform="translate(403.000000, 17.000000)">
                    <circle id="Oval-2" fill="#FFFFFF" cx="30" cy="30" r="30"></circle>
                    <g id="icons8-economic_improvement" transform="translate(15.000000, 15.000000)" fill="#000000" fill-rule="nonzero" stroke="#000000" stroke-width="0.2">
                        <path d="M21,0 L21,1 L25.792969,1 L18.25,8.542969 L12.5,2.792969 L5.1464845,10.1464845 L5.8535155,10.8535155 L12.5,4.2070315 L18.25,9.9570315 L26.5,1.7070315 L26.5,6.5 L27.5,6.5 L27.5,0 L21,0 Z M12.5,5.5 C12.2246095,5.5 12,5.7246095 12,6 C12,6.2753905 12.2246095,6.5 12.5,6.5 C12.7753905,6.5 13,6.2753905 13,6 C13,5.7246095 12.7753905,5.5 12.5,5.5 Z M23.5,6.5 C23.2246095,6.5 23,6.7246095 23,7 C23,7.2753905 23.2246095,7.5 23.5,7.5 C23.7753905,7.5 24,7.2753905 24,7 C24,6.7246095 23.7753905,6.5 23.5,6.5 Z M11,7 C10.7246095,7 10.5,7.2246095 10.5,7.5 C10.5,7.7753905 10.7246095,8 11,8 C11.2753905,8 11.5,7.7753905 11.5,7.5 C11.5,7.2246095 11.2753905,7 11,7 Z M22,8 C21.7246095,8 21.5,8.2246095 21.5,8.5 C21.5,8.7753905 21.7246095,9 22,9 C22.2753905,9 22.5,8.7753905 22.5,8.5 C22.5,8.2246095 22.2753905,8 22,8 Z M9.5,8.5 C9.2246095,8.5 9,8.7246095 9,9 C9,9.2753905 9.2246095,9.5 9.5,9.5 C9.7753905,9.5 10,9.2753905 10,9 C10,8.7246095 9.7753905,8.5 9.5,8.5 Z M20.5,9.5 C20.2246095,9.5 20,9.7246095 20,10 C20,10.2753905 20.2246095,10.5 20.5,10.5 C20.7753905,10.5 21,10.2753905 21,10 C21,9.7246095 20.7753905,9.5 20.5,9.5 Z M8,10 C7.7246095,10 7.5,10.2246095 7.5,10.5 C7.5,10.7753905 7.7246095,11 8,11 C8.2753905,11 8.5,10.7753905 8.5,10.5 C8.5,10.2246095 8.2753905,10 8,10 Z M0,13.5 L0,30 L30,30 L30,13.5 L0,13.5 Z M1,14.5 L29,14.5 L29,29 L1,29 L1,14.5 Z M5,15.5 C4.7246095,15.5 4.5,15.7246095 4.5,16 C4.5,16.2753905 4.7246095,16.5 5,16.5 C5.2753905,16.5 5.5,16.2753905 5.5,16 C5.5,15.7246095 5.2753905,15.5 5,15.5 Z M7,15.5 C6.7246095,15.5 6.5,15.7246095 6.5,16 C6.5,16.2753905 6.7246095,16.5 7,16.5 C7.2753905,16.5 7.5,16.2753905 7.5,16 C7.5,15.7246095 7.2753905,15.5 7,15.5 Z M9,15.5 C8.7246095,15.5 8.5,15.7246095 8.5,16 C8.5,16.2753905 8.7246095,16.5 9,16.5 C9.2753905,16.5 9.5,16.2753905 9.5,16 C9.5,15.7246095 9.2753905,15.5 9,15.5 Z M11,15.5 C10.7246095,15.5 10.5,15.7246095 10.5,16 C10.5,16.2753905 10.7246095,16.5 11,16.5 C11.2753905,16.5 11.5,16.2753905 11.5,16 C11.5,15.7246095 11.2753905,15.5 11,15.5 Z M13,15.5 C12.7246095,15.5 12.5,15.7246095 12.5,16 C12.5,16.2753905 12.7246095,16.5 13,16.5 C13.2753905,16.5 13.5,16.2753905 13.5,16 C13.5,15.7246095 13.2753905,15.5 13,15.5 Z M15,15.5 C14.7246095,15.5 14.5,15.7246095 14.5,16 C14.5,16.2753905 14.7246095,16.5 15,16.5 C15.2753905,16.5 15.5,16.2753905 15.5,16 C15.5,15.7246095 15.2753905,15.5 15,15.5 Z M17,15.5 C16.7246095,15.5 16.5,15.7246095 16.5,16 C16.5,16.2753905 16.7246095,16.5 17,16.5 C17.2753905,16.5 17.5,16.2753905 17.5,16 C17.5,15.7246095 17.2753905,15.5 17,15.5 Z M19,15.5 C18.7246095,15.5 18.5,15.7246095 18.5,16 C18.5,16.2753905 18.7246095,16.5 19,16.5 C19.2753905,16.5 19.5,16.2753905 19.5,16 C19.5,15.7246095 19.2753905,15.5 19,15.5 Z M21,15.5 C20.7246095,15.5 20.5,15.7246095 20.5,16 C20.5,16.2753905 20.7246095,16.5 21,16.5 C21.2753905,16.5 21.5,16.2753905 21.5,16 C21.5,15.7246095 21.2753905,15.5 21,15.5 Z M23,15.5 C22.7246095,15.5 22.5,15.7246095 22.5,16 C22.5,16.2753905 22.7246095,16.5 23,16.5 C23.2753905,16.5 23.5,16.2753905 23.5,16 C23.5,15.7246095 23.2753905,15.5 23,15.5 Z M25,15.5 C24.7246095,15.5 24.5,15.7246095 24.5,16 C24.5,16.2753905 24.7246095,16.5 25,16.5 C25.2753905,16.5 25.5,16.2753905 25.5,16 C25.5,15.7246095 25.2753905,15.5 25,15.5 Z M4,17 C3.7246095,17 3.5,17.2246095 3.5,17.5 C3.5,17.7753905 3.7246095,18 4,18 C4.2753905,18 4.5,17.7753905 4.5,17.5 C4.5,17.2246095 4.2753905,17 4,17 Z M26,17 C25.7246095,17 25.5,17.2246095 25.5,17.5 C25.5,17.7753905 25.7246095,18 26,18 C26.2753905,18 26.5,17.7753905 26.5,17.5 C26.5,17.2246095 26.2753905,17 26,17 Z M15,17.75 C12.796875,17.75 11,19.546875 11,21.75 C11,23.953125 12.796875,25.75 15,25.75 C17.203125,25.75 19,23.953125 19,21.75 C19,19.546875 17.203125,17.75 15,17.75 Z M2.5,18 C2.2246095,18 2,18.2246095 2,18.5 C2,18.7753905 2.2246095,19 2.5,19 C2.7753905,19 3,18.7753905 3,18.5 C3,18.2246095 2.7753905,18 2.5,18 Z M27.5,18 C27.2246095,18 27,18.2246095 27,18.5 C27,18.7753905 27.2246095,19 27.5,19 C27.7753905,19 28,18.7753905 28,18.5 C28,18.2246095 27.7753905,18 27.5,18 Z M15,18.75 C16.6621095,18.75 18,20.0878905 18,21.75 C18,23.4121095 16.6621095,24.75 15,24.75 C13.3378905,24.75 12,23.4121095 12,21.75 C12,20.0878905 13.3378905,18.75 15,18.75 Z M6,19.75 C4.9003905,19.75 4,20.6503905 4,21.75 C4,22.8496095 4.9003905,23.75 6,23.75 C7.0996095,23.75 8,22.8496095 8,21.75 C8,20.6503905 7.0996095,19.75 6,19.75 Z M24,19.75 C22.9003905,19.75 22,20.6503905 22,21.75 C22,22.8496095 22.9003905,23.75 24,23.75 C25.0996095,23.75 26,22.8496095 26,21.75 C26,20.6503905 25.0996095,19.75 24,19.75 Z M6,20.75 C6.558594,20.75 7,21.1914065 7,21.75 C7,22.308594 6.558594,22.75 6,22.75 C5.4414065,22.75 5,22.308594 5,21.75 C5,21.1914065 5.4414065,20.75 6,20.75 Z M24,20.75 C24.558594,20.75 25,21.1914065 25,21.75 C25,22.308594 24.558594,22.75 24,22.75 C23.4414065,22.75 23,22.308594 23,21.75 C23,21.1914065 23.4414065,20.75 24,20.75 Z M2.5,24.5 C2.2246095,24.5 2,24.7246095 2,25 C2,25.2753905 2.2246095,25.5 2.5,25.5 C2.7753905,25.5 3,25.2753905 3,25 C3,24.7246095 2.7753905,24.5 2.5,24.5 Z M27.5,24.5 C27.2246095,24.5 27,24.7246095 27,25 C27,25.2753905 27.2246095,25.5 27.5,25.5 C27.7753905,25.5 28,25.2753905 28,25 C28,24.7246095 27.7753905,24.5 27.5,24.5 Z M4,25.5 C3.7246095,25.5 3.5,25.7246095 3.5,26 C3.5,26.2753905 3.7246095,26.5 4,26.5 C4.2753905,26.5 4.5,26.2753905 4.5,26 C4.5,25.7246095 4.2753905,25.5 4,25.5 Z M26,25.5 C25.7246095,25.5 25.5,25.7246095 25.5,26 C25.5,26.2753905 25.7246095,26.5 26,26.5 C26.2753905,26.5 26.5,26.2753905 26.5,26 C26.5,25.7246095 26.2753905,25.5 26,25.5 Z M5,27 C4.7246095,27 4.5,27.2246095 4.5,27.5 C4.5,27.7753905 4.7246095,28 5,28 C5.2753905,28 5.5,27.7753905 5.5,27.5 C5.5,27.2246095 5.2753905,27 5,27 Z M7,27 C6.7246095,27 6.5,27.2246095 6.5,27.5 C6.5,27.7753905 6.7246095,28 7,28 C7.2753905,28 7.5,27.7753905 7.5,27.5 C7.5,27.2246095 7.2753905,27 7,27 Z M9,27 C8.7246095,27 8.5,27.2246095 8.5,27.5 C8.5,27.7753905 8.7246095,28 9,28 C9.2753905,28 9.5,27.7753905 9.5,27.5 C9.5,27.2246095 9.2753905,27 9,27 Z M11,27 C10.7246095,27 10.5,27.2246095 10.5,27.5 C10.5,27.7753905 10.7246095,28 11,28 C11.2753905,28 11.5,27.7753905 11.5,27.5 C11.5,27.2246095 11.2753905,27 11,27 Z M13,27 C12.7246095,27 12.5,27.2246095 12.5,27.5 C12.5,27.7753905 12.7246095,28 13,28 C13.2753905,28 13.5,27.7753905 13.5,27.5 C13.5,27.2246095 13.2753905,27 13,27 Z M15,27 C14.7246095,27 14.5,27.2246095 14.5,27.5 C14.5,27.7753905 14.7246095,28 15,28 C15.2753905,28 15.5,27.7753905 15.5,27.5 C15.5,27.2246095 15.2753905,27 15,27 Z M17,27 C16.7246095,27 16.5,27.2246095 16.5,27.5 C16.5,27.7753905 16.7246095,28 17,28 C17.2753905,28 17.5,27.7753905 17.5,27.5 C17.5,27.2246095 17.2753905,27 17,27 Z M19,27 C18.7246095,27 18.5,27.2246095 18.5,27.5 C18.5,27.7753905 18.7246095,28 19,28 C19.2753905,28 19.5,27.7753905 19.5,27.5 C19.5,27.2246095 19.2753905,27 19,27 Z M21,27 C20.7246095,27 20.5,27.2246095 20.5,27.5 C20.5,27.7753905 20.7246095,28 21,28 C21.2753905,28 21.5,27.7753905 21.5,27.5 C21.5,27.2246095 21.2753905,27 21,27 Z M23,27 C22.7246095,27 22.5,27.2246095 22.5,27.5 C22.5,27.7753905 22.7246095,28 23,28 C23.2753905,28 23.5,27.7753905 23.5,27.5 C23.5,27.2246095 23.2753905,27 23,27 Z M25,27 C24.7246095,27 24.5,27.2246095 24.5,27.5 C24.5,27.7753905 24.7246095,28 25,28 C25.2753905,28 25.5,27.7753905 25.5,27.5 C25.5,27.2246095 25.2753905,27 25,27 Z" id="Shape"></path>
                    </g>
                </g>
            </g>
        </g>
    </g>
</svg>