<?xml version="1.0" encoding="UTF-8"?>
<svg width="36px" height="36px" viewBox="0 0 36 36" version="1.1" xmlns="http://www.w3.org/2000/svg" xmlns:xlink="http://www.w3.org/1999/xlink">
    <!-- Generator: Sketch 50.2 (55047) - http://www.bohemiancoding.com/sketch -->
    <title>Shape</title>
    <desc>Created with Sketch.</desc>
    <defs></defs>
    <g id="Page-1" stroke="none" stroke-width="1" fill="none" fill-rule="evenodd">
        <g id="Cash" transform="translate(-988.000000, -860.000000)" fill="#F5D516" fill-rule="nonzero">
            <g id="Benefit" transform="translate(91.000000, 776.000000)">
                <path d="M909.521739,84 C907.364087,84 905.608696,85.7553913 905.608696,87.9130435 C905.608696,90.0706957 907.364087,91.826087 909.521739,91.826087 C909.840237,91.826087 910.145301,91.7774791 910.441916,91.7053328 L911.094599,93.0932408 C908.288265,94.7190415 906.391304,97.747266 906.391304,101.217391 C906.391304,102.113009 906.525987,102.976506 906.761209,103.797554 L904.200917,104.589334 C903.504294,103.505891 902.294049,102.782609 900.913043,102.782609 C898.755391,102.782609 897,104.538 897,106.695652 C897,108.853304 898.755391,110.608696 900.913043,110.608696 C903.070696,110.608696 904.826087,108.853304 904.826087,106.695652 C904.826087,106.476416 904.804359,106.263179 904.769531,106.053669 L907.322181,105.264946 C908.517397,107.752701 910.770523,109.631483 913.500509,110.316746 L913.266644,112.181556 C911.187357,112.270665 909.521739,113.986126 909.521739,116.086957 C909.521739,118.244609 911.27713,120 913.434783,120 C915.592435,120 917.347826,118.244609 917.347826,116.086957 C917.347826,114.416028 916.290579,112.99681 914.813519,112.436821 L915.047385,110.570482 C915.29089,110.589496 915.534304,110.608696 915.782609,110.608696 C918.406059,110.608696 920.778123,109.524182 922.483696,107.783967 L925.634002,110.371773 C925.349821,110.913669 925.173913,111.520758 925.173913,112.173913 C925.173913,114.331565 926.929304,116.086957 929.086957,116.086957 C931.244609,116.086957 933,114.331565 933,112.173913 C933,110.016261 931.244609,108.26087 929.086957,108.26087 C928.148851,108.26087 927.299302,108.607201 926.624491,109.159647 L923.481828,106.579483 C924.544914,105.057565 925.173913,103.210613 925.173913,101.217391 C925.173913,98.9094383 924.332959,96.796679 922.946841,95.1598169 L925.368037,92.7386212 C925.986688,93.1486839 926.725547,93.3913043 927.521739,93.3913043 C929.679391,93.3913043 931.434783,91.635913 931.434783,89.4782609 C931.434783,87.3206087 929.679391,85.5652174 927.521739,85.5652174 C925.364087,85.5652174 923.608696,87.3206087 923.608696,89.4782609 C923.608696,90.2744525 923.851316,91.0133118 924.261379,91.6319632 L921.840183,94.0531589 C920.203321,92.6670415 918.090562,91.826087 915.782609,91.826087 C914.630797,91.826087 913.53208,92.0457073 912.511549,92.4268002 L911.855809,91.0343069 C912.808276,90.3198994 913.434783,89.1925861 913.434783,87.9130435 C913.434783,85.7553913 911.679391,84 909.521739,84 Z M915.782609,95.7391304 C916.507304,95.7391304 917.100913,95.9369473 917.298913,96.3337299 C918.497087,96.4839908 918.905217,97.5234783 918.913043,98.4782609 C918.919304,99.2045217 918.859826,99.84 918.717391,100.23913 C918.84887,100.30487 918.978783,100.625739 918.913043,101.021739 C918.781565,101.748 918.328435,102 918.130435,102 C918.064696,102.660522 917.611565,103.628609 917.347826,103.76087 L917.347826,105.130435 C917.770435,106.145478 919.801145,106.138105 921.039232,107.002887 C919.649319,108.266018 917.808783,109.043478 915.782609,109.043478 C913.756435,109.043478 911.915898,108.266018 910.525985,107.002887 C911.764072,106.138105 913.794783,106.145478 914.217391,105.130435 L914.217391,103.76087 C913.953652,103.628609 913.500522,102.660522 913.434783,102 C913.236783,102 912.717913,101.748 912.652174,101.021739 C912.586435,100.625739 912.716348,100.30487 912.847826,100.23913 C912.690522,99.6553043 912.656087,99.0933913 912.652174,98.576087 C912.640435,96.9294783 913.623391,95.7391304 915.782609,95.7391304 Z" id="Shape"></path>
            </g>
        </g>
    </g>
</svg>