<?xml version="1.0" encoding="UTF-8"?>
<svg width="32px" height="32px" viewBox="0 0 32 32" version="1.1" xmlns="http://www.w3.org/2000/svg" xmlns:xlink="http://www.w3.org/1999/xlink">
    <!-- Generator: Sketch 50.2 (55047) - http://www.bohemiancoding.com/sketch -->
    <title>Shape</title>
    <desc>Created with Sketch.</desc>
    <defs></defs>
    <g id="Page-1" stroke="none" stroke-width="1" fill="none" fill-rule="evenodd">
        <g id="Cash" transform="translate(-590.000000, -862.000000)" fill="#F5D516" fill-rule="nonzero">
            <path d="M591.846154,862 C590.826923,862 590,862.826923 590,863.846154 L590,889.692308 C590,890.711538 590.826923,891.538462 591.846154,891.538462 L606,891.538462 L606,887.846154 L593.076923,887.846154 C592.735577,887.846154 592.461538,887.572116 592.461538,887.230769 L592.461538,865.076923 C592.461538,864.735577 592.735577,864.461538 593.076923,864.461538 L610.307692,864.461538 C610.649039,864.461538 610.923077,864.735577 610.923077,865.076923 L610.923077,870.615385 L613.384615,870.615385 L613.384615,863.846154 C613.384615,862.826923 612.557692,862 611.538462,862 L591.846154,862 Z M600.807692,862.807692 L602.576923,862.807692 C602.817308,862.807692 603,862.995193 603,863.230769 C603,863.466346 602.817308,863.653846 602.576923,863.653846 L600.807692,863.653846 C600.567308,863.653846 600.384615,863.466346 600.384615,863.230769 C600.384615,862.995193 600.567308,862.807692 600.807692,862.807692 Z M609.076923,871.846154 C608.057692,871.846154 607.230769,872.673077 607.230769,873.692308 L607.230769,892.153846 C607.230769,893.173077 608.057692,894 609.076923,894 L620.153846,894 C621.173077,894 622,893.173077 622,892.153846 L622,873.692308 C622,872.673077 621.173077,871.846154 620.153846,871.846154 L609.076923,871.846154 Z M613.730769,872.653846 L615.5,872.653846 C615.740385,872.653846 615.923077,872.841346 615.923077,873.076923 C615.923077,873.3125 615.740385,873.5 615.5,873.5 L613.730769,873.5 C613.490385,873.5 613.307692,873.3125 613.307692,873.076923 C613.307692,872.841346 613.490385,872.653846 613.730769,872.653846 Z M610.307692,874.307692 L618.923077,874.307692 C619.264423,874.307692 619.538462,874.58173 619.538462,874.923077 L619.538462,889.692308 C619.538462,890.033654 619.264423,890.307692 618.923077,890.307692 L610.307692,890.307692 C609.966346,890.307692 609.692308,890.033654 609.692308,889.692308 L609.692308,874.923077 C609.692308,874.58173 609.966346,874.307692 610.307692,874.307692 Z M601.692308,888.615385 C602.302885,888.615385 602.807692,889.091346 602.807692,889.692308 C602.807692,890.293269 602.307692,890.769231 601.692308,890.769231 C601.076923,890.769231 600.576923,890.293269 600.576923,889.692308 C600.576923,889.091346 601.08173,888.615385 601.692308,888.615385 Z M614.615385,891.076923 C615.225962,891.076923 615.730769,891.552885 615.730769,892.153846 C615.730769,892.754807 615.230769,893.230769 614.615385,893.230769 C614,893.230769 613.5,892.754807 613.5,892.153846 C613.5,891.552885 614.004807,891.076923 614.615385,891.076923 Z" id="Shape"></path>
        </g>
    </g>
</svg>