<?xml version="1.0" encoding="UTF-8"?>
<svg width="1861px" height="1773px" viewBox="0 0 1861 1773" version="1.1" xmlns="http://www.w3.org/2000/svg" xmlns:xlink="http://www.w3.org/1999/xlink">
  <!-- Generator: Sketch 51.3 (57544) - http://www.bohemiancoding.com/sketch -->
  <title>Group 13</title>
  <desc>Created with Sketch.</desc>
  <defs>
    <polygon id="path-1" points="0.00033447763 0.024 691.9061 0.024 691.9061 643.662 0.00033447763 643.662"></polygon>
    <polygon id="path-3" points="0.1518 0.024 692.058841 0.024 692.058841 643.662 0.1518 643.662"></polygon>
  </defs>
  <g id="MOBILE-WEB-ATM" stroke="none" stroke-width="1" fill="none" fill-rule="evenodd">
    <g id="Group-13" transform="translate(0.000000, -1.000000)">
      <path d="M1687.1656,1773.9799 C1237.8456,1659.1599 1230.7556,1621.9899 1230.7556,1621.9899 C1141.1856,1661.6499 1042.0646,1683.6799 937.7956,1683.6799 C537.7356,1683.6799 213.4356,1359.3799 213.4356,959.3199 C213.4356,559.2699 537.7356,234.9599 937.7956,234.9599 C1337.8456,234.9599 1662.1556,559.2699 1662.1556,959.3199 C1662.1556,1107.3999 1617.7256,1245.0999 1541.4556,1359.8199 C1541.4556,1359.8199 1534.8946,1629.1999 1687.1656,1773.9799" id="Fill-1" fill="#FDCA42"></path>
      <g id="Group-5" transform="translate(0.000000, 0.980000)">
        <mask id="mask-2" fill="white">
          <use xlink:href="#path-1"></use>
        </mask>
        <g id="Clip-4"></g>
        <path d="M115.7101,643.662 C-242.9989,284.953 312.4981,-248.97 691.9061,130.438" id="Fill-3" fill="#FDCA42" mask="url(#mask-2)"></path>
      </g>
      <g id="Group-8" transform="translate(1168.000000, 0.980000)">
        <mask id="mask-4" fill="white">
          <use xlink:href="#path-3"></use>
        </mask>
        <g id="Clip-7"></g>
        <path d="M576.3488,643.662 C935.0588,284.953 379.5598,-248.97 0.1518,130.438" id="Fill-6" fill="#FDCA42" mask="url(#mask-4)"></path>
      </g>
      <path d="M1030.3864,97.8944 C1030.3864,140.8334 995.5764,175.6434 952.6374,175.6434 C909.6984,175.6434 874.8884,140.8334 874.8884,97.8944 C874.8884,54.9554 909.6984,20.1454 952.6374,20.1454 C995.5764,20.1454 1030.3864,54.9554 1030.3864,97.8944" id="Fill-9" fill="#FDCA42"></path>
      <path d="M926.0797,586.4467 C926.0797,573.5277 988.0897,574.3887 988.0897,586.4467 L988.0897,967.9807 C988.0897,967.9807 1463.0707,565.3457 1472.1137,556.3027 C1481.1567,547.2597 1499.6737,573.5277 1492.7837,580.4177 L1002.0947,1002.7677 C994.1887,1060.0837 943.6827,1044.1737 941.4107,1043.4167 C939.1377,1042.6587 927.2677,1035.0827 923.7327,1030.0317 C920.1977,1024.9807 903.7827,1002.7587 923.7327,975.2327 C923.7327,940.1307 926.0797,586.4467 926.0797,586.4467" id="Fill-11" fill="#FFFFFF"></path>
    </g>
  </g>
</svg>
