<?xml version="1.0" encoding="UTF-8"?>
<svg width="198px" height="192px" viewBox="0 0 198 192" version="1.1" xmlns="http://www.w3.org/2000/svg" xmlns:xlink="http://www.w3.org/1999/xlink">
    <!-- Generator: Sketch 50.2 (55047) - http://www.bohemiancoding.com/sketch -->
    <title>Group</title>
    <desc>Created with Sketch.</desc>
    <defs>
        <polygon id="path-1" points="0 0.118052422 44.8887982 0.118052422 44.8887982 28.1445158 0 28.1445158"></polygon>
        <polygon id="path-3" points="0.0532427787 0.100472838 137.915844 0.100472838 137.915844 41.1539158 0.0532427787 41.1539158"></polygon>
    </defs>
    <g id="Page-1" stroke="none" stroke-width="1" fill="none" fill-rule="evenodd">
        <g id="Artboard-2" transform="translate(-109.000000, -125.000000)">
            <g id="Group-2">
                <g id="Group" transform="translate(109.000000, 125.000000)">
                    <path d="M152.586655,67.9929016 C152.586655,67.9929016 168.770703,79.5349778 152,93 L157.655572,92.2269976 C157.655572,92.2269976 162.902152,79.6097894 160.252645,73.131835 C157.605913,66.6544875 152.790842,66 152.790842,66 L152.586655,67.9929016 Z" id="Fill-1" fill="#F8DBA8"></path>
                    <g id="Group-5" transform="translate(0.000000, 124.000000)">
                        <mask id="mask-2" fill="white">
                            <use xlink:href="#path-1"></use>
                        </mask>
                        <g id="Clip-4"></g>
                        <path d="M41.4366222,17.4284328 C41.4241727,17.4239994 41.3566111,17.3975515 41.2743227,17.361778 C40.848609,17.1859683 39.5614476,16.6437099 37.6524163,15.784841 C35.5695468,14.8476987 32.7447149,13.5355464 29.5102626,11.9106058 C28.4682965,11.388833 27.3836679,10.8312868 26.2685228,10.2492801 C23.8615097,8.98406145 21.3066204,7.58323997 18.7149897,6.06592543 C17.751061,5.49783063 16.7796929,4.91353077 15.8102985,4.31715353 C13.6591084,2.99414698 11.5311473,1.57589741 9.44706324,0.118052422 C7.97133679,0.524555129 3.16049895,2.16891132 -1.51823708e-05,6.95827454 C0.109297888,7.05367044 0.200088465,7.16282536 0.319725547,7.25225901 C0.598170228,7.459103 0.882080562,7.65952611 1.1602216,7.86514707 C2.00800518,8.48827796 2.86489819,9.09336924 3.73317798,9.69417994 C5.95284059,11.2306042 8.21562114,12.6925769 10.4709623,14.0742886 C11.4467333,14.6723475 12.4205306,15.2538956 13.3871921,15.8160282 C15.9048847,17.287785 18.3774856,18.6520687 20.7167853,19.8891578 C21.8267684,20.4751393 22.9051722,21.0305452 23.9469865,21.5553755 C31.3570462,25.3062382 36.8658176,27.5630238 37.2998816,27.7389865 C37.4747825,27.8146611 37.6549973,27.8700029 37.8262544,27.9235102 C40.5173297,28.7123609 43.4157961,27.334624 44.4847868,24.6649148 C45.6289303,21.8154211 44.2588731,18.5783814 41.4366222,17.4284328" id="Fill-3" fill="#282828" mask="url(#mask-2)"></path>
                    </g>
                    <path d="M15.1871032,128 L1,131.299215 C1.82099182,131.878653 2.65080518,132.441317 3.49164548,133 L18,129.626009 C17.0665335,129.09789 16.1258627,128.554418 15.1871032,128" id="Fill-6" fill="#3C3C3C"></path>
                    <path d="M25.7649517,134 L10,137.435586 C10.9737568,137.972757 11.945544,138.495098 12.9102102,139 L29,135.492187 C27.9600332,135.023536 26.877795,134.522753 25.7649517,134" id="Fill-8" fill="#3C3C3C"></path>
                    <path d="M37.4764444,139 L21,143.267525 C22.0798874,143.876808 23.1290518,144.4543 24.1426187,145 L41,140.639644 C40.5859767,140.456843 39.3337149,139.893022 37.4764444,139" id="Fill-10" fill="#3C3C3C"></path>
                    <path d="M48.9825178,149.930552 C45.6813689,157.178178 41.7024458,162.510719 37.5452086,160.613709 C33.4933595,158.765542 34.74503,152.306147 38.0482926,145.060911 C41.3461198,137.813882 45.4955057,132.519131 49.4822801,134.372675 C53.4667897,136.225322 52.2824588,142.681581 48.9825178,149.930552" id="Fill-12" fill="#191919"></path>
                    <path d="M84.6242191,157 L70,160.550689 C73.1275183,161.675179 76.4415031,162.825204 79.9230201,164 L95,160.341816 C91.3980599,159.216868 87.9295699,158.101706 84.6242191,157" id="Fill-14" fill="#D3D3D3"></path>
                    <path d="M46.2778532,143 L43,150.332855 C48.9327604,152.860023 58.3211217,156.672938 70.4445952,161 L85,157.47505 C67.0780944,151.533898 53.6110357,146.113724 46.2778532,143" id="Fill-16" fill="#BCBCBC"></path>
                    <path d="M149,182.622981 C158.954425,184.653246 169.316414,186.480986 180.00618,188 C184.118304,185.581246 186.663306,182.792537 188,180.997919 C181.254306,180.116258 174.634575,179.106671 168.155039,178 L149,182.622981 Z" id="Fill-18" fill="#BCBCBC"></path>
                    <path d="M142.300474,173 L125,177.33651 C132.676712,179.328623 140.696138,181.241075 149.015514,183 L168,178.238118 C159.135192,176.666995 150.552477,174.893673 142.300474,173" id="Fill-20" fill="#D3D3D3"></path>
                    <path d="M114,173.993543 C106.587554,172.021768 99.5786943,170.0045 93.0170759,168 L93,168.004696 C99.5616184,170.010664 106.575527,172.028666 113.982033,174 C113.987824,173.997065 113.993021,173.995744 114,173.993543" id="Fill-22" fill="#141414"></path>
                    <path d="M95.2492326,161 L80,164.710873 C84.1584777,166.11897 88.5764868,167.556073 93.1910596,169 L107,164.546301 C102.940034,163.365131 99.0138169,162.179929 95.2492326,161" id="Fill-24" fill="#BCBCBC"></path>
                    <path d="M124.715701,178 L142,173.680424 C136.832909,172.499396 131.817977,171.264274 126.933767,170 C123.234293,171.518687 118.811954,173.284773 114,175.106356 C117.493198,176.083324 121.055804,177.05234 124.715701,178" id="Fill-26" fill="#BCBCBC"></path>
                    <path d="M127,169.290422 C119.819201,167.572476 112.955859,165.794146 106.46495,164 L93,168.128159 C99.6017575,170.091957 106.653183,172.068264 114.110805,174 C118.90627,172.319867 123.313318,170.69106 127,169.290422" id="Fill-28" fill="#9B9B9B"></path>
                    <path d="M113.757334,175 C112.206436,175.572546 110.618615,176.149952 109,176.728117 C109.291046,176.810581 109.573421,176.893046 109.866709,176.975359 C128.914282,182.301555 150.738074,187.353323 174.20395,191 C176.00359,190.310667 177.590215,189.516392 179,188.682936 C155.294949,185.27606 133.188781,180.312831 113.757334,175" id="Fill-30" fill="#D3D3D3"></path>
                    <path d="M43.2104933,150 L42,152.753716 C50.3446267,156.364623 66.5541015,162.987398 88.1962417,170 L93,168.430752 C69.8761287,161.103413 52.3739086,153.974582 43.2104933,150" id="Fill-32" fill="#D3D3D3"></path>
                    <path d="M92.8226302,168 L88,169.571787 C94.5972274,171.702322 101.694268,173.869158 109.230423,176 C110.853203,175.417051 112.445111,174.834562 114,174.25728 C106.524391,172.199805 99.4453353,170.093623 92.8226302,168" id="Fill-34" fill="#ADADAD"></path>
                    <path d="M188.853177,123.023726 L188.832146,123 C186.561819,124.60206 184.227944,126.153981 181.862446,127.595179 C180.90151,128.183416 179.937547,128.759716 178.980091,129.319602 C176.406852,130.81631 173.870834,132.201549 171.479917,133.451293 C170.371459,134.025803 169.292959,134.577331 168.256825,135.094241 C165.044777,136.700628 162.24095,137.997974 160.170193,138.925397 C158.27253,139.775969 156.991887,140.311829 156.575345,140.487763 C156.486832,140.523278 156.418896,140.550586 156.410272,140.554466 C153.603116,141.693039 152.259379,144.862987 153.413985,147.635703 C154.499899,150.235469 157.394055,151.562362 160.072905,150.773717 C160.243576,150.721041 160.422721,150.666575 160.595814,150.591814 C161.026275,150.416328 166.505473,148.179323 173.865085,144.473216 C174.898798,143.953472 175.9717,143.404927 177.07108,142.825792 C179.395877,141.603953 181.851855,140.255274 184.351559,138.804526 C185.313403,138.248371 186.27782,137.674906 187.24738,137.085773 C189.486387,135.723067 191.7319,134.281571 193.935199,132.768597 C194.796123,132.176181 195.645245,131.580035 196.486045,130.966877 C196.761117,130.765127 197.042544,130.567257 197.321247,130.362672 C197.573169,130.175248 197.790897,129.961112 198,129.7425 C194.191055,124.185131 188.853177,123.023726 188.853177,123.023726" id="Fill-36" fill="#282828"></path>
                    <path d="M181.799049,127 L196,130.258819 C195.1835,130.851279 194.35892,131.427442 193.522878,132 L179,128.666763 C179.929784,128.125645 180.865886,127.568519 181.799049,127" id="Fill-38" fill="#3C3C3C"></path>
                    <path d="M171.224696,133 L187,136.394659 C186.029957,136.944918 185.065213,137.480543 184.102739,138 L168,134.534538 C169.03665,134.051737 170.115686,133.53674 171.224696,133" id="Fill-40" fill="#3C3C3C"></path>
                    <path d="M160.507899,139 L177,143.218301 C175.927359,143.844639 174.880408,144.437732 173.871696,145 L157,140.689709 C157.406467,140.499274 158.656135,139.919737 160.507899,139" id="Fill-42" fill="#3C3C3C"></path>
                    <path d="M148.18332,150.029043 C151.47191,157.283821 155.642751,162.344364 159.492004,160.682863 C163.554065,158.929124 162.188321,152.323317 158.896466,145.069138 C155.610399,137.813609 151.728646,132.439155 147.589712,134.411418 C143.333986,136.437525 144.891169,142.771864 148.18332,150.029043" id="Fill-44" fill="#191919"></path>
                    <path d="M103.066146,161 L118,164.525456 C105.211156,168.942763 90.1057315,173.65266 73.2971856,178 L56,173.915717 C73.3902384,169.926389 89.2791947,165.408826 103.066146,161" id="Fill-46" fill="#BCBCBC"></path>
                    <path d="M113.354167,157 L128,160.472737 C124.880359,161.622227 121.572727,162.798596 118.097252,164 L103,160.424509 C106.594238,159.270565 110.054261,158.127219 113.354167,157" id="Fill-48" fill="#D3D3D3"></path>
                    <path d="M151.67033,143 L155,150.249482 C149.075807,152.791736 139.701808,156.632132 127.59172,161 L113,157.597385 C130.903732,151.593372 144.347832,146.13474 151.67033,143" id="Fill-50" fill="#BCBCBC"></path>
                    <path d="M49,183.466343 C39.0610257,185.544122 28.7136792,187.426322 18.0333382,189 C13.910565,186.626666 11.3463569,183.873786 10,182.101212 C16.7382928,181.184239 23.3518641,180.139996 29.8208855,179 L49,183.466343 Z" id="Fill-52" fill="#BCBCBC"></path>
                    <path d="M55.6760679,174 L73,178.202481 C65.3364093,180.23617 57.3253945,182.191947 49.0161802,184 L30,179.384579 C38.8578892,177.762271 47.4286846,175.938947 55.6760679,174" id="Fill-54" fill="#D3D3D3"></path>
                    <g id="Group-58" transform="translate(18.000000, 150.000000)">
                        <mask id="mask-4" fill="white">
                            <use xlink:href="#path-3"></use>
                        </mask>
                        <g id="Clip-57"></g>
                        <path d="M69.4390217,26.8187105 C50.3362036,32.2266064 28.4413312,37.3824534 4.88729659,41.1539912 C3.07584058,40.4810568 1.4755534,39.7029011 0.0532427787,38.8841944 C65.0140887,29.2359378 118.033233,8.16452988 136.682924,0.100472838 L137.915844,2.80592825 C126.903375,7.56063762 102.258802,17.531342 69.4390217,26.8187105" id="Fill-56" fill="#D3D3D3" mask="url(#mask-4)"></path>
                    </g>
                    <path d="M137.565999,7.8840296 C121.142338,0.471599465 104.108628,-0.0237789983 99.2791917,0.000801424715 C98.7337703,0.00381742754 98.3490145,0.0122622354 98.1999216,0.0182942411 C97.9925142,0.0146750377 97.6008449,0.0095478329 97.0372378,0.0121114353 C91.9924282,0.0381998597 74.222723,0.757968933 57.5056856,8.92666177 C35.4548209,19.7017843 23.8687122,39.1159452 24.0011223,65.0743799 C24.1449549,93.1215473 33.6828402,112.489262 52.3540161,122.645651 C67.9660831,131.139017 86.1026589,131.045822 96.9339849,130.990328 L100.721725,130.971176 C115.664528,130.894268 143.471399,130.751611 160.160181,109.494974 C168.776456,98.520494 173.09549,83.3187842 172.998399,64.3090692 C172.863734,37.7970472 160.612118,18.2862233 137.565999,7.8840296" id="Fill-59" fill="#282828"></path>
                    <path d="M135.215339,14 C135.229872,14.0126337 149.177227,26.0333434 153.696847,38.4375776 C153.696847,38.4375776 150.531945,40.0727454 153.72007,42.986629 C153.72007,42.986629 146.780178,41.6060913 140.245712,42.2457499 C140.245712,42.2457499 151.484831,44.6148783 158.485702,51.8580763 C158.485702,51.8580763 147.944168,50.5793606 135.416404,53.3828493 C135.416404,53.3828493 161.224053,59.1238346 161.334774,80.8604975 L129,89.113192 C129,89.113192 140.897151,92.3895438 159.595456,88.9564734 C159.595456,88.9564734 159.863493,96.3485691 155.505085,106 C162.505656,97.0763632 167.096592,83.9859963 166.998457,64.7589371 C166.851778,35.8607443 151.412316,21.3138868 135.215339,14" id="Fill-61" fill="#3C3C3C"></path>
                    <path d="M160.247197,88.6364171 C141.403924,92.0834364 129.414534,88.7937725 129.414534,88.7937725 L162,80.5075465 C161.888421,58.6825658 135.880684,52.9182544 135.880684,52.9182544 C148.505425,50.1033749 159.12884,51.3872861 159.12884,51.3872861 C152.073691,44.1146584 140.747434,41.7359041 140.747434,41.7359041 C147.332562,41.0936464 154.326259,42.4797933 154.326259,42.4797933 C151.113416,39.5540704 154.302856,37.9122588 154.302856,37.9122588 C149.748196,25.4576252 135.692706,13.3880744 135.67806,13.3753893 C117.58217,5.2342867 98.5530326,6.0206106 98.5530326,6.0206106 C98.5530326,6.0206106 29.6888184,3.85946574 30.0010586,65.0448881 C30.3142047,126.228196 77.4060062,125.094392 99.1615084,124.982491 C114.052558,124.906834 140.816737,125.184697 156.125113,105.749193 C160.517312,96.0585475 160.247197,88.6364171 160.247197,88.6364171" id="Fill-63" fill="#282828"></path>
                    <path d="M47.4923414,100.983201 C56.8518292,102.763209 74.563814,102.469612 74.563814,102.469612 C61.6227276,100.60956 50.3510266,94.8795859 50.3510266,94.8795859 C55.22565,95.4643634 62.8883532,95.3230019 62.8883532,95.3230019 C42.5647264,90.1488081 35.8530113,81.1489429 35.8530113,81.1489429 C35.8170312,73.9423754 38.7580641,68.543302 38.7580641,68.543302 L131,56.7017079 C91.3985774,46.3969673 62.600061,48.6765727 62.600061,48.6765727 C71.2408504,45.4347726 86.4018626,42.7179433 86.4018626,42.7179433 C64.0111124,42.0211035 48.5038484,44.6370466 48.5038484,44.6370466 C58.9300928,40.7261959 47.8787886,39.6668907 47.8787886,39.6668907 C68.0270313,30.2242136 103.029176,25.4762187 103.029176,25.4762187 C74.1675815,24.1023238 54.8741291,26.5367321 54.8741291,26.5367321 C75.0901168,9.98761848 98.3522172,6.00940954 98.3522172,6.00940954 C98.3522172,6.00940954 29.6898795,3.84805848 30.0010545,65.0393186 C30.3134338,126.228313 77.2671374,125.094401 98.9590611,124.98249 C58.9320499,119.757702 47.4923414,100.983201 47.4923414,100.983201" id="Fill-65" fill="#191919"></path>
                    <path d="M161,80.5276728 C161,80.5276728 159.189442,80.3908618 155.925109,80.2384837 C157.181976,78.5006549 158.123159,76.4865097 158.615128,74.2500842 C160.508032,65.5715676 155.088251,56.9807656 146.504849,55.0633162 C146.504849,55.0633162 146.133464,54.9785952 145.432093,54.8226247 C144.732378,54.6907533 143.705085,54.4454215 142.396431,54.2334693 C139.782737,53.752685 136.048715,53.1674213 131.56801,52.6589455 C127.091369,52.1459791 121.862173,51.7006698 116.263549,51.4129776 C113.467248,51.261797 110.574601,51.1537253 107.634684,51.0908581 C104.698681,51.0116753 101.711945,51.0071848 98.7255106,51 C95.7405815,51.0359241 92.7577601,51.058676 89.8190472,51.1697414 C86.8836462,51.2456311 83.9911494,51.4024997 81.193343,51.568499 C75.5968268,51.9103768 70.3771151,52.4076264 65.9013775,52.9681922 C61.4274464,53.5271115 57.7024573,54.1544363 55.0905691,54.6684504 C53.786281,54.8947723 52.7618488,55.1522284 52.0603272,55.2954758 C51.365279,55.4598286 50.9916359,55.5491898 50.9916359,55.5491898 C45.2439765,56.9213412 40.4618878,61.4902893 39.0866948,67.7132433 C38.0431439,72.4318752 39.1792776,77.1219174 41.8000477,80.7394754 C38.0137884,80.9572653 36,81.1633799 36,81.1633799 C39.707978,83.8894211 45.461659,85.7472963 51.9986054,87.1297758 C52.0746286,87.1475882 52.1398129,87.1622572 52.2242665,87.1812671 C52.9275945,87.3164315 53.9547365,87.5632601 55.2609817,87.7780564 C55.4587927,87.8147289 55.6763246,87.853497 55.88648,87.8916664 C56.4580845,87.9940501 57.0840345,88.1018224 57.7455121,88.2112413 C57.7577059,88.2136362 57.7686954,88.2164802 57.7831473,88.2178273 L57.7813409,88.2170789 C60.0804046,88.5972758 62.8879962,89.0003742 66.0888012,89.3668001 C70.5701088,89.883808 75.7943368,90.3274707 81.3941648,90.6111215 C84.1940788,90.7488306 87.0874788,90.877409 90.0231809,90.9268046 C92.9632487,91.0037421 95.9459196,90.996707 98.9322035,91 C101.917735,90.9639262 104.903868,90.9318939 107.838817,90.8184336 C110.778133,90.7268271 113.669726,90.5916626 116.46407,90.4114433 C122.059833,90.065075 127.28376,89.5672267 131.754982,89.0066609 C136.230418,88.4558246 139.957967,87.8314935 142.566844,87.323317 C142.953433,87.2567077 143.303291,87.1890506 143.6396,87.1215432 C143.607836,87.136811 143.582244,87.1525278 143.552135,87.1674962 C144.182451,87.0320323 144.798164,86.8868391 145.415684,86.7423942 C145.473642,86.7301201 145.541235,86.7139543 145.596634,86.7033267 C145.821994,86.6519852 145.999783,86.6091756 146.154991,86.5732515 C146.170346,86.5701081 146.180884,86.5671145 146.195938,86.5639711 C146.495816,86.4931707 146.666078,86.4533548 146.666078,86.4533548 C146.718316,86.4418291 146.765887,86.420574 146.817523,86.4066534 C146.844319,86.399768 146.870212,86.3892901 146.896557,86.3815066 C152.650238,84.9286757 157.665515,83.031733 161,80.5276728" id="Fill-67" fill="#F8DBA8"></path>
                    <path d="M141,65.0236843 C141,65.0236843 140.797217,65.4808836 140.29665,66.2781334 C139.813369,67.0998462 139.076497,68.1459801 138.139247,69.3791571 C137.680919,70.0042544 137.117517,70.6091432 136.551109,71.2863573 C135.991014,71.9682817 135.34674,72.6299975 134.677362,73.3084272 C134.016101,73.9976449 133.300274,74.6756187 132.568663,75.3605819 C131.850581,76.0613474 131.042006,76.6759606 130.264848,77.3273442 C129.475063,77.9645971 128.710382,78.6328465 127.909474,79.2336328 C127.097742,79.8136028 126.300742,80.3861275 125.52674,80.9387476 C124.7344,81.4670567 123.972274,81.9768286 123.24848,82.4598583 C122.528594,82.9521567 121.783004,83.3227479 121.131514,83.710053 C118.47204,85.203206 116.593483,85.9981767 116.593483,86 L114,82.0983837 C114,82.0983837 115.342213,80.5980893 117.516752,78.6469773 C118.614845,77.6854761 119.853788,76.5155078 121.205171,75.300868 C121.891535,74.7090464 122.600598,74.0989915 123.321536,73.4789083 C124.014063,72.8231183 124.763863,72.2148867 125.488409,71.5748989 C126.218065,70.945699 126.947571,70.3155875 127.665202,69.6962641 C128.38133,69.0739017 129.088288,68.4646066 129.803364,67.9069723 C130.52806,67.357695 131.164518,66.7629865 131.827282,66.2626351 C132.484183,65.7519515 133.095387,65.2555507 133.686748,64.8279805 C134.82648,63.9372851 135.83904,63.2274031 136.517588,62.7591119 C137.238676,62.2766899 137.652058,62 137.652058,62 L141,65.0236843 Z" id="Fill-69" fill="#141414"></path>
                    <path d="M137.805278,85 C137.805278,85 137.333723,84.8569601 136.520423,84.5259812 C135.708176,84.195154 134.551626,83.701416 133.244359,83.0147333 C131.918441,82.353989 130.417288,81.5034855 128.864391,80.5084252 C127.275546,79.5696404 125.691513,78.3807253 124.113798,77.1986361 C122.540746,76.0021368 121.042451,74.6826201 119.64689,73.4512329 C118.954825,72.8171854 118.333305,72.1326263 117.72066,71.5225452 C117.106211,70.9132224 116.568022,70.2928266 116.054501,69.7425097 C115.540078,69.1789961 115.130946,68.5689149 114.745279,68.0748735 C114.360965,67.5764333 114.052011,67.1162179 113.785473,66.7492894 C113.273457,66.0049661 113,65.568262 113,65.568262 L117.119898,62 C117.119898,62 117.509326,62.266664 118.161079,62.7511492 C118.811478,63.2356343 119.680433,63.9570531 120.733045,64.8275792 C121.86613,65.6594253 123.116088,66.6834576 124.460808,67.788187 C125.152873,68.3325881 125.865545,68.8965567 126.5904,69.4675029 C127.305779,70.0580166 127.995437,70.6846316 128.749925,71.259825 C130.236638,72.4256837 131.655965,73.6752732 133.005499,74.8500814 C133.679363,75.431494 134.329762,76.0028952 134.924959,76.5758133 C135.530234,77.1328044 136.114149,77.6485369 136.625714,78.1618424 C137.673664,79.1637286 138.510429,80.0275805 139.088629,80.6551056 C139.668332,81.3005296 140,81.6692783 140,81.6692783 L137.805278,85 Z" id="Fill-71" fill="#141414"></path>
                    <path d="M60.2959437,62 C60.2959437,62 60.7059761,62.2748168 61.4293958,62.7535991 C62.1096463,63.2193461 63.1204621,63.9258644 64.2658641,64.8124245 C64.8570875,65.2376851 65.4677296,65.7316498 66.1236321,66.241257 C66.7896921,66.7385956 67.4288646,67.3323961 68.1537781,67.8792693 C68.868534,68.4335035 69.5801531,69.0412596 70.296851,69.6629712 C71.0160882,70.2808488 71.7471259,70.9085414 72.4790599,71.5363873 C73.2054671,72.1743548 73.9533842,72.7804239 74.6473771,73.4351074 C75.3703487,74.0532918 76.0839096,74.6616612 76.7725251,75.250401 C78.1246611,76.4642262 79.368949,77.631584 80.4713312,78.5908356 C82.6520464,80.5369432 84,82.0373937 84,82.0373937 L81.4594421,86 C81.463774,86 79.5870354,85.2168029 76.9302643,83.7382825 C76.2752581,83.3538151 75.5307766,82.9875972 74.8152738,82.4988466 C74.0900616,82.0185307 73.3239209,81.5109171 72.5346272,80.9873544 C71.7605696,80.4371074 70.9590272,79.8683042 70.1471779,79.2898394 C69.3480255,78.6925117 68.5824823,78.025713 67.7897529,77.3912727 C67.0091229,76.7421101 66.202203,76.1302134 65.4790821,75.4299827 C64.7475962,74.7469281 64.0303009,74.0698544 63.3645397,73.3818923 C62.694596,72.7031317 62.0434735,72.0433874 61.4804818,71.3603328 C60.9137557,70.6832591 60.3474778,70.0787236 59.8860606,69.4527179 C58.9436582,68.2180361 58.2003718,67.1687636 57.7113204,66.3455402 C57.2062859,65.5468539 57,65.0866279 57,65.0866279 L60.2959437,62 Z" id="Fill-73" fill="#141414"></path>
                    <path d="M58,81.7216072 C58,81.7216072 58.3301799,81.3533836 58.9086757,80.7074141 C59.484599,80.0794801 60.3179174,79.2155824 61.3603598,78.2120602 C61.8713669,77.6977495 62.4516785,77.1813346 63.05605,76.6226868 C63.6478619,76.0497608 64.2939976,75.4765343 64.971154,74.8936889 C66.3159334,73.716275 67.7262344,72.4632626 69.2132545,71.2921611 C69.9668273,70.7156281 70.6542734,70.0857402 71.3659306,69.4956806 C72.0907527,68.9215524 72.8034691,68.35554 73.4942442,67.8096673 C74.8343328,66.7015395 76.0812083,65.6730684 77.2121728,64.8363741 C78.2627865,63.9633083 79.129244,63.2414397 79.7826431,62.7549336 C80.4293841,62.2678263 80.819638,62 80.819638,62 L85,65.4930145 C85,65.4930145 84.7279269,65.9281196 84.2181304,66.6723822 C83.9583142,67.0374497 83.6511349,67.4963014 83.268901,67.99423 C82.8836406,68.4877999 82.4782548,69.0967967 81.9695175,69.6604044 C81.4576024,70.2100345 80.9234434,70.8310549 80.3093874,71.4409535 C79.700779,72.0514533 79.0849072,72.7358984 78.3930729,73.3710466 C77.0033515,74.6058733 75.5084627,75.9284725 73.9359469,77.1294827 C72.3632797,78.3168161 70.781836,79.5112133 69.1940369,80.4583747 C67.6411926,81.4594921 66.1410077,82.3172278 64.8118142,82.9860421 C63.5044107,83.6795049 62.3456033,84.1802891 61.530746,84.5168004 C60.7178557,84.8527105 60.2422575,85 60.2422575,85 L58,81.7216072 Z" id="Fill-75" fill="#141414"></path>
                </g>
            </g>
        </g>
    </g>
</svg>