<?xml version="1.0" encoding="UTF-8"?>
<svg width="20px" height="20px" viewBox="0 0 20 20" version="1.1" xmlns="http://www.w3.org/2000/svg" xmlns:xlink="http://www.w3.org/1999/xlink">
    <!-- Generator: Sketch 50.2 (55047) - http://www.bohemiancoding.com/sketch -->
    <title>Group 10</title>
    <desc>Created with Sketch.</desc>
    <defs>
        <linearGradient x1="0%" y1="0%" x2="101.999998%" y2="100.999999%" id="linearGradient-1">
            <stop stop-color="#FFCD2C" offset="0%"></stop>
            <stop stop-color="#FF0663" offset="100%"></stop>
        </linearGradient>
    </defs>
    <g id="Symbols" stroke="none" stroke-width="1" fill="none" fill-rule="evenodd">
        <g id="Bar/Top-Prediction" transform="translate(-96.000000, -97.000000)" fill-rule="nonzero">
            <g id="Group-14">
                <g id="Group-11-Copy" transform="translate(0.000000, 85.000000)">
                    <g id="Group-6" transform="translate(92.000000, 8.000000)">
                        <g id="Group">
                            <g id="Group-10">
                                <g id="Group-2" transform="translate(11.000000, 9.000000)" fill="#FFFFFF">
                                    <polygon id="Shape" transform="translate(2.990706, 3.310424) rotate(-361.000000) translate(-2.990706, -3.310424) " points="0.190706428 4.78410797 2.99070643 0.152529022 5.79070643 4.78410797 2.99070643 6.4683185"></polygon>
                                    <polygon id="Shape" transform="translate(4.390493, 3.284704) rotate(-361.000000) translate(-4.390493, -3.284704) " points="2.9904932 0.126809686 5.7904932 4.75838863 2.9904932 6.44259916"></polygon>
                                    <polygon id="Shape" transform="translate(3.058771, 7.941377) rotate(-361.000000) translate(-3.058771, -7.941377) " points="0.258770813 5.94137745 3.05877081 7.62558798 5.85877081 5.94137745 3.05877081 9.94137745"></polygon>
                                    <polygon id="Shape" transform="translate(4.458558, 7.915658) rotate(-361.000000) translate(-4.458558, -7.915658) " points="3.05855759 7.59986865 5.85855759 5.91565812 3.05855759 9.91565812"></polygon>
                                    <polygon id="Shape" transform="translate(3.018630, 4.994378) rotate(-361.000000) translate(-3.018630, -4.994378) " points="0.218630278 4.78385146 3.01863028 3.52069356 5.81863028 4.78385146 3.01863028 6.46806198"></polygon>
                                    <polygon id="Shape" transform="translate(4.650773, 5.204848) rotate(-361.000000) translate(-4.650773, -5.204848) " points="3.47897211 3.97137354 5.82257453 5.02863778 3.47897211 6.43832344"></polygon>
                                </g>
                                <path d="M14,4 C8.49869833,4 4,8.49869833 4,14 C4,19.5013025 8.49869833,24 14,24 C19.5013025,24 24,19.5013025 24,14 C24,8.49869833 19.5013025,4 14,4 Z M13.5,5 C13.9978452,5 14.5021556,5.08620726 15,5.16091954 L15,7 C14.5021556,6.92528772 13.9978452,6.83908046 13.5,6.83908046 C13.0021556,6.83908046 12.4978452,6.92528772 12,7 L12,5.16091954 C12.4978452,5.08620726 13.0021556,5 13.5,5 Z M14,8 C17.3415183,8 20,10.6584826 20,14 C20,17.3415183 17.3415183,20 14,20 C10.6584826,20 8,17.3415183 8,14 C8,10.6584826 10.6584826,8 14,8 Z M7.3359375,8 L9,9.10638298 C8.32617225,9.92198627 7.869141,10.9113473 7.5703125,12 L6,10.9219858 C6.2988285,9.83333311 6.73535175,8.81560329 7.3359375,8 Z M20.632,8 C21.2469998,8.81560329 21.6940004,9.83333311 22,10.9219858 L20.392,12 C20.0860004,10.9113473 19.6149998,9.92198627 19,9.10638298 L20.632,8 Z M7.608,16 C7.91400038,17.0886527 8.38500019,18.0780146 9,18.893617 L7.368,20 C6.75300019,19.1843976 6.30600038,18.1666669 6,17.0780142 L7.608,16 Z M20.392,16 L22,17.0780142 C21.7690002,18.1666669 21.3189998,19.1843976 20.704,20 L19,18.893617 C19.6149998,18.0780146 20.1610002,17.0886527 20.392,16 Z M12,21 C12.4978452,21.074713 13.0021556,21.1609195 13.5,21.1609195 C13.9978452,21.1609195 14.5021556,21.074713 15,21 L15,22.8390805 C14.5021556,22.9137935 13.9978452,23 13.5,23 C13.0021556,23 12.4978452,22.9137935 12,22.8390805 L12,21 Z" id="Shape" fill="url(#linearGradient-1)" transform="translate(14.000000, 14.000000) rotate(-57.000000) translate(-14.000000, -14.000000) "></path>
                            </g>
                        </g>
                    </g>
                </g>
            </g>
        </g>
    </g>
</svg>