<?xml version="1.0" encoding="UTF-8"?>
<svg width="20px" height="20px" viewBox="0 0 20 20" version="1.1" xmlns="http://www.w3.org/2000/svg" xmlns:xlink="http://www.w3.org/1999/xlink">
    <!-- Generator: Sketch 50.2 (55047) - http://www.bohemiancoding.com/sketch -->
    <title>Group 5</title>
    <desc>Created with Sketch.</desc>
    <defs></defs>
    <g id="Symbols" stroke="none" stroke-width="1" fill="none" fill-rule="evenodd">
        <g id="Category" transform="translate(-18.000000, -10.000000)" fill="#0064FF" fill-rule="nonzero">
            <g id="Group-5" transform="translate(14.000000, 6.000000)">
                <g id="Group-2" transform="translate(11.000000, 9.000000)">
                    <polygon id="Shape" transform="translate(2.990706, 3.310424) rotate(-361.000000) translate(-2.990706, -3.310424) " points="0.190706428 4.78410797 2.99070643 0.152529022 5.79070643 4.78410797 2.99070643 6.4683185"></polygon>
                    <polygon id="Shape" transform="translate(4.390493, 3.284704) rotate(-361.000000) translate(-4.390493, -3.284704) " points="2.9904932 0.126809686 5.7904932 4.75838863 2.9904932 6.44259916"></polygon>
                    <polygon id="Shape" transform="translate(3.058771, 7.941377) rotate(-361.000000) translate(-3.058771, -7.941377) " points="0.258770813 5.94137745 3.05877081 7.62558798 5.85877081 5.94137745 3.05877081 9.94137745"></polygon>
                    <polygon id="Shape" transform="translate(4.458558, 7.915658) rotate(-361.000000) translate(-4.458558, -7.915658) " points="3.05855759 7.59986865 5.85855759 5.91565812 3.05855759 9.91565812"></polygon>
                    <polygon id="Shape" transform="translate(3.018630, 4.994378) rotate(-361.000000) translate(-3.018630, -4.994378) " points="0.218630278 4.78385146 3.01863028 3.52069356 5.81863028 4.78385146 3.01863028 6.46806198"></polygon>
                    <polygon id="Shape" transform="translate(4.418417, 4.968658) rotate(-361.000000) translate(-4.418417, -4.968658) " points="3.01841705 3.49497423 5.81841705 4.75813212 3.01841705 6.44234265"></polygon>
                </g>
                <path d="M14,4 C8.49869833,4 4,8.49869833 4,14 C4,19.5013025 8.49869833,24 14,24 C19.5013025,24 24,19.5013025 24,14 C24,8.49869833 19.5013025,4 14,4 Z M14,4.98958333 C14.5013025,4.98958333 15.009115,5.08724 15.5104167,5.171875 L15.5104167,7.25520833 C15.009115,7.17057333 14.5013025,7.07291667 14,7.07291667 C13.4986983,7.07291667 12.9908858,7.17057333 12.4895833,7.25520833 L12.4895833,5.171875 C12.9908858,5.08724 13.4986983,4.98958333 14,4.98958333 Z M14,8.16666667 C17.2486983,8.16666667 19.8333333,10.7513025 19.8333333,14 C19.8333333,17.2486983 17.2486983,19.8333333 14,19.8333333 C10.7513025,19.8333333 8.16666667,17.2486983 8.16666667,14 C8.16666667,10.7513025 10.7513025,8.16666667 14,8.16666667 Z M7.07291667,8.24479167 L8.921875,9.26041667 C8.1731775,10.009115 7.665365,10.9173175 7.33333333,11.9166667 L5.58854167,10.9270833 C5.92057333,9.92773417 6.40559917,8.99349 7.07291667,8.24479167 Z M20.9270833,8.24479167 C21.5944008,8.99349 22.0794275,9.92773417 22.4114583,10.9270833 L20.6666667,11.9166667 C20.3346358,10.9173175 19.8235675,10.009115 19.15625,9.26041667 L20.9270833,8.24479167 Z M7.33333333,16.0833333 C7.665365,17.0826825 8.1764325,17.9908858 8.84375,18.7395833 L7.07291667,19.7552083 C6.40559917,19.0065108 5.92057333,18.0722658 5.58854167,17.0729167 L7.33333333,16.0833333 Z M20.5885417,16.0833333 L22.3333333,17.0729167 C22.0826825,18.0722658 21.5944008,19.0065108 20.9270833,19.7552083 L19.078125,18.7395833 C19.7454425,17.9908858 20.3378908,17.0826825 20.5885417,16.0833333 Z M12.4895833,20.7447917 C12.9908858,20.8294275 13.4986983,20.9270833 14,20.9270833 C14.5013025,20.9270833 15.009115,20.8294275 15.5104167,20.7447917 L15.5104167,22.828125 C15.009115,22.9127608 14.5013025,23.0104167 14,23.0104167 C13.4986983,23.0104167 12.9908858,22.9127608 12.4895833,22.828125 L12.4895833,20.7447917 Z" id="Shape" transform="translate(14.000000, 14.000000) rotate(-57.000000) translate(-14.000000, -14.000000) "></path>
            </g>
        </g>
    </g>
</svg>