<?xml version="1.0" encoding="UTF-8"?>
<svg width="21px" height="21px" viewBox="0 0 21 21" version="1.1" xmlns="http://www.w3.org/2000/svg" xmlns:xlink="http://www.w3.org/1999/xlink">
    <!-- Generator: Sketch 50.2 (55047) - http://www.bohemiancoding.com/sketch -->
    <title>icons8-chip</title>
    <desc>Created with Sketch.</desc>
    <defs></defs>
    <g id="Symbols" stroke="none" stroke-width="1" fill="none" fill-rule="evenodd">
        <g id="Category" transform="translate(-14.000000, -9.000000)" fill="#0064FF" fill-rule="nonzero">
            <g id="icons8-chip">
                <g transform="translate(24.833096, 19.833096) rotate(-57.000000) translate(-24.833096, -19.833096) translate(14.833096, 9.833096)">
                    <path d="M10,0 C4.49869833,0 0,4.49869833 0,10 C0,15.5013025 4.49869833,20 10,20 C15.5013025,20 20,15.5013025 20,10 C20,4.49869833 15.5013025,0 10,0 Z M10,0.989583333 C10.5013025,0.989583333 11.009115,1.08724 11.5104167,1.171875 L11.5104167,3.25520833 C11.009115,3.17057333 10.5013025,3.07291667 10,3.07291667 C9.49869833,3.07291667 8.99088583,3.17057333 8.48958333,3.25520833 L8.48958333,1.171875 C8.99088583,1.08724 9.49869833,0.989583333 10,0.989583333 Z M10,4.16666667 C13.2486983,4.16666667 15.8333333,6.7513025 15.8333333,10 C15.8333333,13.2486983 13.2486983,15.8333333 10,15.8333333 C6.7513025,15.8333333 4.16666667,13.2486983 4.16666667,10 C4.16666667,6.7513025 6.7513025,4.16666667 10,4.16666667 Z M3.07291667,4.24479167 L4.921875,5.26041667 C4.1731775,6.009115 3.665365,6.9173175 3.33333333,7.91666667 L1.58854167,6.92708333 C1.92057333,5.92773417 2.40559917,4.99349 3.07291667,4.24479167 Z M16.9270833,4.24479167 C17.5944008,4.99349 18.0794275,5.92773417 18.4114583,6.92708333 L16.6666667,7.91666667 C16.3346358,6.9173175 15.8235675,6.009115 15.15625,5.26041667 L16.9270833,4.24479167 Z M11.171875,7.16145833 C10.8365883,7.12565083 10.46875,7.23307333 10.15625,7.421875 C9.73958333,7.67252583 9.4075525,7.98828167 9.32291667,8.48958333 C9.23828167,8.99088583 9.2610675,9.59309917 9.42708333,10.2604167 C9.51171917,10.5924483 9.51171917,10.9277342 9.42708333,11.09375 C9.34244833,11.3444008 9.2610675,11.5039067 9.01041667,11.5885417 C8.75976583,11.7545575 8.58724,11.7382817 8.25520833,11.8229167 C8.0891925,11.7382817 7.9264325,11.5787758 7.76041667,11.328125 C7.59440083,11.0774742 7.49349,10.8235675 7.578125,10.5729167 C7.66276083,10.3222658 7.8450525,10.0878908 8.17708333,9.921875 L7.5,8.828125 C6.9173175,9.07877583 6.5950525,9.49869833 6.51041667,10 C6.42578167,10.5013025 6.49414083,11.009115 6.74479167,11.5104167 L5.98958333,11.9270833 L6.328125,12.5 L7.23958333,11.9270833 C7.571615,12.4283858 7.99479167,12.6725258 8.41145833,12.8385417 C8.828125,13.0045575 9.32291667,12.9069008 9.73958333,12.65625 C10.15625,12.4055992 10.4882817,12.0052083 10.5729167,11.5885417 C10.6575525,11.171875 10.6608075,10.5891925 10.4947917,9.921875 C10.4101567,9.50520833 10.4101567,9.1764325 10.4947917,9.01041667 C10.5794275,8.84440083 10.7454425,8.67838583 10.9114583,8.59375 C11.0774742,8.42773417 11.3444008,8.41145833 11.5104167,8.41145833 C11.6764325,8.41145833 11.8391925,8.57747417 12.0052083,8.828125 C12.1712242,9.07877583 12.1679692,9.2545575 12.0833333,9.50520833 C11.9986983,9.75585917 11.7610675,9.91210917 11.5104167,10.078125 L12.1614583,11.171875 C12.578125,10.9212242 12.9069008,10.4947917 13.0729167,10.078125 C13.2389325,9.66145833 13.1608075,9.1731775 12.9947917,8.671875 L13.828125,8.17708333 L13.4895833,7.578125 L12.65625,8.07291667 C12.3242192,7.65625 11.9270833,7.32421917 11.5104167,7.23958333 C11.40625,7.19726583 11.2825525,7.17447917 11.171875,7.16145833 Z M3.33333333,12.0833333 C3.665365,13.0826825 4.1764325,13.9908858 4.84375,14.7395833 L3.07291667,15.7552083 C2.40559917,15.0065108 1.92057333,14.0722658 1.58854167,13.0729167 L3.33333333,12.0833333 Z M16.5885417,12.0833333 L18.3333333,13.0729167 C18.0826825,14.0722658 17.5944008,15.0065108 16.9270833,15.7552083 L15.078125,14.7395833 C15.7454425,13.9908858 16.3378908,13.0826825 16.5885417,12.0833333 Z M8.48958333,16.7447917 C8.99088583,16.8294275 9.49869833,16.9270833 10,16.9270833 C10.5013025,16.9270833 11.009115,16.8294275 11.5104167,16.7447917 L11.5104167,18.828125 C11.009115,18.9127608 10.5013025,19.0104167 10,19.0104167 C9.49869833,19.0104167 8.99088583,18.9127608 8.48958333,18.828125 L8.48958333,16.7447917 Z" id="Shape"></path>
                </g>
            </g>
        </g>
    </g>
</svg>