<?xml version="1.0" encoding="UTF-8"?>
<svg width="20px" height="19px" viewBox="0 0 20 19" version="1.1" xmlns="http://www.w3.org/2000/svg" xmlns:xlink="http://www.w3.org/1999/xlink">
    <!-- Generator: Sketch 50.2 (55047) - http://www.bohemiancoding.com/sketch -->
    <title>icons8-banknotes</title>
    <desc>Created with Sketch.</desc>
    <defs></defs>
    <g id="Symbols" stroke="none" stroke-width="1" fill="none" fill-rule="evenodd">
        <g id="Category" transform="translate(-134.000000, -9.000000)" fill-rule="nonzero">
            <g id="Group" transform="translate(134.000000, 8.000000)">
                <g id="icons8-banknotes" transform="translate(0.000000, 1.000000)">
                    <polygon id="Shape" fill="#81C784" points="0.00780487805 7.18097561 4.00341463 16.0814634 19.9878049 8.90585366 15.9921951 0.00536585366"></polygon>
                    <path d="M0.00780487805,7.18097561 L4.00341463,16.0814634 L19.9878049,8.90585366 L15.9921951,0.00536585366 L0.00780487805,7.18097561 Z M4.49170732,14.7926829 L1.29512195,7.67219512 L15.5034146,1.29414634 L18.7,8.41463415 L4.49170732,14.7926829 Z" id="Shape" fill="#1B5E20"></path>
                    <ellipse id="Oval" fill="#1B5E20" transform="translate(14.882511, 5.853328) rotate(-24.178894) translate(-14.882511, -5.853328) " cx="14.8825114" cy="5.85332839" rx="1" ry="1"></ellipse>
                    <ellipse id="Oval" fill="#1B5E20" transform="translate(9.997236, 8.043908) rotate(-24.173667) translate(-9.997236, -8.043908) " cx="9.9972361" cy="8.04390839" rx="2.91997305" ry="2.92680225"></ellipse>
                    <ellipse id="Oval" fill="#1B5E20" transform="translate(1.616675, 7.795347) rotate(-24.173667) translate(-1.616675, -7.795347) " cx="1.61667537" cy="7.79534707" rx="1.21657414" ry="1.21950094"></ellipse>
                    <ellipse id="Oval" fill="#1B5E20" transform="translate(15.381476, 1.617175) rotate(-24.173667) translate(-15.381476, -1.617175) " cx="15.3814764" cy="1.61717473" rx="1.21657414" ry="1.21950094"></ellipse>
                    <ellipse id="Oval" fill="#1B5E20" transform="translate(18.377695, 8.291927) rotate(-24.173667) translate(-18.377695, -8.291927) " cx="18.3776946" cy="8.29192712" rx="1.21657414" ry="1.21950094"></ellipse>
                    <rect id="Rectangle-path" fill="#A5D6A7" x="2.43902439" y="8.7804878" width="17.5609756" height="9.75609756"></rect>
                    <path d="M2.43902439,8.7804878 L2.43902439,18.5365854 L20,18.5365854 L20,8.7804878 L2.43902439,8.7804878 Z M3.41463415,17.5609756 L3.41463415,9.75609756 L19.0243902,9.75609756 L19.0243902,17.5609756 L3.41463415,17.5609756 Z" id="Shape" fill="#388E3C"></path>
                    <circle id="Oval" fill="#388E3C" cx="5.85365854" cy="13.6585366" r="1"></circle>
                    <circle id="Oval" fill="#388E3C" cx="16.5853659" cy="13.6585366" r="1"></circle>
                    <circle id="Oval" fill="#388E3C" cx="11.2195122" cy="13.6585366" r="2.92682927"></circle>
                    <path d="M19.5121951,16.3468293 C19.3078049,16.1921951 19.0560976,16.097561 18.7804878,16.097561 C18.1068293,16.097561 17.5609756,16.6434146 17.5609756,17.3170732 C17.5609756,17.5931707 17.6560976,17.844878 17.8107317,18.0492683 L19.5121951,18.0492683 L19.5121951,16.3468293 Z" id="Shape" fill="#388E3C"></path>
                    <path d="M3.65853659,16.0970732 C3.38292683,16.0970732 3.13121951,16.1921951 2.92682927,16.3463415 L2.92682927,18.0487805 L4.62829268,18.0487805 C4.78292683,17.8443902 4.87804878,17.5926829 4.87804878,17.3165854 C4.87804878,16.6429268 4.33219512,16.0970732 3.65853659,16.0970732 Z" id="Shape" fill="#388E3C"></path>
                    <path d="M2.92682927,10.9702439 C3.13121951,11.1243902 3.38292683,11.2195122 3.65853659,11.2195122 C4.33219512,11.2195122 4.87804878,10.6736585 4.87804878,10 C4.87804878,9.72439024 4.78292683,9.47268293 4.62878049,9.26829268 L2.92682927,9.26829268 L2.92682927,10.9702439 Z" id="Shape" fill="#388E3C"></path>
                    <path d="M18.7804878,11.2195122 C19.0560976,11.2195122 19.3078049,11.1243902 19.5121951,10.9702439 L19.5121951,9.26829268 L17.8102439,9.26829268 C17.6560976,9.47268293 17.5609756,9.72439024 17.5609756,10 C17.5609756,10.6736585 18.1068293,11.2195122 18.7804878,11.2195122 Z" id="Shape" fill="#388E3C"></path>
                </g>
            </g>
        </g>
    </g>
</svg>