<?xml version="1.0" encoding="UTF-8"?>
<svg width="19px" height="19px" viewBox="0 0 19 19" version="1.1" xmlns="http://www.w3.org/2000/svg" xmlns:xlink="http://www.w3.org/1999/xlink">
    <!-- Generator: Sketch 50.2 (55047) - http://www.bohemiancoding.com/sketch -->
    <title>Shape</title>
    <desc>Created with Sketch.</desc>
    <defs></defs>
    <g id="Symbols" stroke="none" stroke-width="1" fill="none" fill-rule="evenodd">
        <g id="Category" transform="translate(-254.000000, -9.000000)" fill="#FF9B00" fill-rule="nonzero">
            <g id="Group-7">
                <g transform="translate(254.000000, 9.000000)">
                    <g id="icons8-currency_exchange">
                        <path d="M9.5,0 C4.23903227,0 0,4.23903227 0,9.5 C0,11.7065803 0.767878423,13.7475962 2.00961538,15.3461538 L0,15.3461538 L0,16.8076923 L4.38461538,16.8076923 L4.38461538,12.4230769 L2.92307692,12.4230769 L2.92307692,14.0901442 C1.98963323,12.7798977 1.46153846,11.2127404 1.46153846,9.5 C1.46153846,5.04116623 5.04116623,1.46153846 9.5,1.46153846 C10.8159553,1.46153846 12.0576923,1.74414081 13.1538462,2.32932692 L13.1538462,0.730769231 C12.0576923,0.291166231 10.8159553,0 9.5,0 Z M14.6153846,2.19230769 L14.6153846,6.57692308 L16.0769231,6.57692308 L16.0769231,4.90985577 C17.0103668,6.22010235 17.5384615,7.78725962 17.5384615,9.5 C17.5384615,13.9588345 13.9588345,17.5384615 9.5,17.5384615 C8.18404465,17.5384615 6.94230769,17.2558592 5.84615385,16.6706731 L5.84615385,18.2692308 C6.94230769,18.7088345 8.18404465,19 9.5,19 C14.7609677,19 19,14.7609677 19,9.5 C19,7.29341965 18.2321216,5.25240385 16.9903846,3.65384615 L19,3.65384615 L19,2.19230769 L14.6153846,2.19230769 Z M8.76923077,3.65384615 L8.76923077,5.13822115 C7.53891208,5.32091346 6.57692308,6.39423077 6.57692308,7.67307692 C6.57692308,9.07752404 7.73016827,10.2307692 9.13461538,10.2307692 L9.86538462,10.2307692 C10.5048077,10.2307692 10.9615385,10.6875 10.9615385,11.3269231 C10.9615385,11.9663462 10.5048077,12.4230769 9.86538462,12.4230769 L7.30769231,12.4230769 L7.30769231,13.8846154 L8.76923077,13.8846154 L8.76923077,15.3461538 L10.2307692,15.3461538 L10.2307692,13.8617788 C11.4610879,13.6790865 12.4230769,12.6057692 12.4230769,11.3269231 C12.4230769,9.92247596 11.2698317,8.76923077 9.86538462,8.76923077 L9.13461538,8.76923077 C8.49519231,8.76923077 8.03846154,8.3125 8.03846154,7.67307692 C8.03846154,7.03365385 8.49519231,6.57692308 9.13461538,6.57692308 L11.6923077,6.57692308 L11.6923077,5.11538462 L10.2307692,5.11538462 L10.2307692,3.65384615 L8.76923077,3.65384615 Z" id="Shape"></path>
                    </g>
                </g>
            </g>
        </g>
    </g>
</svg>