<?xml version="1.0" encoding="UTF-8"?>
<svg width="17px" height="14px" viewBox="0 0 17 14" version="1.1" xmlns="http://www.w3.org/2000/svg" xmlns:xlink="http://www.w3.org/1999/xlink">
    <!-- Generator: Sketch 50.2 (55047) - http://www.bohemiancoding.com/sketch -->
    <title>Group 2</title>
    <desc>Created with Sketch.</desc>
    <defs>
        <linearGradient x1="0%" y1="0%" x2="101.999998%" y2="100.999999%" id="linearGradient-1">
            <stop stop-color="#FFCD2C" offset="0%"></stop>
            <stop stop-color="#FF0663" offset="100%"></stop>
        </linearGradient>
    </defs>
    <g id="New-UI/UX" stroke="none" stroke-width="1" fill="none" fill-rule="evenodd">
        <g id="Me-for-swap" transform="translate(-278.000000, -108.000000)" fill="url(#linearGradient-1)" fill-rule="nonzero">
            <g id="Group-2" transform="translate(278.000000, 108.000000)">
                <g id="icons8-swap_filled" transform="translate(0.260633, 0.262205)">
                    <path d="M2.53612298,5.84510968e-05 C2.31388933,0.0030169371 2.10439511,0.113953157 1.96992238,0.300325658 L0.223193697,2.1255949 C0.0335163138,2.31492588 -0.0429205865,2.59744293 0.0236077126,2.86368963 C0.0901363741,3.12845728 0.288306585,3.33553805 0.541681446,3.40505811 C0.796471717,3.47457818 1.0668326,3.39470398 1.24801679,3.19649829 L1.82271022,2.59596388 L1.82271022,9.09829997 C1.82271022,11.1779827 3.45619914,12.8849197 5.44639408,12.8849197 C7.43658938,12.8849197 9.07007794,11.1779827 9.07007794,9.09829997 L9.07007794,4.55435628 C9.07007794,3.30151754 10.0453584,2.28238443 11.2442883,2.28238443 C12.4432181,2.28238443 13.4184986,3.30151754 13.4184986,4.55435628 L13.4184986,11.0655674 L12.8480514,10.4591164 C12.7121632,10.3126807 12.525317,10.2283693 12.329978,10.2268902 C12.0341383,10.2239318 11.768024,10.4088256 11.6547839,10.6943011 C11.5415438,10.9782976 11.6052412,11.3066683 11.8147355,11.5241032 L13.6265774,13.445517 C13.7624655,13.5904734 13.9493117,13.6718266 14.1432353,13.6718266 C14.337159,13.6718266 14.5240052,13.5904734 14.6598933,13.445517 L16.4717352,11.5241032 C16.7534201,11.2253155 16.7491735,10.7460714 16.4646578,10.4517208 C16.1787267,10.1573702 15.7201042,10.1618077 15.4384193,10.4591164 L14.8679721,11.0655674 L14.8679721,4.55435628 C14.8679721,2.4746739 13.2344836,0.767736533 11.2442883,0.767736533 C11.1551116,0.769215586 11.0659352,0.788444799 10.9824206,0.823944359 C9.11962058,0.971859193 7.6206044,2.5722975 7.6206044,4.55435628 L7.6206044,9.09829997 C7.6206044,10.3511387 6.64532395,11.3702718 5.44639408,11.3702718 C4.24746421,11.3702718 3.27218376,10.3511387 3.27218376,9.09829997 L3.27218376,2.59596388 L3.84687756,3.19649829 C4.02806175,3.39470398 4.29842227,3.47457818 4.55321254,3.40505811 C4.8065874,3.33553805 5.00475761,3.12845728 5.07128627,2.86368963 C5.13781493,2.59744293 5.06137767,2.31492588 4.87170065,2.1255949 L3.12214079,0.297367551 C2.98342146,0.106557131 2.76543441,-0.00289965625 2.53612298,5.84510968e-05 Z" id="Shape"></path>
                </g>
            </g>
        </g>
    </g>
</svg>