<?xml version="1.0" encoding="UTF-8"?>
<svg width="22px" height="21px" viewBox="0 0 22 21" version="1.1" xmlns="http://www.w3.org/2000/svg" xmlns:xlink="http://www.w3.org/1999/xlink">
    <!-- Generator: Sketch 50.2 (55047) - http://www.bohemiancoding.com/sketch -->
    <title>icons8-hand_planting</title>
    <desc>Created with Sketch.</desc>
    <defs></defs>
    <g id="Symbols" stroke="none" stroke-width="1" fill="none" fill-rule="evenodd">
        <g id="Category" transform="translate(-149.000000, -7.000000)" fill="#4CD964" fill-rule="nonzero">
            <g id="Group">
                <g transform="translate(149.000000, 7.000000)">
                    <g id="icons8-hand_planting">
                        <path d="M8.40277778,0.0509259259 L8.14814815,0.381944444 C8.14814815,0.381944444 6.51851852,2.69907407 6.51851852,6.08564815 C6.51851852,7.94762711 7.08188637,9.14438637 7.84259259,9.8287037 C8.60329881,10.513021 9.45949074,10.6435185 9.90509259,10.6435185 C10.8790513,10.6435185 11.5570025,10.1406254 12.1203704,9.90509259 L11.5092593,8.40277778 C10.7771995,8.70833333 10.194734,9.01388889 9.90509259,9.01388889 C9.73640067,9.01388889 9.3035303,8.9597803 8.9375,8.63194444 C8.5714697,8.30410859 8.14814815,7.63888889 8.14814815,6.08564815 C8.14814815,3.6953123 8.95659763,2.25983837 9.26851852,1.75694444 C10.2743056,2.11979207 11.4487845,2.32986111 12.5277778,2.80092593 C13.1643519,3.07783585 13.6863426,3.44704881 14.0555556,3.89583333 C14.4247685,4.34461785 14.6666667,4.88570622 14.6666667,5.72916667 C14.6666667,6.53443267 14.3579284,6.92592593 14.0555556,7.20601852 C14.0046296,7.25376178 13.975984,7.26967593 13.9282407,7.30787037 C13.4858216,6.295718 12.7728586,5.30902778 11.662037,4.43055556 L10.6689815,5.72916667 C13.1643519,7.7025463 13.037037,10.0387736 13.037037,12.2731481 L14.6666667,12.2731481 C14.6666667,11.3119217 14.6603013,10.1406254 14.412037,8.9375 C14.6316549,8.82291667 14.9053821,8.65104207 15.1759259,8.40277778 C15.7392938,7.88715319 16.2962963,6.98958333 16.2962963,5.72916667 C16.2962963,4.55787037 15.9239007,3.57436363 15.3287037,2.85185185 C14.7335067,2.12934007 13.9441549,1.66464141 13.1643519,1.32407407 C11.6015623,0.642940222 9.8828123,0.366030296 9.39583333,0.127314815 L9.21759259,0.0509259259 L8.40277778,0.0509259259 Z M6.11111111,12.2731481 C5.274016,12.2763308 4.63425926,12.4768519 4.63425926,12.4768519 L4.6087963,12.5023148 L0.738425926,13.9791667 L0,14.2592593 L0.280092593,14.9976852 L1.34953704,18.0023148 L1.62962963,18.7916667 L2.39351852,18.5115741 L5.65277778,17.2638889 L11.1018519,20.2685185 L11.4583333,20.4467593 L11.8148148,20.3194444 L21.4907407,16.2962963 L20.8796296,14.7939815 L11.5347222,18.6388889 L6.08564815,15.6597222 L5.75462963,15.4560185 L5.42361111,15.6087963 L2.59722222,16.6782407 L2.08796296,15.2268519 L5.16898148,14.0300926 C5.16898148,14.0300926 5.56365741,13.9027778 6.13657407,13.9027778 C6.70949074,13.9027778 7.37152778,14.0237273 7.94444444,14.5393519 C8.78472222,15.268229 9.43084511,15.7902197 10.3125,16.0671296 C11.1941549,16.3440396 12.1808451,16.3790513 13.8518519,16.3726852 L13.8518519,14.7430556 C12.2126734,14.7494217 11.3564815,14.688947 10.7962963,14.5138889 C10.2424773,14.3388308 9.84143519,14.0109958 9.03935185,13.3171296 C9.03298652,13.3107643 9.02025504,13.3234958 9.01388889,13.3171296 C8.07175926,12.4768519 6.94184007,12.2699655 6.11111111,12.2731481 Z" id="Shape"></path>
                    </g>
                </g>
            </g>
        </g>
    </g>
</svg>