<?xml version="1.0" encoding="UTF-8"?>
<svg width="16px" height="16px" viewBox="0 0 16 16" version="1.1" xmlns="http://www.w3.org/2000/svg" xmlns:xlink="http://www.w3.org/1999/xlink">
    <!-- Generator: Sketch 50.2 (55047) - http://www.bohemiancoding.com/sketch -->
    <title>icons8-shopping_cart</title>
    <desc>Created with Sketch.</desc>
    <defs></defs>
    <g id="Symbols" stroke="none" stroke-width="1" fill="none" fill-rule="evenodd">
        <g id="Category" transform="translate(-387.000000, -10.000000)" fill="#BD10E0" fill-rule="nonzero">
            <g id="Group-8">
                <g transform="translate(364.000000, 0.000000)">
                    <g id="Group-7-Copy" transform="translate(23.000000, 8.000000)">
                        <g id="icons8-shopping_cart" transform="translate(0.000000, 2.000000)">
                            <path d="M1.01851852,0 C0.692129778,0.0462962963 0.462962963,0.349537185 0.509259259,0.675925926 C0.555555556,1.00231467 0.858796444,1.23148148 1.18518519,1.18518519 L3.24074074,1.18518519 C3.58101867,1.18518519 3.68981511,1.25231467 3.77777778,1.33333333 C3.86574104,1.414352 3.97685215,1.57407407 4.07407407,1.90740741 C4.27314844,2.58101867 6.85185185,11.3518519 6.85185185,11.3518519 C6.85648178,11.3703704 6.86342578,11.3888889 6.87037037,11.4074074 C6.87037037,11.4074074 7.52777778,13.037037 9.18518519,13.037037 L13.8333333,13.037037 C14.0462963,13.0393517 14.2453707,12.9282406 14.3541665,12.7430554 C14.4606483,12.5578702 14.4606483,12.3310187 14.3541665,12.1458335 C14.2453707,11.9606483 14.0462963,11.8495372 13.8333333,11.8518519 L9.18518519,11.8518519 C8.31018548,11.8518519 7.96296296,10.962963 7.96296296,10.962963 C7.96296296,10.9606483 7.87731496,10.6874999 7.87037037,10.6666667 L12.6851852,10.6666667 C13.2962963,10.6666667 13.5717594,10.1550927 13.6296296,9.96296296 L15.7592593,5.38888889 C16.0879633,4.59722252 15.9166667,3.55555556 14.7037037,3.55555556 L6.11111111,3.55555556 C6.01157393,3.55555556 5.90277807,3.58101867 5.7962963,3.61111111 C5.58333333,2.88657422 5.24768533,1.71990756 5.2037037,1.57407407 C5.078704,1.15046281 4.914352,0.752314667 4.57407407,0.444444444 C4.23379615,0.136574222 3.76388919,0 3.24074074,0 L1.18518519,0 C1.16666667,0 1.14814815,0 1.12962963,0 C1.11111111,0 1.09259259,0 1.07407407,0 C1.05555556,0 1.03703704,0 1.01851852,0 Z M6.2962963,4.77777778 L8.7962963,4.77777778 L8.7962963,5.83333333 L6.62962963,5.83333333 L6.35185185,4.94444444 C6.33333333,4.87962963 6.30324089,4.82175941 6.2962963,4.77777778 Z M9.57407407,4.77777778 L11.1666667,4.77777778 L11.1666667,5.83333333 L9.57407407,5.83333333 L9.57407407,4.77777778 Z M11.9444444,4.77777778 L14.6851852,4.77777778 C14.6782406,4.81944474 14.6666667,4.85648178 14.6481481,4.90740741 L14.2222222,5.83333333 L11.9444444,5.83333333 L11.9444444,4.77777778 Z M6.87037037,6.61111111 L8.7962963,6.61111111 L8.7962963,7.61111111 L7.18518519,7.61111111 L6.87037037,6.61111111 Z M9.57407407,6.61111111 L11.1666667,6.61111111 L11.1666667,7.61111111 L9.57407407,7.61111111 L9.57407407,6.61111111 Z M11.9444444,6.61111111 L13.8518519,6.61111111 L13.3888889,7.61111111 L11.9444444,7.61111111 L11.9444444,6.61111111 Z M7.42592593,8.38888889 L8.7962963,8.38888889 L8.7962963,9.44444444 L7.81481481,9.44444444 C7.79166696,9.44444444 7.77777778,9.43749985 7.75925926,9.42592593 L7.42592593,8.38888889 Z M9.57407407,8.38888889 L11.1666667,8.38888889 L11.1666667,9.44444444 L9.57407407,9.44444444 L9.57407407,8.38888889 Z M11.9444444,8.38888889 L13.037037,8.38888889 L12.537037,9.44444444 L11.9444444,9.44444444 L11.9444444,8.38888889 Z M8.88888889,13.1481481 C8.2962963,13.1481481 7.81481481,13.6296296 7.81481481,14.2222222 C7.81481481,14.8148148 8.2962963,15.2962963 8.88888889,15.2962963 C9.48148148,15.2962963 9.96296296,14.8148148 9.96296296,14.2222222 C9.96296296,13.6296296 9.48148148,13.1481481 8.88888889,13.1481481 Z M12.4444444,13.1481481 C11.8518519,13.1481481 11.3703704,13.6296296 11.3703704,14.2222222 C11.3703704,14.8148148 11.8518519,15.2962963 12.4444444,15.2962963 C13.037037,15.2962963 13.5185185,14.8148148 13.5185185,14.2222222 C13.5185185,13.6296296 13.037037,13.1481481 12.4444444,13.1481481 Z" id="Shape"></path>
                        </g>
                    </g>
                </g>
            </g>
        </g>
    </g>
</svg>