<?xml version="1.0" encoding="UTF-8"?>
<svg width="20px" height="20px" viewBox="0 0 20 20" version="1.1" xmlns="http://www.w3.org/2000/svg" xmlns:xlink="http://www.w3.org/1999/xlink">
    <!-- Generator: Sketch 50.2 (55047) - http://www.bohemiancoding.com/sketch -->
    <title>icons8-location_off</title>
    <desc>Created with Sketch.</desc>
    <defs></defs>
    <g id="MOBILE-WEB-ATM" stroke="none" stroke-width="1" fill="none" fill-rule="evenodd">
        <g id="Mobile-grid-Copy-9" transform="translate(-20.000000, -97.000000)" fill="#000000" fill-rule="nonzero">
            <g id="icons8-location_off" transform="translate(20.000000, 97.000000)">
                <path d="M9.23076923,0 L9.23076923,1.58653846 C5.17728385,1.95312538 1.95312538,5.18028846 1.58653846,9.23076923 L0,9.23076923 L0,10.7692308 L1.58653846,10.7692308 C1.95312538,14.8197115 5.17728385,18.0468754 9.23076923,18.4134615 L9.23076923,20 L10.7692308,20 L10.7692308,18.4134615 C14.8227162,18.0468754 18.0468754,14.8197115 18.4134615,10.7692308 L20,10.7692308 L20,9.23076923 L18.4134615,9.23076923 C18.0468754,5.18028846 14.8227162,1.95312538 10.7692308,1.58653846 L10.7692308,0 L9.23076923,0 Z M9.23076923,3.10096154 L9.23076923,4.61538462 L10.7692308,4.61538462 L10.7692308,3.10096154 C13.9933892,3.44951923 16.5234377,6.00661077 16.875,9.23076923 L15.3846154,9.23076923 L15.3846154,10.7692308 L16.875,10.7692308 C16.5234377,13.9933892 13.9933892,16.5504808 10.7692308,16.8990385 L10.7692308,15.3846154 L9.23076923,15.3846154 L9.23076923,16.8990385 C6.00661077,16.5504808 3.47656231,13.9933892 3.125,10.7692308 L4.61538462,10.7692308 L4.61538462,9.23076923 L3.125,9.23076923 C3.47656231,6.00661077 6.00661077,3.44951923 9.23076923,3.10096154 Z M8.24519231,7.13942308 L7.13942308,8.24519231 L8.89423077,10 L7.13942308,11.7548077 L8.24519231,12.8605769 L10,11.1057692 L11.7548077,12.8605769 L12.8605769,11.7548077 L11.1057692,10 L12.8605769,8.24519231 L11.7548077,7.13942308 L10,8.89423077 L8.24519231,7.13942308 Z" id="Shape"></path>
            </g>
        </g>
    </g>
</svg>