<?xml version="1.0" encoding="UTF-8"?>
<svg width="112px" height="112px" viewBox="0 0 112 112" version="1.1" xmlns="http://www.w3.org/2000/svg" xmlns:xlink="http://www.w3.org/1999/xlink">
    <!-- Generator: Sketch 50.2 (55047) - http://www.bohemiancoding.com/sketch -->
    <title>top_AntonZ</title>
    <desc>Created with Sketch.</desc>
    <defs>
        <circle id="path-1" cx="56" cy="56" r="56"></circle>
    </defs>
    <g id="Page-1" stroke="none" stroke-width="1" fill="none" fill-rule="evenodd">
        <g id="DAD-Copy" transform="translate(-287.000000, -231.000000)">
            <g id="top_AntonZ" transform="translate(287.000000, 231.000000)">
                <mask id="mask-2" fill="white">
                    <use xlink:href="#path-1"></use>
                </mask>
                <use id="Mask" fill="#FFF9D3" xlink:href="#path-1"></use>
                <g mask="url(#mask-2)" fill-rule="nonzero">
                    <g transform="translate(14.000000, 19.000000)">
                        <path d="M51.4601543,44.3285494 L32.8955247,55.263642 C31.5942901,54.498642 30.8340123,53.0725309 30.8864815,51.5740123 C30.8864815,51.4900617 30.8917284,51.4124074 30.8969753,51.3289815 L31.2716049,47.1387963 L51.4601543,44.3285494 Z" id="Fill-492" fill="#F2D4BB"></path>
                        <path d="M52.3189167,50.7565432 C52.3708611,52.5677778 51.4442562,54.2955864 49.8518179,55.2116975 C48.0668179,56.2421914 45.349966,57.220216 41.4415401,57.220216 C37.2413858,57.220216 34.5345031,56.2316975 32.8953673,55.263642 L51.4599969,44.3285494 L52.2769414,50.1841049 C52.3031759,50.376142 52.3189167,50.5639815 52.3189167,50.7565432" id="Fill-494" fill="#FFE4CE"></path>
                        <path d="M46.9633395,23.5417469 C46.4947901,23.5417469 46.1149136,23.1613457 46.1149136,22.6880741 C46.1149136,22.2195247 46.4947901,21.8396481 46.9633395,21.8396481 C47.4371358,21.8396481 47.8170123,22.2195247 47.8170123,22.6880741 C47.8170123,23.1613457 47.4371358,23.5417469 46.9633395,23.5417469 M36.0906852,23.5417469 C35.6226605,23.5417469 35.237537,23.1613457 35.237537,22.6880741 C35.237537,22.2195247 35.6226605,21.8396481 36.0906852,21.8396481 C36.5592346,21.8396481 36.9396358,22.2195247 36.9396358,22.6880741 C36.9396358,23.1613457 36.5592346,23.5417469 36.0906852,23.5417469 M58.6581852,23.0422407 C57.3569506,22.4435679 56.4198519,23.0265 55.9051296,23.5417469 L56.1700988,22.2195247 C55.9518272,22.2247716 55.727784,22.198537 55.5042654,22.1471173 C55.4570432,22.1360988 55.4365802,22.1313765 55.4365802,22.1313765 C51.2936173,20.9602654 53.0628765,15.745358 53.0628765,15.745358 L53.2816728,15.7348642 C43.1483086,16.0832593 36.0964568,14.8916852 32.6508086,13.5542469 C31.943,13.2777346 31.2923827,12.9083519 30.7094506,12.4613148 L30.0278765,25.3839383 L29.6579691,32.4363148 L30.511642,43.6673333 C30.5478457,44.1253889 30.9277222,44.4748333 31.3863025,44.4748333 C31.8385864,44.4748333 32.2137407,44.1306358 32.2551914,43.6835988 L33.0359321,35.1531667 C33.0878765,34.5912222 33.5354383,34.1489074 34.0973827,34.1016852 L46.6773827,33.0502037 C47.3070123,32.9982593 47.8637099,33.4615617 47.9261481,34.0964383 L48.7173827,42.0486605 C48.7745741,42.6373642 49.289821,43.0691852 49.878,43.0224877 C50.2683704,42.9910062 50.6062716,42.7569938 50.7731235,42.4028272 L54.2497284,28.8610679 C54.7597284,28.9911914 55.2644815,28.9597099 55.7435247,28.8190926 C58.3769506,28.0336296 60.2663642,23.7862531 58.6581852,23.0422407" id="Fill-496" fill="#FFE4CE"></path>
                        <path d="M41.8243025,32.1786914 L37.5449198,32.1786914 C37.4499506,32.1786914 37.3607531,32.1304198 37.3088086,32.0506667 C37.2563395,31.9709136 37.2479444,31.8701728 37.2867716,31.7830741 L41.5656296,22.0175185 C41.6280679,21.8742778 41.7949198,21.8097407 41.9376358,21.8716543 C42.0803519,21.935142 42.1454136,22.1014691 42.0829753,22.2436605 L37.9767407,31.6141235 L41.8243025,31.6141235 C41.9801358,31.6141235 42.1065864,31.7400494 42.1065864,31.8964074 C42.1065864,32.0522407 41.9801358,32.1786914 41.8243025,32.1786914" id="Fill-498" fill="#000000"></path>
                        <path d="M33.551179,40.7530926 L33.9363025,35.9805 C33.9777531,35.4133086 34.4305617,34.9657469 34.9977531,34.9190494 L45.5996667,34.0443889 C46.2035864,33.9976914 46.7450679,34.4195432 46.8437099,35.0129691 L47.5515185,39.3427222 C47.7125988,40.3212716 47.2492963,41.299821 46.3961481,41.7993272 L45.7040802,42.2001914 C44.465284,42.928463 42.8670741,42.4032469 42.2951605,41.0862716 L38.0372901,41.6015185 C37.8499753,42.5491111 37.0172901,43.1682469 36.1274136,43.1682469 C35.8409321,43.1682469 35.5497284,43.105284 35.2737407,42.9704383 L34.6336173,42.6582469 C33.9205617,42.3040802 33.4887407,41.5495741 33.551179,40.7530926 Z M50.7731235,42.4032469 C50.6062716,42.7568889 50.2683704,42.9914259 49.878,43.0223827 C49.289821,43.0690802 48.7745741,42.6372593 48.7173827,42.0490802 L47.9261481,34.0963333 C47.8637099,33.4619815 47.3070123,32.998679 46.6773827,33.0500988 L34.0979074,34.1015802 C33.5354383,34.1488025 33.0878765,34.5911173 33.0359321,35.1530617 L32.2551914,43.6834938 C32.2137407,44.1305309 31.8385864,44.4747284 31.3863025,44.4747284 C30.9277222,44.4747284 30.5478457,44.1258086 30.511642,43.6677531 L29.6579691,32.4362099 L28.6379691,44.5786173 C28.5130926,46.0724136 29.7828457,47.3112099 31.2713951,47.1391111 L50.7521358,44.8960556 C51.0176296,44.8650988 51.2726296,44.7974136 51.5118889,44.7034938 C52.5166728,44.2821667 53.2244815,43.3088642 53.2606852,42.1739568 L53.5156852,38.749821 C53.5156852,38.749821 53.5156852,38.7335556 53.5214568,38.7025988 L54.2497284,28.860963 L50.7731235,42.4032469 Z" id="Fill-500" fill="#060808"></path>
                        <path d="M46.3961481,41.7993796 L45.7040802,42.2002438 C44.465284,42.9285154 42.8670741,42.4027747 42.2951605,41.0863241 L38.0372901,41.601571 C37.8499753,42.5491636 37.0172901,43.1677747 36.1274136,43.1677747 C35.8409321,43.1677747 35.5497284,43.1053364 35.2737407,42.969966 L34.6336173,42.6582994 C33.9205617,42.3041327 33.4887407,41.5491019 33.551179,40.7531451 L33.9363025,35.9805525 C33.9782778,35.4133611 34.4305617,34.9657994 34.9977531,34.9191019 L45.5996667,34.0444414 C46.2035864,33.9977438 46.7450679,34.4195957 46.8437099,35.0124969 L47.5515185,39.3427747 C47.7125988,40.3213241 47.2492963,41.2998735 46.3961481,41.7993796" id="Fill-502" fill="#FFE4CE"></path>
                        <path d="M38.9082778,37.1222809 C36.6526296,37.1222809 35.4138333,36.4821574 35.3241111,36.4338858 C35.1871667,36.3609537 35.1352222,36.1899043 35.2092037,36.0519105 C35.2826605,35.9144414 35.4537099,35.8630216 35.5906543,35.9364784 C35.6394506,35.9616636 39.3542654,37.8442562 45.7927531,34.8341019 C45.9344198,34.7679907 46.1017963,34.8288549 46.1679074,34.9699969 C46.2340185,35.1116636 46.1731543,35.2795648 46.0320123,35.3451512 C43.0738025,36.7282377 40.6780617,37.1222809 38.9082778,37.1222809" id="Fill-504" fill="#000000"></path>
                        <path d="M36.9393735,22.6881265 C36.9393735,23.1613981 36.5594969,23.5417994 36.0909475,23.5417994 C35.6223981,23.5417994 35.2372747,23.1613981 35.2372747,22.6881265 C35.2372747,22.2195772 35.6223981,21.8397006 36.0909475,21.8397006 C36.5594969,21.8397006 36.9393735,22.2195772 36.9393735,22.6881265" id="Fill-506" fill="#000000"></path>
                        <path d="M36.0908951,21.9103241 C35.6590741,21.9103241 35.3080556,22.2592438 35.3080556,22.6879167 C35.3080556,23.1202623 35.6590741,23.4712809 36.0908951,23.4712809 C36.5200926,23.4712809 36.8684877,23.1202623 36.8684877,22.6879167 C36.8684877,22.2592438 36.5200926,21.9103241 36.0908951,21.9103241 M36.0908951,23.6118981 C35.5814198,23.6118981 35.1669136,23.197392 35.1669136,22.6879167 C35.1669136,22.1815895 35.5814198,21.7691821 36.0908951,21.7691821 C36.5977469,21.7691821 37.0096296,22.1815895 37.0096296,22.6879167 C37.0096296,23.197392 36.5977469,23.6118981 36.0908951,23.6118981" id="Fill-508" fill="#231F20"></path>
                        <path d="M47.8170123,22.6881265 C47.8170123,23.1613981 47.4371358,23.5417994 46.9633395,23.5417994 C46.4947901,23.5417994 46.1149136,23.1613981 46.1149136,22.6881265 C46.1149136,22.2195772 46.4947901,21.8397006 46.9633395,21.8397006 C47.4371358,21.8397006 47.8170123,22.2195772 47.8170123,22.6881265" id="Fill-510" fill="#000000"></path>
                        <path d="M46.9633395,21.9103241 C46.5346667,21.9103241 46.1857469,22.2592438 46.1857469,22.6879167 C46.1857469,23.1202623 46.5346667,23.4712809 46.9633395,23.4712809 C47.3951605,23.4712809 47.746179,23.1202623 47.746179,22.6879167 C47.746179,22.2592438 47.3951605,21.9103241 46.9633395,21.9103241 M46.9633395,23.6118981 C46.4564877,23.6118981 46.0446049,23.197392 46.0446049,22.6879167 C46.0446049,22.1815895 46.4564877,21.7691821 46.9633395,21.7691821 C47.4728148,21.7691821 47.887321,22.1815895 47.887321,22.6879167 C47.887321,23.197392 47.4728148,23.6118981 46.9633395,23.6118981" id="Fill-512" fill="#231F20"></path>
                        <path d="M39.4511759,20.7015926 C39.4181204,20.7015926 39.3845401,20.695821 39.3514846,20.6837531 C35.6964846,19.3059136 32.8411142,20.1511914 32.8127809,20.1601111 C32.6637685,20.2057593 32.5058364,20.1223333 32.4601883,19.973321 C32.4140154,19.8243086 32.4974414,19.6663765 32.6464537,19.6202037 C32.7692315,19.5824259 35.7048796,18.7056667 39.5508673,20.1553889 C39.6967315,20.2099568 39.7701883,20.3731358 39.7150957,20.519 C39.6725957,20.6318086 39.565034,20.7015926 39.4511759,20.7015926" id="Fill-514" fill="#000000"></path>
                        <path d="M44.2719877,20.6119228 C44.1534074,20.6119228 44.0426975,20.5363673 44.0038704,20.4172623 C43.9550741,20.2692994 44.0358765,20.1097932 44.1838395,20.0609969 C44.320784,20.0163981 47.5791173,18.9691142 51.4093642,19.637571 C51.5625741,19.6638056 51.6654136,19.8101944 51.6386543,19.963929 C51.6118951,20.1176636 51.4655062,20.2199784 51.3117716,20.1932191 C47.6263395,19.5504722 44.392142,20.5872623 44.3596111,20.5977562 C44.3307531,20.6072006 44.3013704,20.6119228 44.2719877,20.6119228" id="Fill-516" fill="#000000"></path>
                        <path d="M30.7094506,12.4612623 L30.0278765,25.3838858 C30.2409012,21.2881451 26.0512407,19.2633611 26.2233395,15.3596574 C26.3167346,13.2887006 27.6646667,11.6280525 28.9139568,10.5251512 C29.3924753,11.2586698 30.001642,11.9197809 30.7094506,12.4612623" id="Fill-518" fill="#060808"></path>
                        <path d="M28.9606543,10.5766759 L28.8667346,10.4706883 C29.9638642,9.49791049 30.9990802,8.94698457 31.0095741,8.94173765 L31.0751605,9.06608951 C31.0651914,9.07186111 30.044142,9.61544136 28.9606543,10.5766759" id="Fill-520" fill="#231F20"></path>
                        <path d="M56.1123827,27.4164877 C55.9124753,27.4164877 55.7193889,27.3446049 55.5598827,27.2092346 C55.3594506,27.0397593 55.2377222,26.7921049 55.2251296,26.5292346 C55.1574444,25.0810864 57.1533704,24.2919506 57.2383704,24.2583704 C57.3475062,24.2163951 57.470284,24.270963 57.5122593,24.3795741 C57.5547593,24.4887099 57.500716,24.610963 57.3915802,24.653463 C57.3737407,24.6608086 55.595037,25.3654691 55.6485556,26.5092963 C55.6548519,26.6551605 55.722537,26.7926296 55.8337716,26.8865494 C55.9287407,26.9673519 56.0452222,27.0035556 56.1617037,26.9904383 C56.2608704,26.9783704 56.2934012,26.9411173 56.3122901,26.905963 C56.4256235,26.6966111 56.2535247,26.1514568 56.0950679,25.8313951 C56.0431235,25.7269815 56.0856235,25.6000062 56.1905617,25.547537 C56.2955,25.4961173 56.4224753,25.5386173 56.4744198,25.6435556 C56.5541728,25.8051605 56.9408704,26.6346975 56.684821,27.1074444 C56.6197593,27.2281235 56.4849136,27.3781852 56.2115494,27.410716 C56.1784938,27.4143889 56.1454383,27.4164877 56.1123827,27.4164877" id="Fill-522" fill="#000000"></path>
                        <path d="M55.9048673,23.5417469 C55.9048673,23.5417469 58.6469043,21.4450802 58.8504846,19.9974568 C59.1590031,17.8094938 59.3452685,14.3869321 54.7494969,13.4550802 C48.738108,12.2372716 47.973108,1.16680864 36.0909475,0.324154321 C30.1524907,-0.102419753 28.2268735,2.56668519 27.7845586,5.34125309 C27.4928302,7.19918519 27.940392,9.02091358 28.9136944,10.524679 C29.3927377,11.2587222 30.0013796,11.9198333 30.7091883,12.4613148 C31.2921204,12.9083519 31.9427377,13.2777346 32.6505463,13.5542469 C36.0961944,14.8916852 43.148571,16.0832593 53.2814105,15.7348642 L53.0631389,15.745358 C53.0631389,15.745358 50.6815648,20.2975802 55.9048673,23.5417469" id="Fill-524" fill="#060808"></path>
                        <path d="M56.7531358,35.5276914 C53.8647099,37.5629691 53.5525185,38.5047901 53.521037,38.7025988 L54.2498333,28.860963 C54.7598333,28.9910864 55.2645864,28.9596049 55.7436296,28.8189877 C55.7436296,28.8189877 60.3651111,32.9776914 56.7531358,35.5276914" id="Fill-526" fill="#060808"></path>
                        <path d="M56.0194074,54.9566451 C56.0194074,54.9566451 56.0194074,54.961892 56.0141605,54.977108 C55.9412284,55.6125093 55.6914753,56.2263981 55.2334198,56.7521389 C55.2334198,56.7573858 55.2281728,56.7573858 55.2281728,56.762108 C55.1499938,56.8560278 55.0670926,56.9447006 54.9731728,57.0276019 C52.4441605,59.3908117 48.2959506,61.9413364 42.1696543,61.9413364 C36.1897469,61.9413364 32.0572778,59.8803488 29.4810432,57.92325 C28.5754259,57.2311821 28.1226173,56.2159043 28.1173704,55.2011512 C28.1121235,54.0667685 28.6693457,52.937108 29.7622778,52.2765216 C30.334716,51.9276019 30.7927716,51.6463673 30.8866914,51.5739599 C30.8342222,53.0724784 31.5939753,54.4985895 32.8952099,55.2635895 C34.5348704,56.2316451 37.2412284,57.2201636 41.4413827,57.2201636 C45.3498086,57.2201636 48.0666605,56.2421389 49.8521852,55.2116451 C51.4446235,54.295534 52.3707037,52.5677253 52.3187593,50.7564907 L53.9012284,51.3913673 C55.4154877,52.0000093 56.1857346,53.5095463 56.0194074,54.9566451" id="Fill-530" fill="#354E9A"></path>
                        <path d="M84.5663951,74.4788364 C84.5663951,74.4788364 63.2072593,74.4809352 41.6025679,74.4809352 C19.9984012,74.4809352 0.038617284,74.4788364 0.038617284,74.4788364 L2.37139506,66.1929105 C2.99630247,63.9729414 4.71309259,62.2262438 6.92204321,61.5635586 L28.1174753,55.2011512 C28.1227222,56.2159043 28.5755309,57.2311821 29.4811481,57.92325 C32.0573827,59.8803488 36.1898519,61.9408117 42.1697593,61.9408117 C48.2960556,61.9408117 52.4437407,59.3908117 54.9732778,57.0276019 C55.5976605,56.4451944 55.9360864,55.7111512 56.0195123,54.9566451 L77.7065802,61.5541142 C79.9055617,62.2236204 81.611858,63.9666451 82.2336173,66.1792685 L84.5663951,74.4788364 Z" id="Fill-534" fill="#354E9A"></path>
                        <path d="M55.2282778,56.7623179 C53.9165494,59.0840772 50.3255617,62.7159907 42.9237407,62.9080278 C32.8370741,63.1698488 29.4811481,57.9234599 29.4811481,57.9234599 C32.0573827,59.880034 36.1898519,61.9410216 42.1697593,61.9410216 C48.2960556,61.9410216 52.4437407,59.3910216 54.9732778,57.0278117 C55.0666728,56.9449105 55.1500988,56.8562377 55.2282778,56.7623179" id="Fill-537" fill="#242D64"></path>
                    </g>
                </g>
            </g>
        </g>
    </g>
</svg>