<?xml version="1.0" encoding="UTF-8"?>
<svg width="112px" height="112px" viewBox="0 0 112 112" version="1.1" xmlns="http://www.w3.org/2000/svg" xmlns:xlink="http://www.w3.org/1999/xlink">
    <!-- Generator: Sketch 50.2 (55047) - http://www.bohemiancoding.com/sketch -->
    <title>Group 54</title>
    <desc>Created with Sketch.</desc>
    <defs></defs>
    <g id="App-Wallet" stroke="none" stroke-width="1" fill="none" fill-rule="evenodd">
        <g id="Group-54">
            <circle id="Oval-6" fill="#F5A624" cx="56" cy="56" r="56"></circle>
            <g id="paper" transform="translate(35.000000, 28.000000)" fill="#FFFFFF" fill-rule="nonzero">
                <path d="M26.5423322,11.5564363 C25.6454789,11.5564363 24.9184089,10.8234199 24.9184089,9.91923178 L24.9184089,0 L1.6239233,0 C0.727070077,0 0,0.733016413 0,1.63720454 L0,47 L35,46.9912723 L35,11.5564363 L26.5423322,11.5564363 Z" id="Shape"></path>
                <polygon id="Shape" points="28 1 28 9 35 9"></polygon>
                <path d="M42.3382066,9 L39.2043082,9 L39.2043082,48.8583625 C39.2043082,49.7515117 38.4605042,50.4755587 37.5429577,50.4757742 L6,50.4856897 L6,54.3825883 C6,55.2758453 6.74402543,56 7.66179338,56 L42.3382066,56 C43.2559746,56 44,55.2758453 44,54.3825883 L44,10.6174117 C44,9.72415469 43.2559746,9 42.3382066,9 Z" id="Shape"></path>
            </g>
        </g>
    </g>
</svg>