<?xml version="1.0" encoding="UTF-8"?>
<svg width="30px" height="30px" viewBox="0 0 30 30" version="1.1" xmlns="http://www.w3.org/2000/svg" xmlns:xlink="http://www.w3.org/1999/xlink">
    <!-- Generator: Sketch 50.2 (55047) - http://www.bohemiancoding.com/sketch -->
    <title>Group 15</title>
    <desc>Created with Sketch.</desc>
    <defs></defs>
    <g id="HS---Betting" stroke="none" stroke-width="1" fill="none" fill-rule="evenodd">
        <g id="Feed-(betting)-Copy" transform="translate(-369.000000, -92.000000)">
            <g id="Group-15" transform="translate(370.000000, 93.000000)">
                <g id="Group-14-Copy" fill="#F5A623" stroke="#FFFFFF" stroke-width="2">
                    <circle id="Oval-2-Copy" cx="14" cy="14" r="14"></circle>
                </g>
                <g id="icons8-share" transform="translate(8.000000, 7.000000)" fill="#FFFFFF" fill-rule="nonzero">
                    <path d="M10.8333333,0 C9.63715278,0 8.66666667,0.970486111 8.66666667,2.16666667 C8.66666667,2.30772606 8.68641511,2.4375 8.71180556,2.57291667 L3.56597222,5.57465278 C3.18793439,5.25303856 2.70269133,5.05555556 2.16666667,5.05555556 C0.970486111,5.05555556 0,6.02604167 0,7.22222222 C0,8.41840278 0.970486111,9.38888889 2.16666667,9.38888889 C2.70269133,9.38888889 3.18793439,9.19140661 3.56597222,8.86979167 L8.71180556,11.8715278 C8.68641511,12.0069444 8.66666667,12.1367191 8.66666667,12.2777778 C8.66666667,13.4739583 9.63715278,14.4444444 10.8333333,14.4444444 C12.0295139,14.4444444 13,13.4739583 13,12.2777778 C13,11.0815972 12.0295139,10.1111111 10.8333333,10.1111111 C10.2973094,10.1111111 9.81206633,10.3085941 9.43402778,10.6302083 L4.28819444,7.62847222 C4.31358489,7.49305556 4.33333333,7.36328161 4.33333333,7.22222222 C4.33333333,7.08116356 4.31358489,6.95138889 4.28819444,6.81597222 L9.43402778,3.81423611 C9.81206633,4.13585106 10.2973094,4.33333333 10.8333333,4.33333333 C12.0295139,4.33333333 13,3.36284722 13,2.16666667 C13,0.970486111 12.0295139,0 10.8333333,0 Z" id="Shape"></path>
                </g>
            </g>
        </g>
    </g>
</svg>