<?xml version="1.0" encoding="UTF-8"?>
<svg width="30px" height="30px" viewBox="0 0 30 30" version="1.1" xmlns="http://www.w3.org/2000/svg" xmlns:xlink="http://www.w3.org/1999/xlink">
    <!-- Generator: Sketch 50.2 (55047) - http://www.bohemiancoding.com/sketch -->
    <title>Group 14</title>
    <desc>Created with Sketch.</desc>
    <defs></defs>
    <g id="HS---Betting" stroke="none" stroke-width="1" fill="none" fill-rule="evenodd">
        <g id="Feed-(betting)-Copy" transform="translate(-321.000000, -92.000000)">
            <g id="Group-14" transform="translate(322.000000, 93.000000)">
                <circle id="Oval-2-Copy" stroke="#FFFFFF" stroke-width="2" fill="#03A9F4" cx="14" cy="14" r="14"></circle>
                <g id="icons8-twitter" transform="translate(7.000000, 9.000000)" fill="#FFFFFF" fill-rule="nonzero">
                    <path d="M14,1.29745946 C13.4994054,1.51918919 12.960973,1.66713514 12.393027,1.73713514 C12.9704324,1.39432432 13.4146486,0.847567568 13.6231351,0.201675676 C13.0828108,0.518378378 12.4842162,0.751081081 11.8474054,0.873675676 C11.3388649,0.334486486 10.6135135,0 9.80983784,0 C8.26605405,0 7.01475676,1.24032432 7.01475676,2.76972973 C7.01475676,2.98616216 7.04010811,3.19691892 7.08778378,3.40162162 C4.7652973,3.28508108 2.70540541,2.18097297 1.32735135,0.505513514 C1.08518919,0.914918919 0.948972973,1.39432432 0.948972973,1.90021622 C0.948972973,2.86167568 1.44124324,3.70810811 2.19194595,4.20681081 C1.73372973,4.19281081 1.30237838,4.0652973 0.924756757,3.86097297 C0.924756757,3.8692973 0.924756757,3.88178378 0.924756757,3.89351351 C0.924756757,5.23713514 1.88848649,6.356 3.16589189,6.61064865 C2.93243243,6.67459459 2.68572973,6.71016216 2.43145946,6.71016216 C2.25097297,6.71016216 2.07502703,6.68972973 1.90475676,6.65908108 C2.26043243,7.75713514 3.29227027,8.55967568 4.51481081,8.58351351 C3.55827027,9.32513514 2.35351351,9.76935135 1.04356757,9.76935135 C0.817297297,9.76935135 0.595945946,9.75648649 0.377243243,9.73 C1.61491892,10.5136216 3.08454054,10.972973 4.662,10.972973 C9.80227027,10.972973 12.6143784,6.75178378 12.6143784,3.08983784 C12.6143784,2.96989189 12.6105946,2.85032432 12.6049189,2.73227027 C13.1535676,2.34481081 13.6265405,1.85594595 14,1.29745946" id="Shape"></path>
                </g>
            </g>
        </g>
    </g>
</svg>