<?xml version="1.0" encoding="UTF-8"?>
<svg width="400px" height="193px" viewBox="0 0 400 193" version="1.1" xmlns="http://www.w3.org/2000/svg" xmlns:xlink="http://www.w3.org/1999/xlink">
    <!-- Generator: Sketch 50.2 (55047) - http://www.bohemiancoding.com/sketch -->
    <title>4bad89a3dd667a1fb82472e434e00ca4</title>
    <desc>Created with Sketch.</desc>
    <defs>
        <polygon id="path-1" points="0 192.88303 402.029576 192.88303 402.029576 0 0 0"></polygon>
        <polygon id="path-3" points="0 192.88303 402.029576 192.88303 402.029576 0 0 0"></polygon>
        <polygon id="path-5" points="0 192.88303 402.029576 192.88303 402.029576 0 0 0"></polygon>
        <polygon id="path-7" points="0 192.88303 402.029576 192.88303 402.029576 0 0 0"></polygon>
        <polygon id="path-9" points="0 192.88303 402.029576 192.88303 402.029576 0 0 0"></polygon>
        <polygon id="path-11" points="0 192.88303 402.029576 192.88303 402.029576 0 0 0"></polygon>
    </defs>
    <g id="Page-1" stroke="none" stroke-width="1" fill="none" fill-rule="evenodd">
        <g id="Desktop-HD" transform="translate(-514.000000, -132.000000)">
            <g id="Group-7" transform="translate(511.000000, 132.000000)">
                <g id="4bad89a3dd667a1fb82472e434e00ca4">
                    <path d="M61.0487454,156 L61.0487454,109.070746 C61.0487454,100.285635 56.2537099,96.945338 48.6224481,96.945338 C41.3440957,96.945338 37.6158827,100.636655 34.9528735,103.622727 L34.9528735,156 L3,156 L3,71.1125297 L34.9528735,71.1125297 L34.9528735,80.7759907 C39.9227449,75.1516609 49.3315046,69 64.4208112,69 C84.3019156,69 93,80.9555077 93,95.7159675 L93,156 L61.0487454,156 Z" id="Fill-1" fill="#FFFFFF" fill-rule="nonzero"></path>
                    <path d="M105,35.9967497 C105,26.0167931 113.01878,18 123.000813,18 C132.979595,18 141,26.0167931 141,35.9967497 C141,45.9767064 132.979595,54 123.000813,54 C113.01878,54 105,45.9767064 105,35.9967497" id="Fill-3" fill="#FFFFFF" fill-rule="nonzero"></path>
                    <g id="Fill-5-Clipped">
                        <mask id="mask-2" fill="white">
                            <use xlink:href="#path-1"></use>
                        </mask>
                        <g id="path-1"></g>
                        <polygon id="Fill-5" fill="#FFFFFF" fill-rule="nonzero" mask="url(#mask-2)" points="108.0443 158.12595 139.860344 158.12595 139.860344 72.4768871 108.0443 72.4768871"></polygon>
                    </g>
                    <g id="Fill-7-Clipped">
                        <mask id="mask-4" fill="white">
                            <use xlink:href="#path-3"></use>
                        </mask>
                        <g id="path-1"></g>
                        <path d="M215.335796,158.125627 L215.335796,110.775333 C215.335796,101.911404 210.565888,98.5411386 202.962084,98.5411386 C195.717756,98.5411386 192.00532,102.265573 189.351968,105.278436 L189.351968,158.125627 L157.537536,158.125627 L157.537536,72.4765637 L189.351968,72.4765637 L189.351968,82.2267233 C194.30242,76.5519331 203.671364,70.3450808 218.696816,70.3450808 C238.493788,70.3450808 247.155064,82.4078508 247.155064,97.3007385 L247.155064,158.125627 L215.335796,158.125627 Z" id="Fill-7" fill="#FFFFFF" fill-rule="nonzero" mask="url(#mask-4)"></path>
                    </g>
                    <g id="Fill-8-Clipped">
                        <mask id="mask-6" fill="white">
                            <use xlink:href="#path-5"></use>
                        </mask>
                        <g id="path-1"></g>
                        <path d="M237.253676,187.030185 L244.85748,163.444793 C248.389372,166.106721 250.5156,166.815059 255.462828,166.815059 C261.295044,166.815059 264.826936,162.560179 264.826936,154.401354 L264.826936,72.4767254 L296.649428,72.4767254 L296.649428,154.401354 C296.649428,176.395411 285.861924,192.882868 261.116112,192.882868 C248.213664,192.882868 244.1482,191.291533 237.253676,187.030185" id="Fill-8" fill="#FFFFFF" fill-rule="nonzero" mask="url(#mask-6)"></path>
                    </g>
                    <g id="Fill-9-Clipped">
                        <mask id="mask-8" fill="white">
                            <use xlink:href="#path-7"></use>
                        </mask>
                        <g id="path-1"></g>
                        <path d="M262.886733,37.3971746 C262.886733,27.4658875 270.840341,19.4881901 280.738021,19.4881901 C290.635701,19.4881901 298.587697,27.4658875 298.587697,37.3971746 C298.587697,47.3284617 290.635701,55.3126279 280.738021,55.3126279 C270.840341,55.3126279 262.886733,47.3284617 262.886733,37.3971746" id="Fill-9" fill="#FFFFFF" fill-rule="nonzero" mask="url(#mask-8)"></path>
                    </g>
                    <g id="Fill-10-Clipped">
                        <mask id="mask-10" fill="white">
                            <use xlink:href="#path-9"></use>
                        </mask>
                        <g id="path-1"></g>
                        <path d="M370.177584,126.207884 L370.177584,104.394954 C367.174428,100.670519 361.16328,98.7185466 356.922108,98.7185466 C348.260832,98.7185466 341.010056,104.567995 341.010056,115.209238 C341.010056,125.85048 348.260832,132.057332 356.922108,132.057332 C361.16328,132.057332 367.174428,129.932318 370.177584,126.207884 Z M370.177584,158.125142 L370.177584,149.08332 C362.933256,157.237293 354.800716,160.251773 346.13944,160.251773 C325.460704,160.251773 308.486344,144.650547 308.486344,115.209238 C308.486344,86.8352869 325.107676,70.3445956 346.13944,70.3445956 C354.800716,70.3445956 363.289508,73.3606924 370.0051,81.5195173 L370.0051,72.4760785 L401.998464,72.4760785 L401.998464,158.125142 L370.177584,158.125142 Z" id="Fill-10" fill="#FFFFFF" fill-rule="nonzero" mask="url(#mask-10)"></path>
                    </g>
                    <g id="Fill-11-Clipped">
                        <mask id="mask-12" fill="white">
                            <use xlink:href="#path-11"></use>
                        </mask>
                        <g id="path-1"></g>
                        <polygon id="Fill-11" fill="#FFFF00" fill-rule="nonzero" mask="url(#mask-12)" points="3 32.1420504 402.026352 32.1420504 402.026352 0 3 0"></polygon>
                    </g>
                    <g id="Fill-12-Clipped" transform="translate(3.000000, 49.000000)" fill="#FFFF00" fill-rule="nonzero">
                        <polygon id="Fill-12" points="0 32.821127 399.029576 32.821127 399.029576 0.679076571 0 0.679076571"></polygon>
                    </g>
                </g>
            </g>
        </g>
    </g>
</svg>