<?xml version="1.0" encoding="UTF-8"?>
<svg width="248px" height="120px" viewBox="0 0 248 120" version="1.1" xmlns="http://www.w3.org/2000/svg" xmlns:xlink="http://www.w3.org/1999/xlink">
    <!-- Generator: Sketch 50.2 (55047) - http://www.bohemiancoding.com/sketch -->
    <title>Group</title>
    <desc>Created with Sketch.</desc>
    <defs>
        <polygon id="path-1" points="0 119.269556 247.324938 119.269556 247.324938 -5.68434189e-14 0 -5.68434189e-14"></polygon>
    </defs>
    <g id="Page-1" stroke="none" stroke-width="1" fill="none" fill-rule="evenodd">
        <g id="Desktop-HD" transform="translate(-596.000000, -148.000000)">
            <g id="Group-4" transform="translate(306.000000, 148.000000)">
                <g id="Group" transform="translate(290.000000, 0.000000)">
                    <path d="M36.0206184,97.9559117 L36.0206184,68.92005 C36.0206184,63.4854627 33.0834438,61.4187631 28.4089387,61.4187631 C23.9494282,61.4187631 21.6659243,63.7022671 20.0346432,65.5499906 L20.0346432,97.9559117 L0.460356417,97.9559117 L0.460356417,45.4356835 L20.0346432,45.4356835 L20.0346432,51.4146344 C23.0793151,47.9341821 28.8432713,44.1279803 38.0862321,44.1279803 C50.2649197,44.1279803 55.5934574,51.5250273 55.5934574,60.6572332 L55.5934574,97.9559117 L36.0206184,97.9559117 Z" id="Fill-1" fill="#FFFFFF"></path>
                    <path d="M76.2544807,12.9421358 C82.3434625,12.9421358 87.2373057,17.8348931 87.2373057,23.9242369 C87.2373057,30.0139426 82.3434625,34.9106813 76.2544807,34.9106813 C70.1633272,34.9106813 65.2705699,30.0139426 65.2705699,23.9242369 C65.2705699,17.8348931 70.1633272,12.9421358 76.2544807,12.9421358 Z" id="Fill-3" fill="#FFFFFF"></path>
                    <mask id="mask-2" fill="white">
                        <use xlink:href="#path-1"></use>
                    </mask>
                    <g id="Clip-6"></g>
                    <polygon id="Fill-5" fill="#FFFFFF" mask="url(#mask-2)" points="66.4677354 97.9557669 86.0402125 97.9557669 86.0402125 45.4355387 66.4677354 45.4355387"></polygon>
                    <path d="M132.472291,97.9559117 L132.472291,68.92005 C132.472291,63.4854627 129.538012,61.4187631 124.860612,61.4187631 C120.403635,61.4187631 118.120131,63.7022671 116.487764,65.5499906 L116.487764,97.9559117 L96.9149249,97.9559117 L96.9149249,45.4356835 L116.487764,45.4356835 L116.487764,51.4146344 C119.532436,47.9341821 125.296392,44.1279803 134.540077,44.1279803 C146.719126,44.1279803 152.047664,51.5250273 152.047664,60.6572332 L152.047664,97.9559117 L132.472291,97.9559117 Z" id="Fill-7" fill="#FFFFFF" mask="url(#mask-2)"></path>
                    <path d="M145.956112,115.680557 L150.633875,101.217641 C152.806986,102.850732 154.114327,103.284341 157.157913,103.284341 C160.745863,103.284341 162.919336,100.675449 162.919336,95.6726611 L162.919336,45.4355749 L182.495432,45.4355749 L182.495432,95.6726611 C182.495432,109.15869 175.859553,119.269592 160.635832,119.269592 C152.698403,119.269592 150.197733,118.29343 145.956112,115.680557" id="Fill-8" fill="#FFFFFF" mask="url(#mask-2)"></path>
                    <path d="M172.707529,12.9421358 C178.796149,12.9421358 183.688544,17.8348931 183.688544,23.9242369 C183.688544,30.0139426 178.796149,34.9106813 172.707529,34.9106813 C166.617823,34.9106813 161.725066,30.0139426 161.725066,23.9242369 C161.725066,17.8348931 166.617823,12.9421358 172.707529,12.9421358 Z" id="Fill-9" fill="#FFFFFF" mask="url(#mask-2)"></path>
                    <path d="M227.729622,78.3837241 L227.729622,65.0077262 C225.881898,62.7238604 222.18428,61.5272739 219.575388,61.5272739 C214.24685,61.5272739 209.786254,65.1141377 209.786254,71.6396239 C209.786254,78.16511 214.24685,81.9709499 219.575388,81.9709499 C222.18428,81.9709499 225.881898,80.66759 227.729622,78.3837241 Z M227.729622,97.9558393 L227.729622,92.4108591 C223.273007,97.4118376 218.269495,99.2595611 212.941319,99.2595611 C200.219716,99.2595611 189.778359,89.6933845 189.778359,71.6396239 C189.778359,54.2406198 200.003273,44.1279079 212.941319,44.1279079 C218.269495,44.1279079 223.491621,45.977803 227.622848,50.9805913 L227.622848,45.4356111 L247.305718,45.4356111 L247.305718,97.9558393 L227.729622,97.9558393 Z" id="Fill-10" fill="#FFFFFF" mask="url(#mask-2)"></path>
                    <polygon id="Fill-11" fill="#FFFF00" mask="url(#mask-2)" points="0.00180971938 19.7096538 247.323128 19.7096538 247.323128 0 0.00180971938 0"></polygon>
                    <polygon id="Fill-12" fill="#FFFF00" mask="url(#mask-2)" points="0.000361943877 50.1730221 247.325299 50.1730221 247.325299 30.4633683 0.000361943877 30.4633683"></polygon>
                </g>
            </g>
        </g>
    </g>
</svg>