<?xml version="1.0" encoding="UTF-8"?>
<svg width="248px" height="119px" viewBox="0 0 248 119" version="1.1" xmlns="http://www.w3.org/2000/svg" xmlns:xlink="http://www.w3.org/1999/xlink">
    <!-- Generator: Sketch 50.2 (55047) - http://www.bohemiancoding.com/sketch -->
    <title>Group Copy</title>
    <desc>Created with Sketch.</desc>
    <defs>
        <polygon id="path-1" points="0 118.314848 247.402816 118.314848 247.402816 0 0 0"></polygon>
    </defs>
    <g id="Page-1" stroke="none" stroke-width="1" fill="none" fill-rule="evenodd">
        <g id="Desktop-HD" transform="translate(-245.000000, -99.000000)">
            <g id="Group-Copy" transform="translate(245.000000, 99.000000)">
                <path d="M36.0322176,96.9945856 L36.0322176,67.9498176 C36.0322176,62.5126656 33.0939136,60.4453376 28.4176256,60.4453376 C23.9575936,60.4453376 21.6730176,62.7299136 20.0411776,64.5780096 L20.0411776,96.9945856 L0.4610816,96.9945856 L0.4610816,44.4572736 L20.0411776,44.4572736 L20.0411776,50.4380416 C23.0866176,46.9571136 28.8521216,43.1498176 38.0985536,43.1498176 C50.2813056,43.1498176 55.6113216,50.5491456 55.6113216,59.6844736 L55.6113216,96.9945856 L36.0322176,96.9945856 Z" id="Fill-1" fill="#FFFFFF"></path>
                <path d="M65.2913568,22.939504 C65.2913568,16.847632 70.1858848,11.954096 76.2787488,11.954096 C82.3696288,11.954096 87.2651488,16.847632 87.2651488,22.939504 C87.2651488,29.031376 82.3696288,33.92888 76.2787488,33.92888 C70.1858848,33.92888 65.2913568,29.031376 65.2913568,22.939504" id="Fill-3" fill="#FFFFFF"></path>
                <mask id="mask-2" fill="white">
                    <use xlink:href="#path-1"></use>
                </mask>
                <g id="Clip-6"></g>
                <polygon id="Fill-5" fill="#FFFFFF" mask="url(#mask-2)" points="66.4888 96.994784 86.067904 96.994784 86.067904 44.457472 66.4888 44.457472"></polygon>
                <path d="M132.514336,96.9945856 L132.514336,67.9498176 C132.514336,62.5126656 129.579008,60.4453376 124.899744,60.4453376 C120.441696,60.4453376 118.15712,62.7299136 116.524288,64.5780096 L116.524288,96.9945856 L96.946176,96.9945856 L96.946176,44.4572736 L116.524288,44.4572736 L116.524288,50.4380416 C119.57072,46.9571136 125.336224,43.1498176 134.582656,43.1498176 C146.765408,43.1498176 152.095424,50.5491456 152.095424,59.6844736 L152.095424,96.9945856 L132.514336,96.9945856 Z" id="Fill-7" fill="#FFFFFF" mask="url(#mask-2)"></path>
                <path d="M146.002262,114.724701 L150.681526,100.257373 C152.854998,101.890205 154.163446,102.324701 157.207894,102.324701 C160.79695,102.324701 162.970422,99.7147488 162.970422,94.7101088 L162.970422,44.4573728 L182.553494,44.4573728 L182.553494,94.7101088 C182.553494,108.201309 175.91503,118.314749 160.686838,118.314749 C152.74687,118.314749 150.245046,117.338621 146.002262,114.724701" id="Fill-8" fill="#FFFFFF" mask="url(#mask-2)"></path>
                <path d="M161.776451,22.939504 C161.776451,16.847632 166.670979,11.954096 172.761859,11.954096 C178.852739,11.954096 183.746275,16.847632 183.746275,22.939504 C183.746275,29.031376 178.852739,33.92888 172.761859,33.92888 C166.670979,33.92888 161.776451,29.031376 161.776451,22.939504" id="Fill-9" fill="#FFFFFF" mask="url(#mask-2)"></path>
                <path d="M227.80159,77.416176 L227.80159,64.03608 C225.953494,61.751504 222.254326,60.55416 219.644374,60.55416 C214.314358,60.55416 209.852342,64.142224 209.852342,70.669584 C209.852342,77.196944 214.314358,81.00424 219.644374,81.00424 C222.254326,81.00424 225.953494,79.700752 227.80159,77.416176 Z M227.80159,96.994288 L227.80159,91.448016 C223.343542,96.44968 218.338902,98.298768 213.008886,98.298768 C200.28351,98.298768 189.83775,88.728944 189.83775,70.669584 C189.83775,53.264944 200.066262,43.14952 213.008886,43.14952 C218.338902,43.14952 223.562774,44.9996 227.695446,50.00424 L227.695446,44.456976 L247.38367,44.456976 L247.38367,96.994288 L227.80159,96.994288 Z" id="Fill-10" fill="#FFFFFF" mask="url(#mask-2)"></path>
                <polygon id="Fill-11" fill="#FFFF00" mask="url(#mask-2)" points="0.000992 19.716 247.400832 19.716 247.400832 0 0.000992 0"></polygon>
                <polygon id="Fill-12" fill="#FFFF00" mask="url(#mask-2)" points="0 50.189248 247.402816 50.189248 247.402816 30.473248 0 30.473248"></polygon>
            </g>
        </g>
    </g>
</svg>