<?xml version="1.0" encoding="UTF-8"?>
<svg width="202px" height="97px" viewBox="0 0 202 97" version="1.1" xmlns="http://www.w3.org/2000/svg" xmlns:xlink="http://www.w3.org/1999/xlink">
    <!-- Generator: Sketch 50.2 (55047) - http://www.bohemiancoding.com/sketch -->
    <title>4bad89a3dd667a1fb82472e434e00ca4</title>
    <desc>Created with Sketch.</desc>
    <defs>
        <polygon id="path-1" points="0 96.4415148 201.513584 96.4415148 201.513584 0 0 0"></polygon>
        <polygon id="path-3" points="0 96.4415148 201.513584 96.4415148 201.513584 0 0 0"></polygon>
        <polygon id="path-5" points="0 96.4415148 201.513584 96.4415148 201.513584 0 0 0"></polygon>
        <polygon id="path-7" points="0 96.4415148 201.513584 96.4415148 201.513584 0 0 0"></polygon>
        <polygon id="path-9" points="0 96.4415148 201.513584 96.4415148 201.513584 0 0 0"></polygon>
        <polygon id="path-11" points="0 96.4415148 201.513584 96.4415148 201.513584 0 0 0"></polygon>
        <polygon id="path-13" points="0 96.4415148 201.513584 96.4415148 201.513584 0 0 0"></polygon>
    </defs>
    <g id="Page-1" stroke="none" stroke-width="1" fill="none" fill-rule="evenodd">
        <g id="Desktop-HD" transform="translate(-97.000000, -50.000000)">
            <g id="4bad89a3dd667a1fb82472e434e00ca4" transform="translate(97.000000, 50.000000)">
                <path d="M30.0243727,79 L30.0243727,55.2656644 C30.0243727,50.8226202 27.6268549,49.1332744 23.811224,49.1332744 C20.1720478,49.1332744 18.3079414,51.0001474 16.9764367,52.5103447 L16.9764367,79 L1,79 L1,36.0684058 L16.9764367,36.0684058 L16.9764367,40.9556735 C19.4613724,38.1111848 24.1657523,35 31.7104056,35 C41.6509578,35 46,41.0464636 46,48.5115238 L46,79 L30.0243727,79 Z" id="Fill-1" fill="#FFFFFF" fill-rule="nonzero"></path>
                <path d="M53,17.9983749 C53,13.0083965 57.0093901,9 62.0004063,9 C66.9897973,9 71,13.0083965 71,17.9983749 C71,22.9883532 66.9897973,27 62.0004063,27 C57.0093901,27 53,22.9883532 53,17.9983749" id="Fill-3" fill="#FFFFFF" fill-rule="nonzero"></path>
                <g id="Fill-5-Clipped">
                    <mask id="mask-2" fill="white">
                        <use xlink:href="#path-1"></use>
                    </mask>
                    <g id="path-1"></g>
                    <polygon id="Fill-5" fill="#FFFFFF" fill-rule="nonzero" mask="url(#mask-2)" points="54.1562 79.0629752 70.103696 79.0629752 70.103696 36.2384436 54.1562 36.2384436"></polygon>
                </g>
                <g id="Fill-7-Clipped">
                    <mask id="mask-4" fill="white">
                        <use xlink:href="#path-3"></use>
                    </mask>
                    <g id="path-1"></g>
                    <path d="M107.935064,79.0628135 L107.935064,55.3876664 C107.935064,50.9557022 105.544192,49.2705693 101.732856,49.2705693 C98.101704,49.2705693 96.24088,51.1327867 94.910912,52.6392179 L94.910912,79.0628135 L78.964224,79.0628135 L78.964224,36.2382818 L94.910912,36.2382818 L94.910912,41.1133616 C97.39228,38.2759665 102.088376,35.1725404 109.619744,35.1725404 C119.542792,35.1725404 123.884176,41.2039254 123.884176,48.6503692 L123.884176,79.0628135 L107.935064,79.0628135 Z" id="Fill-7" fill="#FFFFFF" fill-rule="nonzero" mask="url(#mask-4)"></path>
                </g>
                <g id="Fill-8-Clipped">
                    <mask id="mask-6" fill="white">
                        <use xlink:href="#path-5"></use>
                    </mask>
                    <g id="path-1"></g>
                    <path d="M118.921197,93.5150924 L122.732533,81.7223965 C124.502861,83.0533604 125.568613,83.4075294 128.048365,83.4075294 C130.971709,83.4075294 132.742037,81.2800894 132.742037,77.2006769 L132.742037,36.2383627 L148.692765,36.2383627 L148.692765,77.2006769 C148.692765,88.1977057 143.285629,96.4414341 130.882021,96.4414341 C124.414789,96.4414341 122.377013,95.6457667 118.921197,93.5150924" id="Fill-8" fill="#FFFFFF" fill-rule="nonzero" mask="url(#mask-6)"></path>
                </g>
                <g id="Fill-9-Clipped">
                    <mask id="mask-8" fill="white">
                        <use xlink:href="#path-7"></use>
                    </mask>
                    <g id="path-1"></g>
                    <path d="M131.769529,18.6985873 C131.769529,13.7329437 135.756201,9.74409506 140.717321,9.74409506 C145.678441,9.74409506 149.664305,13.7329437 149.664305,18.6985873 C149.664305,23.6642309 145.678441,27.6563139 140.717321,27.6563139 C135.756201,27.6563139 131.769529,23.6642309 131.769529,18.6985873" id="Fill-9" fill="#FFFFFF" fill-rule="nonzero" mask="url(#mask-8)"></path>
                </g>
                <g id="Fill-10-Clipped">
                    <mask id="mask-10" fill="white">
                        <use xlink:href="#path-9"></use>
                    </mask>
                    <g id="path-1"></g>
                    <path d="M185.548069,63.1039418 L185.548069,52.197477 C184.042765,50.3352596 181.029733,49.3592733 178.903885,49.3592733 C174.562501,49.3592733 170.928117,52.2839977 170.928117,57.6046189 C170.928117,62.9252401 174.562501,66.0286662 178.903885,66.0286662 C181.029733,66.0286662 184.042765,64.9661592 185.548069,63.1039418 Z M185.548069,79.0625709 L185.548069,74.5416601 C181.916917,78.6186467 177.840557,80.1258865 173.499173,80.1258865 C163.134149,80.1258865 154.625909,72.3252737 154.625909,57.6046189 C154.625909,43.4176434 162.957197,35.1722978 173.499173,35.1722978 C177.840557,35.1722978 182.095485,36.6803462 185.461613,40.7597587 L185.461613,36.2380393 L201.497989,36.2380393 L201.497989,79.0625709 L185.548069,79.0625709 Z" id="Fill-10" fill="#FFFFFF" fill-rule="nonzero" mask="url(#mask-10)"></path>
                </g>
                <g id="Fill-11-Clipped">
                    <mask id="mask-12" fill="white">
                        <use xlink:href="#path-11"></use>
                    </mask>
                    <g id="path-1"></g>
                    <polygon id="Fill-11" fill="#FFFF00" fill-rule="nonzero" mask="url(#mask-12)" points="0.000808 16.0710252 201.511968 16.0710252 201.511968 0 0.000808 0"></polygon>
                </g>
                <g id="Fill-12-Clipped">
                    <mask id="mask-14" fill="white">
                        <use xlink:href="#path-13"></use>
                    </mask>
                    <g id="path-1"></g>
                    <polygon id="Fill-12" fill="#FFFF00" fill-rule="nonzero" mask="url(#mask-14)" points="0 40.9105635 201.513584 40.9105635 201.513584 24.8395383 0 24.8395383"></polygon>
                </g>
            </g>
        </g>
    </g>
</svg>