<?xml version="1.0" encoding="UTF-8"?>
<svg width="146px" height="146px" viewBox="0 0 146 146" version="1.1" xmlns="http://www.w3.org/2000/svg" xmlns:xlink="http://www.w3.org/1999/xlink">
    <!-- Generator: Sketch 50.2 (55047) - http://www.bohemiancoding.com/sketch -->
    <title>Group</title>
    <desc>Created with Sketch.</desc>
    <defs>
        <polygon id="path-1" points="0 0 146 0 146 146 0 146"></polygon>
    </defs>
    <g id="Page-1" stroke="none" stroke-width="1" fill="none" fill-rule="evenodd">
        <g id="Desktop-HD" transform="translate(-647.000000, -170.000000)">
            <g id="Group" transform="translate(647.000000, 170.000000)">
                <mask id="mask-2" fill="white">
                    <use xlink:href="#path-1"></use>
                </mask>
                <g id="Clip-2"></g>
                <path d="M121.065633,121.065633 C114.8217,127.309567 107.5509,132.2103 99.4576333,135.634 C98.6692333,135.967367 97.8735333,136.278833 97.0778333,136.583 L97.0778333,111.855467 L97.0681,105.385233 C97.0097,102.93 96.287,100.640233 95.0679,98.6911333 C105.589633,91.5931 112.5076,79.5627 112.5076,65.9165667 C112.5076,44.0968667 94.8197,26.4089667 73,26.4089667 C51.1827333,26.4089667 33.4924,44.0968667 33.4924,65.9165667 C33.4924,79.5627 40.4103667,91.5931 50.9321,98.6887 C49.6716333,100.708367 48.9392,103.085733 48.9246,105.635867 L41.3034,100.0173 C41.4494,99.7715333 41.5929667,99.5282 41.7316667,99.2873 C42.1988667,98.4624 42.5955,97.6618333 42.9021,96.9561667 C43.2111333,96.2480667 43.4301333,95.6324333 43.5664,95.192 C43.7051,94.7515667 43.7610667,94.4839 43.7610667,94.4839 C43.7610667,94.4839 43.5299,94.6274667 43.1649,94.9073 C42.7926,95.1871333 42.2913333,95.6032333 41.7316667,96.1337 C41.172,96.6641667 40.5563667,97.309 39.9407333,98.0317 C39.7704,98.2288 39.6025,98.4332 39.4346,98.6400333 L29.7913,91.3814 L25.7422333,96.7858333 L35.5680333,104.1856 C35.551,104.2148 35.5339667,104.241567 35.5193667,104.268333 C35.0497333,105.093233 34.6555333,105.891367 34.3489333,106.599467 C34.0399,107.305133 33.8209,107.920767 33.6822,108.363633 C33.5410667,108.801633 33.4851,109.0693 33.4851,109.0693 C33.4851,109.0693 33.7187,108.925733 34.0812667,108.643467 C34.4511333,108.363633 34.9548333,107.947533 35.5120667,107.417067 C36.0717333,106.8866 36.6898,106.241767 37.3054333,105.519067 C37.3151667,105.509333 37.3224667,105.4996 37.3322,105.487433 L48.8832333,113.775367 L48.9221667,136.583 C48.1264667,136.278833 47.3307667,135.967367 46.5448,135.634 C38.4491,132.2103 31.1807333,127.309567 24.9368,121.065633 C18.6928667,114.8217 13.7897,107.5509 10.366,99.4576333 C6.82306667,91.0796667 5.02726667,82.1785333 5.02726667,73 C5.02726667,63.8214667 6.82306667,54.9203333 10.366,46.5448 C13.7897,38.4491 18.6928667,31.1807333 24.9368,24.9368 C31.1807333,18.6904333 38.4491,13.7897 46.5448,10.366 C54.9203333,6.82306667 63.8214667,5.02483333 73,5.02483333 C82.1785333,5.02483333 91.0796667,6.82306667 99.4576333,10.366 C107.5509,13.7897 114.8217,18.6904333 121.065633,24.9368 C127.307133,31.1807333 132.2103,38.4491 135.634,46.5448 C139.176933,54.9203333 140.975167,63.8214667 140.975167,73 C140.975167,82.1785333 139.176933,91.0796667 135.634,99.4576333 C132.2103,107.5509 127.307133,114.8217 121.065633,121.065633 M52.0806333,67.4933667 C47.7395667,69.0044667 43.6686,68.2647333 42.9264333,63.8774333 C42.9264333,63.8774333 42.7001333,61.9113 42.8948,60.955 C43.0116,60.152 43.2330333,59.3806333 43.5420667,58.6603667 C46.8952,49.5524 58.8136667,42.8193667 73,42.8193667 C87.1887667,42.8193667 99.1048,49.5524 102.457933,58.6579333 C102.7694,59.3806333 102.990833,60.152 103.107633,60.9574333 C103.299867,61.9137333 103.073567,63.8774333 103.073567,63.8774333 C102.3314,68.2647333 98.1047,69.3938 93.9218,67.4933667 C85.0766333,63.4759333 64.0745333,63.3080333 52.0806333,67.4933667 M73,0 C32.6845333,0 0,32.6821 0,73 C0,104.8791 20.4375667,131.981567 48.9221667,141.931467 C56.4630667,144.564333 64.5636333,146 73,146 C81.4363667,146 89.5393667,144.564333 97.0778333,141.931467 C125.564867,131.981567 146,104.8791 146,73 C146,32.6821 113.3179,0 73,0" id="Fill-1" fill="#FFFFFF" mask="url(#mask-2)"></path>
            </g>
        </g>
    </g>
</svg>