<?xml version="1.0" encoding="UTF-8"?>
<svg width="138px" height="161px" viewBox="0 0 138 161" version="1.1" xmlns="http://www.w3.org/2000/svg" xmlns:xlink="http://www.w3.org/1999/xlink">
    <!-- Generator: Sketch 50.2 (55047) - http://www.bohemiancoding.com/sketch -->
    <title>Group</title>
    <desc>Created with Sketch.</desc>
    <defs>
        <polygon id="path-1" points="0 0.139410562 137.888566 0.139410562 137.888566 144.662573 0 144.662573"></polygon>
        <polygon id="path-3" points="0 0.0917270385 19.2968883 0.0917270385 19.2968883 19.3738365 0 19.3738365"></polygon>
        <polygon id="path-5" points="0.114762143 0.00282113226 19.4013424 0.00282113226 19.4013424 19.2921179 0.114762143 19.2921179"></polygon>
        <polygon id="path-7" points="0.165328697 0.139410562 100.056671 0.139410562 100.056671 87.6544934 0.165328697 87.6544934"></polygon>
        <polygon id="path-9" points="0.0359693356 0.133703237 52.3880443 0.133703237 52.3880443 5.64224872 0.0359693356 5.64224872"></polygon>
    </defs>
    <g id="Fix-bugs" stroke="none" stroke-width="1" fill="none" fill-rule="evenodd">
        <g id="My-handshake-long-Copy-3" transform="translate(-139.000000, -298.000000)">
            <g id="Group" transform="translate(139.000000, 298.000000)">
                <g id="Group-3" transform="translate(0.000000, 0.095683)">
                    <mask id="mask-2" fill="white">
                        <use xlink:href="#path-1"></use>
                    </mask>
                    <g id="Clip-2"></g>
                    <path d="M137.605489,75.6377295 C137.044791,75.0655114 135.83735,75.4371945 135.83735,75.4371945 C136.510658,71.0738555 133.366515,74.1474705 133.366515,74.1474705 C133.366515,74.1474705 133.29058,70.4078351 131.34612,72.1858487 C129.400954,73.9640974 128.350791,76.8778487 128.350791,76.8778487 C126.411973,74.5341997 123.615063,74.868738 122.280672,76.0510242 C122.099179,76.2146494 121.943312,76.3895591 121.820593,76.5785744 C120.806634,78.1466494 121.833053,78.9553717 122.652355,78.6883053 C123.152164,78.5249152 124.235711,78.5049322 124.930178,79.1293411 C124.934174,79.1312218 124.937936,79.1352184 124.940757,79.1389799 C125.044198,79.2327823 125.13753,79.3442167 125.219108,79.4685813 C125.482413,79.8715319 125.623939,80.4352865 125.531077,81.2287278 C125.370273,82.5943871 124.133915,83.3013138 123.311793,83.625508 C122.890034,83.791014 122.574304,83.8594262 122.574304,83.8594262 C122.574304,83.8594262 121.262951,81.7772014 120.217489,81.7844893 C118.126801,81.8009458 118.080958,85.5652661 119.989213,87.0364825 C119.993445,87.0400089 119.998147,87.0430651 120.002614,87.0465915 C104.249925,95.26006 96.6796733,87.2374876 94.624014,84.3921486 C100.279428,82.3324927 105.757346,78.9694773 110.122801,73.4776886 C115.931261,66.1719169 118.872753,56.0276239 118.864055,43.3259816 C118.85089,25.6121417 110.694784,12.537876 95.2749884,5.52056422 C84.2869441,0.517535264 72.8700889,0.13762385 69.6333189,0.139269506 C69.2663376,0.140209881 69.0079697,0.14397138 68.9087601,0.148908348 C68.7693496,0.14397138 68.5058095,0.140209881 68.1296596,0.140209881 C64.7461911,0.143266099 52.832583,0.57066644 41.6009816,5.9804075 C26.7865523,13.1138555 18.9614586,26.0522371 18.9727431,43.3965097 C18.9859083,62.137709 25.3249748,75.104537 37.8096256,81.9462337 C39.597278,82.9256341 41.4352405,83.7369424 43.2901298,84.4093104 C41.2589203,87.2398385 33.7004228,95.328002 17.9002457,87.11806 C17.9044773,87.1147687 17.908709,87.1119475 17.9129407,87.1086562 C19.820491,85.6336784 19.7692405,81.8693581 17.6783172,81.8568981 C16.6326204,81.8500804 15.3231486,83.9344211 15.3231486,83.9344211 C15.3231486,83.9344211 15.0095336,83.8669492 14.5866,83.7016784 C13.7647124,83.3793649 12.5262388,82.6731434 12.3640242,81.3086596 C12.2688112,80.5149833 12.4103376,79.9514637 12.6736426,79.5473376 C12.7552201,79.4229731 12.8464365,79.3117738 12.9512882,79.2167959 C12.9550497,79.2130344 12.9576358,79.2090378 12.9625727,79.2073922 C13.6542184,78.5827482 14.7398811,78.6008504 15.2406307,78.7633002 C16.0589918,79.0294262 17.0832951,78.2188232 16.0672201,76.652629 C15.0523206,75.0836136 11.7374995,74.2939339 9.53819796,76.9615421 C9.53819796,76.9615421 8.48427291,74.0496716 6.53605145,72.2733036 C4.58782998,70.4981111 4.51753697,74.2377465 4.51753697,74.2377465 C4.51753697,74.2377465 1.36986746,71.1690685 2.05022862,75.531232 C2.05022862,75.531232 0.841376831,75.1604893 0.280913458,75.7345881 C-0.12979523,76.153525 -0.196326746,77.0776784 0.816691993,79.0353036 C1.40301567,80.1682201 2.06151312,81.32206 2.7745523,82.4554467 C4.93647394,85.8955727 7.60549267,89.1452729 10.3130668,90.9648981 C11.3843888,92.3011707 16.2308453,97.666244 27.2160685,100.853879 C31.8626954,101.905689 37.5279833,102.235995 44.3177244,101.112482 C44.2758777,102.336145 44.0438402,108.73516 43.496307,117.145167 L43.4960719,117.145167 C43.4960719,117.145167 42.7985489,117.715034 42.8001945,119.482234 C42.8001945,119.482234 41.6400072,121.562578 43.0832474,122.766258 C42.5258402,123.046724 26.6363274,131.170857 28.5448181,139.580629 C28.6397959,140.002387 28.7653359,140.42344 28.9552917,140.846373 C30.0404842,143.264077 33.7528487,144.240186 38.5929578,144.379832 C42.1938879,144.483273 46.4175813,144.128046 50.659847,143.548305 C57.3106477,142.642724 63.9945966,141.199014 68.353939,140.169539 C68.3546443,140.169539 68.3555847,140.169304 68.3562899,140.169068 C78.3842116,142.584186 105.739714,148.420622 109.020212,141.093457 C109.207346,140.668643 109.332886,140.247825 109.426924,139.823716 C111.284634,131.594496 96.0931145,123.657263 94.9218777,123.061065 C95.0718675,122.845484 96.0435097,121.327249 95.3737278,119.098091 C95.3737278,119.098091 95.7954859,117.981396 94.4721434,117.108963 C93.9130906,108.706714 93.6732951,102.31193 93.6298027,101.082155 C100.41014,102.191327 106.066965,101.852557 110.707244,100.794871 C121.687765,97.5924245 126.526934,92.2202985 127.596375,90.8823802 C130.301128,89.0587584 132.96521,85.806002 135.123135,82.3623496 C135.833823,81.2287278 136.49044,80.0732422 137.075118,78.9403257 C138.086256,76.9805847 138.017844,76.0566664 137.605489,75.6377295" id="Fill-1" fill="#191919" mask="url(#mask-2)"></path>
                </g>
                <path d="M46.6244637,103.168659 C46.6244637,103.168659 47.7658436,99.1325704 49.6505898,96.1586351 C51.5381571,93.1858753 48.0425489,92.2650133 48.0425489,92.2650133 C48.0425489,92.2650133 48.6867056,93.1080593 47.4425898,95.1590167 C47.4425898,95.1590167 47.6823853,93.7106044 46.7177959,92.6261172 C46.7177959,92.6261172 46.3526954,93.7818378 45.1525421,95.2565806 L44.3247772,100.995923 C44.3247772,100.995923 43.9542695,112.66856 42.828876,126.327269 C42.828876,126.327269 45.0051383,112.758601 48.2898675,101.385943 C48.2898675,101.385943 47.4874927,102.063248 46.6244637,103.168659" id="Fill-4" fill="#191919"></path>
                <path d="M93.6223032,100.961787 L89.8323578,80.4613819 L68.9565077,78.2726596 L47.2709949,80.5765779 L46.179925,88.1336647 C50.0648484,90.5868675 60.5436797,95.9143257 79.6680818,97.0234978 C80.4394242,97.0700463 81.2236968,97.1078964 82.0239557,97.139399 C82.0239557,97.139399 77.7946201,98.7218147 69.81554,98.4613308 C69.81554,98.4613308 76.6182112,100.7053 83.3125043,100.913358 C83.3125043,100.913358 81.6656729,102.12221 82.7111346,103.366326 C82.7111346,103.366326 79.3370698,103.68958 78.133155,103.608707 C78.133155,103.608707 80.9444055,104.93346 83.3153254,105.73466 C83.3153254,105.73466 85.4624361,112.963086 80.5395741,119.927501 L64.1208654,121.245672 C64.1208654,121.245672 66.1753492,121.887242 69.118017,123.232919 L94.8405588,122.38235 C93.9359182,110.480731 93.6223032,100.961787 93.6223032,100.961787" id="Fill-6" fill="#191919"></path>
                <path d="M70.0208709,124.62418 C70.0208709,124.62418 70.9713547,124.77605 72.5848027,124.972824 C72.1021554,124.711634 71.6307925,124.46267 71.1718896,124.230633 L70.0208709,124.62418 Z" id="Fill-8" fill="#282828"></path>
                <path d="M78.2349271,122.931693 L69.1179935,123.232848 C69.7602695,123.529301 70.4561468,123.868541 71.1717721,124.230586 L73.8593632,123.31184 L78.2349271,122.931693 Z" id="Fill-10" fill="#282828"></path>
                <path d="M95.0372382,124.836211 L92.1293642,122.105597 C83.7553267,122.955461 76.8529758,125.495883 72.5982501,124.97374 C67.9252927,122.432378 64.1207714,121.245625 64.1207714,121.245625 L80.5394801,119.927454 C85.4623421,112.963274 83.3154664,105.734848 83.3154664,105.734848 C80.9443114,104.933413 78.133061,103.60866 78.133061,103.60866 C79.3369758,103.689533 82.7110405,103.366279 82.7110405,103.366279 C81.665814,102.122163 83.3126453,100.913546 83.3126453,100.913546 C76.6183523,100.705253 69.8156811,98.4615189 69.8156811,98.4615189 C77.7947612,98.7217676 82.0238617,97.139352 82.0238617,97.139352 C81.2238378,97.1080845 80.4395652,97.0702344 79.6679877,97.0234508 C60.5435857,95.9145138 50.0649894,90.5875257 46.179831,88.1336177 L45.1527066,95.2567216 C46.35286,93.7819789 46.7177254,92.6260232 46.7177254,92.6260232 C47.6823148,93.7105104 47.4427543,95.1591578 47.4427543,95.1591578 C48.6868702,93.1079652 48.0427135,92.2649193 48.0427135,92.2649193 C48.0427135,92.2649193 51.5380865,93.1860164 49.6505193,96.1585411 C47.7660082,99.1324763 46.6243932,103.168565 46.6243932,103.168565 C47.4874221,102.063389 48.2897969,101.385849 48.2897969,101.385849 C45.0053029,112.758742 42.8290405,126.327175 42.8290405,126.327175 L68.9963796,136.028551 L81.6011632,131.334671 L95.1524341,126.290265 C95.1115278,125.797744 95.0764988,125.324735 95.0372382,124.836211" id="Fill-12" fill="#282828"></path>
                <path d="M79.6679877,97.0235213 C60.5435857,95.9143492 50.0649894,90.586891 46.179831,88.1336882 C50.0649894,90.5875963 60.5435857,95.9143492 79.6679877,97.0235213" id="Fill-16" fill="#191919"></path>
                <path d="M75.0958385,127.942809 L71.383709,128.027443 C71.383709,128.027443 62.117491,127.264094 53.6574092,125.693198 C52.9377874,125.773129 52.2280395,125.830022 51.5352184,125.87563 C51.2679169,126.960353 50.954537,128.19577 50.8927073,128.262066 C50.781508,128.379143 49.5557295,133.430366 49.5557295,133.430366 L46.9363155,135.779422 C46.9363155,135.779422 45.4481724,135.080724 42.2114024,134.953773 C42.2114024,134.953773 44.4055319,129.594578 46.9297329,127.206261 L46.9247959,127.20532 C44.9368436,127.191215 42.4051196,126.956591 42.4051196,126.956591 C39.5423836,126.839514 40.5746801,127.853474 40.5746801,127.853474 C38.8201758,128.615647 37.3242746,129.40086 36.0432491,130.187484 C33.378462,131.865818 25.0949356,142.635695 38.5930753,144.475538 C42.1940055,144.57898 46.4174637,144.223518 50.6599646,143.644012 C49.8834501,143.170533 49.0794296,142.623235 48.4653649,142.072881 C48.4653649,142.072881 57.4511162,142.372155 64.6891809,139.342503 C64.6891809,139.342503 66.3571707,139.792942 68.3538215,140.265245 C71.3759509,139.552676 73.2825608,139.036411 73.2825608,139.036411 C73.2825608,139.036411 82.9470276,142.079463 89.509198,141.743985 C89.509198,141.743985 78.2148266,135.870639 75.0958385,127.942809" id="Fill-18" fill="#282828"></path>
                <path d="M42.2112848,134.953726 C45.4480549,135.080912 46.936433,135.779611 46.936433,135.779611 L49.5556119,133.430319 C49.5556119,133.430319 50.7813905,128.379096 50.8925898,128.262019 C50.9544194,128.195723 51.2680344,126.960306 51.5351009,125.875583 C47.3506681,126.143825 43.8741026,125.866415 43.8741026,125.866415 C45.5221094,126.823246 47.9456903,127.191168 47.9456903,127.191168 C47.6379526,127.205273 47.290014,127.209035 46.9249135,127.205273 L46.9296153,127.206214 C44.4054143,129.59453 42.2112848,134.953726 42.2112848,134.953726" id="Fill-20" fill="#191919"></path>
                <path d="M64.6891339,139.34255 C57.4510692,142.372202 48.4653179,142.072928 48.4653179,142.072928 C49.0793826,142.623282 49.8834031,143.17058 50.6599175,143.644059 C57.3104831,142.738243 63.9946671,141.294533 68.3537744,140.265292 C66.3571237,139.792989 64.6891339,139.34255 64.6891339,139.34255" id="Fill-22" fill="#191919"></path>
                <path d="M53.6572917,125.693127 C51.8155676,125.352006 52.7639356,125.03557 51.1018232,124.615693 C56.7306716,123.600558 59.4013359,121.978412 63.488675,120.644255 L49.515646,120.653424 L42.9635847,121.960309 C43.0084876,122.252061 43.0531554,122.556037 43.0978232,122.854606 C43.0341128,122.884933 26.6060003,131.13343 28.5448181,139.676265 C28.6397959,140.098023 28.7653359,140.519076 28.9552917,140.94201 C30.0404842,143.359713 33.7528487,144.335822 38.5929578,144.475468 C25.1006954,142.635625 33.3727022,131.87374 36.0403104,130.189529 C37.3225114,129.40173 38.8172371,128.616752 40.5745625,127.853403 C40.5745625,127.853403 39.5422661,126.839444 42.405002,126.956521 C42.405002,126.956521 45.952801,127.284241 47.9456903,127.191379 C47.9456903,127.191379 45.5221094,126.823222 43.8741026,125.866391 C43.8741026,125.866391 48.5936085,126.244657 53.6572917,125.693127" id="Fill-24" fill="#191919"></path>
                <path d="M80.5063083,130.187554 C80.5063083,130.187554 78.673753,129.608754 76.5727206,130.752249 C76.5727206,130.752249 78.4924957,131.385827 80.5063083,130.187554" id="Fill-26" fill="#282828"></path>
                <path d="M97.3798998,128.114874 C97.3798998,128.114874 98.4112559,127.098799 95.5494603,127.219637 C95.5494603,127.219637 92.0028368,127.554176 90.0087721,127.461079 C90.0087721,127.461079 92.4314126,127.092217 94.078479,126.130448 C94.078479,126.130448 89.3592082,126.518118 84.295525,125.975522 C75.8361486,127.557937 66.571106,128.332571 66.571106,128.332571 L62.8596818,128.25358 C59.7529186,136.184465 48.4653649,142.072857 48.4653649,142.072857 C55.0280055,142.401048 64.6891809,139.342479 64.6891809,139.342479 C64.6891809,139.342479 104.993409,150.18359 109.020094,141.18914 C109.207229,140.764326 109.332769,140.343508 109.426806,139.919399 C109.42516,139.313092 109.098145,133.180438 97.3798998,128.114874" id="Fill-28" fill="#282828"></path>
                <path d="M94.8502446,123.120638 C94.8949124,122.821364 94.9393451,122.516447 94.9833077,122.225401 L86.9137165,120.627704 L73.5399414,120.637343 C77.7170862,122.026747 83.535185,123.739404 89.5937847,124.824832 C87.9321424,125.245885 86.137202,125.629558 84.295478,125.975616 C89.3591612,126.518212 94.078432,126.130542 94.078432,126.130542 C92.4313656,127.092311 90.008725,127.460938 90.008725,127.460938 C92.0030249,127.55427 95.5496484,127.219732 95.5496484,127.219732 C98.4112089,127.098893 97.3798528,128.114968 97.3798528,128.114968 C109.098098,133.180532 109.425113,139.312951 109.426759,139.919493 C111.355233,131.377364 94.913955,123.150025 94.8502446,123.120638" id="Fill-30" fill="#191919"></path>
                <path d="M62.8595877,128.253674 C62.8595877,128.253674 53.220276,128.328668 48.4652709,142.072951 C48.4652709,142.072951 61.6441533,137.668941 62.8595877,128.253674" id="Fill-32" fill="#191919"></path>
                <path d="M62.8595877,128.253674 C62.8595877,128.253674 64.4916082,129.153612 65.9722283,130.591445 C65.9722283,130.591445 77.9913935,131.09149 84.5766031,129.285735 C84.5766031,129.285735 74.5197649,129.764856 62.8595877,128.253674" id="Fill-34" fill="#191919"></path>
                <path d="M79.607263,129.698324 C79.607263,129.698324 80.7152596,129.139507 81.7941046,128.392144 C81.7941046,128.392144 77.8736821,129.372249 75.569999,129.659299 L79.607263,129.698324 Z" id="Fill-36" fill="#191919"></path>
                <path d="M57.4511632,130.505189 C59.4699128,131.700406 61.3875721,131.063772 61.3875721,131.063772 C59.2844239,129.923097 57.4511632,130.505189 57.4511632,130.505189" id="Fill-38" fill="#141414"></path>
                <path d="M54.5486494,133.128083 C57.1640668,134.464355 59.5476818,133.935159 59.5476818,133.935159 C56.8241213,132.648962 54.5486494,133.128083 54.5486494,133.128083" id="Fill-40" fill="#141414"></path>
                <path d="M52.3211131,135.897534 C54.5782477,137.148232 56.6821012,136.554856 56.6821012,136.554856 C54.3321046,135.356583 52.3211131,135.897534 52.3211131,135.897534" id="Fill-42" fill="#141414"></path>
                <path d="M94.4718848,117.204599 C94.4718848,117.204599 86.6959257,119.547308 68.984907,119.559533 C51.275769,119.571993 43.4960484,117.240803 43.4960484,117.240803 C43.4960484,117.240803 42.7985254,117.810906 42.800171,119.57787 C42.800171,119.57787 41.6294044,121.676316 43.1006208,122.87741 C43.1006208,122.87741 53.4720143,125.301931 68.9886685,125.291352 C84.5060279,125.279832 94.9023414,123.184207 94.9023414,123.184207 C94.9023414,123.184207 96.0980279,121.603907 95.3737043,119.193727 C95.3737043,119.193727 95.7954624,118.077032 94.4718848,117.204599" id="Fill-44" fill="#141414"></path>
                <path d="M53.8190361,120.32086 C53.8190361,120.32086 47.9322899,124.985119 44.4025932,134.252277 C44.4025932,134.252277 45.9041366,134.890792 46.9761639,137.035081 C46.9761639,137.035081 48.6081843,135.052771 47.6736869,138.024356 C47.6736869,138.024356 48.0481911,138.505357 48.5576392,139.869841 C48.5576392,139.869841 50.9600617,128.81362 57.3807056,121.015562 L53.8190361,120.32086 Z" id="Fill-46" fill="#141414"></path>
                <path d="M54.811061,122.260501 C54.811061,122.260501 57.3827509,124.508466 58.5535175,133.42369 C58.5535175,133.42369 59.4699128,131.897226 61.6823796,130.610558 C61.6823796,130.610558 60.1159503,127.679645 62.9293165,129.925495 C62.9293165,129.925495 63.8927305,129.645969 64.8963455,129.482579 C64.8963455,129.482579 63.4479332,124.45416 57.3796947,120.647993 L54.811061,122.260501 Z" id="Fill-48" fill="#141414"></path>
                <path d="M52.9560307,118.962771 C52.9560307,118.962771 53.3230119,117.950692 55.3311823,118.190018 C55.3311823,118.190018 57.4587802,117.01737 58.825615,119.18799 C58.825615,119.18799 59.5875537,121.760856 58.4661567,124.895125 C58.4661567,124.895125 56.499833,125.755098 54.4916627,124.967299 C54.4916627,124.967299 53.6048893,125.276212 52.6424157,124.607135 C52.6424157,124.607135 51.5170221,121.590648 52.9560307,118.962771" id="Fill-50" fill="#141414"></path>
                <path d="M53.2713618,118.572233 C53.2713618,118.572233 52.729706,119.236373 52.353321,120.651637 C52.353321,120.651637 51.4820637,119.010213 52.220493,117.349981 C52.9589223,115.687868 53.2713618,118.572233 53.2713618,118.572233" id="Fill-52" fill="#282828"></path>
                <path d="M52.5282072,128.764039 C52.5282072,128.764039 54.1383639,125.257146 55.6533077,123.32397 C55.6533077,123.32397 55.1607864,125.435582 55.0827353,128.298318 L52.5282072,128.764039 Z" id="Fill-54" fill="#282828"></path>
                <path d="M64.0961336,127.650212 C64.0961336,127.650212 63.3664027,125.98998 60.5436327,123.076934 C60.5436327,123.076934 63.4338746,124.168944 65.7650637,126.766259 C68.0962528,129.359813 64.0961336,127.650212 64.0961336,127.650212" id="Fill-56" fill="#282828"></path>
                <path d="M44.6784051,97.8076528 C44.6784051,97.8076528 40.0195533,101.058764 27.2161155,100.94968 C32.245475,102.088004 38.4667595,102.382576 46.0172637,100.901956 L46.7672126,98.7778845 L44.6784051,97.8076528 Z" id="Fill-58" fill="#191919"></path>
                <path d="M43.8684133,83.6081346 C43.8684133,83.6081346 36.0430845,98.335109 15.0837761,85.6266491 C15.0837761,85.6266491 12.1032583,87.2621959 10.7425359,89.1622232 L11.721231,90.8461993 L12.9691083,89.4396337 L16.8286416,87.8496951 C32.6713707,98.0320733 46.0876978,88.0415315 46.0876978,88.0415315 C48.0740044,90.7284174 46.6244167,90.491678 46.6244167,90.491678 L46.6255922,92.5329966 C46.1988971,95.8906048 44.6783111,97.8075588 44.6783111,97.8075588 L46.7671186,98.7780256 L51.8963928,84.2325434 L43.8684133,83.6081346 Z" id="Fill-60" fill="#191919"></path>
                <path d="M46.0878153,88.0416256 C46.0878153,88.0416256 32.6712532,98.0319322 16.828524,87.849554 L12.9689908,89.4394927 L11.7213486,90.8462934 L10.7424184,89.1620821 C10.37003,89.681169 10.1114269,90.2197687 10.0773383,90.7510804 C10.0773383,90.7510804 14.5963094,97.2876256 27.216139,100.94968 C40.0195768,101.058764 44.6784286,97.8076528 44.6784286,97.8076528 C44.6784286,97.8076528 46.1987796,95.8906988 46.6254746,92.5328555 L46.6245342,90.491537 C46.6245342,90.491537 48.0738869,90.7282763 46.0878153,88.0416256" id="Fill-62" fill="#282828"></path>
                <g id="Group-66" transform="translate(0.000000, 71.799261)">
                    <mask id="mask-4" fill="white">
                        <use xlink:href="#path-3"></use>
                    </mask>
                    <g id="Clip-65"></g>
                    <path d="M17.6781997,10.1532266 C16.632738,10.146644 15.3232661,12.2307496 15.3232661,12.2307496 C15.3232661,12.2307496 15.1161486,12.6995264 14.637968,13.012201 C14.637968,13.012201 14.6704109,12.6021976 14.5864825,11.9980068 C13.7645949,11.6759284 12.5263564,10.969707 12.3639066,9.60498807 C12.2689288,8.81131175 12.4102201,8.24802726 12.673525,7.84390119 C12.7553376,7.71930153 12.846554,7.60833731 12.9511707,7.51335945 C12.9551673,7.50936286 12.9577533,7.50560136 12.9624552,7.50372061 C13.6543359,6.87931175 14.7397635,6.89741397 15.2405131,7.05986371 C16.0588743,7.32598978 17.0831775,6.51538671 16.0673376,4.94895741 C15.0522031,3.37994208 11.7373819,2.59049744 9.53808041,5.25787053 C9.53808041,5.25787053 8.48439046,2.34623509 6.53616899,0.569867121 C4.58771244,-1.20532538 4.51741942,2.53407496 4.51741942,2.53407496 C4.51741942,2.53407496 1.36998501,-0.534603066 2.05011107,3.82779557 C2.05011107,3.82779557 0.841259284,3.45705281 0.280795911,4.03091652 C-0.129912777,4.45008859 -0.196209199,5.37400681 0.81680954,7.33163203 C1.40313322,8.46454855 2.06163066,9.61838842 2.77443475,10.7520102 C4.98149438,14.2636048 7.71657445,17.5774855 10.4819816,19.3738365 L11.7213956,19.0470562 L17.2002542,17.6014651 C17.2002542,17.6014651 17.0034807,16.98646 16.828571,16.0503169 C17.1993138,15.8831652 17.56606,15.6729915 17.9130583,15.4052198 C19.8203734,13.9300068 19.769123,10.1656865 17.6781997,10.1532266" id="Fill-64" fill="#282828" mask="url(#mask-4)"></path>
                </g>
                <path d="M14.638062,84.8113911 C15.1160075,84.4987165 15.3233601,84.0299397 15.3233601,84.0299397 C15.3233601,84.0299397 15.0097451,83.9627029 14.5865765,83.797432 C14.6705049,84.4016228 14.638062,84.8113911 14.638062,84.8113911" id="Fill-67" fill="#191919"></path>
                <path d="M93.240276,97.7734467 C93.240276,97.7734467 97.9026542,101.017975 110.707032,100.890554 C105.678613,102.036871 99.4575639,102.340142 91.9049438,100.869631 L91.1531141,98.7464995 L93.240276,97.7734467 Z" id="Fill-69" fill="#191919"></path>
                <path d="M94.0309666,83.572894 C94.0309666,83.572894 101.875338,98.2895244 122.81772,85.5507373 C122.81772,85.5507373 125.799883,87.1825227 127.164837,89.0804341 L126.185672,90.766291 L124.936854,89.3616061 L121.076381,87.7766044 C105.247052,97.9806112 91.8166191,88.0091121 91.8166191,88.0091121 C89.8340739,90.6990542 91.284367,90.460199 91.284367,90.460199 L91.2853073,92.5015175 C91.7176446,95.8584204 93.2403465,97.7734937 93.2403465,97.7734937 L91.1531847,98.7465465 L86.0029871,84.2088225 L94.0309666,83.572894 Z" id="Fill-71" fill="#191919"></path>
                <path d="M91.816525,88.0091356 C91.816525,88.0091356 105.246958,97.9806348 121.076522,87.7766279 L124.936995,89.3616296 L126.185813,90.7663145 L127.164743,89.0804576 C127.537132,89.5993094 127.795499,90.1372037 127.831939,90.6685155 C127.831939,90.6685155 123.321196,97.2118784 110.707244,100.890389 C97.9026307,101.01781 93.2402525,97.7735172 93.2402525,97.7735172 C93.2402525,97.7735172 91.7177857,95.858444 91.2852133,92.5015411 L91.284508,90.4602225 C91.284508,90.4602225 89.8339799,90.6988426 91.816525,88.0091356" id="Fill-73" fill="#282828"></path>
                <g id="Group-77" transform="translate(118.487223, 71.799261)">
                    <mask id="mask-6" fill="white">
                        <use xlink:href="#path-5"></use>
                    </mask>
                    <g id="Clip-76"></g>
                    <path d="M19.1182661,3.93415196 C18.5575676,3.3619339 17.3501264,3.73361704 17.3501264,3.73361704 C18.0234348,-0.629721976 14.8792917,2.44389302 14.8792917,2.44389302 C14.8792917,2.44389302 14.8033564,-1.29574242 12.8588964,0.48227121 C10.9137312,2.26051993 9.86356763,5.17427121 9.86356763,5.17427121 C10.1978709,6.76138876 10.0088555,8.05111278 10.0088555,8.05111278 C8.6526,3.23850971 3.80567325,4.34556593 3.79344838,4.34744668 C3.61195605,4.51107189 3.45608893,4.6859816 3.33337002,4.87499693 C2.3194109,6.44307189 3.34582998,7.25179421 4.16513152,6.98472777 C4.66494072,6.82133765 5.74848756,6.80135468 6.44295434,7.42576354 C6.44695094,7.42764429 6.45071244,7.43164089 6.45353356,7.43540239 C6.55697479,7.52920477 6.65030698,7.64063918 6.7318845,7.76500375 C6.99518944,8.16795434 7.13671584,8.73170903 7.04385383,9.52515026 C6.88304974,10.8908095 5.64669199,11.5977363 4.82456934,11.9219305 C4.74181635,12.5263564 4.77331891,12.9361247 4.77331891,12.9361247 C4.2963138,12.6234501 4.08708041,12.1558487 4.08708041,12.1558487 C4.08708041,12.1558487 2.77572777,10.0736239 1.7302661,10.0809118 C-0.360422147,10.0973683 -0.406265417,13.8616886 1.50199012,15.3329049 C1.84992879,15.6009118 2.2187908,15.8108504 2.58929847,15.9772968 C2.41438876,16.9141451 2.2187908,17.5293853 2.2187908,17.5293853 L7.69858978,18.9669833 L8.9398845,19.2921179 C11.7024705,17.4920055 14.4328487,14.1743632 16.6359118,10.6587721 C17.3466,9.52515026 18.0032167,8.36966474 18.5878947,7.23674821 C19.5990327,5.27700716 19.5306204,4.35308893 19.1182661,3.93415196" id="Fill-75" fill="#282828" mask="url(#mask-6)"></path>
                </g>
                <path d="M128.496079,79.8504204 C128.496079,79.8504204 128.685094,78.5606964 128.350791,76.9735789 C126.411973,74.6299298 123.615063,74.9644681 122.280672,76.1467543 C122.292896,76.1448736 127.139823,75.0378174 128.496079,79.8504204" id="Fill-78" fill="#191919"></path>
                <path d="M123.260519,84.7352678 C122.783513,84.4225932 122.574515,83.9549918 122.574515,83.9549918 C122.574515,83.9549918 122.890011,83.8865796 123.311769,83.7213087 C123.229016,84.3254995 123.260519,84.7352678 123.260519,84.7352678" id="Fill-80" fill="#191919"></path>
                <g id="Group-84" transform="translate(18.807496, 0.095683)">
                    <mask id="mask-8" fill="white">
                        <use xlink:href="#path-7"></use>
                    </mask>
                    <g id="Clip-83"></g>
                    <path d="M76.4675867,5.52047019 C65.4793073,0.51767632 54.0624521,0.137529813 50.8256821,0.139410562 C50.4589359,0.140350937 50.200568,0.144112436 50.1013584,0.14881431 C49.9617128,0.144112436 49.6984078,0.140350937 49.3220228,0.140350937 C45.9385543,0.143172061 34.0249462,0.570807496 22.7935799,5.98031346 C7.9791506,13.1137615 0.153821806,26.0521431 0.165341397,43.3964157 C0.178506644,62.137615 6.51733799,75.1044429 19.0022239,81.9461397 C29.4450859,87.6673799 41.6031915,87.6589165 48.8647656,87.6542147 L51.4042477,87.6520988 C61.4222954,87.6455162 80.0645203,87.6323509 91.3151642,73.4775945 C97.1238593,66.1720579 100.065117,56.0277649 100.056653,43.3261227 C100.043253,25.6120477 91.8873823,12.538017 76.4675867,5.52047019" id="Fill-82" fill="#282828" mask="url(#mask-8)"></path>
                </g>
                <path d="M36.9499114,37.0561503 C36.9499114,37.0561503 37.1988756,36.9964365 37.666477,36.8889986 C38.1350187,36.7947261 38.8210221,36.6238129 39.6955707,36.4757039 C41.4439625,36.1362286 43.9406576,35.7255199 46.9364566,35.3625353 C49.9339012,34.9986102 53.4292743,34.6784126 57.1754923,34.4644773 C59.0487189,34.3629169 60.9828348,34.2669986 62.9500988,34.2211554 C64.9171278,34.157445 66.9140136,34.1489816 68.9106644,34.1358164 C70.9103714,34.1489816 72.9081976,34.1605012 74.8752266,34.2223308 C76.8406099,34.2735813 78.7766065,34.3553939 80.649833,34.4654177 C84.395816,34.6755915 87.8916593,34.9910872 90.8879284,35.3491349 C93.8865486,35.7038913 96.3830085,36.1087227 98.1318705,36.4404399 C99.0050085,36.5876085 99.6933629,36.7549952 100.160729,36.8462116 C100.630446,36.9534143 100.879411,37.0114825 100.879411,37.0114825 C106.617578,38.3277721 110.219448,44.1258879 108.925257,49.9602082 C107.991935,54.1639186 104.764569,57.2401196 100.894692,58.1409986 C100.894692,58.1409986 100.644787,58.2000072 100.175775,58.307445 C99.708644,58.4005421 99.0202896,58.5686341 98.1478569,58.7141571 C96.39923,59.0486954 93.90277,59.4563479 90.9050903,59.8174518 C87.9095264,60.1804365 84.4141533,60.5008692 80.6677002,60.7155097 C78.7944736,60.8297652 76.8596525,60.9122831 74.8933288,60.9635336 C72.9270051,61.0331213 70.9284736,61.0451111 68.929707,61.0615676 C66.9321158,61.050048 64.9354651,61.047462 62.9689063,60.9825761 C61.0018773,60.9437857 59.0668211,60.8476324 57.1945349,60.748893 C53.4483169,60.5398947 49.9508279,60.2253394 46.9543237,59.8642354 C43.9580545,59.5059526 41.460184,59.1001809 39.7115571,58.7635267 C38.8372436,58.6154177 38.1500647,58.4452099 37.681523,58.3521128 C37.2141567,58.2456153 36.9649574,58.1868419 36.9649574,58.1868419 C31.2265554,56.8552712 27.6352641,51.043755 28.9447359,45.2084944 C29.8839353,41.025002 33.0979012,37.9626716 36.9499114,37.0561503" id="Fill-85" fill="#F8DBA8"></path>
                <path d="M79.6575496,50.1123373 C79.6575496,50.1123373 79.9455394,50.0324055 80.4519312,49.9139182 C80.9594985,49.8053049 81.6819414,49.6238126 82.5524934,49.451724 C84.295478,49.0974378 86.6257267,48.6973083 88.9674951,48.3733492 C91.3092634,48.0517411 93.6594951,47.8030119 95.4299857,47.6765315 C96.3137029,47.6062385 97.0549533,47.5871959 97.5719244,47.5556934 C98.0910112,47.532184 98.3872293,47.532184 98.3872293,47.532184 L98.7770147,50.6988961 C98.7770147,50.6988961 98.4883196,50.7708348 97.9798119,50.8745111 C97.4703639,50.9694889 96.7469806,51.130293 95.8717267,51.2755809 C94.1240402,51.5816729 91.7843877,51.9103339 89.4329806,52.1651755 C87.0836893,52.4160204 84.7249942,52.5937513 82.9476859,52.670862 C82.0609124,52.7145894 81.317076,52.7145894 80.7982242,52.7305758 C80.2770215,52.7392743 79.979863,52.7317513 79.979863,52.7317513 L79.6575496,50.1123373 Z" id="Fill-87" fill="#141414"></path>
                <path d="M57.8920814,52.7467973 C57.8920814,52.7467973 57.5937475,52.7543203 57.0748957,52.7477376 C56.556044,52.7317513 55.8107969,52.7333969 54.9240235,52.6899046 C53.1481257,52.615615 50.7882552,52.4416457 48.4380235,52.1936218 C46.0877918,51.9427768 43.7469639,51.6167019 41.998337,51.3136661 C41.122848,51.1690835 40.3987595,51.0094549 39.8893114,50.9151823 C39.3808037,50.8126814 39.0921087,50.7405077 39.0921087,50.7405077 L39.4760167,47.5740307 C39.4760167,47.5740307 39.7743506,47.5728552 40.292262,47.5956593 C40.809233,47.6271618 41.5516589,47.6443237 42.4353761,47.7134412 C44.2058668,47.8371005 46.5570388,48.0834787 48.8978668,48.4017956 C51.2403404,48.7219932 53.5717646,49.1181261 55.3147492,49.4707666 C56.1862416,49.6419148 56.9093898,49.8224668 57.4169571,49.9299046 C57.9226436,50.0476865 58.2115738,50.1276184 58.2115738,50.1276184 L57.8920814,52.7467973 Z" id="Fill-89" fill="#141414"></path>
                <path d="M110.707126,100.890507 C110.707126,100.890507 101.995024,100.666228 93.8636034,94.8138051 C93.8636034,94.8138051 98.7942235,95.1074371 103.245488,94.344323 C103.245488,94.344323 100.706241,94.3015359 97.5682099,93.4072395 C97.5682099,93.4072395 98.7932831,93.3759721 98.0757772,92.2108477 C98.0757772,92.2108477 104.167525,93.0033486 109.995263,92.0949465 C115.823706,91.1825479 108.38346,91.2784661 108.38346,91.2784661 L99.7778555,90.3881663 L95.772094,88.4190215 L91.7061486,86.8192089 L87.0759782,89.2315053 L86.7520191,94.3560777 L90.1608777,98.1039414 L93.5083768,98.7455121 L95.3919475,99.8194201 C95.3919475,99.8194201 91.4496613,101.881897 110.707126,100.890507" id="Fill-91" fill="#191919"></path>
                <g id="Group-95" transform="translate(42.787053, 155.257523)">
                    <mask id="mask-10" fill="white">
                        <use xlink:href="#path-9"></use>
                    </mask>
                    <g id="Clip-94"></g>
                    <path d="M52.3880443,2.87002385 C52.3861635,1.34755707 40.6662726,0.123424191 26.2103612,0.133768313 C11.7539796,0.14434753 0.0343236797,1.38446678 0.0359693356,2.90599319 C0.0359693356,4.42751959 11.7577411,5.65259284 26.2141227,5.64224872 C40.6700341,5.6319046 52.3892198,4.39060988 52.3880443,2.87002385" id="Fill-93" fill="#141414" mask="url(#mask-10)"></path>
                </g>
            </g>
        </g>
    </g>
</svg>