<?xml version="1.0" encoding="UTF-8"?>
<svg width="65px" height="65px" viewBox="0 0 65 65" version="1.1" xmlns="http://www.w3.org/2000/svg" xmlns:xlink="http://www.w3.org/1999/xlink">
    <!-- Generator: Sketch 50.2 (55047) - http://www.bohemiancoding.com/sketch -->
    <title>Group 2</title>
    <desc>Created with Sketch.</desc>
    <defs>
        <linearGradient x1="85.3139809%" y1="38.8710482%" x2="50%" y2="100%" id="linearGradient-1">
            <stop stop-color="#FAD961" offset="0%"></stop>
            <stop stop-color="#FFFF00" offset="100%"></stop>
        </linearGradient>
    </defs>
    <g id="Page-1" stroke="none" stroke-width="1" fill="none" fill-rule="evenodd">
        <g id="Desktop-HD" transform="translate(-193.000000, -306.000000)">
            <g id="Group-2" transform="translate(193.000000, 306.000000)">
                <circle id="Oval" fill="url(#linearGradient-1)" cx="32.5" cy="32.5" r="32.5"></circle>
                <g id="hand-graving-smartphone-(1)" transform="translate(9.000000, 11.000000)" fill="#000000" fill-rule="nonzero">
                    <path d="M38.6449118,19.4983803 L34.4351765,19.4983803 L33.8720294,19.4983803 C32.6275588,19.4983803 31.6182353,20.5122113 31.6182353,21.7664789 L31.6182353,22.0123662 C31.6182353,23.2678451 32.6275588,24.2822817 33.8738382,24.2822817 L38.0877941,24.2822817 L38.6449118,24.2822817 C39.8917941,24.2822817 40.9041324,23.2636056 40.9041324,22.0123662 L40.9017206,21.7634507 C40.9041324,20.5122113 39.8917941,19.4983803 38.6449118,19.4983803 Z" id="Shape"></path>
                    <path d="M38.6473235,13.8399437 L37.6530735,13.8399437 L37.6530735,2.86707042 C37.6530735,1.29 36.3688088,0 34.7981471,0 L15.9628676,0 C14.3928088,0 13.1085441,1.29060563 13.1085441,2.86707042 L13.1085441,10.7397042 C9.30941176,12.8969718 5.39089706,15.1505352 5.38245588,15.1559859 C3.25527941,16.0353662 0.138676471,18.8727606 0.138676471,25.5728873 C0.138676471,26.1712535 0.177867647,26.7235915 0.232735294,27.2571549 C0.250220588,27.4134085 0.269514706,27.5636056 0.290617647,27.7144085 C0.345485294,28.1062535 0.414220588,28.4811408 0.496220588,28.8372535 C0.525764706,28.9644366 0.548676471,29.0970704 0.580632353,29.2188028 C0.690970588,29.6306338 0.818794118,30.0170282 0.962294118,30.3846479 C1.03464706,30.5669437 1.11302941,30.7328873 1.19201471,30.9036761 C1.27642647,31.0835493 1.36144118,31.2603944 1.45248529,31.4257324 C1.558,31.6249859 1.66351471,31.8169718 1.77927941,31.9992676 C1.80701471,32.041662 1.83716176,32.0804225 1.8655,32.1234225 C4.6125,36.2944225 9.68022059,36.3131972 9.68022059,36.3131972 L13.1085441,36.3131972 L13.1085441,39.5709014 C13.1085441,41.1461549 14.3928088,42.4361549 15.9628676,42.4361549 L34.7975441,42.4361549 C36.3682059,42.4361549 37.6524706,41.1455493 37.6524706,39.5709014 L37.6524706,35.597338 L38.0877941,35.597338 L38.0877941,35.5949155 L38.6431029,35.5949155 C39.8917941,35.5949155 40.9041324,34.5804789 40.9017206,33.3262113 L40.9041324,33.0791127 C40.9017206,31.826662 39.8917941,30.8152535 38.6449118,30.8152535 L38.0877941,30.8152535 L34.4345735,30.8152535 L33.8714265,30.8152535 C32.6245441,30.8152535 31.6176324,31.8290845 31.6176324,33.0809296 L31.6176324,33.3322676 C31.6176324,34.5810845 32.6269559,35.5991549 33.8732353,35.5991549 L35.6663824,35.5991549 L35.6663824,37.133831 L15.0940294,37.133831 L15.0940294,16.5477324 C16.1274706,15.8894085 17.0843382,15.2559155 17.63,14.8313662 C20.3944853,12.6837887 23.0184853,10.9734789 23.3736176,9.4224507 C23.8360735,7.40992958 22.2979706,5.71415493 19.6299559,7.10650704 C18.7894559,7.54498592 17.0644412,8.50612676 15.0940294,9.61746479 L15.0940294,4.54346479 L35.6663824,4.54649296 L35.6663824,13.8387324 L34.4345735,13.8387324 L34.4345735,13.8411549 L33.8744412,13.8411549 C32.6269559,13.8411549 31.6146176,14.8549859 31.6146176,16.1104648 L31.6146176,16.3563521 C31.6146176,17.6112254 32.6269559,18.6226338 33.8714265,18.6226338 L34.4315588,18.6226338 L38.0847794,18.6226338 L38.6461176,18.6226338 C39.8917941,18.6226338 40.9017206,17.6088028 40.9017206,16.3563521 L40.9017206,16.1038028 C40.9041324,14.8568028 39.8948088,13.8399437 38.6473235,13.8399437 Z M25.3777941,38.1403944 C26.1688529,38.1403944 26.8067647,38.7817606 26.8067647,39.5745352 C26.8067647,40.3691268 26.16825,41.0080704 25.3777941,41.0080704 C24.58975,41.0080704 23.9530441,40.3673099 23.9530441,39.5745352 C23.95425,38.7841831 24.5927647,38.1403944 25.3777941,38.1403944 Z M28.3943088,2.76047887 L22.3673088,2.76047887 C22.1779853,2.76047887 22.0212206,2.60604225 22.0212206,2.41526761 C22.0212206,2.22146479 22.1779853,2.06702817 22.3673088,2.06702817 L28.3943088,2.06702817 C28.5836324,2.06702817 28.7379853,2.22085915 28.7379853,2.41526761 C28.7379853,2.60543662 28.5836324,2.76047887 28.3943088,2.76047887 Z" id="Shape"></path>
                    <path d="M38.6449118,25.1568169 L38.0877941,25.1568169 L33.8720294,25.1568169 C32.6275588,25.1568169 31.6152206,26.1736761 31.6152206,27.4255211 L31.6152206,27.673831 C31.6152206,28.9268873 32.6251471,29.9407183 33.8720294,29.9407183 L34.4321618,29.9407183 L38.0853824,29.9407183 L38.6437059,29.9407183 C39.8923971,29.9407183 40.8993088,28.9268873 40.9023235,27.673831 L40.9023235,27.4255211 C40.9017206,26.1736761 39.8948088,25.1568169 38.6449118,25.1568169 Z" id="Shape"></path>
                </g>
            </g>
        </g>
    </g>
</svg>