<?xml version="1.0" encoding="UTF-8"?>
<svg width="92px" height="92px" viewBox="0 0 92 92" version="1.1" xmlns="http://www.w3.org/2000/svg" xmlns:xlink="http://www.w3.org/1999/xlink">
    <!-- Generator: Sketch 50.2 (55047) - http://www.bohemiancoding.com/sketch -->
    <title>play-button</title>
    <desc>Created with Sketch.</desc>
    <defs>
        <linearGradient x1="-168.452066%" y1="-131.445312%" x2="120.908638%" y2="129.923019%" id="linearGradient-1">
            <stop stop-color="#F9F9F9" offset="0%"></stop>
            <stop stop-color="#DCDCDC" offset="100%"></stop>
        </linearGradient>
    </defs>
    <g id="Page-1" stroke="none" stroke-width="1" fill="none" fill-rule="evenodd">
        <g id="play-button" fill="url(#linearGradient-1)" fill-rule="nonzero">
            <path d="M85.829036,23.0035295 C73.1287662,1.00569699 44.9992914,-6.53177193 23.0034763,6.17099136 C1.00590367,18.8696536 -6.53176914,46.9982889 6.1708441,68.9952426 C18.8693563,90.9930752 46.9979523,98.5317158 68.9940603,85.8301242 C90.9919259,73.127068 98.5331139,44.9998974 85.829036,23.0035295 Z M64.3959393,77.8614574 C46.8005175,88.0239024 24.2955902,81.9935757 14.1361946,64.3944309 C3.97445553,46.7988013 10.0067615,24.2939011 27.6027691,14.136436 C45.1993626,3.97457684 67.7031181,10.0043176 77.8630996,27.6028766 C88.0233741,45.2011426 81.9928257,67.7013559 64.3959393,77.8614574 Z M62.5566323,44.1304711 L38.4736915,30.0846082 C36.2790605,28.8033176 34.508885,29.8277056 34.521188,32.3662664 L34.6445115,60.2459083 C34.6556429,62.7838831 36.4474952,63.8170592 38.6485707,62.5457283 L62.5472585,48.7476871 C64.7459906,47.4786997 64.7506774,45.4117617 62.5566323,44.1304711 Z" id="Shape"></path>
        </g>
    </g>
</svg>